<svg xmlns="http://www.w3.org/2000/svg" width="75.522" height="77.095" ><defs><filter id="A" x="8.624" y="8" width="60" height="61" filterUnits="userSpaceOnUse"><feOffset dy="6"/><feGaussianBlur result="A"/><feFlood flood-color="#f80"/><feComposite operator="in" in2="A"/><feComposite in="SourceGraphic"/></filter></defs><g transform="translate(-85.376 -21)"><rect width="75.522" height="77.095" rx="37.761" fill="#ffba00" opacity=".3" x="85.376" y="21"/><g transform="translate(85.38 21)" filter="url(#A)"><rect width="60" height="55" rx="27.5" transform="translate(8.62 8)" fill="#ffba00"/></g><g transform="matrix(.629 -.777 .777 .629 -8206.773 -2187.688)" fill="#fff"><path d="M3506.215 7905.342a5.78 5.78 0 0 1-.524-.023c-1.744-.153-3.286-1.258-5.063-2.869-.611-.553-4.746-5.122-7.828-9.567-1.005-1.45-1.917-2.878-2.695-4.156a22.58 22.58 0 0 1-2.275 3.993c-.328.461-1.323 1.865-2.892 1.865-.583 0-2.014-.219-2.693-2.251-.789-2.361-.432-6.825.114-9.93.355-2.022.847-3.885 1.423-5.386.75-1.957 1.623-3.29 2.667-4.075 1.261-.949 3.112-1.431 5.5-1.431 2.532 0 5.688.552 8.659 1.513 1.801.583 5.016 1.808 6.321 3.463.821 1.041.747 2.013.63 2.5-.161.668-.637 1.595-1.988 2.225-.623.291-1.411.51-2.41.673-1.168.19-2.52.286-3.899.355l2.678 3.569c2.207 2.999 4.214 5.866 5.651 8.072 2.5 3.835 3.098 5.339 3.252 6.519.141 1.068-.078 2.087-.633 2.947-.491.761-1.226 1.349-2.07 1.656-.611.224-1.258.337-1.923.337z"/><path d="M3506.215 7903.342c.432 0 .848-.073 1.238-.216.821-.299 1.575-1.178 1.404-2.463-.099-.762-.526-1.976-2.945-5.688l-5.586-7.978-5.022-6.574c4.124-.249 9.879-.122 10.309-1.901.585-2.434-13.85-7.074-17.962-3.979s-5.47 22.686-1.452 17.021c2.246-3.167 2.869-5.751 3.458-7.613 1.182 2.168 2.869 5.025 4.787 7.793 3.066 4.423 7.131 8.866 7.527 9.225 1.751 1.587 2.88 2.27 3.897 2.358.116.011.232.016.347.016m0 4a7.8 7.8 0 0 1-.704-.032c-2.434-.216-4.431-1.751-6.226-3.378-.666-.602-4.904-5.258-8.129-9.91l-.902-1.331a26.12 26.12 0 0 1-.793 1.186c-1.275 1.797-2.797 2.708-4.523 2.708-1.332 0-2.563-.566-3.464-1.594-.489-.558-.857-1.219-1.126-2.023-.424-1.269-.605-2.94-.555-5.109.042-1.816.248-3.822.596-5.8.377-2.146.905-4.137 1.525-5.755.889-2.318 1.979-3.94 3.333-4.958 1.615-1.215 3.87-1.832 6.701-1.832 2.733 0 6.113.587 9.275 1.61 3.583 1.16 6.031 2.549 7.276 4.127.995 1.263 1.352 2.757 1.003 4.206-.217.899-.906 2.553-3.088 3.57-.792.369-1.751.642-2.934.834l-.447.067.515.697c2.229 3.029 4.259 5.929 5.716 8.167 2.716 4.167 3.363 5.852 3.559 7.348.393 2.97-1.252 5.743-4 6.745-.83.303-1.708.458-2.608.458z" fill="#f80"/></g></g></svg>
