<svg xmlns="http://www.w3.org/2000/svg" xmlns:xlink="http://www.w3.org/1999/xlink" viewBox="0 0 149.01 122.37"><defs><style>.cls-1{fill:url(#Безымянный_градиент_786);}.cls-2{fill:url(#Безымянный_градиент_786-2);}.cls-3{fill:url(#Безымянный_градиент_786-3);}.cls-4{fill:url(#Безымянный_градиент_926);}.cls-5{fill:url(#Новый_образец_градиента_копия_3);}.cls-6{fill:url(#Безымянный_градиент_481);}.cls-7{fill:#e86b56;}.cls-8{fill:none;stroke:#bdbfc6;stroke-miterlimit:10;stroke-width:0.5px;}.cls-9{fill:#6473a0;}.cls-10{fill:url(#Безымянный_градиент_925);}.cls-11{fill:url(#Безымянный_градиент_925-2);}.cls-12{fill:url(#Безымянный_градиент_786-4);}.cls-13{fill:url(#Безымянный_градиент_2697);}.cls-14{fill:url(#Безымянный_градиент_3116);}.cls-15{fill:url(#Безымянный_градиент_2697-2);}.cls-16{fill:url(#Безымянный_градиент_2697-3);}.cls-17{fill:url(#Безымянный_градиент_925-3);}.cls-18{fill:url(#Безымянный_градиент_925-4);}</style><linearGradient id="Безымянный_градиент_786" x1="110.21" y1="-0.69" x2="60.86" y2="30.32" gradientUnits="userSpaceOnUse"><stop offset="0.22" stop-color="#694538"/><stop offset="1" stop-color="#1c1007"/></linearGradient><linearGradient id="Безымянный_градиент_786-2" x1="63.62" y1="64.93" x2="16.94" y2="48.04" xlink:href="#Безымянный_градиент_786"/><linearGradient id="Безымянный_градиент_786-3" x1="27.42" y1="61.23" x2="40.09" y2="127.75" xlink:href="#Безымянный_градиент_786"/><linearGradient id="Безымянный_градиент_926" x1="83.4" y1="43.26" x2="96.96" y2="107.29" gradientUnits="userSpaceOnUse"><stop offset="0.3" stop-color="#694538"/><stop offset="1" stop-color="#af6737"/></linearGradient><linearGradient id="Новый_образец_градиента_копия_3" x1="-44.85" y1="76.25" x2="-14.81" y2="76.25" gradientTransform="translate(-51 41.3) rotate(-101.29)" gradientUnits="userSpaceOnUse"><stop offset="0" stop-color="#ddf5f5"/><stop offset="1" stop-color="#c6d9db"/></linearGradient><linearGradient id="Безымянный_градиент_481" x1="-14.52" y1="105.82" x2="-32.58" y2="61.11" gradientTransform="translate(-51 41.3) rotate(-101.29)" gradientUnits="userSpaceOnUse"><stop offset="0" stop-color="#ddf5f5"/><stop offset="1" stop-color="#fafff5"/></linearGradient><linearGradient id="Безымянный_градиент_925" x1="95.23" y1="88.52" x2="81.56" y2="28.5" gradientUnits="userSpaceOnUse"><stop offset="0.22" stop-color="#694538"/><stop offset="1" stop-color="#af6737"/></linearGradient><linearGradient id="Безымянный_градиент_925-2" x1="107.81" y1="93.24" x2="96.48" y2="51.56" xlink:href="#Безымянный_градиент_925"/><linearGradient id="Безымянный_градиент_786-4" x1="90.26" y1="62.69" x2="118.33" y2="78.36" xlink:href="#Безымянный_градиент_786"/><linearGradient id="Безымянный_градиент_2697" x1="65.65" y1="40.96" x2="79.21" y2="54.9" gradientUnits="userSpaceOnUse"><stop offset="0" stop-color="#cbe9e5"/><stop offset="1" stop-color="#4f5b6f"/></linearGradient><linearGradient id="Безымянный_градиент_3116" x1="50.68" y1="70.43" x2="87.22" y2="107.98" gradientUnits="userSpaceOnUse"><stop offset="0" stop-color="#fffff9"/><stop offset="1" stop-color="#a7b9bd"/></linearGradient><linearGradient id="Безымянный_градиент_2697-2" x1="91.69" y1="55.84" x2="78.92" y2="134.48" xlink:href="#Безымянный_градиент_2697"/><linearGradient id="Безымянный_градиент_2697-3" x1="54.66" y1="62.62" x2="90.05" y2="62.62" xlink:href="#Безымянный_градиент_2697"/><linearGradient id="Безымянный_градиент_925-3" x1="75.38" y1="43.59" x2="73.2" y2="1.77" xlink:href="#Безымянный_градиент_925"/><linearGradient id="Безымянный_градиент_925-4" x1="80.67" y1="37.77" x2="79.04" y2="6.43" xlink:href="#Безымянный_градиент_925"/></defs><g id="Слой_2" data-name="Слой 2"><g id="Слой_2-2" data-name="Слой 2"><path class="cls-1" d="M60.21,34.26s-5.88-17-4.57-18.94S94.26,1.62,97.8,3.24s1.59,21.22,1.59,21.22l-6.47,2.31s2-17.37,0-17.67S63.47,15.32,62.17,16s5.29,18.29,5.29,18.29Z"/><path class="cls-2" d="M20.37,40.79c-4.46,3.35-5.08,10.52-2.86,18s36.82-4.93,36.82-7.54S23,38.83,20.37,40.79Z"/><path class="cls-3" d="M27.56,117.19c-1.3-19-9.65-54.78-10-58.41,3.77,1.24,10.7-2.32,11.35-4.28,5.23,11.1,12.41,28.73,13.06,34.61s2.61,26.12,7.19,30.69C42.58,115.88,38.66,113.92,27.56,117.19Z"/><path class="cls-4" d="M136.61,25.77c.65,18.94,3.91,37.22,5.87,41.14s.66,19.59,5.88,27.42c-20.9,0-82.93,18.29-99.25,25.47-7.19-7.18-6.52-25.42-8.16-31.65S30.17,56.46,28.86,54.5C43.88,51.89,116.36,40.79,136.61,25.77Z"/><path class="cls-5" d="M5.88,75.68C4.42,68.36,2.65,51.82,0,46.21c12.79-2.55,47.93-8.54,47.93-8.54,5.31,3.54,11.5,21.75,10,24.6C47.92,63.26,17.19,70.79,5.88,75.68Z"/><path class="cls-6" d="M8.85,67.47C6.88,60.19,3.44,48.09,0,46.21,16.63,42.38,43.89,38,53.64,33,56.29,36,61,46.83,61.8,55.88,53.43,57.55,22.63,62.16,8.85,67.47Z"/><polygon class="cls-7" points="12.54 54 13.15 55.87 11.29 56.48 12.01 58.67 13.87 58.06 14.49 59.92 16.68 59.2 16.07 57.34 17.93 56.73 17.21 54.53 15.35 55.14 14.73 53.28 12.54 54"/><path class="cls-8" d="M3,45.63c2,2.16,6.89,14,7.77,18.4,4.33-1.38,43.6-9.73,47.53-10.51.1-4.63-4.13-15.52-7.91-19.13"/><path class="cls-9" d="M27.21,53.06c0,.2.12.64-5.18,3.08l5.37.18a.26.26,0,0,1,.24.26.26.26,0,0,1-.26.25L21,56.61a.26.26,0,0,1-.24-.2h0a.26.26,0,0,1,.14-.28,43.29,43.29,0,0,0,5.78-3A8.58,8.58,0,0,0,25.45,53c-1-.13-1.57-.21-1.69-.55A.42.42,0,0,1,23.9,52a4.12,4.12,0,0,0,1.22-2,13.24,13.24,0,0,0-2.05-.79c-2.17-.73-3.19-1.12-3.29-1.62a.43.43,0,0,1,.16-.41l.56-.43a3.12,3.12,0,0,0,1.33-1.5.25.25,0,1,1,.48.14,3.54,3.54,0,0,1-1.5,1.76l-.5.38a13.07,13.07,0,0,0,2.92,1.21c1.84.62,2.31.81,2.38,1.12.12.63-.67,1.83-1.29,2.47a7,7,0,0,0,1.19.2C26.57,52.6,27.13,52.68,27.21,53.06Z"/><path class="cls-9" d="M35.1,46.47s0,.05,0,.07c0,.63-.93,1.18-2.94,2.19l.3.34a2.91,2.91,0,0,0,1.83,1.31c.47,0,.75.22.85.51.24.7-.76,1.71-1.87,2.71-.09.09-.08.13-.08.14.07.25.89.7,2.17,1a.24.24,0,0,1,.18.3.25.25,0,0,1-.3.19c-.7-.17-2.35-.65-2.53-1.37a.61.61,0,0,1,.23-.64c1.64-1.48,1.79-2,1.73-2.18s-.19-.15-.43-.17a3.34,3.34,0,0,1-2.16-1.48L31.7,49l0,0-1,.49c-1,.53-1.76.61-2.13.25a.88.88,0,0,1-.09-1,1.93,1.93,0,0,1,1.85-1.11,2.49,2.49,0,0,1,1.5.76c1.39-.7,2.82-1.43,2.8-1.78,0,0,0-.13-.48-.3a14.45,14.45,0,0,0-2.91-.45c-1.5-.12-2-.19-2.1-.56h0c-.06-.31.3-.51.46-.59.48-.26.5-.38.5-.38s-.2-.24-.3-.33a1.78,1.78,0,0,1-.72-1,.24.24,0,0,1,.2-.29.25.25,0,0,1,.29.19,1.4,1.4,0,0,0,.55.71c.26.22.52.44.48.76s-.26.5-.76.77l-.07,0a14,14,0,0,0,1.51.17,13.45,13.45,0,0,1,3,.48C34.48,45.86,35,46.06,35.1,46.47Zm-6.25,2.8a.13.13,0,0,0,0,.09c.14.14.63.13,1.56-.34l.87-.43a1.87,1.87,0,0,0-1.07-.5,1.43,1.43,0,0,0-1.34.82A.57.57,0,0,0,28.85,49.27Z"/><path class="cls-9" d="M45.64,48.13a.49.49,0,0,1,0,.12c0,.56-1.16,1-3.87,1.77-1.06.32-2.16.65-2.91,1-.33.13-.38.22-.38.22.24.46,4.39,1,5.77.75a.25.25,0,0,1,.1.49c-1.11.22-6-.1-6.35-1.13-.09-.31.13-.58.66-.8.78-.32,1.89-.66,3-1a14.06,14.06,0,0,0,3.5-1.32l-.09,0c-.41-.21-.89-.4-1.35-.6-1.22-.5-1.91-.81-2-1.25a.51.51,0,0,1,.07-.43c.1-.14,0-.61-.3-1.17a8.25,8.25,0,0,0-1,.8.88.88,0,0,1-.92.27c-.72-.23-1.29-1.45-1.49-2.54-.1-.53-.18-1.47.3-1.85a.86.86,0,0,1,.7-.16c.93.15,1.92,1.63,2,1.8s.34.53.55.93c.68-.49,1.33-1,1.32-1.39q0-.27-.45-.57a7.11,7.11,0,0,0-2.16-.93c-.47-.12-.75-.2-.84-.45a.48.48,0,0,1,.08-.45,1.22,1.22,0,0,1,.19-.23,3.47,3.47,0,0,1-.21-.48.25.25,0,1,1,.46-.18,3.41,3.41,0,0,0,.25.53c.14.25,0,.38-.08.43a.57.57,0,0,0-.19.2,3.78,3.78,0,0,0,.47.15,7.47,7.47,0,0,1,2.31,1,1.26,1.26,0,0,1,.68,1c0,.67-.76,1.24-1.6,1.84.32.67.54,1.39.3,1.75h0c0,.23,1.11.68,1.75.94.47.19,1,.4,1.39.61A.6.6,0,0,1,45.64,48.13Zm-7.11-4.88c.2,1,.7,1.93,1.13,2.06.09,0,.22,0,.41-.14a7.35,7.35,0,0,1,1.12-.9c-.17-.32-.36-.65-.56-1s-1.09-1.49-1.69-1.59a.37.37,0,0,0-.31.07c-.16.12-.26.59-.12,1.36C38.52,43.19,38.52,43.22,38.53,43.25Z"/><path class="cls-10" d="M131.38,10.75c-13.71,9-29.38,11.1-35.26,11.75S70,32.3,62.82,31.65s-38.53,5.87-42.45,9.14c10.45,1.3,21.55,10.45,22.86,18.94s3.92,24.39,5.88,26.56c9.79-2.85,89.46-24,99.9-25.26-3.91-11.1-3.26-29.13-4.57-37.09S139.87,12.2,131.38,10.75Z"/><path class="cls-11" d="M86.33,52.54c3.26-1.3,13.06-3.26,13.06-3.26,2.61,5.87,10.53,12.86,12.45,20.47s-2.66,12.83-.7,19.36c-5.22-3.26-7.84-3.92-7.84-3.92l-4,8.32c-1.89-4.4,2.45-15.42.61-21.34S88.94,59.73,86.33,52.54Z"/><path class="cls-12" d="M113.64,63.64c-1.13-1.3-16.49.86-17.54,3.27-.56,1.3,1.14,11.1,2.27,12.41s15.84-1.31,17-2.62S114.77,65,113.64,63.64Zm-.56,10.45c-.57,2-11.88,3.92-13,2.61s-1.69-6.53-1.69-8.49,13-3.26,13.57-1.95S113.64,72.13,113.08,74.09Z"/><path class="cls-13" d="M72.43,38.2a9.73,9.73,0,1,0,9.73,9.73A9.73,9.73,0,0,0,72.43,38.2Zm0,16.46a6,6,0,1,1,6-6A6,6,0,0,1,72.43,54.66Z"/><path class="cls-14" d="M68.88,54.84c-.56,3.61-2.19,37.13-2.62,40.6-.56,4.49-3.74,9-8.23,8.41-3.15-.39-9.35-2.8-11-6.73,1.87,0,4.26-.17,5.75-1.31-7.67-3.14-8.08-13.21-9.91-12.9-1.12.18-5.8,11.22-1.31,20a7.84,7.84,0,0,0,3-4.3,19.56,19.56,0,0,0,9,10.4c5.05,2.82,17,8.67,18.89,13.35V50.92C70.37,50.92,69.44,51.24,68.88,54.84Z"/><path class="cls-15" d="M76,54.84c.57,3.61,2.19,37.13,2.62,40.6.56,4.49,3.74,9,8.23,8.41,3.15-.39,9.35-2.8,11-6.73-1.87,0-4.26-.17-5.75-1.31,7.67-3.14,8.09-13.21,9.91-12.9,1.13.18,5.8,11.22,1.31,20a7.89,7.89,0,0,1-3-4.3,19.52,19.52,0,0,1-9,10.4c-5,2.82-17,8.67-18.89,13.35V50.92C74.49,50.92,75.42,51.24,76,54.84Z"/><path class="cls-16" d="M72.43,66.47c4.3,0,12.35,0,16.09-1.07a4.72,4.72,0,0,0,0-3.81c-2.06-.94-9.92-2.81-16.09-2.81s-14,1.87-16.08,2.81a4.67,4.67,0,0,0,0,3.81C60.09,66.45,68.13,66.47,72.43,66.47Z"/><path class="cls-17" d="M74.2,43c-1.12,1.15-2.63,3.25-4.81.57s-8.71-30.76-8.71-38.6S86-.6,86.14,6.24s-7.83,0-12.4,0S65,4.89,65.25,9.5C65.9,21.26,70.09,43.11,74.2,43Z"/><path class="cls-18" d="M75.81,38.81S87.07,11.45,86.28,7.54s-2.75-2.61-2.75-2.61c-2,13.06-10,33.33-10,33.33Z"/></g></g></svg>