<svg xmlns="http://www.w3.org/2000/svg" xmlns:xlink="http://www.w3.org/1999/xlink" viewBox="0 0 132.75 122.37"><defs><style>.cls-1{fill:url(#Безымянный_градиент_786);}.cls-2{fill:url(#Безымянный_градиент_786-2);}.cls-3{fill:url(#Безымянный_градиент_786-3);}.cls-4{fill:url(#Безымянный_градиент_926);}.cls-5{fill:url(#Безымянный_градиент_925);}.cls-6{fill:url(#Безымянный_градиент_925-2);}.cls-7{fill:url(#Безымянный_градиент_786-4);}.cls-8{fill:url(#Безымянный_градиент_2697);}.cls-9{fill:url(#Безымянный_градиент_3116);}.cls-10{fill:url(#Безымянный_градиент_2697-2);}.cls-11{fill:url(#Безымянный_градиент_2697-3);}.cls-12{fill:url(#Безымянный_градиент_925-3);}.cls-13{fill:url(#Безымянный_градиент_925-4);}</style><linearGradient id="Безымянный_градиент_786" x1="93.94" y1="-2.44" x2="44.59" y2="28.57" gradientUnits="userSpaceOnUse"><stop offset="0.22" stop-color="#694538"/><stop offset="1" stop-color="#1c1007"/></linearGradient><linearGradient id="Безымянный_градиент_786-2" x1="47.36" y1="63.19" x2="0.68" y2="46.29" xlink:href="#Безымянный_градиент_786"/><linearGradient id="Безымянный_градиент_786-3" x1="11.16" y1="59.49" x2="23.83" y2="126.01" xlink:href="#Безымянный_градиент_786"/><linearGradient id="Безымянный_градиент_926" x1="67.13" y1="41.52" x2="80.69" y2="105.54" gradientUnits="userSpaceOnUse"><stop offset="0.3" stop-color="#694538"/><stop offset="1" stop-color="#af6737"/></linearGradient><linearGradient id="Безымянный_градиент_925" x1="78.97" y1="86.78" x2="65.3" y2="26.76" gradientUnits="userSpaceOnUse"><stop offset="0.22" stop-color="#694538"/><stop offset="1" stop-color="#af6737"/></linearGradient><linearGradient id="Безымянный_градиент_925-2" x1="91.55" y1="91.5" x2="80.21" y2="49.82" xlink:href="#Безымянный_градиент_925"/><linearGradient id="Безымянный_градиент_786-4" x1="73.99" y1="60.94" x2="102.07" y2="76.62" xlink:href="#Безымянный_градиент_786"/><linearGradient id="Безымянный_градиент_2697" x1="48.98" y1="40.96" x2="62.55" y2="54.9" gradientUnits="userSpaceOnUse"><stop offset="0" stop-color="#cbe9e5"/><stop offset="1" stop-color="#4f5b6f"/></linearGradient><linearGradient id="Безымянный_градиент_3116" x1="34.01" y1="70.43" x2="70.56" y2="107.98" gradientUnits="userSpaceOnUse"><stop offset="0" stop-color="#fffff9"/><stop offset="1" stop-color="#a7b9bd"/></linearGradient><linearGradient id="Безымянный_градиент_2697-2" x1="75.03" y1="55.84" x2="62.26" y2="134.48" xlink:href="#Безымянный_градиент_2697"/><linearGradient id="Безымянный_градиент_2697-3" x1="38" y1="62.62" x2="73.38" y2="62.62" xlink:href="#Безымянный_градиент_2697"/><linearGradient id="Безымянный_градиент_925-3" x1="58.72" y1="43.59" x2="56.54" y2="1.77" xlink:href="#Безымянный_градиент_925"/><linearGradient id="Безымянный_градиент_925-4" x1="64.01" y1="37.77" x2="62.37" y2="6.43" xlink:href="#Безымянный_градиент_925"/></defs><g id="Слой_2" data-name="Слой 2"><g id="Слой_2-2" data-name="Слой 2"><path class="cls-1" d="M43.94,32.51s-5.88-17-4.57-18.93S78-.13,81.54,1.5s1.58,21.22,1.58,21.22L76.66,25s2-17.37,0-17.68S47.21,13.58,45.9,14.23s5.29,18.28,5.29,18.28Z"/><path class="cls-2" d="M4.11,39C-.35,42.39-1,49.56,1.24,57s36.82-4.94,36.82-7.55S6.72,37.08,4.11,39Z"/><path class="cls-3" d="M11.29,115.44C10,96.42,1.64,60.66,1.24,57,5,58.27,11.94,54.72,12.6,52.76,17.82,63.86,25,81.49,25.66,87.37s2.61,26.12,7.18,30.69C26.31,114.14,22.39,112.18,11.29,115.44Z"/><path class="cls-4" d="M120.34,24c.66,18.94,3.92,37.23,5.88,41.14s.65,19.59,5.88,27.43c-20.9,0-82.93,18.28-99.26,25.47-7.18-7.19-6.52-25.43-8.15-31.65S13.9,54.72,12.6,52.76C27.62,50.14,100.1,39,120.34,24Z"/><path class="cls-5" d="M115.12,9c-13.71,9-29.39,11.1-35.26,11.75S53.74,30.55,46.55,29.9,8,35.78,4.11,39C14.56,40.35,25.66,49.49,27,58s3.92,24.4,5.88,26.57c9.8-2.85,89.46-24,99.91-25.26-3.92-11.1-3.27-29.14-4.57-37.1S123.61,10.45,115.12,9Z"/><path class="cls-6" d="M70.06,50.8c3.27-1.31,13.06-3.27,13.06-3.27C85.73,53.41,93.66,60.39,95.57,68s-2.65,12.84-.69,19.37C89.65,84.1,87,83.45,87,83.45l-4,8.32c-1.9-4.4,2.45-15.42.6-21.34S72.67,58,70.06,50.8Z"/><path class="cls-7" d="M97.38,61.9c-1.14-1.31-16.5.86-17.54,3.26-.57,1.31,1.13,11.1,2.26,12.41s15.84-1.31,17-2.61S98.51,63.2,97.38,61.9Zm-.57,10.45c-.57,2-11.88,3.91-13,2.61s-1.7-6.53-1.7-8.49,13-3.27,13.58-2S97.38,70.39,96.81,72.35Z"/><path class="cls-8" d="M55.77,38.2a9.73,9.73,0,1,0,9.72,9.73A9.73,9.73,0,0,0,55.77,38.2Zm0,16.46a6,6,0,1,1,6-6A6,6,0,0,1,55.77,54.66Z"/><path class="cls-9" d="M52.21,54.84C51.65,58.45,50,92,49.59,95.44c-.56,4.49-3.74,9-8.23,8.41-3.14-.39-9.35-2.8-11-6.73,1.88,0,4.27-.17,5.76-1.31C28.46,92.67,28,82.6,26.21,82.91c-1.12.18-5.79,11.22-1.3,20a7.89,7.89,0,0,0,3-4.3,19.52,19.52,0,0,0,9,10.4c5,2.82,17,8.67,18.89,13.35V50.92C53.71,50.92,52.77,51.24,52.21,54.84Z"/><path class="cls-10" d="M59.32,54.84c.56,3.61,2.18,37.13,2.62,40.6.56,4.49,3.74,9,8.23,8.41,3.14-.39,9.35-2.8,11-6.73-1.88,0-4.27-.17-5.75-1.31,7.66-3.14,8.08-13.21,9.91-12.9,1.12.18,5.8,11.22,1.31,20a7.91,7.91,0,0,1-3-4.3,19.5,19.5,0,0,1-9,10.4c-5,2.82-17,8.67-18.89,13.35V50.92C57.82,50.92,58.76,51.24,59.32,54.84Z"/><path class="cls-11" d="M55.77,66.47c4.3,0,12.34,0,16.08-1.07a4.67,4.67,0,0,0,0-3.81c-2.06-.94-9.91-2.81-16.08-2.81s-14,1.87-16.09,2.81a4.72,4.72,0,0,0,0,3.81C43.42,66.45,51.46,66.47,55.77,66.47Z"/><path class="cls-12" d="M57.53,43c-1.11,1.15-2.62,3.25-4.81.57S44,12.77,44,4.93,69.33-.6,69.48,6.24s-7.84,0-12.41,0S48.33,4.89,48.58,9.5C49.24,21.26,53.42,43.11,57.53,43Z"/><path class="cls-13" d="M59.15,38.81S70.41,11.45,69.62,7.54s-2.75-2.61-2.75-2.61c-2,13.06-10,33.33-10,33.33Z"/></g></g></svg>