<svg xmlns="http://www.w3.org/2000/svg" xmlns:xlink="http://www.w3.org/1999/xlink" width="158.568" height="139.411" ><defs><linearGradient id="A" x1="1.231" y1="-.121" x2=".122" y2=".874"><stop offset=".219" stop-color="#694538"/><stop offset="1" stop-color="#1c1007"/></linearGradient><linearGradient id="B" x1="1.244" y1="1.184" x2=".018" y2=".364" xlink:href="#A"/><linearGradient id="C" x1=".314" y1=".103" x2=".715" y2="1.122" xlink:href="#A"/><linearGradient id="D" x1=".456" y1=".186" x2=".57" y2=".867"><stop offset=".296" stop-color="#694538"/><stop offset="1" stop-color="#af6737"/></linearGradient><linearGradient id="E" x1=".582" y1="1.03" x2=".476" y2=".235"><stop offset=".219" stop-color="#694538"/><stop offset="1" stop-color="#af6737"/></linearGradient><linearGradient id="F" x1=".827" y1=".994" x2=".391" y2=".052" xlink:href="#E"/><linearGradient id="G" x1="-.291" y1="-.034" x2="1.133" y2=".92" xlink:href="#A"/></defs><path d="M52.488 37.231s-7.021-20.28-5.459-22.621S93.164-1.761 97.396.184s1.893 25.346 1.893 25.346l-7.725 2.754s2.417-20.745 0-21.109-35.176 7.434-36.735 8.214 6.322 21.841 6.322 21.841z" fill="url(#A)"/><path d="M4.908 45.031c-5.332 4-6.065 12.562-3.423 21.49s43.983-5.892 43.983-9.011-37.44-14.82-40.56-12.479z" fill="url(#B)"/><path d="M13.483 136.29c-1.546-22.72-11.527-65.437-12-69.769 4.506 1.478 12.785-2.771 13.564-5.11 6.239 13.26 14.819 34.319 15.6 41.34s3.119 31.2 8.58 36.66c-7.799-4.68-12.478-7.021-25.744-3.121z" fill="url(#C)"/><path d="M143.75 27.094c.78 22.621 4.68 44.46 7.019 49.14s.781 23.4 7.021 32.76c-24.96 0-99.06 21.841-118.56 30.421-8.58-8.58-7.783-30.37-9.743-37.806S16.609 63.754 15.049 61.415C32.988 58.294 119.57 45.031 143.75 27.094z" fill="url(#D)"/><path d="M137.509 9.151c-16.38 10.754-35.1 13.26-42.119 14.039s-31.2 11.7-39.781 10.921-46.021 7.02-50.7 10.92c12.48 1.559 25.741 12.48 27.3 22.619s4.68 29.142 7.021 31.732c11.7-3.4 106.86-28.611 119.339-30.171-4.68-13.261-3.9-34.8-5.459-44.312s-5.46-14.022-15.601-15.748z" fill="url(#E)"/><path d="M83.689 59.07c3.9-1.559 15.6-3.9 15.6-3.9 3.119 7.02 12.587 15.36 14.873 24.451s-3.173 15.33-.834 23.13c-6.239-3.9-9.359-4.68-9.359-4.68l-4.758 9.94c-2.262-5.26 2.928-18.421.724-25.491S86.809 67.65 83.689 59.07z" fill="url(#F)"/><path d="M116.316 72.33c-1.352-1.559-19.7 1.025-20.949 3.9-.674 1.561 1.352 13.261 2.7 14.821s18.922-1.559 20.273-3.12-.672-14.04-2.024-15.601zm-.676 12.48c-.676 2.341-14.191 4.681-15.542 3.12s-2.027-7.8-2.027-10.139c0-2.467 15.542-3.9 16.218-2.341s2.027 7.021 1.351 9.36z" fill="url(#G)"/></svg>
