<svg xmlns="http://www.w3.org/2000/svg" xmlns:xlink="http://www.w3.org/1999/xlink" viewBox="0 0 91.76 99.03"><defs><style>.cls-1{fill:url(#Безымянный_градиент_829);}.cls-2{fill:url(#Новый_образец_градиента_копия_3);}.cls-3{fill:url(#Безымянный_градиент_481);}.cls-4{fill:#e86b56;}.cls-5{fill:none;stroke:#bdbfc6;stroke-miterlimit:10;stroke-width:0.5px;}.cls-6{fill:#6473a0;}.cls-7{fill:url(#Безымянный_градиент_829-2);}.cls-8{fill:url(#Безымянный_градиент_721);}.cls-9{fill:url(#Безымянный_градиент_721-2);}</style><linearGradient id="Безымянный_градиент_829" x1="15.36" y1="47.98" x2="89.97" y2="47.98" gradientUnits="userSpaceOnUse"><stop offset="0" stop-color="#a71a3b"/><stop offset="0.18" stop-color="#961632"/><stop offset="0.54" stop-color="#6a0b1c"/><stop offset="0.89" stop-color="#3b0004"/></linearGradient><linearGradient id="Новый_образец_градиента_копия_3" x1="1686.49" y1="-1032.26" x2="1716.53" y2="-1032.26" gradientTransform="translate(-1163.41 1627.84) rotate(-22.12)" gradientUnits="userSpaceOnUse"><stop offset="0" stop-color="#ddf5f5"/><stop offset="1" stop-color="#c6d9db"/></linearGradient><linearGradient id="Безымянный_градиент_481" x1="1716.82" y1="-1002.69" x2="1698.75" y2="-1047.4" gradientTransform="translate(-1163.41 1627.84) rotate(-22.12)" gradientUnits="userSpaceOnUse"><stop offset="0" stop-color="#ddf5f5"/><stop offset="1" stop-color="#fafff5"/></linearGradient><linearGradient id="Безымянный_градиент_829-2" x1="34.29" y1="71.28" x2="109.05" y2="71.28" xlink:href="#Безымянный_градиент_829"/><linearGradient id="Безымянный_градиент_721" x1="27.27" y1="30.45" x2="55.03" y2="30.45" gradientUnits="userSpaceOnUse"><stop offset="0" stop-color="#dd3461"/><stop offset="0.26" stop-color="#cc3254"/><stop offset="0.78" stop-color="#a02b32"/><stop offset="0.89" stop-color="#962a2a"/></linearGradient><linearGradient id="Безымянный_градиент_721-2" x1="6.21" y1="71.12" x2="71.51" y2="71.12" xlink:href="#Безымянный_градиент_721"/></defs><g id="Слой_2" data-name="Слой 2"><g id="Слой_2-2" data-name="Слой 2"><polygon class="cls-1" points="15.36 43.2 23.84 39.61 72.71 43.85 66.88 56.35 15.36 43.2"/><path class="cls-2" d="M0,11.31C6.91,8.5,22.82,3.66,27.83,0c4.91,12.09,17.4,45.47,17.4,45.47C42.75,51.35,26,60.86,23,59.94,20.1,50.27,6.92,21.5,0,11.31Z"/><path class="cls-3" d="M8.61,12.69c6.79-3.3,18-9,19.22-12.69,6.89,15.62,16.35,41.56,23.11,50.19C48.44,53.37,38.69,60,30,62.51,26.74,54.61,16.42,25.22,8.61,12.69Z"/><polygon class="cls-4" points="22.54 13.78 20.82 14.73 19.87 13.01 17.85 14.13 18.8 15.85 17.09 16.8 18.21 18.82 19.93 17.87 20.88 19.59 22.9 18.47 21.95 16.75 23.66 15.8 22.54 13.78"/><path class="cls-5" d="M29,2.79c-1.75,2.34-12.43,9.39-16.61,11.09,2.16,4,17.74,41,19.25,44.71,4.57-.77,14.47-7,17.3-11.37"/><path class="cls-6" d="M26.22,28c-.19.07-.6.24-4-4.5l.83,5.3a.26.26,0,0,1-.21.29.26.26,0,0,1-.29-.21l-1-6.36a.24.24,0,0,1,.15-.27h0a.24.24,0,0,1,.3.09,43.6,43.6,0,0,0,4,5.11,8.17,8.17,0,0,0,0-1.19c-.07-1-.09-1.58.22-1.76a.42.42,0,0,1,.47,0,4.15,4.15,0,0,0,2.22.81,12.82,12.82,0,0,0,.39-2.16c.32-2.27.51-3.35,1-3.53a.38.38,0,0,1,.42.08c.19.15.37.31.54.47a3.17,3.17,0,0,0,1.72,1,.25.25,0,1,1,0,.49,3.5,3.5,0,0,1-2-1.14l-.47-.42a13.32,13.32,0,0,0-.63,3.1c-.27,1.92-.37,2.42-.66,2.54-.6.25-1.92-.3-2.67-.8a7.24,7.24,0,0,0,0,1.21C26.55,27.3,26.58,27.86,26.22,28Z"/><path class="cls-6" d="M34.18,34.52l-.07,0c-.61.15-1.34-.69-2.7-2.48l-.29.36a3,3,0,0,0-.94,2c.05.47-.07.78-.34.93-.64.37-1.82-.42-3-1.32-.1-.08-.14-.06-.16,0-.23.11-.51,1-.58,2.31a.25.25,0,0,1-.26.24.25.25,0,0,1-.24-.26c0-.72.2-2.43.87-2.75a.63.63,0,0,1,.67.11C28.9,35,29.43,35.06,29.6,35s.11-.21.09-.45a3.32,3.32,0,0,1,1-2.4l.36-.46,0,0-.67-.87c-.71-.93-.93-1.62-.65-2.05a.88.88,0,0,1,1-.28A1.92,1.92,0,0,1,32.17,30a2.43,2.43,0,0,1-.46,1.61c.94,1.24,1.94,2.5,2.27,2.42,0,0,.13,0,.21-.53a13.55,13.55,0,0,0-.11-2.94c-.16-1.5-.19-2,.16-2.17h0c.3-.12.56.21.67.34.34.43.47.43.47.43s.19-.25.26-.37a1.84,1.84,0,0,1,.84-.89.25.25,0,0,1,.32.14.25.25,0,0,1-.13.33,1.37,1.37,0,0,0-.6.67c-.16.29-.33.59-.65.62s-.54-.16-.9-.61L34.47,29a11.72,11.72,0,0,0,.11,1.51,13.57,13.57,0,0,1,.1,3.08C34.65,33.8,34.57,34.36,34.18,34.52Zm-3.93-5.61a.24.24,0,0,0-.08.06c-.11.17,0,.65.63,1.47l.59.77a1.87,1.87,0,0,0,.28-1.13,1.43,1.43,0,0,0-1.05-1.17A.58.58,0,0,0,30.25,28.91Z"/><path class="cls-6" d="M34.53,45.19l-.12,0c-.56.06-1.15-1-2.47-3.47-.51-1-1-2-1.49-2.68-.2-.29-.3-.32-.3-.32-.4.32-.18,4.5.35,5.8a.26.26,0,0,1-.14.33.25.25,0,0,1-.32-.14c-.43-1-1-5.94-.08-6.44.29-.15.59,0,.91.49.46.71,1,1.73,1.52,2.73a14.21,14.21,0,0,0,2,3.18.3.3,0,0,0,0-.09c.13-.45.23-1,.34-1.44.26-1.29.43-2,.84-2.25a.5.5,0,0,1,.43,0c.17.07.6-.16,1.1-.52a9.84,9.84,0,0,0-1-.82.87.87,0,0,1-.44-.84c.09-.75,1.18-1.55,2.22-1.95.5-.19,1.4-.45,1.87,0a.86.86,0,0,1,.29.65c0,.94-1.24,2.19-1.39,2.33s-.46.43-.81.72c.61.58,1.22,1.12,1.61,1,.18,0,.34-.23.48-.55a6.87,6.87,0,0,0,.5-2.31c0-.48.06-.77.29-.91a.51.51,0,0,1,.45,0,1.62,1.62,0,0,1,.27.14,4.79,4.79,0,0,1,.44-.29.24.24,0,0,1,.34.07.26.26,0,0,1-.08.35,2.87,2.87,0,0,0-.48.35.29.29,0,0,1-.44,0,.57.57,0,0,0-.23-.14,2.83,2.83,0,0,0,0,.48,7.58,7.58,0,0,1-.55,2.46,1.24,1.24,0,0,1-.84.85c-.65.13-1.36-.51-2.11-1.22-.6.44-1.26.79-1.66.62h0c-.22.09-.45,1.22-.59,1.9-.11.5-.21,1-.34,1.47A.62.62,0,0,1,34.53,45.19ZM38,37.29c-.95.39-1.76,1.05-1.81,1.49,0,.09,0,.23.22.38a7.7,7.7,0,0,1,1.09.93c.29-.23.57-.48.83-.73s1.26-1.35,1.24-2a.36.36,0,0,0-.13-.29c-.15-.13-.62-.14-1.35.14Z"/><path class="cls-7" d="M34.29,54.63,65.64,48.1l7.07-4.24c3.74,9.79,15.19,35.91,19.05,40.48-2,5.23-6.34,3.92-9.33,5.23s-6,7.83-11.21,9.14C48.66,70.63,34.29,54.63,34.29,54.63Z"/><path class="cls-8" d="M28.42,45.81c-.66-17.63-5.24-34.89,10.11-34.09s16.34,13.74,16.5,36c-1.64,3.37-5.33,0-5.33,0,.92-11,2.22-31.29-11.49-32.6s-5.88,30.69-5.88,30.69Z"/><path class="cls-9" d="M15.36,43.2c-1.37,9.45-5.88,33.31-9.15,47C22.54,94.14,71.51,99,71.51,99,68.9,80.75,65.64,48.1,65.64,48.1Z"/></g></g></svg>