<svg xmlns="http://www.w3.org/2000/svg" xmlns:xlink="http://www.w3.org/1999/xlink" viewBox="0 0 150.81 116.71"><defs><style>.cls-1{fill:url(#Безымянный_градиент_786);}.cls-2{fill:url(#Безымянный_градиент_786-2);}.cls-3{fill:url(#Безымянный_градиент_786-3);}.cls-4{fill:url(#Безымянный_градиент_926);}.cls-5{fill:url(#Новый_образец_градиента_копия_3);}.cls-6{fill:url(#Безымянный_градиент_481);}.cls-7{fill:#e86b56;}.cls-8{fill:none;stroke:#bdbfc6;stroke-miterlimit:10;stroke-width:0.5px;}.cls-9{fill:#6473a0;}.cls-10{fill:url(#Безымянный_градиент_925);}.cls-11{fill:url(#Безымянный_градиент_925-2);}.cls-12{fill:url(#Безымянный_градиент_786-4);}</style><linearGradient id="Безымянный_градиент_786" x1="112.01" y1="-3.78" x2="62.66" y2="27.23" gradientUnits="userSpaceOnUse"><stop offset="0.22" stop-color="#694538"/><stop offset="1" stop-color="#1c1007"/></linearGradient><linearGradient id="Безымянный_градиент_786-2" x1="65.42" y1="61.84" x2="18.74" y2="44.95" xlink:href="#Безымянный_градиент_786"/><linearGradient id="Безымянный_градиент_786-3" x1="29.22" y1="58.14" x2="41.89" y2="124.66" xlink:href="#Безымянный_градиент_786"/><linearGradient id="Безымянный_градиент_926" x1="85.2" y1="40.17" x2="98.76" y2="104.2" gradientUnits="userSpaceOnUse"><stop offset="0.3" stop-color="#694538"/><stop offset="1" stop-color="#af6737"/></linearGradient><linearGradient id="Новый_образец_градиента_копия_3" x1="-530.4" y1="463.9" x2="-500.36" y2="463.9" gradientTransform="translate(-526.21 -362.06) rotate(-101.29)" gradientUnits="userSpaceOnUse"><stop offset="0" stop-color="#ddf5f5"/><stop offset="1" stop-color="#c6d9db"/></linearGradient><linearGradient id="Безымянный_градиент_481" x1="-500.07" y1="493.47" x2="-518.14" y2="448.76" gradientTransform="translate(-526.21 -362.06) rotate(-101.29)" gradientUnits="userSpaceOnUse"><stop offset="0" stop-color="#ddf5f5"/><stop offset="1" stop-color="#fafff5"/></linearGradient><linearGradient id="Безымянный_градиент_925" x1="97.03" y1="85.43" x2="83.36" y2="25.41" gradientUnits="userSpaceOnUse"><stop offset="0.22" stop-color="#694538"/><stop offset="1" stop-color="#af6737"/></linearGradient><linearGradient id="Безымянный_градиент_925-2" x1="109.61" y1="90.15" x2="98.28" y2="48.47" xlink:href="#Безымянный_градиент_925"/><linearGradient id="Безымянный_градиент_786-4" x1="92.06" y1="59.6" x2="120.13" y2="75.27" xlink:href="#Безымянный_градиент_786"/></defs><g id="Слой_2" data-name="Слой 2"><g id="Слой_2-2" data-name="Слой 2"><path class="cls-1" d="M62,31.17s-5.88-17-4.57-18.94S96.06-1.47,99.6.15s1.59,21.22,1.59,21.22l-6.47,2.31s2-17.37,0-17.67S65.27,12.23,64,12.88s5.29,18.29,5.29,18.29Z"/><path class="cls-2" d="M22.17,37.7c-4.46,3.35-5.08,10.52-2.86,18s36.82-4.93,36.82-7.54S24.79,35.74,22.17,37.7Z"/><path class="cls-3" d="M29.36,114.1c-1.3-19-9.65-54.78-10-58.41,3.77,1.24,10.7-2.32,11.35-4.28C35.89,62.51,43.07,80.14,43.72,86s2.61,26.12,7.19,30.69C44.38,112.79,40.46,110.83,29.36,114.1Z"/><path class="cls-4" d="M138.41,22.68c.65,18.94,3.91,37.22,5.87,41.14s.66,19.59,5.88,27.42c-20.9,0-82.93,18.29-99.25,25.47-7.19-7.18-6.52-25.42-8.16-31.65S32,53.37,30.66,51.41C45.68,48.8,118.16,37.7,138.41,22.68Z"/><path class="cls-5" d="M5.88,72.59C4.42,65.27,2.65,48.73,0,43.12c12.79-2.55,47.93-8.54,47.93-8.54,5.31,3.54,11.5,21.75,10,24.6C47.92,60.17,17.19,67.7,5.88,72.59Z"/><path class="cls-6" d="M8.85,64.38C6.88,57.1,3.44,45,0,43.12c16.63-3.83,43.89-8.25,53.64-13.26,2.65,3,7.37,13.88,8.16,22.93C53.43,54.46,22.63,59.07,8.85,64.38Z"/><polygon class="cls-7" points="12.54 50.91 13.15 52.77 11.29 53.39 12.01 55.58 13.87 54.97 14.49 56.84 16.68 56.11 16.07 54.25 17.93 53.63 17.21 51.44 15.35 52.05 14.73 50.19 12.54 50.91"/><path class="cls-8" d="M3,42.54c2,2.16,6.89,14,7.77,18.4,4.33-1.38,43.6-9.73,47.53-10.51.1-4.63-4.13-15.52-7.91-19.13"/><path class="cls-9" d="M27.21,50c0,.2.12.64-5.18,3.08l5.37.18a.26.26,0,0,1,.24.26.26.26,0,0,1-.26.25L21,53.52a.26.26,0,0,1-.24-.2h0a.26.26,0,0,1,.14-.28,43.29,43.29,0,0,0,5.78-3,8.58,8.58,0,0,0-1.18-.19c-1-.13-1.57-.21-1.69-.55a.42.42,0,0,1,.14-.45,4.12,4.12,0,0,0,1.22-2,13.24,13.24,0,0,0-2.05-.79c-2.17-.73-3.19-1.13-3.29-1.62a.43.43,0,0,1,.16-.41l.56-.43a3.12,3.12,0,0,0,1.33-1.5.25.25,0,1,1,.48.14A3.58,3.58,0,0,1,20.81,44l-.5.38a13.57,13.57,0,0,0,2.92,1.21c1.84.62,2.31.81,2.38,1.12.12.63-.67,1.83-1.29,2.47a7,7,0,0,0,1.19.2C26.57,49.51,27.13,49.59,27.21,50Z"/><path class="cls-9" d="M35.1,43.38s0,0,0,.07c0,.63-.93,1.18-2.94,2.19l.3.34a2.91,2.91,0,0,0,1.83,1.31c.47,0,.75.22.85.51.24.7-.76,1.71-1.87,2.71-.09.09-.08.13-.08.14.07.25.89.7,2.17,1a.24.24,0,0,1,.18.3.25.25,0,0,1-.3.19c-.7-.17-2.35-.65-2.53-1.37a.61.61,0,0,1,.23-.64c1.64-1.48,1.79-2,1.73-2.18s-.19-.15-.43-.17a3.34,3.34,0,0,1-2.16-1.48l-.39-.44,0,0-1,.49c-1,.53-1.76.61-2.13.25a.88.88,0,0,1-.09-1,1.93,1.93,0,0,1,1.85-1.11,2.49,2.49,0,0,1,1.5.76c1.39-.7,2.82-1.43,2.8-1.78,0,0,0-.13-.48-.3a14.45,14.45,0,0,0-2.91-.45c-1.5-.12-2-.19-2.1-.56h0c-.06-.31.3-.51.46-.59.48-.26.5-.38.5-.38s-.2-.24-.3-.33a1.78,1.78,0,0,1-.72-1,.24.24,0,0,1,.2-.29.25.25,0,0,1,.29.19,1.4,1.4,0,0,0,.55.71c.26.22.52.44.48.76s-.26.5-.76.77l-.07,0a14,14,0,0,0,1.51.17,13.45,13.45,0,0,1,3,.48C34.48,42.77,35,43,35.1,43.38Zm-6.25,2.8a.13.13,0,0,0,0,.09c.14.14.63.13,1.56-.34l.87-.43a1.87,1.87,0,0,0-1.07-.5,1.43,1.43,0,0,0-1.34.82A.57.57,0,0,0,28.85,46.18Z"/><path class="cls-9" d="M45.64,45a.49.49,0,0,1,0,.12c0,.56-1.16,1-3.87,1.77-1.06.32-2.16.65-2.91,1-.33.13-.38.22-.38.22.24.46,4.39,1,5.77.75a.25.25,0,0,1,.1.49c-1.11.22-6-.1-6.35-1.13-.09-.31.13-.58.66-.8.78-.32,1.89-.66,3-1a14.06,14.06,0,0,0,3.5-1.32L45,45.08c-.41-.21-.89-.41-1.35-.6-1.22-.5-1.91-.81-2-1.25a.51.51,0,0,1,.07-.43c.1-.15,0-.61-.3-1.17a8.25,8.25,0,0,0-1,.8.88.88,0,0,1-.92.27c-.72-.23-1.29-1.45-1.49-2.54-.1-.53-.18-1.47.3-1.85a.86.86,0,0,1,.7-.16c.93.15,1.92,1.63,2,1.8s.34.53.55.93c.68-.49,1.33-1,1.32-1.39q0-.27-.45-.57A7.11,7.11,0,0,0,40.31,38c-.47-.12-.75-.2-.84-.45a.48.48,0,0,1,.08-.45,1.22,1.22,0,0,1,.19-.23,3.47,3.47,0,0,1-.21-.48A.25.25,0,1,1,40,36.2a3.41,3.41,0,0,0,.25.53c.14.25,0,.38-.08.43a.57.57,0,0,0-.19.2,3.78,3.78,0,0,0,.47.15,7.47,7.47,0,0,1,2.31,1,1.26,1.26,0,0,1,.68,1c0,.67-.76,1.24-1.6,1.84.32.67.54,1.39.3,1.75h0c0,.23,1.11.68,1.75.94.47.19,1,.4,1.39.61A.6.6,0,0,1,45.64,45Zm-7.11-4.88c.2,1,.7,1.93,1.13,2.06.09,0,.22,0,.41-.14a7.35,7.35,0,0,1,1.12-.9c-.17-.32-.36-.65-.56-1s-1.09-1.49-1.69-1.59a.37.37,0,0,0-.31.07c-.16.12-.26.59-.12,1.36C38.52,40.1,38.52,40.13,38.53,40.16Z"/><path class="cls-10" d="M133.18,7.66c-13.71,9-29.38,11.1-35.26,11.75s-26.12,9.8-33.3,9.15S26.09,34.43,22.17,37.7C32.62,39,43.72,48.15,45,56.64S49,81,50.91,83.2c9.79-2.85,89.46-24,99.9-25.26-3.91-11.1-3.26-29.13-4.57-37.09S141.67,9.11,133.18,7.66Z"/><path class="cls-11" d="M88.13,49.45c3.26-1.3,13.06-3.26,13.06-3.26,2.61,5.87,10.53,12.86,12.45,20.47S111,79.49,112.94,86c-5.22-3.26-7.84-3.92-7.84-3.92l-4,8.32c-1.89-4.4,2.45-15.42.61-21.34S90.74,56.64,88.13,49.45Z"/><path class="cls-12" d="M115.44,60.55c-1.13-1.3-16.49.86-17.54,3.27-.56,1.3,1.14,11.1,2.27,12.41s15.84-1.31,17-2.62S116.57,61.86,115.44,60.55ZM114.88,71c-.57,2-11.88,3.92-13,2.61s-1.69-6.53-1.69-8.49,13-3.26,13.57-2S115.44,69,114.88,71Z"/></g></g></svg>