<svg xmlns="http://www.w3.org/2000/svg" width="77.22" height="103.943" ><defs><linearGradient id="A" y1=".5" x2="1.301" y2=".5"><stop offset="0" stop-color="#a71a3b"/><stop offset=".183" stop-color="#961532"/><stop offset=".544" stop-color="#6a0b1c"/><stop offset=".888" stop-color="#3b0004"/></linearGradient><linearGradient id="B" y1=".5" x2="1" y2=".5"><stop offset="0" stop-color="#dd3461"/><stop offset=".262" stop-color="#cc3153"/><stop offset=".778" stop-color="#a02b31"/><stop offset=".888" stop-color="#962a2a"/></linearGradient></defs><path d="M10.921 37.644l5.459-4.68 38.092 5.459c4.465 11.7 18.142 42.9 22.748 48.36-2.4 6.241-7.567 4.68-11.138 6.241s-7.145 9.359-13.4 10.919C36.306 83.489 22.297 61.248 10.921 37.644z" fill="url(#A)"/><g fill="url(#B)"><path d="M16.38 40.764C15.6 19.703 10.124-.92 28.462.032s19.512 16.419 19.7 43c-1.953 4.033-6.362 0-6.362 0 1.095-13.193 2.656-37.373-13.724-38.934S21.055 40.76 21.055 40.76z"/><path d="M10.921 37.643C9.288 48.926 3.9 77.423 0 93.803c19.5 4.68 52.686 10.139 52.686 10.139-.892-21.06-3.572-61.62-3.572-61.62z"/></g></svg>
