<svg xmlns="http://www.w3.org/2000/svg" xmlns:xlink="http://www.w3.org/1999/xlink" viewBox="0 0 75.79 118.46"><defs><style>.cls-1{fill:url(#Безымянный_градиент_1977);}.cls-2{fill:url(#Безымянный_градиент_1844);}.cls-3{fill:url(#Безымянный_градиент_1977-2);}</style><linearGradient id="Безымянный_градиент_1977" x1="40.08" y1="11.84" x2="36.41" y2="117.21" gradientUnits="userSpaceOnUse"><stop offset="0" stop-color="#f55"/><stop offset="1" stop-color="#922855"/></linearGradient><linearGradient id="Безымянный_градиент_1844" x1="38.44" y1="-0.8" x2="34.27" y2="116.07" gradientUnits="userSpaceOnUse"><stop offset="0.46" stop-color="#9f8580"/><stop offset="1" stop-color="#534133"/></linearGradient><linearGradient id="Безымянный_градиент_1977-2" x1="73.21" y1="13" x2="69.54" y2="118.37" xlink:href="#Безымянный_градиент_1977"/></defs><g id="Слой_2" data-name="Слой 2"><g id="Слой_2-2" data-name="Слой 2"><path class="cls-1" d="M63.05,57C59.46,30.59,51.52,5.67,48.35,2.51c-4.57-4.57-11.49-1.86-15.67,0C27.05,5,26.81,11,19,56.06a99.79,99.79,0,0,1-14.62,0C2,57.36,2,57.36.69,59.32c-.18,28.61,1.79,47.57,6.53,52.89,5.22,5.88,62.68,6.53,66-.65,2.32-5.11,2.62-55,2.62-55C70.56,58,63.05,57,63.05,57ZM28.56,57S24.22,9,32,4.47s16.32-1.31,17,2,3.92,50.93,3.92,50.93S36.6,58,28.56,57Z"/><path class="cls-2" d="M59.13,62.22C55.54,35.81,50.21,6.33,47.05,3.16,42.48-1.41,32.94.65,28.76,2.51,23.14,5,22.89,14.26,15.05,59.32a99.79,99.79,0,0,1-14.62,0c.26,35.26-2.36,47,2.87,52.89s61.38,8.49,64.64,3.92,3.93-54.35,3.93-54.35C66.64,63.24,59.13,62.22,59.13,62.22Zm-34.49-2S22.93,9.62,30.75,5.08,44.44,3.16,45.09,6.43,50,62,50,62,30.31,62.47,24.64,60.24Z"/><path class="cls-3" d="M71.87,61.78l3.92-5.22s0,48.47-2.62,55-8,5.84-8.25,5.86S71.87,61.78,71.87,61.78Z"/></g></g></svg>