<svg xmlns="http://www.w3.org/2000/svg" xmlns:xlink="http://www.w3.org/1999/xlink" width="92.057" height="97.843" ><defs><linearGradient id="A" x1=".473" y1="-.043" x2=".543" y2=".915"><stop offset="0" stop-color="#d7d2da"/><stop offset="1" stop-color="#1b2139"/></linearGradient><linearGradient id="B" x1=".066" y1=".226" x2="1.213" y2="1.134"><stop offset="0" stop-color="#6d515b"/><stop offset="1" stop-color="#1b2139"/></linearGradient><linearGradient id="C" x1=".215" y1=".052" x2=".803" y2="1.089" xlink:href="#B"/><linearGradient id="D" x1=".295" y1="-.054" x2=".706" y2=".981" xlink:href="#A"/><linearGradient id="E" x1=".357" y1="-.511" x2=".715" y2="1.677" xlink:href="#A"/><linearGradient id="F" x1="0" y1=".5" x2="1" y2=".5" xlink:href="#B"/></defs><path d="M10.91 24.194c7.76-1.118 59.087-7.318 66.189-8.2 7.851-.975 13.261 1.559 14.041 13.26.778 11.675 1.166 35.29.744 43.078s-.676 12.461-12.57 15.723-56.192 9.4-64.583 9.776S3.385 90.967 3.113 81.579.384 45.498.027 37.667 3.039 25.33 10.91 24.194z" fill="url(#A)"/><path d="M24.058 25.351c-.209-9.358-4.933-19.723 12.17-22.449S47.889 1.079 55.671.124s12.068 3.388 12.848 19.768c-1.559 1.559-6.239 1.559-6.239 1.559-1.561-12.48.421-16.928-7.021-16.38S39.444 7.458 34.012 8.413c-7.613 1.338-3.953 9.94-2.933 16.159a30.2 30.2 0 0 1-7.021.779z" fill="url(#B)"/><path d="M2.218 40.172a.78.78 0 0 1-.775-.7c-.929-9.3 5.677-12.051 10.726-13.314 3.11-.776 14.628-2 27.966-3.411l36.835-4.4c4.419-.737 7.608-.31 9.743 1.3 1.706 1.384 2.746 3.426 2.862 5.619a.78.78 0 1 1-1.551.172c-.068-1.767-.888-3.421-2.252-4.547-1.774-1.341-4.567-1.672-8.544-1.009-8.228 1.37-23.475 2.988-36.929 4.412-12.727 1.35-24.747 2.623-27.752 3.374-7.23 1.808-10.177 5.4-9.552 11.646a.78.78 0 0 1-.7.855c-.024-.002-.05.003-.077.003z" fill="url(#C)"/><path d="M89.987 22.836c-2.354-1.541-5.417-1.827-8.989-1.384l-66.189 8.2c-7.872 1.135-11.241 5.64-10.885 13.471S6.74 77.647 7.01 87.035a29.51 29.51 0 0 0 1.52 9.189c1.827 1.216 4.012 1.78 6.2 1.6 8.389-.376 52.689-6.517 64.583-9.776s12.148-7.935 12.57-15.723.034-31.4-.744-43.078a25.3 25.3 0 0 0-1.152-6.411z" fill="url(#D)"/><path d="M78.66 44.072c-19.5 7.02-49.14 7.8-59.281 7.8.78 7.8.78 16.38 1.561 21.06.64 3.847 4.68 7.8 12.48 7.021s35.1-3.9 40.56-6.241 5.459-6.239 5.459-13.26c0-6.253-.779-16.38-.779-16.38z" fill="url(#E)"/><path d="M19.38 52.652a.78.78 0 0 1 0-1.559c8.792 0 39.031-.56 59.017-7.754a.78.78 0 0 1 .528 1.467c-20.218 7.28-50.69 7.846-59.545 7.846z" fill="url(#F)"/></svg>
