<svg xmlns="http://www.w3.org/2000/svg" xmlns:xlink="http://www.w3.org/1999/xlink" width="90.527" height="141.5" ><defs><linearGradient id="A" x1=".525" y1=".101" x2=".476" y2="1.004"><stop offset="0" stop-color="#f55"/><stop offset="1" stop-color="#922855"/></linearGradient><linearGradient id="B" x1=".763" y1="-.716" x2=".426" y2="1.015" xlink:href="#A"/><linearGradient id="C" x1=".535" y1="-.01" x2=".477" y2=".98"><stop offset=".464" stop-color="#9f8580"/><stop offset="1" stop-color="#534133"/></linearGradient><linearGradient id="D" x1="2.119" y1="-1.414" x2="-.434" y2="1.61"><stop offset="0" stop-color="#ffe5b3"/><stop offset=".169" stop-color="#fadb9e"/><stop offset=".514" stop-color="#f0c46b"/><stop offset="1" stop-color="#df9f19"/></linearGradient><linearGradient id="E" x1="3.089" y1="-2.375" x2=".165" y2=".75" xlink:href="#D"/><linearGradient id="F" x1="3.655" y1="-2.566" x2="-.256" y2="1.346" xlink:href="#D"/><linearGradient id="G" x1="1.059" y1="-.077" x2="-.261" y2="1.382" xlink:href="#D"/><path id="H" d="M45.901 92.725l-7.782-.7-1.109-7.308 3.361 2.7 3.063-7.252 1.7 7.681 3.79-2.062z"/></defs><path d="M75.31 68.087c-4.29-31.55-13.77-61.31-17.549-65.089-5.461-5.459-13.729-2.22-18.721 0-6.724 2.991-7.02 10.141-16.38 63.961-7.021.78-17.463 0-17.463 0-2.817 1.559-2.817 1.559-4.378 3.9-.2 34.169 2.145 56.817 7.8 63.181 6.241 7.019 74.881 7.8 78.781-.781 2.777-6.108 3.127-65.7 3.127-65.7-6.247 1.74-15.217.528-15.217.528zm-41.2-.027s-5.184-57.308 4.148-62.721 19.5-1.561 20.28 2.339 4.68 60.84 4.68 60.84-19.502.781-29.102-.458z" fill="url(#A)"/><path d="M85.848 73.795l4.68-6.239s-.007 57.9-3.127 65.7-9.565 6.974-9.853 7 8.3-66.461 8.3-66.461z" fill="url(#B)"/><path d="M70.63 74.326C66.34 42.778 59.978 7.558 56.199 3.777c-5.459-5.459-16.848-3-21.839-.78-6.724 2.991-7.021 14.041-16.38 67.861-7.021.78-17.463 0-17.463 0 .3 42.119-2.817 56.16 3.422 63.181s73.32 10.139 77.22 4.68 4.688-64.924 4.688-64.924c-6.247 1.743-15.217.531-15.217.531zm-41.2-2.366s-2.036-60.474 7.3-65.888 16.351-2.295 17.132 1.605 5.834 66.383 5.834 66.383-23.494.561-30.266-2.1z" fill="url(#C)"/><g fill="#81330d"><path d="M50.736 96.652l-1.481.458-.072-.162a1.33 1.33 0 0 0-1.45-.815 1.37 1.37 0 0 0-1.084.763 2.02 2.02 0 0 0-.274 1.025 1.77 1.77 0 0 0 .589 1.382 1.43 1.43 0 0 0 .9.327 1.29 1.29 0 0 0 .776-.169 1.04 1.04 0 0 0 .463-.7l-1.243-.1v-.078l.078-.967c.005-.063.026-.077.085-.071q1.43.12 2.86.237c.024 0 .048.007.066.009l-.038.436c-.038.302-.111.598-.219.883a2.66 2.66 0 0 1-1.556 1.571 3.7 3.7 0 0 1-3.087-.342 2.72 2.72 0 0 1-1.1-1.471 3.21 3.21 0 0 1 .155-2.375 2.73 2.73 0 0 1 1.82-1.549c.564-.15 1.155-.167 1.726-.049.521.088 1.004.326 1.393.683.282.274.505.603.655.967a.54.54 0 0 0 .038.107zm-16.617.058l.225-2.749c0-.071.027-.087.1-.082l2.1.177a2.84 2.84 0 0 1 2.323 1.462 2.59 2.59 0 0 1 .068 2.654c-.436.876-1.295 1.463-2.269 1.553-.188.02-.377.022-.565.005l-2.126-.17c-.071-.007-.094-.024-.087-.1l.135-1.658.09-1.091zm1.658-1.478l-.264 3.2a2.78 2.78 0 0 0 .98 0c.266-.055.509-.187.7-.38.378-.381.55-.921.461-1.45a1.46 1.46 0 0 0-.637-1.057 1.79 1.79 0 0 0-.848-.283l-.392-.031zm5.364 2.322l-.245-.354a.94.94 0 0 1 .347-1.374 1.71 1.71 0 0 1 1.22-.143 1.45 1.45 0 0 1 .7.354.87.87 0 0 1 .058 1.241 2.01 2.01 0 0 1-.657.46l-.084.041.528.606.216-.434.831.337a2.49 2.49 0 0 1-.436.793l.468.369-.528.866-.528-.446c-.094-.083-.088-.087-.2-.019-.431.269-.947.366-1.447.274a1.9 1.9 0 0 1-.792-.3 1.17 1.17 0 0 1-.368-1.581 1.56 1.56 0 0 1 .6-.535l.317-.155zm1.222 1.508v-.014l-.761-.867c-.018-.013-.041-.015-.061-.007a.68.68 0 0 0-.363.395c-.094.213-.027.463.162.6.095.083.218.127.344.124a1.04 1.04 0 0 0 .679-.232zm-.64-2.411a.74.74 0 0 0 .054.209 3.54 3.54 0 0 0 .24.332c.007.009.041.007.056 0q.109-.054.214-.112a.4.4 0 0 0 .2-.436.4.4 0 0 0-.339-.294.36.36 0 0 0-.425.304z"/><use xlink:href="#H"/></g><path d="M49.956 96.652l-1.481.458-.073-.162c-.232-.578-.835-.917-1.449-.815-.469.05-.878.339-1.084.763a2.04 2.04 0 0 0-.276 1.025 1.77 1.77 0 0 0 .591 1.382c.252.208.567.324.894.327.271.027.543-.032.778-.169a1.04 1.04 0 0 0 .463-.7l-1.243-.1v-.078l.078-.967c.005-.063.025-.077.085-.071q1.43.12 2.86.237c.024 0 .048.007.066.009l-.037.436a3.96 3.96 0 0 1-.22.883c-.266.725-.834 1.298-1.556 1.571a3.7 3.7 0 0 1-3.088-.342c-.526-.348-.915-.868-1.1-1.471a3.22 3.22 0 0 1 .153-2.375 2.73 2.73 0 0 1 1.82-1.549c.564-.15 1.156-.167 1.728-.049.52.089 1.004.326 1.392.683.283.274.506.603.656.967.01.031.025.063.043.107z" fill="url(#D)"/><path d="M33.338 96.71q.115-1.374.226-2.749c.005-.071.027-.087.1-.082l2.1.177c.974.056 1.852.608 2.324 1.462a2.59 2.59 0 0 1 .068 2.654 2.9 2.9 0 0 1-2.834 1.558l-2.126-.17c-.073-.007-.094-.024-.087-.1l.135-1.658q.043-.544.09-1.091zm1.66-1.478l-.264 3.2c.324.058.656.058.98 0a1.37 1.37 0 0 0 .7-.38c.378-.381.55-.921.461-1.45a1.46 1.46 0 0 0-.636-1.057 1.79 1.79 0 0 0-.848-.283l-.394-.031z" fill="url(#E)"/><path d="M40.361 97.554l-.245-.354c-.156-.223-.207-.503-.141-.766s.245-.485.488-.608a1.71 1.71 0 0 1 1.219-.143 1.45 1.45 0 0 1 .7.354c.174.156.277.375.288.608s-.072.461-.23.633a2 2 0 0 1-.659.46l-.082.041.528.606.216-.434.831.337a2.49 2.49 0 0 1-.436.793l.468.369-.528.866-.528-.446c-.094-.083-.089-.087-.2-.019a2.04 2.04 0 0 1-1.447.274c-.283-.039-.554-.142-.792-.3a1.17 1.17 0 0 1-.368-1.581c.15-.228.357-.412.6-.535l.318-.155zm1.222 1.508v-.014l-.761-.867c-.018-.012-.041-.015-.061-.007a.68.68 0 0 0-.363.395c-.094.213-.027.463.162.6.095.083.218.127.344.124.247.005.487-.077.679-.232zm-.64-2.411a.75.75 0 0 0 .054.209c.073.115.154.226.24.332.007.009.041.007.056 0q.11-.054.214-.112a.4.4 0 0 0 .2-.436.4.4 0 0 0-.337-.294.36.36 0 0 0-.427.304z" fill="url(#F)"/><use xlink:href="#H" x="-0.78" fill="url(#G)"/></svg>
