<svg xmlns="http://www.w3.org/2000/svg" xmlns:xlink="http://www.w3.org/1999/xlink" viewBox="0 0 93.19 118.46"><defs><style>.cls-1{fill:url(#Безымянный_градиент_1977);}.cls-2{fill:url(#Новый_образец_градиента_копия_2);}.cls-3{fill:url(#Безымянный_градиент_158);}.cls-4{fill:#283547;}.cls-11,.cls-5{fill:none;stroke-miterlimit:10;}.cls-5{stroke:#283547;stroke-linecap:round;stroke-width:0.65px;}.cls-6{fill:url(#Безымянный_градиент_600);}.cls-7{fill:url(#Новый_образец_градиента_копия_2-2);}.cls-8{fill:url(#Новый_образец_градиента_копия_3);}.cls-9{fill:url(#Безымянный_градиент_481);}.cls-10{fill:#e86b56;}.cls-11{stroke:#bdbfc6;stroke-width:0.5px;}.cls-12{fill:#6473a0;}.cls-13{fill:url(#Безымянный_градиент_1844);}.cls-14{fill:#81330d;}.cls-15{fill:url(#Безымянный_градиент_2491);}.cls-16{fill:url(#Безымянный_градиент_2491-2);}.cls-17{fill:url(#Безымянный_градиент_2491-3);}.cls-18{fill:url(#Безымянный_градиент_2491-4);}.cls-19{fill:url(#Безымянный_градиент_1977-2);}</style><linearGradient id="Безымянный_градиент_1977" x1="53.53" y1="11.84" x2="49.86" y2="117.21" gradientUnits="userSpaceOnUse"><stop offset="0" stop-color="#f55"/><stop offset="1" stop-color="#922855"/></linearGradient><linearGradient id="Новый_образец_градиента_копия_2" x1="51.34" y1="-131.41" x2="51.34" y2="-109.13" gradientTransform="translate(-31.02 0.81) rotate(90)" gradientUnits="userSpaceOnUse"><stop offset="0" stop-color="#5d7d91"/><stop offset="1" stop-color="#374b6b"/></linearGradient><linearGradient id="Безымянный_градиент_158" x1="51.72" y1="-128.82" x2="51.02" y2="-78.57" gradientTransform="translate(17.88 151.64)" gradientUnits="userSpaceOnUse"><stop offset="0" stop-color="#fff"/><stop offset="1" stop-color="#c6d9db"/></linearGradient><linearGradient id="Безымянный_градиент_600" x1="38.28" y1="-126.1" x2="48.46" y2="-107.67" gradientTransform="translate(-15.23 126.46) rotate(21.01)" gradientUnits="userSpaceOnUse"><stop offset="0" stop-color="#ddf5f5" stop-opacity="0"/><stop offset="1" stop-color="#faffff" stop-opacity="0.5"/></linearGradient><linearGradient id="Новый_образец_градиента_копия_2-2" x1="51.34" y1="-76.93" x2="51.34" y2="-70.29" gradientTransform="translate(8.14 149.83)" xlink:href="#Новый_образец_градиента_копия_2"/><linearGradient id="Новый_образец_градиента_копия_3" x1="-167.97" y1="533.02" x2="-137.93" y2="533.02" gradientTransform="matrix(0.75, -0.67, 0.67, 0.75, -211.42, -450.3)" gradientUnits="userSpaceOnUse"><stop offset="0" stop-color="#ddf5f5"/><stop offset="1" stop-color="#c6d9db"/></linearGradient><linearGradient id="Безымянный_градиент_481" x1="-137.64" y1="562.59" x2="-155.71" y2="517.88" gradientTransform="matrix(0.75, -0.67, 0.67, 0.75, -211.42, -450.3)" gradientUnits="userSpaceOnUse"><stop offset="0" stop-color="#ddf5f5"/><stop offset="1" stop-color="#fafff5"/></linearGradient><linearGradient id="Безымянный_градиент_1844" x1="51.89" y1="-0.8" x2="47.72" y2="116.07" gradientUnits="userSpaceOnUse"><stop offset="0.46" stop-color="#9f8580"/><stop offset="1" stop-color="#534133"/></linearGradient><linearGradient id="Безымянный_градиент_2491" x1="61.22" y1="72.21" x2="48.05" y2="87.55" gradientUnits="userSpaceOnUse"><stop offset="0" stop-color="#ffe5b3"/><stop offset="0.17" stop-color="#fbdc9f"/><stop offset="0.51" stop-color="#f0c46b"/><stop offset="1" stop-color="#df9f19"/></linearGradient><linearGradient id="Безымянный_градиент_2491-2" x1="55.09" y1="66.94" x2="41.91" y2="82.28" xlink:href="#Безымянный_градиент_2491"/><linearGradient id="Безымянный_градиент_2491-3" x1="58.65" y1="70" x2="45.48" y2="85.34" xlink:href="#Безымянный_градиент_2491"/><linearGradient id="Безымянный_градиент_2491-4" x1="54.35" y1="66.3" x2="41.18" y2="81.64" xlink:href="#Безымянный_градиент_2491"/><linearGradient id="Безымянный_градиент_1977-2" x1="86.67" y1="13" x2="83" y2="118.37" xlink:href="#Безымянный_градиент_1977"/></defs><g id="Слой_2" data-name="Слой 2"><g id="Слой_2-2" data-name="Слой 2"><path class="cls-1" d="M76.5,57C72.91,30.59,65,5.67,61.81,2.51c-4.57-4.57-11.49-1.86-15.67,0C40.51,5,40.26,11,32.42,56.06a99.82,99.82,0,0,1-14.62,0c-2.35,1.3-2.35,1.3-3.66,3.26-.17,28.61,1.79,47.57,6.53,52.89,5.22,5.88,62.69,6.53,66-.65,2.33-5.11,2.62-55,2.62-55C84,58,76.5,57,76.5,57ZM42,57S37.67,9,45.48,4.47s16.33-1.31,17,2,3.92,50.93,3.92,50.93S50.05,58,42,57Z"/><rect class="cls-2" x="39.41" y="35.06" width="57.77" height="34.17" rx="4.85" transform="translate(-4.87 97.22) rotate(-68.99)"/><rect class="cls-3" x="55.34" y="26.63" width="27.78" height="46.22" rx="3.91" transform="matrix(0.93, 0.36, -0.36, 0.93, 22.43, -21.51)"/><rect class="cls-4" x="65.06" y="35.52" width="4.19" height="4.19" transform="translate(17.94 -21.57) rotate(21.01)"/><rect class="cls-4" x="67.92" y="40.62" width="2.09" height="2.09" transform="translate(19.52 -21.95) rotate(21.01)"/><rect class="cls-4" x="72.57" y="40.17" width="2.09" height="2.09" transform="translate(19.67 -23.65) rotate(21.01)"/><rect class="cls-4" x="70.32" y="46.03" width="2.09" height="2.09" transform="translate(21.62 -22.45) rotate(21.01)"/><rect class="cls-4" x="71.07" y="44.07" width="2.09" height="2.09" transform="translate(20.97 -22.85) rotate(21.01)"/><rect class="cls-4" x="76.19" y="48.28" width="2.09" height="2.09" transform="translate(22.81 -24.41) rotate(21.01)"/><rect class="cls-4" x="73.78" y="42.87" width="2.09" height="2.09" transform="translate(20.71 -23.9) rotate(21.01)"/><rect class="cls-4" x="71.37" y="37.46" width="2.09" height="2.09" transform="translate(18.62 -23.4) rotate(21.01)"/><rect class="cls-4" x="67.62" y="47.23" width="2.09" height="2.09" transform="translate(21.87 -21.41) rotate(21.01)"/><rect class="cls-4" x="65.67" y="46.48" width="2.09" height="2.09" transform="translate(21.47 -20.75) rotate(21.01)"/><rect class="cls-4" x="62.51" y="43.03" width="2.09" height="2.09" transform="translate(20.02 -19.85) rotate(21.01)"/><rect class="cls-4" x="65.21" y="41.82" width="2.09" height="2.09" transform="translate(19.77 -20.9) rotate(21.01)"/><rect class="cls-4" x="74.98" y="45.58" width="2.09" height="2.09" transform="translate(21.76 -24.15) rotate(21.01)"/><rect class="cls-4" x="66.12" y="51.14" width="2.09" height="2.09" transform="translate(23.17 -20.61) rotate(21.01)"/><rect class="cls-4" x="68.82" y="49.94" width="2.09" height="2.09" transform="translate(22.92 -21.66) rotate(21.01)"/><rect class="cls-4" x="76.79" y="40.02" width="4.19" height="4.19" transform="translate(20.34 -25.48) rotate(21.01)"/><rect class="cls-4" x="60.56" y="47.24" width="4.19" height="4.19" transform="translate(21.85 -19.18) rotate(21.01)"/><rect class="cls-4" x="72.29" y="51.74" width="4.19" height="4.19" transform="translate(24.24 -23.08) rotate(21.01)"/><rect class="cls-5" x="60.07" y="35.03" width="21.39" height="21.39" transform="matrix(0.93, 0.36, -0.36, 0.93, 21.09, -22.33)"/><path class="cls-6" d="M49.41,62.6l13.7-35.68a3.92,3.92,0,0,1,5-2.36L86.9,31.77A3.91,3.91,0,0,1,89,36.88"/><rect class="cls-7" x="53.71" y="73.26" width="11.55" height="3.69" rx="1.84" transform="translate(30.87 -16.33) rotate(21.01)"/><path class="cls-8" d="M0,39c5.57-5,18.93-14.87,22.42-20,8.68,9.73,31.65,37,31.65,37-.36,6.38-12.92,21-16.13,21.12C32,68.9,9.94,46.23,0,39Z"/><path class="cls-9" d="M8.57,37.36C13.86,32,22.55,22.88,22.42,19,34.15,31.35,51.77,52.61,61,58.47c-1.28,3.84-8.22,13.39-15.63,18.66C39.72,70.76,20.13,46.55,8.57,37.36Z"/><polygon class="cls-10" points="22.06 33.71 20.76 35.19 19.29 33.89 17.76 35.62 19.24 36.92 17.94 38.4 19.67 39.92 20.97 38.45 22.44 39.74 23.97 38.01 22.5 36.71 23.79 35.24 22.06 33.71"/><path class="cls-11" d="M24.42,21.21c-.87,2.79-8.56,13-11.93,16,3.38,3,30.48,32.65,33.15,35.65,4-2.26,11.29-11.43,12.48-16.52"/><path class="cls-12" d="M30.3,45.88c-.15.14-.48.44-5.28-2.9l2.57,4.72a.27.27,0,0,1-.1.34.26.26,0,0,1-.35-.1l-3.07-5.65a.26.26,0,0,1,.06-.31h0a.24.24,0,0,1,.31,0,42.82,42.82,0,0,0,5.48,3.47,8,8,0,0,0-.43-1.11c-.41-1-.62-1.46-.38-1.73a.42.42,0,0,1,.46-.11,4.11,4.11,0,0,0,2.36,0,13.93,13.93,0,0,0-.35-2.17c-.47-2.24-.65-3.32-.27-3.65a.4.4,0,0,1,.43-.07c.23.08.45.18.66.26a3,3,0,0,0,2,.38.26.26,0,0,1,.31.19.25.25,0,0,1-.19.3,3.53,3.53,0,0,1-2.27-.4l-.59-.24a13.61,13.61,0,0,0,.45,3.13c.39,1.9.47,2.41.23,2.62-.48.43-1.91.36-2.78.14A7.47,7.47,0,0,0,30,44.12C30.38,45.1,30.59,45.62,30.3,45.88Z"/><path class="cls-12" d="M40,49.35l-.06,0c-.52.35-1.49-.2-3.38-1.42,0,.14-.09.29-.14.43a2.94,2.94,0,0,0-.2,2.23.89.89,0,0,1,0,1c-.48.56-1.86.21-3.29-.23-.12,0-.14,0-.16,0A3.83,3.83,0,0,0,33,53.77a.25.25,0,1,1-.48.15c-.21-.69-.63-2.36-.1-2.88a.61.61,0,0,1,.66-.12c2.12.66,2.63.53,2.76.38s0-.23-.07-.45a3.38,3.38,0,0,1,.18-2.61c.07-.19.13-.38.19-.56l0,0-.92-.6c-1-.64-1.42-1.21-1.3-1.71a.86.86,0,0,1,.84-.59,1.91,1.91,0,0,1,1.89,1,2.48,2.48,0,0,1,.11,1.67c1.3.85,2.66,1.71,2.95,1.52,0,0,.11-.09,0-.57a13.56,13.56,0,0,0-1.09-2.74c-.65-1.36-.86-1.84-.57-2.09h0c.24-.22.59,0,.74.1.47.28.58.24.59.24s.09-.3.12-.43a1.79,1.79,0,0,1,.49-1.12.25.25,0,0,1,.33.37,1.44,1.44,0,0,0-.33.83c-.06.33-.12.67-.41.8s-.56,0-1.05-.27l-.07,0A14,14,0,0,0,39,45.45a14.57,14.57,0,0,1,1.13,2.86C40.19,48.51,40.3,49.07,40,49.35Zm-5.59-4a.14.14,0,0,0,0,.08c-.05.19.21.61,1.08,1.18l.82.53A2,2,0,0,0,36.14,46a1.42,1.42,0,0,0-1.39-.74A.63.63,0,0,0,34.4,45.38Z"/><path class="cls-12" d="M43.9,59.27a.3.3,0,0,1-.1.07c-.51.25-1.41-.51-3.49-2.44-.81-.75-1.66-1.53-2.31-2-.28-.21-.38-.2-.39-.2C37.34,55.11,39,59,39.89,60a.25.25,0,1,1-.37.34c-.75-.84-3-5.25-2.24-6,.22-.24.56-.18,1,.16.67.51,1.53,1.29,2.35,2.06a14,14,0,0,0,2.91,2.34v-.1c0-.46-.1-1-.17-1.47-.18-1.3-.27-2.06,0-2.4a.54.54,0,0,1,.4-.16c.18,0,.51-.34.86-.85a7.61,7.61,0,0,0-1.19-.44.87.87,0,0,1-.69-.66c-.17-.73.59-1.85,1.43-2.57.41-.35,1.17-.9,1.75-.67a.85.85,0,0,1,.49.51c.34.89-.43,2.49-.52,2.67s-.29.56-.52.94c.76.34,1.52.65,1.86.44.16-.09.25-.32.27-.68a7.29,7.29,0,0,0-.3-2.34c-.13-.46-.2-.74,0-1a.51.51,0,0,1,.43-.15,1.14,1.14,0,0,1,.3,0,3.18,3.18,0,0,1,.31-.43.25.25,0,0,1,.35,0,.26.26,0,0,1,0,.36,3.27,3.27,0,0,0-.34.48c-.14.25-.32.2-.41.15a.52.52,0,0,0-.27-.06,4.33,4.33,0,0,0,.11.47,7.53,7.53,0,0,1,.32,2.5,1.24,1.24,0,0,1-.51,1.08c-.57.35-1.45,0-2.4-.44-.42.61-.92,1.17-1.36,1.15h0c-.17.15,0,1.3.08,2,.07.51.15,1,.18,1.5A.59.59,0,0,1,43.9,59.27Zm.6-8.6c-.77.69-1.31,1.58-1.2,2,0,.09.07.21.33.28a8.91,8.91,0,0,1,1.34.51c.19-.31.38-.64.54-1a4,4,0,0,0,.5-2.26A.35.35,0,0,0,45.8,50c-.19-.08-.64.07-1.23.58Z"/><path class="cls-13" d="M72.58,62.22C69,35.81,63.67,6.33,60.5,3.16,55.93-1.41,46.4.65,42.22,2.51,36.59,5,36.34,14.26,28.51,59.32a99.79,99.79,0,0,1-14.62,0c.25,35.26-2.36,47,2.86,52.89s61.38,8.49,64.65,3.92,3.92-54.35,3.92-54.35C80.09,63.24,72.58,62.22,72.58,62.22Zm-34.49-2S36.39,9.62,44.2,5.08,57.89,3.16,58.54,6.43,63.43,62,63.43,62,43.76,62.47,38.09,60.24Z"/><path class="cls-14" d="M55.93,80.91l-1.24.39-.06-.14a1.13,1.13,0,0,0-1.22-.68,1.15,1.15,0,0,0-.91.64,1.6,1.6,0,0,0-.22.86,1.44,1.44,0,0,0,.49,1.15,1.2,1.2,0,0,0,.75.28,1.13,1.13,0,0,0,.65-.14.87.87,0,0,0,.39-.59l-1-.08s0,0,0-.07l.06-.81s0-.06.07-.06l2.4.2h.05c0,.12,0,.25,0,.36a3.48,3.48,0,0,1-.18.74,2.22,2.22,0,0,1-1.31,1.32,2.65,2.65,0,0,1-1.28.14A2.61,2.61,0,0,1,52,84a2.23,2.23,0,0,1-.92-1.23,2.69,2.69,0,0,1,.12-2,2.28,2.28,0,0,1,1.53-1.29,3.19,3.19,0,0,1,1.44,0,2.36,2.36,0,0,1,1.17.58,2.42,2.42,0,0,1,.55.81A.59.59,0,0,0,55.93,80.91Z"/><path class="cls-14" d="M42,81l.18-2.3c0-.06,0-.07.09-.07l1.76.15A2.39,2.39,0,0,1,46,80a2.16,2.16,0,0,1,.06,2.22,2.37,2.37,0,0,1-1.9,1.3,2.46,2.46,0,0,1-.47,0l-1.78-.14c-.06,0-.08,0-.08-.09l.12-1.38c0-.31.05-.61.07-.92Zm1.38-1.23-.22,2.68a2.26,2.26,0,0,0,.82,0,1.11,1.11,0,0,0,.59-.32A1.4,1.4,0,0,0,45,80.88a1.25,1.25,0,0,0-.53-.89,1.67,1.67,0,0,0-.71-.24Z"/><path class="cls-14" d="M47.89,81.67l-.2-.3A.79.79,0,0,1,48,80.22a1.51,1.51,0,0,1,1-.12,1.23,1.23,0,0,1,.59.3.74.74,0,0,1,0,1,1.7,1.7,0,0,1-.55.38l-.07,0,.44.5.18-.36.69.28A2,2,0,0,1,50,83l.39.31-.44.72-.44-.37c-.08-.07-.08-.07-.17,0a1.71,1.71,0,0,1-1.21.23,1.44,1.44,0,0,1-.66-.25,1,1,0,0,1-.31-1.32,1.28,1.28,0,0,1,.5-.45Zm1,1.26h0c-.22-.24-.43-.48-.64-.73h-.05a.59.59,0,0,0-.31.33.41.41,0,0,0,.14.5.43.43,0,0,0,.29.1A.81.81,0,0,0,48.92,82.93Zm-.54-2a1,1,0,0,0,0,.18,2.83,2.83,0,0,0,.2.28h0l.18-.1a.33.33,0,0,0-.12-.61A.3.3,0,0,0,48.38,80.91Z"/><polygon class="cls-14" points="51.88 77.63 45.37 77.04 44.44 70.92 47.25 73.19 49.81 67.12 51.24 73.55 54.41 71.82 51.88 77.63"/><path class="cls-15" d="M55.27,80.91,54,81.3,54,81.16a1.11,1.11,0,0,0-1.21-.68,1.14,1.14,0,0,0-.91.64,1.7,1.7,0,0,0-.23.86,1.45,1.45,0,0,0,.5,1.15,1.3,1.3,0,0,0,1.4.14.86.86,0,0,0,.38-.59l-1-.08v-.07c0-.27,0-.54.07-.81,0,0,0-.06.07-.06l2.39.2h.06l0,.36a3,3,0,0,1-.19.74,2.23,2.23,0,0,1-1.3,1.32,2.65,2.65,0,0,1-1.28.14,2.61,2.61,0,0,1-1.3-.43,2.29,2.29,0,0,1-.93-1.23,2.74,2.74,0,0,1,.13-2,2.28,2.28,0,0,1,1.53-1.29,3.18,3.18,0,0,1,1.44,0,2.36,2.36,0,0,1,1.17.58,2.42,2.42,0,0,1,.55.81Z"/><path class="cls-16" d="M41.36,81c.07-.76.13-1.53.19-2.3,0-.06,0-.07.08-.07l1.76.15a2.4,2.4,0,0,1,2,1.23,2.18,2.18,0,0,1,.06,2.22,2.38,2.38,0,0,1-1.9,1.3,2.57,2.57,0,0,1-.48,0l-1.78-.14c-.06,0-.07,0-.07-.09,0-.46.08-.92.11-1.38,0-.31,0-.61.08-.92Zm1.39-1.23-.22,2.68a2.26,2.26,0,0,0,.82,0,1.11,1.11,0,0,0,.59-.32,1.39,1.39,0,0,0,.38-1.21,1.22,1.22,0,0,0-.53-.89,1.58,1.58,0,0,0-.71-.24Z"/><path class="cls-17" d="M47.24,81.67l-.2-.3a.78.78,0,0,1,.29-1.15,1.49,1.49,0,0,1,1-.12,1.16,1.16,0,0,1,.58.3.72.72,0,0,1,0,1,1.51,1.51,0,0,1-.55.38l-.07,0,.45.5L49,82l.69.28a2.17,2.17,0,0,1-.36.67l.39.31-.44.72-.45-.37c-.07-.07-.07-.07-.16,0a1.71,1.71,0,0,1-1.21.23,1.44,1.44,0,0,1-.66-.25,1,1,0,0,1-.31-1.32,1.28,1.28,0,0,1,.5-.45Zm1,1.26h0l-.64-.73h0a.57.57,0,0,0-.3.33.41.41,0,0,0,.14.5.4.4,0,0,0,.28.1A.78.78,0,0,0,48.26,82.93Zm-.53-2a.53.53,0,0,0,0,.18,2.92,2.92,0,0,0,.21.28h0l.18-.1a.32.32,0,0,0,.17-.36.32.32,0,0,0-.28-.25A.29.29,0,0,0,47.73,80.91Z"/><polygon class="cls-18" points="51.23 77.63 44.71 77.04 43.78 70.92 46.6 73.19 49.16 67.12 50.59 73.55 53.76 71.82 51.23 77.63"/><path class="cls-19" d="M85.32,61.78l3.92-5.22s0,48.47-2.62,55-8,5.84-8.25,5.86S85.32,61.78,85.32,61.78Z"/></g></g></svg>