<svg xmlns="http://www.w3.org/2000/svg" xmlns:xlink="http://www.w3.org/1999/xlink" width="1920" height="1080" ><style><![CDATA[.B{fill:#dee8ff}.C{stroke-miterlimit:10}.D{fill:#fff}.E{fill:none}.F{stroke:#fdffff}.G{stroke-width:1.637}.H{fill:#fcfeff}.I{fill:#f7fdff}]]></style><defs><clipPath id="A"><path d="M8462.12 3540.268C8318.113 3408 8342.3 3318.2 8213.267 3290.152s-317.468-1.168-302.105 299.2-53.816 396.291 9.677 504.986 370.262 226.66 596.584 17.45 88.705-439.247-55.303-571.52z" transform="translate(-10414.456 -15068.683)" class="B"/></clipPath><clipPath id="B"><path d="M8129.14 3629.324c193.589-177.814 161.074-298.521 334.534-336.23s426.771-1.57 406.12 402.22 72.346 532.733-13.008 678.853-497.743 304.7-801.988 23.458-119.247-590.486 74.342-768.301z" transform="translate(-6669.016 -3068.989)" class="B"/></clipPath><clipPath id="C"><path d="M0 0h1920v1080H0z"/></clipPath><path id="D" d="M-1400.243-11603.218h-1406.089c-7.547.009-13.661 6.125-13.668 13.672v360.81c.009 7.545 6.123 13.659 13.668 13.668h1406.089c7.545-.009 13.658-6.123 13.667-13.668v-360.81c-.007-7.546-6.121-13.663-13.667-13.672zm-1180.87 382.678h-225.219a8.21 8.21 0 0 1-8.2-8.2v-360.806a8.21 8.21 0 0 1 8.2-8.2h1406.089a8.21 8.21 0 0 1 8.2 8.2v360.81a8.21 8.21 0 0 1-8.2 8.2h-1180.87"/><path id="E" d="M-2385.995-11402.071a8.5 8.5 0 1 0 0 17 8.5 8.5 0 0 0 8.5-8.5 8.51 8.51 0 0 0-8.5-8.5z"/><path id="F" d="M-2339.525-11402.071a8.5 8.5 0 1 0 0 17 8.5 8.5 0 1 0 0-17z"/><path id="G" d="M-2680.93-11476.586v16.165a4.89 4.89 0 0 1-5.188 5.14h-26.99a5.01 5.01 0 0 1-5.329-4.691h29.993c.684 0 1.885-.872 1.885-1.473v-13.584c0-.6-1.2-.892-1.885-.892h-30.012v-.666c0-2.918 1.782-5.328 4.747-5.59.309-.029-.056-.291-.056-.6v-.273a.56.56 0 0 0-.554-.619.4.4 0 0 1-.385-.45v-.018h-.872a1.07 1.07 0 0 1-.2-2.12v-.636a1.07 1.07 0 0 1 0-2.1c.066-.011.133-.017.2-.018h31.662a1.41 1.41 0 0 1 .2.018 1.07 1.07 0 0 1 0 2.1v.638a1.07 1.07 0 0 1-.2 2.12h-1.706v.018c0 .253.337.45.084.45-.337 0-.084.272-.084.619v.273c0 .309-.358.572-.057.6 2.964.261 4.747 2.671 4.747 5.589z"/><path id="H" d="M-2686.559-11475.024v13.58c0 .6-1.2 1.473-1.885 1.473h-29.994l-.018-.44v-15.513h30.011c.685 0 1.886.3 1.886.9z"/><path id="I" d="M-2707.536-11497.826c-.429.003-.776.35-.778.779v5.919c0 .433.351.783.783.783s.783-.351.784-.783v-5.919c-.003-.433-.356-.781-.789-.779zm9.166 0c-.434.003-.785.354-.788.788v5.9a.79.79 0 0 0 .789.761.79.79 0 0 0 .789-.761v-5.9c-.003-.434-.355-.785-.789-.788zm5.892 0c-.434.003-.785.354-.788.788v5.9c0 .438.355.793.793.793s.793-.355.793-.793v-5.9a.8.8 0 0 0-.798-.788zm5.9 0c-.434.002-.786.354-.789.788v5.9a.79.79 0 0 0 .788.788.79.79 0 0 0 .788-.788v-5.9c-.003-.433-.353-.784-.786-.788zm-29.2 8.144v.684c.066-.011.133-.017.2-.018h31.662a1.41 1.41 0 0 1 .2.018v-.684z"/><path id="J" d="M-2685.387-11500.096h-28.716c-.921.002-1.668.749-1.67 1.67v8.744h32.056v-8.744c-.002-.921-.749-1.668-1.67-1.67zm-27.224 8.969c0 .433-.351.783-.783.783s-.783-.351-.784-.783v-5.919c0-.433.351-.783.783-.783s.783.351.784.783zm5.863 0c0 .433-.351.783-.783.783s-.783-.351-.784-.783v-5.919c0-.433.351-.783.783-.783s.783.351.784.783zm9.166-.009a.79.79 0 0 1-.789.761.79.79 0 0 1-.788-.761v-5.9a.79.79 0 0 1 .788-.761.79.79 0 0 1 .789.761zm5.9 0c0 .438-.355.792-.793.792s-.793-.355-.793-.792v-5.9c0-.438.355-.793.793-.793s.793.355.793.793zm5.892 0a.79.79 0 0 1-.788.788.79.79 0 0 1-.788-.788v-5.9a.79.79 0 0 1 .788-.788.79.79 0 0 1 .788.788z"/><path id="K" d="M-2683.717-11489.678v.684a1.41 1.41 0 0 0-.2-.018h-31.659c-.067.001-.134.007-.2.018v-.684z"/><path id="L" d="M-2706.747-11497.047v5.919c0 .433-.351.783-.783.783s-.783-.351-.784-.783v-5.919c0-.433.351-.783.783-.783s.783.351.784.783z"/><path id="M" d="M-2697.582-11497.038v5.9a.79.79 0 0 1-.788.789.79.79 0 0 1-.789-.789v-5.9a.79.79 0 0 1 .789-.788.79.79 0 0 1 .788.788z"/><path id="N" d="M-2691.682-11497.038v5.9c0 .438-.355.793-.793.793s-.793-.355-.793-.793v-5.9c0-.438.355-.792.793-.792s.793.355.793.792z"/><path id="O" d="M-2685.79-11497.038v5.9a.79.79 0 0 1-.788.788.79.79 0 0 1-.788-.788v-5.9a.79.79 0 0 1 .788-.788.79.79 0 0 1 .788.788z"/><path id="P" d="M-2686.559-11475.024v13.58c0 .6-1.2 1.473-1.885 1.473h-30.2c-.009-.872.159-.44.188-.44v-15.513h30.011c.685 0 1.886.3 1.886.9z"/><path id="Q" d="M-2702.374-11472.937h-12.337a1.56 1.56 0 0 0-1.349 2.337 1.56 1.56 0 0 0 1.349.779h12.337a1.56 1.56 0 0 0 1.349-2.337 1.56 1.56 0 0 0-1.349-.779z"/><path id="R" d="M-2709.878-11468.618h-4.812c-.342 0-.658.182-.829.478s-.171.661 0 .957.487.479.829.478h4.812c.342 0 .658-.182.829-.478s.171-.661 0-.957-.487-.479-.829-.478z"/><path id="S" d="M-2649.328-11514.754h-13.516v11.238h13.516a5.62 5.62 0 0 0 5.619-5.619 5.62 5.62 0 0 0-5.619-5.619z"/><path id="T" d="M-2570.587-11551.101v-12.488a9.75 9.75 0 0 1 9.729-9.718h3.1c5.363.013 9.71 4.355 9.729 9.718v12.487"/><path id="U" d="M-2581.066-11487.046h19.364a10.96 10.96 0 0 0 10.93-10.93v-17.618a10.96 10.96 0 0 0-10.93-10.929h-19.364"/><path id="V" d="M-2491.314-11563.589v12.487c-.152-.016-.306-.023-.459-.02h-21.634c-.154-.003-.307.004-.46.02v-12.487c.019-5.363 4.366-9.705 9.729-9.718h3.1c5.361.016 9.705 4.357 9.724 9.718z"/><path id="W" d="M-2480.834-11540.191v72.209c-.02 6.033-4.906 10.919-10.939 10.938h-21.634c-6.033-.019-10.919-4.905-10.938-10.938v-19.064h19.362a10.97 10.97 0 0 0 10.939-10.93v-17.618a10.97 10.97 0 0 0-10.939-10.929h-19.362v-13.668c.018-5.852 4.632-10.656 10.478-10.91a3.63 3.63 0 0 1 .46-.019h21.634c.153-.003.307.003.459.019 5.847.254 10.461 5.058 10.48 10.91z"/><path id="X" d="M-2494.044-11515.594v17.621a10.97 10.97 0 0 1-10.939 10.93h-19.362v-39.48h19.362a10.97 10.97 0 0 1 10.939 10.929z"/><path id="Y" d="M-2434.594-11563.589v12.487a3.48 3.48 0 0 0-.45-.02h-21.644c-.153-.003-.307.004-.459.02v-12.487c.019-5.363 4.366-9.705 9.729-9.718h3.1a9.75 9.75 0 0 1 9.724 9.718z"/><path id="Z" d="M-2424.114-11540.191v72.209a10.97 10.97 0 0 1-10.93 10.938h-21.643c-6.033-.019-10.919-4.905-10.939-10.938v-19.064h19.363a10.97 10.97 0 0 0 10.939-10.93v-17.618a10.97 10.97 0 0 0-10.939-10.929h-19.363v-13.668c.019-5.852 4.633-10.656 10.479-10.91a3.63 3.63 0 0 1 .459-.019h21.649c.15-.003.301.003.45.019 5.848.25 10.463 5.057 10.475 10.91z"/><path id="a" d="M-2437.323-11515.594v17.621a10.97 10.97 0 0 1-10.939 10.93h-19.364v-39.48h19.363a10.97 10.97 0 0 1 10.94 10.929z"/><path id="b" d="M-2467.626-11526.523h19.363a10.97 10.97 0 0 1 10.939 10.929v17.621a10.97 10.97 0 0 1-10.939 10.93h-19.363"/><path id="c" d="M-1645.223-11337.083v36.765c-.137 3.07-2.678 5.482-5.751 5.46h-27.338a5.39 5.39 0 0 1-5.376-5.46v-36.765l.038-2.29a74.32 74.32 0 0 1 2.205-15.835c1.362-5.468 3.323-10.77 5.845-15.809l1.125-2.1a35.45 35.45 0 0 0 3.912-15.283h12.148c.023.002.046-.001.067-.009a35.02 35.02 0 0 0 3.734 15.292l1.219 2.1c5.315 10.526 8.113 22.142 8.172 33.934z"/><path id="d" d="M-1657.278-11404.578v15.029a1.13 1.13 0 0 1-1.069 1.136c-.021.008-.044.011-.067.009h-12.533a1.14 1.14 0 0 1-1.136-1.145v-15.029a1.14 1.14 0 0 1 1.136-1.144h12.533a1.14 1.14 0 0 1 1.136 1.144z"/><path id="e" d="M-1672.918-11356.816a23.4 23.4 0 0 0-8.617 1.641 75.8 75.8 0 0 0-2.15 18.093v27.29a22.11 22.11 0 0 0 10.813 2.636c13.376 0 24.2-11.117 24.2-24.829s-10.867-24.831-24.246-24.831z"/><path id="f" d="M-1601.132-11337.083v36.765a5.24 5.24 0 0 1-5.2 5.46h-27.337c-3.012 0-5.929-2.448-5.929-5.46v-36.765l.029-1.783c.337-11.188 3.133-22.164 8.189-32.15l1.266-2.1c2.37-4.754 3.615-9.988 3.64-15.3a.96.96 0 0 0 .179.019h12.524c.152.003.303-.029.441-.094a34.8 34.8 0 0 0 3.546 15.376l.845 2.1a75.64 75.64 0 0 1 7.807 33.932z"/><path id="g" d="M-1612.631-11404.578v15.029c.003.458-.271.873-.694 1.051a.99.99 0 0 1-.441.094h-12.525c-.06-.001-.12-.008-.179-.02a1.15 1.15 0 0 1-.966-1.125v-15.029a1.15 1.15 0 0 1 1.145-1.144h12.52a1.14 1.14 0 0 1 1.14 1.144z"/><path id="h" d="M-1628.27-11356.816c-3.042-.002-6.059.555-8.9 1.641a76.08 76.08 0 0 0-2.428 18.093v27.29a26.2 26.2 0 0 0 11.091 2.636c13.378 0 24.338-11.117 24.338-24.829s-10.724-24.831-24.101-24.831z"/><path id="i" d="M-1556.099-11337.084v36.765c-.057 3.039-2.543 5.47-5.583 5.46h-27.327a5.54 5.54 0 0 1-5.554-5.46v-36.765l.065-2.853.085-1.726.178-2.28.244-2.27.309-2.158.065-.45.3-1.755.141-.713.272-1.332.432-1.9.168-.666a77.68 77.68 0 0 1 5.865-15.836l1.172-2.1a35.21 35.21 0 0 0 3.828-15.282h12.214a35.2 35.2 0 0 0 3.818 15.282l1.174 2.1c5.309 10.528 8.093 22.148 8.134 33.939z"/><path id="j" d="M-1583.622-11356.816a23.86 23.86 0 0 0-8.7 1.641c-1.469 5.919-2.22 11.994-2.236 18.093v27.29c3.391 1.681 7.116 2.582 10.9 2.636 13.378 0 24.243-11.117 24.243-24.829s-10.829-24.831-24.207-24.831z"/><path id="k" d="M-1501.538-11380.735h-21.643c-7.545.011-13.658 6.124-13.669 13.669v60.134c.008 7.546 6.123 13.661 13.669 13.669h21.643c7.546-.008 13.661-6.123 13.669-13.669v-60.134c-.011-7.545-6.124-13.658-13.669-13.669zm-29.842 13.669a8.21 8.21 0 0 1 8.2-8.2h21.643a8.21 8.21 0 0 1 8.2 8.2v15.92h-38.041zm38.041 60.134c-.003 4.529-3.671 8.201-8.2 8.209h-21.643a8.22 8.22 0 0 1-8.2-8.209v-38.585h38.041z"/><path id="l" d="M-1921.599-11379.594c-1.72-.759-3.58-1.149-5.46-1.144h-21.643c-1.884-.002-3.747.391-5.47 1.153-4.976 2.174-8.194 7.086-8.2 12.516v60.134c.007 7.546 6.123 13.662 13.669 13.669h21.643c7.546-.008 13.661-6.123 13.669-13.669v-60.131a13.69 13.69 0 0 0-8.208-12.528zm2.739 72.659a8.22 8.22 0 0 1-8.2 8.209h-21.643a8.22 8.22 0 0 1-8.2-8.209v-60.131a8.21 8.21 0 0 1 8.2-8.2h21.643a8.21 8.21 0 0 1 8.2 8.2z"/><path id="m" d="M-1921.599-11390.07v10.478c-1.72-.759-3.58-1.149-5.46-1.144h-.91v-9.335c-.007-2.265-1.844-4.098-4.109-4.1h-11.614a4.1 4.1 0 0 0-4.1 4.1v9.335h-.91c-1.884-.002-3.747.391-5.47 1.153v-10.487c.006-5.785 4.694-10.473 10.479-10.479h11.614c5.785.006 10.474 4.694 10.48 10.479z"/><path id="n" d="M-1979.229-11379.594c-1.725-.754-3.587-1.144-5.47-1.144h-21.633c-7.548.002-13.667 6.121-13.669 13.669v60.134a13.68 13.68 0 0 0 13.669 13.669h21.635a13.68 13.68 0 0 0 13.669-13.669v-60.131a13.69 13.69 0 0 0-8.201-12.528zm2.739 72.659c-.008 4.53-3.679 8.201-8.209 8.209h-21.633a8.22 8.22 0 0 1-8.2-8.209v-60.131a8.21 8.21 0 0 1 8.2-8.2h21.635a8.22 8.22 0 0 1 8.209 8.2z"/><path id="o" d="M-1979.229-11390.07v10.478a13.67 13.67 0 0 0-5.47-1.144h-.91v-9.335a4.1 4.1 0 0 0-4.1-4.1h-11.613a4.1 4.1 0 0 0-4.1 4.1v9.335h-.91c-1.883.001-3.745.39-5.47 1.144v-10.478c.006-5.785 4.694-10.473 10.479-10.479h11.614c5.785.006 10.474 4.694 10.48 10.479z"/><path id="p" d="M-2036.859-11379.594c-1.725-.754-3.587-1.143-5.47-1.144h-21.642c-1.88-.005-3.741.385-5.461 1.144-4.982 2.175-8.204 7.092-8.21 12.528v60.134c.007 7.546 6.123 13.662 13.669 13.669h21.642a13.68 13.68 0 0 0 13.669-13.669v-60.134a13.69 13.69 0 0 0-8.197-12.528zm2.73 72.659a8.22 8.22 0 0 1-8.2 8.209h-21.642a8.22 8.22 0 0 1-8.2-8.209v-60.131a8.21 8.21 0 0 1 8.2-8.2h21.642a8.21 8.21 0 0 1 8.2 8.2z"/><path id="q" d="M-2036.859-11390.07v10.478a13.67 13.67 0 0 0-5.47-1.144h-.91v-9.335a4.1 4.1 0 0 0-4.1-4.1h-11.614a4.1 4.1 0 0 0-4.1 4.1v9.335h-.919a13.44 13.44 0 0 0-5.461 1.144v-10.478c.006-5.785 4.694-10.473 10.479-10.479h11.614c5.786.005 10.475 4.693 10.481 10.479z"/><path id="r" d="M-2150.003-11520.954h-24.6c-.513 0-1.609-.3-1.609-.245v6.445c0-.1 1.089.367 1.609.367h24.6c4.27 0 7.563 2.956 7.563 7.226v15.491c0 4.27-3.293 8.242-7.563 8.242h-24.6c-.583-.076-1.137-.299-1.609-.649v6.444c.468.38 1.02.644 1.609.771h24.6c7.787 0 14.13-7.022 14.13-14.809v-15.49c-.019-3.711-1.525-7.26-4.18-9.852s-6.239-4.012-9.95-3.941z"/><path id="s" d="M-2081.66-11520.954h-24.6c-.513 0-1.462-.3-1.462-.245v6.445c0-.1.943.367 1.462.367h24.6c4.271 0 7.708 2.956 7.708 7.226v15.491c0 4.27-3.437 8.242-7.708 8.242h-24.6a2.79 2.79 0 0 1-1.462-.649v6.444a3.11 3.11 0 0 0 1.462.771h24.6c7.788 0 14.275-7.022 14.275-14.809v-15.49a13.99 13.99 0 0 0-14.275-13.793z"/><path id="t" d="M-2013.322-11520.954h-24.6c-.513 0-1.318-.3-1.318-.245v6.445c0-.1.8.367 1.318.367h24.6c4.271 0 7.854 2.956 7.854 7.226v15.491c0 4.27-3.583 8.242-7.854 8.242h-24.6c-.5-.061-.965-.29-1.318-.649v6.444a2.5 2.5 0 0 0 1.318.771h24.6c7.789 0 14.421-7.022 14.421-14.809v-15.49c0-7.788-6.633-13.793-14.421-13.793z"/><path id="u" d="M-1554.654-11502.946c-43.315 0-43.921 28.755-42.806 38.825a3.87 3.87 0 0 0 3.855 3.431h77.937a3.87 3.87 0 0 0 3.856-3.435c1.106-10.071.468-38.821-42.842-38.821z"/><path id="v" d="M-1569.168-11501.578v-17.936a6.18 6.18 0 0 1 6.173-6.174h16.708c1.638 0 3.208.65 4.366 1.808s1.808 2.728 1.808 4.366v17.871"/><path id="w" d="M-1455.298-11495.771h-20.273a13.23 13.23 0 0 0-13.213 13.212v10.934a13.23 13.23 0 0 0 13.213 13.213h20.273a13.23 13.23 0 0 0 13.213-13.213v-10.934a13.23 13.23 0 0 0-13.213-13.212zm8.656 24.146c-.005 4.779-3.877 8.651-8.656 8.656h-20.273c-4.779-.005-8.651-3.877-8.656-8.656v-10.934c.005-4.779 3.877-8.651 8.656-8.656h20.273c4.779.005 8.651 3.877 8.656 8.656z"/><path id="x" d="M-2767.784-11351.897l1.52-.188h20.959c7.073.067 12.772 5.818 12.777 12.891v13.359c0 7.036-5.742 13.152-12.777 13.152h-20.959c-.514-.119-1.022-.265-1.52-.44"/><path id="y" d="M-2767.784-11348.212l1.52-.121h20.959c2.41.011 4.716.98 6.41 2.695s2.635 4.033 2.615 6.442v13.36a9.3 9.3 0 0 1-9.025 9.4h-20.959a13.2 13.2 0 0 1-1.52-.366"/><path id="z" d="M-2716.759-11351.925l1.521-.16h20.958c3.361.048 6.563 1.437 8.894 3.858s3.598 5.673 3.518 9.033v13.359c0 7.036-5.376 13.152-12.412 13.152h-20.958a9.21 9.21 0 0 1-1.521-.375"/><path id="AA" d="M-2716.759-11348.239l1.521-.094h20.958c5.029 0 8.659 4.109 8.659 9.137v13.36c0 5.028-3.631 9.4-8.659 9.4h-20.958c-.513-.064-1.022-.164-1.521-.3"/><path id="AB" d="M-2665.732-11313.161c.787.1 1.041.478 1.52.478h20.958a13.31 13.31 0 0 0 12.984-13.152v-13.359a13.08 13.08 0 0 0-12.984-12.891h-20.958c-.479 0-.732.15-1.52.207v3.687l1.52-.141h20.958c5.059.005 9.174 4.078 9.231 9.137v13.359a9.47 9.47 0 0 1-9.231 9.4h-20.958c-.479 0-.732-.291-1.52-.394"/><path id="AC" d="M-2759.429-11519.159h-2.05a10.97 10.97 0 0 0-10.934 10.934v7.9h23.919v-7.9a10.97 10.97 0 0 0-10.935-10.934z"/><path id="AD" d="M-2258.252-11368.974h-21.058c-1.492.938-9.72 5.192-12.25 10.051-3.186 6.118 1.114 65.938 1.114 65.938h43.332s4.354-59.85 1.113-65.938c-3.338-6.277-12.251-10.051-12.251-10.051z"/><path id="AE" d="M-2268.766-11389.129c-15.2 0-10.338 16.4-10.338 16.4h21.666s3.869-16.4-11.328-16.4z"/><path id="AF" d="M-2277.583-11326.442c-1.765 17.651 19.546 20.075 31.34 20.081.721-12.056 1.6-29.63 1.419-41.17-10.489.257-30.96 3.086-32.759 21.089z"/><path id="AG" d="M-2199.932-11368.974h-21.058c-1.493.938-9.719 5.192-12.251 10.051-3.185 6.118 1.114 65.938 1.114 65.938h43.332s4.354-59.85 1.114-65.938c-3.339-6.277-12.251-10.051-12.251-10.051z"/><path id="AH" d="M-2210.45-11389.129c-15.2 0-10.338 16.4-10.338 16.4h21.666s3.871-16.4-11.328-16.4z"/><path id="AI" d="M-2219.267-11326.442c-1.765 17.651 19.546 20.075 31.341 20.081.721-12.056 1.6-29.63 1.418-41.17-10.489.257-30.958 3.086-32.759 21.089z"/><path id="AJ" d="M-2141.617-11368.974h-21.059c-1.492.938-9.719 5.192-12.25 10.051-3.186 6.118 1.114 65.938 1.114 65.938h43.332s4.354-59.85 1.113-65.938c-3.34-6.277-12.25-10.051-12.25-10.051z"/><path id="AK" d="M-2152.134-11389.129c-15.2 0-10.339 16.4-10.339 16.4h21.666s3.87-16.4-11.327-16.4z"/><path id="AL" d="M-2160.952-11326.442c-1.765 17.651 19.547 20.075 31.341 20.081.721-12.056 1.6-29.63 1.419-41.17-10.489.257-30.959 3.086-32.76 21.089z"/><path id="AM" d="M503.12 438.999c-5.78-.02-8.53 2.73-8.53 8.53.01 5.33 3.45 8.91 8.55 8.88 4.826-.096 8.725-3.965 8.86-8.79.04-4.94-3.74-8.61-8.88-8.62zm-.2 13.72c-2.63-.9-5.11-2-4.89-5.25.22-3.19 2.25-5.14 5.43-5.01 3.12.12 4.69 2.56 4.64 5.33-.06 2.95-2.26 4.49-5.18 4.93z"/></defs><g clip-path="url(#C)"><path fill="#f3fbff" d="M0 0h1920v1080H0z"/><path d="M368.224 444.794c-144.007-132.268-119.82-222.068-248.853-250.116s-317.468-1.168-302.105 299.2-53.816 396.291 9.677 504.986 370.262 226.66 596.584 17.45 88.705-439.247-55.303-571.52z" class="B"/><g transform="translate(2320.559 11973.209)" clip-path="url(#A)"><g class="C E F G"><path d="M-2799.066-11452.258h1390.467v15.035h-1390.467zm0 163.326h1390.467v15.035h-1390.467z"/><use xlink:href="#D"/></g><path d="M-2366.652-11597.758h5.629v376.761h-5.629z" class="H"/><path d="M-1865.685-11597.758h4.691v377.761h-4.691z" class="D"/><g class="I"><use xlink:href="#E"/><use xlink:href="#F"/><path d="M-1839.286-11402.071a8.5 8.5 0 1 0 0 17 8.5 8.5 0 1 0 0-17z"/></g><g class="C E F G"><path d="M-1836.02-11341.74h119.669v46.513h-119.669z"/><path d="M-1836.02-11308.675h119.669v13.447h-119.669z"/><rect width="65.605" height="13.668" rx="2.12" x="-1794.257" y="-11329.936"/><use xlink:href="#G"/><use xlink:href="#H"/><use xlink:href="#I"/><use xlink:href="#J"/><use xlink:href="#K"/><use xlink:href="#L"/><use xlink:href="#M"/><use xlink:href="#N"/><use xlink:href="#O"/><use xlink:href="#P"/><use xlink:href="#Q"/><use xlink:href="#R"/><path d="M-2662.692-11546.342h37.966v90.207h-37.966z"/><path d="M-2662.692-11546.342h37.966v26.728h-37.966zm0 48.9h37.966v41.307h-37.966z"/><use xlink:href="#S"/><use xlink:href="#T"/><rect width="43.509" height="94.08" rx="9.541" x="-2581.065" y="-11551.125"/><use xlink:href="#U"/><use xlink:href="#V"/><use xlink:href="#W"/><use xlink:href="#X"/><path d="M-2524.346-11487.046v-39.477m87.022 11.905v-.976a10.97 10.97 0 0 0-10.939-10.929h-8.884"/><use xlink:href="#Y"/><use xlink:href="#Z"/><use xlink:href="#a"/><use xlink:href="#b"/><path d="M-2351.675-11497.442h144.878v40.396h-144.878z"/><path d="M-2351.675-11484.988h144.878v12.149h-144.878z"/><use xlink:href="#c"/><use xlink:href="#d"/><use xlink:href="#e"/><use xlink:href="#f"/><use xlink:href="#g"/><use xlink:href="#h"/><use xlink:href="#i"/><rect width="14.813" height="17.318" rx=".999" x="-1582.79" y="-11405.719"/><use xlink:href="#j"/><use xlink:href="#k"/><use xlink:href="#l"/><use xlink:href="#m"/><use xlink:href="#n"/><use xlink:href="#o"/><use xlink:href="#p"/><use xlink:href="#q"/><rect width="54.671" height="94.156" rx="4.903" x="-2176.12" y="-11551.809"/><use xlink:href="#r"/><path d="M-2121.452-11535.96h-54.759v5.629h54.759"/><rect width="54.675" height="94.152" rx="4.903" x="-2107.783" y="-11551.806"/><use xlink:href="#s"/><path d="M-2107.727-11535.961h54.619v5.629h-54.619z"/><rect width="54.671" height="94.156" rx="4.903" x="-2039.442" y="-11551.809"/><use xlink:href="#t"/><path d="M-2039.241-11535.964h54.412v5.629h-54.412zm101.358 14.76h46.601v60.514h-46.601z"/><rect width="70.405" height="60.514" rx="9.313" x="-2473.318" y="-11357.204"/><path d="M-1831.511-11504.731h55.326v44.041h-55.326zm4.223-17.008h46.88v12.757h-46.88zm67.761-19.137h132.09v80.183h-132.09z"/><path d="M-1759.527-11482.487h132.128v5.629h-132.128zm0-36.587h132.128v5.629h-132.128m.001-17.824h132.128v5.629h-132.128m0 55.349h132.128v4.691h-132.128"/><rect width="110.861" height="18.224" rx="2.253" x="-1749.989" y="-11507.465"/><use xlink:href="#u"/><use xlink:href="#v"/><path d="M-1569.807-11501.522h.009l.629-.056"/><use xlink:href="#w"/><rect width="42.218" height="76.236" rx="4.505" x="-2767.782" y="-11371.698"/><use xlink:href="#x"/><use xlink:href="#y"/><path d="M-2725.568-11301.425h-42.216m42.216-3.753h-42.216m42.216-53.473h-42.216m42.216-3.753h-42.216"/><rect width="42.218" height="76.236" rx="4.505" x="-2716.756" y="-11371.698"/><use xlink:href="#z"/><use xlink:href="#AA"/><path d="M-2674.542-11301.425h-42.216m42.216-3.753h-42.216m42.216-53.473h-42.216m42.216-3.753h-42.216"/><rect width="42.226" height="76.243" rx="4.51" x="-2665.733" y="-11371.701"/><use xlink:href="#AB"/><path d="M-2665.732-11301.426h42.226m-.001-3.752h-42.226m42.226-53.473h-42.226m42.226-3.753h-42.226"/><rect width="30.752" height="41.307" rx="3.975" x="-2775.831" y="-11497.442"/><use xlink:href="#AC"/><rect width="96.586" height="104.482" rx="6.228" x="-2595.872" y="-11399.944"/><use xlink:href="#AD"/><use xlink:href="#AE"/><use xlink:href="#AF"/><use xlink:href="#AG"/><use xlink:href="#AH"/><use xlink:href="#AI"/><use xlink:href="#AJ"/><use xlink:href="#AK"/><use xlink:href="#AL"/><path d="M-2524.933-11333.528l217.369-256.046m-421.385 320.777l171.575-202.103m754.809 137.372l217.369-256.046m-421.385 320.777l171.575-202.103m-748.06-369.503h1390.467v15.035h-1390.467zm0 163.326h1390.467v15.035h-1390.467zm1398.823-314.286h-1406.089c-7.547.009-13.661 6.125-13.668 13.672v360.81c.009 7.545 6.123 13.659 13.668 13.668h1406.089c7.545-.009 13.658-6.123 13.667-13.668v-360.81c-.007-7.546-6.121-13.663-13.667-13.672zm-1180.87 382.678h-225.219a8.21 8.21 0 0 1-8.2-8.2v-360.806a8.21 8.21 0 0 1 8.2-8.2h1406.089a8.21 8.21 0 0 1 8.2 8.2v360.81a8.21 8.21 0 0 1-8.2 8.2h-1180.87"/></g><path d="M-2150.652-11985.903h5.629v376.761h-5.629z" class="H"/><path d="M-1649.685-11985.903h4.691v377.761h-4.691z" class="D"/><g class="I"><path d="M-2169.995-11790.216a8.5 8.5 0 1 0 8.5 8.5 8.51 8.51 0 0 0-8.5-8.5zm46.47 0a8.5 8.5 0 1 0 0 17 8.5 8.5 0 1 0 0-17zm500.239 0a8.5 8.5 0 1 0 0 17 8.5 8.5 0 1 0 0-17z"/></g><g class="C E F G"><path d="M-1620.02-11729.885h119.669v46.513h-119.669z"/><path d="M-1620.02-11696.82h119.669v13.447h-119.669z"/><rect width="65.605" height="13.668" rx="2.12" x="-1578.257" y="-11718.081"/><path d="M-2464.93-11864.731v16.165a4.89 4.89 0 0 1-5.188 5.14h-26.99a5.01 5.01 0 0 1-5.329-4.691h29.993c.684 0 1.885-.872 1.885-1.473v-13.584c0-.6-1.2-.892-1.885-.892h-30.012v-.666c0-2.918 1.782-5.328 4.747-5.59.309-.029-.056-.291-.056-.6v-.273a.56.56 0 0 0-.554-.619.4.4 0 0 1-.385-.45v-.018h-.872a1.07 1.07 0 0 1-.2-2.12v-.636a1.07 1.07 0 0 1 0-2.1c.066-.011.133-.017.2-.018h31.662a1.41 1.41 0 0 1 .2.018 1.07 1.07 0 0 1 0 2.1v.638a1.07 1.07 0 0 1-.2 2.12h-1.706v.018c0 .253.337.45.084.45-.337 0-.084.272-.084.619v.273c0 .309-.358.572-.057.6 2.964.261 4.747 2.671 4.747 5.589z"/><path d="M-2470.559-11863.169v13.58c0 .6-1.2 1.473-1.885 1.473h-29.994l-.018-.44v-15.513h30.011c.685 0 1.886.3 1.886.9zm-20.977-22.802c-.429.003-.776.35-.778.779v5.919c0 .433.351.783.783.783s.783-.351.784-.783v-5.919c-.003-.433-.356-.781-.789-.779zm9.166 0c-.434.003-.785.354-.788.788v5.9a.79.79 0 0 0 .789.761.79.79 0 0 0 .789-.761v-5.9c-.003-.434-.355-.785-.789-.788zm5.892 0c-.434.003-.785.354-.788.788v5.9c0 .438.355.793.793.793s.793-.355.793-.793v-5.9a.8.8 0 0 0-.798-.788zm5.9 0c-.434.002-.786.354-.789.788v5.9a.79.79 0 0 0 .788.788.79.79 0 0 0 .788-.788v-5.9c-.003-.433-.353-.784-.786-.788zm-29.2 8.144v.684a1.34 1.34 0 0 1 .2-.018h31.662a1.41 1.41 0 0 1 .2.018v-.684z"/><path d="M-2469.387-11888.241h-28.716c-.921.002-1.668.749-1.67 1.67v8.744h32.056v-8.744c-.002-.921-.749-1.668-1.67-1.67zm-27.224 8.969c0 .433-.351.783-.783.783s-.783-.351-.784-.783v-5.919c0-.433.351-.783.783-.783s.783.351.784.783zm5.863 0c0 .433-.351.783-.783.783s-.783-.351-.784-.783v-5.919c0-.433.351-.783.783-.783s.783.351.784.783zm9.166-.009a.79.79 0 0 1-.789.761.79.79 0 0 1-.788-.761v-5.9a.79.79 0 0 1 .788-.761.79.79 0 0 1 .789.761zm5.9 0c0 .438-.355.792-.793.792s-.793-.355-.793-.792v-5.9c0-.438.355-.793.793-.793s.793.355.793.793zm5.892 0a.79.79 0 0 1-.788.788.79.79 0 0 1-.788-.788v-5.9a.79.79 0 0 1 .788-.788.79.79 0 0 1 .788.788z"/><path d="M-2467.717-11877.823v.684a1.41 1.41 0 0 0-.2-.018h-31.659a1.34 1.34 0 0 0-.2.018v-.684zm-23.03-7.369v5.919c0 .433-.351.783-.783.783s-.783-.351-.784-.783v-5.919c0-.433.351-.783.783-.783s.783.351.784.783zm9.165.009v5.9a.79.79 0 0 1-.788.789.79.79 0 0 1-.789-.789v-5.9a.79.79 0 0 1 .789-.788.79.79 0 0 1 .788.788zm5.9 0v5.9c0 .438-.355.793-.793.793s-.793-.355-.793-.793v-5.9a.79.79 0 0 1 .793-.792c.438 0 .793.355.793.792zm5.892 0v5.9a.79.79 0 0 1-.788.788.79.79 0 0 1-.788-.788v-5.9a.79.79 0 0 1 .788-.788.79.79 0 0 1 .788.788zm-.769 22.014v13.58c0 .6-1.2 1.473-1.885 1.473h-30.2c-.009-.872.159-.44.188-.44v-15.513h30.011c.685 0 1.886.3 1.886.9z"/><path d="M-2486.374-11861.082h-12.337a1.56 1.56 0 0 0-1.349 2.337 1.56 1.56 0 0 0 1.349.779h12.337a1.56 1.56 0 0 0 1.349-2.337 1.56 1.56 0 0 0-1.349-.779zm-7.504 4.319h-4.812c-.342 0-.658.182-.829.478s-.171.661 0 .957.487.479.829.478h4.812c.342 0 .658-.182.829-.478s.171-.661 0-.957-.487-.479-.829-.478zm47.186-77.724h37.966v90.207h-37.966z"/><path d="M-2446.692-11934.487h37.966v26.728h-37.966zm0 48.9h37.966v41.307h-37.966zm13.364-17.312h-13.516v11.238h13.516a5.62 5.62 0 0 0 5.619-5.619 5.62 5.62 0 0 0-5.619-5.619zm78.741-36.347v-12.488a9.75 9.75 0 0 1 9.729-9.718h3.1c5.363.013 9.71 4.355 9.729 9.718v12.487"/><rect width="43.509" height="94.08" rx="9.541" x="-2365.065" y="-11939.27"/><path d="M-2365.066-11875.191h19.364a10.96 10.96 0 0 0 10.93-10.93v-17.618a10.96 10.96 0 0 0-10.93-10.929h-19.364m89.752-37.066v12.487a3.7 3.7 0 0 0-.459-.02h-21.634a3.72 3.72 0 0 0-.46.02v-12.487c.019-5.363 4.366-9.705 9.729-9.718h3.1c5.361.016 9.705 4.357 9.724 9.718z"/><path d="M-2264.834-11928.336v72.209c-.02 6.033-4.906 10.919-10.939 10.938h-21.634c-6.033-.019-10.919-4.905-10.938-10.938v-19.064h19.362a10.97 10.97 0 0 0 10.939-10.93v-17.618a10.97 10.97 0 0 0-10.939-10.929h-19.362v-13.668c.018-5.852 4.632-10.656 10.478-10.91a3.63 3.63 0 0 1 .46-.019h21.634c.153-.003.307.003.459.019 5.847.254 10.461 5.058 10.48 10.91z"/><path d="M-2278.044-11903.739v17.621a10.97 10.97 0 0 1-10.939 10.93h-19.362v-39.48h19.362a10.97 10.97 0 0 1 10.939 10.929z"/><path d="M-2308.346-11875.191v-39.477m87.022 11.905v-.976a10.97 10.97 0 0 0-10.939-10.929h-8.884m22.553-37.066v12.487a3.48 3.48 0 0 0-.45-.02h-21.644a3.7 3.7 0 0 0-.459.02v-12.487c.019-5.363 4.366-9.705 9.729-9.718h3.1a9.75 9.75 0 0 1 9.724 9.718z"/><path d="M-2208.114-11928.336v72.209a10.97 10.97 0 0 1-10.93 10.938h-21.643c-6.033-.019-10.919-4.905-10.939-10.938v-19.064h19.363a10.97 10.97 0 0 0 10.939-10.93v-17.618a10.97 10.97 0 0 0-10.939-10.929h-19.363v-13.668c.019-5.852 4.633-10.656 10.479-10.91a3.63 3.63 0 0 1 .459-.019h21.649c.15-.003.301.003.45.019 5.848.25 10.463 5.057 10.475 10.91z"/><path d="M-2221.323-11903.739v17.621a10.97 10.97 0 0 1-10.939 10.93h-19.364v-39.48h19.363a10.97 10.97 0 0 1 10.94 10.929z"/><path d="M-2251.626-11914.668h19.363a10.97 10.97 0 0 1 10.939 10.929v17.621a10.97 10.97 0 0 1-10.939 10.93h-19.363m115.951-10.399h144.878v40.396h-144.878z"/><path d="M-2135.675-11873.133h144.878v12.149h-144.878zm706.452 147.905v36.765c-.137 3.07-2.678 5.482-5.751 5.46h-27.338a5.39 5.39 0 0 1-5.376-5.46v-36.765l.038-2.29a74.32 74.32 0 0 1 2.205-15.835 76.8 76.8 0 0 1 5.845-15.809l1.125-2.1a35.45 35.45 0 0 0 3.912-15.283h12.148c.023.002.046-.001.067-.009a35.02 35.02 0 0 0 3.734 15.292l1.219 2.1a76.13 76.13 0 0 1 8.172 33.934z"/><path d="M-1441.278-11792.723v15.029a1.13 1.13 0 0 1-1.069 1.136c-.021.008-.044.011-.067.009h-12.533a1.14 1.14 0 0 1-1.136-1.145v-15.029a1.14 1.14 0 0 1 1.136-1.144h12.533a1.14 1.14 0 0 1 1.136 1.144zm-15.64 47.762a23.4 23.4 0 0 0-8.617 1.641 75.8 75.8 0 0 0-2.15 18.093v27.29a22.11 22.11 0 0 0 10.813 2.636c13.376 0 24.2-11.117 24.2-24.829s-10.867-24.831-24.246-24.831zm71.786 19.733v36.765a5.24 5.24 0 0 1-5.2 5.46h-27.337c-3.012 0-5.929-2.448-5.929-5.46v-36.765l.029-1.783c.337-11.188 3.133-22.164 8.189-32.15l1.266-2.1c2.37-4.754 3.615-9.988 3.64-15.3a.96.96 0 0 0 .179.019h12.524a.99.99 0 0 0 .441-.094 34.8 34.8 0 0 0 3.546 15.376l.845 2.1a75.64 75.64 0 0 1 7.807 33.932z"/><path d="M-1396.631-11792.723v15.029c.003.458-.271.873-.694 1.051a.99.99 0 0 1-.441.094h-12.525a.98.98 0 0 1-.179-.02 1.15 1.15 0 0 1-.966-1.125v-15.029a1.15 1.15 0 0 1 1.145-1.144h12.52a1.14 1.14 0 0 1 1.14 1.144zm-15.639 47.762c-3.042-.002-6.059.555-8.9 1.641a76.08 76.08 0 0 0-2.428 18.093v27.29a26.2 26.2 0 0 0 11.091 2.636c13.378 0 24.338-11.117 24.338-24.829s-10.724-24.831-24.101-24.831zm72.171 19.732v36.765c-.057 3.039-2.543 5.47-5.583 5.46h-27.327a5.54 5.54 0 0 1-5.554-5.46v-36.765l.065-2.853.085-1.726.178-2.28.244-2.27.309-2.158.065-.45.3-1.755.141-.713.272-1.332.432-1.9.168-.666a77.68 77.68 0 0 1 5.865-15.836l1.172-2.1a35.21 35.21 0 0 0 3.828-15.282h12.214a35.2 35.2 0 0 0 3.818 15.282l1.174 2.1a75.96 75.96 0 0 1 8.134 33.939z"/><rect width="14.813" height="17.318" rx=".999" x="-1366.79" y="-11793.864"/><path d="M-1367.622-11744.961a23.86 23.86 0 0 0-8.7 1.641 75.94 75.94 0 0 0-2.236 18.093v27.29a25.36 25.36 0 0 0 10.9 2.636c13.378 0 24.243-11.117 24.243-24.829s-10.829-24.831-24.207-24.831zm82.084-23.919h-21.643a13.69 13.69 0 0 0-13.669 13.669v60.134c.008 7.546 6.123 13.661 13.669 13.669h21.643c7.546-.008 13.661-6.123 13.669-13.669v-60.134a13.69 13.69 0 0 0-13.669-13.669zm-29.842 13.669a8.21 8.21 0 0 1 8.2-8.2h21.643a8.21 8.21 0 0 1 8.2 8.2v15.92h-38.041zm38.041 60.134c-.003 4.529-3.671 8.201-8.2 8.209h-21.643a8.22 8.22 0 0 1-8.2-8.209v-38.585h38.041zm-428.26-72.662c-1.72-.759-3.58-1.149-5.46-1.144h-21.643a13.49 13.49 0 0 0-5.47 1.153c-4.976 2.174-8.194 7.086-8.2 12.516v60.134c.007 7.546 6.123 13.662 13.669 13.669h21.643c7.546-.008 13.661-6.123 13.669-13.669v-60.131a13.69 13.69 0 0 0-8.208-12.528zm2.739 72.659a8.22 8.22 0 0 1-8.2 8.209h-21.643a8.22 8.22 0 0 1-8.2-8.209v-60.131a8.21 8.21 0 0 1 8.2-8.2h21.643a8.21 8.21 0 0 1 8.2 8.2z"/><path d="M-1705.599-11778.215v10.478c-1.72-.759-3.58-1.149-5.46-1.144h-.91v-9.335c-.007-2.265-1.844-4.098-4.109-4.1h-11.614a4.1 4.1 0 0 0-4.1 4.1v9.335h-.91a13.49 13.49 0 0 0-5.47 1.153v-10.487a10.49 10.49 0 0 1 10.479-10.479h11.614c5.785.006 10.474 4.694 10.48 10.479zm-57.63 10.476c-1.725-.754-3.587-1.144-5.47-1.144h-21.633c-7.548.002-13.667 6.121-13.669 13.669v60.134a13.68 13.68 0 0 0 13.669 13.669h21.635a13.68 13.68 0 0 0 13.669-13.669v-60.131a13.69 13.69 0 0 0-8.201-12.528zm2.739 72.659c-.008 4.53-3.679 8.201-8.209 8.209h-21.633a8.22 8.22 0 0 1-8.2-8.209v-60.131a8.21 8.21 0 0 1 8.2-8.2h21.635a8.22 8.22 0 0 1 8.209 8.2z"/><path d="M-1763.229-11778.215v10.478a13.67 13.67 0 0 0-5.47-1.144h-.91v-9.335a4.1 4.1 0 0 0-4.1-4.1h-11.613a4.1 4.1 0 0 0-4.1 4.1v9.335h-.91c-1.883.001-3.745.39-5.47 1.144v-10.478a10.49 10.49 0 0 1 10.479-10.479h11.614c5.785.006 10.474 4.694 10.48 10.479zm-57.63 10.476c-1.725-.754-3.587-1.143-5.47-1.144h-21.642a13.44 13.44 0 0 0-5.461 1.144c-4.982 2.175-8.204 7.092-8.21 12.528v60.134c.007 7.546 6.123 13.662 13.669 13.669h21.642a13.68 13.68 0 0 0 13.669-13.669v-60.134a13.69 13.69 0 0 0-8.197-12.528zm2.73 72.659a8.22 8.22 0 0 1-8.2 8.209h-21.642a8.22 8.22 0 0 1-8.2-8.209v-60.131a8.21 8.21 0 0 1 8.2-8.2h21.642a8.21 8.21 0 0 1 8.2 8.2z"/><path d="M-1820.859-11778.215v10.478a13.67 13.67 0 0 0-5.47-1.144h-.91v-9.335a4.1 4.1 0 0 0-4.1-4.1h-11.614a4.1 4.1 0 0 0-4.1 4.1v9.335h-.919a13.44 13.44 0 0 0-5.461 1.144v-10.478c.006-5.785 4.694-10.473 10.479-10.479h11.614c5.786.005 10.475 4.693 10.481 10.479z"/><rect width="54.671" height="94.156" rx="4.903" x="-1960.12" y="-11939.954"/><path d="M-1934.003-11909.099h-24.6c-.513 0-1.609-.3-1.609-.245v6.445c0-.1 1.089.367 1.609.367h24.6c4.27 0 7.563 2.956 7.563 7.226v15.491c0 4.27-3.293 8.242-7.563 8.242h-24.6a3.45 3.45 0 0 1-1.609-.649v6.444c.468.38 1.02.644 1.609.771h24.6c7.787 0 14.13-7.022 14.13-14.809v-15.49a13.87 13.87 0 0 0-4.18-9.852c-2.655-2.592-6.239-4.012-9.95-3.941zm28.551-15.006h-54.759v5.629h54.759"/><rect width="54.675" height="94.152" rx="4.903" x="-1891.783" y="-11939.951"/><path d="M-1865.66-11909.099h-24.6c-.513 0-1.462-.3-1.462-.245v6.445c0-.1.943.367 1.462.367h24.6c4.271 0 7.708 2.956 7.708 7.226v15.491c0 4.27-3.437 8.242-7.708 8.242h-24.6a2.79 2.79 0 0 1-1.462-.649v6.444a3.11 3.11 0 0 0 1.462.771h24.6c7.788 0 14.275-7.022 14.275-14.809v-15.49a13.99 13.99 0 0 0-14.275-13.793zm-26.067-15.007h54.619v5.629h-54.619z"/><rect width="54.671" height="94.156" rx="4.903" x="-1823.442" y="-11939.954"/><path d="M-1797.322-11909.099h-24.6c-.513 0-1.318-.3-1.318-.245v6.445c0-.1.8.367 1.318.367h24.6c4.271 0 7.854 2.956 7.854 7.226v15.491c0 4.27-3.583 8.242-7.854 8.242h-24.6c-.5-.061-.965-.29-1.318-.649v6.444a2.5 2.5 0 0 0 1.318.771h24.6c7.789 0 14.421-7.022 14.421-14.809v-15.49c0-7.788-6.633-13.793-14.421-13.793zm-25.919-15.01h54.412v5.629h-54.412zm101.358 14.76h46.601v60.514h-46.601z"/><rect width="70.405" height="60.514" rx="9.313" x="-2257.318" y="-11745.349"/><path d="M-1615.511-11892.876h55.326v44.041h-55.326zm4.223-17.008h46.88v12.757h-46.88zm67.761-19.137h132.09v80.183h-132.09z"/><path d="M-1543.527-11870.632h132.128v5.629h-132.128zm0-36.587h132.128v5.629h-132.128m.001-17.824h132.128v5.629h-132.128m0 55.349h132.128v4.691h-132.128"/><rect width="110.861" height="18.224" rx="2.253" x="-1533.989" y="-11895.61"/><path d="M-1338.654-11891.091c-43.315 0-43.921 28.755-42.806 38.825a3.87 3.87 0 0 0 3.855 3.431h77.937a3.87 3.87 0 0 0 3.856-3.435c1.106-10.071.468-38.821-42.842-38.821z"/><path d="M-1353.168-11889.723v-17.936a6.18 6.18 0 0 1 6.173-6.174h16.708c1.638 0 3.208.65 4.366 1.808s1.808 2.728 1.808 4.366v17.871m-29.694.121h.009l.629-.056m113.871 5.807h-20.273a13.23 13.23 0 0 0-13.213 13.212v10.934a13.23 13.23 0 0 0 13.213 13.213h20.273a13.23 13.23 0 0 0 13.213-13.213v-10.934a13.23 13.23 0 0 0-13.213-13.212zm8.656 24.146c-.005 4.779-3.877 8.651-8.656 8.656h-20.273c-4.779-.005-8.651-3.877-8.656-8.656v-10.934c.005-4.779 3.877-8.651 8.656-8.656h20.273c4.779.005 8.651 3.877 8.656 8.656z"/><rect width="42.218" height="76.236" rx="4.505" x="-2551.782" y="-11759.843"/><path d="M-2551.784-11740.042l1.52-.188h20.959c7.073.067 12.772 5.818 12.777 12.891v13.359c0 7.036-5.742 13.152-12.777 13.152h-20.959c-.514-.119-1.022-.265-1.52-.44"/><path d="M-2551.784-11736.357l1.52-.121h20.959c2.41.011 4.716.98 6.41 2.695a9.06 9.06 0 0 1 2.615 6.442v13.36a9.3 9.3 0 0 1-9.025 9.4h-20.959a13.2 13.2 0 0 1-1.52-.366m42.216 15.377h-42.216m42.216-3.753h-42.216m42.216-53.473h-42.216m42.216-3.753h-42.216"/><rect width="42.218" height="76.236" rx="4.505" x="-2500.756" y="-11759.843"/><path d="M-2500.759-11740.07l1.521-.16h20.958c3.361.048 6.563 1.437 8.894 3.858s3.598 5.673 3.518 9.033v13.359c0 7.036-5.376 13.152-12.412 13.152h-20.958a9.21 9.21 0 0 1-1.521-.375"/><path d="M-2500.759-11736.384l1.521-.094h20.958c5.029 0 8.659 4.109 8.659 9.137v13.36c0 5.028-3.631 9.4-8.659 9.4h-20.958c-.513-.064-1.022-.164-1.521-.3m42.217 15.311h-42.216m42.216-3.753h-42.216m42.216-53.473h-42.216m42.216-3.753h-42.216"/><rect width="42.226" height="76.243" rx="4.51" x="-2449.733" y="-11759.846"/><path d="M-2449.732-11701.306c.787.1 1.041.478 1.52.478h20.958a13.31 13.31 0 0 0 12.984-13.152v-13.359a13.08 13.08 0 0 0-12.984-12.891h-20.958c-.479 0-.732.15-1.52.207v3.687l1.52-.141h20.958c5.059.005 9.174 4.078 9.231 9.137v13.359a9.47 9.47 0 0 1-9.231 9.4h-20.958c-.479 0-.732-.291-1.52-.394m0 15.404h42.226m-.001-3.752h-42.226m42.226-53.473h-42.226m42.226-3.753h-42.226"/><rect width="30.752" height="41.307" rx="3.975" x="-2559.831" y="-11885.587"/><path d="M-2543.429-11907.304h-2.05a10.97 10.97 0 0 0-10.934 10.934v7.9h23.919v-7.9a10.97 10.97 0 0 0-10.935-10.934z"/><rect width="96.586" height="104.482" rx="6.228" x="-2379.872" y="-11788.089"/><path d="M-2042.252-11757.119h-21.058c-1.492.938-9.72 5.192-12.25 10.051-3.186 6.118 1.114 65.938 1.114 65.938h43.332s4.354-59.85 1.113-65.938c-3.338-6.277-12.251-10.051-12.251-10.051zm-10.514-20.155c-15.2 0-10.338 16.4-10.338 16.4h21.666s3.869-16.4-11.328-16.4z"/><path d="M-2061.583-11714.587c-1.765 17.651 19.546 20.075 31.34 20.081.721-12.056 1.6-29.63 1.419-41.17-10.489.257-30.96 3.086-32.759 21.089zm77.651-42.532h-21.058c-1.493.938-9.719 5.192-12.251 10.051-3.185 6.118 1.114 65.938 1.114 65.938h43.332s4.354-59.85 1.114-65.938c-3.339-6.277-12.251-10.051-12.251-10.051z"/><path d="M-1994.45-11777.274c-15.2 0-10.338 16.4-10.338 16.4h21.666s3.871-16.4-11.328-16.4zm-8.817 62.687c-1.765 17.651 19.546 20.075 31.341 20.081.721-12.056 1.6-29.63 1.418-41.17-10.489.257-30.958 3.086-32.759 21.089zm77.65-42.532h-21.059c-1.492.938-9.719 5.192-12.25 10.051-3.186 6.118 1.114 65.938 1.114 65.938h43.332s4.354-59.85 1.113-65.938c-3.34-6.277-12.25-10.051-12.25-10.051zm-10.517-20.155c-15.2 0-10.339 16.4-10.339 16.4h21.666s3.87-16.4-11.327-16.4z"/><path d="M-1944.952-11714.587c-1.765 17.651 19.547 20.075 31.341 20.081.721-12.056 1.6-29.63 1.419-41.17-10.489.257-30.959 3.086-32.76 21.089zm-363.981-7.086l217.369-256.046m-421.385 320.777l171.575-202.103m754.809 137.372l217.369-256.046m-421.385 320.777l171.575-202.103"/></g></g><path d="M1468.124 415.377c193.589-177.814 161.074-298.521 334.534-336.23s426.771-1.57 406.12 402.22 72.346 532.733-13.008 678.853-497.743 304.7-801.988 23.458-119.247-590.486 74.342-768.301z" class="B"/><g clip-path="url(#B)" transform="translate(11 -140.958)"><g stroke="#fff" class="C E"><path d="M1848.817 817.177v.48c-.002 3.153-2.557 5.708-5.71 5.71h-35.77c3.151-.003 5.702-2.559 5.7-5.71v-.48c.002-2.285-1.359-4.351-3.46-5.25a5.61 5.61 0 0 0-2.24-.46h35.77c3.153.002 5.708 2.557 5.71 5.71z"/><path d="M1813.037 817.177v.48c.002 3.151-2.549 5.707-5.7 5.71h-82.48c-3.151-.003-5.702-2.559-5.7-5.71v-.48c-.002-3.151 2.549-5.707 5.7-5.71h82.48a5.61 5.61 0 0 1 2.24.46c2.101.899 3.462 2.965 3.46 5.25z"/><path d="M1816.627 811.467h-15.54l-10.89-35.19h15.52z"/><path d="M1801.087 811.467h-44.52l-10.55-35.19h44.18z"/><path d="M1896.277 643.757l-46.09 122.37c-2.1 5.58-7.95 10.15-12.98 10.15h-200.89c-5.04 0-11.84-7.13-9.74-12.71-.93 4.67 1.46 8.21 5.89 8.21h200.89c5.04 0 10.88-4.56 12.99-10.15l46.08-122.36c1.83-4.85.26-8.94-3.49-9.92 5.04.01 9.44 8.83 7.34 14.41z"/><path d="M1888.937 629.347h-.01a7.05 7.05 0 0 0-1.83-.23h-200.89c-5.04 0-10.88 4.57-12.98 10.15l-46.09 122.36a11.41 11.41 0 0 0-.55 1.92c-.005.005-.009.012-.01.02-.93 4.67 1.46 8.21 5.89 8.21h200.89c5.04 0 10.88-4.56 12.99-10.15l46.08-122.36c1.83-4.85.26-8.94-3.49-9.92z"/></g><g class="D"><path d="M1780.247 651.677h79.1a3.54 3.54 0 0 1 2.917 1.532c.659.958.805 2.179.39 3.266l-1.809 4.808c-.815 2.124-2.853 3.529-5.128 3.534h-79.28a3.54 3.54 0 0 1-2.923-1.537c-.661-.963-.804-2.192-.383-3.283l1.821-4.691c.412-1.069 1.139-1.987 2.085-2.633s2.064-.997 3.21-.996zm75.47 12.14a4.5 4.5 0 0 0 4.192-2.887l1.81-4.809a2.5 2.5 0 0 0-.279-2.345 2.51 2.51 0 0 0-2.093-1.1h-79.1a4.71 4.71 0 0 0-4.364 2.99l-1.82 4.69c-.308.782-.205 1.667.275 2.357a2.51 2.51 0 0 0 2.1 1.1zm-159.98-25.96h174.86c1.873-.084 3.662.781 4.76 2.3 1.265 1.828 1.4 4.457.358 7.213l-40.12 106.51c-1.9 5.047-7.18 9.154-11.768 9.154h-174.86a5.56 5.56 0 0 1-4.752-2.3c-1.263-1.826-1.393-4.453-.356-7.207l40.11-106.51c1.903-5.049 7.178-9.16 11.768-9.16zm128.09 124.18a10.59 10.59 0 0 0 6.3-2.487c2.028-1.56 3.595-3.64 4.534-6.02l40.12-106.51c.92-2.444.831-4.737-.244-6.292a4.54 4.54 0 0 0-3.938-1.872h-174.862a10.58 10.58 0 0 0-6.3 2.491 14.17 14.17 0 0 0-4.534 6.025l-40.11 106.51a7.7 7.7 0 0 0 0 5.617c.941 1.427 2.472 2.358 4.172 2.537zm-111.74-96.48h18.5c.883 0 1.709.436 2.207 1.164a2.67 2.67 0 0 1 .289 2.476l-6.166 15.87h14.489a3.43 3.43 0 0 1 2.831 1.493 3.44 3.44 0 0 1 .365 3.188l-6.84 17.63a4.75 4.75 0 0 1-4.456 3.049h-16.238l-6.446 16.6a4.52 4.52 0 0 1-4.236 2.911h-18.42c-.883 0-1.709-.436-2.207-1.164a2.67 2.67 0 0 1-.289-2.476l6.166-15.87h-14.479a3.44 3.44 0 0 1-2.841-1.5c-.64-.936-.777-2.128-.365-3.185l6.79-17.49a4.97 4.97 0 0 1 4.656-3.189h16.088l6.476-16.681c.665-1.7 2.301-2.821 4.126-2.826zm21.22 43.87c1.562.007 2.965-.953 3.524-2.411l6.84-17.63c.299-.75.202-1.599-.258-2.262a2.4 2.4 0 0 0-2.005-1.058h-15.951l6.695-17.231a1.65 1.65 0 0 0-1.564-2.279h-18.5a3.44 3.44 0 0 0-3.193 2.189l-6.724 17.321h-16.774a4.02 4.02 0 0 0-3.724 2.551l-6.79 17.49a2.4 2.4 0 0 0 .258 2.259 2.41 2.41 0 0 0 2.016 1.06h15.941l-6.695 17.231a1.65 1.65 0 0 0 1.564 2.279h18.42a3.56 3.56 0 0 0 3.3-2.269l6.694-17.241zm43.591 39.88l3.589 9.107 12.058-9.107z"/><path d="M1775.257 671.267h76.68c1.164 0 2.254.571 2.916 1.528s.811 2.179.4 3.268l-25.27 66.821c-.766 2.035-2.136 3.788-3.926 5.023s-3.908 1.903-6.082 1.9h-76.47c-1.169 0-2.263-.576-2.924-1.541a3.54 3.54 0 0 1-.383-3.28l26.22-67.67c.689-1.782 1.903-3.313 3.48-4.391s3.446-1.661 5.359-1.658zm44.72 77.54a9.75 9.75 0 0 0 9.07-6.28l25.27-66.82c.3-.781.192-1.661-.289-2.346a2.51 2.51 0 0 0-2.093-1.1h-76.68c-3.502-.013-6.647 2.141-7.9 5.411l-26.22 67.67c-.308.781-.205 1.664.275 2.353a2.51 2.51 0 0 0 2.1 1.106z"/></g><g class="C E F G"><path d="M1486.934 974.327h1390.467v15.035H1486.934zm0 163.326h1390.467v15.035H1486.934zm1398.823-314.286H1479.668c-7.547.009-13.661 6.125-13.668 13.672v360.81c.009 7.545 6.123 13.659 13.668 13.668h1406.089c7.545-.009 13.658-6.123 13.667-13.668v-360.81c-.007-7.546-6.121-13.663-13.667-13.672zm-1180.87 382.678h-225.219a8.21 8.21 0 0 1-8.2-8.2V837.039a8.21 8.21 0 0 1 8.2-8.2h1406.089a8.21 8.21 0 0 1 8.2 8.2v360.81a8.21 8.21 0 0 1-8.2 8.2h-1180.87"/></g><path d="M1919.348 828.827h5.629v376.761h-5.629z" class="H"/><path d="M2420.315 828.827h4.691v377.761h-4.691z" class="D"/><g class="I"><path d="M1900.005 1024.514a8.5 8.5 0 1 0 8.5 8.5 8.51 8.51 0 0 0-8.5-8.5zm46.47 0a8.5 8.5 0 1 0 0 17 8.5 8.5 0 1 0 0-17zm500.239 0a8.5 8.5 0 1 0 0 17 8.5 8.5 0 1 0 0-17z"/></g><g class="C E F G"><path d="M2449.98 1084.845h119.669v46.513H2449.98z"/><path d="M2449.98 1117.91h119.669v13.447H2449.98z"/><rect width="65.605" height="13.668" rx="2.12" x="2491.743" y="1096.649"/><path d="M1605.07 949.999v16.165a4.89 4.89 0 0 1-5.188 5.14h-26.99a5.01 5.01 0 0 1-5.329-4.691h29.993c.684 0 1.885-.872 1.885-1.473v-13.584c0-.6-1.2-.892-1.885-.892h-30.012v-.666c0-2.918 1.782-5.328 4.747-5.59.309-.029-.056-.291-.056-.6v-.273a.56.56 0 0 0-.554-.619.4.4 0 0 1-.385-.45v-.018h-.872a1.07 1.07 0 0 1-.2-2.12v-.636a1.07 1.07 0 0 1 0-2.1c.066-.011.133-.017.2-.018h31.662a1.41 1.41 0 0 1 .2.018 1.07 1.07 0 0 1 0 2.1v.638a1.07 1.07 0 0 1-.2 2.12h-1.706v.018c0 .253.337.45.084.45-.337 0-.084.272-.084.619v.273c0 .309-.358.572-.057.6 2.964.261 4.747 2.671 4.747 5.589z"/><path d="M1599.441 951.561v13.58c0 .6-1.2 1.473-1.885 1.473h-29.994l-.018-.44v-15.513h30.011c.685 0 1.886.3 1.886.9zm-20.977-22.802c-.429.003-.776.35-.778.779v5.919c0 .433.351.783.783.783s.783-.351.784-.783v-5.919c-.003-.433-.356-.781-.789-.779zm9.166 0c-.434.003-.785.354-.788.788v5.9a.79.79 0 0 0 .788.761.79.79 0 0 0 .788-.761v-5.9c-.003-.434-.355-.785-.789-.788zm5.892 0c-.434.003-.785.354-.788.788v5.9c0 .438.355.793.793.793s.793-.355.793-.793v-5.9a.8.8 0 0 0-.798-.788zm5.9 0c-.434.002-.786.354-.789.788v5.9a.79.79 0 0 0 .788.788.79.79 0 0 0 .788-.788v-5.9c-.003-.433-.353-.784-.786-.788zm-29.2 8.144v.684a1.34 1.34 0 0 1 .2-.018h31.662a1.41 1.41 0 0 1 .2.018v-.684z"/><path d="M1600.613 926.489h-28.716c-.921.002-1.668.749-1.67 1.67v8.744h32.056v-8.744c-.002-.921-.749-1.668-1.67-1.67zm-27.224 8.969c0 .433-.351.783-.783.783s-.783-.351-.784-.783v-5.919c0-.433.351-.783.783-.783s.783.351.784.783zm5.863 0c0 .433-.351.783-.783.783s-.783-.351-.784-.783v-5.919c0-.433.351-.783.783-.783s.783.351.784.783zm9.166-.009a.79.79 0 0 1-.789.761.79.79 0 0 1-.789-.761v-5.9a.79.79 0 0 1 .789-.761.79.79 0 0 1 .789.761zm5.9 0c0 .438-.355.793-.793.793s-.793-.355-.793-.793v-5.9c0-.438.355-.793.793-.793s.793.355.793.793zm5.892 0a.79.79 0 0 1-.788.788.79.79 0 0 1-.788-.788v-5.9a.79.79 0 0 1 .788-.788.79.79 0 0 1 .788.788z"/><path d="M1602.283 936.907v.684a1.41 1.41 0 0 0-.2-.018h-31.659a1.34 1.34 0 0 0-.2.018v-.684zm-23.03-7.369v5.919c0 .433-.351.783-.783.783s-.783-.351-.784-.783v-5.919c0-.433.351-.783.783-.783s.783.351.784.783zm9.165.009v5.9a.79.79 0 0 1-.788.788.79.79 0 0 1-.789-.788v-5.9a.79.79 0 0 1 .789-.788.79.79 0 0 1 .788.788zm5.9 0v5.9c0 .438-.355.793-.793.793s-.793-.355-.793-.793v-5.9c0-.438.355-.793.793-.793s.793.355.793.793zm5.892 0v5.9a.79.79 0 0 1-.788.788.79.79 0 0 1-.788-.788v-5.9a.79.79 0 0 1 .788-.788.79.79 0 0 1 .788.788zm-.769 22.014v13.58c0 .6-1.2 1.473-1.885 1.473h-30.2c-.009-.872.159-.44.188-.44v-15.513h30.011c.685 0 1.886.3 1.886.9z"/><path d="M1583.626 953.648h-12.337a1.56 1.56 0 0 0-1.349 2.337 1.56 1.56 0 0 0 1.349.779h12.337a1.56 1.56 0 0 0 1.349-2.337 1.56 1.56 0 0 0-1.349-.779zm-7.504 4.319h-4.812c-.342 0-.658.182-.829.478s-.171.661 0 .957.487.479.829.478h4.812c.342 0 .658-.182.829-.478s.171-.661 0-.957-.487-.479-.829-.478zm47.186-77.724h37.966v90.207h-37.966z"/><path d="M1623.308 880.243h37.966v26.728h-37.966zm0 48.9h37.966v41.307h-37.966zm13.364-17.312h-13.516v11.238h13.516a5.62 5.62 0 0 0 5.619-5.619 5.62 5.62 0 0 0-5.619-5.619zm78.741-36.347v-12.488a9.75 9.75 0 0 1 9.729-9.718h3.1c5.363.013 9.71 4.355 9.729 9.718v12.487"/><rect width="43.509" height="94.08" rx="9.541" x="1704.935" y="875.46"/><path d="M1704.934 939.539h19.364a10.96 10.96 0 0 0 10.93-10.93v-17.618a10.96 10.96 0 0 0-10.93-10.929h-19.364m89.752-37.066v12.487a3.7 3.7 0 0 0-.459-.02h-21.634a3.72 3.72 0 0 0-.46.02v-12.487c.019-5.363 4.366-9.705 9.729-9.718h3.1c5.361.016 9.705 4.357 9.724 9.718z"/><path d="M1805.166 886.394v72.209c-.02 6.033-4.906 10.919-10.939 10.938h-21.634c-6.033-.019-10.919-4.905-10.938-10.938v-19.064h19.362a10.97 10.97 0 0 0 10.939-10.93v-17.618a10.97 10.97 0 0 0-10.939-10.929h-19.362v-13.668c.018-5.852 4.632-10.656 10.478-10.91a3.63 3.63 0 0 1 .46-.019h21.634c.153-.003.307.003.459.019 5.847.254 10.461 5.058 10.48 10.91z"/><path d="M1791.956 910.991v17.621a10.97 10.97 0 0 1-10.939 10.93h-19.362v-39.48h19.362a10.97 10.97 0 0 1 10.939 10.929z"/><path d="M1761.654 939.539v-39.477m87.022 11.905v-.976a10.97 10.97 0 0 0-10.939-10.929h-8.884m22.553-37.066v12.487a3.48 3.48 0 0 0-.45-.02h-21.644a3.7 3.7 0 0 0-.459.02v-12.487c.019-5.363 4.366-9.705 9.729-9.718h3.1a9.75 9.75 0 0 1 9.724 9.718z"/><path d="M1861.886 886.394v72.209a10.97 10.97 0 0 1-10.93 10.938h-21.643c-6.033-.019-10.919-4.905-10.939-10.938v-19.064h19.363a10.97 10.97 0 0 0 10.939-10.93v-17.618a10.97 10.97 0 0 0-10.939-10.929h-19.363v-13.668c.019-5.852 4.633-10.656 10.479-10.91a3.63 3.63 0 0 1 .459-.019h21.649c.15-.003.301.003.45.019 5.848.25 10.463 5.057 10.475 10.91z"/><path d="M1848.677 910.991v17.621a10.97 10.97 0 0 1-10.939 10.93h-19.364v-39.48h19.363a10.97 10.97 0 0 1 10.94 10.929z"/><path d="M1818.374 900.062h19.363a10.97 10.97 0 0 1 10.939 10.929v17.621a10.97 10.97 0 0 1-10.939 10.93h-19.363m115.951-10.399h144.878v40.396h-144.878z"/><path d="M1934.325 941.597h144.878v12.149h-144.878zm706.452 147.905v36.765c-.137 3.07-2.678 5.482-5.751 5.46h-27.338a5.39 5.39 0 0 1-5.376-5.46v-36.765l.038-2.29a74.32 74.32 0 0 1 2.205-15.835 76.8 76.8 0 0 1 5.845-15.809l1.125-2.1a35.45 35.45 0 0 0 3.912-15.283h12.148c.023.002.046-.001.067-.009a35.02 35.02 0 0 0 3.734 15.292l1.219 2.1a76.13 76.13 0 0 1 8.172 33.934z"/><path d="M2628.722 1022.007v15.029a1.13 1.13 0 0 1-1.069 1.136c-.021.008-.044.011-.067.009h-12.533a1.14 1.14 0 0 1-1.136-1.145v-15.029a1.14 1.14 0 0 1 1.136-1.144h12.533a1.14 1.14 0 0 1 1.136 1.144zm-15.64 47.762a23.4 23.4 0 0 0-8.617 1.641 75.8 75.8 0 0 0-2.15 18.093v27.29a22.11 22.11 0 0 0 10.813 2.636c13.376 0 24.2-11.117 24.2-24.829s-10.867-24.831-24.246-24.831zm71.786 19.733v36.765a5.24 5.24 0 0 1-5.2 5.46h-27.337c-3.012 0-5.929-2.448-5.929-5.46v-36.765l.029-1.783c.337-11.188 3.133-22.164 8.189-32.15l1.266-2.1c2.37-4.754 3.615-9.988 3.64-15.3a.96.96 0 0 0 .179.019h12.524a.99.99 0 0 0 .441-.094 34.8 34.8 0 0 0 3.546 15.376l.845 2.1a75.64 75.64 0 0 1 7.807 33.932z"/><path d="M2673.369 1022.007v15.029c.003.458-.271.873-.694 1.051a.99.99 0 0 1-.441.094h-12.525a.98.98 0 0 1-.179-.02 1.15 1.15 0 0 1-.966-1.125v-15.029a1.15 1.15 0 0 1 1.145-1.144h12.52a1.14 1.14 0 0 1 1.14 1.144zm-15.639 47.762c-3.042-.002-6.059.555-8.9 1.641a76.08 76.08 0 0 0-2.428 18.093v27.29a26.2 26.2 0 0 0 11.091 2.636c13.378 0 24.338-11.117 24.338-24.829s-10.724-24.831-24.101-24.831zm72.171 19.732v36.765c-.057 3.039-2.543 5.47-5.583 5.46h-27.327a5.54 5.54 0 0 1-5.554-5.46v-36.765l.065-2.853.085-1.726.178-2.28.244-2.27.309-2.158.065-.45.3-1.755.141-.713.272-1.332.432-1.9.168-.666a77.68 77.68 0 0 1 5.865-15.836l1.172-2.1a35.21 35.21 0 0 0 3.828-15.282h12.214a35.2 35.2 0 0 0 3.818 15.282l1.174 2.1a75.96 75.96 0 0 1 8.134 33.939z"/><rect width="14.813" height="17.318" rx=".999" x="2703.21" y="1020.866"/><path d="M2702.378 1069.769a23.86 23.86 0 0 0-8.7 1.641 75.94 75.94 0 0 0-2.236 18.093v27.29a25.36 25.36 0 0 0 10.9 2.636c13.378 0 24.243-11.117 24.243-24.829s-10.829-24.831-24.207-24.831zm82.084-23.919h-21.643a13.69 13.69 0 0 0-13.669 13.669v60.134c.008 7.546 6.123 13.661 13.669 13.669h21.643c7.546-.008 13.661-6.123 13.669-13.669v-60.134a13.69 13.69 0 0 0-13.669-13.669zm-29.842 13.669a8.21 8.21 0 0 1 8.2-8.2h21.643a8.21 8.21 0 0 1 8.2 8.2v15.92h-38.041zm38.041 60.134c-.003 4.529-3.671 8.201-8.2 8.209h-21.643a8.22 8.22 0 0 1-8.2-8.209v-38.585h38.041zm-428.26-72.662c-1.72-.759-3.58-1.149-5.46-1.144h-21.643a13.49 13.49 0 0 0-5.47 1.153c-4.976 2.174-8.194 7.086-8.2 12.516v60.134c.007 7.546 6.123 13.662 13.669 13.669h21.643c7.546-.008 13.661-6.123 13.669-13.669v-60.131a13.69 13.69 0 0 0-8.208-12.528zm2.739 72.659a8.22 8.22 0 0 1-8.2 8.209h-21.643a8.22 8.22 0 0 1-8.2-8.209v-60.131a8.21 8.21 0 0 1 8.2-8.2h21.643a8.21 8.21 0 0 1 8.2 8.2z"/><path d="M2364.401 1036.515v10.478c-1.72-.759-3.58-1.149-5.46-1.144h-.91v-9.335c-.007-2.265-1.844-4.098-4.109-4.1h-11.614a4.1 4.1 0 0 0-4.1 4.1v9.335h-.91a13.49 13.49 0 0 0-5.47 1.153v-10.487a10.49 10.49 0 0 1 10.479-10.479h11.614c5.785.006 10.474 4.694 10.48 10.479zm-57.63 10.476c-1.725-.754-3.587-1.144-5.47-1.144h-21.633c-7.548.002-13.667 6.121-13.669 13.669v60.134a13.68 13.68 0 0 0 13.669 13.669h21.635a13.68 13.68 0 0 0 13.669-13.669v-60.131a13.69 13.69 0 0 0-8.201-12.528zm2.739 72.659c-.008 4.53-3.679 8.201-8.209 8.209h-21.633a8.22 8.22 0 0 1-8.2-8.209v-60.131a8.21 8.21 0 0 1 8.2-8.2h21.635a8.22 8.22 0 0 1 8.209 8.2z"/><path d="M2306.771 1036.515v10.478a13.67 13.67 0 0 0-5.47-1.144h-.91v-9.335a4.1 4.1 0 0 0-4.1-4.1h-11.613a4.1 4.1 0 0 0-4.1 4.1v9.335h-.91c-1.883.001-3.745.39-5.47 1.144v-10.478a10.49 10.49 0 0 1 10.479-10.479h11.614c5.785.006 10.474 4.694 10.48 10.479zm-57.63 10.476c-1.725-.754-3.587-1.143-5.47-1.144h-21.642a13.44 13.44 0 0 0-5.461 1.144c-4.982 2.175-8.204 7.092-8.21 12.528v60.134c.007 7.546 6.123 13.662 13.669 13.669h21.642a13.68 13.68 0 0 0 13.669-13.669v-60.134a13.69 13.69 0 0 0-8.197-12.528zm2.73 72.659a8.22 8.22 0 0 1-8.2 8.209h-21.642a8.22 8.22 0 0 1-8.2-8.209v-60.131a8.21 8.21 0 0 1 8.2-8.2h21.642a8.21 8.21 0 0 1 8.2 8.2z"/><path d="M2249.141 1036.515v10.478a13.67 13.67 0 0 0-5.47-1.144h-.91v-9.335a4.1 4.1 0 0 0-4.1-4.1h-11.614a4.1 4.1 0 0 0-4.1 4.1v9.335h-.919a13.44 13.44 0 0 0-5.461 1.144v-10.478c.006-5.785 4.694-10.473 10.479-10.479h11.614c5.786.005 10.475 4.693 10.481 10.479z"/><rect width="54.671" height="94.156" rx="4.903" x="2109.88" y="874.776"/><path d="M2135.997 905.631h-24.6c-.513 0-1.609-.3-1.609-.245v6.445c0-.1 1.089.367 1.609.367h24.6c4.27 0 7.563 2.956 7.563 7.226v15.491c0 4.27-3.293 8.242-7.563 8.242h-24.6a3.45 3.45 0 0 1-1.609-.649v6.444c.468.38 1.02.644 1.609.771h24.6c7.787 0 14.13-7.022 14.13-14.809v-15.49a13.87 13.87 0 0 0-4.18-9.852c-2.655-2.592-6.239-4.012-9.95-3.941zm28.551-15.006h-54.759v5.629h54.759"/><rect width="54.675" height="94.152" rx="4.903" x="2178.217" y="874.779"/><path d="M2204.34 905.631h-24.6c-.513 0-1.462-.3-1.462-.245v6.445c0-.1.943.367 1.462.367h24.6c4.271 0 7.708 2.956 7.708 7.226v15.491c0 4.27-3.437 8.242-7.708 8.242h-24.6a2.79 2.79 0 0 1-1.462-.649v6.444a3.11 3.11 0 0 0 1.462.771h24.6c7.788 0 14.275-7.022 14.275-14.809v-15.49a13.99 13.99 0 0 0-14.275-13.793zm-26.067-15.007h54.619v5.629h-54.619z"/><rect width="54.671" height="94.156" rx="4.903" x="2246.558" y="874.776"/><path d="M2272.678 905.631h-24.6c-.513 0-1.318-.3-1.318-.245v6.445c0-.1.8.367 1.318.367h24.6c4.271 0 7.854 2.956 7.854 7.226v15.491c0 4.27-3.583 8.242-7.854 8.242h-24.6c-.5-.061-.965-.29-1.318-.649v6.444a2.5 2.5 0 0 0 1.318.771h24.6c7.789 0 14.421-7.022 14.421-14.809v-15.49c0-7.788-6.633-13.793-14.421-13.793zm-25.919-15.01h54.412v5.629h-54.412zm101.358 14.76h46.601v60.514h-46.601z"/><rect width="70.405" height="60.514" rx="9.313" x="1812.682" y="1069.381"/><path d="M2454.489 921.854h55.326v44.041h-55.326zm4.223-17.008h46.88v12.757h-46.88zm67.761-19.137h132.09v80.183h-132.09z"/><path d="M2526.473 944.098h132.128v5.629h-132.128zm0-36.587h132.128v5.629h-132.128m.001-17.824h132.128v5.629h-132.128m0 55.349h132.128v4.691h-132.128"/><rect width="110.861" height="18.224" rx="2.253" x="2536.011" y="919.12"/><path d="M2731.346 923.639c-43.315 0-43.921 28.755-42.806 38.825a3.87 3.87 0 0 0 3.855 3.431h77.937a3.87 3.87 0 0 0 3.856-3.435c1.106-10.071.468-38.821-42.842-38.821z"/><path d="M2716.832 925.007v-17.936a6.18 6.18 0 0 1 6.173-6.174h16.708c1.638 0 3.208.65 4.366 1.808s1.808 2.728 1.808 4.366v17.871m-29.694.121h.009l.629-.056m113.871 5.807h-20.273a13.23 13.23 0 0 0-13.213 13.212v10.934a13.23 13.23 0 0 0 13.213 13.213h20.273a13.23 13.23 0 0 0 13.213-13.213v-10.934a13.23 13.23 0 0 0-13.213-13.212zm8.656 24.146c-.005 4.779-3.877 8.651-8.656 8.656h-20.273c-4.779-.005-8.651-3.877-8.656-8.656v-10.934c.005-4.779 3.877-8.651 8.656-8.656h20.273c4.779.005 8.651 3.877 8.656 8.656z"/><rect width="42.218" height="76.236" rx="4.505" x="1518.218" y="1054.887"/><path d="M1518.216 1074.688l1.52-.188h20.959c7.073.067 12.772 5.818 12.777 12.891v13.359c0 7.036-5.742 13.152-12.777 13.152h-20.959c-.514-.119-1.022-.265-1.52-.44"/><path d="M1518.216 1078.373l1.52-.121h20.959c2.41.011 4.716.98 6.41 2.695a9.06 9.06 0 0 1 2.615 6.442v13.36a9.3 9.3 0 0 1-9.025 9.4h-20.959a13.2 13.2 0 0 1-1.52-.366m42.216 15.377h-42.216m42.216-3.753h-42.216m42.216-53.473h-42.216m42.216-3.753h-42.216"/><rect width="42.218" height="76.236" rx="4.505" x="1569.244" y="1054.887"/><path d="M1569.241 1074.66l1.521-.16h20.958c3.361.048 6.563 1.437 8.894 3.858s3.598 5.673 3.518 9.033v13.359c0 7.036-5.376 13.152-12.412 13.152h-20.958a9.21 9.21 0 0 1-1.521-.375"/><path d="M1569.241 1078.346l1.521-.094h20.958c5.029 0 8.659 4.109 8.659 9.137v13.36c0 5.028-3.631 9.4-8.659 9.4h-20.958c-.513-.064-1.022-.164-1.521-.3m42.217 15.311h-42.216m42.216-3.753h-42.216m42.216-53.473h-42.216m42.216-3.753h-42.216"/><rect width="42.226" height="76.243" rx="4.51" x="1620.267" y="1054.884"/><path d="M1620.268 1113.424c.787.1 1.041.478 1.52.478h20.958a13.31 13.31 0 0 0 12.984-13.152v-13.359a13.08 13.08 0 0 0-12.984-12.891h-20.958c-.479 0-.732.15-1.52.207v3.687l1.52-.141h20.958c5.059.005 9.174 4.078 9.231 9.137v13.359a9.47 9.47 0 0 1-9.231 9.4h-20.958c-.479 0-.732-.291-1.52-.394m0 15.404h42.226m-.001-3.752h-42.226m42.226-53.473h-42.226m42.226-3.753h-42.226"/><rect width="30.752" height="41.307" rx="3.975" x="1510.169" y="929.143"/><path d="M1526.571 907.426h-2.05a10.97 10.97 0 0 0-10.934 10.934v7.9h23.919v-7.9a10.97 10.97 0 0 0-10.935-10.934z"/><rect width="96.586" height="104.482" rx="6.228" x="1690.128" y="1026.641"/><path d="M2027.748 1057.611h-21.058c-1.492.938-9.72 5.192-12.25 10.051-3.186 6.118 1.114 65.938 1.114 65.938h43.332s4.354-59.85 1.113-65.938c-3.338-6.277-12.251-10.051-12.251-10.051zm-10.514-20.155c-15.2 0-10.338 16.4-10.338 16.4h21.666s3.869-16.4-11.328-16.4z"/><path d="M2008.417 1100.143c-1.765 17.651 19.546 20.075 31.34 20.081.721-12.056 1.6-29.63 1.419-41.17-10.489.257-30.96 3.086-32.759 21.089zm77.651-42.532h-21.058c-1.493.938-9.719 5.192-12.251 10.051-3.185 6.118 1.114 65.938 1.114 65.938h43.332s4.354-59.85 1.114-65.938c-3.339-6.277-12.251-10.051-12.251-10.051z"/><path d="M2075.55 1037.456c-15.2 0-10.338 16.4-10.338 16.4h21.666s3.871-16.4-11.328-16.4zm-8.817 62.687c-1.765 17.651 19.546 20.075 31.341 20.081.721-12.056 1.6-29.63 1.418-41.17-10.489.257-30.958 3.086-32.759 21.089zm77.65-42.532h-21.059c-1.492.938-9.719 5.192-12.25 10.051-3.186 6.118 1.114 65.938 1.114 65.938h43.332s4.354-59.85 1.113-65.938c-3.34-6.277-12.25-10.051-12.25-10.051zm-10.517-20.155c-15.2 0-10.339 16.4-10.339 16.4h21.666s3.87-16.4-11.327-16.4z"/><path d="M2125.048 1100.143c-1.765 17.651 19.547 20.075 31.341 20.081.721-12.056 1.6-29.63 1.419-41.17-10.489.257-30.959 3.086-32.76 21.089zm-363.981-7.086l217.369-256.046m-421.385 320.777l171.575-202.103m754.809 137.372l217.369-256.046m-421.385 320.777l171.575-202.103"/></g></g><g class="D"><ellipse cx="4" cy="4.5" rx="4" ry="4.5" transform="matrix(.829038 .559193 -.559193 .829038 1793.2 538.533)"/><path d="M1792 551h3c4.971 0 7 4.029 7 9h-21c0-4.971 6.029-9 11-9zm19-8h40l-2 5h-40zm-35 24h67l-2 5h-67zm32-16h42l-1 2h-42zm-34.65 24h66.7l-1 2h-66.7zm32.65-19h22l-1 2h-22zm-35 24h22l-1 2h-22z"/></g><g class="B"><path d="M530.879 185.839c-5.299-2.065-11.138-2.291-16.58-.64-10.01 2.83-16.62 9.98-22.34 18.09-1.45 2.05-4.42 4.47-2.93 6.88 1.57 2.52 5.27 2.06 7.08 2.12 17.1-.4 28.34-8.34 36.27-21.74 1.41-2.38 1.46-3.56-1.5-4.71zm-5.5 7.7c-7.8 10.02-15.55 14.08-28.92 14.66 5.43-4.51 10.76-7.04 15.89-9.87 1.3-.73 2.69-1.29 3.95-2.08.6-.38 1.69-.81 1.15-1.83-.58-1.08-1.58-.98-2.57-.44q-7.155 3.87-14.34 7.72c-.69.37-1.41.71-2.33 1.18 4.34-8.62 15.53-15.28 24.59-14.8 1.66.08 3.72-.02 4.58 1.38 1.1 1.8-1.05 2.85-2 4.08zm942.405-55.117c-.623 5.654.672 11.352 3.676 16.182 5.326 8.937 13.945 13.47 23.261 16.895 2.356.87 5.463 3.112 7.405 1.048 2.028-2.169.625-5.624.214-7.388-4.815-16.415-15.397-25.216-30.395-29.406-2.664-.746-3.817-.488-4.161 2.669zm8.863 3.319c11.7 4.94 17.629 11.375 21.652 24.14-5.763-4.077-9.587-8.571-13.65-12.793-1.042-1.067-1.943-2.264-3.032-3.277-.522-.481-1.22-1.423-2.066-.637-.893.84-.537 1.78.241 2.597q5.592 5.909 11.172 11.853c.536.571 1.051 1.178 1.743 1.945-9.451-1.96-18.783-11.044-20.666-19.921-.353-1.624-.983-3.588.147-4.782 1.454-1.529 3.025.276 4.459.875zM403.028 50.327a25.37 25.37 0 0 0-6.957-15.063c-7.066-7.634-16.438-10.278-26.261-11.692-2.485-.361-5.989-1.909-7.46.513-1.533 2.543.557 5.631 1.325 7.271 8.12 15.055 20.297 21.465 35.837 22.447 2.761.176 3.835-.315 3.516-3.475zm-9.358-1.405c-12.469-2.401-19.605-7.463-26.192-19.112 6.484 2.791 11.158 6.391 16.008 9.677 1.241.827 2.371 1.811 3.647 2.575.611.362 1.489 1.138 2.153.194.699-1.007.156-1.853-.775-2.49q-6.697-4.618-13.389-9.272c-.643-.447-1.273-.934-2.109-1.54 9.651-.047 20.665 6.9 24.351 15.19.682 1.515 1.707 3.305.85 4.707-1.104 1.797-3.016.358-4.543.07z"/><use xlink:href="#AM"/><path d="M1289.12 253.999c-5.78-.02-8.53 2.73-8.53 8.53.01 5.33 3.45 8.91 8.55 8.88 4.826-.096 8.725-3.965 8.86-8.79.04-4.94-3.74-8.61-8.88-8.62zm-.2 13.72c-2.63-.9-5.11-2-4.89-5.25.22-3.19 2.25-5.14 5.43-5.01 3.12.12 4.69 2.56 4.64 5.33-.06 2.95-2.26 4.49-5.18 4.93zm-1055.739-21.07c.12-10.77-.17-11.72-9.03-5.61-.14.09-.31.14-.45.22-8.91 5.25-8.94 5.3-.06 10.46 2.77 1.6 6.03 4.87 8.67 3.34 2.61-1.51.44-5.89.87-8.41zm-3.62 2.92c-2.144 1.482-3.642-.808-5.743-1.937-.379-.194-.644-.557-.714-.978s.063-.849.359-1.156c1.85-1.887 3.628-3.121 5.558-2.239 1.85.83 1.76 5.47.54 6.31zm176.034 259.925c-10.77-.12-11.72.17-5.61 9.03.09.14.14.31.22.45 5.25 8.91 5.3 8.94 10.46.06 1.6-2.77 4.87-6.03 3.34-8.67-1.51-2.61-5.89-.44-8.41-.87zm2.92 3.62c1.482 2.144-.808 3.642-1.937 5.743-.194.379-.557.644-.978.714s-.849-.063-1.156-.359c-1.887-1.85-3.121-3.628-2.239-5.558.83-1.85 5.47-1.76 6.31-.54zm921.378 16.373c-6.236-8.783-7.029-9.382-10.604.771-.06.155-.168.296-.235.443-4.121 9.486-4.116 9.544 6.102 8.497 3.182-.334 7.742.394 8.978-2.396 1.224-2.756-3.107-5.024-4.241-7.315zm-1.212 4.491c-.863 2.46-3.421 1.488-5.785 1.81a1.35 1.35 0 0 1-1.153-.371c-.304-.299-.448-.724-.389-1.147.387-2.614 1.1-4.658 3.18-5.079 1.985-.416 4.64 3.39 4.147 4.787zm-194.017-384.732c10.586 1.988 11.571 1.868 7.093-7.919-.064-.154-.084-.33-.139-.481-3.623-9.686-3.667-9.725-10.291-1.875-2.057 2.45-5.843 5.093-4.795 7.958 1.034 2.833 5.724 1.456 8.131 2.317zm-2.247-4.072c-1.087-2.369 1.428-3.446 2.905-5.319.257-.34.661-.538 1.087-.534s.826.21 1.076.555c1.537 2.15 2.444 4.115 1.24 5.862-1.139 1.678-5.693.783-6.308-.564zm-420.918-34.585l-2.664-.407c-1.881-.118-2.198-1.029-2.002-2.811.947-8.792.893-8.794-7.67-10.157l-2.666-.43c-4.592-.719-5.988.295-6.77 4.939a22.39 22.39 0 0 0-.407 2.664c-.08 1.989-.927 2.789-2.944 2.246a25.62 25.62 0 0 0-3.039-.505c-4.428-.67-5.457.058-6.297 4.47-.212 1.139-.362 2.287-.543 3.431-1.351 8.533-1.359 8.579 7.064 10.476 1.645.37 2.362.779 2.18 2.722-.821 8.836-.751 8.839 8.006 10.178l2.281.353c4.795.72 5.984-.123 6.808-4.832.9-5.141.9-5.141 6.113-4.347 4.564.7 5.752-.144 6.525-4.626l.543-3.431.483-3.05c.789-5.201.172-6.049-5.003-6.883zm1.216 7.077a11.42 11.42 0 0 0-.256 1.523c-.88 5.559-.88 5.559-6.584 4.655-5.391-.854-5.439-.815-6.34 4.742a6.44 6.44 0 0 0-.173 1.145c.026 3.639-1.416 5.142-5.153 3.812-1.486-.404-3.002-.683-4.534-.836.233-1.871.56-3.733.685-5.606.122-1.756 1.464-3.717-.688-5.182-2.436-1.691-5.383-1.399-8.1-1.963-1.605-.332-2.295-.91-1.771-2.539.032-.125.052-.253.06-.381.884-7.106.915-7.257 7.904-5.979 3.246.6 4.334-.517 4.814-3.545 1.211-7.594 1.944-7.931 9.451-5.679 1.16.348 1.884.736 1.555 2.076a11.45 11.45 0 0 0-.172 1.137c-1.053 8.08-1.063 8.141 7.143 9.683 1.88.355 2.84.906 2.159 2.94z"/></g><path d="M1343.089 852.589l2.664-.407c1.881-.118 2.198-1.029 2.002-2.811-.947-8.792-.893-8.794 7.67-10.157l2.666-.43c4.592-.719 5.988.295 6.77 4.939a22.39 22.39 0 0 1 .407 2.664c.08 1.989.927 2.789 2.944 2.246a25.62 25.62 0 0 1 3.039-.505c4.428-.67 5.457.058 6.297 4.47.212 1.139.362 2.287.543 3.431 1.351 8.533 1.359 8.579-7.064 10.476-1.645.37-2.362.779-2.18 2.722.821 8.836.751 8.839-8.006 10.178l-2.281.353c-4.795.72-5.984-.123-6.808-4.832-.9-5.141-.9-5.141-6.113-4.347-4.564.7-5.752-.144-6.525-4.626l-.543-3.431-.483-3.05c-.789-5.2-.172-6.049 5.003-6.883zm-1.216 7.077a11.42 11.42 0 0 1 .256 1.523c.88 5.559.88 5.559 6.584 4.655 5.391-.854 5.439-.815 6.34 4.742a6.44 6.44 0 0 1 .173 1.145c-.026 3.639 1.416 5.142 5.153 3.812 1.486-.404 3.002-.683 4.534-.836-.233-1.871-.56-3.733-.685-5.606-.122-1.756-1.464-3.717.688-5.182 2.436-1.691 5.383-1.399 8.1-1.963 1.605-.332 2.295-.91 1.771-2.539-.032-.125-.052-.253-.06-.381-.884-7.106-.915-7.257-7.904-5.979-3.246.6-4.334-.517-4.814-3.545-1.211-7.594-1.944-7.931-9.451-5.679-1.16.348-1.884.736-1.555 2.076a11.45 11.45 0 0 1 .172 1.137c1.053 8.08 1.063 8.141-7.143 9.683-1.879.356-2.84.906-2.159 2.941z" class="D"/><g class="B"><path d="M1217.891 91.32c-.785-5.727-3.891-8.067-9.634-7.26-5.277.752-8.343 4.656-7.604 9.703.767 4.765 5.141 8.089 9.938 7.55 4.897-.648 8.006-4.902 7.3-9.993zm-13.614 1.711c.525-2.73 1.269-5.339 4.518-5.573 3.19-.226 5.403 1.513 5.717 4.68.315 3.106-1.882 5.001-4.632 5.337-2.93.351-4.761-1.613-5.603-4.443zM322.96 302.165c.597-10.85 8.87-17.668 20.633-16.948 8.306.509 15.892 3.609 23.222 7.188 18.167 8.875 34.497 20.3 47.338 36.142 4.879 6.019 7.559 12.847 5.047 20.816-2.996 9.518-12.915 13.579-22.424 13.143-9.002-.409-16.81-4.488-24.502-8.634-11.445-6.172-21.766-13.96-31.626-22.429-3.209-2.755-5.747-6.095-8.672-9.055a43.13 43.13 0 0 1-2.745-2.96c-4.09-4.881-6.641-10.441-6.271-17.263zm56.763 2.175c-10.819-6.572-21.939-12.827-34.572-14.688-12.327-1.824-19.555 5.795-17.383 17.809.846 4.642 3.582 8.457 6.839 11.866 6.143 5.889 12.039 11.996 18.958 17.11 2.73 2.009 4.671 1.694 6.876.366a41.58 41.58 0 0 0 20.237-28.648c.21-1.044.566-2.255-.246-3.222a2.83 2.83 0 0 0-.71-.593zm29.514 24.723c-6.816-7.948-14.018-13.504-21.236-19.047-2.302-1.769-3.099-1.124-3.741 1.379-3.099 12.054-9.325 21.944-20.37 28.188-3.118 1.752-2.319 2.91-.002 4.291 4.574 2.723 9.033 5.676 13.798 8.004 6.643 3.259 13.37 6.319 21.088 6.254 10.387-.089 17.981-7.027 16.938-16.17a21.38 21.38 0 0 0-4.903-11.221c-.492-.588-1.017-1.148-1.572-1.678zm-68.996-33.316c-.207-2.61 1.886-2.208 3.271-2.18 5.502.105 10.642 1.854 15.546 4.174 2.174 1.036 4.779 1.358 6.686 3.658a1.71 1.71 0 0 1 .163 2.394c-.919 1.163-2.106.949-3.152.5-2.894-1.249-5.634-2.947-8.607-3.924a83.97 83.97 0 0 0-10.872-2.533c-1.031-.187-2.041-.192-2.601-.86a2.13 2.13 0 0 1-.434-1.228zm48.157 20.701c.796-.644 2.067-1.156 3.034.008.976 1.18.431 2.339-.145 3.504-1.237.392-2.458.904-3.511-.267l-.064-.077c-1.072-1.276-.222-2.438.685-3.168zm6.212 8.305c-.612-.78-1.017-2.007.315-2.932 1.089-.767 1.854-.113 2.77.276.226 1.048.726 2.124-.43 3.028a1.9 1.9 0 0 1-2.634-.339zm10.91 12.207c-.436-.476-.642-1.118-.566-1.759s.428-1.217.964-1.577c.514-.402 1.171-.575 1.816-.48s1.224.452 1.6.985a2.41 2.41 0 0 1-.478 3.404 2.25 2.25 0 0 1-3.19-.388 3.14 3.14 0 0 1-.146-.184zm-5.28-9.224c1.064-1.222 2.257-1.009 3.559-.173a2.46 2.46 0 0 1-.325 3.406 2.04 2.04 0 0 1-3.063-.153l-.084-.1a2.07 2.07 0 0 1-.088-2.978z"/><path d="M1628.346 56.569c-3.395-2.844-7.074-5.331-10.979-7.421-4.691-2.531-6.49-6.279-6.36-9.24.381-11.589 3.931-20.249 8.141-28.441 8.439-16.418 18.541-31.769 32.76-43.968 1.978-1.744 4.073-3.352 6.27-4.811 5.928-3.8 11.21-3.52 17.039.52 3.769 2.609 7.55 5.231 11.5 7.57 5.261 3.1 6.922 7.631 6.162 13.43-1.76 13.37-7.831 25.091-14.61 36.352-7.36 12.208-16.012 23.55-27.051 32.817a42.56 42.56 0 0 1-5.559 4.093 16.77 16.77 0 0 1-8.488 2.676 13.45 13.45 0 0 1-8.825-3.577zm46.284-79.842c-8.446 28.668-24.264 52.516-48.09 70.431a1.32 1.32 0 0 0-.277 1.854c3.63 4.739 7.33 1.229 11.083-1.065a59.58 59.58 0 0 0 15.661-13.88c1.039-1.31 1.811-4.21 4.43-2.858 2.765 1.42.871 3.413.293 5.21a1.4 1.4 0 0 1-.346.587 153.2 153.2 0 0 1-12.487 11.572c-.569.435-.693 1.241-.281 1.827s1.212.742 1.814.354c5.362-3.623 9.984-8.236 13.619-13.59a1.15 1.15 0 0 1 .06-.078c11.926-14.231 21.453-29.8 26.748-47.724 1.182-4 1.887-8.1-.039-12.115a1.35 1.35 0 0 0-.388-.48c-1.938-1.524-3.746-2.484-4.522 1.247-.312 2.58-.222 6.211-3.871 5.52-4.009-.76-1.34-3.9-.859-6.009l.028-.13c.097-.402 0-.827-.263-1.146s-.661-.496-1.075-.477a1.25 1.25 0 0 0-1.238.951zm-25.363 17.922c1.988 1.178.55 2.409-.252 3.649l-16.91 26.589-9.409 14.739c-.322.5-.274 1.152.118 1.6s1.032.581 1.57.328c16.894-8.39 45.6-51.217 45.365-70.643-.005-.589-.395-1.104-.96-1.27s-1.171.059-1.493.552c-.2.3-.386.591-.57.885l-10.91 16.97c-.711 1.069-1.76 2.25-3.27 1.25-1.43-.949-.979-2.271-.24-3.472.43-.7.931-1.36 1.381-2.049l9.462-14.8c.336-.521.268-1.205-.164-1.65s-1.113-.535-1.644-.216c-19.67 11.839-45.478 53.229-45.28 71.026a1.34 1.34 0 0 0 2.425.773c.037-.053.074-.108.111-.164l26.989-42.3c.737-1.168 1.385-2.2 2.434-2.2.444.02.875.159 1.247.403zm10.068 32.253c.001-.195.032-.388.091-.573.711-2.213 1.748-4.372 4.395-5.062a1.25 1.25 0 0 1 .765.046c.874.333 2.091.532 2.082 1.721-.003.163-.024.325-.062.484-.621 2.682-2.159 4.922-5.012 5.411a1.47 1.47 0 0 1-.245.021 2.12 2.12 0 0 1-2.013-2.048z" stroke="rgba(0,0,0,0)" class="C"/></g><g fill="#fcfdff"><path d="M1562.552 506h-215.261l1.953-41.169c1.027-25.193 2.252-62.833 2.252-99.077 0-20.01-.391-52.535-2.253-93.852L1347.335 236h215.328l-2.422 43.778c-1.264 26.408-2.771 65.497-2.771 101.756 0 20.025.481 52.116 2.774 91.275l2.309 33.191z"/><path d="M1352.645 241c1.258 21.362 3.851 71.816 3.851 124.754 0 54.131-2.711 111.965-3.931 135.246h204.577c-1.578-20.481-4.672-67.303-4.672-119.466 0-54.611 3.392-116.212 4.874-140.534h-204.699M1342 231h226s-5.531 80.534-5.531 150.534S1568 511 1568 511h-226s4.496-75.246 4.496-145.246S1342 231 1342 231z" fill="#c4d1ef"/></g><path d="M1427.336 440c-3.771-.01-4.464-.69-4.485-4.365l.021-8.62c.057-2.489 1.215-3.539 3.729-3.612 5.721-.162 5.611-.162 5.778-5.839.062-2.26-.3-4-2.332-5.244a4.5 4.5 0 0 1-2.028-2.935c-.553-3.131-2.847-4.646-5.122-6.335-11.086-8.229-17.683-19.281-20.175-32.819a47.35 47.35 0 0 1 3.145-28.31c.97-2.191.349-3.78-.516-5.809-3.594-8.392 1.606-18.11 10.611-20.348a13.26 13.26 0 0 1 9.365.848c.735.412 1.639.378 2.341-.089 3.326-2.015 6.885-3.615 10.6-4.764 1.841-.5 2.257-1.687 1.825-3.559-.855-3.719-1.538-7.48-2.185-11.246-.579-3.361-.24-3.891 2.941-4.8 1.341-.387 1.653-.841 1.3-2.358-1.1-4.726-2.018-9.5-2.769-14.3-.542-3.466.292-4.617 3.608-5.423 3.2-.778 6.425-1.452 9.668-1.96 3.275-.518 5.079.716 5.835 3.989 1.048 4.558 2.013 9.143 2.8 13.756.266 1.572.652 2.137 2.278 1.755 2.274-.528 3.676.089 4.193 2.765l8.427 42.341 1.168 6.133c.709 3.272.214 4.345-3.035 4.9-2.278.393-3.223.993-2.3 3.5.672 1.814.62 3.9-1.346 5.093-1.471.9-.658 1.991-.458 2.958.344 1.69 1.329 3.746-.1 4.91a9.69 9.69 0 0 1-6.883 1.715 2.38 2.38 0 0 1-1.966-2.158c-.193-1.2-.485-2.386-.767-3.566-.177-.752-.271-1.7-1.194-1.835-2.707-.376-3.124-2.494-3.416-4.555-.245-1.709-.965-2.262-2.581-1.829-.5.132-1.038.1-1.549.2-2.8.527-3.958-.376-4.464-3.126l-3.785-19.656c-.277-1.517-.747-2.014-2.2-1.214a16.98 16.98 0 0 1-2.4.89c-2.957 1.05-4.667 2.379-4.792 6.278-.266 8.212-6.138 13.541-14.33 14.1-1.184-.111-2.265.679-2.519 1.841-4.578 11.824-3.066 22.991 2.717 34.042 2.977 5.692 7.645 9.405 12.568 13.044a4.05 4.05 0 0 0 2.091.941c6.289.419 6.289.408 10.925 3.8.229-5.291.463-5.511 5.705-5.511h51.6c4.442 0 5.245.8 5.225 5.364-.021 3.3.381 6.649-.84 9.829-2.028 5.274-6.122 7.888-11.545 7.961h-37.78c-4.646-.048-8.52-1.929-10.857-6.246-.213-.392-.4-.79-.625-1.24-.892 1.2-1.278 2.254-2.008 2.619-3.687 1.855-3.259 5.119-3.369 8.416-.089 2.553.647 3.158 3.15 3.143l59.155-.057c3.651 0 4.568.941 4.578 4.668q.007 3.664 0 7.314c0 3.837-.751 4.605-4.532 4.61q-29.449.01-58.894 0-5.736 0-11.468 0-2.865.005-5.732.005zm-1.936-3.957c-.118 1.509.758 1.425 1.566 1.34.181-.023.364-.036.547-.039q18.889.042 37.78.017 5.246 0 10.493 0l27.287.038c1.6.007 2.341-.267 2.194-2.08a37.05 37.05 0 0 1 0-6.263c.2-2.2-.344-2.9-2.742-2.887l-60.449.069c-3.228 0-3.305-.08-3.305-3.414v-15.15c.011-1.484-.51-2.833-2-2.8-1.382.031-2.023 1.275-2 2.8l.021 11.757c0 6.776 0 6.838-6.831 6.771-1.914-.016-2.915.329-2.576 2.514.26 1.684-.861 3.785 2.529 3.738 11.722-.146 23.45-.017 35.173.109.328-.011.654-.048.976-.111 1.115-.178 2.373-.356 2.314 1.292-.049 1.476-1.342 1.346-2.5 1.214-.31-.041-.622-.065-.935-.071l-35.179.062a4.31 4.31 0 0 1-.613-.066 4.47 4.47 0 0 0-.649-.064c-.541-.013-1.019.206-1.101 1.22zm22.71-37.515c.168 2.079-.021 4.182.052 6.268.194 5.363 3.954 9.111 9.278 9.127q19.413.056 38.833 0c5.5-.02 9.282-4.275 8.99-9.78-.062-1.151-.37-1.491-1.5-1.433-1.391.068-2.785.066-4.181.064h-1.812c-.954.007-2.034.157-2.127-1.243-.1-1.563 1.1-1.543 2.127-1.584 1.736-.068 3.473-.052 5.209-.062a6.2 6.2 0 0 1 .452.011c1 .034 1.873.069 1.88-1.71 0-2.012-1.08-1.747-2.3-1.747q-13.031.018-26.063.006c-8.865 0-17.724.032-26.584-.031h-.086c-1.53-.008-2.316.293-2.168 2.11zm-11.716-.629c-2.766.053-5.205 1.828-6.106 4.444-1.007 2.8-1 5.813 2.075 8.526a43.95 43.95 0 0 1 .032-4.6 4.48 4.48 0 0 1 4.63-4.026 4.29 4.29 0 0 1 4.125 4.392c.041 1.041-.016 2.087.01 3.126.006.3-.208.737.266.868a1.06 1.06 0 0 0 1.143-.288c1.9-1.834 2.451-6.414.98-8.761-1.307-2.336-3.797-3.759-6.473-3.7q-.335-.007-.683.02zm-28.31-55.1c-2.926 7.462-4.025 15.515-3.207 23.488 1.579 15.229 8.933 26.961 21.077 35.921 1 .737 1.355.627 1.779-.56a11.09 11.09 0 0 1 3.535-4.778l-2.314-1.8a42.01 42.01 0 0 1-15.29-45.181c.422-1.488 1.585-3.105 1.267-4.385-.355-1.458-2.581-1.584-3.895-2.457-.373-.222-.72-.483-1.038-.779-.41-.413-.725-.615-.99-.615-.368-.002-.637.388-.925 1.142zm54.9 12.521c.042 1.443-.615 3.7 1.179 3.947 1.335.272 3.943.795 3.77-1.512s1.032-4.156-1.929-4.191c-.246 0-.538-.019-.843-.019-1.038-.004-2.219.186-2.179 1.77zm4.61-10.279a49.86 49.86 0 0 1-7.895 1.579c-1.079.114-1.825.617-1.476 1.8.068 3 1.121 3.811 3.869 3.188 1.262-.286 2.565-.4 3.843-.627 3.926-.7 4.057-.973 3.243-4.894-.167-.812-.481-1.141-1.021-1.14-.191.005-.381.035-.565.089zm-3.576-54.881l-7.119 1.4-14.533 2.626c-2.289.359-2.378 1.546-1.981 3.434l6.06 29.275q1.722 8.4 3.342 16.824c.282 1.469.653 2.3 2.509 1.876q7.454-1.679 14.991-2.975c1.992-.344 6.008-1.2 6.008-1.2s2.123-.56 1.585-2.321a71.93 71.93 0 0 1-1.471-7.115l-4.312-22.192q-1.783-9.056-3.667-18.087c-.135-.653-.044-1.617-.926-1.617-.165.001-.329.023-.488.067zm-57.408 39.981c.3 6.808 6.122 12.993 12.786 12.819 3.353-.072 6.539-1.48 8.851-3.909s3.56-5.682 3.466-9.035c-.266-6.968-5.466-12-12.688-11.914a7.1 7.1 0 0 0-.921-.06c-5.864-.004-11.72 7.01-11.497 12.095zm32.961-16.158c-2.582.613-5.071 1.567-7.4 2.838-3.05 1.475-3.05 1.49-1.084 4.423.479.717 1.053 1.376 1.481 2.123.663 1.167 1.273 1.476 2.613.685a21.46 21.46 0 0 1 6.382-2.7c.986-.208 1-.747.96-1.708l-1.523-5.251c-.133-.468-.343-.6-.593-.6-.284.04-.564.102-.838.186zm3.7-41.289a1.59 1.59 0 0 0-1.5 2l3.014 15.291c.152.746.3 1.484 1.519 1.119 1.125-.346 1.006-1.025.87-1.793-.2-1.1-.506-2.19-.709-3.294-.173-.909.214-1.616 1.146-1.688.772-.058 1.106.5 1.335 1.286 1.372 4.73 1.4 4.726 6.394 3.623.844-.188 1.673-.5 2.524-.6 1.225-.151 1.256-.789 1.053-1.8l-2.5-12.99c-.2-.977-.292-2.1-1.283-2.749l-3.207-.048-8.662 1.638zm31.5 162.356v-.105c-1.116 0-2.232.044-3.342-.016a1.1 1.1 0 0 1-1.011-1.238c0-.685.442-1.029 1.189-1.025l3.223-.015 2.956-.016c.083 0 .174 0 .266-.01.5-.022 1.059-.046 1.037.762s-.219 1.595-1.23 1.647a26.37 26.37 0 0 1-1.289.027l-1.808-.015zm15.071-32.173c-.943-.062-1.893-.026-2.836 0-1 .025-2.075-.032-2.138-1.281-.068-1.359 1.091-1.559 2.148-1.668.428-.041.861-.006 1.289-.006v.017c.517 0 1.032.016 1.544 0 .435-.056.874.079 1.202.371s.513.711.508 1.15a1.38 1.38 0 0 1-1.54 1.429c-.071-.009-.126-.012-.186-.016zm-20.759-65.3c-.011-.73.067-1.415 1.053-1.406.637-.022 1.186.445 1.267 1.077.115.779-.338 1.3-1.428 1.381a.95.95 0 0 1-.127.009c-.469-.001-.761-.379-.774-1.062zm-57.08-7.107c-.109-4.664 4.275-7.325 7.2-7.446 3.343-.141 7.5 3.974 7.6 7.3.115 3.738-3.567 7.424-7.441 7.455h-.056c-3.713-.004-7.229-3.579-7.312-7.31zm2.523-.022c0 2.634 1.867 4.282 4.975 4.37 2.858.089 4.313-1.474 4.418-4.731a4.86 4.86 0 0 0-4.188-4.411c-.062 0-.125-.007-.187-.007-2.296-.002-5.022 2.555-5.027 4.777zm54.53 3.45a1.39 1.39 0 0 1-1.144-2.145 1.39 1.39 0 0 1 1.258-.636c.816-.004 1.489.638 1.523 1.453-.216.781-.628 1.341-1.427 1.341a2 2 0 0 1-.218-.011zm-2.279-6.18c-.146-.915.689-1.228 1.09-1.62 1.079-.016 1.45.528 1.487 1.275.037.765.025 1.626-1.043 1.705h-.128c-.756-.011-1.375-.606-1.415-1.361zm.188-3.638c-.829-.089-1.1-.721-1.054-1.494s.345-1.335 1.236-1.287c.929.052 1.335.626 1.414 1.511a1.44 1.44 0 0 1-1.4 1.282c-.072-.001-.137-.006-.205-.013zm-2.227-6.343a1.17 1.17 0 0 1 1.159-1.217c.991.012 1.631.194 1.684 1.1.069.391-.044.793-.305 1.092s-.644.465-1.041.45h-.064c-.385.018-.76-.125-1.034-.396s-.422-.645-.408-1.03zm-18.048-35.753c-1.788-.4-1.428-2.253-1.772-3.56-.25-.968.235-1.925 1.241-1.794 2.116.282.652 2.619 1.866 3.268-.148 1.05-.273 2.117-1.083 2.117a1.15 1.15 0 0 1-.261-.032z" fill="#adc0eb"/><g class="B"><path d="M1374.5 457.603c4.122 0 6.042 2.631 6.042 6.753s-1.92 6.042-6.042 6.042-6.042-1.92-6.042-6.042 1.92-6.753 6.042-6.753zm0 19c4.122 0 6.042 2.631 6.042 6.753s-1.92 6.047-6.042 6.047-6.042-1.925-6.042-6.047 1.92-6.753 6.042-6.753zM1401 459c5.709-2.392 116.746-1.244 129.624-.018s16.376 1.607 16.376 3.607 4.324 3.266-32.926 4.368S1398 467 1398 467s-2.479-.765-2.479-2.765-.23-2.843 5.479-5.235zm0 19c5.709-2.392 116.746-1.244 129.624-.018s16.376 1.607 16.376 3.607 4.324 3.266-32.926 4.368S1398 486 1398 486s-2.479-.765-2.479-2.765-.23-2.843 5.479-5.235z"/></g><path opacity="0" d="M0 0h1920v120H0z" class="D"/></g></svg>
