<svg xmlns="http://www.w3.org/2000/svg" xmlns:xlink="http://www.w3.org/1999/xlink" width="350.144" height="411.062" ><defs><linearGradient id="A" x1="-148.426" y1="140.959" x2="-148.295" y2="142.215"><stop offset=".641" stop-color="#ffd7a5"/><stop offset="1" stop-color="#faa96c"/></linearGradient><linearGradient id="B" x1=".207" y1="-.113" x2=".595" y2=".79"><stop offset=".219" stop-color="#694538"/><stop offset="1" stop-color="#1c1007"/></linearGradient><linearGradient id="C" x1=".474" y1="-.233" x2=".786" y2="7.518" xlink:href="#B"/><linearGradient id="D" x1="-215.42" y1="186.275" x2="-215.347" y2="187.205" xlink:href="#A"/><linearGradient id="E" x1="9.944" y1="-2.817" x2="9.932" y2="-1.96"><stop offset=".219" stop-color="#1967b3"/><stop offset="1" stop-color="#183773"/></linearGradient><linearGradient id="F" x1=".511" y1="-1.769" x2=".501" y2=".25" xlink:href="#E"/><linearGradient id="G" x1=".456" y1="-.088" x2=".623" y2=".88"><stop offset="0" stop-color="#6d85c7"/><stop offset="1" stop-color="#283547"/></linearGradient><linearGradient id="H" x1="0" y1=".5" x2="1" y2=".5" xlink:href="#B"/><linearGradient id="I" x1=".401" y1="-.186" x2=".859" y2=".894" xlink:href="#G"/><linearGradient id="J" x1=".495" y1=".928" x2=".501" y2=".146"><stop offset=".334" stop-color="#faf8eb"/><stop offset=".486" stop-color="#edebe1"/><stop offset=".766" stop-color="#cbccc7"/><stop offset="1" stop-color="#abadaf"/></linearGradient><linearGradient id="K" x1=".463" y1=".848" x2=".708" y2="-.371"><stop offset="0" stop-color="#f13b43"/><stop offset="1" stop-color="#a64444"/></linearGradient><linearGradient id="L" x1=".25" y1="2.543" x2=".52" y2=".056" xlink:href="#K"/><radialGradient id="M" cx=".355" cy=".492" fy=".354" r=".846" gradientTransform="translate(-0.003) scale(1.007 1)"><stop offset="0" stop-color="#e7d557"/><stop offset="1" stop-color="#ab8541"/></radialGradient><clipPath id="N"><path d="M772.32 424.356c-25.739-42.121-79.561-54.211-106.861-61.232a77.44 77.44 0 0 0-12.064.948c-17.275 88.153-26.247 118.458-56.043 138.4-34-21.884-37.39-71.332-33.9-102.737-29.367 16.276-53.7 33.448-59.456 41 2.341 13.26 11.7 47.579 27.3 75.659 1.561 17.161-14.88 66.313-11.7 81.9 7.8 38.219 53.77 29.968 79.561 27.3 22.621-2.339 122.3 26.146 150.54-14.039 20.28-28.86-20.28-82.681-25.74-107.641s15.603-59.277 48.363-79.558z" transform="translate(-503.998 -363.123)" fill="none"/></clipPath><radialGradient id="O" cx=".522" cy=".184" r="1.38" gradientTransform="translate(-1.228) scale(3.457 1)"><stop offset="0" stop-color="#ffffd7"/><stop offset="1" stop-color="#f1d579"/></radialGradient><radialGradient id="P" cx="-.384" cy=".512" r=".79" gradientTransform="translate(-1.021) scale(3.041 1)" xlink:href="#O"/><radialGradient id="Q" cx="-1.135" cy=".447" r=".896" gradientTransform="translate(-1.064) scale(3.129 1)" xlink:href="#O"/><radialGradient id="R" cx="1.545" cy=".424" r=".961" gradientTransform="translate(-1.495) scale(3.99 1)" xlink:href="#O"/><linearGradient id="S" x1=".499" y1=".067" x2=".502" y2=".995" xlink:href="#E"/><linearGradient id="T" x1=".608" y1=".051" x2=".407" y2="1.024" xlink:href="#B"/><linearGradient id="U" x1="4.493" y1="-6.384" x2=".835" y2="-.077" xlink:href="#B"/><linearGradient id="V" x1="3.916" y1="-6.043" x2=".78" y2="-.037" xlink:href="#B"/><linearGradient id="W" x1="12.31" y1="-6.638" x2="1.327" y2="0" xlink:href="#B"/><linearGradient id="X" x1="5.15" y1="-5.859" x2=".759" y2=".146" xlink:href="#B"/><linearGradient id="Y" x1="11.906" y1="-5.194" x2=".922" y2=".289" xlink:href="#B"/><linearGradient id="Z" x1="7.924" y1="-6.234" x2=".605" y2=".405" xlink:href="#B"/><linearGradient id="a" x1="5.943" y1="-5.184" x2=".453" y2=".549" xlink:href="#B"/><linearGradient id="b" x1="3.182" y1="-5.101" x2=".437" y2=".632" xlink:href="#B"/><linearGradient id="c" x1="7.447" y1="-4.941" x2=".126" y2=".793" xlink:href="#B"/><linearGradient id="d" x1="5.537" y1="-5.009" x2=".046" y2=".997" xlink:href="#B"/><linearGradient id="e" x1=".497" y1=".067" x2=".504" y2=".995" xlink:href="#E"/><linearGradient id="f" x1="1.503" y1="-8.964" x2=".534" y2=".175" xlink:href="#B"/><linearGradient id="g" x1="1.301" y1="-8.461" x2=".527" y2=".196" xlink:href="#B"/><linearGradient id="h" x1="1.248" y1="-9.673" x2=".52" y2=".227" xlink:href="#B"/><linearGradient id="i" x1="1.991" y1="-8.435" x2=".527" y2=".341" xlink:href="#B"/><linearGradient id="j" x1="1.159" y1="-7.868" x2=".515" y2=".312" xlink:href="#B"/><linearGradient id="k" x1="1.435" y1="-9.317" x2=".499" y2=".507" xlink:href="#B"/><linearGradient id="l" x1="1.606" y1="-7.886" x2=".493" y2=".554" xlink:href="#B"/><linearGradient id="m" x1="1.099" y1="-7.502" x2=".482" y2=".734" xlink:href="#B"/><linearGradient id="n" x1=".501" y1=".137" x2=".458" y2="1.006" xlink:href="#B"/><linearGradient id="o" x1=".197" y1="-.871" x2=".489" y2=".451" xlink:href="#B"/><linearGradient id="p" x1=".766" y1="-.323" x2=".215" y2="1.382" xlink:href="#B"/><linearGradient id="q" x1=".706" y1="-1.267" x2=".446" y2=".961" xlink:href="#B"/><linearGradient id="r" x1=".156" y1="-1.38" x2=".513" y2=".57" xlink:href="#B"/></defs><g transform="translate(0 -91.512)"><path d="M40.876 279.082c-12.056-1.793-20.963-3.827-27.226-.368-4.68 2.339-4.811 21.654-1.689 26.695 3.314 6.127 12.306 9.577 18.5 3.457s8.234-10.393 12.383-12.24-1.968-17.544-1.968-17.544z" fill="url(#A)"/><path d="M44.283 311.257c3.687 61.652 14.441 151.655 41.825 191.316H68.317c-25.808-36.611-32.745-189.66-32.4-191.316s8.366 0 8.366 0z" fill="url(#B)"/><path d="M2.731 295.873c-3.12 4.576-4.681 16.017 1.559 21.356 13.26 3.052 49.92-.763 56.16-6.864 3.12-6.1 3.447-12.379-3.737-12.291-10.463 7.039-50.082-.676-53.982-2.201z" fill="url(#C)"/><path d="M43.097 294.903c-1.9 5.471-8.932 3.248-15.612 11.99-1.958 2.564-6.329 4.739-7.955 2.179-1.219-1.92 4.491-11.089 6.918-13.477-.392-9.872 13.665-20.851 16.649-.692z" fill="url(#D)"/><path d="M73.612 176.849c-5.436 18.641 2.62 69.275 5.621 86.151s33.32 23.217 44.911-8.176 18.995-48.353 8.653-68.472-50.905-37.9-59.185-9.503z" fill="url(#E)"/><path d="M38.075 278.944c6.05 3.951 6.9 19.448 3.655 21.61 27.3 4.681 50.943-8.483 63.516-15.464 23.671-13.146 8.609-41.067-23.9-29.674s-43.271 23.528-43.271 23.528z" fill="url(#F)"/><path d="M202.411 383.235c-17.16 4.68-21.06 7.8-24.96 18.719s-9.359 39-5.459 45.242 16.38 31.2 18.719 44.46c-2.339 4.68-12.48 3.9-12.48 3.9-3.12-17.939-16.38-35.879-17.939-37.44-9.361 6.241-19.5-4.68-22.621-25.739s-25.74-57.72-24.18-95.941c25.739 8.58 79.561-9.094 88.92 45.373" fill="url(#G)"/><path d="M198.528 502.574s-.017-9.359-2.356-11.7c-6.241.781-15.287 3.221-22.464 1.61-11.234-1.66-17.316-9.41-25.116-9.41-5.461 0-14.821 3.9-21.492 12.529-4.927 6.372 0 6.971 0 6.971 8.233-1.559 53.472 1.561 57.372-3.12a8.39 8.39 0 0 0 3.966 3.12z" fill="url(#H)"/><path d="M295.231 342.674c-2.339 35.1-37.44 102.96-31.98 111.539s18.721 31.98 19.5 42.121c-7.02 1.559-15.816 0-15.816 0-6.023-21.061-15.384-28.08-19.284-31.98-11.7 3.9-18.719-10.141-19.5-28.86-.822-19.732-3.12-38.221-18.721-42.9s-40.56 14.039-56.94-40.56c57.721-17.94 142.741-9.36 142.741-9.36z" fill="url(#I)"/><path d="M290.568 502.574s-.017-9.359-2.358-11.7c-6.239.781-15.287 3.221-22.462 1.61-11.234-1.66-17.316-9.41-25.116-9.41-5.461 0-14.821 3.9-21.492 12.529-4.927 6.372 0 6.971 0 6.971 8.231-1.559 53.472 1.561 57.373-3.12a8.39 8.39 0 0 0 3.965 3.12z" fill="url(#H)"/><g transform="translate(75.531 91.512)"><path d="M147.16 39c14.194 6.082-9.359 102.96-49.92 109.2S44.98 69.851 57.46 57.155 136.24 34.316 147.16 39z" fill="url(#J)"/><path d="M93.341 86.583l-10.921 44.46 19.5 22.619 17.123-23.679S106.6 115.445 102.7 85.024a42.6 42.6 0 0 0-9.359 1.559z" fill="url(#K)"/><path d="M85.889 63.663c-3.1 3.052 2.772 22.919 6.672 25.258s10.454 2.341 12.247 0 17.463-22.205 12.357-29.042-27.807.364-31.276 3.784z" fill="url(#L)"/><path d="M271.181 61.621C245.442 19.5 191.62 7.41 164.32.389a77.44 77.44 0 0 0-12.064.948c-17.275 88.153-26.247 118.458-56.043 138.4-34-21.884-37.39-71.332-33.9-102.737-29.367 16.276-53.7 33.448-59.456 41 2.341 13.26 11.7 47.579 27.3 75.659 1.561 17.161-14.88 66.313-11.7 81.9 7.8 38.219 53.77 29.968 79.561 27.3 22.621-2.339 122.3 26.146 150.54-14.039 20.28-28.86-20.28-82.681-25.74-107.641s15.603-59.277 48.363-79.558z" fill="url(#M)"/><g clip-path="url(#N)" transform="translate(2.859 .388)" opacity=".4"><path d="M78.781 111.521c-10.141 33.168 6.239 40.189 2.69 81.529-1.006 11.712-23.739 63.96 11.746 71.761 13.249.78 25.549 1.992 25.549 1.992-25.164-16.812-11.125-44.111-11.9-76.091-.5-20.29-10.141-51.481 8.58-80.34-10.755-1.522-36.665 1.149-36.665 1.149z" fill="url(#O)"/><path d="M194.032-1.614c-25.55 36.325-58.475 90.711-61.123 130.209s2.812 52.277 1.253 68.508-8.066 60.27 8.837 70.23c12.745 5.882 21.582 5.049 21.582 5.049 10.92-10.689 21.06-42.669 3.9-75.429-10.371-19.8-9.753-47.7-5.652-74.879 5.652-37.441 43.524-93.188 58.908-107.435-13.691-5.874-27.705-16.253-27.705-16.253z" fill="url(#P)"/><path d="M261.966 47.049c-8.347-11.412-16.331-16.32-16.331-16.32-37.373 39.084-63.113 82.765-60.774 119.425 1.74 27.244 8.58 31.2 19.5 56.94s1.1 62.8-4.132 65.328c25.425-2.736 27.881-5.616 27.881-5.616 9.79-16.031 16.811-43.331-2.542-68.507-15.842-20.61-22.767-43.464-21.208-59.065s8.351-52.549 57.606-92.185z" fill="url(#Q)"/><path d="M30.421 43.217c0 23.475 21.931 77.477 27.346 94.936s10.093 40.08 1.513 62.7c-4.668 12.3-24.96 49.29 7.021 67.546a89.22 89.22 0 0 1-22.6-1.593c-33.557-29.292-10.156-57.372-5.476-78.432 4.569-20.563 7.8-35.1-5.459-61.62S9.548 59.86 9.846 56.646s20.575-13.429 20.575-13.429z" fill="url(#R)"/></g><path d="M274.301 60.061c-4.68-12.48-24.18-39.624-61.622-48.672-31.978 49.765-77.565 97.915-53.213 218.763 21.407 6.92 84.787 5.056 101.761-9.588-5.052-19.146-39.052-78.919-34.506-102.784 6.238-32.759 52.089-45.692 47.58-57.719z" fill="url(#S)"/><path d="M176.802.005c15.849 1.561 46.8 2.341 46.8 14.821-21.839 2.341-33.54 57.72-35.1 78-9.359 4.29-42.119 9.361-50.117 8.149 3.513-16.302 26.201-79.915 38.417-100.97z" fill="url(#T)"/><path d="M137.02 114.661a.84.84 0 0 1-.17-.019.78.78 0 0 1-.592-.931l3.12-14.039a.78.78 0 1 1 1.524.337l-3.12 14.041c-.08.357-.397.61-.762.611z" fill="url(#U)"/><path d="M140.14 115.441a.8.8 0 0 1-.2-.026.78.78 0 0 1-.557-.953l3.9-14.821a.78.78 0 1 1 1.51.4l-3.9 14.819a.78.78 0 0 1-.753.581z" fill="url(#V)"/><path d="M150.28 114.662a.78.78 0 0 1-.78-.78v-13.261a.78.78 0 0 1 1.559 0v13.261a.78.78 0 0 1-.779.78z" fill="url(#W)"/><path d="M154.181 114.661a.75.75 0 0 1-.123-.01.78.78 0 0 1-.65-.892l2.341-14.821a.78.78 0 1 1 1.541.243l-2.339 14.821a.78.78 0 0 1-.77.659z" fill="url(#X)"/><path d="M162.76 114.661a.78.78 0 0 1-.78-.78V97.5a.78.78 0 0 1 1.559 0v16.382a.78.78 0 0 1-.779.779z" fill="url(#Y)"/><path d="M167.441 111.541h-.048a.78.78 0 0 1-.732-.824l.78-13.26a.78.78 0 0 1 1.558.09l-.78 13.261a.78.78 0 0 1-.778.733z" fill="url(#Z)"/><path d="M173.68 111.544h-.078a.78.78 0 0 1-.7-.855l1.559-15.6a.78.78 0 1 1 1.553.157l-1.559 15.6a.78.78 0 0 1-.775.698z" fill="url(#a)"/><path d="M176.022 110.762a.79.79 0 0 1-.225-.034.78.78 0 0 1-.524-.97l4.681-15.6a.78.78 0 0 1 .971-.523.78.78 0 0 1 .523.971l-4.68 15.6a.78.78 0 0 1-.745.556z" fill="url(#b)"/><path d="M186.159 109.2a.78.78 0 0 1-.778-.74l-.78-15.6a.78.78 0 0 1 1.558-.078l.78 15.6a.78.78 0 0 1-.739.819z" fill="url(#c)"/><path d="M189.28 106.082a.78.78 0 0 1-.775-.7l-1.559-14.819a.78.78 0 0 1 1.097-.81.78.78 0 0 1 .454.647l1.559 14.821a.78.78 0 0 1-.693.856.7.7 0 0 1-.083.005z" fill="url(#d)"/><path d="M37.881 47.104c-3.747 17.335 13.963 141.278 0 179.688-12.327 2.72-20.369 2.15-27.306 0 6.406-18.341 19.582-63.77 11.782-80.15S-3.263 90.271.518 79.561c4.681-13.26 37.363-32.457 37.363-32.457z" fill="url(#e)"/><path d="M59.841 181.112c.044.007.089.008.134.005a.61.61 0 0 0 .567-.655l-.829-11.281c-.036-.329-.325-.57-.655-.546s-.581.305-.569.635l.829 11.281c.021.286.239.52.523.561z" fill="url(#f)"/><path d="M57.326 181.364a.61.61 0 0 0 .157 0c.337-.038.579-.342.541-.679l-1.347-11.976c-.038-.337-.342-.58-.679-.541s-.58.342-.542.68l1.348 11.976c.03.278.245.501.522.541z" fill="url(#g)"/><path d="M51.459 179.604c.162.025.327-.016.458-.114s.219-.243.242-.405l1.51-10.318c.049-.336-.183-.648-.519-.697s-.648.183-.697.519l-1.508 10.32c-.05.334.18.645.514.696z" fill="url(#h)"/><path d="M46.49 179.16a.61.61 0 0 0 .7-.615l-.133-11.8c-.017-.329-.29-.587-.62-.583s-.598.267-.607.597l.134 11.8c.003.303.226.558.526.601z" fill="url(#i)"/><path d="M41.747 180.119c.162.025.327-.016.458-.113s.219-.243.242-.405l1.864-12.747c.032-.217-.055-.434-.227-.57s-.403-.17-.607-.089-.349.265-.38.481l-1.864 12.747a.61.61 0 0 0 .514.695z" fill="url(#j)"/><path d="M39.432 176.189l.036.005c.337.029.634-.221.664-.558l.9-10.408c.029-.337-.221-.635-.558-.664s-.635.221-.664.558l-.9 10.408c-.028.323.201.612.522.659z" fill="url(#k)"/><path d="M36.507 176.447c.02.003.041.005.061.005.163.008.322-.049.442-.159s.192-.263.2-.425l.562-12.318c.015-.339-.246-.626-.585-.641s-.626.246-.641.585l-.562 12.318c-.014.314.212.589.523.635z" fill="url(#l)"/><path d="M30.729 173.949c.054.026.111.045.17.055.334.052.648-.177.7-.511l2-12.652c.039-.328-.188-.628-.514-.679s-.634.164-.698.487l-2 12.652c-.042.268.097.531.342.648z" fill="url(#m)"/><path d="M66.819 38.221s-29.551 3.817-33.54 9.36c-28.08 17.941.165 92.361-1.478 113.65 4.515 6.7 27.217 9.591 28 8.03-.782-26.519-23.401-110.76 7.018-131.04z" fill="url(#n)"/><ellipse cx="4.089" cy="4.721" rx="4.089" ry="4.721" transform="matrix(.935432 -.353507 .353507 .935432 163.585 216.167)" fill="url(#o)"/><ellipse cx="4.089" cy="3.814" rx="4.089" ry="3.814" transform="matrix(.935432 -.353507 .353507 .935432 160.327 120.365)" fill="url(#p)"/><ellipse cx="4.089" cy="3.814" rx="4.089" ry="3.814" transform="matrix(.935432 -.353507 .353507 .935432 156.427 153.905)" fill="url(#q)"/><ellipse cx="4.089" cy="3.814" rx="4.089" ry="3.814" transform="matrix(.935432 -.353507 .353507 .935432 157.207 189.785)" fill="url(#r)"/></g></g></svg>
