<svg xmlns="http://www.w3.org/2000/svg" xmlns:xlink="http://www.w3.org/1999/xlink" viewBox="0 0 171.51 446"><defs><style>.cls-1,.cls-12{fill:none;}.cls-2{fill:url(#Безымянный_градиент_1939);}.cls-3{fill:url(#Безымянный_градиент_57);}.cls-4{fill:url(#Безымянный_градиент_139);}.cls-5{fill:url(#Безымянный_градиент_159);}.cls-6{fill:url(#Безымянный_градиент_58);}.cls-7{fill:url(#Безымянный_градиент_159-2);}.cls-8{fill:url(#Безымянный_градиент_139-2);}.cls-9{fill:url(#Безымянный_градиент_1924);}.cls-10{fill:url(#Новый_образец_градиента_копия_2);}.cls-11{fill:url(#Безымянный_градиент_18);}.cls-12{stroke:#283547;stroke-linecap:round;stroke-linejoin:round;stroke-width:1.47px;}.cls-13{fill:url(#Новый_образец_градиента_копия_7);}.cls-14{fill:url(#Новый_образец_градиента_копия);}.cls-15{fill:url(#Новый_образец_градиента_копия-2);}.cls-16{fill:#cf5555;}.cls-17{fill:url(#Безымянный_градиент_1924-2);}.cls-18{fill:url(#Новый_образец_градиента_копия_2-2);}.cls-19{fill:url(#Безымянный_градиент_18-2);}.cls-20{fill:url(#Безымянный_градиент_973);}.cls-21{fill:#a2aaae;}.cls-22{fill:#a9bcca;}.cls-23{fill:#d23c3e;}.cls-24{fill:url(#Безымянный_градиент_598);}.cls-25{fill:url(#Безымянный_градиент_492);}.cls-26{fill:url(#Безымянный_градиент_600);}.cls-27{fill:url(#Безымянный_градиент_139-3);}.cls-28{clip-path:url(#clip-path);}.cls-29{opacity:0.4;}.cls-30{fill:#211c20;}.cls-31{fill:url(#Безымянный_градиент_139-4);}.cls-32{fill:url(#Безымянный_градиент_139-5);}.cls-33{fill:url(#Безымянный_градиент_139-6);}.cls-34{fill:url(#Безымянный_градиент_1939-2);}.cls-35{fill:url(#Безымянный_градиент_1939-3);}.cls-36{fill:url(#Безымянный_градиент_1939-4);}.cls-37{fill:url(#Безымянный_градиент_1939-5);}.cls-38{fill:url(#Новый_образец_градиента_копия_7-2);}.cls-39{fill:url(#Безымянный_градиент_139-7);}.cls-40{fill:url(#Безымянный_градиент_139-8);}.cls-41{fill:url(#Безымянный_градиент_159-3);}.cls-42{fill:url(#Безымянный_градиент_159-4);}.cls-43{fill:url(#Безымянный_градиент_159-5);}</style><linearGradient id="Безымянный_градиент_1939" x1="86.48" y1="-0.57" x2="83.48" y2="50.28" gradientUnits="userSpaceOnUse"><stop offset="0" stop-color="#ffd63c"/><stop offset="1" stop-color="#d38527"/></linearGradient><linearGradient id="Безымянный_градиент_57" x1="82.31" y1="52.52" x2="86.47" y2="16.67" gradientUnits="userSpaceOnUse"><stop offset="0.63" stop-color="#fac38f"/><stop offset="0.96" stop-color="#faa96c"/></linearGradient><linearGradient id="Безымянный_градиент_139" x1="35.78" y1="31" x2="50.9" y2="117.7" gradientUnits="userSpaceOnUse"><stop offset="0" stop-color="#ab8faf"/><stop offset="1" stop-color="#374b6b"/></linearGradient><linearGradient id="Безымянный_градиент_159" x1="44.01" y1="158.89" x2="49.01" y2="250.58" gradientUnits="userSpaceOnUse"><stop offset="0.64" stop-color="#ffd7a5"/><stop offset="1" stop-color="#faa96c"/></linearGradient><linearGradient id="Безымянный_градиент_58" x1="56.77" y1="158.19" x2="61.78" y2="249.89" gradientUnits="userSpaceOnUse"><stop offset="0.77" stop-color="#fac38f"/><stop offset="1" stop-color="#faa96c"/></linearGradient><linearGradient id="Безымянный_градиент_159-2" x1="48.58" y1="158.64" x2="53.58" y2="250.33" xlink:href="#Безымянный_градиент_159"/><linearGradient id="Безымянный_градиент_139-2" x1="38.85" y1="129.19" x2="39" y2="169.88" xlink:href="#Безымянный_градиент_139"/><linearGradient id="Безымянный_градиент_1924" x1="71.27" y1="119.4" x2="82.73" y2="371.51" gradientUnits="userSpaceOnUse"><stop offset="0" stop-color="#e75555"/><stop offset="1" stop-color="#a64444"/></linearGradient><linearGradient id="Новый_образец_градиента_копия_2" x1="23.39" y1="429.7" x2="68.9" y2="442.53" gradientUnits="userSpaceOnUse"><stop offset="0" stop-color="#5d7d91"/><stop offset="1" stop-color="#374b6b"/></linearGradient><linearGradient id="Безымянный_градиент_18" x1="14.8" y1="424.44" x2="17.97" y2="451.78" gradientUnits="userSpaceOnUse"><stop offset="0" stop-color="#fff5f5"/><stop offset="1" stop-color="#c6d9db"/></linearGradient><linearGradient id="Новый_образец_градиента_копия_7" x1="120.14" y1="24.3" x2="119.62" y2="40.17" gradientUnits="userSpaceOnUse"><stop offset="0" stop-color="#cf5555"/><stop offset="1" stop-color="#a64444"/></linearGradient><linearGradient id="Новый_образец_градиента_копия" x1="-122.45" y1="-239.18" x2="-124.06" y2="-190.17" gradientTransform="translate(299.97 329.81) rotate(-3.8)" gradientUnits="userSpaceOnUse"><stop offset="0" stop-color="#faa478"/><stop offset="1" stop-color="#f7694d"/></linearGradient><linearGradient id="Новый_образец_градиента_копия-2" x1="134.08" y1="34.3" x2="130.08" y2="156.12" gradientTransform="matrix(1, 0, 0, 1, 0, 0)" xlink:href="#Новый_образец_градиента_копия"/><linearGradient id="Безымянный_градиент_1924-2" x1="98.38" y1="186.45" x2="151.9" y2="472.54" xlink:href="#Безымянный_градиент_1924"/><linearGradient id="Новый_образец_градиента_копия_2-2" x1="118.07" y1="429.7" x2="163.59" y2="442.53" xlink:href="#Новый_образец_градиента_копия_2"/><linearGradient id="Безымянный_градиент_18-2" x1="109.49" y1="424.44" x2="112.66" y2="451.78" xlink:href="#Безымянный_градиент_18"/><linearGradient id="Безымянный_градиент_973" x1="-644.08" y1="-96.95" x2="-641.2" y2="-33.9" gradientTransform="translate(429.01 -431.57) rotate(-58.01)" gradientUnits="userSpaceOnUse"><stop offset="0" stop-color="#fff5f5"/><stop offset="1" stop-color="#c6d9db"/></linearGradient><linearGradient id="Безымянный_градиент_598" x1="-644.04" y1="-95.32" x2="-641.84" y2="-47.06" gradientTransform="translate(673.81 145.51)" gradientUnits="userSpaceOnUse"><stop offset="0" stop-color="#ddf5f5" stop-opacity="0"/><stop offset="1" stop-color="#fafff5" stop-opacity="0.4"/></linearGradient><linearGradient id="Безымянный_градиент_492" x1="-644.53" y1="-26.11" x2="-641.22" y2="-21.73" gradientTransform="translate(429.01 -431.57) rotate(-58.01)" xlink:href="#Новый_образец_градиента_копия_2"/><linearGradient id="Безымянный_градиент_600" x1="-648.04" y1="-98.29" x2="-642.77" y2="-91.32" gradientTransform="translate(650.6 -39.96) rotate(-17.64)" gradientUnits="userSpaceOnUse"><stop offset="0" stop-color="#ddf5f5" stop-opacity="0"/><stop offset="1" stop-color="#faffff" stop-opacity="0.5"/></linearGradient><linearGradient id="Безымянный_градиент_139-3" x1="92.54" y1="26.76" x2="87.54" y2="173.15" xlink:href="#Безымянный_градиент_139"/><clipPath id="clip-path"><path class="cls-1" d="M96.16,23.51c4.69,2.5,33.3,18.93,34,27.42S122.93,98.6,121,111.66s2,73.14,2,73.14c-16.32,11.75-65.3,3.92-71.17-9.14-1.31-25.47-.66-120.81,3.92-128S73.34,28.18,73.34,28.18C68.73,53.55,88.32,46.36,96.16,23.51Z"/></clipPath><linearGradient id="Безымянный_градиент_139-4" x1="79.69" y1="26.32" x2="74.69" y2="172.71" xlink:href="#Безымянный_градиент_139"/><linearGradient id="Безымянный_градиент_139-5" x1="89.96" y1="9" x2="89.96" y2="18.12" xlink:href="#Безымянный_градиент_139"/><linearGradient id="Безымянный_градиент_139-6" x1="71.79" y1="9" x2="71.79" y2="18.12" xlink:href="#Безымянный_градиент_139"/><linearGradient id="Безымянный_градиент_1939-2" x1="111.25" y1="35.47" x2="106.8" y2="156.39" xlink:href="#Безымянный_градиент_1939"/><linearGradient id="Безымянный_градиент_1939-3" x1="60.22" y1="33.59" x2="55.78" y2="154.52" xlink:href="#Безымянный_градиент_1939"/><linearGradient id="Безымянный_градиент_1939-4" x1="65.87" y1="-1.78" x2="62.86" y2="49.07" xlink:href="#Безымянный_градиент_1939"/><linearGradient id="Безымянный_градиент_1939-5" x1="105.57" y1="0.56" x2="102.57" y2="51.41" xlink:href="#Безымянный_градиент_1939"/><linearGradient id="Новый_образец_градиента_копия_7-2" x1="121.79" y1="31.96" x2="117.87" y2="151.41" xlink:href="#Новый_образец_градиента_копия_7"/><linearGradient id="Безымянный_градиент_139-7" x1="132.73" y1="14.72" x2="133.4" y2="199.65" xlink:href="#Безымянный_градиент_139"/><linearGradient id="Безымянный_градиент_139-8" x1="141.8" y1="131.63" x2="141.93" y2="168.09" xlink:href="#Безымянный_градиент_139"/><linearGradient id="Безымянный_градиент_159-3" x1="-842" y1="-1229.94" x2="-852.01" y2="-1266.29" gradientTransform="translate(1238.59 1105.97) rotate(-14.3)" xlink:href="#Безымянный_градиент_159"/><linearGradient id="Безымянный_градиент_159-4" x1="-850.57" y1="-1227.58" x2="-860.57" y2="-1263.93" gradientTransform="translate(1238.59 1105.97) rotate(-14.3)" xlink:href="#Безымянный_градиент_159"/><linearGradient id="Безымянный_градиент_159-5" x1="134.6" y1="162.26" x2="90.75" y2="95.4" xlink:href="#Безымянный_градиент_159"/></defs><g id="Слой_2" data-name="Слой 2"><g id="Слой_2-2" data-name="Слой 2"><path class="cls-2" d="M65.32,39,63.15,24.73c4.28-8.41,29.06-21.12,44.1-7.25-1.93,4.87-2.09,15.29-2.09,15.29Z"/><path class="cls-3" d="M100.3,0c-1.53,4.57-6.1,22.2-6.75,35.91C91.26,49.82,76,53.05,73,45.46s3.74-34.23,3.74-34.23Z"/><path class="cls-4" d="M55,48.32C39,65.54,36.09,111,36.09,146.92s16.32,24.17,17,5.23,4.26-64.7,5.23-69.87C60.25,71.83,64.16,38.53,55,48.32Z"/><path class="cls-5" d="M36.08,156.91c-.53,8.2,7.85,46.63,12.07,59.83s7.84,8.6,6.64-4.59-4.5-46.81-5.27-55.24S36.69,147.56,36.08,156.91Z"/><path class="cls-6" d="M63.15,228c-.52-2-7.3,5.5-4.37,13.8C60.68,241.32,65.84,238.14,63.15,228Z"/><path class="cls-7" d="M57.75,218c5.16,6.43,6.41,12.39,4.33,15s-2.73,15.62-6.74,15.11c-5.63-.7-7.52-6.13-7.52-6.13-1,1.66-5.2-2.16-5.46-4.5s-.78-10.69.17-13.45,7.16-11.22,8.28-11.57C52.93,211.82,56.36,216.28,57.75,218Z"/><path class="cls-8" d="M52.41,164.56c-6.53.65-17-.66-18.28-2-3.27-2-11.34-25.47-11.34-25.47,6.77-2.61,27,12.41,32.23,12.41C54.37,154.11,52.41,164.56,52.41,164.56Z"/><path class="cls-9" d="M52.51,166.84c-2.06,25.79,5.52,136.57,7,151.38S62.37,429.67,61,438.81c2.45,3.92,7.16,0,7.16,0,2.55-16.28,21.87-82.61,22.8-90.72s-2-21.55-5.88-27.43c2.61-26.77,11.1-129.29,13.71-141.7C83.75,161.29,52.51,166.84,52.51,166.84Z"/><path class="cls-10" d="M75.26,436.2l1.56,9.8H27.47l-6.4-16.33c9.79,3.27,36.56,9.8,37.87,9.8a98.76,98.76,0,0,1-2.61-12.41c5.87-3.92,8.14,0,9.14.65-.61,4.57.65,11.76.65,11.76A13.52,13.52,0,0,1,75.26,436.2Z"/><path class="cls-11" d="M31.47,446H3.13c1-11.76,10.1-15.68,17.94-16.33C29.56,434.9,31.47,446,31.47,446Z"/><path class="cls-12" d="M59.47,439.64c.41-23.78-16-21.23-1.18-.74-10.74-9.89-20-.95-.89.44"/><path class="cls-13" d="M132,40.76c-.62-17.25-2.66-14.64-14.33-15.95s-9.16,2.73-10.46,13.12c3.29,3.15,5.89.89,5.89.89C113.79,32,110.6,26,120.36,27s6.55,12.67,6.55,12.67Z"/><path class="cls-14" d="M155.32,101.12c6.49-.74,13.35-.63,13.47,3.54S170.4,141,168,143.85,158.5,149,158.5,149Z"/><path class="cls-15" d="M106.61,39.18c3.78-5.2,52.24,1.24,52.24,11.39s6.53,96.35,1.3,102.23-57.66,6.26-59.85-.13S101.38,46.36,106.61,39.18Z"/><path class="cls-16" d="M142.89,149.08a36.33,36.33,0,0,1-3.71-.2.66.66,0,0,1-.57-.73.65.65,0,0,1,.72-.57c2.58.3,10.13.55,11.07-2.17,1.45-4.22-.91-65.1-1.68-85.1-.2-5.16-.32-8.27-.32-8.76,0-1.78-4.61-4.43-13.17-5.85a.65.65,0,0,1-.53-.75.66.66,0,0,1,.75-.54C142,45.5,149.7,48,149.7,51.55c0,.46.13,3.74.32,8.71,1.46,37.77,3,81.63,1.61,85.57C150.69,148.55,146.23,149.08,142.89,149.08Z"/><path class="cls-17" d="M121,180.23c5.88,11.75,20.9,63.34,30,131.25,8.39,8.16,13.06,15,12.41,30.69s-4.35,75.75,1.42,96.64a8.71,8.71,0,0,1-9.26,2.62c-7.18-43.1-23.47-105.82-28.08-120.16s-27.42-96.64-45-99.9c-13.06-4.58-23.11-38.24-23-44.59S121,180.23,121,180.23Z"/><path class="cls-18" d="M170,436.2l1.56,9.8H122.16l-6.41-16.33c9.8,3.27,36.57,9.8,37.87,9.8A101,101,0,0,1,151,427.06c5.88-3.92,8.14,0,9.14.65-.61,4.57.66,11.76.66,11.76A13.49,13.49,0,0,1,170,436.2Z"/><path class="cls-19" d="M126.16,446H97.81c1-11.76,10.1-15.68,17.94-16.33C124.24,434.9,126.16,446,126.16,446Z"/><path class="cls-12" d="M154.16,439.64c.41-23.78-16.06-21.23-1.19-.74-10.73-9.89-20-.95-.89.44"/><path class="cls-20" d="M3.31,70.36l45,28.12A10.51,10.51,0,0,0,56,99.87l1.68-.34a7.05,7.05,0,0,1,5.11.93L68.47,104a2.46,2.46,0,0,0,3.39-.78h0a2.46,2.46,0,0,0-.78-3.39L65.4,96.29a7.07,7.07,0,0,1-3.08-4.18l-.43-1.66a10.52,10.52,0,0,0-4.62-6.28l-45-28.12a7,7,0,0,0-9.68,2.24L1.07,60.67A7,7,0,0,0,3.31,70.36Z"/><path class="cls-21" d="M55.61,88.11l-4.46,7.15a.35.35,0,0,1-.49.11.35.35,0,0,1-.11-.48L55,87.74a.35.35,0,1,1,.59.37Z"/><path class="cls-21" d="M48.46,83.64,44,90.79a.35.35,0,1,1-.59-.37l4.46-7.15a.35.35,0,0,1,.49-.11A.35.35,0,0,1,48.46,83.64Z"/><path class="cls-21" d="M41.31,79.17l-4.47,7.16a.36.36,0,0,1-.6-.38l4.47-7.15a.35.35,0,0,1,.49-.11A.35.35,0,0,1,41.31,79.17Z"/><path class="cls-21" d="M34.15,74.7l-4.46,7.16a.37.37,0,0,1-.49.11.35.35,0,0,1-.11-.48l4.47-7.16a.35.35,0,0,1,.48-.11A.34.34,0,0,1,34.15,74.7Z"/><path class="cls-21" d="M27,70.24l-4.47,7.15a.35.35,0,0,1-.48.11.35.35,0,0,1-.12-.48l4.47-7.16a.36.36,0,1,1,.6.38Z"/><path class="cls-21" d="M19.84,65.77l-4.46,7.15a.35.35,0,0,1-.49.11.35.35,0,0,1-.11-.48l4.47-7.15a.35.35,0,1,1,.59.37Z"/><path class="cls-21" d="M12.69,61.3,8.22,68.45a.35.35,0,1,1-.59-.37l4.46-7.15a.35.35,0,0,1,.49-.11A.35.35,0,0,1,12.69,61.3Z"/><rect class="cls-22" x="36.03" y="47.11" width="2.81" height="69.23" rx="1.41" transform="translate(-51.71 70.18) rotate(-58.01)"/><rect class="cls-23" x="44.97" y="61.48" width="2.81" height="51.66" rx="1.21" transform="matrix(0.53, -0.85, 0.85, 0.53, -52.24, 80.4)"/><rect class="cls-24" x="25.4" y="46.09" width="11.25" height="63.26" rx="5.62" transform="translate(-51.33 62.87) rotate(-58.01)"/><path class="cls-25" d="M67.5,97.6l3.58,2.24a2.46,2.46,0,0,1,.78,3.39h0a2.46,2.46,0,0,1-3.39.78l-3.57-2.23"/><ellipse class="cls-26" cx="7.22" cy="65.59" rx="5.24" ry="6.83" transform="translate(-40.77 20.3) rotate(-40.37)"/><path class="cls-27" d="M96.16,23.51c4.69,2.5,33.3,18.93,34,27.42S122.93,98.6,121,111.66s2,73.14,2,73.14c-16.32,11.75-65.3,3.92-71.17-9.14-1.31-25.47-.66-120.81,3.92-128S73.34,28.18,73.34,28.18C68.73,53.55,88.32,46.36,96.16,23.51Z"/><g class="cls-28"><g class="cls-29"><path class="cls-30" d="M86.66,194.3c-1.28-33.48-.21-113.22,13-175.42l6.38,1.35C93,81.8,91.92,160.85,93.18,194.05Z"/><path class="cls-30" d="M103.73,192.1C100.92,156.26,110,71.51,115.12,31.7l6.47.84c-5.14,39.58-14.12,123.75-11.35,159.05Z"/><path class="cls-30" d="M69.06,190.7c-1-22.82,4.19-132.45,8.2-160.7l6.46.91c-3.85,27.2-9.1,137.49-8.13,159.51Z"/><path class="cls-30" d="M56.64,188c-3-17,.23-144.43,3-158.19l6.4,1.29C63.43,44,60.25,171,63.07,186.86Z"/><path class="cls-30" d="M38.77,80.75,36,74.86c12-5.73,88.83-8.81,110.4-2.87l-1.74,6.29c-9.12-2.51-30.91-3.56-56.86-2.73C61,76.4,42.83,78.81,38.77,80.75Z"/><path class="cls-30" d="M44.55,56.81l-2.53-6c14.06-5.9,82.4-6.1,98.16-2.58l-1.43,6.37C123,51.06,56.33,51.86,44.55,56.81Z"/><path class="cls-30" d="M31.3,104.94l-2.18-6.15c20.85-7.4,95.12-8.25,119.2-4.2L147.23,101C124.3,97.18,51,98,31.3,104.94Z"/><path class="cls-30" d="M34.43,131.76l-1.92-6.24c27.83-8.56,96-4.91,119.85-2.77l-.58,6.5C119.05,126.33,58.25,124.43,34.43,131.76Z"/><path class="cls-30" d="M164.47,154.23c-25.53-2.39-132.9-1.7-139.77-.28l-1.32-6.4c8.56-1.77,117.13-2.12,141.69.17Z"/><path class="cls-30" d="M131.72,178.5c-7.78-3.88-82.8-6.76-104-6.76v-6.53c7.13,0,96,2,106.89,7.44Z"/></g></g><path class="cls-31" d="M83.1,37.87a30.85,30.85,0,0,0-4.57,6.32C77.22,40.7,76,37.87,76,37.87c-5.28-2-6.61,1.53-3.33,6.32S85.06,46.36,87,43.1,85.06,37.87,83.1,37.87Z"/><path class="cls-32" d="M95.43,20.48s1.38,1.58,1.38,2.37c0,10.45-5.22,20.9-5.87,22.21-3.27-5.23-5.23-6.53-7.84-7.19C86.37,36.57,90.94,35.26,95.43,20.48Z"/><path class="cls-33" d="M73.76,25.57l-2.41,3.16c-2.62,4.57-4.57,10.45-3.27,16.33,2.61-5.23,4.57-6.53,7.84-7.19C73.31,34.61,72.65,30.69,73.76,25.57Z"/><path class="cls-34" d="M105.9,25.57c8.54,13.61,23.56,16.87,23.56,23.4-3.91-3.91-11.15-.08-13.71,25.47-1.31,13.06-2,39.24,7.18,36.6-.65,6.47,4.44,61.28,1.24,63.6s-30.62,4.5-34.21,1.45S88.86,38.08,105.9,25.57Z"/><path class="cls-35" d="M67.67,33.75c-4.4,18-3.58,135.67-6.77,136.68s-11.14-2.69-11.75-7.18S50.45,52.89,55,45.06C57.53,40.76,64,31.58,67.67,33.75Z"/><path class="cls-36" d="M65.68,53s-6.09-14.49-6.74-18.41S62.58,25.09,64.35,23c1.58,2.34,4.39,9.68,4.39,9.68C66.78,37.87,65.89,51.18,65.68,53Z"/><path class="cls-37" d="M96,52.44c6.22-6.93,11.15-11.36,12.58-13.26,2-2.61,3.23-17.94-1.32-21.7s-8.48,7.33-8.48,7.33C101.38,26.12,96.52,50.54,96,52.44Z"/><path class="cls-38" d="M139.26,45.06l-7.18-1.31c-9.8-5.22-15-8.49-17-8.49-6.6,0-50.28,145,25.46,113-2.61-1.31-7.46-1.39-7.46-1.39C90.28,155.41,112.49,62,121,39.83,126.2,43.1,134,48.32,139.26,45.06Z"/><path class="cls-39" d="M130.12,50.28c5.29,6.47,17,56.81,16.32,110.36-.38,31.45-17.63,7.83-18.28-3.27-1-16.5-5.23-64.64-7.84-74.44S124.24,43.1,130.12,50.28Z"/><path class="cls-40" d="M126.85,157.37c-2.61-7.18-2-17.63-2-17.63,8.49,4.57,22.2-6.53,34,2-4.23,9.14-7.81,21.2-10.45,21.55S138,164.56,126.85,157.37Z"/><path class="cls-41" d="M108.45,111.77c-1.24,1.81-5.35-8.1.54-15.36C110.73,97.53,114.76,102.56,108.45,111.77Z"/><path class="cls-42" d="M112.65,118.65c1.64-8.6-.15-14.82-3.4-16.23S98.9,89.13,95.39,91.6c-4.92,3.46-4,9.5-4,9.5-1.76-1.06-3.8,4.61-2.88,6.94s4.59,10.42,6.85,12.54,12.31,7,13.53,6.73C111.21,126.87,112.21,121,112.65,118.65Z"/><path class="cls-43" d="M135.06,174.35c-6.87-6.41-23.88-32-29.76-48.32s4.23-7.18,8.64,0,27.28,28.08,31.2,39.18S140.65,179.57,135.06,174.35Z"/></g></g></svg>