<svg xmlns="http://www.w3.org/2000/svg" xmlns:xlink="http://www.w3.org/1999/xlink" viewBox="0 0 279.84 408.79"><defs><style>.cls-1{fill:url(#Безымянный_градиент_1231);}.cls-2{fill:url(#Новый_образец_градиента_копия_2);}.cls-3{fill:url(#Безымянный_градиент_948);}.cls-4{fill:url(#Безымянный_градиент_786);}.cls-5{fill:url(#Новый_образец_градиента_копия_2-2);}.cls-6{fill:url(#Безымянный_градиент_948-2);}.cls-7{fill:url(#Безымянный_градиент_786-2);}.cls-8{fill:url(#Безымянный_градиент_873);}.cls-9{fill:url(#Безымянный_градиент_783);}.cls-10{fill:url(#Безымянный_градиент_159);}.cls-11{fill:url(#Безымянный_градиент_1231-2);}.cls-12{fill:url(#Безымянный_градиент_1231-3);}.cls-13{fill:url(#Безымянный_градиент_913);}.cls-14{fill:url(#Безымянный_градиент_3070);}.cls-15{fill:url(#Безымянный_градиент_3070-2);}.cls-16{fill:url(#Безымянный_градиент_3070-3);}.cls-17{fill:#a2b2bc;}.cls-18{fill:url(#Безымянный_градиент_1198);}.cls-19{fill:url(#Безымянный_градиент_25);}.cls-20{fill:url(#Безымянный_градиент_911);}.cls-21,.cls-30,.cls-31{opacity:0.5;}.cls-21{fill:url(#Безымянный_градиент_911-2);}.cls-22{fill:none;stroke:#283547;stroke-miterlimit:10;stroke-width:1.37px;}.cls-23{fill:url(#Новый_образец_градиента_копия_3);}.cls-24{fill:url(#Безымянный_градиент_3);}.cls-25{fill:url(#Безымянный_градиент_3-2);}.cls-26{fill:url(#Новый_образец_градиента_копия_2-3);}.cls-27{fill:url(#Новый_образец_градиента_копия_3-2);}.cls-28{fill:url(#Новый_образец_градиента_копия_3-3);}.cls-29{fill:url(#Новый_образец_градиента_копия_3-4);}.cls-30{fill:url(#Безымянный_градиент_911-3);}.cls-31{fill:url(#Безымянный_градиент_911-4);}.cls-32{fill:url(#Безымянный_градиент_948-3);}.cls-33{fill:url(#Безымянный_градиент_948-4);}.cls-34{fill:#0d131b;}.cls-35{fill:url(#Безымянный_градиент_948-5);}.cls-36{fill:url(#Безымянный_градиент_32);}.cls-37{fill:url(#Безымянный_градиент_32-2);}.cls-38{fill:url(#Безымянный_градиент_1226);}.cls-39{fill:url(#Безымянный_градиент_1226-2);}.cls-40{fill:url(#Безымянный_градиент_1226-3);}.cls-41{fill:url(#Безымянный_градиент_1226-4);}.cls-42{fill:url(#Безымянный_градиент_1226-5);}.cls-43{fill:url(#Безымянный_градиент_1226-6);}.cls-44{fill:url(#Новый_образец_градиента_копия_2-4);}.cls-45{fill:url(#Безымянный_градиент_833);}.cls-46{fill:#a2aaae;}.cls-47{fill:#a9bcca;}.cls-48{fill:#d23c3e;}.cls-49{fill:url(#Безымянный_градиент_598);}.cls-50{fill:url(#Безымянный_градиент_492);}.cls-51{fill:url(#Безымянный_градиент_600);}.cls-52{fill:url(#Безымянный_градиент_159-2);}.cls-53{fill:url(#Безымянный_градиент_159-3);}.cls-54{fill:url(#Безымянный_градиент_1231-4);}.cls-55{fill:url(#Безымянный_градиент_1231-5);}.cls-56{fill:url(#Безымянный_градиент_914);}.cls-57{fill:url(#Безымянный_градиент_1231-6);}.cls-58{fill:url(#Безымянный_градиент_1231-7);}.cls-59{fill:url(#Безымянный_градиент_1231-8);}.cls-60{fill:url(#Безымянный_градиент_1231-9);}.cls-61{fill:url(#Безымянный_градиент_1231-10);}.cls-62{fill:url(#Безымянный_градиент_1231-11);}.cls-63{fill:url(#Новый_образец_градиента_копия_2-5);}</style><linearGradient id="Безымянный_градиент_1231" x1="125.25" y1="28.76" x2="129.05" y2="58.68" gradientUnits="userSpaceOnUse"><stop offset="0" stop-color="#c3d7f0"/><stop offset="1" stop-color="#8d99a7"/></linearGradient><linearGradient id="Новый_образец_градиента_копия_2" x1="112.21" y1="390.93" x2="119.97" y2="390.93" gradientUnits="userSpaceOnUse"><stop offset="0" stop-color="#5d7d91"/><stop offset="1" stop-color="#374b6b"/></linearGradient><linearGradient id="Безымянный_градиент_948" x1="78.35" y1="399.62" x2="120.27" y2="401.73" gradientUnits="userSpaceOnUse"><stop offset="0" stop-color="#535757"/><stop offset="1" stop-color="#0d131b"/></linearGradient><linearGradient id="Безымянный_градиент_786" x1="103.03" y1="201.6" x2="122.07" y2="368.01" gradientUnits="userSpaceOnUse"><stop offset="0.22" stop-color="#694538"/><stop offset="1" stop-color="#1c1007"/></linearGradient><linearGradient id="Новый_образец_градиента_копия_2-2" x1="174.05" y1="390.93" x2="181.81" y2="390.93" xlink:href="#Новый_образец_градиента_копия_2"/><linearGradient id="Безымянный_градиент_948-2" x1="140.18" y1="399.62" x2="182.11" y2="401.73" xlink:href="#Безымянный_градиент_948"/><linearGradient id="Безымянный_градиент_786-2" x1="141.12" y1="204" x2="187.59" y2="512.59" xlink:href="#Безымянный_градиент_786"/><linearGradient id="Безымянный_градиент_873" x1="134.99" y1="97.8" x2="138.74" y2="20.47" gradientUnits="userSpaceOnUse"><stop offset="0.37" stop-color="#fabb80"/><stop offset="0.83" stop-color="#faa16c"/></linearGradient><linearGradient id="Безымянный_градиент_783" x1="3180.33" y1="-286.74" x2="3175.18" y2="-276.32" gradientTransform="matrix(-1.12, 0.43, 0.36, 0.93, 3747.25, -852.89)" gradientUnits="userSpaceOnUse"><stop offset="0.46" stop-color="#fabb80"/><stop offset="1" stop-color="#faa16c"/></linearGradient><linearGradient id="Безымянный_градиент_159" x1="3185.74" y1="-288.71" x2="3186.16" y2="-306.87" gradientTransform="matrix(-1.12, 0.43, 0.36, 0.93, 3747.25, -852.89)" gradientUnits="userSpaceOnUse"><stop offset="0.64" stop-color="#ffd7a5"/><stop offset="1" stop-color="#faa96c"/></linearGradient><linearGradient id="Безымянный_градиент_1231-2" x1="60.28" y1="375.04" x2="60.28" y2="66.94" xlink:href="#Безымянный_градиент_1231"/><linearGradient id="Безымянный_градиент_1231-3" x1="58.69" y1="375.04" x2="58.69" y2="66.94" xlink:href="#Безымянный_градиент_1231"/><linearGradient id="Безымянный_градиент_913" x1="103.73" y1="232.49" x2="52.72" y2="275.39" gradientUnits="userSpaceOnUse"><stop offset="0.35" stop-color="#694538"/><stop offset="1" stop-color="#1c1007"/></linearGradient><linearGradient id="Безымянный_градиент_3070" x1="3144.97" y1="-31.65" x2="3144.97" y2="61.85" gradientTransform="translate(-2528.47 1808.63) rotate(-28.99)" gradientUnits="userSpaceOnUse"><stop offset="0" stop-color="#5d7d91"/><stop offset="1" stop-color="#170f1f"/></linearGradient><linearGradient id="Безымянный_градиент_3070-2" x1="1202.26" y1="-3.42" x2="1201.51" y2="50.87" gradientTransform="matrix(-0.87, 0.48, 0.48, 0.87, 1273.93, -298.07)" xlink:href="#Безымянный_градиент_3070"/><linearGradient id="Безымянный_градиент_3070-3" x1="3144.86" y1="7.83" x2="3145.06" y2="21.7" gradientTransform="translate(-2915.09 282.56)" xlink:href="#Безымянный_градиент_3070"/><linearGradient id="Безымянный_градиент_1198" x1="91.9" y1="19.37" x2="196.07" y2="231.13" gradientUnits="userSpaceOnUse"><stop offset="0" stop-color="#b3e571"/><stop offset="0.99" stop-color="#4b8b41"/></linearGradient><radialGradient id="Безымянный_градиент_25" cx="131.52" cy="222.19" r="40.39" xlink:href="#Безымянный_градиент_948"/><linearGradient id="Безымянный_градиент_911" x1="102.22" y1="83.92" x2="143.27" y2="36.73" gradientUnits="userSpaceOnUse"><stop offset="0" stop-color="#7b885d"/><stop offset="0.99" stop-color="#556f43"/></linearGradient><linearGradient id="Безымянный_градиент_911-2" x1="112.65" y1="101.98" x2="105.81" y2="209.86" xlink:href="#Безымянный_градиент_911"/><linearGradient id="Новый_образец_градиента_копия_3" x1="110.98" y1="131.84" x2="109.57" y2="156.05" gradientUnits="userSpaceOnUse"><stop offset="0" stop-color="#ddf5f5"/><stop offset="1" stop-color="#c6d9db"/></linearGradient><linearGradient id="Безымянный_градиент_3" x1="94.71" y1="139.23" x2="124.97" y2="143.79" gradientUnits="userSpaceOnUse"><stop offset="0.33" stop-color="#faf8eb"/><stop offset="0.57" stop-color="#f3efde"/><stop offset="0.96" stop-color="#e3dac1"/></linearGradient><linearGradient id="Безымянный_градиент_3-2" x1="97.36" y1="142.76" x2="100.46" y2="157.43" xlink:href="#Безымянный_градиент_3"/><linearGradient id="Новый_образец_градиента_копия_2-3" x1="109.86" y1="140.42" x2="110.97" y2="132.76" xlink:href="#Новый_образец_градиента_копия_2"/><linearGradient id="Новый_образец_градиента_копия_3-2" x1="147.61" y1="49.53" x2="154.58" y2="66.74" xlink:href="#Новый_образец_градиента_копия_3"/><linearGradient id="Новый_образец_градиента_копия_3-3" x1="110.66" y1="52.13" x2="99.88" y2="64.87" xlink:href="#Новый_образец_градиента_копия_3"/><linearGradient id="Новый_образец_градиента_копия_3-4" x1="128.03" y1="65.51" x2="127.16" y2="76.3" xlink:href="#Новый_образец_градиента_копия_3"/><linearGradient id="Безымянный_градиент_911-3" x1="151.41" y1="104.44" x2="144.57" y2="212.32" xlink:href="#Безымянный_градиент_911"/><linearGradient id="Безымянный_градиент_911-4" x1="78.22" y1="99.8" x2="71.38" y2="207.68" xlink:href="#Безымянный_градиент_911"/><linearGradient id="Безымянный_градиент_948-3" x1="128.66" y1="205.07" x2="128.82" y2="251.42" xlink:href="#Безымянный_градиент_948"/><linearGradient id="Безымянный_градиент_948-4" x1="129.44" y1="226.9" x2="127.6" y2="207.39" xlink:href="#Безымянный_градиент_948"/><linearGradient id="Безымянный_градиент_948-5" x1="128.68" y1="217.67" x2="127.85" y2="250.6" xlink:href="#Безымянный_градиент_948"/><linearGradient id="Безымянный_градиент_32" x1="109.9" y1="220.14" x2="147.16" y2="220.14" gradientUnits="userSpaceOnUse"><stop offset="0" stop-color="#9799a1"/><stop offset="1" stop-color="#c6d9db"/></linearGradient><linearGradient id="Безымянный_градиент_32-2" x1="146.44" y1="230" x2="146.27" y2="218.89" xlink:href="#Безымянный_градиент_32"/><linearGradient id="Безымянный_градиент_1226" x1="186.51" y1="37.78" x2="231.19" y2="115.15" gradientUnits="userSpaceOnUse"><stop offset="0" stop-color="#c3d7f0"/><stop offset="0.57" stop-color="#8d99a7"/></linearGradient><linearGradient id="Безымянный_градиент_1226-2" x1="177.31" y1="64.52" x2="218.04" y2="135.07" xlink:href="#Безымянный_градиент_1226"/><linearGradient id="Безымянный_градиент_1226-3" x1="170.47" y1="90.66" x2="205.22" y2="150.83" xlink:href="#Безымянный_градиент_1226"/><linearGradient id="Безымянный_градиент_1226-4" x1="169.54" y1="116.95" x2="203.15" y2="175.16" xlink:href="#Безымянный_градиент_1226"/><linearGradient id="Безымянный_градиент_1226-5" x1="168.2" y1="146.41" x2="199.08" y2="199.9" xlink:href="#Безымянный_градиент_1226"/><linearGradient id="Безымянный_градиент_1226-6" x1="164.59" y1="177.8" x2="190.85" y2="223.27" xlink:href="#Безымянный_градиент_1226"/><linearGradient id="Новый_образец_градиента_копия_2-4" x1="169.19" y1="15.78" x2="151.18" y2="204.51" xlink:href="#Новый_образец_градиента_копия_2"/><linearGradient id="Безымянный_градиент_833" x1="-498.2" y1="1027.82" x2="-495.33" y2="1090.87" gradientTransform="translate(-614.42 -886.61) rotate(-58.74)" gradientUnits="userSpaceOnUse"><stop offset="0" stop-color="#fff5f5"/><stop offset="1" stop-color="#c6d9db"/></linearGradient><linearGradient id="Безымянный_градиент_598" x1="-498.17" y1="1029.45" x2="-495.97" y2="1077.71" gradientTransform="translate(528.1 -970.29)" gradientUnits="userSpaceOnUse"><stop offset="0" stop-color="#ddf5f5" stop-opacity="0"/><stop offset="1" stop-color="#fafff5" stop-opacity="0.4"/></linearGradient><linearGradient id="Безымянный_градиент_492" x1="-498.66" y1="1098.66" x2="-495.35" y2="1103.04" gradientTransform="translate(-614.42 -886.61) rotate(-58.74)" xlink:href="#Новый_образец_градиента_копия_2"/><linearGradient id="Безымянный_градиент_600" x1="-502.17" y1="1026.48" x2="-496.9" y2="1033.46" gradientTransform="translate(170.71 -1058.35) rotate(-17.64)" gradientUnits="userSpaceOnUse"><stop offset="0" stop-color="#ddf5f5" stop-opacity="0"/><stop offset="1" stop-color="#faffff" stop-opacity="0.5"/></linearGradient><linearGradient id="Безымянный_градиент_159-2" x1="242.19" y1="2029.01" x2="235.82" y2="2041.89" gradientTransform="matrix(1.19, 0.13, -0.11, 0.99, 144.6, -1805.95)" xlink:href="#Безымянный_градиент_159"/><linearGradient id="Безымянный_градиент_159-3" x1="248.87" y1="2026.58" x2="249.4" y2="2004.12" gradientTransform="matrix(1.19, 0.13, -0.11, 0.99, 144.6, -1805.95)" xlink:href="#Безымянный_градиент_159"/><linearGradient id="Безымянный_градиент_1231-4" x1="220.85" y1="42.94" x2="235.51" y2="231.65" xlink:href="#Безымянный_градиент_1231"/><linearGradient id="Безымянный_градиент_1231-5" x1="102.38" y1="630.09" x2="190.39" y2="496.43" gradientTransform="translate(-172.18 -258.15) rotate(-28.99)" xlink:href="#Безымянный_градиент_1231"/><linearGradient id="Безымянный_градиент_914" x1="159.06" y1="241.96" x2="203.84" y2="289.38" gradientUnits="userSpaceOnUse"><stop offset="0.17" stop-color="#694538"/><stop offset="0.38" stop-color="#57382c"/><stop offset="0.79" stop-color="#27180e"/><stop offset="0.88" stop-color="#1c1007"/></linearGradient><linearGradient id="Безымянный_градиент_1231-6" x1="6199.79" y1="46.39" x2="6206.6" y2="100.02" gradientTransform="matrix(-1, 0, 0, 1, 6277.8, 0)" xlink:href="#Безымянный_градиент_1231"/><linearGradient id="Безымянный_градиент_1231-7" x1="6206.43" y1="68.75" x2="6214.28" y2="130.51" gradientTransform="matrix(-1, 0, 0, 1, 6277.8, 0)" xlink:href="#Безымянный_градиент_1231"/><linearGradient id="Безымянный_градиент_1231-8" x1="6207.81" y1="96.27" x2="6214.67" y2="150.27" gradientTransform="matrix(-1, 0, 0, 1, 6277.8, 0)" xlink:href="#Безымянный_градиент_1231"/><linearGradient id="Безымянный_градиент_1231-9" x1="6207.82" y1="122.99" x2="6214.22" y2="173.38" gradientTransform="matrix(-1, 0, 0, 1, 6277.8, 0)" xlink:href="#Безымянный_градиент_1231"/><linearGradient id="Безымянный_градиент_1231-10" x1="6205.63" y1="151.73" x2="6211.12" y2="194.93" gradientTransform="matrix(-1, 0, 0, 1, 6277.8, 0)" xlink:href="#Безымянный_градиент_1231"/><linearGradient id="Безымянный_градиент_1231-11" x1="6203.88" y1="180.44" x2="6208.73" y2="218.62" gradientTransform="matrix(-1, 0, 0, 1, 6277.8, 0)" xlink:href="#Безымянный_градиент_1231"/><linearGradient id="Новый_образец_градиента_копия_2-5" x1="96.96" y1="8.89" x2="78.96" y2="197.62" xlink:href="#Новый_образец_градиента_копия_2"/></defs><g id="Слой_2" data-name="Слой 2"><g id="Слой_2-2" data-name="Слой 2"><path class="cls-1" d="M71.37,51.6c-4.35,8.08,109.9-11.85,111-21.08C183.69,19.61,92.44,12.52,71.37,51.6Z"/><polygon class="cls-2" points="112.21 384.75 112.21 396.44 118.4 397.11 119.97 384.75 112.21 384.75"/><path class="cls-3" d="M120.46,393.68l3.2,15.11h-8.77l-.62-2.06-11.66,2.06s-19.25,0-24.75-4.12a5.34,5.34,0,0,1,1.07-2.75c5.8,0,23.66-1.37,29.85-7.56C110.84,394.36,116.34,397.8,120.46,393.68Z"/><path class="cls-4" d="M75.11,215C72.36,263.87,90.91,308.66,93,319.25s17.17,55.38,17.17,70c5.5,1.63,10.5.81,11.43,0,4.62-24.43,9.87-48.05,2.31-57-.68-17.91,11-88.77,14.43-103.43C118.4,219.08,85.42,210.12,75.11,215Z"/><polygon class="cls-5" points="174.05 384.75 174.05 396.44 180.23 397.11 181.81 384.75 174.05 384.75"/><path class="cls-6" d="M182.29,393.68l3.2,15.11h-8.77l-.61-2.06-11.67,2.06s-19.25,0-24.75-4.12a5.34,5.34,0,0,1,1.07-2.75c5.81,0,23.67-1.37,29.85-7.56C172.67,394.36,178.17,397.8,182.29,393.68Z"/><path class="cls-7" d="M185.73,210.94c13.05,26.87-.85,97.72-3.18,120.53,7,4.88,9.2,14.91,0,58.76-2.58,2.19-11.25-.94-11.94-2.57-.69-29.32-20.73-80-25.42-91.21s-48.78-41.54-46-75.74C140.38,210.12,185.73,210.94,185.73,210.94Z"/><path class="cls-8" d="M167.86,0s-.68,31.6,1.38,41.22C167.18,81.07,129,101.57,117,97.56c-20.61-6.87-8.93-68-4.81-79S167.86,0,167.86,0Z"/><path class="cls-9" d="M85.16,230.61c-2.12-.67,4.62,12.58,7.42,12S99.72,235.19,85.16,230.61Z"/><path class="cls-10" d="M61.89,191.87c7.4,13.84,18,34.21,18,34.21,7.35,4.34,12.67,7.08,11.79,10.39s5.72,15.07,1.17,16.2-11.54-1-11.54-1c-.23,1.94-2.52,3.4-3.93,1.56s-9.92-11.1-10.29-13.94,3.11-13,2.92-14.18c-1.56-5.37-15.44-30.42-15.44-30.42Z"/><path class="cls-11" d="M68.24,60.46c-13.7,9.78-33.66,38-31.6,87.25C38,180.69,70.51,177.16,71,145S101.93,36.43,68.24,60.46Z"/><path class="cls-12" d="M39,170c3.24,23.34,18.6,54.54,27.85,61.52a31.45,31.45,0,0,0,12-7.76c-2.37-29.62-3.12-49.59-12.74-61.07S35.15,142.1,39,170Z"/><path class="cls-13" d="M86.79,225.35c.69,5.5-7.56,22-13.74,24.73,4.81,8.94,6.89,21.13,6.89,21.13C91.6,269.32,110.84,244.59,86.79,225.35Z"/><path class="cls-14" d="M205.67,254.13a50,50,0,1,0,67.91,19.48A50,50,0,0,0,205.67,254.13ZM249,332.24a40.46,40.46,0,1,1,15.79-55A40.47,40.47,0,0,1,249,332.24Z"/><path class="cls-15" d="M222.8,284.93c11.48-6.36,33-7.31,36.85-15,4.54-2.71,12.79,10.08,6.59,10.15-5-2.68-10.54,3.75-12,16.05-1.37,11.43,9.6,12.76,14.88,8.45,5,2.12,1.11,15.25-4.86,12.81-1.27-6.33-12.7-1.91-21.73,3.1l-.1.05c-9,5-18.85,12.35-14.15,16.78-1.1,6.36-14.31,2.71-13.44-2.66,6.46-2.2,11.14-12.21.73-17.1-11.22-5.27-19.59-4-20,1.67-3.34,5.22-9.82-8.55-5.1-11,8.56.78,20.77-16.94,32.24-23.29"/><ellipse class="cls-16" cx="229.88" cy="297.82" rx="8.37" ry="6.42" transform="translate(-115.54 148.72) rotate(-28.99)"/><path class="cls-17" d="M136.26,62.52l-12.37,7.56-5.82,17.63L114.7,70.17,106,57.71s-19.92,35,10.65,43.33C136.48,106.41,157.56,78.32,136.26,62.52Z"/><path class="cls-18" d="M168.34,27.21c-38.94,81-72.31,81-59.95,8C73.16,58.73,68.24,60.46,68.24,60.46,51.86,90.33,53.87,166.8,78.55,219.85c-2.06,10.31,77,25.21,107.86-1.37,5.5-83.82,18.83-127.7,40.93-152.43C198.33,41.52,178.23,33.39,168.34,27.21Z"/><path class="cls-19" d="M75.8,213.67c12,7.6,61.44,25.57,111.45-4-.3,4.67-.84,8.86-.84,8.86-15.11,17.18-77.63,24.05-107.86,4.12A43.42,43.42,0,0,0,75.8,213.67Z"/><path class="cls-20" d="M176.11,30.92c-2-1.09-6.26-2.76-7.77-3.71-38.94,81-72.31,81-59.95,8L101.18,40C85.38,113.42,132.82,121.61,176.11,30.92Z"/><path class="cls-21" d="M113.64,105.93S90.26,150.19,86.92,155.2c3.34,15.86,22.55,50.1,22.55,50.1,4.17-12.53,22.14-49.7,22.14-49.7C126.17,144.34,114.48,113.45,113.64,105.93Z"/><path class="cls-22" d="M160.31,37.51s-44,97.15-49.47,96.46-4.12-92.75-4.12-92.75"/><path class="cls-23" d="M93.66,137.41c10.31-.69,28.86,0,33,.69,2.06,5.49-.69,22-.69,22-2.74,1.38-31.6-1.37-33-2.06C92.29,154.59,93,141.53,93.66,137.41Z"/><path class="cls-24" d="M95,139.47c5.49-.69,26.79-.69,29.54.69V144c-4.12-.41-28.86-.83-29.54-1Z"/><path class="cls-25" d="M95.45,155.62s-.56-7.93,0-10.43c1.52,0,5.77-.22,7.14.46.69,3.44,0,8.94-.68,10.31C100.53,156,95.86,155.27,95.45,155.62Z"/><path class="cls-26" d="M110.05,140.27c1.48-2.17,2.85-7.67.79-7.67S109.26,139,110.05,140.27Z"/><path class="cls-27" d="M167.86,22c-2.74,7.55-37.1,44-44,48.09,8.25-3.44,11.68-7.56,26.11,10.3,4.81-12.36,20.5-47.64,20.9-51.64C169.64,23.48,167.86,22,167.86,22Z"/><path class="cls-28" d="M114.7,70.17,108.09,33l-3.43,3.43-11,36.42C106,62.52,110.15,63.21,114.7,70.17Z"/><circle class="cls-29" cx="127.33" cy="74.2" r="2.75"/><path class="cls-30" d="M151.63,132l-14.32,23.91,10.57,22.7s10.26-20.36,11-21.58S152.21,137,151.63,132Z"/><path class="cls-31" d="M81.91,153.53c-.83,4.17-6.68,17.53-7.51,20.87-2.51-4.17-6.68-20.87-6.68-20.87l7.1-17.91Z"/><path class="cls-32" d="M107.29,214.85c6.53.65,30.24,1.48,42.22-1.22,2.4,8.32,5,25.52,0,29s-37.06,3.92-41.57.91C102.06,239.67,107.29,214.85,107.29,214.85Z"/><path class="cls-33" d="M109.9,219.42l-2.61-4.57s37.49-.35,41.92-1.15c-.92,2.31-2.09,5.07-2.09,5.07C140.59,221.38,114.47,222,109.9,219.42Z"/><path class="cls-34" d="M109.9,219.57c8.49,3.7,33.3,3.08,37.22-.62C134.71,215.87,113.82,218.34,109.9,219.57Z"/><path class="cls-35" d="M146.47,241c-2,3.27-33.31,4.57-36.57.65-1.68-2-.66-18.28,0-22.2,2.61.66,26.12,2.61,37.22-.65C147.77,222,148.15,238.17,146.47,241Z"/><path class="cls-36" d="M128.43,221.51a111.73,111.73,0,0,1-18-1.19.64.64,0,0,1-.52-.76.65.65,0,0,1,.76-.52c8.17,1.55,28.36,1.68,35.67-.25a.66.66,0,0,1,.8.47.65.65,0,0,1-.47.79C142.87,221.06,135.67,221.51,128.43,221.51Z"/><path class="cls-37" d="M146.4,219.44c-1.24,0-2.36,8.66-1.89,9.12.65.66,3.91,1.31,3.91,0S147.63,219.45,146.4,219.44Z"/><path class="cls-38" d="M229.4,66.56C228.6,60,191.52,29,175.85,25.48c-1.31,9.05-2,16.71-6.53,28.55,7.18,7,42.71,28,46.17,30S231.36,82.57,229.4,66.56Z"/><path class="cls-39" d="M170,51.94c5.23,0,41.14,27.84,45.71,31.32s3.09,24.7-10.86,23.49S158.93,87,160.31,82.48C164.1,70,168,59.59,170,51.94Z"/><path class="cls-40" d="M207.19,103.45c4.47,3.57,4.58,17.41-3.91,19.49s-49.49-1.86-48.33-8.35c2.62-14.62,3.27-25.06,5.88-32.72C166.06,81.87,204.58,101.36,207.19,103.45Z"/><path class="cls-41" d="M202.15,120.4c-9.3-1.75-38.37-9.15-46.54-9.29-1.31,10.44-3.27,19.49-3.36,31.79-.08,11.09,49.05,5.19,52.5,3.62C209.15,144.53,210.82,122,202.15,120.4Z"/><path class="cls-42" d="M153,142.44c-.66,8.35-2,18.79-3.92,35.5,9.79,2.09,42.44.7,46.36-1.39s14.78-31.37,8-32.05S153,142.44,153,142.44Z"/><path class="cls-43" d="M194.76,174.37c5.38.36,3.39,22.62-3.52,27s-39.93,8.78-42,7.29c-.92-7.87.38-32.31.12-32.92C164.49,173.86,193.43,174.28,194.76,174.37Z"/><path class="cls-44" d="M175.2,28.75c-2.61,26.77-15,53.54-20.9,96.64-2.38,17.48-3.65,75.15-5.09,83.29-3.53-28.14.73-76.5,4.87-99.48S173.24,34.62,175.2,28.75Z"/><path class="cls-45" d="M3.38,79.68l45.38,27.55a10.57,10.57,0,0,0,7.69,1.3l1.67-.36a7,7,0,0,1,5.12.86L69,112.51a2.47,2.47,0,0,0,3.38-.83h0a2.47,2.47,0,0,0-.83-3.38l-5.72-3.47a7,7,0,0,1-3.13-4.15L62.21,99a10.53,10.53,0,0,0-4.69-6.22L12.14,65.26a7,7,0,0,0-9.66,2.36L1,70A7,7,0,0,0,3.38,79.68Z"/><path class="cls-46" d="M55.91,96.77,51.53,104a.35.35,0,1,1-.6-.37l4.38-7.21a.35.35,0,0,1,.6.37Z"/><path class="cls-46" d="M48.7,92.39,44.32,99.6a.35.35,0,0,1-.6-.36L48.1,92a.35.35,0,1,1,.6.36Z"/><path class="cls-46" d="M41.49,88l-4.38,7.21a.35.35,0,0,1-.6-.36l4.38-7.21a.35.35,0,1,1,.6.36Z"/><path class="cls-46" d="M34.28,83.64,29.9,90.85a.35.35,0,0,1-.48.11.34.34,0,0,1-.12-.48l4.38-7.21a.35.35,0,1,1,.6.37Z"/><path class="cls-46" d="M27.07,79.26l-4.38,7.21a.35.35,0,0,1-.48.12.37.37,0,0,1-.12-.49l4.38-7.21a.35.35,0,0,1,.48-.11A.34.34,0,0,1,27.07,79.26Z"/><path class="cls-46" d="M19.86,74.88l-4.38,7.21a.34.34,0,0,1-.48.12.36.36,0,0,1-.12-.48l4.38-7.21a.35.35,0,1,1,.6.36Z"/><path class="cls-46" d="M12.65,70.5,8.27,77.71a.34.34,0,0,1-.48.12.36.36,0,0,1-.12-.48l4.38-7.21a.35.35,0,1,1,.6.36Z"/><rect class="cls-47" x="36.24" y="56" width="2.81" height="69.23" rx="1.41" transform="translate(-59.35 75.77) rotate(-58.74)"/><rect class="cls-48" x="45.26" y="70.26" width="2.81" height="51.66" rx="1.21" transform="translate(-59.69 86.11) rotate(-58.74)"/><rect class="cls-49" x="25.57" y="55.06" width="11.25" height="63.26" rx="5.62" transform="translate(-59.1 68.36) rotate(-58.74)"/><path class="cls-50" d="M67.92,106.11l3.6,2.19a2.47,2.47,0,0,1,.83,3.38h0a2.47,2.47,0,0,1-3.38.83l-3.61-2.19"/><ellipse class="cls-51" cx="7.24" cy="74.86" rx="5.24" ry="6.83" transform="translate(-47.42 23.2) rotate(-41.09)"/><path class="cls-52" d="M213.29,241.21c2.33-1.46-1.6,16.48-5.12,16.72S197.31,251.23,213.29,241.21Z"/><path class="cls-53" d="M229,187.62c-4.52,18.86-10.82,46.51-10.82,46.51-7.44,7.49-12.94,12.43-10.85,16.11S205.21,270.05,211,270s13.47-4.83,13.47-4.83c.88,2.24,4.08,3.28,5.19.63s8.4-16.37,8-19.87-7.8-14.64-7.92-16c.19-6.91,9-41.2,9-41.2Z"/><path class="cls-54" d="M229.4,66.62c13.9,10,26.7,43.41,18,92.85s-32.88,17.63-40.62-14.21C197.41,106.49,213.07,54.87,229.4,66.62Z"/><path class="cls-55" d="M249.84,167.12c3.63,22.79-9.1,60.4-15.77,69.58-11.55,3.26-20.71-3.87-20.71-3.87-6.25-28.41-11.32-59.41-5.59-72.92S245.49,139.88,249.84,167.12Z"/><path class="cls-56" d="M159.62,231.53c2.06,12.37,20.65,16.67,28.87,16.58C174.71,278.85,136.26,271.38,159.62,231.53Z"/><path class="cls-57" d="M60.92,62.05C66.15,54.21,82.47,42.5,98.14,39.2,94.88,44.42,89,51.6,89.66,61.09c-7.18,6.62-27.89,15.35-31.35,17.29S52.41,74.81,60.92,62.05Z"/><path class="cls-58" d="M89,59.76c-5.22,0-26.78,13.35-31.35,16.66s-10.45,30-2,30.69c14,1.07,27.52-14.46,28.08-18.94C85.08,77.72,88.35,67.93,89,59.76Z"/><path class="cls-59" d="M56.36,106.1c-4.46,3.39-7.84,21.76.65,23.74s25.78-4.93,25.47-11.2A141.65,141.65,0,0,1,83.79,88.2C78.56,88.2,59,104.11,56.36,106.1Z"/><path class="cls-60" d="M58.14,127.42c9.31-4.64,15.52-12,23.69-12.09,0,9.41-.1,18,0,29.65.08,10.54-20.22,10.71-23.67,9.23C53.75,152.31,50.26,131.35,58.14,127.42Z"/><path class="cls-61" d="M81.83,145.1c.65,7.94.65,15.9,2.61,31.78-9.8,2-18.94,3.27-22.86,1.28s-9.8-22.08-2.16-25.87C65.48,149.27,81.83,145.1,81.83,145.1Z"/><path class="cls-62" d="M62.26,176.1c-5.38.34-2.36,22.16,4.54,26.34s16.19,4,18.28,2.62c.93-7.48-1.15-29.68-.9-30.26C69,173,63.6,176,62.26,176.1Z"/><path class="cls-63" d="M99.65,35.37c-13.91,28-14.57,60-15.87,83.49s3.64,70.72,1.49,83.68C80.33,144.23,78.64,127,81.82,96,84.43,70.54,87.44,52.45,99.65,35.37Z"/></g></g></svg>