<svg xmlns="http://www.w3.org/2000/svg" xmlns:xlink="http://www.w3.org/1999/xlink" viewBox="0 0 245.1 408.79"><defs><style>.cls-1{fill:url(#Безымянный_градиент_1231);}.cls-2{fill:url(#Новый_образец_градиента_копия_2);}.cls-3{fill:url(#Безымянный_градиент_948);}.cls-4{fill:url(#Безымянный_градиент_786);}.cls-5{fill:url(#Новый_образец_градиента_копия_2-2);}.cls-6{fill:url(#Безымянный_градиент_948-2);}.cls-7{fill:url(#Безымянный_градиент_786-2);}.cls-8{fill:url(#Безымянный_градиент_873);}.cls-9{fill:url(#Безымянный_градиент_783);}.cls-10{fill:url(#Безымянный_градиент_159);}.cls-11{fill:url(#Безымянный_градиент_1231-2);}.cls-12{fill:url(#Безымянный_градиент_1231-3);}.cls-13{fill:url(#Безымянный_градиент_843);}.cls-14{fill:#a2aaae;}.cls-15{fill:#a9bcca;}.cls-16{fill:#d23c3e;}.cls-17{fill:url(#Безымянный_градиент_598);}.cls-18{fill:url(#Безымянный_градиент_492);}.cls-19{fill:url(#Безымянный_градиент_600);}.cls-20{fill:url(#Безымянный_градиент_913);}.cls-21{fill:#a2b2bc;}.cls-22{fill:url(#Безымянный_градиент_1198);}.cls-23{fill:url(#Безымянный_градиент_25);}.cls-24{fill:url(#Безымянный_градиент_911);}.cls-25,.cls-34,.cls-35{opacity:0.5;}.cls-25{fill:url(#Безымянный_градиент_911-2);}.cls-26{fill:none;stroke:#283547;stroke-miterlimit:10;stroke-width:1.37px;}.cls-27{fill:url(#Новый_образец_градиента_копия_3);}.cls-28{fill:url(#Безымянный_градиент_3);}.cls-29{fill:url(#Безымянный_градиент_3-2);}.cls-30{fill:url(#Новый_образец_градиента_копия_2-3);}.cls-31{fill:url(#Новый_образец_градиента_копия_3-2);}.cls-32{fill:url(#Новый_образец_градиента_копия_3-3);}.cls-33{fill:url(#Новый_образец_градиента_копия_3-4);}.cls-34{fill:url(#Безымянный_градиент_911-3);}.cls-35{fill:url(#Безымянный_градиент_911-4);}.cls-36{fill:url(#Безымянный_градиент_948-3);}.cls-37{fill:url(#Безымянный_градиент_948-4);}.cls-38{fill:#0d131b;}.cls-39{fill:url(#Безымянный_градиент_948-5);}.cls-40{fill:url(#Безымянный_градиент_32);}.cls-41{fill:url(#Безымянный_градиент_32-2);}.cls-42{fill:url(#Безымянный_градиент_1226);}.cls-43{fill:url(#Безымянный_градиент_1226-2);}.cls-44{fill:url(#Безымянный_градиент_1226-3);}.cls-45{fill:url(#Безымянный_градиент_1226-4);}.cls-46{fill:url(#Безымянный_градиент_1226-5);}.cls-47{fill:url(#Безымянный_градиент_1226-6);}.cls-48{fill:url(#Новый_образец_градиента_копия_2-4);}.cls-49{fill:url(#Безымянный_градиент_159-2);}.cls-50{fill:url(#Безымянный_градиент_159-3);}.cls-51{fill:url(#Безымянный_градиент_1231-4);}.cls-52{fill:url(#Безымянный_градиент_1231-5);}.cls-53{fill:url(#Безымянный_градиент_914);}.cls-54{fill:url(#Безымянный_градиент_1231-6);}.cls-55{fill:url(#Безымянный_градиент_1231-7);}.cls-56{fill:url(#Безымянный_градиент_1231-8);}.cls-57{fill:url(#Безымянный_градиент_1231-9);}.cls-58{fill:url(#Безымянный_градиент_1231-10);}.cls-59{fill:url(#Безымянный_градиент_1231-11);}.cls-60{fill:url(#Новый_образец_градиента_копия_2-5);}</style><linearGradient id="Безымянный_градиент_1231" x1="120.09" y1="28.76" x2="123.89" y2="58.68" gradientUnits="userSpaceOnUse"><stop offset="0" stop-color="#c3d7f0"/><stop offset="1" stop-color="#8d99a7"/></linearGradient><linearGradient id="Новый_образец_градиента_копия_2" x1="107.05" y1="390.93" x2="114.81" y2="390.93" gradientUnits="userSpaceOnUse"><stop offset="0" stop-color="#5d7d91"/><stop offset="1" stop-color="#374b6b"/></linearGradient><linearGradient id="Безымянный_градиент_948" x1="73.19" y1="399.62" x2="115.11" y2="401.73" gradientUnits="userSpaceOnUse"><stop offset="0" stop-color="#535757"/><stop offset="1" stop-color="#0d131b"/></linearGradient><linearGradient id="Безымянный_градиент_786" x1="97.87" y1="201.6" x2="116.91" y2="368.01" gradientUnits="userSpaceOnUse"><stop offset="0.22" stop-color="#694538"/><stop offset="1" stop-color="#1c1007"/></linearGradient><linearGradient id="Новый_образец_градиента_копия_2-2" x1="168.89" y1="390.93" x2="176.65" y2="390.93" xlink:href="#Новый_образец_градиента_копия_2"/><linearGradient id="Безымянный_градиент_948-2" x1="135.02" y1="399.62" x2="176.95" y2="401.73" xlink:href="#Безымянный_градиент_948"/><linearGradient id="Безымянный_градиент_786-2" x1="135.96" y1="204" x2="182.43" y2="512.59" xlink:href="#Безымянный_градиент_786"/><linearGradient id="Безымянный_градиент_873" x1="129.83" y1="97.8" x2="133.58" y2="20.47" gradientUnits="userSpaceOnUse"><stop offset="0.37" stop-color="#fabb80"/><stop offset="0.83" stop-color="#faa16c"/></linearGradient><linearGradient id="Безымянный_градиент_783" x1="5224.36" y1="-695.4" x2="5219.2" y2="-684.98" gradientTransform="matrix(-1.12, 0.43, 0.36, 0.93, 6176.09, -1340.37)" gradientUnits="userSpaceOnUse"><stop offset="0.46" stop-color="#fabb80"/><stop offset="1" stop-color="#faa16c"/></linearGradient><linearGradient id="Безымянный_градиент_159" x1="5229.76" y1="-697.37" x2="5230.19" y2="-715.54" gradientTransform="matrix(-1.12, 0.43, 0.36, 0.93, 6176.09, -1340.37)" gradientUnits="userSpaceOnUse"><stop offset="0.64" stop-color="#ffd7a5"/><stop offset="1" stop-color="#faa96c"/></linearGradient><linearGradient id="Безымянный_градиент_1231-2" x1="55.12" y1="375.04" x2="55.12" y2="66.94" xlink:href="#Безымянный_градиент_1231"/><linearGradient id="Безымянный_градиент_1231-3" x1="53.53" y1="375.04" x2="53.53" y2="66.94" xlink:href="#Безымянный_градиент_1231"/><linearGradient id="Безымянный_градиент_843" x1="63.01" y1="53.17" x2="65.88" y2="116.22" gradientTransform="translate(-72.56 100.28) rotate(-58.74)" gradientUnits="userSpaceOnUse"><stop offset="0" stop-color="#fff5f5"/><stop offset="1" stop-color="#c6d9db"/></linearGradient><linearGradient id="Безымянный_градиент_598" x1="63.04" y1="54.81" x2="65.24" y2="103.06" gradientTransform="translate(-33.11 5.72)" gradientUnits="userSpaceOnUse"><stop offset="0" stop-color="#ddf5f5" stop-opacity="0"/><stop offset="1" stop-color="#fafff5" stop-opacity="0.4"/></linearGradient><linearGradient id="Безымянный_градиент_492" x1="62.55" y1="124.01" x2="65.86" y2="128.39" gradientTransform="translate(-72.56 100.28) rotate(-58.74)" xlink:href="#Новый_образец_градиента_копия_2"/><linearGradient id="Безымянный_градиент_600" x1="59.04" y1="51.83" x2="64.31" y2="58.81" gradientTransform="translate(-68.71 41.91) rotate(-17.64)" gradientUnits="userSpaceOnUse"><stop offset="0" stop-color="#ddf5f5" stop-opacity="0"/><stop offset="1" stop-color="#faffff" stop-opacity="0.5"/></linearGradient><linearGradient id="Безымянный_градиент_913" x1="98.57" y1="232.49" x2="47.55" y2="275.39" gradientUnits="userSpaceOnUse"><stop offset="0.35" stop-color="#694538"/><stop offset="1" stop-color="#1c1007"/></linearGradient><linearGradient id="Безымянный_градиент_1198" x1="86.74" y1="19.37" x2="190.91" y2="231.13" gradientUnits="userSpaceOnUse"><stop offset="0" stop-color="#b3e571"/><stop offset="0.99" stop-color="#4b8b41"/></linearGradient><radialGradient id="Безымянный_градиент_25" cx="126.36" cy="222.19" r="40.39" xlink:href="#Безымянный_градиент_948"/><linearGradient id="Безымянный_градиент_911" x1="97.05" y1="83.92" x2="138.11" y2="36.73" gradientUnits="userSpaceOnUse"><stop offset="0" stop-color="#7b885d"/><stop offset="0.99" stop-color="#556f43"/></linearGradient><linearGradient id="Безымянный_градиент_911-2" x1="107.49" y1="101.98" x2="100.65" y2="209.86" xlink:href="#Безымянный_градиент_911"/><linearGradient id="Новый_образец_градиента_копия_3" x1="105.82" y1="131.84" x2="104.41" y2="156.05" gradientUnits="userSpaceOnUse"><stop offset="0" stop-color="#ddf5f5"/><stop offset="1" stop-color="#c6d9db"/></linearGradient><linearGradient id="Безымянный_градиент_3" x1="89.55" y1="139.23" x2="119.81" y2="143.79" gradientUnits="userSpaceOnUse"><stop offset="0.33" stop-color="#faf8eb"/><stop offset="0.57" stop-color="#f3efde"/><stop offset="0.96" stop-color="#e3dac1"/></linearGradient><linearGradient id="Безымянный_градиент_3-2" x1="92.19" y1="142.76" x2="95.29" y2="157.43" xlink:href="#Безымянный_градиент_3"/><linearGradient id="Новый_образец_градиента_копия_2-3" x1="104.7" y1="140.42" x2="105.81" y2="132.76" xlink:href="#Новый_образец_градиента_копия_2"/><linearGradient id="Новый_образец_градиента_копия_3-2" x1="142.44" y1="49.53" x2="149.42" y2="66.74" xlink:href="#Новый_образец_градиента_копия_3"/><linearGradient id="Новый_образец_градиента_копия_3-3" x1="105.5" y1="52.13" x2="94.72" y2="64.87" xlink:href="#Новый_образец_градиента_копия_3"/><linearGradient id="Новый_образец_градиента_копия_3-4" x1="122.87" y1="65.51" x2="122" y2="76.3" xlink:href="#Новый_образец_градиента_копия_3"/><linearGradient id="Безымянный_градиент_911-3" x1="146.25" y1="104.44" x2="139.41" y2="212.32" xlink:href="#Безымянный_градиент_911"/><linearGradient id="Безымянный_градиент_911-4" x1="73.06" y1="99.8" x2="66.22" y2="207.68" xlink:href="#Безымянный_градиент_911"/><linearGradient id="Безымянный_градиент_948-3" x1="123.49" y1="205.07" x2="123.66" y2="251.42" xlink:href="#Безымянный_градиент_948"/><linearGradient id="Безымянный_градиент_948-4" x1="124.27" y1="226.9" x2="122.44" y2="207.39" xlink:href="#Безымянный_градиент_948"/><linearGradient id="Безымянный_градиент_948-5" x1="123.52" y1="217.67" x2="122.69" y2="250.6" xlink:href="#Безымянный_градиент_948"/><linearGradient id="Безымянный_градиент_32" x1="104.74" y1="220.14" x2="142" y2="220.14" gradientUnits="userSpaceOnUse"><stop offset="0" stop-color="#9799a1"/><stop offset="1" stop-color="#c6d9db"/></linearGradient><linearGradient id="Безымянный_градиент_32-2" x1="141.28" y1="230" x2="141.11" y2="218.89" xlink:href="#Безымянный_градиент_32"/><linearGradient id="Безымянный_градиент_1226" x1="181.35" y1="37.78" x2="226.03" y2="115.15" gradientUnits="userSpaceOnUse"><stop offset="0" stop-color="#c3d7f0"/><stop offset="0.57" stop-color="#8d99a7"/></linearGradient><linearGradient id="Безымянный_градиент_1226-2" x1="172.15" y1="64.52" x2="212.88" y2="135.07" xlink:href="#Безымянный_градиент_1226"/><linearGradient id="Безымянный_градиент_1226-3" x1="165.31" y1="90.66" x2="200.06" y2="150.83" xlink:href="#Безымянный_градиент_1226"/><linearGradient id="Безымянный_градиент_1226-4" x1="164.38" y1="116.95" x2="197.99" y2="175.16" xlink:href="#Безымянный_градиент_1226"/><linearGradient id="Безымянный_градиент_1226-5" x1="163.04" y1="146.41" x2="193.92" y2="199.9" xlink:href="#Безымянный_градиент_1226"/><linearGradient id="Безымянный_градиент_1226-6" x1="159.43" y1="177.8" x2="185.68" y2="223.27" xlink:href="#Безымянный_градиент_1226"/><linearGradient id="Новый_образец_градиента_копия_2-4" x1="164.03" y1="15.78" x2="146.02" y2="204.51" xlink:href="#Новый_образец_градиента_копия_2"/><linearGradient id="Безымянный_градиент_159-2" x1="460.41" y1="2326.09" x2="454.04" y2="2338.97" gradientTransform="matrix(0.98, 0.69, -0.58, 0.82, 1057.85, -1989.92)" xlink:href="#Безымянный_градиент_159"/><linearGradient id="Безымянный_градиент_159-3" x1="467.09" y1="2323.66" x2="467.62" y2="2301.2" gradientTransform="matrix(0.98, 0.69, -0.58, 0.82, 1057.85, -1989.92)" xlink:href="#Безымянный_градиент_159"/><linearGradient id="Безымянный_градиент_1231-4" x1="215.69" y1="42.94" x2="230.35" y2="231.65" xlink:href="#Безымянный_градиент_1231"/><linearGradient id="Безымянный_градиент_1231-5" x1="175.66" y1="233.95" x2="263.67" y2="100.29" xlink:href="#Безымянный_градиент_1231"/><linearGradient id="Безымянный_градиент_914" x1="153.9" y1="241.96" x2="198.68" y2="289.38" gradientUnits="userSpaceOnUse"><stop offset="0.17" stop-color="#694538"/><stop offset="0.38" stop-color="#57382c"/><stop offset="0.79" stop-color="#27180e"/><stop offset="0.88" stop-color="#1c1007"/></linearGradient><linearGradient id="Безымянный_градиент_1231-6" x1="8500.56" y1="46.39" x2="8507.37" y2="100.02" gradientTransform="matrix(-1, 0, 0, 1, 8573.41, 0)" xlink:href="#Безымянный_градиент_1231"/><linearGradient id="Безымянный_градиент_1231-7" x1="8507.2" y1="68.75" x2="8515.04" y2="130.51" gradientTransform="matrix(-1, 0, 0, 1, 8573.41, 0)" xlink:href="#Безымянный_градиент_1231"/><linearGradient id="Безымянный_градиент_1231-8" x1="8508.58" y1="96.27" x2="8515.44" y2="150.27" gradientTransform="matrix(-1, 0, 0, 1, 8573.41, 0)" xlink:href="#Безымянный_градиент_1231"/><linearGradient id="Безымянный_градиент_1231-9" x1="8508.59" y1="122.99" x2="8514.99" y2="173.38" gradientTransform="matrix(-1, 0, 0, 1, 8573.41, 0)" xlink:href="#Безымянный_градиент_1231"/><linearGradient id="Безымянный_градиент_1231-10" x1="8506.4" y1="151.73" x2="8511.89" y2="194.93" gradientTransform="matrix(-1, 0, 0, 1, 8573.41, 0)" xlink:href="#Безымянный_градиент_1231"/><linearGradient id="Безымянный_градиент_1231-11" x1="8504.65" y1="180.44" x2="8509.5" y2="218.62" gradientTransform="matrix(-1, 0, 0, 1, 8573.41, 0)" xlink:href="#Безымянный_градиент_1231"/><linearGradient id="Новый_образец_градиента_копия_2-5" x1="91.8" y1="8.89" x2="73.8" y2="197.62" xlink:href="#Новый_образец_градиента_копия_2"/></defs><g id="Слой_2" data-name="Слой 2"><g id="Слой_2-2" data-name="Слой 2"><path class="cls-1" d="M66.21,51.6c-4.35,8.08,109.9-11.85,111-21.08C178.53,19.61,87.28,12.52,66.21,51.6Z"/><polygon class="cls-2" points="107.05 384.75 107.05 396.44 113.23 397.11 114.81 384.75 107.05 384.75"/><path class="cls-3" d="M115.3,393.68l3.2,15.11h-8.77l-.62-2.06-11.66,2.06s-19.25,0-24.75-4.12a5.34,5.34,0,0,1,1.07-2.75c5.8,0,23.66-1.37,29.85-7.56C105.68,394.36,111.17,397.8,115.3,393.68Z"/><path class="cls-4" d="M70,215c-2.75,48.86,15.8,93.65,17.86,104.24s17.18,55.38,17.18,70c5.5,1.63,10.5.81,11.43,0,4.62-24.43,9.87-48.05,2.31-57-.69-17.91,11-88.77,14.43-103.43C113.23,219.08,80.26,210.12,70,215Z"/><polygon class="cls-5" points="168.88 384.75 168.88 396.44 175.07 397.11 176.65 384.75 168.88 384.75"/><path class="cls-6" d="M177.13,393.68l3.2,15.11h-8.77l-.61-2.06-11.67,2.06s-19.25,0-24.75-4.12a5.34,5.34,0,0,1,1.07-2.75c5.8,0,23.67-1.37,29.85-7.56C167.51,394.36,173,397.8,177.13,393.68Z"/><path class="cls-7" d="M180.57,210.94c13.05,26.87-.86,97.72-3.18,120.53,7,4.88,9.2,14.91,0,58.76-2.58,2.19-11.25-.94-11.94-2.57-.69-29.32-20.73-80-25.42-91.21s-48.78-41.54-46-75.74C135.22,210.12,180.57,210.94,180.57,210.94Z"/><path class="cls-8" d="M162.7,0s-.69,31.6,1.38,41.22c-2.07,39.85-40.2,60.35-52.22,56.34-20.61-6.87-8.93-68-4.81-79S162.7,0,162.7,0Z"/><path class="cls-9" d="M80,230.61c-2.12-.67,4.62,12.58,7.42,12S94.56,235.19,80,230.61Z"/><path class="cls-10" d="M56.73,191.87c7.4,13.84,18,34.21,18,34.21,7.35,4.34,12.67,7.08,11.79,10.39s5.72,15.07,1.17,16.2-11.54-1-11.54-1c-.23,1.94-2.52,3.4-3.94,1.56s-9.91-11.1-10.28-13.94,3.11-13,2.92-14.18c-1.56-5.37-15.44-30.42-15.44-30.42Z"/><path class="cls-11" d="M63.08,60.46c-13.71,9.78-33.66,38-31.6,87.25,1.37,33,33.87,29.45,34.35-2.74S96.76,36.43,63.08,60.46Z"/><path class="cls-12" d="M33.86,170c3.24,23.34,18.6,54.54,27.85,61.52a31.46,31.46,0,0,0,11.95-7.76c-2.36-29.62-3.12-49.59-12.73-61.07S30,142.1,33.86,170Z"/><path class="cls-13" d="M3.38,81l45.38,27.55a10.57,10.57,0,0,0,7.69,1.3l1.67-.36a7,7,0,0,1,5.12.86L69,113.87a2.47,2.47,0,0,0,3.38-.83h0a2.47,2.47,0,0,0-.83-3.38l-5.72-3.47A7,7,0,0,1,62.67,102l-.46-1.65a10.53,10.53,0,0,0-4.69-6.22L12.14,66.62A7,7,0,0,0,2.48,69L1,71.38A7,7,0,0,0,3.38,81Z"/><path class="cls-14" d="M55.91,98.13l-4.38,7.21a.35.35,0,1,1-.6-.37l4.38-7.21a.35.35,0,0,1,.6.37Z"/><path class="cls-14" d="M48.7,93.75,44.32,101a.35.35,0,0,1-.6-.36l4.38-7.21a.35.35,0,1,1,.6.36Z"/><path class="cls-14" d="M41.49,89.37l-4.38,7.21a.35.35,0,0,1-.6-.36L40.89,89a.35.35,0,1,1,.6.36Z"/><path class="cls-14" d="M34.28,85,29.9,92.21a.35.35,0,0,1-.48.11.34.34,0,0,1-.12-.48l4.38-7.21a.35.35,0,1,1,.6.37Z"/><path class="cls-14" d="M27.07,80.62l-4.38,7.21a.35.35,0,0,1-.48.12.37.37,0,0,1-.12-.49l4.38-7.21a.35.35,0,0,1,.48-.11A.34.34,0,0,1,27.07,80.62Z"/><path class="cls-14" d="M19.86,76.24l-4.38,7.21a.34.34,0,0,1-.48.12.36.36,0,0,1-.12-.48l4.38-7.21a.35.35,0,1,1,.6.36Z"/><path class="cls-14" d="M12.65,71.86,8.27,79.07a.34.34,0,0,1-.48.12.35.35,0,0,1-.12-.48l4.38-7.21a.35.35,0,1,1,.6.36Z"/><rect class="cls-15" x="36.24" y="57.36" width="2.81" height="69.23" rx="1.41" transform="translate(-60.51 76.42) rotate(-58.74)"/><rect class="cls-16" x="45.26" y="71.62" width="2.81" height="51.66" rx="1.21" transform="translate(-60.85 86.76) rotate(-58.74)"/><rect class="cls-17" x="25.57" y="56.42" width="11.25" height="63.26" rx="5.62" transform="translate(-60.26 69.02) rotate(-58.74)"/><path class="cls-18" d="M67.92,107.47l3.6,2.19a2.47,2.47,0,0,1,.83,3.38h0a2.47,2.47,0,0,1-3.38.83l-3.61-2.19"/><ellipse class="cls-19" cx="7.24" cy="76.22" rx="5.24" ry="6.83" transform="translate(-48.32 23.54) rotate(-41.09)"/><path class="cls-20" d="M81.63,225.35c.69,5.5-7.56,22-13.74,24.73,4.81,8.94,6.89,21.13,6.89,21.13C86.44,269.32,105.68,244.59,81.63,225.35Z"/><path class="cls-21" d="M131.1,62.52l-12.37,7.56-5.82,17.63-3.37-17.54-8.67-12.46s-19.93,35,10.65,43.33C131.32,106.41,152.4,78.32,131.1,62.52Z"/><path class="cls-22" d="M163.18,27.21c-38.94,81-72.31,81-59.95,8C68,58.73,63.08,60.46,63.08,60.46,46.69,90.33,48.71,166.8,73.39,219.85c-2.07,10.31,77,25.21,107.86-1.37,5.5-83.82,18.82-127.7,40.93-152.43C193.17,41.52,173.07,33.39,163.18,27.21Z"/><path class="cls-23" d="M70.64,213.67c12,7.6,61.44,25.57,111.45-4-.3,4.67-.84,8.86-.84,8.86-15.11,17.18-77.63,24.05-107.86,4.12A43.42,43.42,0,0,0,70.64,213.67Z"/><path class="cls-24" d="M171,30.92c-2-1.09-6.26-2.76-7.77-3.71-38.94,81-72.31,81-59.95,8L96,40C80.22,113.42,127.66,121.61,171,30.92Z"/><path class="cls-25" d="M108.48,105.93S85.1,150.19,81.76,155.2c3.34,15.86,22.55,50.1,22.55,50.1,4.17-12.53,22.13-49.7,22.13-49.7C121,144.34,109.32,113.45,108.48,105.93Z"/><path class="cls-26" d="M155.14,37.51s-44,97.15-49.46,96.46-4.13-92.75-4.13-92.75"/><path class="cls-27" d="M88.5,137.41c10.31-.69,28.86,0,33,.69,2.06,5.49-.69,22-.69,22-2.75,1.38-31.6-1.37-33-2.06C87.13,154.59,87.81,141.53,88.5,137.41Z"/><path class="cls-28" d="M89.88,139.47c5.49-.69,26.79-.69,29.54.69V144c-4.12-.41-28.86-.83-29.54-1Z"/><path class="cls-29" d="M90.28,155.62s-.55-7.93,0-10.43c1.52,0,5.78-.22,7.15.46.69,3.44,0,8.94-.68,10.31C95.37,156,90.69,155.27,90.28,155.62Z"/><path class="cls-30" d="M104.89,140.27c1.47-2.17,2.85-7.67.79-7.67S104.1,139,104.89,140.27Z"/><path class="cls-31" d="M162.7,22c-2.75,7.55-37.1,44-44,48.09,8.25-3.44,11.68-7.56,26.11,10.3,4.81-12.36,20.5-47.64,20.9-51.64C164.47,23.48,162.7,22,162.7,22Z"/><path class="cls-32" d="M109.54,70.17,102.93,33l-3.44,3.43-11,36.42C100.87,62.52,105,63.21,109.54,70.17Z"/><circle class="cls-33" cx="122.17" cy="74.2" r="2.75"/><path class="cls-34" d="M146.47,132l-14.33,23.91,10.58,22.7s10.26-20.36,11-21.58S147.05,137,146.47,132Z"/><path class="cls-35" d="M76.75,153.53c-.83,4.17-6.68,17.53-7.51,20.87-2.51-4.17-6.68-20.87-6.68-20.87l7.09-17.91Z"/><path class="cls-36" d="M102.12,214.85c6.53.65,30.25,1.48,42.23-1.22,2.4,8.32,5,25.52,0,29s-37.06,3.92-41.57.91C96.9,239.67,102.12,214.85,102.12,214.85Z"/><path class="cls-37" d="M104.74,219.42l-2.62-4.57s37.5-.35,41.93-1.15c-.92,2.31-2.09,5.07-2.09,5.07C135.43,221.38,109.31,222,104.74,219.42Z"/><path class="cls-38" d="M104.74,219.57c8.49,3.7,33.3,3.08,37.22-.62C129.55,215.87,108.65,218.34,104.74,219.57Z"/><path class="cls-39" d="M141.3,241c-2,3.27-33.3,4.57-36.56.65-1.68-2-.66-18.28,0-22.2,2.61.66,26.12,2.61,37.22-.65C142.61,222,143,238.17,141.3,241Z"/><path class="cls-40" d="M123.27,221.51a111.73,111.73,0,0,1-18-1.19.64.64,0,0,1-.52-.76.65.65,0,0,1,.76-.52c8.17,1.55,28.36,1.68,35.67-.25a.66.66,0,0,1,.8.47.65.65,0,0,1-.47.79C137.71,221.06,130.51,221.51,123.27,221.51Z"/><path class="cls-41" d="M141.23,219.44c-1.23,0-2.35,8.66-1.88,9.12.65.66,3.91,1.31,3.91,0S142.47,219.45,141.23,219.44Z"/><path class="cls-42" d="M224.23,66.56C223.44,60,186.36,29,170.69,25.48c-1.31,9.05-2,16.71-6.53,28.55,7.18,7,42.71,28,46.17,30S226.19,82.57,224.23,66.56Z"/><path class="cls-43" d="M164.81,51.94c5.23,0,41.14,27.84,45.71,31.32s3.09,24.7-10.86,23.49S153.77,87,155.14,82.48C158.94,70,162.85,59.59,164.81,51.94Z"/><path class="cls-44" d="M202,103.45c4.47,3.57,4.57,17.41-3.92,19.49s-49.48-1.86-48.32-8.35c2.62-14.62,3.27-25.06,5.88-32.72C160.89,81.87,199.42,101.36,202,103.45Z"/><path class="cls-45" d="M197,120.4c-9.3-1.75-38.37-9.15-46.54-9.29-1.31,10.44-3.27,19.49-3.36,31.79-.08,11.09,49,5.19,52.5,3.62C204,144.53,205.66,122,197,120.4Z"/><path class="cls-46" d="M147.83,142.44c-.65,8.35-2,18.79-3.91,35.5,9.79,2.09,42.44.7,46.36-1.39s14.78-31.37,8-32.05S147.83,142.44,147.83,142.44Z"/><path class="cls-47" d="M189.6,174.37c5.38.36,3.38,22.62-3.52,27s-39.93,8.78-42,7.29c-.92-7.87.38-32.31.12-32.92C159.33,173.86,188.26,174.28,189.6,174.37Z"/><path class="cls-48" d="M170,28.75c-2.62,26.77-15,53.54-20.9,96.64-2.38,17.48-3.65,75.15-5.09,83.29-3.53-28.14.73-76.5,4.87-99.48S168.08,34.62,170,28.75Z"/><path class="cls-49" d="M168.45,227.46c2.75-.14-9.39,13.65-12.58,12.15S149.62,228.48,168.45,227.46Z"/><path class="cls-50" d="M208.18,188.21c-13.1,14.31-32,35.44-32,35.44-10.13,2.95-17.33,4.6-17.29,8.83s-11.48,16.29-6.37,19.05,14.13,2.3,14.13,2.3c-.32,2.39,2,4.84,4.23,3.07s15.28-10.25,16.58-13.53.28-16.59.85-17.88c3.52-6,27.81-31.69,27.81-31.69Z"/><path class="cls-51" d="M224.23,66.62c13.91,10,26.71,43.41,18.06,92.85s-32.88,17.63-40.62-14.21C192.24,106.49,207.91,54.87,224.23,66.62Z"/><path class="cls-52" d="M236.32,180.37c-7.86,21.7-37.23,48.43-47.51,53.23-11.68-2.75-16.24-13.43-16.24-13.43,8.31-27.88,18.89-57.45,30.44-66.49S245.72,154.43,236.32,180.37Z"/><path class="cls-53" d="M154.46,231.53c2.06,12.37,20.65,16.67,28.87,16.58C169.55,278.85,131.1,271.38,154.46,231.53Z"/><path class="cls-54" d="M55.76,62.05C61,54.21,77.31,42.5,93,39.2c-3.26,5.22-9.14,12.4-8.48,21.89-7.18,6.62-27.89,15.35-31.35,17.29S47.25,74.81,55.76,62.05Z"/><path class="cls-55" d="M83.85,59.76c-5.23,0-26.78,13.35-31.35,16.66s-10.45,30-2,30.69c13.95,1.07,27.52-14.46,28.08-18.94C79.92,77.72,83.19,67.93,83.85,59.76Z"/><path class="cls-56" d="M51.2,106.1c-4.47,3.39-7.84,21.76.65,23.74s25.78-4.93,25.47-11.2a142.39,142.39,0,0,1,1.3-30.44C73.4,88.2,53.81,104.11,51.2,106.1Z"/><path class="cls-57" d="M53,127.42c9.31-4.64,15.52-12,23.69-12.09,0,9.41-.1,18,0,29.65.08,10.54-20.22,10.71-23.67,9.23C48.59,152.31,45.09,131.35,53,127.42Z"/><path class="cls-58" d="M76.67,145.1c.65,7.94.65,15.9,2.61,31.78-9.8,2-18.94,3.27-22.86,1.28s-9.8-22.08-2.17-25.87C60.32,149.27,76.67,145.1,76.67,145.1Z"/><path class="cls-59" d="M57.1,176.1c-5.38.34-2.36,22.16,4.54,26.34s16.19,4,18.28,2.62c.93-7.48-1.16-29.68-.9-30.26C63.86,173,58.44,176,57.1,176.1Z"/><path class="cls-60" d="M94.49,35.37c-13.91,28-14.57,60-15.87,83.49s3.63,70.72,1.49,83.68C75.16,144.23,73.48,127,76.66,96,79.27,70.54,82.28,52.45,94.49,35.37Z"/></g></g></svg>