<svg xmlns="http://www.w3.org/2000/svg" xmlns:xlink="http://www.w3.org/1999/xlink" width="213.253" height="664.13" ><defs><linearGradient id="A" x1="-.104" y1="-.341" x2=".27" y2=".483"><stop offset="0" stop-color="#694538"/><stop offset="1" stop-color="#1c1007"/></linearGradient><linearGradient id="B" x1=".492" y1=".72" x2=".481" y2=".406"><stop offset=".641" stop-color="#ffd7a5"/><stop offset="1" stop-color="#faa96c"/></linearGradient><linearGradient id="C" x1=".763" y1=".959" x2=".204" y2="-.091"><stop offset=".219" stop-color="#694538"/><stop offset="1" stop-color="#af6737"/></linearGradient><linearGradient id="D" x1="-.035" y1=".743" x2="1.03" y2=".297" xlink:href="#A"/><linearGradient id="E" x1=".381" y1="-.024" x2=".582" y2=".846"><stop offset="0" stop-color="#5da7c7"/><stop offset="1" stop-color="#374b6b"/></linearGradient><linearGradient id="F" x1=".504" y1=".217" x2=".915" y2="1.451" xlink:href="#E"/><linearGradient id="G" x1="-.504" y1="-.044" x2=".948" y2=".721" xlink:href="#A"/><linearGradient id="H" x1=".547" y1=".865" x2=".489" y2=".324"><stop offset=".464" stop-color="#fabb80"/><stop offset="1" stop-color="#faa16c"/></linearGradient><linearGradient id="I" x1=".589" y1=".155" x2=".475" y2=".938"><stop offset=".334" stop-color="#faf8eb"/><stop offset=".571" stop-color="#f3eede"/><stop offset=".956" stop-color="#e3dac1"/></linearGradient><linearGradient id="J" x1=".949" y1=".129" x2=".161" y2=".844"><stop offset="0" stop-color="#69abbf"/><stop offset=".235" stop-color="#669bae"/><stop offset=".699" stop-color="#617282"/><stop offset=".884" stop-color="#5f616f"/></linearGradient><linearGradient id="K" x1="78.213" y1="-5.045" x2="76.829" y2="-4.337" xlink:href="#J"/><linearGradient id="L" x1=".238" y1=".219" x2=".719" y2="1.429" xlink:href="#A"/><linearGradient id="M" x1=".356" y1=".233" x2="1.001" y2="1.41" xlink:href="#A"/><linearGradient id="N" y1=".5" x2="1" y2=".5"><stop offset="0" stop-color="#ff4541"/><stop offset="1" stop-color="#a64444"/></linearGradient><linearGradient id="O" x1="-.048" y1=".621" x2=".972" y2=".241" xlink:href="#N"/><linearGradient id="P" x1=".193" y1="-.089" x2=".605" y2=".913" xlink:href="#N"/><linearGradient id="Q" x1=".497" y1=".104" x2=".503" y2=".896" xlink:href="#B"/><linearGradient id="R" y1=".64" x2=".621" y2="-.094" xlink:href="#B"/><linearGradient id="S" x1=".395" y1=".988" x2=".551" y2=".166" xlink:href="#B"/><linearGradient id="T" x1=".795" y1="-.279" x2=".175" y2="1.096" xlink:href="#B"/><linearGradient id="U" y1=".5" x2="1" y2=".5"><stop offset="0" stop-color="#5d7d91"/><stop offset="1" stop-color="#374b6b"/></linearGradient><clipPath id="V"><path d="M771.557,265.137c1.561-10.141.78-14.041-3.9-14.041s-7.019,9.359-7.8,13.26A6.665,6.665,0,0,0,771.557,265.137Z" transform="translate(-759.857 -251.096)" fill="none"/></clipPath><linearGradient id="W" x1="39.754" y1="-17.854" x2="39.776" y2="-18.689"><stop offset="0" stop-color="#ddf5f5" stop-opacity=".4"/><stop offset="1" stop-color="#c6d9db" stop-opacity="0"/></linearGradient><linearGradient id="X" x1="1.694" y1="-.044" x2=".57" y2=".494"><stop offset=".641" stop-color="#fabb80"/><stop offset="1" stop-color="#faa96c"/></linearGradient><linearGradient id="Y" x1=".414" y1=".149" x2=".591" y2=".873"><stop offset="0" stop-color="#fff" stop-opacity="0"/><stop offset="1" stop-color="#e4e9eb"/></linearGradient><linearGradient id="Z" x1="-883.895" y1="-2136.187" x2="-883.342" y2="-2134.579"><stop offset="0" stop-color="#fff" stop-opacity=".2"/><stop offset="1" stop-color="#fff"/></linearGradient><linearGradient id="a" x1=".395" y1="1.049" x2=".534" y2=".363" xlink:href="#B"/><linearGradient id="b" x1=".579" y1="-.182" x2=".46" y2=".687"><stop offset=".641" stop-color="#fabb80"/><stop offset="1" stop-color="#faa16c"/></linearGradient><linearGradient id="c" x1="39.755" y1="-17.717" x2="39.777" y2="-18.553" xlink:href="#W"/><linearGradient id="d" x1=".488" y1=".882" x2=".522" y2=".147" xlink:href="#U"/><linearGradient id="e" x1=".482" y1=".953" x2=".517" y2=".075" xlink:href="#U"/><linearGradient id="f" x1="-775.485" y1="-1840.908" x2="-774.932" y2="-1839.3" xlink:href="#Z"/><linearGradient id="g" x1=".508" y1=".208" x2=".489" y2=".663"><stop offset="0" stop-color="#ddf5f5"/><stop offset="1" stop-color="#c6d9db"/></linearGradient><linearGradient id="h" x1=".66" y1=".388" x2=".287" y2=".834" xlink:href="#g"/><linearGradient id="i" x1=".504" y1=".181" y2=".949" xlink:href="#g"/><linearGradient id="j" x1=".498" y1=".478" x2=".389" y2="1.122"><stop offset=".443" stop-color="#ddf5f5"/><stop offset="1" stop-color="#c6d9db"/></linearGradient><linearGradient id="k" x1="-.118" y1=".939" x2=".813" y2=".047" xlink:href="#B"/><linearGradient id="l" x1=".012" y1="-.367" x2=".852" y2="1.095" xlink:href="#A"/><linearGradient id="m" x1="-51.359" y1="-189.543" x2="-51.284" y2="-187.927" xlink:href="#A"/><linearGradient id="n" x1="-3.42" y1="-217.294" x2="-3.361" y2="-215.214" xlink:href="#A"/><linearGradient id="o" x1="-33.214" y1="-77.136" x2="-33.091" y2="-75.47" xlink:href="#A"/><linearGradient id="p" x1="-33.475" y1="-143.129" x2="-33.402" y2="-141.293" xlink:href="#C"/></defs><g transform="translate(-10.79)"><g transform="translate(0 23.164)"><path d="M44.809 263.47L35.25 449.089l48.979 3.881-27.07-185.378z" fill="url(#A)"/><path d="M88.921 544.095c.781 28.08 8.58 75.661 8.58 80.341-10.919.78-36.66 6.241-44.46 4.68s-23.4-5.459-17.16 5.461c18.721 0 74.881 1.559 74.881 1.559 0-14.039-8.58-69.42-6.241-88.92s-15.6-3.121-15.6-3.121z" fill="url(#B)"/><path d="M114.661 634.579l-3.12-20.28-19.5-2.341-2.339 7.6a183.2 183.2 0 0 1-31.98 8c-13.261-6.241-26.633-6.741-28.08-3.12-1.22 2.73-1.22 5.85 0 8.58 3.177.318 17.238 5.2 33.54 5.461 23.721.385 51.479-3.9 51.479-3.9z" fill="url(#C)"/><path d="M116.504 640.818c1.277-3.12 0-9.045 0-9.045s-54.882 9.045-86.862.465c-1.561 3.12-1.544 2.867-.781 3.12 21.061 7.021 42.9 5.46 87.643 5.46z" fill="url(#D)"/><path d="M49.921 306.976l20.826 140.185c2.572 25.178 2.572 108.637 4.133 160.118 19.5 4.68 53.04 2.341 53.04 2.341-8.58-55.381-19.783-218.271-15.352-255.776s-62.647-46.868-62.647-46.868z" fill="url(#E)"/><path d="M148.981 544.095c.78 28.08 8.58 75.661 8.58 80.341-10.919.78-36.66 6.241-44.46 4.68s-23.4-5.459-17.16 5.461c18.721 0 74.881 1.559 74.881 1.559 0-14.039-8.58-69.42-6.241-88.92s-15.6-3.121-15.6-3.121z" fill="url(#B)"/><path d="M174.723 634.579l-3.12-20.28-19.5-2.341-2.341 7.6c-10.398 3.622-21.101 6.3-31.98 8-13.26-6.241-26.632-6.741-28.079-3.12-1.22 2.73-1.22 5.85 0 8.58 3.177.318 17.238 5.2 33.54 5.461 23.721.385 51.48-3.9 51.48-3.9z" fill="url(#C)"/><path d="M176.564 640.818c1.277-3.12 0-9.045 0-9.045s-54.884 9.045-86.862.465c-1.561 3.12-1.544 2.867-.781 3.12 21.061 7.021 42.9 5.46 87.643 5.46z" fill="url(#D)"/><path d="M170.352 305.589c12.95 39.608-2.807 102.376 0 140.8s15.289 148.41 14.508 164.01c-33.54.78-52.26-3.9-52.26-3.9-.78-73.32-8.629-147.941-14.455-169.131S68.043 354.562 67.56 323.357s102.792-17.768 102.792-17.768z" fill="url(#F)"/><path d="M73.75 167.82c-5.454 2.012-42.61 38.42-51.693 52.451s-11.058 22.394-1.033 22.514 41.277-35.959 47.923-46.53 4.803-28.435 4.803-28.435z" fill="url(#G)"/><path d="M141.18 106.516c-3.9 15.6-14.819 42.119-1.559 53.04-17.941 22.619-41.34 46.02-60.84 34.319s17.939-58.052 17.939-58.052z" fill="url(#H)"/><path d="M142.742 160.333c17.939 10.141 30.1 27.9 31.432 36.96s-14.272 78.482-18.952 86.282c11.7 10.919 24.18 15.6 13.26 33.54-24.96 28.86-81.12 23.4-104.521 10.921s-27.3-21.061-24.18-31.98 12.48-32.76 12.48-32.76c.78-27.3 10.141-78 14.041-85.8s14.819-20.28 14.819-20.28c-8.184 25.591 16.379 59.281 61.621 3.117z" fill="url(#I)"/><path d="M152.101 168.137c-16.38 31.2-63.181 148.2-31.2 170.041-3.332 2.092-9.128-.029-9.128-.029-20.512-23.371-.9-104.572 34.869-173.912 1.341 1.719 5.459 3.9 5.459 3.9z" fill="url(#J)"/><path d="M78.001 163.457c-15.6 95.941-31.2 156.781-8.582 166.92a15.49 15.49 0 0 1-8.58-3.12c-19.5-15.6-3.624-68.627 11.7-159.12 3.396-3.107 5.462-4.68 5.462-4.68z" fill="url(#K)"/><path d="M144.301 159.557c-24.18 70.979-22.549 168.052-16.38 203.58s4.741 108.926 4.741 108.926c36.6 3.395 82.984-5.23 91.382-6.768-22.205-59.235-36.842-133.357-49.793-162.581-8.059-18.19-10.744-38.924-10.207-58.282s16.758-43.3 6.305-59.41-26.048-25.465-26.048-25.465z" fill="url(#L)"/><path d="M84.227 153.815c-10.112 33.323-23.387 54.1-31.967 109.483-4.171 26.923-7.119 48.641-3.9 81.12s7.02 116.022 5.461 120.8c-21.061 4.879-42.223-1.437-42.223-1.437C24.18 429.438 31.98 321.797 33.541 298.396s14.79-122.243 50.686-144.581z" fill="url(#M)"/><path d="M73.32 164.237s-20.4 80.233-22.289 97.837c3.57 7.463 12.929-1.9 16.829 2.783 7.021-71.761 9.559-93.6 17.16-110.761-4.297-.779-11.7 10.141-11.7 10.141z" fill="url(#N)"/><path d="M76.051 160.56c-1.17 40.337 26.911 44.967 65.13-3.757 6.241-4.266 7.439 5.7 7.439 5.7-1.978 15.777-83.8 92.366-74.869 5.322.351-5.147 2.3-7.265 2.3-7.265z" fill="url(#O)"/><path d="M78.001 157.003c3.165 4.04 6.409 35.611 32.843 29.222-12.648 8.285-33.958 13.724-37.692-19.342s4.068-10.876 4.849-9.88z" fill="url(#P)"/><g transform="translate(11.597)"><path d="M145.964 1.216c13.144 1.917 0 67.859 2.341 85.02-31.98 42.119-114.079 13.26-113.981 0S76.45 25.827 92.098 24.831c3.213-15.252 16.426-29.076 53.866-23.615z" fill="url(#Q)"/><path d="M135.045 55.036c5.156-12.608 2.339-46.8-34.321-30.421-7.021 0-17.309-6.995-53.5 36.284C27.873 74.914 30.529 93.14 53.93 92.808s74.094-20.612 81.115-37.772z" fill="url(#R)"/><path d="M88.243 31.636c4.542.252-.8 18.079-1.959 19.96s-10.6 8.9-13.292 2.661 1.212-23.401 15.251-22.621z" fill="url(#S)"/><path d="M141.283 58.936c.3-4.736 12.48-18.721 29.641-9.359 14.116 7.7-16.382 23.4-21.061 24.96s-9.359-3.121-8.58-15.601z" fill="url(#T)"/><path d="M85.123 53.476c1.561-10.141.78-14.041-3.9-14.041s-7.019 9.359-7.8 13.26c1.018 2.226 3.175 3.715 5.617 3.878s4.778-1.026 6.083-3.097z" fill="#fff"/><path d="M73.423 52.696c.781-13.26 6.241-14.819 8.58-14.819s6.241 2.339 3.12 15.6c.78-12.482-1.559-14.041-3.9-14.041s-6.239 3.899-7.8 13.26z" fill="url(#U)"/><g clip-path="url(#V)" transform="translate(73.423 39.435)"><circle cx="9.344" cy="11.379" r="5.786" fill="url(#U)"/><path d="M14.107 11.198c.073 1.926-1.021 3.707-2.772 4.512s-3.816.476-5.23-.835-1.9-3.343-1.23-5.151S7.237 6.69 9.163 6.617a4.77 4.77 0 0 1 4.944 4.581z" fill="url(#W)"/><circle cx="5.005" cy="8.751" r="1.94" fill="#fff"/></g><path d="M146.745 58.936c7.8-1.561 10.139 3.12 8.58 7.02 8.58-7.02 12.48-9.361 11.767-11.824-1.247-4.302-18.008 1.684-20.347 4.804z" fill="url(#X)"/><g transform="translate(52.363 39.436)"><ellipse cx="9.126" cy="10.14" rx="7.774" ry="8.112" fill="url(#Y)"/><path d="M9.465.004C4.052.004 0 4.495 0 10.145s4.052 10.139 9.465 10.139 9.463-4.491 9.463-10.139S14.879.004 9.465.004zm-.339 18.253A8.12 8.12 0 0 1 2.919 4.526a8.12 8.12 0 0 1 13.982 5.619 7.95 7.95 0 0 1-7.775 8.108z" fill="#283547"/><ellipse cx="3.479" cy="2.569" rx="3.479" ry="2.569" transform="matrix(.894 -.448 .448 .894 2.296 5.956)" fill="url(#Z)"/></g><path d="M60.163 68.296c-.78 3.9-4.68 9.361-5.459 10.141 5.459 2.339 17.939 2.339 19.5 2.339-6.241 0-15.6-3.119-15.6-3.119.78-2.341 3.119-7.8 3.119-9.361s-1.56 0-1.56 0z" fill="#e36d4f"/><path d="M107.147 54.256c-.182-14.041.6-27.3 11.518-24.18s8.563 17.16 7.4 23.4-18.736 10.14-18.918.78z" fill="url(#a)"/><path d="M89.803 48.795c-2.162-3.245-4.68 3.9-10.919 4.681s-42.6-5.528-45.092 5.815 25.591 14.463 37.292 10.563c5.459 5.459 15.5 3.119 15.549-3.9s4.731-14.819 3.17-17.159z" fill="url(#b)"/><path d="M107.743 54.256c1.559-12.48 5.459-14.041 10.139-14.041s7.021 7.8 7.021 13.261c-5.459 9.36-17.939 10.139-17.16.78z" fill="#fff"/><g fill="url(#U)"><path d="M124.904 53.477c0-13.261-3.9-14.821-7.8-14.821s-9.359 3.12-9.359 15.6c1.559-10.921 5.459-13.062 8.58-13.161s7.801 1.461 8.579 12.382z"/><circle cx="117.087" cy="51.595" r="5.786"/></g><path d="M121.849 51.413c.1 2.629-1.951 4.842-4.58 4.942s-4.842-1.95-4.943-4.58 1.95-4.843 4.579-4.943 4.844 1.951 4.944 4.581z" fill="url(#c)"/><circle cx="112.748" cy="48.967" r="1.94" fill="#fff"/><path d="M105.408 27.735c-.78 3.9 2.237 9.2 3.069 8.888 2.443-3.735 11.118-6.884 17.675.695-2.487-9.024-10.714-12.536-15.34-11.06-.922 1.064-1.451 2.411-1.5 3.818l-.78-3.12z" fill="url(#d)"/><path d="M93.105 29.615c-.182 1.241-2.346 8.261-3.214 8.261-.955-3.12-5.573-9.361-14.141 0 3.146-6.241 9.39-8.721 13.672-8.261 1.544.921 1.195 2.01 1.195 2.01l.7-2.063z" fill="url(#e)"/><g transform="translate(83.564 41.776)"><ellipse cx="10.53" cy="11.699" rx="8.97" ry="9.36" fill="url(#Y)"/><path d="M10.92 0C4.672 0 0 5.182 0 11.7s4.673 11.7 10.92 11.7 10.919-5.182 10.919-11.7S17.166 0 10.92 0zm-.391 21.06A9.37 9.37 0 0 1 3.367 5.217 9.37 9.37 0 0 1 19.5 11.7c.106 5.061-3.91 9.251-8.971 9.36z" fill="#283547"/><ellipse cx="4.014" cy="2.964" rx="4.014" ry="2.964" transform="matrix(.894 -.448 .448 .894 2.648 6.872)" fill="url(#f)"/></g><path d="M70.384 48.967c2.47-3.291 12.042-2.511 13.956.609v1.825c-4.467-3.386-10.047-3.764-13.956-.844a3.61 3.61 0 0 1 0-1.59z" fill="#283547"/><path d="M41.443 70.636c-5.633 17.343 17.762 24.742 58.5 10.139 9.36-3.9 24.96-5.95 24.96-5.95 1.561 1.27 1.244 10.083 1.244 10.083 1.876-1.793 5.776-11.933 5.776-14.272 1.559-4.68 6.688-7.8 6.688-7.8 1.112 5.459 4.617 14.564 9.494 13.912 8.2 3.376 6.6 42.514 3.789 50.182-6.778 6.951-15.359 11.875-24.781 14.218 1.059-4.6.722-9.412-.967-13.82-3.583 13.508-15.309 30.818-50.4 34.253 4.707-4.83 6.828-12.18 5.371-16.463-6.035 14.058-27.2 28.479-28.758 43.3-20.28-17.939-49.92-49.92-47.581-67.081-1.698 2.245-3.261 4.589-4.68 7.02-.774-22.622 1.939-55.278 41.345-57.721z" fill="url(#g)"/><path d="M122.874 99.845c3.59 14.472 6.05 41.987-30.28 53.969 6.118-8.8 10.469-18.438 11.249-21.559-3.9 7.8-13.4 13.542-13.723 13.791.924-8.862 4.363-19.1 12.943-31.265.78 6.089 0 8.115 0 8.115 4.681-4.679 12.321-8.663 19.811-23.051z" fill="url(#h)"/><path d="M48.463 94.816c-15.6 7.021-24.96 27.3-24.18 39.78-7.021-7.8-9.359-22.621-9.359-24.18-4.68 15.6-3.9 33.54 24.18 57.72 11.7-8.58 33.334-19.5 42.017-45.24a37.76 37.76 0 0 1-19.293 9.807c3.015-5.907 1.455-14.487 1.455-14.487-4.68 3.119-11.7 4.68-13.26 6.239-3.899-10.139-3.899-21.839-1.56-29.639z" fill="url(#i)"/><path d="M141.198 78.988c8.665 6.467 11.537 34.614-1.988 47.841-5.992-12.546-5.311-26.984-5.311-26.984 2.607 1.343 4.463 3.798 5.046 6.672 1.562-8.58-.173-23.077 2.253-27.529z" fill="url(#j)"/><path d="M124.905 153.814c-1.559 17.442-5.459 47.861-14.821 47.861-15.9 0-5.735-124.414-5.735-144.887" fill="none" stroke="#283547" stroke-linecap="round" stroke-miterlimit="10" stroke-width=".916"/></g></g><path d="M20.463 218.565c3.716-14.787 7.965-38.187 7.965-38.187-4.249-7.017-9.142-19.4-1.626-28.809s17.076-17.275 19.706-13.343-9.177 8.779-13.023 14.936a35.24 35.24 0 0 1 9.414.7s6.239 14.039 6.239 16.38-10.139 14.819-11.7 17.939-7.255 41.859-7.255 41.859z" fill="url(#k)"/><path d="M39.25 187.93c-.356 11.545-7.759 59.863-9.261 66.722s-17.8 19.257-19.122-.2 14.87-73.292 14.87-73.292z" fill="url(#l)"/><path d="M156.819 9.746c-6.782-9.858-24.141-10.7-27.093-9.111s-8.4 4.9-10.606 8.13c.65 6.701 33.112 6.224 37.699.981z" fill="url(#m)"/><path d="M137.328 30.786c-25.033-3.238-56.974-3.536-59.071 3.589s31.841 15.985 61.523 18.367c33.039 2.651 52.586.775 52.866-5.322s-31.055-13.495-55.318-16.634z" fill="url(#n)"/><path d="M109.573 30.071c1.976-11.5 8.883-20.049 10.452-22.7.439 6.157 6.374 3.02 9.324 1.793s33.528-5.274 36.856 1.016-.577 29.716-.577 29.716c-14.897 1.841-47.296-1.32-56.055-9.825z" fill="url(#o)"/><path d="M111.33 23.334c6.212 8.13 33.868 13.663 55.284 9.366a37.2 37.2 0 0 0-.092 6.975c-11.84 4.435-48.98.483-57.408-9.651.59-2.276 1.33-4.511 2.216-6.69z" fill="url(#p)"/></g></svg>
