<svg xmlns="http://www.w3.org/2000/svg" xmlns:xlink="http://www.w3.org/1999/xlink" width="509.695" height="745.594" ><defs><linearGradient id="A" x1=".562" y1=".71" x2=".529" y2=".467"><stop offset="0" stop-color="#5d7d91"/><stop offset="1" stop-color="#374b6b"/></linearGradient><linearGradient id="B" x1=".384" y1=".29" x2=".573" y2=".994"><stop offset="0" stop-color="#ff5553"/><stop offset="1" stop-color="#a64444"/></linearGradient><radialGradient id="C" cx=".416" cy=".351" r=".689" gradientTransform="translate(0)"><stop offset="0" stop-color="#fa9bcf"/><stop offset="1" stop-color="#d52151"/></radialGradient><linearGradient id="D" xlink:href="#A"/><linearGradient id="E" x1=".392" y1="1.03" x2=".558" y2=".2"><stop offset=".366" stop-color="#fac38f"/><stop offset=".827" stop-color="#faa96c"/></linearGradient><radialGradient id="F" cx=".383" cy=".335" r=".596" gradientTransform="translate(-0.07) scale(1.14 1)"><stop offset="0" stop-color="#ea9d4e"/><stop offset=".294" stop-color="#e78c47"/><stop offset=".873" stop-color="#df6037"/><stop offset=".888" stop-color="#df5f37"/></radialGradient><clipPath id="G"><path d="M158.047 397.207c12.5-1.388 19.445-1.388 34.723-6.945-31.943-16.666-19.818-6.554-41.519-4.153-5.126.555-9.87-2.792-8.481 13.877 0 .001 2.552-1.363 15.277-2.779z" transform="translate(-142.525 -380.875)" fill="none"/></clipPath><linearGradient id="H" x1="-522.429" y1="164.69" x2="-522.25" y2="165.77"><stop offset="0" stop-color="#fff" stop-opacity="0"/><stop offset="1" stop-color="#fff" stop-opacity=".6"/></linearGradient><linearGradient id="I" x1="-22891.998" y1="5560.024" x2="-22890.945" y2="5560.8" xlink:href="#H"/><linearGradient id="J" x1=".486" y1=".238" x2=".634" y2="1.36"><stop offset=".641" stop-color="#ffd7a5"/><stop offset="1" stop-color="#faa96c"/></linearGradient><linearGradient id="K" x1=".648" y1=".979" x2=".511" y2=".204"><stop offset="0" stop-color="#212429"/><stop offset=".198" stop-color="#292f33"/><stop offset=".689" stop-color="#394547"/><stop offset="1" stop-color="#404e4f"/></linearGradient><linearGradient id="L" x1=".478" y1=".093" x2=".586" y2=".888" xlink:href="#J"/><linearGradient id="M" x1="-.381" y1=".787" x2=".036" y2=".653"><stop offset="0" stop-color="#a5457d"/><stop offset=".995" stop-color="#59192f"/></linearGradient><radialGradient id="N" cx=".5" cy=".5" r=".418" gradientTransform="translate(-0.291) scale(1.583 1)"><stop offset="0" stop-color="#ee5f3e"/><stop offset="1" stop-color="#d24133"/></radialGradient><radialGradient id="O" cx=".279" cy=".735" r=".503" gradientTransform="translate(0.043) scale(0.915 1)" xlink:href="#N"/><radialGradient id="P" cx=".488" cy=".487" r=".554" gradientTransform="matrix(0.864, 0.048, -0.04, 0.969, -0.746, 0.279)"><stop offset="0" stop-color="#ba3434"/><stop offset=".465" stop-color="#a92f2f"/><stop offset=".888" stop-color="#962a2a"/></radialGradient><linearGradient id="Q" x1=".487" y1="-.003" x2=".555" y2="1.095" gradientTransform="matrix(1, 0, 0, 1, 0, 0)" xlink:href="#N"/><radialGradient id="R" cx=".289" cy=".105" r=".439" gradientTransform="matrix(2.651, 0.029, -0.095, 1.241, 134.335, 1.206)" xlink:href="#P"/><radialGradient id="S" cx=".5" cy=".5" r=".378" gradientTransform="translate(-0.818) scale(2.635 1)"><stop offset="0" stop-color="#ee5f3e"/></radialGradient><radialGradient id="T" cx=".608" cy=".078" r=".838" gradientTransform="translate(-3.076) scale(7.152 1)" xlink:href="#P"/><linearGradient id="U" x1=".312" y1="1.012" x2=".705" y2=".257"><stop offset=".142" stop-color="#59192f"/><stop offset=".768" stop-color="#a5457d"/></linearGradient><linearGradient id="V" x1="-.074" y1=".98" x2="1.093" y2=".228" xlink:href="#U"/><clipPath id="W"><path d="M339.994 418.372c18.936 24.617-10.515 177.424-21.231 201.213 56.35 60.076 84.38 123.432 88.221 266.666-107.594 28.133-185.63 19.179-185.63 19.179-6.359-117.615-4.58-159.694-10.527-181.5-8.333-30.558-14.568-86.111-8.333-126.39s30.631-137.369 34.065-231.186c41.591-.131 75.656 15.907 103.435 52.018z" transform="translate(-199.961 -366.353)" fill="none"/></clipPath><clipPath id="X"><path d="M176.258 397.26c-15.326 44.862-16.666 152.777 0 209.721 5.956 20.346 10.967 53.9 9.721 72.222s-5.553 163.889-5.553 163.889c-22.225 2.776-40.376-6.775-40.279-12.5 5.75-50.34 24.292-163.135 9.721-181.943s-22.683-35.378-20.834-48.612c3.225-23.05 15.026-97.869 15.28-118.054s-.318-52.8 8.333-63.889c9.597-12.301 23.611-20.834 23.611-20.834z" transform="translate(-128.774 -397.26)" fill="none"/></clipPath><linearGradient id="Y" x1=".198" y1=".039" x2=".874" y2="1.142"><stop offset=".185" stop-color="#a5457d"/><stop offset="1" stop-color="#59192f"/></linearGradient></defs><g transform="translate(-43.406 -167.89)"><g transform="translate(43.407 -10.122)"><path d="M209.922 773.948c-12.737 41.37-21.807 79.085-7.693 132.462-3.962 12.383-11.549 6.46-14.914 1.385-12.286-55.2-29.548-78.46-1.431-145.287 8.439 1.701 24.038 11.44 24.038 11.44z" fill="url(#A)"/><path d="M231.747 895.594c1.273 8.912 0 21.646-6.366 26.738H82.956c10-15.28 41.831-39.473 62.2-47.114 6.369 11.461 44.568 31.834 53.48 34.38 14.011-8.912 30.565-14.004 33.111-14.004z" fill="url(#B)"/><circle cx="115.237" cy="883.496" r="18.463" fill="url(#C)"/><path d="M418.749 773.948c-12.737 41.37-21.807 79.085-7.693 132.462-3.962 12.383-11.549 6.46-14.917 1.385-12.283-55.2-29.545-78.46-1.428-145.287 8.44 1.701 24.038 11.44 24.038 11.44z" fill="url(#D)"/><path d="M440.574 895.594c1.273 8.912 0 21.646-6.366 26.738H291.783c10-15.28 41.831-39.473 62.2-47.114 6.369 11.461 44.568 31.834 53.48 34.38 14.011-8.912 30.565-14.004 33.111-14.004z" fill="url(#B)"/><circle cx="324.064" cy="883.496" r="18.463" fill="url(#C)"/><g transform="translate(17.781)"><path d="M260.862 178.012c33.325 18.521 46.008 27.539 46.008 27.539-7.423 52.207-8.863 164.156-126.011 176.887s-76.4-85.311-53.48-94.226 133.483-110.2 133.483-110.2z" fill="url(#E)"/><path d="M141.386 285.665c-7.639 21.646 1.91 51.695 36.014 51.637 39.749-.067 86.863-26.808 90.682-58.642" fill="none" stroke="#e36d4f" stroke-miterlimit="10" stroke-width=".42"/><path d="M173.038 326.451c3.877-3.183 17.263-.461 20.1 6.642 1.273 3.183 0 23.565-5.732 26.111-8.078 3.592-25.474 4.459-26.111-1.273-1.104-9.949 8.199-28.564 11.743-31.48z" fill="url(#F)"/><g clip-path="url(#G)" transform="matrix(-.998 .07 -.07 -.998 161.64 263.499)" fill="#fff"><path d="M1.309 2.46l3.822 7.639c2.546 1.273 15.28 1.273 19.1-2.546a45.22 45.22 0 0 0-1.273-8.915zm26.084-4.146c-.615 1.6.658 5.42 1.931 6.693 2.546 0 3.819-1.273 5.662-3.983.7-2.386-2.683-4.944-2.683-4.944z"/></g><ellipse cx="9.253" cy="3.293" rx="9.253" ry="3.293" transform="matrix(.464193 -.885734 .885734 .464193 165.419 343.426)" fill="url(#H)"/><ellipse cx="1.574" cy="4.584" rx="1.574" ry="4.584" transform="matrix(.044857 -.998993 .998993 .044857 165.743 355.483)" fill="url(#I)"/></g><path d="M30.561 550.519C12.734 559.431 8.915 568.346 0 573.438c1.273 22.922 7.642 35.653 16.554 39.476 10.188 5.092 25.465 1.273 28.015-12.734s1.273-21.646 5.092-28.015-19.1-21.646-19.1-21.646z" fill="url(#J)"/><path d="M85.314 626.919c-6.366 7.641-14.007 15.28-34.38 15.28-7.639-12.734-11.461-35.653-11.461-40.746-7.639 6.366-14 3.819-15.28 14.007s14.007 95.5 31.834 137.521c1.273 68.757 0 138.791-7.639 169.352-5.092 1.273-16.5 1.273-16.5 1.273 2.492-35.653 16.5-148.979 8.857-168.079s-38.2-109.509-33.1-140.067 47.111-43.295 56.026-38.2 21.643 49.659 21.643 49.659z" fill="url(#K)"/><path d="M48.388 569.619c2.595 9.109-8.915 12.734-9.651 30.709-.218 5.271-4.032 12.289-8.609 10.385-3.434-1.428-4.4-19.063-3.386-24.541-9.791-12.852-1.273-40.745 21.646-16.553z" fill="url(#L)"/><path d="M118.421 311.131c-21.549 29.142-25.558 106.147-29.287 150.255-22.728 33.459-54.753 68.761-61.119 90.406 3.819 8.915 11.458 19.1 21.646 22.919 15.28-11.458 53.48-36.927 70.034-59.846s25.468-138.117 10.184-159.463-19.099-35.356-11.458-44.271z" fill="url(#M)"/><path d="M141.34 290.761c-62.392 39.473-24.192 106.96-19.1 123.513-22.919 68.76-34.38 94.229-33.107 94.229 12.734 11.458 24.2 24.192 43.3 24.192-7.642 15.28 0 32.51 0 32.51-2.549 32.431-19.1 194.144-16.554 260.358 106.96 29.285 288.64 29.285 377.339 0-2.14-91.683 26.308-275.042-75.559-370.54 7.639-19.1 49.66-170.628 19.1-205.008s-72.58-49.661-112.053-44.568c-8.915 89.133-53.48 174.447-134.974 173.174s-52.211-73.86-48.392-87.86z" fill="url(#N)"/><path d="M417.654 455.021c7.639-19.1 49.66-170.628 19.1-205.008s-72.58-49.661-112.053-44.568c-8.915 89.133-53.48 174.447-134.974 173.174s-52.206-73.858-48.387-87.858c-62.392 39.473-24.192 106.96-19.1 123.513-22.919 68.76-34.38 94.229-33.107 94.229 12.734 11.458 24.2 24.192 43.3 24.192 36.926-11.461 72.58-15.28 159.167-5.092 55.087 6.478 104.409-21.652 126.054-72.582z" fill="url(#O)"/><path d="M242.004 567.222c-3.353 69.818 4.974 115.414 69.555 115.6s80.722-54.441 76.717-127.53c-22.967 9.102-104.523 18.308-146.272 11.93z" fill="url(#P)"/><path d="M253.451 568.765c-3.41 61.028 3.431 98.393 58.242 98.9s68.809-44.62 66-108.542c-30.938 5.926-86.173 13.043-124.242 9.642z" fill="url(#Q)"/><path d="M159.167 568.346c-9.642 1.064-34.72-1.688-39.479-3.4 2.483 38.927 2.992 104.611 2.992 104.611 13.201.623 31.121 1.566 36.487-101.211z" fill="url(#R)"/><path d="M150.967 568.346c-8.2 1.273-29.721-2.546-33.819-3.819 3.074 33.107 5.123 89.106 5.123 89.106 11.273.027 26.647 2.574 28.696-85.287z" fill="url(#S)"/><path d="M210.098 521.717c-11.41-7.239-22.455-15.038-22.813-27.205-1.131-38.318 14.286-88.96 16.475-116.548-4.622.51-9.272.729-13.922.655-5.325-.059-10.64-.505-15.9-1.337-1.406 42.352-23.356 105.159-17.969 118.366 5.763 14.144 13.863 23.568 26.42 27.133 7.236 22.416-12.561 289.982 0 316.157 12.289 1.749 24.968 3.231 37.9 4.45l-10.191-321.671z" fill="url(#T)"/><path d="M442.705 254.162c18.936 24.617-10.515 177.424-21.231 201.213 56.35 60.076 84.38 123.432 88.221 266.666-107.594 28.133-185.63 19.179-185.63 19.179-6.359-117.615-4.58-159.694-10.527-181.5-8.333-30.558-14.568-86.111-8.333-126.39s30.631-137.369 34.065-231.186c41.591-.131 75.656 15.907 103.435 52.018z" fill="url(#U)"/><path d="M134.372 295.83c-15.326 44.862-16.666 152.777 0 209.721 5.956 20.346 10.967 53.9 9.721 72.222s-5.553 163.889-5.553 163.889c-22.225 2.776-40.376-6.775-40.279-12.5 5.75-50.34 24.292-163.135 9.721-181.943s-22.683-35.378-20.834-48.612c3.225-23.05 15.026-97.869 15.28-118.054s-.318-52.8 8.333-63.889c9.597-12.301 23.611-20.834 23.611-20.834z" fill="url(#V)"/><g clip-path="url(#W)" transform="translate(302.673 202.143)" opacity=".2" fill="#211c20"><path d="M15.176 18.54l-4.944-5.556c23.441-20.846 92.962-57.227 95.911-58.766l3.44 6.593c-.712.372-71.652 37.495-94.407 57.729zM6.368 69.045l-6.878-2.84c6.866-16.626 114.168-91.337 126.378-99.8l4.238 6.114C84.674 4.007 10.903 58.057 6.368 69.045zm-3.619 53.926l-5.008-5.5C12.852 103.717 146.914 14.544 152.612 10.754l4.119 6.193c-1.39.925-139.287 92.647-153.982 106.024zm-7.5 60.861l-5.014-5.5c20.036-18.263 164.59-116.824 170.734-121.01l4.189 6.147c-1.5 1.024-150.263 102.449-169.909 120.363zm-9.372 55.869l-5.365-5.15c10.705-11.152 168.265-111.125 174.965-115.375l3.983 6.281C114.021 154.274-5.751 230.98-14.123 239.701zm-3.777 57.112l-4.319-6.053c16.875-12.049 168.448-108.7 174.893-112.813l4 6.272L-17.9 296.813zm2.328 56.465l-5.508-5c11.979-13.188 151.493-101.869 157.433-105.639l3.986 6.281C100.157 274.439-6.187 342.944-15.572 353.278zM6.006 465.936l-6.156-4.171c17.918-26.453 172.716-138.612 179.3-143.374l4.359 6.026c-1.6 1.158-160.313 116.144-177.503 141.519z"/><path d="M9.092 522.075l-6.178-4.147c16.833-25.092 194.348-156.635 201.896-162.222l4.426 5.978C145.652 408.75 21.992 502.842 9.092 522.075zm.716 46.041l-6.611-3.407c6.144-12.095 169.009-134.474 201.6-158.885l4.459 5.956C132.027 469.628 15.181 559.001 9.808 568.116zm34.14 21.116l-5.174-5.341c10.4-10.082 168.018-128.3 174.72-133.329l4.465 5.95-174.011 132.72zm87.627-20.682l-6.062-4.31c13.049-18.351 94.732-74.447 98.2-76.826l4.207 6.135c-.837.575-84.056 57.714-96.345 75.001zm36.511-496.443c-4.68-12.3-66.547-76.981-106.99-117.46l5.265-5.256C76.773-40.188 168.286 51.728 175.04 69.458zm-.133 51.104C162.7 102.053 58.444-1.139 18.716-39.114l5.141-5.378c14.78 14.129 144.586 138.8 151.316 165.911zm-5.744 59.01C155.668 161.833 37.78 62.778-7.091 26.331l4.689-5.775c16.689 13.555 163.289 133.185 171.689 159.39zm-10.882 56.531c-5.841-12.022-98-97.036-158.518-151.243l4.962-5.541C13.291 95.874 149.66 218.297 158.02 235.503zM1.49 400.259l-4.756-5.72c16.76-13.931 141.076-96.526 163.653-111.5-15.75-16.178-113.044-82.583-174.784-123.335l4.1-6.208c28.727 18.96 172.389 114.283 179.4 128.833l1.407 2.922-2.7 1.791L1.49 400.259z"/><path d="M189.766 342.514c-7.457-9.112-128.745-81.843-208.454-128.509l3.759-6.42c20.415 11.952 199.752 117.142 210.452 130.216zm14.277 51.025c-5.038-6.754-67.108-39.176-116.978-65.226-45.629-23.835-88.727-46.347-100.452-55.017l4.423-5.984c11.258 8.327 54.107 30.709 99.473 54.408 70.585 36.872 113.85 59.8 119.5 67.369zM213.125 437c-10.943-10.713-95.687-45.171-151.764-67.972-41.055-16.693-62.64-25.532-66.023-28.257l4.656-5.8c3.077 2.331 32.752 14.4 64.171 27.169 77.784 31.628 143.077 58.691 154.165 69.546zm.142 42.683c-15.29-13.474-199.825-89.479-217.506-91.949l1.027-7.366c10.015 1.4 63.5 22.24 111.167 42.107 22.989 9.582 98.885 41.628 110.231 51.628zm6.514 47.923c-21.019-15.311-195.3-82.607-213.662-84.559l.788-7.4c19.576 2.082 194.8 69.591 217.254 85.944zm-15.105 41.675c-17.951-14.6-172.428-72.771-196.9-81.461l2.492-7.008c14.629 5.2 179.176 66.493 199.1 82.7zm-93.886 7.765c-10.367-10.3-52.31-21.779-77.369-28.639-15.387-4.213-22.9-6.311-25.553-7.957l3.919-6.323c1.855 1.152 12.91 4.177 23.6 7.105 29.073 7.96 68.891 18.857 80.646 30.536z"/></g><path d="M336.688 197.806c-1.855 34.935-36.972 209.985-33.534 255.393 31.879-30.018 60.74-94 66.117-106.936a102.63 102.63 0 0 0-23.789-12.934c17.423-3.074 31.946-13.889 31.946-13.889.782-43.562 1.734-105.426-15.8-117.3-17.013-1.515-24.94-4.334-24.94-4.334z" fill="#59192f"/><g transform="translate(86.888 295.83)" clip-path="url(#X)"><g opacity=".3" fill="#211c20"><path d="M-38.336-9.815l-4.229-4.756C-22.507-32.41 36.99-63.547 39.512-64.862l2.946 5.644c-.609.319-61.319 32.086-80.794 49.403zm-7.539 43.219l-5.884-2.428c5.878-14.232 97.7-78.166 108.151-85.411l3.628 5.232C21.142-22.252-41.992 24.004-45.875 33.404zm-3.095 46.147l-4.286-4.7c12.931-11.77 127.657-88.084 132.534-91.328l3.525 5.3c-1.191.789-119.196 79.282-131.773 90.728zm-6.42 52.086l-4.289-4.7c17.145-15.634 140.855-99.98 146.114-103.563l3.586 5.262c-1.286.873-128.597 87.667-145.411 103.001zm-8.021 47.812l-4.592-4.407c9.163-9.545 144-95.1 149.737-98.736l3.41 5.377c-38.887 24.661-141.387 90.303-148.555 97.766zm-3.231 48.875l-3.7-5.18c14.444-10.312 144.156-93.025 149.67-96.542l3.422 5.368-149.392 96.354zm1.989 48.32l-4.711-4.28c10.249-11.285 129.649-87.178 134.726-90.4l3.413 5.374c-34.386 21.84-125.393 80.461-133.428 89.306zm18.472 96.412l-5.271-3.571c15.335-22.634 147.809-118.621 153.441-122.7l3.732 5.156c-1.373.996-137.191 99.402-151.902 121.115z"/><path d="M-43.541 421.098l-5.286-3.547c14.4-21.476 166.317-134.047 172.777-138.83l3.789 5.117c-54.417 40.279-160.24 120.8-171.28 137.26zm.608 39.4l-5.659-2.913c5.259-10.352 144.642-115.081 172.526-135.969l3.819 5.093C61.661 376.214-38.333 452.698-42.933 460.498zm29.223 18.073L-18.142 474c8.906-8.63 143.786-109.8 149.524-114.1l3.819 5.089L-13.71 478.571zm74.985-17.701l-5.186-3.689c11.167-15.7 81.07-63.71 84.038-65.747l3.6 5.253c-.716.491-71.933 49.391-82.452 64.183zM92.522 36.023c-4-10.521-56.951-65.875-91.558-100.516l4.5-4.5c8.909 8.921 87.227 87.578 93 102.753zm-.112 43.738C87.91 61.649-1.306-26.656-35.305-59.157l4.4-4.6C-18.259-51.665 92.827 55.031 98.586 78.229zm-4.917 50.496C81.893 112.806-18.991 28.038-57.391-3.153l4.013-4.941c14.28 11.6 139.737 113.98 146.93 136.405zm-9.315 48.379c-5-10.288-83.862-83.041-135.657-129.43l4.247-4.741c13.286 11.9 129.985 116.666 137.136 131.392zm-128.23 138.217l-4.068-4.9c14.344-11.919 120.731-82.6 140.049-95.417C72.452 202.689-10.81 145.86-63.647 110.989l3.507-5.314c24.586 16.226 147.53 97.8 153.529 110.255l1.206 2.5-2.316 1.534-142.331 96.889z"/><path d="M111.073 267.433c-6.378-7.8-110.176-70.039-178.388-109.973l3.216-5.5c17.469 10.227 170.946 100.246 180.1 111.437zm12.219 43.668c-4.31-5.781-57.43-33.526-100.109-55.82-39.045-20.4-75.929-39.661-85.96-47.081l3.783-5.12c9.636 7.126 46.305 26.278 85.123 46.556 60.409 31.555 97.436 51.179 102.268 57.654zm7.768 37.192c-9.363-9.169-81.879-38.654-129.867-58.166-35.141-14.286-53.613-21.852-56.511-24.186l3.986-4.965c2.634 1.995 28.033 12.322 54.923 23.256 66.569 27.062 122.438 50.224 131.926 59.512zm.129 36.527c-13.086-11.531-171-76.572-186.139-78.685l.882-6.3c16.256 2.267 175.317 67.745 189.464 80.215zm5.574 41.013c-17.987-13.1-167.136-70.694-182.85-72.365l.673-6.332c16.757 1.782 166.708 59.554 185.923 73.553zm-12.926 35.662c-15.365-12.492-147.563-62.277-168.506-69.712l2.131-6c12.522 4.444 153.335 56.905 170.388 70.77zm-80.349 6.647c-8.872-8.815-44.768-18.642-66.214-24.514-13.165-3.6-19.594-5.4-21.864-6.8l3.353-5.411c1.588.982 11.046 3.574 20.191 6.078 24.883 6.811 58.96 16.141 69.021 26.135z"/></g></g><g fill="#59192f"><path d="M141.316 290.274c-26.39 33.334-19.561 154.45-13.947 182.086-24.883-23.892-41.61-80.7-41.61-80.7a39.64 39.64 0 0 0 20.582-14.38c-7.136.347-14.273-.67-21.028-2.995 6.003-24.29 19.892-70.122 56.003-84.011z"/><circle cx="330.899" cy="486.801" r="18.75"/><circle cx="343.399" cy="582.635" r="15.972"/></g><circle cx="350.343" cy="686.801" r="14.583" fill="#441527"/><path d="M431.969 246.277c37.023 24.786 77.366 132.34 65.9 192.189-29.285 15.277-40.746 12.731-40.746 12.731-31.834-43.292-47.114-72.58-63.665-105.687s-3.205-127.156 38.511-99.233z" fill="url(#Y)"/></g><path d="M297.281 309.849c17.287-10.679 30.076-25.353 31.989-41.31" fill="none" stroke="#e36d4f" stroke-miterlimit="10" stroke-width=".42"/></g></svg>
