<svg xmlns="http://www.w3.org/2000/svg" xmlns:xlink="http://www.w3.org/1999/xlink" viewBox="0 0 155.21 533.04"><defs><style>.cls-1,.cls-47{fill:none;}.cls-2{fill:url(#Безымянный_градиент_322);}.cls-3{fill:url(#Безымянный_градиент_1987);}.cls-4{fill:url(#Безымянный_градиент_1988);}.cls-5{fill:url(#Безымянный_градиент_159);}.cls-6{fill:url(#Безымянный_градиент_159-2);}.cls-7{fill:url(#Безымянный_градиент_783);}.cls-8{fill:#602847;}.cls-9{fill:url(#Безымянный_градиент_1977);}.cls-10{fill:url(#Безымянный_градиент_908);}.cls-11{fill:#a2aaae;}.cls-12{fill:#a9bcca;}.cls-13{fill:#d23c3e;}.cls-14{fill:url(#Безымянный_градиент_598);}.cls-15{fill:url(#Безымянный_градиент_492);}.cls-16{fill:url(#Безымянный_градиент_600);}.cls-17{fill:url(#Безымянный_градиент_159-3);}.cls-18{fill:url(#Безымянный_градиент_159-4);}.cls-19{fill:url(#Безымянный_градиент_159-5);}.cls-20{fill:url(#Безымянный_градиент_159-6);}.cls-21{fill:url(#Безымянный_градиент_150);}.cls-22{fill:url(#Безымянный_градиент_150-2);}.cls-23{fill:url(#Новый_образец_градиента_копия_4);}.cls-24{fill:url(#Безымянный_градиент_122);}.cls-25{fill:#283547;}.cls-26{fill:url(#Безымянный_градиент_122-2);}.cls-27{clip-path:url(#clip-path);}.cls-28{fill:url(#Безымянный_градиент_744);}.cls-29{fill:url(#Безымянный_градиент_725);}.cls-30{fill:#fff;}.cls-31{clip-path:url(#clip-path-2);}.cls-32{fill:url(#Безымянный_градиент_744-2);}.cls-33{fill:url(#Безымянный_градиент_725-2);}.cls-34{fill:url(#Безымянный_градиент_744-3);}.cls-35{fill:url(#Безымянный_градиент_744-4);}.cls-36{fill:#871131;}.cls-37{fill:url(#Безымянный_градиент_1808);}.cls-38{fill:url(#Безымянный_градиент_1808-2);}.cls-39{fill:url(#Безымянный_градиент_762);}.cls-40{fill:url(#Безымянный_градиент_762-2);}.cls-41{fill:url(#Безымянный_градиент_201);}.cls-42{fill:url(#Безымянный_градиент_493);}.cls-43{fill:url(#Новый_образец_градиента_копия_2);}.cls-44{fill:url(#Безымянный_градиент_2127);}.cls-45{clip-path:url(#clip-path-3);}.cls-46{opacity:0.1;}.cls-47{stroke:#000;stroke-miterlimit:10;stroke-width:1.31px;}.cls-48{fill:url(#Безымянный_градиент_2127-2);}.cls-49{fill:url(#Безымянный_градиент_446);}.cls-50{fill:url(#Безымянный_градиент_1977-2);}.cls-51{fill:url(#Безымянный_градиент_1977-3);}.cls-52{fill:url(#Безымянный_градиент_1977-4);}.cls-53{fill:url(#Безымянный_градиент_1977-5);}.cls-54{fill:url(#Безымянный_градиент_1977-6);}.cls-55{fill:url(#Безымянный_градиент_1785);}.cls-56{fill:url(#Безымянный_градиент_1785-2);}</style><linearGradient id="Безымянный_градиент_322" x1="90.02" y1="-7.66" x2="96.53" y2="185.9" gradientUnits="userSpaceOnUse"><stop offset="0" stop-color="#6d515b"/><stop offset="1" stop-color="#1b2139"/></linearGradient><linearGradient id="Безымянный_градиент_1987" x1="34.02" y1="27.98" x2="99.37" y2="12.42" gradientUnits="userSpaceOnUse"><stop offset="0.47" stop-color="#fff" stop-opacity="0"/><stop offset="1" stop-color="#e4e9eb" stop-opacity="0.4"/></linearGradient><linearGradient id="Безымянный_градиент_1988" x1="103.08" y1="17.61" x2="131.42" y2="44.62" gradientUnits="userSpaceOnUse"><stop offset="0" stop-color="#fff" stop-opacity="0"/><stop offset="1" stop-color="#e4e9eb" stop-opacity="0.4"/></linearGradient><linearGradient id="Безымянный_градиент_159" x1="106.82" y1="452.92" x2="107.93" y2="368.23" gradientUnits="userSpaceOnUse"><stop offset="0.64" stop-color="#ffd7a5"/><stop offset="1" stop-color="#faa96c"/></linearGradient><linearGradient id="Безымянный_градиент_159-2" x1="74.95" y1="452.51" x2="76.06" y2="367.81" xlink:href="#Безымянный_градиент_159"/><linearGradient id="Безымянный_градиент_783" x1="87.26" y1="127.15" x2="88.15" y2="88.47" gradientUnits="userSpaceOnUse"><stop offset="0.46" stop-color="#fabb80"/><stop offset="1" stop-color="#faa16c"/></linearGradient><linearGradient id="Безымянный_градиент_1977" x1="70.77" y1="133.1" x2="48.09" y2="176.78" gradientUnits="userSpaceOnUse"><stop offset="0" stop-color="#f55"/><stop offset="1" stop-color="#922855"/></linearGradient><linearGradient id="Безымянный_градиент_908" x1="-10.94" y1="199.46" x2="-8.07" y2="262.51" gradientTransform="translate(-152.04 6.23) rotate(-55.27)" gradientUnits="userSpaceOnUse"><stop offset="0" stop-color="#fff5f5"/><stop offset="1" stop-color="#c6d9db"/></linearGradient><linearGradient id="Безымянный_градиент_598" x1="-10.9" y1="201.09" x2="-8.71" y2="249.35" gradientTransform="translate(40.01 -84.22)" gradientUnits="userSpaceOnUse"><stop offset="0" stop-color="#ddf5f5" stop-opacity="0"/><stop offset="1" stop-color="#fafff5" stop-opacity="0.4"/></linearGradient><linearGradient id="Безымянный_градиент_492" x1="-11.4" y1="270.3" x2="-8.09" y2="274.68" gradientTransform="translate(-152.04 6.23) rotate(-55.27)" gradientUnits="userSpaceOnUse"><stop offset="0" stop-color="#5d7d91"/><stop offset="1" stop-color="#374b6b"/></linearGradient><linearGradient id="Безымянный_градиент_600" x1="-14.91" y1="198.12" x2="-9.63" y2="205.09" gradientTransform="translate(-42.65 -64.99) rotate(-17.64)" gradientUnits="userSpaceOnUse"><stop offset="0" stop-color="#ddf5f5" stop-opacity="0"/><stop offset="1" stop-color="#faffff" stop-opacity="0.5"/></linearGradient><linearGradient id="Безымянный_градиент_159-3" x1="83.82" y1="33.22" x2="72.76" y2="105.8" xlink:href="#Безымянный_градиент_159"/><linearGradient id="Безымянный_градиент_159-4" x1="87.17" y1="71.94" x2="85.84" y2="47.39" xlink:href="#Безымянный_градиент_159"/><linearGradient id="Безымянный_градиент_159-5" x1="60.68" y1="72.93" x2="59.39" y2="49.01" xlink:href="#Безымянный_градиент_159"/><linearGradient id="Безымянный_градиент_159-6" x1="47" y1="-382.69" x2="31.52" y2="-353.52" gradientTransform="translate(100.61 427.37) rotate(-3.74)" xlink:href="#Безымянный_градиент_159"/><radialGradient id="Безымянный_градиент_150" cx="58.97" cy="62.2" r="7.81" gradientUnits="userSpaceOnUse"><stop offset="0" stop-color="#f01749"/><stop offset="0.43" stop-color="#f01749" stop-opacity="0.54"/><stop offset="0.82" stop-color="#f01749" stop-opacity="0.15"/><stop offset="1" stop-color="#f01749" stop-opacity="0"/></radialGradient><radialGradient id="Безымянный_градиент_150-2" cx="86.57" cy="59.92" r="10.85" xlink:href="#Безымянный_градиент_150"/><linearGradient id="Новый_образец_градиента_копия_4" x1="-1886.78" y1="-938.98" x2="-1904.22" y2="-933.54" gradientTransform="matrix(0.72, -0.14, 0.15, 0.75, 1622.41, 485.62)" gradientUnits="userSpaceOnUse"><stop offset="0.64" stop-color="#fabb80"/><stop offset="1" stop-color="#faa96c"/></linearGradient><radialGradient id="Безымянный_градиент_122" cx="86.96" cy="59.65" r="8.4" gradientUnits="userSpaceOnUse"><stop offset="0.41" stop-color="#fcffff"/><stop offset="0.48" stop-color="#fcfafb"/><stop offset="0.55" stop-color="#fbebef"/><stop offset="0.64" stop-color="#fad3dc"/><stop offset="0.72" stop-color="#f8b1c2"/><stop offset="0.82" stop-color="#f6859f"/><stop offset="0.91" stop-color="#f35176"/><stop offset="1" stop-color="#f01749"/></radialGradient><radialGradient id="Безымянный_градиент_122-2" cx="60.7" cy="63.33" r="5.26" xlink:href="#Безымянный_градиент_122"/><clipPath id="clip-path"><path class="cls-1" d="M66.65,66.37C60,59,54.75,55.05,54.75,64.19,58.84,67.45,64.53,69.2,66.65,66.37Z"/></clipPath><linearGradient id="Безымянный_градиент_744" x1="57.75" y1="63.92" x2="64.3" y2="63.92" gradientUnits="userSpaceOnUse"><stop offset="0" stop-color="#bb9bb7"/><stop offset="0.67" stop-color="#7b3f3f"/></linearGradient><linearGradient id="Безымянный_градиент_725" x1="1.17" y1="-34.58" x2="1.3" y2="-39.61" gradientTransform="translate(61.21 101.41) rotate(-2.18)" gradientUnits="userSpaceOnUse"><stop offset="0" stop-color="#ddf5f5" stop-opacity="0.4"/><stop offset="1" stop-color="#c6d9db" stop-opacity="0"/></linearGradient><clipPath id="clip-path-2"><path class="cls-1" d="M76.83,65.83c3.94-11.44,15-16.66,20.27-8.17A34.72,34.72,0,0,1,76.83,65.83Z"/></clipPath><linearGradient id="Безымянный_градиент_744-2" x1="84.69" y1="59.02" x2="93.45" y2="59.02" xlink:href="#Безымянный_градиент_744"/><linearGradient id="Безымянный_градиент_725-2" x1="29.37" y1="-37.84" x2="29.52" y2="-43.87" xlink:href="#Безымянный_градиент_725"/><linearGradient id="Безымянный_градиент_744-3" x1="80.34" y1="43.83" x2="81.92" y2="56.26" xlink:href="#Безымянный_градиент_744"/><linearGradient id="Безымянный_градиент_744-4" x1="57.71" y1="45.86" x2="59.46" y2="59.53" xlink:href="#Безымянный_градиент_744"/><linearGradient id="Безымянный_градиент_1808" x1="65.07" y1="83.21" x2="79.35" y2="83.21" gradientUnits="userSpaceOnUse"><stop offset="0" stop-color="#fa9ea5"/><stop offset="1" stop-color="#f7496d"/></linearGradient><linearGradient id="Безымянный_градиент_1808-2" x1="66.48" y1="89.74" x2="79.35" y2="89.74" xlink:href="#Безымянный_градиент_1808"/><linearGradient id="Безымянный_градиент_762" x1="880.05" y1="169.38" x2="880.05" y2="173.33" gradientTransform="translate(-785.65 -211.23) rotate(7.77)" gradientUnits="userSpaceOnUse"><stop offset="0" stop-color="#c3a19b"/><stop offset="0.23" stop-color="#c0a597"/><stop offset="0.46" stop-color="#b7af8b"/><stop offset="0.69" stop-color="#a7c176"/><stop offset="0.92" stop-color="#92d95a"/><stop offset="1" stop-color="#89e34f"/></linearGradient><linearGradient id="Безымянный_градиент_762-2" x1="68.05" y1="74.77" x2="68.05" y2="81.62" gradientTransform="matrix(1, 0, 0, 1, 0, 0)" xlink:href="#Безымянный_градиент_762"/><linearGradient id="Безымянный_градиент_201" x1="68.82" y1="57.77" x2="65.33" y2="75.49" gradientUnits="userSpaceOnUse"><stop offset="0.22" stop-color="#ffd7a5"/><stop offset="0.84" stop-color="#fa5763"/></linearGradient><radialGradient id="Безымянный_градиент_493" cx="70.8" cy="76.02" r="3.62" gradientUnits="userSpaceOnUse"><stop offset="0" stop-color="#fcffff" stop-opacity="0.4"/><stop offset="0.18" stop-color="#f8fef9" stop-opacity="0.42"/><stop offset="0.36" stop-color="#edfbe8" stop-opacity="0.48"/><stop offset="0.54" stop-color="#daf7cc" stop-opacity="0.58"/><stop offset="0.72" stop-color="#c0f0a3" stop-opacity="0.71"/><stop offset="0.9" stop-color="#9fe870" stop-opacity="0.89"/><stop offset="1" stop-color="#89e34f"/></radialGradient><linearGradient id="Новый_образец_градиента_копия_2" x1="66.46" y1="113.12" x2="105.47" y2="113.12" gradientTransform="matrix(1, 0, 0, 1, 0, 0)" xlink:href="#Безымянный_градиент_492"/><linearGradient id="Безымянный_градиент_2127" x1="35.72" y1="162.92" x2="127.79" y2="162.92" gradientUnits="userSpaceOnUse"><stop offset="0" stop-color="#b5ffff"/><stop offset="0.67" stop-color="#89c9ff"/></linearGradient><clipPath id="clip-path-3"><path class="cls-1" d="M100.56,101.8c-.39,9-3.69,14.47,1,16.18s26.23,8.9,26.23,14.77-15.67,32.65-18.94,48.32S95.14,212.42,96.44,217c-32,13.71-44.12,7.18-45.57,0s1.82-22.86-1.44-26.12-11.76-9.14-13.71-15.67c5.22-7.84,16.32-21.55,15.67-28.08s2-20.9,7.18-23.51,16.45-4.49,17.37-8.45A92.78,92.78,0,0,0,77.38,105C82.08,101.41,97.49,99.58,100.56,101.8Z"/></clipPath><linearGradient id="Безымянный_градиент_2127-2" x1="73.54" y1="109.04" x2="102.58" y2="109.04" xlink:href="#Безымянный_градиент_2127"/><linearGradient id="Безымянный_градиент_446" x1="89.84" y1="217.2" x2="102.51" y2="359.25" gradientUnits="userSpaceOnUse"><stop offset="0" stop-color="#404e4f"/><stop offset="0.31" stop-color="#3a4647"/><stop offset="0.8" stop-color="#292f33"/><stop offset="1" stop-color="#212429"/></linearGradient><linearGradient id="Безымянный_градиент_1977-2" x1="111.33" y1="434.57" x2="119.3" y2="523.99" xlink:href="#Безымянный_градиент_1977"/><linearGradient id="Безымянный_градиент_1977-3" x1="66.68" y1="435.93" x2="74.54" y2="524.02" xlink:href="#Безымянный_градиент_1977"/><linearGradient id="Безымянный_градиент_1977-4" x1="108.37" y1="127.69" x2="92.7" y2="234.73" xlink:href="#Безымянный_градиент_1977"/><linearGradient id="Безымянный_градиент_1977-5" x1="54.3" y1="129.44" x2="47.3" y2="231.47" xlink:href="#Безымянный_градиент_1977"/><linearGradient id="Безымянный_градиент_1977-6" x1="119.28" y1="116.54" x2="124.95" y2="208.58" xlink:href="#Безымянный_градиент_1977"/><linearGradient id="Безымянный_градиент_1785" x1="75.34" y1="118.05" x2="85.84" y2="166.06" gradientUnits="userSpaceOnUse"><stop offset="0.22" stop-color="#5f89bf"/><stop offset="1" stop-color="#183773"/></linearGradient><linearGradient id="Безымянный_градиент_1785-2" x1="111.98" y1="106.44" x2="61.47" y2="139.95" xlink:href="#Безымянный_градиент_1785"/></defs><g id="Слой_2" data-name="Слой 2"><g id="Слой_2-2" data-name="Слой 2"><path class="cls-2" d="M107.55,17.17C106.89-.46,94.49-.46,86.65.19S53.35,7.38,33.1,34.8c7.84,32,15,60.73,12.41,96.65,2.61.65,9.14-.66,9.14-.66,1.31-7.83,2-24.16,2-28.73,2,11.76,3.27,20.24,3.27,25.47,3.26,3.26,57.46,74.44,67.25,78.36a89.83,89.83,0,0,0,28.08-9.8c-10.44-35.26-31.84-110-26.12-129.29s9.15-32.65,9.15-32.65C133,15.87,112.73,11.07,107.55,17.17Z"/><path class="cls-3" d="M43.16,29.58c24.29,2.61,40.88.14,51-7.11-5.23-2.1-10.3-4.7-13.8-4.67,8-3.87,16.6-3.3,20.91,0C98.8.22,76.08-3.07,43.16,29.58Z"/><path class="cls-4" d="M115.71,21.58c4.57,4.25,5.55,7.35,5.55,7.35a14.58,14.58,0,0,0-10.45-2A64.16,64.16,0,0,1,119.3,40c-3.92.46-11.1-2.62-11.75-4.57,2,5.22,4.57,9.14,16.27,10.79,3.46.49,11.47-12.34,11.47-12.34C129.75,25.66,123.87,20.1,115.71,21.58Z"/><path class="cls-5" d="M96.44,215.68c19.59,9.8,41.23,32.38,41.84,46.23s-9.84,74.58-12.45,86.33c13.71,19.59,19.59,32.65,18.94,50.93s-24.5,108.53-24.5,108.53-13.38-131.38-13.38-141.18c-15-32.64-37.25-131.39-34-148.95C91.89,211.18,96.44,215.68,96.44,215.68Z"/><path class="cls-6" d="M80.77,217.64c16.68,18,23.48,32.27,23.3,46.13s-8.92,80.07-12.2,91.65c12.57,20.35,12.51,27.54,10.81,45.76S72,508.12,72,508.12s-5.51-126.59-5-136.37C53.94,338.29,47.11,234.33,51.39,217,70.69,211.7,80.77,217.64,80.77,217.64Z"/><path class="cls-7" d="M99.71,84.26c0,10.62-.79,32.24-.79,32.24s-21.94,3.33-23,0c1.57-6,1.6-13.94,1.58-22.68S99.71,84.26,99.71,84.26Z"/><path class="cls-8" d="M24.1,222.68c-2.05,16.52,34.79-12.63,33-18.65S26.2,205.82,24.1,222.68Z"/><path class="cls-9" d="M49.16,130.17c-5.44,10-32.19,75.46-24.83,95.19,7-18.7,30-24,32.75-21.33,1.83-21.09,2.94-44.94,5.68-56.74S56.74,116.19,49.16,130.17Z"/><path class="cls-10" d="M3,135.72,46.66,166a10.49,10.49,0,0,0,7.59,1.76l1.7-.26A7,7,0,0,1,61,168.64l5.5,3.81a2.46,2.46,0,0,0,3.42-.62h0a2.46,2.46,0,0,0-.62-3.42l-5.5-3.82a7,7,0,0,1-2.88-4.32l-.35-1.68a10.51,10.51,0,0,0-4.31-6.49L12.64,121.85a7,7,0,0,0-9.79,1.78l-1.6,2.31A7,7,0,0,0,3,135.72Z"/><path class="cls-11" d="M54.42,156l-4.8,6.93a.35.35,0,0,1-.58-.4l4.81-6.93a.35.35,0,0,1,.49-.09A.34.34,0,0,1,54.42,156Z"/><path class="cls-11" d="M47.49,151.15l-4.8,6.93a.35.35,0,1,1-.58-.4l4.81-6.94a.35.35,0,0,1,.48-.08A.35.35,0,0,1,47.49,151.15Z"/><path class="cls-11" d="M40.56,146.34l-4.8,6.93a.35.35,0,0,1-.58-.4l4.8-6.93a.35.35,0,1,1,.58.4Z"/><path class="cls-11" d="M33.63,141.54l-4.81,6.93a.35.35,0,0,1-.49.09.36.36,0,0,1-.08-.49l4.8-6.93a.35.35,0,0,1,.58.4Z"/><path class="cls-11" d="M26.7,136.73l-4.81,6.93a.35.35,0,1,1-.58-.4l4.81-6.93a.35.35,0,1,1,.58.4Z"/><path class="cls-11" d="M19.76,131.93,15,138.86a.35.35,0,0,1-.58-.4l4.81-6.93a.35.35,0,1,1,.57.4Z"/><path class="cls-11" d="M12.83,127.12,8,134.05a.35.35,0,0,1-.58-.4l4.8-6.93a.35.35,0,0,1,.58.4Z"/><rect class="cls-12" x="35.16" y="114.09" width="2.81" height="69.23" rx="1.41" transform="translate(-106.48 94.05) rotate(-55.27)"/><rect class="cls-13" x="43.83" y="128.88" width="2.81" height="51.66" rx="1.21" transform="translate(-107.69 103.75) rotate(-55.27)"/><rect class="cls-14" x="24.74" y="112.77" width="11.25" height="63.26" rx="5.62" transform="translate(-105.61 87.09) rotate(-55.27)"/><path class="cls-15" d="M65.84,166l3.47,2.41a2.46,2.46,0,0,1,.62,3.42h0a2.46,2.46,0,0,1-3.42.62L63,170.05"/><ellipse class="cls-16" cx="7.16" cy="131.15" rx="5.24" ry="6.83" transform="translate(-78.58 31.66) rotate(-37.63)"/><path class="cls-17" d="M101,27.62c-1.31,11.75,3.26,29.38,11.1,23.51.76,15.75-1.56,32.08-6.65,35.58-9,6.21-32.53,17.31-37.76,14.7s-17.63-26.77-17.63-30,5.23-5.22,3.27-10.45-5.88-17.1-3.27-22.85S78.81,47.21,101,27.62Z"/><path class="cls-18" d="M76.2,66.8c-3.26-3.27-2.44-12.92-1.3-16.33.65-1.95,7.18-7.83,13.06-4.57,5.26,2.93,12.71,7.65,10.6,13S79.47,70.06,76.2,66.8Z"/><path class="cls-19" d="M67.13,67.74c-.77,2-9.21,2.32-12.48-2.9-2-6.53-3.2-16-.65-16.32s7,1.23,8,3.23S68.5,64.11,67.13,67.74Z"/><path class="cls-20" d="M105.9,60.63c0-3.27,13.3-21.05,17.32-8.2,3.26,10.45-7.58,17.25-10.72,18.54S105.92,69.24,105.9,60.63Z"/><circle class="cls-21" cx="58.97" cy="62.2" r="7.81"/><circle class="cls-22" cx="86.57" cy="59.92" r="10.85"/><path class="cls-23" d="M110.16,59c3.92,0,4.38,4.41,3.92,7.19,4.82-1.58,7.18-5.23,7.18-9.15C121.26,47.65,111.22,56.6,110.16,59Z"/><path class="cls-24" d="M76.83,65.83c3.94-11.44,15-16.66,20.27-8.17A34.72,34.72,0,0,1,76.83,65.83Z"/><path class="cls-25" d="M76.83,65.83c6.58-17,16.35-16,20.27-8.17C86,49.17,81.37,59,76.83,65.83Z"/><path class="cls-25" d="M94.49,55.05c2,0,3.91-1.31,5.22-3.92a15,15,0,0,1-7.32,2.33C94.62,54,94.49,55.05,94.49,55.05Z"/><path class="cls-26" d="M66.65,66.37C60,59,54.75,55.05,54.75,64.19,58.84,67.45,64.53,69.2,66.65,66.37Z"/><g class="cls-27"><ellipse class="cls-28" cx="61.03" cy="63.92" rx="3.27" ry="3.66"/><path class="cls-29" d="M63.72,63.81a2.92,2.92,0,0,1-2.59,3.13,2.85,2.85,0,0,1-2.8-2.9,2.92,2.92,0,0,1,2.59-3.13A2.85,2.85,0,0,1,63.72,63.81Z"/><ellipse class="cls-30" cx="58.57" cy="62.26" rx="1.1" ry="1.23"/></g><path class="cls-25" d="M66.65,66.37c-9-9.37-11.31-9.37-11.9-2.18C54.17,51.78,60,56.35,66.65,66.37Z"/><path class="cls-25" d="M54.75,61.58c-.9,1.18-3.5-.66-4.67-2,1.17.65,4.61.75,5.26,0A5.64,5.64,0,0,1,54.75,61.58Z"/><g class="cls-31"><circle class="cls-32" cx="89.07" cy="59.02" r="4.38"/><path class="cls-33" d="M92.68,58.88a3.61,3.61,0,1,1-3.75-3.47A3.62,3.62,0,0,1,92.68,58.88Z"/><circle class="cls-30" cx="85.78" cy="57.03" r="1.47"/></g><path class="cls-34" d="M74.24,53.74c-.3-4.57-2-5.88,3.27-7.84s7.83-2,10.45,0C80.77,47.86,78.46,49.17,74.24,53.74Z"/><path class="cls-35" d="M63.46,54.51c-3.91-3.5-8.15-6.73-10.77-5.34,3.92-3.92,9.79-.5,10.77,1S63.46,54.51,63.46,54.51Z"/><path class="cls-36" d="M65.14,83.61c2.37,1.77,3,3.55,1.78,4.73C68.7,91.89,77,89.53,79.35,86.57,76.39,83.61,67.67,82.9,65.14,83.61Z"/><path class="cls-30" d="M65.7,83.35s1.28,3,1.55,3.39c1.45.42,4.3.93,10.27-1.69C74.07,83.94,65.7,83.35,65.7,83.35Z"/><path class="cls-37" d="M79.35,86.57C77,80.65,64,76.5,65.14,83.61,68.1,86.57,72.25,81.83,79.35,86.57Z"/><path class="cls-38" d="M66.92,88.34c-2.37,3,5.33,9.47,12.43-1.77C76.39,88.34,67.51,90.12,66.92,88.34Z"/><path class="cls-39" d="M65.77,76.62c-2,0,0,3-2,3s0-2-3-3C63.08,75.34,65.39,75.5,65.77,76.62Z"/><path class="cls-40" d="M71.33,76.5c-3,1,.44,5.12-2.56,5.12-3.81,0,0-5-4-5C68.58,73.77,70.37,74.59,71.33,76.5Z"/><path class="cls-41" d="M64.65,61.36c-.09,3.15-3.54,11.48-7,13.56,3.47,3.48,13.18,4.17,15.27.7s-2.68-10.46-3.77-14.26S64.72,58.91,64.65,61.36Z"/><circle class="cls-42" cx="71.78" cy="76.44" r="2.86"/><path class="cls-43" d="M66.48,123.83h39V106.94c-5.76-9.45-26-2-32.87,3.11S66.48,123.83,66.48,123.83Z"/><path class="cls-44" d="M100.56,101.8c-.39,9-3.69,14.47,1,16.18s26.23,8.9,26.23,14.77-15.67,32.65-18.94,48.32S95.14,212.42,96.44,217c-32,13.71-44.12,7.18-45.57,0s1.82-22.86-1.44-26.12-11.76-9.14-13.71-15.67c5.22-7.84,16.32-21.55,15.67-28.08s2-20.9,7.18-23.51,16.45-4.49,17.37-8.45A92.78,92.78,0,0,0,77.38,105C82.08,101.41,97.49,99.58,100.56,101.8Z"/><g class="cls-45"><g class="cls-46"><path class="cls-47" d="M86.65,98.8c0,19.61-19,62.25-26.18,73.88a4.54,4.54,0,0,0-.28,4.26A29.22,29.22,0,0,0,69.6,188.7a4.52,4.52,0,0,1,1.81,4.73c-2.27,9.92-4.2,29.95-3,34"/><path class="cls-47" d="M83.06,99.78c-1.86,9.9-17.79,59.67-30.57,73.19a4.51,4.51,0,0,0-.73,5.15c2.74,5.22,7.46,8.8,10.57,10.73a4.54,4.54,0,0,1,2,4.94c-2.52,10.2-2.2,30.92-2.2,32.67"/><path class="cls-47" d="M72.25,115.5c-4,11.61-10.54,42.3-25.95,56.79a4.55,4.55,0,0,0-.41,6.18,54.21,54.21,0,0,0,10.61,9.85,4.55,4.55,0,0,1,1.87,4.4c-1.45,9.39-2.72,30.41-1.49,32.29"/><path class="cls-47" d="M65.14,119.16c-3.44,12-11.84,39-24.39,52.9a4.52,4.52,0,0,0-.48,5.47C43.25,182.24,49,187.61,52,190a4.58,4.58,0,0,1,1.67,3.7c-.34,8.91-2.15,25.53-1.72,28.36"/><path class="cls-47" d="M91.89,98.8c.91,6.46-17.6,63.66-22.47,74.06a4.57,4.57,0,0,0-.26,3.17,46.36,46.36,0,0,0,7.56,15.11,4.52,4.52,0,0,1,.9,3.31c-1.24,10.42-4.57,27.1-2.57,32"/><path class="cls-47" d="M96.77,97.16c0,5.23-15.37,73.92-16.46,76.69-2.48,6.24,2.75,18.14,2.09,19.3s-2,29.1-1.67,31.86"/><path class="cls-47" d="M102,103.69c0,7.19-10.72,68.52-11.1,71.83s-3.26,14.37-3.26,17-1,30.53-1,30.53"/><path class="cls-47" d="M105.47,115.5s-4.13,53.73-5.76,58.18-6.2,17.52-6.2,19.47S90.89,222,90.89,222"/><path class="cls-47" d="M112.26,120.33s-7.65,49.32-8.31,52.58-7.18,16.35-7.18,19.28-3.64,26.17-3.64,26.17"/><path class="cls-47" d="M119,123.28c0,2-10.45,48.33-11.1,50.28s-6.53,16.33-7.18,18.94-5.47,25.86-5.47,25.86"/></g></g><path class="cls-48" d="M75.94,103.83c-2.35,2.28.26,4.11-.39,7.37s-3.24,3.77-1.3,6.13,25.46,1.71,26.77-.9-.66-3.6,0-7.35,2.87-6.86.45-8.25S82.86,97.1,75.94,103.83Z"/><path class="cls-49" d="M96.47,214.79c-18.33,9-43.51,12.83-45.93-.65C49,240.73,44.86,301.88,65.75,372.4c30.69,5.88,56.16,0,73.14-7.18-8.49-24.16,2.91-74.41.65-103.83C137.58,235.93,96.47,214.79,96.47,214.79Z"/><path class="cls-50" d="M139.85,430.44c-3.22,17.14-17.94,71.91-16.63,75.83s5.87,4.57,5.87,8.49-3.21,4.57-5.19,18.28h-2.34v-11.1c-4.22,0-7.64,3.92-10.5,11.1H91.22s7.18-3.92,11.75-5.88c2.62-11.75,11.11-22.85,11.11-22.85,0-17.63-2.69-73.87-2.69-73.87C119.3,436.4,134.93,434.92,139.85,430.44Z"/><path class="cls-51" d="M96.44,431.74c-3.22,17.15-20.54,70.61-19.24,74.53s5.88,4.57,5.88,8.49-3.21,4.57-5.2,18.28H75.55v-11.1c-4.23,0-7.64,3.92-10.51,11.1H45.2s7.19-3.92,11.76-5.88c2.61-11.75,11.1-22.85,11.1-22.85,0-17.63-.07-72.57-.07-72.57C75.9,437.7,91.52,436.23,96.44,431.74Z"/><path class="cls-8" d="M138.24,230.7c-.64,16.64-32.8-17.2-30-22.85S138.89,213.72,138.24,230.7Z"/><path class="cls-52" d="M105.47,106.94c7.3,10.14,23.62,19.94,23.62,25.16S102.83,202.83,102.58,207s18.93,21.12,18.93,21.12c-14.62,7.84-39.17,11.79-42.24,11.45-1.57-19.63,3.46-27.71,2.48-35.9s-9.47-22.57-8.16-28.44C76.19,163.48,97.53,141.2,105.47,106.94Z"/><path class="cls-53" d="M72.6,110.05S57.92,119.33,54,125.39s-2,21.09-3.92,24.67-16.2,23.54-15.93,26,14.7,14.1,15,18.72-3,30.73-3.66,33.34c5.94,9.14,13.09,9.79,13.09,9.14.65-15,2.61-43.1-.65-47.67-5.28-7.38-12.7-9-11.1-15.67S71.6,124.57,72.6,110.05Z"/><path class="cls-54" d="M128.44,135.36c3.75,10.78,19.59,79.67,9.14,97.95-3.92-19.59-25.75-28.52-28.87-26.34,1.59-21.1,4.34-44.82,3.55-56.91S123.22,120.35,128.44,135.36Z"/><path class="cls-55" d="M112.12,117.73C71,205.89,20.63,186.9,67.35,111.83c.72-1.9,4.26,0,4.26,0-23.49,57.49,5.77,47.32,37.24,4.6C111.06,114.57,112.12,117.73,112.12,117.73Z"/><path class="cls-56" d="M75.55,107.94c-10.61,25.16,6.27,37.8,28.93-2.32,6.78,2,9.86,1.8,10.38,11.2C106.24,136,37,195.89,70.32,110.55A9.51,9.51,0,0,1,75.55,107.94Z"/></g></g></svg>