<svg xmlns="http://www.w3.org/2000/svg" xmlns:xlink="http://www.w3.org/1999/xlink" viewBox="0 0 187.15 446"><defs><style>.cls-1,.cls-18,.cls-24,.cls-7{fill:none;}.cls-2{fill:url(#Безымянный_градиент_1939);}.cls-3{fill:url(#Безымянный_градиент_57);}.cls-4{fill:url(#Новый_образец_градиента_копия_2);}.cls-5{fill:url(#Безымянный_градиент_158);}.cls-6{fill:#283547;}.cls-18,.cls-7{stroke:#283547;stroke-linecap:round;}.cls-24,.cls-7{stroke-miterlimit:10;}.cls-7{stroke-width:0.65px;}.cls-8{fill:url(#Безымянный_градиент_600);}.cls-9{fill:url(#Новый_образец_градиента_копия_2-2);}.cls-10{fill:url(#Безымянный_градиент_139);}.cls-11{fill:url(#Безымянный_градиент_159);}.cls-12{fill:url(#Безымянный_градиент_58);}.cls-13{fill:url(#Безымянный_градиент_159-2);}.cls-14{fill:url(#Безымянный_градиент_139-2);}.cls-15{fill:url(#Безымянный_градиент_1924);}.cls-16{fill:url(#Новый_образец_градиента_копия_2-3);}.cls-17{fill:url(#Безымянный_градиент_18);}.cls-18{stroke-linejoin:round;stroke-width:1.47px;}.cls-19{fill:url(#Новый_образец_градиента_копия_7);}.cls-20{fill:url(#Новый_образец_градиента_копия);}.cls-21{fill:url(#Новый_образец_градиента_копия_3);}.cls-22{fill:url(#Безымянный_градиент_481);}.cls-23{fill:#e86b56;}.cls-24{stroke:#bdbfc6;stroke-width:0.5px;}.cls-25{fill:#6473a0;}.cls-26{fill:url(#Новый_образец_градиента_копия-2);}.cls-27{fill:#cf5555;}.cls-28{fill:url(#Безымянный_градиент_1924-2);}.cls-29{fill:url(#Новый_образец_градиента_копия_2-4);}.cls-30{fill:url(#Безымянный_градиент_18-2);}.cls-31{fill:url(#Безымянный_градиент_139-3);}.cls-32{clip-path:url(#clip-path);}.cls-33{opacity:0.4;}.cls-34{fill:#211c20;}.cls-35{fill:url(#Безымянный_градиент_139-4);}.cls-36{fill:url(#Безымянный_градиент_139-5);}.cls-37{fill:url(#Безымянный_градиент_139-6);}.cls-38{fill:url(#Безымянный_градиент_1939-2);}.cls-39{fill:url(#Безымянный_градиент_1939-3);}.cls-40{fill:url(#Безымянный_градиент_1939-4);}.cls-41{fill:url(#Безымянный_градиент_1939-5);}.cls-42{fill:url(#Новый_образец_градиента_копия_7-2);}.cls-43{fill:url(#Безымянный_градиент_139-7);}.cls-44{fill:url(#Безымянный_градиент_139-8);}.cls-45{fill:url(#Безымянный_градиент_159-3);}.cls-46{fill:url(#Безымянный_градиент_159-4);}.cls-47{fill:url(#Безымянный_градиент_159-5);}</style><linearGradient id="Безымянный_градиент_1939" x1="83.35" y1="-0.57" x2="80.35" y2="50.28" gradientUnits="userSpaceOnUse"><stop offset="0" stop-color="#ffd63c"/><stop offset="1" stop-color="#d38527"/></linearGradient><linearGradient id="Безымянный_градиент_57" x1="79.18" y1="52.52" x2="83.35" y2="16.67" gradientUnits="userSpaceOnUse"><stop offset="0.63" stop-color="#fac38f"/><stop offset="0.96" stop-color="#faa96c"/></linearGradient><linearGradient id="Новый_образец_градиента_копия_2" x1="-219.56" y1="-980.69" x2="-219.56" y2="-958.41" gradientTransform="translate(1001.02 32.73) rotate(-90)" gradientUnits="userSpaceOnUse"><stop offset="0" stop-color="#5d7d91"/><stop offset="1" stop-color="#374b6b"/></linearGradient><linearGradient id="Безымянный_градиент_158" x1="-219.19" y1="-978.1" x2="-219.89" y2="-927.85" gradientTransform="translate(270.72 1205.72)" gradientUnits="userSpaceOnUse"><stop offset="0" stop-color="#fff"/><stop offset="1" stop-color="#c6d9db"/></linearGradient><linearGradient id="Безымянный_градиент_600" x1="-232.62" y1="-975.38" x2="-222.45" y2="-956.95" gradientTransform="translate(325.26 -682.38) rotate(-150.69)" gradientUnits="userSpaceOnUse"><stop offset="0" stop-color="#ddf5f5" stop-opacity="0"/><stop offset="1" stop-color="#faffff" stop-opacity="0.5"/></linearGradient><linearGradient id="Новый_образец_градиента_копия_2-2" x1="-219.56" y1="-926.21" x2="-219.56" y2="-919.57" gradientTransform="translate(284.02 1154.86)" xlink:href="#Новый_образец_градиента_копия_2"/><linearGradient id="Безымянный_градиент_139" x1="32.65" y1="31" x2="47.77" y2="117.7" gradientUnits="userSpaceOnUse"><stop offset="0" stop-color="#ab8faf"/><stop offset="1" stop-color="#374b6b"/></linearGradient><linearGradient id="Безымянный_градиент_159" x1="40.88" y1="158.89" x2="45.88" y2="250.58" gradientUnits="userSpaceOnUse"><stop offset="0.64" stop-color="#ffd7a5"/><stop offset="1" stop-color="#faa96c"/></linearGradient><linearGradient id="Безымянный_градиент_58" x1="53.65" y1="158.19" x2="58.65" y2="249.89" gradientUnits="userSpaceOnUse"><stop offset="0.77" stop-color="#fac38f"/><stop offset="1" stop-color="#faa96c"/></linearGradient><linearGradient id="Безымянный_градиент_159-2" x1="45.45" y1="158.64" x2="50.45" y2="250.33" xlink:href="#Безымянный_градиент_159"/><linearGradient id="Безымянный_градиент_139-2" x1="35.73" y1="129.19" x2="35.87" y2="169.88" xlink:href="#Безымянный_градиент_139"/><linearGradient id="Безымянный_градиент_1924" x1="68.14" y1="119.4" x2="79.6" y2="371.51" gradientUnits="userSpaceOnUse"><stop offset="0" stop-color="#e75555"/><stop offset="1" stop-color="#a64444"/></linearGradient><linearGradient id="Новый_образец_градиента_копия_2-3" x1="20.26" y1="429.7" x2="65.77" y2="442.53" gradientTransform="matrix(1, 0, 0, 1, 0, 0)" xlink:href="#Новый_образец_градиента_копия_2"/><linearGradient id="Безымянный_градиент_18" x1="11.67" y1="424.44" x2="14.84" y2="451.78" gradientUnits="userSpaceOnUse"><stop offset="0" stop-color="#fff5f5"/><stop offset="1" stop-color="#c6d9db"/></linearGradient><linearGradient id="Новый_образец_градиента_копия_7" x1="117.01" y1="24.3" x2="116.49" y2="40.17" gradientUnits="userSpaceOnUse"><stop offset="0" stop-color="#cf5555"/><stop offset="1" stop-color="#a64444"/></linearGradient><linearGradient id="Новый_образец_градиента_копия" x1="-123.81" y1="-188.48" x2="-125.42" y2="-139.47" gradientTransform="translate(294.84 279.13) rotate(-3.8)" gradientUnits="userSpaceOnUse"><stop offset="0" stop-color="#faa478"/><stop offset="1" stop-color="#f7694d"/></linearGradient><linearGradient id="Новый_образец_градиента_копия_3" x1="133.06" y1="100.86" x2="163.1" y2="100.86" gradientTransform="translate(94.61 -85.1) rotate(34.56)" gradientUnits="userSpaceOnUse"><stop offset="0" stop-color="#ddf5f5"/><stop offset="1" stop-color="#c6d9db"/></linearGradient><linearGradient id="Безымянный_градиент_481" x1="163.39" y1="130.43" x2="145.32" y2="85.72" gradientTransform="translate(94.61 -85.1) rotate(34.56)" gradientUnits="userSpaceOnUse"><stop offset="0" stop-color="#ddf5f5"/><stop offset="1" stop-color="#fafff5"/></linearGradient><linearGradient id="Новый_образец_градиента_копия-2" x1="130.95" y1="34.3" x2="126.95" y2="156.12" gradientTransform="matrix(1, 0, 0, 1, 0, 0)" xlink:href="#Новый_образец_градиента_копия"/><linearGradient id="Безымянный_градиент_1924-2" x1="95.25" y1="186.45" x2="148.77" y2="472.54" xlink:href="#Безымянный_градиент_1924"/><linearGradient id="Новый_образец_градиента_копия_2-4" x1="114.94" y1="429.7" x2="160.46" y2="442.53" gradientTransform="matrix(1, 0, 0, 1, 0, 0)" xlink:href="#Новый_образец_градиента_копия_2"/><linearGradient id="Безымянный_градиент_18-2" x1="106.36" y1="424.44" x2="109.53" y2="451.78" xlink:href="#Безымянный_градиент_18"/><linearGradient id="Безымянный_градиент_139-3" x1="89.42" y1="26.76" x2="84.41" y2="173.15" xlink:href="#Безымянный_градиент_139"/><clipPath id="clip-path"><path class="cls-1" d="M93,23.51c4.69,2.5,33.3,18.93,34,27.42s-7.19,47.67-9.14,60.73,2,73.14,2,73.14c-16.32,11.75-65.3,3.92-71.17-9.14-1.31-25.47-.66-120.81,3.92-128S70.21,28.18,70.21,28.18C65.61,53.55,85.2,46.36,93,23.51Z"/></clipPath><linearGradient id="Безымянный_градиент_139-4" x1="76.56" y1="26.32" x2="71.56" y2="172.71" xlink:href="#Безымянный_градиент_139"/><linearGradient id="Безымянный_градиент_139-5" x1="86.83" y1="9" x2="86.83" y2="18.12" xlink:href="#Безымянный_градиент_139"/><linearGradient id="Безымянный_градиент_139-6" x1="68.66" y1="9" x2="68.66" y2="18.12" xlink:href="#Безымянный_градиент_139"/><linearGradient id="Безымянный_градиент_1939-2" x1="108.12" y1="35.47" x2="103.67" y2="156.39" xlink:href="#Безымянный_градиент_1939"/><linearGradient id="Безымянный_градиент_1939-3" x1="57.09" y1="33.59" x2="52.65" y2="154.52" xlink:href="#Безымянный_градиент_1939"/><linearGradient id="Безымянный_градиент_1939-4" x1="62.74" y1="-1.78" x2="59.73" y2="49.07" xlink:href="#Безымянный_градиент_1939"/><linearGradient id="Безымянный_градиент_1939-5" x1="102.44" y1="0.56" x2="99.44" y2="51.41" xlink:href="#Безымянный_градиент_1939"/><linearGradient id="Новый_образец_градиента_копия_7-2" x1="118.66" y1="31.96" x2="114.74" y2="151.41" xlink:href="#Новый_образец_градиента_копия_7"/><linearGradient id="Безымянный_градиент_139-7" x1="129.6" y1="14.72" x2="130.27" y2="199.65" xlink:href="#Безымянный_градиент_139"/><linearGradient id="Безымянный_градиент_139-8" x1="138.67" y1="131.63" x2="138.8" y2="168.09" xlink:href="#Безымянный_градиент_139"/><linearGradient id="Безымянный_градиент_159-3" x1="-855.95" y1="-1039.74" x2="-865.95" y2="-1076.09" gradientTransform="translate(1201.99 918.22) rotate(-14.3)" xlink:href="#Безымянный_градиент_159"/><linearGradient id="Безымянный_градиент_159-4" x1="-864.51" y1="-1037.38" x2="-874.52" y2="-1073.73" gradientTransform="translate(1201.99 918.22) rotate(-14.3)" xlink:href="#Безымянный_градиент_159"/><linearGradient id="Безымянный_градиент_159-5" x1="131.47" y1="162.26" x2="87.62" y2="95.4" xlink:href="#Безымянный_градиент_159"/></defs><g id="Слой_2" data-name="Слой 2"><g id="Слой_2-2" data-name="Слой 2"><path class="cls-2" d="M62.19,39,60,24.73c4.28-8.41,29.06-21.12,44.1-7.25C102.19,22.35,102,32.77,102,32.77Z"/><path class="cls-3" d="M97.17,0c-1.53,4.57-6.1,22.2-6.75,35.91-2.29,13.91-17.56,17.14-20.53,9.55s3.74-34.23,3.74-34.23Z"/><rect class="cls-4" x="23.53" y="235.2" width="57.77" height="34.17" rx="4.85" transform="translate(-193.24 174.52) rotate(-60.69)"/><rect class="cls-5" x="37.27" y="231.43" width="27.78" height="46.22" rx="3.91" transform="translate(-28.82 501.54) rotate(-150.69)"/><rect class="cls-6" x="49.36" y="264.75" width="4.19" height="4.19" transform="translate(-34.29 524.72) rotate(-150.69)"/><rect class="cls-6" x="49.21" y="261.52" width="2.09" height="2.09" transform="translate(-34.44 516.13) rotate(-150.69)"/><rect class="cls-6" x="44.53" y="261.3" width="2.09" height="2.09" transform="translate(-43.08 513.42) rotate(-150.69)"/><rect class="cls-6" x="47.6" y="255.82" width="2.09" height="2.09" transform="translate(-34.65 504.67) rotate(-150.69)"/><rect class="cls-6" x="46.58" y="257.65" width="2.09" height="2.09" transform="translate(-37.46 507.59) rotate(-150.69)"/><rect class="cls-6" x="42.13" y="252.75" width="2.09" height="2.09" transform="translate(-43.4 496.24) rotate(-150.69)"/><rect class="cls-6" x="43.73" y="258.45" width="2.09" height="2.09" transform="translate(-43.19 507.69) rotate(-150.69)"/><rect class="cls-6" x="45.33" y="264.15" width="2.09" height="2.09" transform="translate(-42.98 519.15) rotate(-150.69)"/><rect class="cls-6" x="50.45" y="255.02" width="2.09" height="2.09" transform="translate(-28.92 504.57) rotate(-150.69)"/><rect class="cls-6" x="52.28" y="256.04" width="2.09" height="2.09" transform="translate(-26.01 507.38) rotate(-150.69)"/><rect class="cls-6" x="54.91" y="259.92" width="2.09" height="2.09" transform="translate(-22.99 515.92) rotate(-150.69)"/><rect class="cls-6" x="52.06" y="260.72" width="2.09" height="2.09" transform="translate(-28.72 516.02) rotate(-150.69)"/><rect class="cls-6" x="42.93" y="255.6" width="2.09" height="2.09" transform="translate(-43.29 501.97) rotate(-150.69)"/><rect class="cls-6" x="52.5" y="251.37" width="2.09" height="2.09" transform="translate(-23.3 498.74) rotate(-150.69)"/><rect class="cls-6" x="49.65" y="252.17" width="2.09" height="2.09" transform="translate(-29.03 498.84) rotate(-150.69)"/><rect class="cls-6" x="38.41" y="258.6" width="4.19" height="4.19" transform="translate(-51.78 507.85) rotate(-150.69)"/><rect class="cls-6" x="55.51" y="253.8" width="4.19" height="4.19" transform="translate(-17.42 507.22) rotate(-150.69)"/><rect class="cls-6" x="44.56" y="247.65" width="4.19" height="4.19" transform="translate(-34.91 490.36) rotate(-150.69)"/><rect class="cls-7" x="38.36" y="247.6" width="21.39" height="21.39" transform="translate(-34.6 507.54) rotate(-150.69)"/><path class="cls-8" d="M72.62,244.67,53.92,278a3.92,3.92,0,0,1-5.3,1.61l-17.54-9.84a3.92,3.92,0,0,1-1.39-5.36"/><rect class="cls-9" x="58.68" y="229.01" width="11.55" height="3.69" rx="1.84" transform="translate(7.67 463.71) rotate(-150.69)"/><path class="cls-10" d="M51.89,48.32C35.82,65.54,33,111,33,146.92s16.32,24.17,17,5.23,4.26-64.7,5.23-69.87C57.12,71.83,61,38.53,51.89,48.32Z"/><path class="cls-11" d="M33,156.91c-.53,8.2,7.85,46.63,12.07,59.83s7.84,8.6,6.64-4.59-4.5-46.81-5.27-55.24S33.56,147.56,33,156.91Z"/><path class="cls-12" d="M60,228c-.53-2-7.31,5.5-4.38,13.8C57.55,241.32,62.71,238.14,60,228Z"/><path class="cls-13" d="M54.62,218C59.78,224.44,61,230.4,59,233s-2.73,15.62-6.74,15.11c-5.63-.7-7.52-6.13-7.52-6.13-1,1.66-5.2-2.16-5.46-4.5s-.78-10.69.17-13.45,7.16-11.22,8.28-11.57C49.8,211.82,53.23,216.28,54.62,218Z"/><path class="cls-14" d="M49.28,164.56c-6.53.65-17-.66-18.28-2-3.27-2-11.34-25.47-11.34-25.47,6.77-2.61,27,12.41,32.23,12.41C51.24,154.11,49.28,164.56,49.28,164.56Z"/><path class="cls-15" d="M49.38,166.84c-2.06,25.79,5.52,136.57,7,151.38s2.9,111.45,1.51,120.59c2.45,3.92,7.16,0,7.16,0,2.55-16.28,21.87-82.61,22.8-90.72s-2-21.55-5.88-27.43c2.61-26.77,11.1-129.29,13.71-141.7C80.62,161.29,49.38,166.84,49.38,166.84Z"/><path class="cls-16" d="M72.14,436.2l1.55,9.8H24.34l-6.4-16.33c9.79,3.27,36.56,9.8,37.87,9.8a98.76,98.76,0,0,1-2.61-12.41c5.88-3.92,8.14,0,9.14.65-.61,4.57.65,11.76.65,11.76A13.53,13.53,0,0,1,72.14,436.2Z"/><path class="cls-17" d="M28.34,446H0c1-11.76,10.1-15.68,17.94-16.33C26.43,434.9,28.34,446,28.34,446Z"/><path class="cls-18" d="M56.34,439.64c.41-23.78-16.05-21.23-1.18-.74-10.74-9.89-20-.95-.89.44"/><path class="cls-19" d="M128.91,40.76c-.62-17.25-2.66-14.64-14.33-15.95s-9.16,2.73-10.46,13.12c3.29,3.15,5.89.89,5.89.89C110.66,32,107.47,26,117.23,27s6.55,12.67,6.55,12.67Z"/><path class="cls-20" d="M152.19,101.12c6.49-.74,13.35-.63,13.47,3.54s1.61,36.29-.82,39.19-9.47,5.14-9.47,5.14Z"/><path class="cls-21" d="M162.41,51c6.15,4.23,18.93,14.86,24.74,17-7.4,10.74-28.43,39.51-28.43,39.51-6.28,1.16-23.41-7.59-24.33-10.66C140.9,89.23,157.7,62.42,162.41,51Z"/><path class="cls-22" d="M166,59c6.48,3.86,17.38,10.15,21.15,9.09-9.26,14.33-25.74,36.49-29.24,46.88-4-.34-15-4.82-21.83-10.77C140.92,97.17,159.81,72.4,166,59Z"/><polygon class="cls-23" points="172.74 71.23 171 70.32 171.91 68.58 169.86 67.5 168.95 69.25 167.21 68.33 166.14 70.38 167.88 71.29 166.97 73.03 169.01 74.1 169.92 72.36 171.66 73.28 172.74 71.23"/><path class="cls-24" d="M185.45,70.56c-2.92-.18-14.68-5.23-18.4-7.8-2.15,4-24.5,37.35-26.78,40.66,3.15,3.39,13.78,8.25,19,8.21"/><path class="cls-25" d="M162.86,82.12c-.16-.12-.53-.37,1.57-5.82l-4,3.61a.25.25,0,0,1-.35,0,.24.24,0,0,1,0-.35l4.76-4.33a.27.27,0,0,1,.31,0h0a.26.26,0,0,1,.1.3,43.76,43.76,0,0,0-2.08,6.15,8.82,8.82,0,0,0,1-.68c.82-.63,1.27-.94,1.59-.78a.41.41,0,0,1,.21.42,4.15,4.15,0,0,0,.55,2.3,13.39,13.39,0,0,0,2-.86c2.06-1,3.07-1.41,3.49-1.12a.4.4,0,0,1,.16.4c0,.24-.06.47-.1.7a3.07,3.07,0,0,0,.1,2,.25.25,0,1,1-.45.23,3.52,3.52,0,0,1-.14-2.31l.09-.62a13.51,13.51,0,0,0-2.94,1.18c-1.75.83-2.23,1-2.49.84-.53-.36-.8-1.77-.79-2.67a8.68,8.68,0,0,0-1,.69C163.64,82,163.18,82.34,162.86,82.12Z"/><path class="cls-25" d="M161.79,92.35l-.06,0c-.46-.42-.15-1.49.59-3.61l-.46,0a2.94,2.94,0,0,0-2.21.33.88.88,0,0,1-1,.23c-.66-.34-.65-1.76-.55-3.25,0-.12,0-.14,0-.15-.22-.14-1.12.12-2.26.78a.25.25,0,1,1-.25-.43c.62-.37,2.14-1.17,2.77-.78a.61.61,0,0,1,.28.61c-.15,2.21.11,2.69.28,2.78s.23,0,.42-.18a3.34,3.34,0,0,1,2.58-.44l.58,0,0,0,.36-1c.39-1.11.84-1.67,1.36-1.67a.87.87,0,0,1,.77.67,1.92,1.92,0,0,1-.55,2.08,2.52,2.52,0,0,1-1.6.51c-.52,1.46-1,3-.78,3.22,0,0,.11.09.56-.12A13.6,13.6,0,0,0,165,90.1c1.16-.95,1.58-1.27,1.9-1h0c.26.18.13.57.08.74-.17.52-.1.63-.1.63s.31,0,.45,0a1.75,1.75,0,0,1,1.2.21.25.25,0,0,1,.07.35.25.25,0,0,1-.35.06,1.4,1.4,0,0,0-.89-.12c-.33,0-.67,0-.87-.21s-.17-.54,0-1.09a.64.64,0,0,1,0-.07c-.28.17-.78.58-1.2.92a14.1,14.1,0,0,1-2.51,1.78C162.66,92.35,162.14,92.59,161.79,92.35ZM164.33,86l-.1,0c-.2,0-.54.35-.88,1.33-.11.32-.22.62-.32.92a1.91,1.91,0,0,0,1.1-.39,1.43,1.43,0,0,0,.4-1.52A.69.69,0,0,0,164.33,86Z"/><path class="cls-25" d="M153.07,98.5a.3.3,0,0,1-.08-.08c-.36-.44.16-1.49,1.54-4,.54-1,1.09-2,1.41-2.72.14-.33.11-.42.11-.42-.49-.16-3.86,2.32-4.65,3.48a.25.25,0,0,1-.35.06.25.25,0,0,1-.07-.35c.64-.93,4.4-4.12,5.34-3.61.28.17.31.51.09,1-.34.77-.9,1.79-1.44,2.77a14,14,0,0,0-1.6,3.38l.11,0c.44-.14.92-.33,1.38-.51,1.22-.49,1.94-.75,2.34-.53a.5.5,0,0,1,.25.36c0,.17.46.41,1,.63a7.42,7.42,0,0,0,.15-1.26.86.86,0,0,1,.47-.83c.67-.34,1.94.13,2.84.78.44.31,1.15.93,1.07,1.54a.91.91,0,0,1-.38.6c-.78.54-2.52.17-2.72.12s-.61-.15-1-.28c-.15.82-.27,1.63,0,1.91.12.13.37.17.72.1a6.9,6.9,0,0,0,2.2-.84c.42-.23.68-.37.92-.26a.49.49,0,0,1,.25.37,2.11,2.11,0,0,1,0,.31c.11,0,.26.09.48.19a.26.26,0,0,1,.13.34.25.25,0,0,1-.33.12,2.83,2.83,0,0,0-.56-.21.29.29,0,0,1-.24-.37.51.51,0,0,0,0-.27,2.24,2.24,0,0,0-.44.22,7.29,7.29,0,0,1-2.35.89,1.26,1.26,0,0,1-1.17-.23c-.47-.47-.33-1.42-.14-2.44-.69-.26-1.35-.61-1.43-1h0c-.19-.14-1.26.29-1.91.55-.47.18-.95.38-1.41.52A.63.63,0,0,1,153.07,98.5Zm8.5-1.45a3,3,0,0,0-2.24-.7.41.41,0,0,0-.2.39,8.18,8.18,0,0,1-.17,1.43c.34.11.71.21,1.06.29a4,4,0,0,0,2.32,0,.35.35,0,0,0,.17-.26c0-.2-.23-.61-.86-1.06Z"/><path class="cls-26" d="M103.48,39.18c3.78-5.2,52.24,1.24,52.24,11.39s6.53,96.35,1.3,102.23-57.66,6.26-59.85-.13S98.26,46.36,103.48,39.18Z"/><path class="cls-27" d="M139.77,149.08a36.4,36.4,0,0,1-3.72-.2.66.66,0,0,1-.57-.73.65.65,0,0,1,.72-.57c2.58.3,10.13.55,11.07-2.17,1.45-4.22-.9-65.1-1.68-85.1-.2-5.16-.32-8.27-.32-8.76,0-1.78-4.61-4.43-13.17-5.85a.65.65,0,0,1-.53-.75.66.66,0,0,1,.75-.54c6.57,1.09,14.26,3.62,14.26,7.14,0,.46.12,3.74.31,8.71,1.46,37.77,3,81.63,1.61,85.57C147.56,148.55,143.1,149.08,139.77,149.08Z"/><path class="cls-28" d="M117.85,180.23c5.87,11.75,20.89,63.34,30,131.25,8.39,8.16,13.06,15,12.41,30.69s-4.35,75.75,1.42,96.64a8.71,8.71,0,0,1-9.26,2.62c-7.18-43.1-23.47-105.82-28.07-120.16S97,224.63,79.32,221.37c-13.06-4.58-23.11-38.24-23-44.59S117.85,180.23,117.85,180.23Z"/><path class="cls-29" d="M166.82,436.2l1.56,9.8H119l-6.41-16.33c9.8,3.27,36.57,9.8,37.87,9.8a101,101,0,0,1-2.61-12.41c5.88-3.92,8.14,0,9.14.65-.61,4.57.66,11.76.66,11.76A13.49,13.49,0,0,1,166.82,436.2Z"/><path class="cls-30" d="M123,446H94.68c1-11.76,10.11-15.68,17.94-16.33C121.11,434.9,123,446,123,446Z"/><path class="cls-18" d="M151,439.64c.41-23.78-16.06-21.23-1.19-.74-10.73-9.89-20-.95-.89.44"/><path class="cls-31" d="M93,23.51c4.69,2.5,33.3,18.93,34,27.42s-7.19,47.67-9.14,60.73,2,73.14,2,73.14c-16.32,11.75-65.3,3.92-71.17-9.14-1.31-25.47-.66-120.81,3.92-128S70.21,28.18,70.21,28.18C65.61,53.55,85.2,46.36,93,23.51Z"/><g class="cls-32"><g class="cls-33"><path class="cls-34" d="M83.53,194.3c-1.28-33.48-.21-113.22,13-175.42l6.38,1.35C89.84,81.8,88.79,160.85,90.05,194.05Z"/><path class="cls-34" d="M100.6,192.1C97.79,156.26,106.82,71.51,112,31.7l6.47.84c-5.14,39.58-14.12,123.75-11.35,159.05Z"/><path class="cls-34" d="M65.94,190.7c-1-22.82,4.18-132.45,8.19-160.7l6.46.91c-3.85,27.2-9.1,137.49-8.13,159.51Z"/><path class="cls-34" d="M53.51,188c-3-17,.23-144.43,3-158.19l6.4,1.29C60.3,44,57.12,171,59.94,186.86Z"/><path class="cls-34" d="M35.64,80.75l-2.81-5.89c12-5.73,88.83-8.81,110.4-2.87l-1.74,6.29c-9.12-2.51-30.91-3.56-56.86-2.73C57.82,76.4,39.7,78.81,35.64,80.75Z"/><path class="cls-34" d="M41.42,56.81l-2.53-6c14.06-5.9,82.4-6.1,98.16-2.58l-1.42,6.37C119.88,51.06,53.2,51.86,41.42,56.81Z"/><path class="cls-34" d="M28.17,104.94,26,98.79c20.85-7.4,95.12-8.25,119.2-4.2L144.1,101C121.17,97.18,47.85,98,28.17,104.94Z"/><path class="cls-34" d="M31.3,131.76l-1.92-6.24c27.83-8.56,96-4.91,119.85-2.77l-.58,6.5C115.92,126.33,55.12,124.43,31.3,131.76Z"/><path class="cls-34" d="M161.34,154.23c-25.53-2.39-132.9-1.7-139.77-.28l-1.32-6.4c8.56-1.77,117.13-2.12,141.69.17Z"/><path class="cls-34" d="M128.59,178.5c-7.78-3.88-82.8-6.76-104-6.76v-6.53c7.13,0,96,2,106.89,7.44Z"/></g></g><path class="cls-35" d="M80,37.87a30.85,30.85,0,0,0-4.57,6.32c-1.31-3.49-2.56-6.32-2.56-6.32-5.28-2-6.61,1.53-3.33,6.32s12.42,2.17,14.38-1.09S81.93,37.87,80,37.87Z"/><path class="cls-36" d="M92.3,20.48s1.38,1.58,1.38,2.37c0,10.45-5.22,20.9-5.87,22.21-3.27-5.23-5.23-6.53-7.84-7.19C83.24,36.57,87.81,35.26,92.3,20.48Z"/><path class="cls-37" d="M70.63,25.57l-2.41,3.16C65.61,33.3,63.65,39.18,65,45.06c2.61-5.23,4.57-6.53,7.84-7.19C70.18,34.61,69.52,30.69,70.63,25.57Z"/><path class="cls-38" d="M102.77,25.57c8.55,13.61,23.56,16.87,23.56,23.4-3.91-3.91-11.15-.08-13.71,25.47-1.3,13.06-2,39.24,7.18,36.6-.65,6.47,4.44,61.28,1.24,63.6s-30.62,4.5-34.21,1.45S85.73,38.08,102.77,25.57Z"/><path class="cls-39" d="M64.54,33.75c-4.4,18-3.58,135.67-6.77,136.68S46.63,167.74,46,163.25s1.3-110.36,5.87-118.19C54.4,40.76,60.86,31.58,64.54,33.75Z"/><path class="cls-40" d="M62.55,53s-6.09-14.49-6.74-18.41S59.45,25.09,61.22,23c1.58,2.34,4.39,9.68,4.39,9.68C63.65,37.87,62.76,51.18,62.55,53Z"/><path class="cls-41" d="M92.86,52.44c6.22-6.93,11.15-11.36,12.58-13.26,2-2.61,3.23-17.94-1.32-21.7s-8.48,7.33-8.48,7.33C98.26,26.12,93.39,50.54,92.86,52.44Z"/><path class="cls-42" d="M136.13,45.06,129,43.75c-9.8-5.22-15-8.49-17-8.49-6.6,0-50.28,145,25.46,113-2.61-1.31-7.46-1.39-7.46-1.39-42.82,8.57-20.61-84.81-12.12-107C123.07,43.1,130.91,48.32,136.13,45.06Z"/><path class="cls-43" d="M127,50.28c5.29,6.47,17,56.81,16.32,110.36-.38,31.45-17.63,7.83-18.28-3.27-1-16.5-5.23-64.64-7.84-74.44S121.11,43.1,127,50.28Z"/><path class="cls-44" d="M123.72,157.37c-2.61-7.18-2-17.63-2-17.63,8.49,4.57,22.2-6.53,34,2-4.22,9.14-7.81,21.2-10.45,21.55S134.82,164.56,123.72,157.37Z"/><path class="cls-45" d="M105.32,111.77c-1.24,1.81-5.35-8.1.54-15.36C107.6,97.53,111.63,102.56,105.32,111.77Z"/><path class="cls-46" d="M109.52,118.65c1.64-8.6-.15-14.82-3.4-16.23S95.77,89.13,92.26,91.6c-4.92,3.46-4,9.5-4,9.5-1.76-1.06-3.8,4.61-2.88,6.94s4.59,10.42,6.85,12.54,12.31,7,13.53,6.73C108.08,126.87,109.08,121,109.52,118.65Z"/><path class="cls-47" d="M131.93,174.35c-6.87-6.41-23.88-32-29.76-48.32s4.23-7.18,8.64,0,27.28,28.08,31.2,39.18S137.52,179.57,131.93,174.35Z"/></g></g></svg>