<svg xmlns="http://www.w3.org/2000/svg" xmlns:xlink="http://www.w3.org/1999/xlink" viewBox="0 0 293.13 345.16"><defs><style>.cls-1{fill:none;}.cls-2{fill:url(#Безымянный_градиент_159);}.cls-3{fill:url(#Безымянный_градиент_786);}.cls-4{fill:url(#Безымянный_градиент_786-2);}.cls-5{fill:url(#Безымянный_градиент_159-2);}.cls-6{fill:url(#Безымянный_градиент_1005);}.cls-7{fill:url(#Безымянный_градиент_1005-2);}.cls-8{fill:url(#Безымянный_градиент_1084);}.cls-9{fill:url(#Безымянный_градиент_786-3);}.cls-10{fill:url(#Безымянный_градиент_1084-2);}.cls-11{fill:url(#Безымянный_градиент_786-4);}.cls-12{fill:url(#Безымянный_градиент_772);}.cls-13{fill:#a2aaae;}.cls-14{fill:#a9bcca;}.cls-15{fill:#d23c3e;}.cls-16{fill:url(#Безымянный_градиент_598);}.cls-17{fill:url(#Безымянный_градиент_492);}.cls-18{fill:url(#Безымянный_градиент_600);}.cls-19{fill:url(#Безымянный_градиент_361);}.cls-20{fill:url(#Безымянный_градиент_1073);}.cls-21{fill:url(#Безымянный_градиент_1073-2);}.cls-22{fill:url(#Безымянный_градиент_1026);}.cls-23{opacity:0.4;}.cls-24{clip-path:url(#clip-path);}.cls-25{fill:url(#Безымянный_градиент_1457);}.cls-26{fill:url(#Безымянный_градиент_1005-3);}.cls-27{fill:url(#Безымянный_градиент_786-5);}.cls-28{fill:url(#Безымянный_градиент_786-6);}.cls-29{fill:url(#Безымянный_градиент_786-7);}.cls-30{fill:url(#Безымянный_градиент_786-8);}.cls-31{fill:url(#Безымянный_градиент_786-9);}.cls-32{fill:url(#Безымянный_градиент_786-10);}.cls-33{fill:url(#Безымянный_градиент_786-11);}.cls-34{fill:url(#Безымянный_градиент_786-12);}.cls-35{fill:url(#Безымянный_градиент_786-13);}.cls-36{fill:url(#Безымянный_градиент_786-14);}.cls-37{fill:url(#Безымянный_градиент_786-15);}.cls-38{fill:url(#Безымянный_градиент_1005-4);}.cls-39{fill:url(#Безымянный_градиент_786-16);}.cls-40{fill:url(#Безымянный_градиент_786-17);}.cls-41{fill:url(#Безымянный_градиент_786-18);}.cls-42{fill:url(#Безымянный_градиент_786-19);}.cls-43{fill:url(#Безымянный_градиент_786-20);}.cls-44{fill:url(#Безымянный_градиент_786-21);}.cls-45{fill:url(#Безымянный_градиент_786-22);}.cls-46{fill:url(#Безымянный_градиент_786-23);}.cls-47{fill:url(#Безымянный_градиент_786-24);}.cls-48{fill:url(#Безымянный_градиент_786-25);}.cls-49{fill:url(#Безымянный_градиент_786-26);}.cls-50{fill:url(#Безымянный_градиент_786-27);}.cls-51{fill:url(#Безымянный_градиент_786-28);}</style><linearGradient id="Безымянный_градиент_159" x1="-2326.27" y1="2801.04" x2="-2322.5" y2="2838.1" gradientTransform="matrix(0.82, 0.57, -0.57, 0.82, 3538.15, -797.68)" gradientUnits="userSpaceOnUse"><stop offset="0.64" stop-color="#ffd7a5"/><stop offset="1" stop-color="#faa96c"/></linearGradient><linearGradient id="Безымянный_градиент_786" x1="38.77" y1="165.21" x2="55.08" y2="310.4" gradientUnits="userSpaceOnUse"><stop offset="0.22" stop-color="#694538"/><stop offset="1" stop-color="#1c1007"/></linearGradient><linearGradient id="Безымянный_градиент_786-2" x1="24.83" y1="166.71" x2="41.18" y2="312.26" xlink:href="#Безымянный_градиент_786"/><linearGradient id="Безымянный_градиент_159-2" x1="-2318.91" y1="2800.28" x2="-2317.46" y2="2821.03" xlink:href="#Безымянный_градиент_159"/><linearGradient id="Безымянный_градиент_1005" x1="385.7" y1="-127.51" x2="385.04" y2="-45.04" gradientTransform="translate(-291.89 203.93) rotate(-3.33)" gradientUnits="userSpaceOnUse"><stop offset="0.22" stop-color="#1967b3"/><stop offset="1" stop-color="#183773"/></linearGradient><linearGradient id="Безымянный_градиент_1005-2" x1="65.55" y1="62.7" x2="64.89" y2="145.18" gradientTransform="matrix(1, 0, 0, 1, 0, 0)" xlink:href="#Безымянный_градиент_1005"/><linearGradient id="Безымянный_градиент_1084" x1="128.89" y1="193.35" x2="141.34" y2="322.28" gradientUnits="userSpaceOnUse"><stop offset="0" stop-color="#6d85c7"/><stop offset="1" stop-color="#283547"/></linearGradient><linearGradient id="Безымянный_градиент_786-3" x1="104.57" y1="335.97" x2="166.2" y2="335.97" xlink:href="#Безымянный_градиент_786"/><linearGradient id="Безымянный_градиент_1084-2" x1="175.62" y1="184.21" x2="230.3" y2="325.59" xlink:href="#Безымянный_градиент_1084"/><linearGradient id="Безымянный_градиент_786-4" x1="181.62" y1="335.97" x2="243.26" y2="335.97" xlink:href="#Безымянный_градиент_786"/><linearGradient id="Безымянный_градиент_772" x1="10751.3" y1="3543.52" x2="10754.17" y2="3606.57" gradientTransform="translate(-6609.98 9264.29) rotate(-72.36)" gradientUnits="userSpaceOnUse"><stop offset="0" stop-color="#fff5f5"/><stop offset="1" stop-color="#c6d9db"/></linearGradient><linearGradient id="Безымянный_градиент_598" x1="10751.34" y1="3545.15" x2="10753.53" y2="3593.41" gradientTransform="translate(-10699.09 -3472.47)" gradientUnits="userSpaceOnUse"><stop offset="0" stop-color="#ddf5f5" stop-opacity="0"/><stop offset="1" stop-color="#fafff5" stop-opacity="0.4"/></linearGradient><linearGradient id="Безымянный_градиент_492" x1="10750.84" y1="3614.36" x2="10754.15" y2="3618.74" gradientTransform="translate(-6609.98 9264.29) rotate(-72.36)" gradientUnits="userSpaceOnUse"><stop offset="0" stop-color="#5d7d91"/><stop offset="1" stop-color="#374b6b"/></linearGradient><linearGradient id="Безымянный_градиент_600" x1="10747.33" y1="3542.18" x2="10752.6" y2="3549.15" gradientTransform="matrix(0.95, -0.3, 0.3, 0.95, -11291.95, -26.8)" gradientUnits="userSpaceOnUse"><stop offset="0" stop-color="#ddf5f5" stop-opacity="0"/><stop offset="1" stop-color="#faffff" stop-opacity="0.5"/></linearGradient><linearGradient id="Безымянный_градиент_361" x1="148.24" y1="117.69" x2="148.69" y2="45.22" gradientUnits="userSpaceOnUse"><stop offset="0.33" stop-color="#faf8eb"/><stop offset="0.49" stop-color="#edece1"/><stop offset="0.77" stop-color="#ccccc8"/><stop offset="1" stop-color="#abadaf"/></linearGradient><linearGradient id="Безымянный_градиент_1073" x1="146.42" y1="119.9" x2="153.92" y2="49.88" gradientUnits="userSpaceOnUse"><stop offset="0" stop-color="#f13b43"/><stop offset="1" stop-color="#a64444"/></linearGradient><linearGradient id="Безымянный_градиент_1073-2" x1="141.35" y1="119.36" x2="148.85" y2="49.33" xlink:href="#Безымянный_градиент_1073"/><radialGradient id="Безымянный_градиент_1026" cx="145.39" cy="111.48" fy="80.4564836223926" r="191.28" gradientUnits="userSpaceOnUse"><stop offset="0" stop-color="#e7d557"/><stop offset="1" stop-color="#ab8541"/></radialGradient><clipPath id="clip-path" transform="translate(0 1.03)"><path class="cls-1" d="M290.26,51.59C268.71,16.32,223.65,6.2,200.8.33a64,64,0,0,0-10.1.79c-14.47,73.8-22,99.17-46.92,115.86-28.46-18.32-31.3-59.71-28.38-86C90.81,44.6,70.44,59,65.63,65.3c2,11.1,9.79,39.83,22.85,63.34C89.79,143,76,184.16,78.69,197.21c6.53,32,45,25.08,66.6,22.85,18.94-2,102.39,21.89,126-11.75,17-24.16-17-69.22-21.55-90.12S262.83,68.56,290.26,51.59Z"/></clipPath><radialGradient id="Безымянный_градиент_1457" cx="146.89" cy="116.48" r="181.31" gradientUnits="userSpaceOnUse"><stop offset="0" stop-color="#ffffd7"/><stop offset="1" stop-color="#f1d579"/></radialGradient><linearGradient id="Безымянный_градиент_1005-3" x1="241.91" y1="21.93" x2="242.24" y2="194.99" gradientTransform="matrix(1, 0, 0, 1, 0, 0)" xlink:href="#Безымянный_градиент_1005"/><linearGradient id="Безымянный_градиент_786-5" x1="222.43" y1="4.36" x2="208.09" y2="86.72" xlink:href="#Безымянный_градиент_786"/><linearGradient id="Безымянный_градиент_786-6" x1="194.9" y1="-0.44" x2="180.56" y2="81.92" xlink:href="#Безымянный_градиент_786"/><linearGradient id="Безымянный_градиент_786-7" x1="197.81" y1="0.07" x2="183.47" y2="82.43" xlink:href="#Безымянный_градиент_786"/><linearGradient id="Безымянный_градиент_786-8" x1="204.46" y1="1.23" x2="190.12" y2="83.59" xlink:href="#Безымянный_градиент_786"/><linearGradient id="Безымянный_градиент_786-9" x1="208.47" y1="1.92" x2="194.13" y2="84.29" xlink:href="#Безымянный_градиент_786"/><linearGradient id="Безымянный_градиент_786-10" x1="214.38" y1="2.95" x2="200.04" y2="85.31" xlink:href="#Безымянный_градиент_786"/><linearGradient id="Безымянный_градиент_786-11" x1="218.28" y1="3.63" x2="203.94" y2="85.99" xlink:href="#Безымянный_градиент_786"/><linearGradient id="Безымянный_градиент_786-12" x1="223.5" y1="4.54" x2="209.16" y2="86.9" xlink:href="#Безымянный_градиент_786"/><linearGradient id="Безымянный_градиент_786-13" x1="226.56" y1="5.07" x2="212.22" y2="87.43" xlink:href="#Безымянный_градиент_786"/><linearGradient id="Безымянный_градиент_786-14" x1="232.36" y1="6.08" x2="218.02" y2="88.44" xlink:href="#Безымянный_градиент_786"/><linearGradient id="Безымянный_градиент_786-15" x1="234.19" y1="6.4" x2="219.85" y2="88.76" xlink:href="#Безымянный_градиент_786"/><linearGradient id="Безымянный_градиент_1005-4" x1="81.26" y1="49.57" x2="81.53" y2="190.67" gradientTransform="matrix(1, 0, 0, 1, 0, 0)" xlink:href="#Безымянный_градиент_1005"/><linearGradient id="Безымянный_градиент_786-16" x1="114.78" y1="47.3" x2="113.12" y2="142.99" xlink:href="#Безымянный_градиент_786"/><linearGradient id="Безымянный_градиент_786-17" x1="112.46" y1="47.26" x2="110.79" y2="142.95" xlink:href="#Безымянный_градиент_786"/><linearGradient id="Безымянный_градиент_786-18" x1="108.73" y1="47.19" x2="107.06" y2="142.89" xlink:href="#Безымянный_градиент_786"/><linearGradient id="Безымянный_градиент_786-19" x1="103.87" y1="47.11" x2="102.2" y2="142.8" xlink:href="#Безымянный_градиент_786"/><linearGradient id="Безымянный_градиент_786-20" x1="100.74" y1="47.05" x2="99.08" y2="142.75" xlink:href="#Безымянный_градиент_786"/><linearGradient id="Безымянный_градиент_786-21" x1="98.36" y1="47.01" x2="96.69" y2="142.71" xlink:href="#Безымянный_градиент_786"/><linearGradient id="Безымянный_градиент_786-22" x1="95.76" y1="46.96" x2="94.1" y2="142.66" xlink:href="#Безымянный_градиент_786"/><linearGradient id="Безымянный_градиент_786-23" x1="91.64" y1="46.89" x2="89.97" y2="142.59" xlink:href="#Безымянный_градиент_786"/><linearGradient id="Безымянный_градиент_786-24" x1="99.94" y1="47.04" x2="98.27" y2="142.74" xlink:href="#Безымянный_градиент_786"/><linearGradient id="Безымянный_градиент_786-25" x1="202.71" y1="172.62" x2="204.71" y2="183.07" gradientTransform="translate(78.08 -60.55) rotate(20.7)" xlink:href="#Безымянный_градиент_786"/><linearGradient id="Безымянный_градиент_786-26" x1="203.61" y1="97.28" x2="199.83" y2="108.18" gradientTransform="translate(49.28 -64.71) rotate(20.7)" xlink:href="#Безымянный_градиент_786"/><linearGradient id="Безымянный_градиент_786-27" x1="199.93" y1="119.34" x2="198.15" y2="133.56" gradientTransform="translate(58.99 -61.74) rotate(20.7)" xlink:href="#Безымянный_градиент_786"/><linearGradient id="Безымянный_градиент_786-28" x1="196.81" y1="148.66" x2="199.26" y2="161.1" gradientTransform="translate(69.66 -60.04) rotate(20.7)" xlink:href="#Безымянный_градиент_786"/></defs><g id="Слой_2" data-name="Слой 2"><g id="Слой_2-2" data-name="Слой 2"><path class="cls-2" d="M34.22,157c-10.09-1.5-17.55-3.21-22.79-.31-3.92,2-4,18.13-1.42,22.35,2.78,5.13,10.31,8,15.49,2.89s6.89-8.7,10.37-10.25S34.22,157,34.22,157Z" transform="translate(0 1.03)"/><path class="cls-3" d="M37.07,184c3.09,51.62,12.09,127,35,160.17H57.19C35.59,313.48,29.78,185.35,30.07,184S37.07,184,37.07,184Z" transform="translate(0 1.03)"/><path class="cls-4" d="M2.29,171.09c-2.62,3.83-3.92,13.4,1.3,17.87,11.1,2.56,41.79-.63,47-5.74,2.61-5.11,2.88-10.37-3.13-10.29C38.72,178.82,5.55,172.36,2.29,171.09Z" transform="translate(0 1.03)"/><path class="cls-5" d="M36.08,170.27c-1.59,4.58-7.48,2.72-13.07,10-1.64,2.15-5.3,4-6.66,1.82-1-1.6,3.76-9.28,5.79-11.28C21.81,162.59,33.58,153.4,36.08,170.27Z" transform="translate(0 1.03)"/><path class="cls-6" d="M61.63,71.44c-4.56,15.61,2.19,58,4.7,72.12s27.89,19.44,37.6-6.84,15.9-40.48,7.24-57.32S68.56,47.67,61.63,71.44Z" transform="translate(0 1.03)"/><path class="cls-7" d="M31.87,156.91c5.07,3.31,5.78,16.28,3.07,18.09,22.85,3.92,42.64-7.1,53.17-12.94,19.82-11,7.21-34.38-20-24.84S31.87,156.91,31.87,156.91Z" transform="translate(0 1.03)"/><path class="cls-8" d="M169.45,244.22c-14.36,3.92-17.63,6.53-20.89,15.67s-7.84,32.65-4.57,37.88S157.7,323.89,159.66,335c-2,3.92-10.45,3.26-10.45,3.26-2.61-15-13.71-30-15-31.34-7.84,5.22-16.32-3.92-18.94-21.55S93.71,237,95,205c21.55,7.18,66.61-7.61,74.44,38" transform="translate(0 1.03)"/><path class="cls-9" d="M166.2,344.13s0-7.84-2-9.8c-5.23.66-12.8,2.7-18.81,1.35-9.4-1.39-14.49-7.88-21-7.88-4.58,0-12.41,3.27-18,10.49-4.12,5.34,0,5.84,0,5.84,6.89-1.31,44.77,1.31,48-2.61a7,7,0,0,0,3.32,2.61Z" transform="translate(0 1.03)"/><path class="cls-10" d="M247.16,210.26c-2,29.39-31.34,86.2-26.77,93.38s15.67,26.78,16.32,35.27c-5.88,1.3-13.24,0-13.24,0-5-17.64-12.88-23.51-16.14-26.78-9.8,3.27-15.68-8.49-16.33-24.16-.69-16.52-2.61-32-15.67-35.91s-34,11.75-47.67-34C176,203.08,247.16,210.26,247.16,210.26Z" transform="translate(0 1.03)"/><path class="cls-11" d="M243.26,344.13s0-7.84-2-9.8c-5.22.66-12.8,2.7-18.8,1.35-9.41-1.39-14.5-7.88-21-7.88-4.57,0-12.41,3.27-18,10.49-4.13,5.34,0,5.84,0,5.84,6.89-1.31,44.76,1.31,48-2.61a7,7,0,0,0,3.32,2.61Z" transform="translate(0 1.03)"/><path class="cls-12" d="M24.81,99.94,75.41,116a10.61,10.61,0,0,0,7.77-.55l1.55-.75a7,7,0,0,1,5.18-.36l6.38,2a2.47,2.47,0,0,0,3.09-1.6h0a2.46,2.46,0,0,0-1.6-3.09l-6.38-2a7.06,7.06,0,0,1-4-3.29l-.83-1.5a10.55,10.55,0,0,0-6-4.94L29.93,83.87a7,7,0,0,0-8.83,4.57l-.85,2.68A7,7,0,0,0,24.81,99.94Z" transform="translate(0 1.03)"/><path class="cls-13" d="M79.89,104.18l-2.56,8a.34.34,0,0,1-.44.23.36.36,0,0,1-.23-.44l2.56-8a.36.36,0,0,1,.44-.23A.35.35,0,0,1,79.89,104.18Z" transform="translate(0 1.03)"/><path class="cls-13" d="M71.85,101.63l-2.55,8a.36.36,0,0,1-.45.22.35.35,0,0,1-.22-.44l2.55-8a.35.35,0,0,1,.44-.22A.34.34,0,0,1,71.85,101.63Z" transform="translate(0 1.03)"/><path class="cls-13" d="M63.81,99.07l-2.55,8a.36.36,0,0,1-.44.23.35.35,0,0,1-.23-.44l2.55-8a.35.35,0,0,1,.45-.23A.35.35,0,0,1,63.81,99.07Z" transform="translate(0 1.03)"/><path class="cls-13" d="M55.78,96.51l-2.56,8a.35.35,0,1,1-.67-.21l2.56-8a.35.35,0,0,1,.44-.23A.37.37,0,0,1,55.78,96.51Z" transform="translate(0 1.03)"/><path class="cls-13" d="M47.74,94l-2.56,8a.35.35,0,0,1-.67-.22l2.56-8a.34.34,0,0,1,.44-.23A.35.35,0,0,1,47.74,94Z" transform="translate(0 1.03)"/><path class="cls-13" d="M39.7,91.4l-2.56,8a.34.34,0,0,1-.44.23.37.37,0,0,1-.23-.44l2.56-8a.35.35,0,1,1,.67.21Z" transform="translate(0 1.03)"/><path class="cls-13" d="M31.66,88.85l-2.55,8a.35.35,0,0,1-.45.23.35.35,0,0,1-.22-.44l2.55-8a.37.37,0,0,1,.44-.23A.35.35,0,0,1,31.66,88.85Z" transform="translate(0 1.03)"/><rect class="cls-14" x="59.29" y="67.89" width="2.81" height="69.23" rx="1.41" transform="translate(-55.38 130.3) rotate(-72.36)"/><rect class="cls-15" x="69.34" y="79.87" width="2.81" height="51.66" rx="1.21" transform="matrix(0.3, -0.95, 0.95, 0.3, -51.43, 142.11)"/><rect class="cls-16" x="47.87" y="68.58" width="11.25" height="63.26" rx="5.62" transform="translate(-58.22 121.85) rotate(-72.36)"/><path class="cls-17" d="M93.76,110.44l4,1.28a2.46,2.46,0,0,1,1.6,3.09h0a2.47,2.47,0,0,1-3.09,1.6l-4-1.28" transform="translate(0 1.03)"/><ellipse class="cls-18" cx="27.43" cy="94.36" rx="5.24" ry="6.83" transform="translate(-65.44 63.27) rotate(-54.72)"/><path class="cls-19" d="M186.43,32.65c11.88,5.09-7.84,86.2-41.79,91.42s-43.75-65.59-33.3-76.22S177.29,28.73,186.43,32.65Z" transform="translate(0 1.03)"/><path class="cls-20" d="M141.37,72.48l-9.14,37.22,16.33,18.94,14.33-19.83s-10.42-12.17-13.68-37.63A35.83,35.83,0,0,0,141.37,72.48Z" transform="translate(0 1.03)"/><path class="cls-21" d="M135.14,53.3c-2.6,2.55,2.32,19.18,5.58,21.14s8.75,2,10.25,0,14.62-18.59,10.35-24.31S138,50.43,135.14,53.3Z" transform="translate(0 1.03)"/><path class="cls-22" d="M290.26,51.59C268.71,16.32,223.65,6.2,200.8.33a64,64,0,0,0-10.1.79c-14.47,73.8-22,99.17-46.92,115.86-28.46-18.32-31.3-59.71-28.38-86C90.81,44.6,70.44,59,65.63,65.3c2,11.1,9.79,39.83,22.85,63.34C89.79,143,76,184.16,78.69,197.21c6.53,32,45,25.08,66.6,22.85,18.94-2,102.39,21.89,126-11.75,17-24.16-17-69.22-21.55-90.12S262.83,68.56,290.26,51.59Z" transform="translate(0 1.03)"/><g class="cls-23"><g class="cls-24"><path class="cls-25" d="M131.58,93.69c-8.49,27.77,5.22,33.64,2.25,68.25C133,171.75,114,215.49,143.66,222c11.1.65,21.39,1.67,21.39,1.67-21.06-14.08-9.31-36.93-10-63.71-.42-17-8.49-43.09,7.18-67.25C153.27,91.45,131.58,93.69,131.58,93.69Z" transform="translate(0 1.03)"/><path class="cls-25" d="M228.06-1c-21.39,30.41-48.95,75.94-51.17,109s2.36,43.77,1.05,57.35-6.75,50.46,7.4,58.8c10.67,4.92,18.07,4.22,18.07,4.22,9.14-8.94,17.63-35.72,3.26-63.14-8.68-16.58-8.16-39.94-4.73-62.69,4.73-31.34,36.44-78,49.32-89.94C239.8,7.66,228.06-1,228.06-1Z" transform="translate(0 1.03)"/><path class="cls-25" d="M284.94,39.71c-7-9.55-13.68-13.66-13.68-13.66C240,58.77,218.43,95.34,220.39,126c1.45,22.81,7.18,26.12,16.32,47.67s.92,52.57-3.46,54.69c21.29-2.29,23.34-4.7,23.34-4.7,8.2-13.43,14.08-36.28-2.12-57.36-13.27-17.25-19.06-36.38-17.76-49.44S243.7,72.89,284.94,39.71Z" transform="translate(0 1.03)"/><path class="cls-25" d="M91.09,36.5c0,19.66,18.36,64.87,22.9,79.48s8.45,33.56,1.26,52.49c-3.9,10.3-20.89,41.27,5.88,56.55a74.63,74.63,0,0,1-18.92-1.33c-28.09-24.53-8.5-48-4.59-65.66,3.83-17.22,6.53-29.39-4.57-51.59s-19.44-56-19.18-58.69S91.09,36.5,91.09,36.5Z" transform="translate(0 1.03)"/></g></g><path class="cls-26" d="M292.87,50.28C289,39.83,272.63,17.11,241.28,9.53c-26.77,41.66-64.93,82-44.55,183.15,17.92,5.79,71,4.23,85.19-8-4.23-16-32.69-66.07-28.88-86.05C258.26,71.18,296.64,60.35,292.87,50.28Z" transform="translate(0 1.03)"/><path class="cls-27" d="M211.24,0c13.27,1.31,39.18,2,39.18,12.41-18.28,2-28.07,48.32-29.38,65.3-7.84,3.59-35.26,7.83-42,6.82C182,70.88,201,17.63,211.24,0Z" transform="translate(0 1.03)"/><path class="cls-28" d="M177.94,96h-.14a.67.67,0,0,1-.5-.78l2.62-11.76a.65.65,0,1,1,1.27.29l-2.61,11.75A.66.66,0,0,1,177.94,96Z" transform="translate(0 1.03)"/><path class="cls-29" d="M180.55,96.64a.44.44,0,0,1-.16,0,.66.66,0,0,1-.47-.8l3.27-12.4A.65.65,0,0,1,184,83a.66.66,0,0,1,.47.8l-3.26,12.41A.66.66,0,0,1,180.55,96.64Z" transform="translate(0 1.03)"/><path class="cls-30" d="M189,96a.65.65,0,0,1-.65-.65V84.24a.66.66,0,0,1,.65-.66.67.67,0,0,1,.66.66v11.1A.66.66,0,0,1,189,96Z" transform="translate(0 1.03)"/><path class="cls-31" d="M192.31,96h-.1a.65.65,0,0,1-.55-.74l2-12.41a.65.65,0,0,1,.75-.54.65.65,0,0,1,.54.74l-2,12.41A.65.65,0,0,1,192.31,96Z" transform="translate(0 1.03)"/><path class="cls-32" d="M199.49,96a.65.65,0,0,1-.65-.65V81.62a.65.65,0,0,1,1.3,0V95.34A.65.65,0,0,1,199.49,96Z" transform="translate(0 1.03)"/><path class="cls-33" d="M203.41,93.38h0a.65.65,0,0,1-.61-.69l.65-11.1a.66.66,0,0,1,.69-.62.65.65,0,0,1,.61.69l-.65,11.1A.66.66,0,0,1,203.41,93.38Z" transform="translate(0 1.03)"/><path class="cls-34" d="M208.63,93.38h-.06a.67.67,0,0,1-.59-.72l1.31-13.06A.64.64,0,0,1,210,79a.65.65,0,0,1,.59.71l-1.31,13.06A.65.65,0,0,1,208.63,93.38Z" transform="translate(0 1.03)"/><path class="cls-35" d="M210.59,92.73l-.19,0a.65.65,0,0,1-.43-.81l3.91-13.06a.66.66,0,0,1,1.26.37l-3.92,13.06A.67.67,0,0,1,210.59,92.73Z" transform="translate(0 1.03)"/><path class="cls-36" d="M219.08,91.42a.65.65,0,0,1-.65-.62l-.65-13.06a.65.65,0,0,1,.61-.69.66.66,0,0,1,.69.62l.65,13.06a.66.66,0,0,1-.62.69Z" transform="translate(0 1.03)"/><path class="cls-37" d="M221.69,88.81a.66.66,0,0,1-.65-.59l-1.3-12.4a.65.65,0,1,1,1.3-.14l1.3,12.41a.64.64,0,0,1-.58.71Z" transform="translate(0 1.03)"/><path class="cls-38" d="M95,39.43C91.81,54,106.64,157.71,95,189.86c-10.32,2.28-17.06,1.8-22.86,0,5.36-15.35,16.39-53.38,9.86-67.1S60.5,75.57,63.67,66.61C67.59,55.5,95,39.43,95,39.43Z" transform="translate(0 1.03)"/><path class="cls-39" d="M113.33,151.62h.11a.51.51,0,0,0,.48-.55l-.7-9.45a.51.51,0,0,0-.55-.47.51.51,0,0,0-.47.55l.69,9.44A.51.51,0,0,0,113.33,151.62Z" transform="translate(0 1.03)"/><path class="cls-40" d="M111.22,151.83h.14a.52.52,0,0,0,.45-.57l-1.13-10a.51.51,0,1,0-1,.12l1.13,10A.5.5,0,0,0,111.22,151.83Z" transform="translate(0 1.03)"/><path class="cls-41" d="M106.31,150.36a.51.51,0,0,0,.58-.44l1.27-8.63a.52.52,0,1,0-1-.15l-1.26,8.64A.51.51,0,0,0,106.31,150.36Z" transform="translate(0 1.03)"/><path class="cls-42" d="M102.15,150h.08a.51.51,0,0,0,.51-.52l-.11-9.88a.52.52,0,0,0-1,0l.11,9.87A.52.52,0,0,0,102.15,150Z" transform="translate(0 1.03)"/><path class="cls-43" d="M98.18,150.79a.51.51,0,0,0,.58-.43l1.57-10.68a.51.51,0,0,0-1-.14l-1.56,10.67A.51.51,0,0,0,98.18,150.79Z" transform="translate(0 1.03)"/><path class="cls-44" d="M96.24,147.5h0a.51.51,0,0,0,.56-.46l.75-8.72a.51.51,0,1,0-1-.08L95.8,147A.52.52,0,0,0,96.24,147.5Z" transform="translate(0 1.03)"/><path class="cls-45" d="M93.8,147.72h0a.51.51,0,0,0,.53-.49l.47-10.31a.51.51,0,1,0-1,0l-.47,10.32A.52.52,0,0,0,93.8,147.72Z" transform="translate(0 1.03)"/><path class="cls-46" d="M89,145.63l.14,0a.52.52,0,0,0,.59-.43l1.67-10.59a.51.51,0,1,0-1-.16l-1.68,10.59A.54.54,0,0,0,89,145.63Z" transform="translate(0 1.03)"/><path class="cls-47" d="M119.17,32s-24.74,3.19-28.08,7.83c-23.5,15,.14,77.32-1.23,95.15,3.78,5.61,22.78,8,23.43,6.72C112.64,119.5,93.71,49,119.17,32Z" transform="translate(0 1.03)"/><ellipse class="cls-48" cx="204.78" cy="183.46" rx="3.42" ry="3.95" transform="matrix(0.94, -0.35, 0.35, 0.94, -51.63, 85.26)"/><ellipse class="cls-49" cx="201.78" cy="102.54" rx="3.42" ry="3.19" transform="translate(-23.22 78.98) rotate(-20.7)"/><ellipse class="cls-50" cx="198.52" cy="130.62" rx="3.42" ry="3.19" transform="translate(-33.36 79.64) rotate(-20.7)"/><ellipse class="cls-51" cx="199.17" cy="160.66" rx="3.42" ry="3.19" transform="translate(-43.93 81.81) rotate(-20.7)"/></g></g></svg>