<svg xmlns="http://www.w3.org/2000/svg" xmlns:xlink="http://www.w3.org/1999/xlink" viewBox="0 0 159.37 488.73"><defs><style>.cls-1,.cls-20{fill:none;}.cls-2{fill:url(#Безымянный_градиент_2697);}.cls-3{fill:url(#Безымянный_градиент_3116);}.cls-4{fill:url(#Безымянный_градиент_2697-2);}.cls-5{fill:url(#Безымянный_градиент_2697-3);}.cls-6{fill:url(#Безымянный_градиент_925);}.cls-7{fill:url(#Безымянный_градиент_925-2);}.cls-8{fill:url(#Безымянный_градиент_1700);}.cls-9{fill:url(#Безымянный_градиент_1785);}.cls-10{fill:url(#Безымянный_градиент_873);}.cls-11{fill:url(#Безымянный_градиент_322);}.cls-12{fill:url(#Безымянный_градиент_1724);}.cls-13{fill:url(#Безымянный_градиент_1724-2);}.cls-14{fill:url(#Безымянный_градиент_1578);}.cls-15{fill:url(#Безымянный_градиент_322-2);}.cls-16{fill:url(#Безымянный_градиент_1724-3);}.cls-17{fill:url(#Безымянный_градиент_1724-4);}.cls-18{fill:url(#Безымянный_градиент_1578-2);}.cls-19{fill:url(#Безымянный_градиент_1300);}.cls-20{stroke-miterlimit:10;stroke-width:1.31px;stroke:url(#Безымянный_градиент_1490);}.cls-21{fill:url(#Безымянный_градиент_1300-2);}.cls-22{fill:url(#Новый_образец_градиента_копия_2);}.cls-23{fill:url(#Безымянный_градиент_1300-3);}.cls-24{fill:url(#Новый_образец_градиента_копия_2-2);}.cls-25{opacity:0.5;}.cls-26{clip-path:url(#clip-path);}.cls-27{fill:url(#Новый_образец_градиента_копия_3);}.cls-28{fill:url(#Новый_образец_градиента_копия_3-2);}.cls-29{fill:url(#Новый_образец_градиента_копия_3-3);}.cls-30{fill:url(#Новый_образец_градиента_копия_3-4);}.cls-31{fill:url(#Новый_образец_градиента_копия_3-5);}.cls-32{fill:url(#Новый_образец_градиента_копия_3-6);}.cls-33{fill:url(#Новый_образец_градиента_копия_3-7);}.cls-34{fill:url(#Новый_образец_градиента_копия_3-8);}.cls-35{fill:url(#Новый_образец_градиента_копия_3-9);}.cls-36{fill:url(#Безымянный_градиент_159);}.cls-37{fill:url(#Безымянный_градиент_1725);}.cls-38{fill:url(#Безымянный_градиент_1562);}.cls-39{fill:url(#Безымянный_градиент_1562-2);}.cls-40{fill:url(#Безымянный_градиент_1562-3);}.cls-41{fill:url(#Безымянный_градиент_1562-4);}.cls-42{fill:url(#Безымянный_градиент_1562-5);}.cls-43{fill:url(#Безымянный_градиент_1562-6);}.cls-44{fill:url(#Безымянный_градиент_1562-7);}.cls-45{fill:url(#Безымянный_градиент_322-3);}.cls-46{fill:url(#Безымянный_градиент_1785-2);}.cls-47{fill:url(#Безымянный_градиент_1785-3);}</style><linearGradient id="Безымянный_градиент_2697" x1="25.99" y1="318.98" x2="39.56" y2="332.92" gradientUnits="userSpaceOnUse"><stop offset="0" stop-color="#cbe9e5"/><stop offset="1" stop-color="#4f5b6f"/></linearGradient><linearGradient id="Безымянный_градиент_3116" x1="11.02" y1="348.45" x2="47.56" y2="386" gradientUnits="userSpaceOnUse"><stop offset="0" stop-color="#fffff9"/><stop offset="1" stop-color="#a7b9bd"/></linearGradient><linearGradient id="Безымянный_градиент_2697-2" x1="52.03" y1="333.87" x2="39.27" y2="412.5" xlink:href="#Безымянный_градиент_2697"/><linearGradient id="Безымянный_градиент_2697-3" x1="15" y1="340.65" x2="50.39" y2="340.65" xlink:href="#Безымянный_градиент_2697"/><linearGradient id="Безымянный_градиент_925" x1="35.72" y1="321.61" x2="33.54" y2="279.79" gradientUnits="userSpaceOnUse"><stop offset="0.22" stop-color="#694538"/><stop offset="1" stop-color="#af6737"/></linearGradient><linearGradient id="Безымянный_градиент_925-2" x1="41.01" y1="315.79" x2="39.38" y2="284.45" xlink:href="#Безымянный_градиент_925"/><linearGradient id="Безымянный_градиент_1700" x1="91.6" y1="26.4" x2="85.93" y2="169.12" gradientUnits="userSpaceOnUse"><stop offset="0" stop-color="#bb9bb7"/><stop offset="0.67" stop-color="#5f4d5f"/></linearGradient><linearGradient id="Безымянный_градиент_1785" x1="79.41" y1="136.85" x2="97.19" y2="15.03" gradientUnits="userSpaceOnUse"><stop offset="0.22" stop-color="#5f89bf"/><stop offset="1" stop-color="#183773"/></linearGradient><linearGradient id="Безымянный_градиент_873" x1="90.56" y1="57.9" x2="92.72" y2="13.55" gradientUnits="userSpaceOnUse"><stop offset="0.37" stop-color="#fabb80"/><stop offset="0.83" stop-color="#faa16c"/></linearGradient><linearGradient id="Безымянный_градиент_322" x1="52.94" y1="465.75" x2="72.95" y2="485.09" gradientUnits="userSpaceOnUse"><stop offset="0" stop-color="#6d515b"/><stop offset="1" stop-color="#1b2139"/></linearGradient><linearGradient id="Безымянный_градиент_1724" x1="58.7" y1="465.2" x2="74.37" y2="480.54" gradientUnits="userSpaceOnUse"><stop offset="0.32" stop-color="#fff" stop-opacity="0"/><stop offset="0.39" stop-color="#fdfdfc" stop-opacity="0.06"/><stop offset="0.51" stop-color="#f9f7f2" stop-opacity="0.2"/><stop offset="0.67" stop-color="#f3eee3" stop-opacity="0.45"/><stop offset="0.87" stop-color="#e9e2cf" stop-opacity="0.78"/><stop offset="1" stop-color="#e3dac1"/></linearGradient><linearGradient id="Безымянный_градиент_1724-2" x1="53.4" y1="470.62" x2="69.07" y2="485.96" xlink:href="#Безымянный_градиент_1724"/><linearGradient id="Безымянный_градиент_1578" x1="64.58" y1="197.84" x2="84.08" y2="410.41" gradientUnits="userSpaceOnUse"><stop offset="0" stop-color="#5d7dbf"/><stop offset="1" stop-color="#374b6b"/></linearGradient><linearGradient id="Безымянный_градиент_322-2" x1="95.88" y1="469.06" x2="168.24" y2="498.07" xlink:href="#Безымянный_градиент_322"/><linearGradient id="Безымянный_градиент_1724-3" x1="115.26" y1="464.4" x2="126.93" y2="479.4" xlink:href="#Безымянный_градиент_1724"/><linearGradient id="Безымянный_градиент_1724-4" x1="109.16" y1="469.14" x2="120.83" y2="484.15" xlink:href="#Безымянный_градиент_1724"/><linearGradient id="Безымянный_градиент_1578-2" x1="92.3" y1="238.22" x2="124.31" y2="430.78" xlink:href="#Безымянный_градиент_1578"/><linearGradient id="Безымянный_градиент_1300" x1="100.54" y1="47.64" x2="88.54" y2="238.7" gradientUnits="userSpaceOnUse"><stop offset="0" stop-color="#ffffb5"/><stop offset="1" stop-color="#f1c15f"/></linearGradient><linearGradient id="Безымянный_градиент_1490" x1="64.78" y1="191.28" x2="76.27" y2="191.28" gradientUnits="userSpaceOnUse"><stop offset="0" stop-color="#e2ba7d"/><stop offset="1" stop-color="#f1d579"/></linearGradient><linearGradient id="Безымянный_градиент_1300-2" x1="101.37" y1="29.51" x2="98.94" y2="68.29" xlink:href="#Безымянный_градиент_1300"/><linearGradient id="Новый_образец_градиента_копия_2" x1="83.17" y1="60.33" x2="70.84" y2="175.7" gradientUnits="userSpaceOnUse"><stop offset="0" stop-color="#5d7d91"/><stop offset="1" stop-color="#374b6b"/></linearGradient><linearGradient id="Безымянный_градиент_1300-3" x1="75.8" y1="34.33" x2="73.9" y2="64.62" xlink:href="#Безымянный_градиент_1300"/><linearGradient id="Новый_образец_градиента_копия_2-2" x1="82.09" y1="69.13" x2="84.09" y2="50.13" xlink:href="#Новый_образец_градиента_копия_2"/><clipPath id="clip-path"><path class="cls-1" d="M80.18,64.29s-11.1,94.68-17,106.43c2,7.84,2,17.63,3.26,17.63s11.1-10.44,13.06-17.63c0-9.79,6.66-99.25,5.29-106.43C83.38,61.67,80.18,64.29,80.18,64.29Z"/></clipPath><linearGradient id="Новый_образец_градиента_копия_3" x1="76.93" y1="71.89" x2="88.23" y2="71.89" gradientTransform="translate(73.44 -37.22) rotate(44.17)" gradientUnits="userSpaceOnUse"><stop offset="0" stop-color="#ddf5f5"/><stop offset="1" stop-color="#c6d9db"/></linearGradient><linearGradient id="Новый_образец_градиента_копия_3-2" x1="74.79" y1="82.66" x2="89.41" y2="82.66" gradientTransform="translate(80.8 -33.84) rotate(44.17)" xlink:href="#Новый_образец_градиента_копия_3"/><linearGradient id="Новый_образец_градиента_копия_3-3" x1="72.73" y1="92.78" x2="91.83" y2="92.78" gradientTransform="translate(78.02 -31.15) rotate(39.6)" xlink:href="#Новый_образец_градиента_копия_3"/><linearGradient id="Новый_образец_градиента_копия_3-4" x1="69.83" y1="107.76" x2="89.07" y2="107.76" gradientTransform="translate(97.55 -24.89) rotate(44.17)" xlink:href="#Новый_образец_градиента_копия_3"/><linearGradient id="Новый_образец_градиента_копия_3-5" x1="67.09" y1="121.47" x2="90.11" y2="121.47" gradientTransform="translate(92.58 -22.54) rotate(38.45)" xlink:href="#Новый_образец_градиента_копия_3"/><linearGradient id="Новый_образец_градиента_копия_3-6" x1="65.57" y1="136.13" x2="87.29" y2="136.13" gradientTransform="translate(103.13 -17.69) rotate(39.16)" xlink:href="#Новый_образец_градиента_копия_3"/><linearGradient id="Новый_образец_градиента_копия_3-7" x1="62.14" y1="149.79" x2="83.79" y2="149.79" gradientTransform="translate(104.64 -13.79) rotate(36.93)" xlink:href="#Новый_образец_градиента_копия_3"/><linearGradient id="Новый_образец_градиента_копия_3-8" x1="59.33" y1="162.51" x2="83.62" y2="162.51" gradientTransform="translate(111.7 -10.41) rotate(36.84)" xlink:href="#Новый_образец_градиента_копия_3"/><linearGradient id="Новый_образец_градиента_копия_3-9" x1="59.18" y1="174.25" x2="82.12" y2="174.25" gradientTransform="translate(116.96 -7.99) rotate(36.33)" xlink:href="#Новый_образец_градиента_копия_3"/><linearGradient id="Безымянный_градиент_159" x1="6366.89" y1="143.55" x2="6367.23" y2="128.88" gradientTransform="matrix(-1, 0.08, 0.08, 1, 6365.84, -376.81)" gradientUnits="userSpaceOnUse"><stop offset="0.64" stop-color="#ffd7a5"/><stop offset="1" stop-color="#faa96c"/></linearGradient><linearGradient id="Безымянный_градиент_1725" x1="51.45" y1="228.91" x2="109.88" y2="228.91" gradientUnits="userSpaceOnUse"><stop offset="0.16" stop-color="#694538"/><stop offset="1" stop-color="#1c1007"/></linearGradient><linearGradient id="Безымянный_градиент_1562" x1="130.94" y1="69.84" x2="132.59" y2="292.8" gradientUnits="userSpaceOnUse"><stop offset="0" stop-color="#8567ad"/><stop offset="1" stop-color="#1b2139"/></linearGradient><linearGradient id="Безымянный_градиент_1562-2" x1="-7.14" y1="137.75" x2="33.21" y2="133.08" xlink:href="#Безымянный_градиент_1562"/><linearGradient id="Безымянный_градиент_1562-3" x1="4.4" y1="224.85" x2="44.75" y2="220.18" xlink:href="#Безымянный_градиент_1562"/><linearGradient id="Безымянный_градиент_1562-4" x1="51.05" y1="67.82" x2="52.72" y2="293.23" xlink:href="#Безымянный_градиент_1562"/><linearGradient id="Безымянный_градиент_1562-5" x1="119.47" y1="15" x2="118.14" y2="129.71" xlink:href="#Безымянный_градиент_1562"/><linearGradient id="Безымянный_градиент_1562-6" x1="54.68" y1="14.25" x2="53.35" y2="128.95" xlink:href="#Безымянный_градиент_1562"/><linearGradient id="Безымянный_градиент_1562-7" x1="122.26" y1="215.26" x2="122.35" y2="228.34" xlink:href="#Безымянный_градиент_1562"/><linearGradient id="Безымянный_градиент_322-3" x1="44.18" y1="214.89" x2="44.27" y2="227.27" xlink:href="#Безымянный_градиент_322"/><linearGradient id="Безымянный_градиент_1785-2" x1="99.48" y1="142.06" x2="117.63" y2="17.73" xlink:href="#Безымянный_градиент_1785"/><linearGradient id="Безымянный_градиент_1785-3" x1="57.28" y1="135.05" x2="75.32" y2="11.49" xlink:href="#Безымянный_градиент_1785"/></defs><g id="Слой_2" data-name="Слой 2"><g id="Слой_2-2" data-name="Слой 2"><path class="cls-2" d="M32.77,316.23A9.73,9.73,0,1,0,42.5,326,9.72,9.72,0,0,0,32.77,316.23Zm0,16.46a6,6,0,1,1,6-6A6,6,0,0,1,32.77,332.69Z"/><path class="cls-3" d="M29.22,332.87c-.56,3.6-2.19,37.12-2.62,40.59-.56,4.49-3.74,9-8.23,8.42-3.14-.4-9.35-2.81-11-6.74,1.88,0,4.27-.17,5.75-1.31-7.66-3.13-8.08-13.21-9.91-12.9-1.12.19-5.8,11.22-1.31,20a7.84,7.84,0,0,0,3-4.3,19.56,19.56,0,0,0,9,10.4c5,2.82,17,8.67,18.89,13.35V328.94C30.72,328.94,29.78,329.26,29.22,332.87Z"/><path class="cls-4" d="M36.33,332.87c.56,3.6,2.18,37.12,2.61,40.59.57,4.49,3.75,9,8.23,8.42,3.15-.4,9.36-2.81,11-6.74-1.88,0-4.27-.17-5.76-1.31,7.67-3.13,8.09-13.21,9.91-12.9,1.13.19,5.8,11.22,1.31,20a7.89,7.89,0,0,1-3-4.3,19.52,19.52,0,0,1-9,10.4c-5,2.82-17,8.67-18.89,13.35V328.94C34.83,328.94,35.77,329.26,36.33,332.87Z"/><path class="cls-5" d="M32.77,344.49c4.3,0,12.35,0,16.09-1.07a4.72,4.72,0,0,0,0-3.81c-2.06-.94-9.92-2.81-16.09-2.81s-14,1.87-16.08,2.81a4.67,4.67,0,0,0,0,3.81C20.43,344.47,28.47,344.49,32.77,344.49Z"/><path class="cls-6" d="M34.54,321c-1.11,1.15-2.63,3.25-4.81.57S21,290.79,21,283s25.31-5.53,25.47,1.31-7.84,0-12.41,0-8.75-1.35-8.49,3.26C26.24,299.28,30.43,321.13,34.54,321Z"/><path class="cls-7" d="M36.15,316.83s11.26-27.36,10.47-31.27S43.87,283,43.87,283c-2,13.06-10,33.33-10,33.33Z"/><path class="cls-8" d="M60.75,53s58-3.1,58-3.75,2.61-11.1,2.61-11.1c-13.06-9.8-52.89-9.41-60.73,8.68"/><path class="cls-9" d="M92.34,25.68c10-1.4,28.17.55,29.88,9.13-7,8-51.83,9.23-53.79,6.62s-3.92-4.1-.65-6.62S83.6,26.9,92.34,25.68Z"/><path class="cls-10" d="M107.61,0c-2,9.07-4.93,25.13-1.81,38.18C100.93,57.74,81.31,63.26,77.15,52a265.88,265.88,0,0,1,1.08-28.87Z"/><path class="cls-11" d="M93.9,474.69s1.58,11.1,1.44,14H86.46l-3-4.24a11.61,11.61,0,0,1-9.32,4.24H53.29c-10.33,0-20.12-9.47-16.86-12.73,3.27,1.31,15,3.26,17.63,2s11.11-10.45,15-11.1S93.9,474.69,93.9,474.69Z"/><path class="cls-12" d="M63.86,471.43c1.66-1.67,11.75,0,10.45,2s-14.37,2.61-13.72,1.3S62.55,472.73,63.86,471.43Z"/><path class="cls-13" d="M56.68,478.61c-1.46,0,2-2.61,3.26-2.61s6,.94,5.63,1.78S58,478.61,56.68,478.61Z"/><path class="cls-14" d="M95.3,262.37c1.09,23.26-11.85,98.38-4.67,122.54s5.46,86.19,4.69,97.29c-10-9.79-20.78-17.23-30.69-12.86,1.19-25.66,5-58,.8-80S46,257.57,51,223.94C57.75,213.5,93.44,222.77,95.3,262.37Z"/><path class="cls-15" d="M148.75,474.37s1.59,11.1,1.45,14h-8.88l-3-4.25a11.6,11.6,0,0,1-9.32,4.25H108.14c-10.32,0-20.12-9.47-16.85-12.74,3.26,1.31,15,3.27,17.63,2s11.1-10.45,15-11.1S148.75,474.37,148.75,474.37Z"/><path class="cls-16" d="M118.71,471.1c1.67-1.66,11.76,0,10.45,2s-14.37,2.61-13.71,1.31S117.41,472.41,118.71,471.1Z"/><path class="cls-17" d="M111.53,478.29c-1.46,0,2-2.62,3.26-2.62s6,.95,5.64,1.78S112.83,478.29,111.53,478.29Z"/><path class="cls-18" d="M113.49,224.27c12.4,11.75,15.24,25.49,13.82,75.11s4.5,80.88,11,94.67c8.64,18.35,12.92,73.13,11.69,88.15-16.84-8.48-17.25-14.82-30.63-12.4.68-19.34,0-63.36-5.87-72.17s-11.42-24.59-15.18-65S85.41,295,75.61,277.93,58,243.86,61.9,227.53,107.61,217.09,113.49,224.27Z"/><path class="cls-19" d="M110.08,39.83S157.39,76,157,85.83,114.79,206,113.49,224.27c-24.82,9.79-60.73,11.1-64,2.61-5.87-42.44-11.89-144.09-9.21-153S67.78,40.78,75,41.43C69.57,54.25,94.55,53.84,110.08,39.83Z"/><path class="cls-20" d="M75.61,149.83c-.65,13.06-15.54,66.71-8.1,82.66"/><path class="cls-21" d="M105,29c-1.6,5.63-11.76,13.72-17.63,16.33-2,3.26-1.83,5.33-1.83,5.33C91.29,46,92.82,53.77,97,67.19c5-3.2,17.21-21,18.18-25.68C111.19,32.21,108.92,25.76,105,29Z"/><path class="cls-22" d="M80.18,64.29s-11.1,94.68-17,106.43c2,7.84,2,17.63,3.26,17.63s11.1-10.44,13.06-17.63c0-9.79,6.66-99.25,5.29-106.43C83.38,61.67,80.18,64.29,80.18,64.29Z"/><path class="cls-23" d="M77.57,34.25c0,4.57,0,9.79,3.27,10.45,2,1.3,1.41,6,1.41,6-6.64-4.68-9.9,5.77-11.86,13a106.92,106.92,0,0,1-2.61-20.89C70.39,35.55,75.85,30.57,77.57,34.25Z"/><path class="cls-24" d="M78.23,49.27c2.71-1.81,11.81-2.76,12.4,2,.66,5.22-3.78,13.39-5.81,17.79-1.44-2.94-4.9-3.26-5.29-1.47C76.14,58.08,76.27,50.57,78.23,49.27Z"/><g class="cls-25"><g class="cls-26"><rect class="cls-27" x="75.66" y="70.91" width="13.85" height="1.96" transform="translate(-26.74 77.86) rotate(-44.17)"/><rect class="cls-28" x="72.86" y="81.68" width="18.47" height="1.96" transform="translate(-34.38 80.57) rotate(-44.17)"/><rect class="cls-29" x="70.7" y="91.8" width="23.16" height="1.96" transform="translate(-40.26 73.73) rotate(-39.6)"/><rect class="cls-30" x="66.98" y="106.78" width="24.93" height="1.96" transform="translate(-52.63 85.83) rotate(-44.17)"/><rect class="cls-31" x="64.68" y="120.49" width="27.84" height="1.96" transform="translate(-58.49 75.22) rotate(-38.45)"/><rect class="cls-32" x="63.22" y="135.15" width="26.42" height="1.96" transform="translate(-68.8 78.84) rotate(-39.16)"/><rect class="cls-33" x="60.17" y="148.81" width="25.6" height="1.96" transform="translate(-75.36 73.89) rotate(-36.93)"/><rect class="cls-34" x="57.04" y="161.53" width="28.87" height="1.96" transform="translate(-83.16 75.3) rotate(-36.84)"/><rect class="cls-35" x="57.14" y="173.27" width="27.03" height="1.96" transform="translate(-89.5 75.73) rotate(-36.33)"/></g></g><path class="cls-36" d="M34.13,241.07c2.93,15.52,1.18,25.18,1.18,25.18,5,6.35,8.12,12.28,6.67,15.21s-5.32,15.14-9.28,14.9-5.37-5.89-5.37-5.89c-.62,1.8-4.31-2.2-5.44-4.22a13.26,13.26,0,0,1-1.52-8.14c.33-2.84,7-14.58,7.12-15.73-.07-5.63.05-20.78.05-20.78Z"/><path class="cls-37" d="M109.88,221.74c-9.45,3.84-40.8,12.32-58.43,5.14v6.59c15,5.82,48.94.9,58.43-4.8A23.38,23.38,0,0,1,109.88,221.74Z"/><path class="cls-38" d="M118.06,42.74c16.49,16.61,43.75,32,41.14,41.79s-30.54,101.91-33.56,110.7c7.69,30,12.66,95.37,12.66,102-5.22,9.42-26.15,11-32.66,10.13-2.59-21.95-1.38-97.12-1.34-116.24S106.79,89.46,118.06,42.74Z"/><path class="cls-39" d="M50.8,100.85c.65-20.89-7.52-37.57-15.19-24s-9,77.08-8.33,101.16S42.61,194.27,44.42,177,50.57,108.15,50.8,100.85Z"/><path class="cls-40" d="M20.25,268.39c8.86,3.83,19.32.85,20-4.65.78-15.6,3.46-61.84,4.7-71.88S30.23,163.2,28.43,180.35,19.73,253.75,20.25,268.39Z"/><path class="cls-41" d="M64.63,43.18c-10,48.09-13.5,132.34-13,149.53S60,307.4,60,307.4c-9.81-3.46-17-2.78-17-8-.63-33.33,1.64-98,.5-111S35.54,91.09,38,74.09C46.23,58.41,61.48,43.63,64.63,43.18Z"/><path class="cls-42" d="M129.81,46.65c.83,8.2,2.42,42.44,1.87,45.38s-10.36,11-10.36,11l9.15,6.31c-11.76,29.39-22.56,57.37-26,67.21-.29-26,3.23-107.9,11.66-132,2.51-3.06,2.56-7.73,5.17-6.42S128.51,43.39,129.81,46.65Z"/><path class="cls-43" d="M51.94,171.55c-2.93-36.92-6.36-65.47-6.36-65.47l4.57-4.57c-5.23-2.62-7.84-4.57-7.84-7.19s9.62-42.86,20.48-51.14c3-.44,3.63-1.62,2.38,2.82C56.68,76,56.35,145.61,51.94,171.55Z"/><path class="cls-44" d="M111.53,217.09c0-3.52,19.46-4.26,20.26-2.62.63,1.31,2.5,10.83,0,12.41s-17,3.27-18.63,1.79C111.93,227.58,111.53,219.05,111.53,217.09Z"/><path class="cls-45" d="M41.66,214.47c.59-1.59,5.22-1.3,5.87,0s.66,12.41,0,13.06c-.93.94-5.22.64-6.53-.65S41,216.23,41.66,214.47Z"/><path class="cls-46" d="M122.63,36.21c2.54,10.15-7.84,83.58-9.14,97.29-3.27,4.57-22.12-2-24.82-4.57,1.8-17.63,27.06-84,25-91C117.26,32.51,120.67,28.37,122.63,36.21Z"/><path class="cls-47" d="M69,39.83c-1.87,9.07-1.92,82.57-1.26,92.37-4.57,3.26-15.17,10.5-17.63,5.87C51.76,91.6,60.59,43.45,63.21,38.85S70.31,32.36,69,39.83Z"/></g></g></svg>