<svg xmlns="http://www.w3.org/2000/svg" xmlns:xlink="http://www.w3.org/1999/xlink" viewBox="0 0 205.47 414.75"><defs><style>.cls-1{fill:url(#Безымянный_градиент_783);}.cls-2{fill:#283547;}.cls-3{fill:url(#Новый_образец_градиента_копия_2);}.cls-4{fill:url(#Безымянный_градиент_1624);}.cls-5{fill:url(#Безымянный_градиент_447);}.cls-6{fill:url(#Новый_образец_градиента_копия_2-2);}.cls-7{fill:url(#Безымянный_градиент_1624-2);}.cls-8{fill:none;stroke:#5e80a0;stroke-miterlimit:10;stroke-width:1.26px;}.cls-9{fill:url(#Безымянный_градиент_446);}.cls-10{fill:#087265;}.cls-11{fill:url(#Безымянный_градиент_1861);}.cls-12{fill:url(#Безымянный_градиент_896);}.cls-13{fill:#a2aaae;}.cls-14{fill:#a9bcca;}.cls-15{fill:#d23c3e;}.cls-16{fill:url(#Безымянный_градиент_598);}.cls-17{fill:url(#Безымянный_градиент_492);}.cls-18{fill:url(#Безымянный_градиент_600);}.cls-19{fill:url(#Безымянный_градиент_1842);}.cls-20{fill:url(#Безымянный_градиент_1847);}.cls-21{fill:url(#Безымянный_градиент_783-2);}.cls-22{fill:url(#Безымянный_градиент_1865);}.cls-23{fill:url(#Безымянный_градиент_1865-2);}.cls-24{fill:url(#Безымянный_градиент_446-2);}.cls-25{fill:url(#Безымянный_градиент_1850);}.cls-26{fill:url(#Безымянный_градиент_783-3);}.cls-27{fill:url(#Безымянный_градиент_159);}.cls-28{fill:url(#Безымянный_градиент_1858);}.cls-29{fill:url(#Безымянный_градиент_1843);}.cls-30{fill:url(#Безымянный_градиент_159-2);}.cls-31{fill:url(#Безымянный_градиент_159-3);}.cls-32{fill:url(#Безымянный_градиент_1850-2);}</style><linearGradient id="Безымянный_градиент_783" x1="95.6" y1="417.92" x2="98.1" y2="383.09" gradientUnits="userSpaceOnUse"><stop offset="0.46" stop-color="#fabb80"/><stop offset="1" stop-color="#faa16c"/></linearGradient><linearGradient id="Новый_образец_градиента_копия_2" x1="64.83" y1="411.48" x2="106.49" y2="411.48" gradientUnits="userSpaceOnUse"><stop offset="0" stop-color="#5d7d91"/><stop offset="1" stop-color="#374b6b"/></linearGradient><linearGradient id="Безымянный_градиент_1624" x1="83.19" y1="158.65" x2="95.85" y2="320.78" gradientUnits="userSpaceOnUse"><stop offset="0" stop-color="#8bd7ef"/><stop offset="1" stop-color="#4777b3"/></linearGradient><linearGradient id="Безымянный_градиент_447" x1="148.94" y1="402.11" x2="151.44" y2="367.28" gradientUnits="userSpaceOnUse"><stop offset="0.79" stop-color="#fabb80"/><stop offset="0.95" stop-color="#faa16c"/></linearGradient><linearGradient id="Новый_образец_градиента_копия_2-2" x1="116.43" y1="411.48" x2="158.08" y2="411.48" xlink:href="#Новый_образец_градиента_копия_2"/><linearGradient id="Безымянный_градиент_1624-2" x1="125.43" y1="157.05" x2="170" y2="391.07" xlink:href="#Безымянный_градиент_1624"/><linearGradient id="Безымянный_градиент_446" x1="161.25" y1="36.11" x2="157.41" y2="79.48" gradientUnits="userSpaceOnUse"><stop offset="0" stop-color="#404e4f"/><stop offset="0.31" stop-color="#3a4647"/><stop offset="0.8" stop-color="#292f33"/><stop offset="1" stop-color="#212429"/></linearGradient><linearGradient id="Безымянный_градиент_1861" x1="39.08" y1="165.73" x2="54.4" y2="84.9" gradientUnits="userSpaceOnUse"><stop offset="0" stop-color="#43dcaa"/><stop offset="0.44" stop-color="#008d81"/></linearGradient><linearGradient id="Безымянный_градиент_896" x1="28.22" y1="50.28" x2="31.09" y2="113.33" gradientTransform="matrix(0.6, -0.8, 0.8, 0.6, -51.47, 50.65)" gradientUnits="userSpaceOnUse"><stop offset="0" stop-color="#fff5f5"/><stop offset="1" stop-color="#c6d9db"/></linearGradient><linearGradient id="Безымянный_градиент_598" x1="28.26" y1="51.92" x2="30.46" y2="100.18" gradientTransform="translate(0.3 -4.82)" gradientUnits="userSpaceOnUse"><stop offset="0" stop-color="#ddf5f5" stop-opacity="0"/><stop offset="1" stop-color="#fafff5" stop-opacity="0.4"/></linearGradient><linearGradient id="Безымянный_градиент_492" x1="27.76" y1="121.12" x2="31.07" y2="125.51" gradientTransform="matrix(0.6, -0.8, 0.8, 0.6, -51.47, 50.65)" xlink:href="#Новый_образец_градиента_копия_2"/><linearGradient id="Безымянный_градиент_600" x1="24.25" y1="48.94" x2="29.53" y2="55.92" gradientTransform="matrix(0.95, -0.3, 0.3, 0.95, -34.81, 18.43)" gradientUnits="userSpaceOnUse"><stop offset="0" stop-color="#ddf5f5" stop-opacity="0"/><stop offset="1" stop-color="#faffff" stop-opacity="0.5"/></linearGradient><radialGradient id="Безымянный_градиент_1842" cx="-281.64" cy="143.28" fx="-292.9880623593122" fy="131.09786969534025" r="88.38" gradientTransform="translate(349.83) scale(0.93 1)" gradientUnits="userSpaceOnUse"><stop offset="0" stop-color="#43dcaa"/><stop offset="0.77" stop-color="#008d81"/></radialGradient><radialGradient id="Безымянный_градиент_1847" cx="-277.04" cy="60.69" r="102.04" gradientTransform="translate(349.83) scale(0.93 1)" gradientUnits="userSpaceOnUse"><stop offset="0" stop-color="#43dcaa"/><stop offset="1" stop-color="#008d81"/></radialGradient><linearGradient id="Безымянный_градиент_783-2" x1="104.27" y1="51.26" x2="100.48" y2="28.51" xlink:href="#Безымянный_градиент_783"/><linearGradient id="Безымянный_градиент_1865" x1="94" y1="51.54" x2="142.1" y2="18.16" gradientUnits="userSpaceOnUse"><stop offset="0.44" stop-color="#43dcaa"/><stop offset="1" stop-color="#008d81"/></linearGradient><linearGradient id="Безымянный_градиент_1865-2" x1="110.07" y1="53.82" x2="66.89" y2="22.75" xlink:href="#Безымянный_градиент_1865"/><linearGradient id="Безымянный_градиент_446-2" x1="128.91" y1="85.43" x2="168.63" y2="85.43" xlink:href="#Безымянный_градиент_446"/><linearGradient id="Безымянный_градиент_1850" x1="169.58" y1="-1.22" x2="183.5" y2="112.2" gradientTransform="matrix(1, 0, 0, 1, 0, 0)" xlink:href="#Безымянный_градиент_1847"/><linearGradient id="Безымянный_градиент_783-3" x1="5185.47" y1="-4310.53" x2="5181.73" y2="-4302.96" gradientTransform="matrix(-0.12, 0.99, 0.99, 0.12, 4992.73, -4441.05)" xlink:href="#Безымянный_градиент_783"/><linearGradient id="Безымянный_градиент_159" x1="7006.22" y1="-3360.44" x2="7006.55" y2="-3374.39" gradientTransform="matrix(-0.58, 0.81, 0.81, 0.58, 6886.89, -3551.54)" gradientUnits="userSpaceOnUse"><stop offset="0.64" stop-color="#ffd7a5"/><stop offset="1" stop-color="#faa96c"/></linearGradient><linearGradient id="Безымянный_градиент_1858" x1="57.51" y1="187.31" x2="32.21" y2="127.21" gradientUnits="userSpaceOnUse"><stop offset="0.03" stop-color="#43dcaa"/><stop offset="0.8" stop-color="#008d81"/></linearGradient><linearGradient id="Безымянный_градиент_1843" x1="93.71" y1="127.07" x2="99.2" y2="212.48" gradientTransform="matrix(1, 0, 0, 1, 0, 0)" xlink:href="#Безымянный_градиент_1847"/><linearGradient id="Безымянный_градиент_159-2" x1="8153.62" y1="876.7" x2="8148.1" y2="887.86" gradientTransform="translate(8056.59 -2049.43) rotate(158.71)" xlink:href="#Безымянный_градиент_159"/><linearGradient id="Безымянный_градиент_159-3" x1="7127.61" y1="2611.42" x2="7128.06" y2="2592.3" gradientTransform="translate(6731.68 -3669.21) rotate(130.11)" xlink:href="#Безымянный_градиент_159"/><linearGradient id="Безымянный_градиент_1850-2" x1="6071.14" y1="3010.29" x2="6079.31" y2="3076.84" gradientTransform="matrix(-0.38, 0.93, -1.06, -0.43, 5707.48, -4190.48)" xlink:href="#Безымянный_градиент_1847"/></defs><g id="Слой_2" data-name="Слой 2"><g id="Слой_2-2" data-name="Слой 2"><path class="cls-1" d="M106.71,356c-1.21,9.79-8.49,39.83-6.07,48.32-3,3.27-7.54,1.71-7.54,1.71.26-8.89-1.56-42.85.87-52.64C100,352.71,106.71,356,106.71,356Z"/><path class="cls-2" d="M103.49,397.53c1.06,5.17,4.07,6.89,1.77,17.22H68.8c-5.87-8.61-4.84-5.26,19.7-15,2.23-9.34,1.08-11.55,1.22-23.51,3.64-.65,17.24,0,17,1.31A201.09,201.09,0,0,0,103.49,397.53Z"/><path class="cls-3" d="M94.05,410.16c2.22-1.12,11.12,0,11.88.57s.66,2.87.16,4h-39c-3.29-4-2.41-7.13-1.2-6.43S79.21,417.62,94.05,410.16Z"/><path class="cls-4" d="M53.41,188.39c11.42,46.78,14.45,84,20.52,103.6s12.15,49,13.36,69.87c3,5.22,21.25,3.91,24.28.65.61-18.94,6.68-36.57,4.86-49.63S102,283.36,119.23,209C97.23,198,53.41,188.39,53.41,188.39Z"/><path class="cls-5" d="M158.92,356c-1.21,9.79-8.5,39.83-6.07,48.32-3,3.27-7.55,1.71-7.55,1.71.26-8.89-1.56-42.85.87-52.64C152.24,352.71,158.92,356,158.92,356Z"/><path class="cls-2" d="M155.08,397.53c1.07,5.17,4.08,6.89,1.77,17.22H120.4c-5.87-8.61-4.84-5.26,19.7-15,2.23-9.34,1.08-11.55,1.22-23.51,3.64-.65,17.23,0,17,1.31A200.89,200.89,0,0,0,155.08,397.53Z"/><path class="cls-6" d="M145.65,410.16c2.21-1.12,11.12,0,11.88.57s.66,2.87.16,4h-39c-3.3-4-2.41-7.13-1.2-6.43S130.81,417.62,145.65,410.16Z"/><path class="cls-7" d="M170.62,167.81c13.79,16.43-1.38,54.3-5.63,76.51s8.94,59.81,6.6,73.33-9,40.29-9,46.17c-6.07,5.22-24.89,2.89-25.8-1.82,3.64-23.79-3.69-55.87-7.59-67.4-7.28-21.55-38.36-74-42.85-101.66C128.93,176.85,156,150.35,170.62,167.81Z"/><path class="cls-8" d="M147.35,190.27c4.89,13.56-3.61,54-1.79,65.15S157.71,309,157.1,318.11s-5.09,46.43-5.89,48.68"/><path class="cls-8" d="M151.6,190.27c4.89,13.56-3.61,54-1.79,65.15S162,309,161.35,318.11s-5.09,46.43-5.89,48.68"/><path class="cls-9" d="M132.87,37.64c6.51-5,55.19,2.29,58.22,19.92s3.64,66-12.75,73.14-49.48-.32-54.79-10.29S119.57,47.75,132.87,37.64Z"/><path class="cls-10" d="M74.23,14.66C72.11,16.42,59,37.46,86.8,50.45s56.11-20.94,54.71-34S120.16,0,120.16,0Z"/><path class="cls-11" d="M54.93,47.77C45,55.59,46,57.56,40.55,73.88s-6.68,24.17-5.47,43.76S50.87,143.1,60,133.31s1.22-20.9,3.65-32S76.59,53,54.93,47.77Z"/><path class="cls-12" d="M2.82,65l42.5,31.82a10.55,10.55,0,0,0,7.52,2l1.71-.19a7,7,0,0,1,5,1.35l5.36,4a2.45,2.45,0,0,0,3.44-.49h0a2.45,2.45,0,0,0-.49-3.44l-5.36-4a7,7,0,0,1-2.72-4.42l-.29-1.69a10.54,10.54,0,0,0-4.07-6.65L12.93,51.45a7,7,0,0,0-9.84,1.41L1.4,55.12A7,7,0,0,0,2.82,65Z"/><path class="cls-13" d="M53.45,87.05,48.39,93.8a.35.35,0,0,1-.49.07.34.34,0,0,1-.07-.49l5.05-6.75a.36.36,0,0,1,.5-.08A.37.37,0,0,1,53.45,87.05Z"/><path class="cls-13" d="M46.69,82l-5,6.75a.35.35,0,1,1-.56-.42l5.05-6.75a.35.35,0,0,1,.49-.07A.34.34,0,0,1,46.69,82Z"/><path class="cls-13" d="M39.94,76.94l-5,6.75a.35.35,0,0,1-.5.07.36.36,0,0,1-.07-.49l5.06-6.75a.35.35,0,0,1,.56.42Z"/><path class="cls-13" d="M33.19,71.88l-5.06,6.76a.35.35,0,1,1-.56-.42l5.06-6.76a.35.35,0,0,1,.56.42Z"/><path class="cls-13" d="M26.44,66.83l-5.06,6.75a.35.35,0,1,1-.56-.42l5.05-6.75a.35.35,0,0,1,.5-.07A.36.36,0,0,1,26.44,66.83Z"/><path class="cls-13" d="M19.68,61.78l-5,6.75a.36.36,0,0,1-.49.07.34.34,0,0,1-.07-.49l5.05-6.76a.36.36,0,0,1,.49-.07A.35.35,0,0,1,19.68,61.78Z"/><path class="cls-13" d="M12.93,56.72l-5,6.75a.35.35,0,0,1-.5.07.36.36,0,0,1-.07-.49l5.06-6.75a.35.35,0,1,1,.56.42Z"/><rect class="cls-14" x="34.46" y="44.54" width="2.81" height="69.23" rx="1.41" transform="translate(-49 60.44) rotate(-53.19)"/><rect class="cls-15" x="42.9" y="59.64" width="2.81" height="51.66" rx="1.21" transform="translate(-50.67 69.73) rotate(-53.19)"/><rect class="cls-16" x="24.19" y="43" width="11.25" height="63.26" rx="5.62" transform="translate(-47.8 53.78) rotate(-53.19)"/><path class="cls-17" d="M64.49,97.51,67.87,100a2.45,2.45,0,0,1,.49,3.44h0a2.45,2.45,0,0,1-3.44.49l-3.38-2.52"/><ellipse class="cls-18" cx="7.12" cy="60.54" rx="5.24" ry="6.83" transform="translate(-33.86 15.42) rotate(-35.54)"/><path class="cls-19" d="M70.29,38.62c-17.6,11.76-21.24,7.19-18.21,26.12s-.61,32-7.89,42.45,9.11,20.89,12.14,23.51c-2.43,20.24-19.42,51.58-1.21,64s64.95,19.59,95.91-10.45c7.67-7.45,40.06-32.65,17.6-55.5-4.85-18.29,7.29-62.69,1.22-75.1-14-10.45-25.5-20.89-29.75-21.55S70.29,38.62,70.29,38.62Z"/><path class="cls-20" d="M56.33,130.7c-3-2.62-19.42-13.06-12.14-23.51s10.93-23.51,7.89-42.45.61-14.36,18.21-26.12c0,0,65.56-7.18,69.81-6.53s15.78,11.1,29.75,21.55c3.94,8.06.2,29.61-1.58,48.74-8.14,23.74-27.67,30.71-46.43,28.2S73.33,118.94,56.33,130.7Z"/><path class="cls-10" d="M168.59,166.4c4.33,2.38,4.29,5.43,4.29,5.43-8.5,20.9-35.81,39.18-72.24,38.53C125.53,201.22,142.45,196.88,168.59,166.4Z"/><path class="cls-21" d="M122.79,10.54S114,28.83,128,36.66c-15.18,13.72-48.56,13.06-51.6,3.92,6.07-3.26,7.29-9.14,7.29-16.32S122.79,10.54,122.79,10.54Z"/><path class="cls-22" d="M132.71,2.86C156.49,4.67,151,19.69,149.21,38c-4.25-2.61-9.11-5.88-9.11-5.88-16.39,19.59-38.33,7.37-50.73,29.8-3-12.58,12.06-25.39,30.79-31.84s15.08-17.55,4.16-19.51S132.71,2.86,132.71,2.86Z"/><path class="cls-23" d="M73.33,10.54C64.22,21,54.1,26.78,54.91,32.38S85.47,43.85,90.32,57.56c4.25-8.49,2.56-14.12-2.36-17.51s-21.31-6-12.2-18.41S73.33,10.54,73.33,10.54Z"/><path class="cls-24" d="M157.1,43.85l-6.68-5.23c-42.69,55.84-14,107.75,18.21,90.12-.61-2.62-1.16-10-1.16-10C145.56,133.31,117.64,103.27,157.1,43.85Z"/><path class="cls-25" d="M169.85,53.64c7.48,4.18-1.83,11.1,10.32,24.16s7.89,9.14,10.31,22.86,26.71,25.46,7.9,37.22S172.24,141.14,168,132s1.75-13.77-3.07-23.53S153.46,44.5,169.85,53.64Z"/><path class="cls-26" d="M67.86,160.73c-2,.59,4.77,14.36,11.54,8.49C80.61,166.61,78.79,157.47,67.86,160.73Z"/><path class="cls-27" d="M39.88,148.29c13.81,8.46,18.74,11.24,18.74,11.24,8.13.31,13.77.2,15.07,3.45s12.33,10.38,10,13.89a9.24,9.24,0,0,1-8.84,4c1,1.77-4.3,3.79-6.46,2.86s-9.68-4.62-11.64-6.89-5.1-11.28-5.91-12.16C46.5,160.76,36,154.1,36,154.1Z"/><path class="cls-28" d="M33.87,111.76c-6.07,5.88-17.5,14.65-10.27,22.34-5,12.12-2.48,20.76,6,21.41,0,8.49.36,17.69,5,20.92s9.54-7.21,14.4-5.25c-.61-6.53,3-13.71,6.07-15-1.22-5.87,7.28-11.1,1.82-14.36,0-7.84-4.55-10.19-6.68-11.76C38.73,121.55,39.94,105.88,33.87,111.76Z"/><path class="cls-10" d="M58.79,158.82l-3.67-2.66c-4.86,0-9.11,12.41-6.07,15a13.64,13.64,0,0,0,4.36.53C52.08,169.22,54,159.51,58.79,158.82Z"/><path class="cls-10" d="M106.06,143.88c1.31,11.5,14,37.75,34.65,45.59-58.88,14.36-81.34,0-83.16-3.92S106.06,143.88,106.06,143.88Z"/><path class="cls-29" d="M68.32,143.62c5-5.09,35.62-.79,36.7,0-4.5,21.82,18.62,48.25,42.33,43.78-24.82,22.41-73.27,41.25-99.75-3.48C56.56,175.42,65.74,166.34,68.32,143.62Z"/><path class="cls-30" d="M143.14,94.13c-.7,2.05-6.68-6.53-3-15C141.92,79.76,146.71,83.64,143.14,94.13Z"/><path class="cls-31" d="M175.74,130c-11-12.35-27.24-30.24-27.24-30.24-2.27-8.41-3.54-14.32-6.79-14.89s-12.37-10.33-15-7.07c-3.65,4.57-1.43,10.2-1.43,10.2-1.83-.59-2.36,5.4-1,7.43s6.53,9,9.05,10.46,12.74,2.55,13.73,3.19c4.57,3.61,24.35,26.39,24.35,26.39Z"/><path class="cls-32" d="M202.37,133.58c1.62,13.74-13.66,10.26-20.47,12.11s-4.89-7.19-9.84-7.94-17.69-.69-16.83-10.89-7.47-4-10.28-14.36c6.05-.17,9-10,7.49-13.89,7.49-4,10.33-1.58,14.13,2.2,7.65-4.41,11.42-1.54,15.55,3.88S199.64,110.26,202.37,133.58Z"/><path class="cls-10" d="M148.6,97.39l3.84,1.22c2.23,4-.21,13.33-7.49,13.89-1.2-1.48-3-4-3-4S148.6,108.49,148.6,97.39Z"/></g></g></svg>