<svg xmlns="http://www.w3.org/2000/svg" xmlns:xlink="http://www.w3.org/1999/xlink" viewBox="0 0 140.77 415.72"><defs><style>.cls-1,.cls-18,.cls-6{fill:none;}.cls-2{fill:#283547;}.cls-3{fill:url(#Безымянный_градиент_1909);}.cls-4{fill:url(#Безымянный_градиент_1424);}.cls-5{fill:url(#Безымянный_градиент_18);}.cls-6{stroke:#283547;stroke-linejoin:round;}.cls-18,.cls-6{stroke-linecap:round;stroke-width:1.39px;}.cls-7{fill:url(#Безымянный_градиент_1909-2);}.cls-8{fill:url(#Безымянный_градиент_1428);}.cls-9{fill:url(#Безымянный_градиент_159);}.cls-10{fill:url(#Безымянный_градиент_1424-2);}.cls-11{fill:url(#Безымянный_градиент_1424-3);}.cls-12{fill:url(#Безымянный_градиент_1424-4);}.cls-13{fill:url(#Безымянный_градиент_1424-5);}.cls-14{fill:url(#Безымянный_градиент_1424-6);}.cls-15{fill:url(#Безымянный_градиент_1424-7);}.cls-16{fill:url(#Безымянный_градиент_1424-8);}.cls-17{fill:url(#Безымянный_градиент_159-2);}.cls-18{stroke:#c0717c;stroke-miterlimit:10;}.cls-19{fill:url(#Безымянный_градиент_1424-9);}.cls-20{fill:url(#Безымянный_градиент_1424-10);}.cls-21{fill:url(#Безымянный_градиент_1424-11);}.cls-22{fill:url(#Безымянный_градиент_1424-12);}.cls-23{fill:url(#Безымянный_градиент_1424-13);}.cls-24{fill:url(#Безымянный_градиент_1424-14);}.cls-25{fill:url(#Безымянный_градиент_1424-15);}.cls-26{fill:url(#Безымянный_градиент_1424-16);}.cls-27{fill:url(#Безымянный_градиент_1424-17);}.cls-28{fill:url(#Безымянный_градиент_938);}.cls-29{fill:url(#Безымянный_градиент_1424-18);}.cls-30{fill:url(#Безымянный_градиент_11);}.cls-31{fill:url(#Безымянный_градиент_159-3);}.cls-32{fill:url(#Новый_образец_градиента_копия_2);}.cls-33{fill:url(#Новый_образец_градиента_копия_2-2);}.cls-34{opacity:0.4;}.cls-35{clip-path:url(#clip-path);}</style><linearGradient id="Безымянный_градиент_1909" x1="127.59" y1="204.06" x2="141.82" y2="406.91" gradientTransform="translate(-61.72 -77.64) rotate(1.42)" gradientUnits="userSpaceOnUse"><stop offset="0" stop-color="#737d83"/><stop offset="1" stop-color="#191121"/></linearGradient><linearGradient id="Безымянный_градиент_1424" x1="13.27" y1="376.99" x2="69.7" y2="392.61" gradientUnits="userSpaceOnUse"><stop offset="0" stop-color="#d993bf"/><stop offset="1" stop-color="#ed5b89"/></linearGradient><linearGradient id="Безымянный_градиент_18" x1="15.31" y1="394.85" x2="78.14" y2="405.5" gradientUnits="userSpaceOnUse"><stop offset="0" stop-color="#fff5f5"/><stop offset="1" stop-color="#c6d9db"/></linearGradient><linearGradient id="Безымянный_градиент_1909-2" x1="96.8" y1="142.87" x2="116.05" y2="401.64" gradientTransform="matrix(1, 0, 0, 1, 0, 0)" xlink:href="#Безымянный_градиент_1909"/><linearGradient id="Безымянный_градиент_1428" x1="110.3" y1="37.34" x2="-3.04" y2="87.27" gradientUnits="userSpaceOnUse"><stop offset="0.51" stop-color="#fac38f"/><stop offset="1" stop-color="#faa96c"/></linearGradient><linearGradient id="Безымянный_градиент_159" x1="125.09" y1="70.91" x2="11.74" y2="120.83" gradientUnits="userSpaceOnUse"><stop offset="0.64" stop-color="#ffd7a5"/><stop offset="1" stop-color="#faa96c"/></linearGradient><linearGradient id="Безымянный_градиент_1424-2" x1="8697.37" y1="2526.13" x2="8680.36" y2="2553.69" gradientTransform="matrix(-0.85, -0.53, -0.53, 0.85, 8770.85, 2456.4)" xlink:href="#Безымянный_градиент_1424"/><linearGradient id="Безымянный_градиент_1424-3" x1="8699.94" y1="2545.74" x2="8685.82" y2="2568.61" gradientTransform="matrix(-0.85, -0.53, -0.53, 0.85, 8770.85, 2456.4)" xlink:href="#Безымянный_градиент_1424"/><linearGradient id="Безымянный_градиент_1424-4" x1="8700.55" y1="2561.27" x2="8687.54" y2="2582.35" gradientTransform="matrix(-0.85, -0.53, -0.53, 0.85, 8770.85, 2456.4)" xlink:href="#Безымянный_градиент_1424"/><linearGradient id="Безымянный_градиент_1424-5" x1="9461.16" y1="2075.63" x2="9451.45" y2="2098.33" gradientTransform="matrix(-0.92, -0.39, -0.39, 0.92, 9529.71, 1887.89)" xlink:href="#Безымянный_градиент_1424"/><linearGradient id="Безымянный_градиент_1424-6" x1="11746.44" y1="-2446.18" x2="11754.01" y2="-2422.69" gradientTransform="matrix(-0.9, 0.43, 0.29, 0.62, 11351.19, -3405.2)" xlink:href="#Безымянный_градиент_1424"/><linearGradient id="Безымянный_градиент_1424-7" x1="11748.81" y1="-2429.91" x2="11755.04" y2="-2410.58" gradientTransform="matrix(-0.9, 0.43, 0.29, 0.62, 11351.19, -3405.2)" xlink:href="#Безымянный_градиент_1424"/><linearGradient id="Безымянный_градиент_1424-8" x1="11747.24" y1="-2415.7" x2="11752.7" y2="-2398.75" gradientTransform="matrix(-0.9, 0.43, 0.29, 0.62, 11351.19, -3405.2)" xlink:href="#Безымянный_градиент_1424"/><linearGradient id="Безымянный_градиент_159-2" x1="79.02" y1="64.95" x2="87.31" y2="10.42" xlink:href="#Безымянный_градиент_159"/><linearGradient id="Безымянный_градиент_1424-9" x1="64.9" y1="61.95" x2="66.43" y2="115.89" xlink:href="#Безымянный_градиент_1424"/><linearGradient id="Безымянный_градиент_1424-10" x1="80.29" y1="4" x2="80.9" y2="25.45" xlink:href="#Безымянный_градиент_1424"/><linearGradient id="Безымянный_градиент_1424-11" x1="79.54" y1="19.19" x2="80.09" y2="38.43" xlink:href="#Безымянный_градиент_1424"/><linearGradient id="Безымянный_градиент_1424-12" x1="80.72" y1="30.36" x2="81.28" y2="50.14" xlink:href="#Безымянный_градиент_1424"/><linearGradient id="Безымянный_градиент_1424-13" x1="80.1" y1="35" x2="80.93" y2="64.22" xlink:href="#Безымянный_градиент_1424"/><linearGradient id="Безымянный_градиент_1424-14" x1="72.3" y1="48.14" x2="73.27" y2="82.59" xlink:href="#Безымянный_градиент_1424"/><linearGradient id="Безымянный_градиент_1424-15" x1="67.65" y1="65.79" x2="68.6" y2="99.5" xlink:href="#Безымянный_градиент_1424"/><linearGradient id="Безымянный_градиент_1424-16" x1="62.97" y1="83.2" x2="63.82" y2="113.37" xlink:href="#Безымянный_градиент_1424"/><linearGradient id="Безымянный_градиент_1424-17" x1="63.2" y1="104.63" x2="64.05" y2="134.51" xlink:href="#Безымянный_градиент_1424"/><linearGradient id="Безымянный_градиент_938" x1="65.18" y1="5.26" x2="46.18" y2="121.96" gradientUnits="userSpaceOnUse"><stop offset="0" stop-color="#c3577f"/><stop offset="1" stop-color="#ad298d"/></linearGradient><linearGradient id="Безымянный_градиент_1424-18" x1="71.39" y1="380.43" x2="123.21" y2="397.47" xlink:href="#Безымянный_градиент_1424"/><linearGradient id="Безымянный_градиент_11" x1="65.89" y1="397.63" x2="128.71" y2="408.28" gradientUnits="userSpaceOnUse"><stop offset="0" stop-color="#fff5f5"/><stop offset="1" stop-color="#c6d9db"/></linearGradient><linearGradient id="Безымянный_градиент_159-3" x1="34.42" y1="120.44" x2="45.54" y2="141.97" xlink:href="#Безымянный_градиент_159"/><linearGradient id="Новый_образец_градиента_копия_2" x1="94.47" y1="132.08" x2="83.8" y2="144.08" gradientUnits="userSpaceOnUse"><stop offset="0" stop-color="#5d7d91"/><stop offset="1" stop-color="#374b6b"/></linearGradient><linearGradient id="Новый_образец_градиента_копия_2-2" x1="79.96" y1="126.91" x2="77.74" y2="161.7" xlink:href="#Новый_образец_градиента_копия_2"/><clipPath id="clip-path"><circle class="cls-1" cx="87.68" cy="145.27" r="20.9"/></clipPath></defs><g id="Слой_2" data-name="Слой 2"><g id="Слой_2-2" data-name="Слой 2"><path class="cls-2" d="M96.35,96.61c8,10.19,6.72,32.64,3.44,37.41-2,.4-2.1-1.3-2.1-1.3,2.09-4.38,4.56-22.24-2.48-31.8C94.15,99.47,95.83,96,96.35,96.61Z"/><path class="cls-3" d="M63.88,135.57c21.47,16.87,34.41,14.06,28.93,39s-16.07,59.4-19.06,67.67c19.76,16.48,14.41,33.77,4,63.37s-14.65,58-9.36,69.3C63.23,386.56,54,374,54.05,373.26c.12-32.68,2.54-83.51-4.64-102.46S30.7,210.28,32,186.24c2-35.76,4.56-55.61,5.72-62.44C43.88,128.82,47.27,132.38,63.88,135.57Z"/><path class="cls-4" d="M68.65,368.39c2.09,11.12,20.85,22.94,20.16,34.06-19.46,3.48-59.08,13.21-75.07-6.95,11.12-2.78,35.47-10.17,38.24-23.16C61,373.48,61.7,364.92,68.65,368.39Z"/><path class="cls-5" d="M90.2,396.89c0,9-4.84,15.29-10.41,16-7,0-13.92-.7-16-4.17-3.82,3.82-5.59,4.17-10.44,4.17S21.38,415,13,395.5c4.17-1.39,32.67,6.26,35.45,9,6.26,2.78,10.43,4.7,17.38-5.73,5.56,6.25,10.43,2.25,10.43,2.25S81.86,386.47,90.2,396.89Z"/><path class="cls-6" d="M45.71,385.08c-17.37-14.6-2.68-22.44.4-1.14,1.29-12.32,14.93-12,1-.24"/><path class="cls-7" d="M90.9,128.07c21.89,16.33,52,22.76,47.09,47.79s-14.6,59.77-17.38,68.11c20.16,16,18.67,25.81,9,55.65s-16.63,66-11.07,77.11c-4.87,11.82-13.9,1.1-13.9.41-.7-32.67,0-85.21-7.65-104s-18.18-61.86-28.2-83.76-12.71-48.5-11.72-55.36C66,137,84.82,134.51,90.9,128.07Z"/><path class="cls-8" d="M47.48,41.49c-9.33,3.49-30.63,28.6-40.9,47s4.37,21.67,14.07,8.3S43.89,70.45,48.24,65,60.48,36.64,47.48,41.49Z"/><path class="cls-9" d="M4.51,104.4C8,109,27.28,132.21,33,134.8s9.62-.66,5.18-7.38S18.77,99.52,15.4,96.65-.78,97.29,4.51,104.4Z"/><path class="cls-10" d="M45.69,40.38c-6.26,2.27-16.62,14-17.78,17.17s10.64,17.31,14.7,15.22,12-12.53,14.23-17.31S61.87,34.49,45.69,40.38Z"/><path class="cls-11" d="M43,73c3.22-6.46-7.75-22.64-14.26-18.12A32.07,32.07,0,0,0,17.9,68C17.12,70.07,31.82,83.79,34,82S41.5,75.89,43,73Z"/><path class="cls-12" d="M33.81,81.57c2.16-6-11.37-16.79-15.41-14.4s-8.18,10-8.4,13S22.19,94.52,24.86,92.51,32.15,86.16,33.81,81.57Z"/><path class="cls-13" d="M15.33,103.18C20.69,99,26.91,93,27.07,89S13.78,73.7,9.23,79.26,0,94.33,2.67,98,13.42,104.69,15.33,103.18Z"/><path class="cls-14" d="M20.12,93.74c-2.58-1.94-16.33-9.8-19.59-2C-1.76,97.28,4,107,5.75,106.8s17-4.29,17-6.53S22.73,95.69,20.12,93.74Z"/><path class="cls-15" d="M20.51,97.52c-2.28-1.19-19.52,2-17.37,8,1.28,3.53,6.17,8.29,8.85,8.05s12.94-6.1,13-9S22.4,98.51,20.51,97.52Z"/><path class="cls-16" d="M25.34,104.84c-1.57-.63-16.32,3.91-14.78,8.92.82,2.64,4.33,6.53,6.29,6.1s11.74-6.35,11.76-7.84S28.33,106,25.34,104.84Z"/><path class="cls-17" d="M101.15,0C95.59,7.65,90,27.11,92.81,32s22.24,8.34,25,16-13.9,43.1-22.94,54.91-8.46,20.55-4.25,26.78c-24.16,9.14-43,9.37-47.18.33-.7-16.68,1.39-54.56,2.08-55.61-3.47-10.44-3.47-29.19,4.87-34.75s22.94-9.73,22.94-9.73c0-8.34.69-18.77.69-18.77Z"/><path class="cls-18" d="M85.16,76.46c1.39-3.48,11.13-27.8,21.55-36.84"/><path class="cls-18" d="M62.23,33.36c-5.56,5.56-16,29.89-18.77,35.45"/><path class="cls-19" d="M102.54,91.06c-6.25,1.39-16.68-10.43-16-18.08-16,6.26-38.23,6.26-41.7-7-14.6,14.6-26.41,27.33-1.39,44.25-.7,2.56-1.16,5.14,0,6.15C52.39,124.2,90,120.94,90,120.94Z"/><path class="cls-20" d="M61.91,12.76c-2.61,2-2.61,11.54,0,12.41,11.75,7.18,32.39-1,35.78-4.43S104.05,5,96.68,5C88.45,4.86,65.12,9.28,61.91,12.76Z"/><path class="cls-21" d="M61.91,24.52c-2.68,1.15-3.65,8.78-2.61,12.4,1.3,4.58,33.1,6.46,39.18-3.26,3.26-5.22,2.81-14.52,0-13.71C93.91,21.25,69.75,31.7,61.91,24.52Z"/><path class="cls-22" d="M97.82,33c-8.48,5.87-18.93,6.53-30,5.22-4.54-.53-8.49-3.92-8.49-5.88-4.57-.65-9.25,3.51-9.8,5.88s5.88,10.45,15,12.41,35.26,5.22,47.67-10.45C114.53,37.24,100.37,31.24,97.82,33Z"/><path class="cls-23" d="M112.19,39.54c5.13,1.49,11.33,7.94,8,12.79S90.88,72.31,64.45,66C43.63,61.09,40.36,53.94,40.36,51.29c-2.61-5.88,6.53-15.67,9.14-13.06s8.27,10.7,20.79,12.86S103.05,46.72,112.19,39.54Z"/><path class="cls-24" d="M108.27,59.13c5.58,0,7.26,17.15,0,21.91-12.4,8.12-47.67,5.51-59.42-1s-13.28-6.2-14.37-11.1c-4.57-4.57-.65-17,5.88-17.63,4.44,3.13,7,9.72,24.16,13.06C88,68.92,103.05,59.13,108.27,59.13Z"/><path class="cls-25" d="M107,81.33c5.22,2-3.88,18.15-8.49,20.24-7.19,3.27-65.51-.4-69.87-15.67-2.61-9.14.65-14.37,5.87-17C37.21,71,43,78.72,61.26,82.63,87.81,88.33,101.23,79.18,107,81.33Z"/><path class="cls-26" d="M98.8,100.21c2.62,2.72-.22,11.93-5.17,14.81-22.95,2.49-52,2.88-61.1-6.27-5.23-2.61-7.78-19.82-2.91-22.64C42.62,98.1,75,106,98.8,100.21Z"/><path class="cls-27" d="M32.53,107.45c11.15,7.42,39.18,14.36,60.6,6.76,2.21,2.14,6,10.22,1.43,14.79-13.71,8.49-43.39,15.13-57.28-.93C31.69,121.43,28,113.33,32.53,107.45Z"/><path class="cls-28" d="M69.55,9.44c-1.11,4-7,12.25-2.76,28.36S50.16,65,43.46,82.54c-4.55,11.9-8.59,40.69,6.89,53.7-5-8.61-13.56-22.51-5.42-51C51.46,62.39,73,55.21,68.61,37.8,65.21,24.32,69.55,9.44,69.55,9.44Z"/><path class="cls-29" d="M119.22,371.17c2.09,11.13,20.86,22.94,20.16,34.06-19.46,3.48-59.08,13.21-75.07-7,11.12-2.78,35.47-10.17,38.24-23.16C111.57,376.26,112.27,367.7,119.22,371.17Z"/><path class="cls-30" d="M140.77,399.67c0,9-4.84,15.29-10.41,16-7,0-13.92-.7-16-4.17-3.83,3.82-5.59,4.17-10.44,4.17s-32,2.08-40.3-17.38c4.17-1.39,32.67,6.26,35.45,9,6.25,2.78,10.42,4.7,17.37-5.73,5.56,6.25,10.43,2.25,10.43,2.25S132.43,389.25,140.77,399.67Z"/><path class="cls-6" d="M96.29,387.86c-17.38-14.6-2.69-22.44.39-1.14,1.29-12.32,14.93-12,1-.24"/><path class="cls-31" d="M33.73,128.59c.85-2.36,2.78-9,6.25-7.65,1.91.77,12.92,11.86,12.51,13.91-2.78,2.08-8.41-4.59-9.42-4.38,3.55,3.19,6.64,8.55,6.64,9.24s-2.78,4.87-5.56,4.17-6.3-1.2-8.71-2.34S31,136.24,33.73,128.59Z"/><circle class="cls-32" cx="82.14" cy="145.95" r="20.9"/><path class="cls-33" d="M69.68,134.78C66.05,141.41,95,164.83,95,164.83c-4,2.29-10,2.27-16,1.92-7.61-.46-16.11-7.37-17.49-17.44-1.4-10.28,4.41-16.25,3.76-15.92C65.05,137.2,68.64,135.16,69.68,134.78Z"/><circle class="cls-2" cx="87.68" cy="145.27" r="20.9"/><path class="cls-2" d="M50.16,36.92C34.48,80,44.28,119.2,65.61,138.14a15.43,15.43,0,0,1-1.09,3.92c-30-26.12-28.72-74.22-17.63-103.83A2.91,2.91,0,0,1,50.16,36.92Z"/><g class="cls-34"><g class="cls-35"><path d="M116,162.64c-5-6.69-43.27-30.49-55.8-36.07l.38-.86c12.59,5.61,51.11,29.6,56.17,36.37Z"/><path d="M118.84,154.48c-5-7.38-42.29-30.2-53-34.68l.36-.87c11.1,4.63,48.27,27.35,53.45,35Z"/><path d="M120,144.58c-4.72-5.05-32.54-26.14-44.74-30l.28-.9c12.32,3.87,40.39,25.14,45.15,30.22Z"/><path d="M106.75,174.36a3.7,3.7,0,0,1-.42,0l.12-.93h.1c-3.44-3.83-47.76-28.93-50.95-29.84l0-.12-.1.17c-.32-.23-.41-.48-.27-.73s.39-.31.76-.16c1.65.66,14.5,7.59,27.23,14.88,24.92,14.28,24.58,15.59,24.41,16.22C107.55,174.27,107.11,174.36,106.75,174.36Z"/><path d="M98.79,176.12c-4.53,0-43-24.16-43.4-24.41l.52-.79c8.06,5.22,40.33,24.73,42.75,24.31l.45.81A.56.56,0,0,1,98.79,176.12Z"/><path d="M111.44,167.64c-3.85-4.47-45.89-29.64-54.91-34.23l.43-.84c7.71,3.93,51.09,29.69,55.19,34.46Z"/><path d="M69.52,173.53l-.92-.15C70,165,93.13,126,101.73,115.23l.73.59C93.91,126.54,70.89,165.28,69.52,173.53Z"/><path d="M63.21,167.61l-.94-.11c1.07-9.21,23.61-46.48,31.34-55.7l.72.61C86.85,121.33,64.23,158.76,63.21,167.61Z"/><path d="M57.63,159.34l-.91-.25c1.89-6.71,17-38.5,26.17-47.61l.67.67C74.49,121.16,59.5,152.69,57.63,159.34Z"/><path d="M82.52,179.86a.62.62,0,0,1-.48-.22c-.44-.48-1.35-1.49,14.21-25.63,8-12.34,16.17-24.41,17.32-25.75q.39-.45.75-.21c.24.16.28.43.1.78l-.12-.06,0,0c-2.42,2.27-30.21,45-31.51,49.94l.08-.06.54.77A1.75,1.75,0,0,1,82.52,179.86Z"/><path d="M90.68,177.67h0l.12-.93c2.22-.77,21.93-32.92,26.68-41.26l.82.47C118,136.36,93.71,177.67,90.68,177.67Z"/><path d="M75.84,175.88l-.91-.21c1.44-6.12,28.1-49,33.14-56l.76.55C102.94,128.44,77.2,170.13,75.84,175.88Z"/></g></g></g></g></svg>