<svg xmlns="http://www.w3.org/2000/svg" xmlns:xlink="http://www.w3.org/1999/xlink" width="157.864" height="636.714" ><defs><linearGradient id="A" x1=".466" y1="-.037" x2=".519" y2=".903"><stop offset="0" stop-color="#6d515b"/><stop offset="1" stop-color="#1b2139"/></linearGradient><linearGradient id="B" x1="-.157" y1=".899" x2=".967" y2=".298"><stop offset=".465" stop-color="#fff" stop-opacity="0"/><stop offset="1" stop-color="#e4e9eb" stop-opacity=".4"/></linearGradient><linearGradient id="C" x1="-.161" y1="-.15" x2=".861" y2=".934"><stop offset="0" stop-color="#fff" stop-opacity="0"/><stop offset="1" stop-color="#e4e9eb" stop-opacity=".4"/></linearGradient><linearGradient id="D" x1=".474" y1=".813" x2=".489" y2=".525"><stop offset=".641" stop-color="#ffd7a5"/><stop offset="1" stop-color="#faa96c"/></linearGradient><linearGradient id="E" x1=".46" y1=".81" x2=".481" y2=".522" xlink:href="#D"/><linearGradient id="F" x1=".476" y1="1.272" x2=".514" y2=".125"><stop offset=".464" stop-color="#fabb80"/><stop offset="1" stop-color="#faa16c"/></linearGradient><linearGradient id="G" x1="1.186" y1=".078" x2=".623" y2=".515"><stop offset="0" stop-color="#f55"/><stop offset="1" stop-color="#922855"/></linearGradient><linearGradient id="H" x1=".549" y1=".076" x2=".374" y2="1.054" xlink:href="#D"/><linearGradient id="I" x1=".53" y1="1.184" x2=".477" y2=".108" xlink:href="#D"/><linearGradient id="J" x1=".549" y1="1.186" x2=".461" y2=".026" xlink:href="#D"/><linearGradient id="K" x1="32.809" y1="-23.306" x2="31.945" y2="-22.061" xlink:href="#D"/><linearGradient id="L" x1="17.163" y1="-311.777" x2="15.592" y2="-311.368"><stop offset=".641" stop-color="#fabb80"/><stop offset="1" stop-color="#faa96c"/></linearGradient><clipPath id="M"><path d="M1502.775 280.607c-7.935-8.845-14.213-13.525-14.213-2.606 4.884 3.899 11.685 5.992 14.213 2.606z" transform="translate(-1488.562 -271.649)" fill="none"/></clipPath><linearGradient id="N" y1=".5" x2="1" y2=".5"><stop offset="0" stop-color="#bb9bb7"/><stop offset=".671" stop-color="#7b3f3f"/></linearGradient><linearGradient id="O" x1="58.304" y1="-17.407" x2="58.328" y2="-18.243"><stop offset="0" stop-color="#ddf5f5" stop-opacity=".4"/><stop offset="1" stop-color="#c6d9db" stop-opacity="0"/></linearGradient><linearGradient id="P" x1=".708" y1="-.065" x2=".487" y2=".872" xlink:href="#L"/><clipPath id="Q"><path d="M1504.051,282.631c4.714-13.665,17.973-19.9,24.213-9.765A41.486,41.486,0,0,1,1504.051,282.631Z" transform="translate(-1504.051 -267.853)" fill="none"/></clipPath><linearGradient id="R" x1="43.669" y1="-14.219" x2="43.69" y2="-15.055" xlink:href="#O"/><linearGradient id="S" x1=".463" y1="-.064" x2=".575" y2="1.27" xlink:href="#N"/><linearGradient id="T" x1=".448" y1="-.209" x2=".603" y2="1.701" xlink:href="#N"/><linearGradient id="U" y1=".5" x2="1" y2=".5"><stop offset="0" stop-color="#fa9ea5"/><stop offset="1" stop-color="#f7496d"/></linearGradient><linearGradient id="V" x1="0" xlink:href="#U"/><linearGradient id="W" y1=".5" x2="1" y2=".5"><stop offset="0" stop-color="#5d7d91"/><stop offset="1" stop-color="#374b6b"/></linearGradient><linearGradient id="X" y1=".5" x2="1" y2=".5"><stop offset="0" stop-color="#b5ffff"/><stop offset=".675" stop-color="#89c9ff"/></linearGradient><clipPath id="Y"><path d="M1552.657 302.249c-.465 10.766-4.4 17.279 1.2 19.325s31.331 10.628 31.331 17.648-18.719 39-22.619 57.72-16.38 37.44-14.821 42.9c-38.219 16.38-52.708 8.58-54.434 0s2.174-27.3-1.726-31.2-14.039-10.921-16.38-18.721c6.241-9.36 19.5-25.739 18.721-33.54s2.339-24.96 8.58-28.08 19.65-5.361 20.745-10.09a109.57 109.57 0 0 0 1.726-12.131c5.605-4.299 24.009-6.485 27.677-3.831z" transform="translate(-1475.204 -301.093)" fill="none"/></clipPath><linearGradient id="Z" x1="0" y1=".5" x2="1" y2=".5" xlink:href="#F"/><linearGradient id="a" x1=".449" y1=".019" x2=".588" y2=".903"><stop offset="0" stop-color="#404e4f"/><stop offset=".311" stop-color="#394547"/><stop offset=".802" stop-color="#292f33"/><stop offset="1" stop-color="#212429"/></linearGradient><linearGradient id="b" x1=".413" y1=".04" x2=".578" y2=".912" xlink:href="#G"/><linearGradient id="c" x1=".419" y1=".041" x2=".572" y2=".911" xlink:href="#G"/><linearGradient id="d" x1=".628" y1=".156" x2=".346" y2=".964" xlink:href="#G"/><linearGradient id="e" x1=".524" y1=".152" x2=".342" y2=".953" xlink:href="#G"/><linearGradient id="f" x1=".326" y1="-.126" x2=".501" y2=".762" xlink:href="#G"/><linearGradient id="g" x1=".421" y1=".108" x2=".586" y2=".843"><stop offset=".219" stop-color="#5f89bf"/><stop offset="1" stop-color="#183773"/></linearGradient><linearGradient id="h" x1=".946" y1=".016" x2=".003" y2=".693" xlink:href="#g"/></defs><path d="M100.922 20.511c-.78-21.06-15.6-21.06-24.96-20.28s-39.781 8.58-63.961 41.341c9.361 38.219 17.941 72.54 14.821 115.439 3.12.78 10.92-.78 10.92-.78 1.559-9.359 2.339-28.86 2.339-34.319 2.341 14.039 3.9 24.18 3.9 30.419 3.9 3.9 68.64 88.92 80.341 93.6 11.753-2.009 23.089-5.963 33.541-11.7-12.481-42.119-38.039-131.416-31.2-154.44s10.921-39 10.921-39c-6.241-21.839-30.472-27.569-36.662-20.28z" fill="url(#A)"/><path d="M24.017 35.332c29.011 3.12 48.825.167 60.915-8.5-6.239-2.506-12.3-5.609-16.486-5.577 9.573-4.613 19.834-3.934 24.985 0C90.475.266 63.333-3.668 24.017 35.332z" fill="url(#B)"/><path d="M110.673 25.775c5.459 5.078 6.631 8.779 6.631 8.779-3.719-2.32-8.174-3.156-12.481-2.341 4.681 5.461 9.361 13.493 10.141 15.6-4.68.548-13.26-3.12-14.041-5.459 2.341 6.239 5.461 10.919 19.444 12.9 4.132.582 13.7-14.737 13.7-14.737-6.624-9.865-13.645-16.504-23.394-14.742z" fill="url(#C)"/><path d="M87.662 257.633c23.4 11.7 49.24 38.679 49.971 55.219s-11.75 89.082-14.87 103.121c16.38 23.4 23.4 39 22.619 60.842S116.124 606.45 116.124 606.45l-15.982-168.636c-17.939-39-44.492-156.948-40.577-177.924 22.655-7.633 28.097-2.257 28.097-2.257z" fill="url(#D)"/><path d="M68.944 259.973c19.926 21.518 28.048 38.543 27.828 55.1s-10.65 95.645-14.569 109.483c15.011 24.3 14.94 32.893 12.909 54.652S58.474 606.954 58.474 606.954l-5.912-162.9C36.887 404.09 28.731 279.912 33.843 259.195c23.054-6.324 35.101.778 35.101.778z" fill="url(#E)"/><path d="M91.563 100.653c0 12.679-.938 38.5-.938 38.5s-26.213 3.982-27.457 0c1.876-7.1 1.917-16.647 1.9-27.086s26.495-11.414 26.495-11.414z" fill="url(#F)"/><path d="M1.255 265.987c-2.453 19.735 41.548-15.083 39.387-22.28s-36.887 2.142-39.387 22.28z" fill="#602847"/><path d="M31.179 155.49c-6.493 11.974-38.453 90.136-29.662 113.7 8.4-22.338 35.863-28.659 39.12-25.486 2.188-25.186 3.519-53.673 6.785-67.769s-7.189-37.143-16.243-20.445z" fill="url(#G)"/><path d="M93.124 32.991c-1.561 14.041 3.9 35.1 13.26 28.08.907 18.814-1.854 38.321-7.933 42.5-10.788 7.419-38.868 20.678-45.107 17.558s-21.061-31.98-21.061-35.88 6.24-6.239 3.9-12.48-7.019-20.428-3.9-27.3 34.32 10.922 60.841-12.478z" fill="url(#H)"/><path d="M63.483 79.792c-3.9-3.9-2.916-15.432-1.559-19.5.78-2.339 8.58-9.359 15.6-5.459 6.285 3.491 15.185 9.135 12.662 15.488s-22.803 13.371-26.703 9.471z" fill="url(#I)"/><path d="M52.646 80.913c-.916 2.419-11 2.778-14.9-3.463-2.341-7.8-3.827-19.134-.78-19.5s8.3 1.478 9.608 3.859 7.715 14.767 6.072 19.104z" fill="url(#J)"/><path d="M98.953 72.419c-.012-3.905 15.891-25.144 20.69-9.787 3.9 12.48-9.046 20.605-12.805 22.139s-7.856-2.06-7.885-12.352z" fill="url(#K)"/><path d="M104.043 70.433c4.68 0 5.235 5.264 4.68 8.58 5.77-1.884 8.582-6.241 8.582-10.921 0-11.167-12-.478-13.262 2.341z" fill="url(#L)"/><path d="M64.23 78.636c4.714-13.665 17.973-19.9 24.213-9.765-6.81 5.776-15.301 9.201-24.213 9.765z" fill="#fff"/><g fill="#283547"><path d="M64.23 78.636c7.866-20.307 19.533-19.124 24.213-9.765-13.264-10.138-18.786 1.589-24.213 9.765z"/><path d="M85.324 65.755c2.339 0 4.68-1.561 6.239-4.681-2.623 1.676-5.638 2.637-8.747 2.787 2.673.666 2.508 1.894 2.508 1.894z"/></g><path d="M52.075 79.278c-7.935-8.845-14.213-13.525-14.213-2.606 4.884 3.899 11.685 5.992 14.213 2.606z" fill="#fff"/><g clip-path="url(#M)" transform="translate(37.862 70.319)"><ellipse cx="7.493" cy="6.039" rx="3.908" ry="4.371" fill="url(#N)"/><path d="M10.71 5.901c.159 1.88-1.217 3.541-3.093 3.735a3.39 3.39 0 0 1-3.34-3.461 3.46 3.46 0 0 1 3.095-3.733 3.39 3.39 0 0 1 3.338 3.459z" fill="url(#O)"/><ellipse cx="4.562" cy="4.053" rx="1.31" ry="1.465" fill="#fff"/></g><g fill="#283547"><path d="M52.076 79.277c-10.725-11.186-13.515-11.186-14.213-2.606-.697-14.819 6.278-9.359 14.213 2.606z"/><path d="M37.862 73.553c-1.083 1.41-4.184-.781-5.58-2.341 1.4.78 5.507.9 6.278 0-.084.817-.321 1.611-.698 2.341z"/></g><path d="M49.685 73.301c-.112 3.76-4.234 13.709-8.379 16.2 4.145 4.145 15.754 4.974 18.241.829s-3.194-12.5-4.5-17.025-5.274-2.938-5.362-.004z" fill="url(#P)"/><g clip-path="url(#Q)" transform="translate(64.23 63.857)"><circle cx="14.625" cy="6.641" r="5.236" fill="url(#N)"/><path d="M18.934 6.477c.067 1.743-.923 3.355-2.508 4.084s-3.453.431-4.733-.755-1.719-3.025-1.113-4.661 2.137-2.746 3.881-2.812a4.31 4.31 0 0 1 4.474 4.145z" fill="url(#R)"/><circle cx="10.699" cy="4.264" r="1.756" fill="#fff"/></g><path d="M61.144 64.192c-.364-5.459-2.341-7.021 3.9-9.359s9.359-2.341 12.48 0c-8.58 2.338-11.338 3.899-16.38 9.359z" fill="url(#S)"/><path d="M48.269 65.117c-4.673-4.191-9.746-8.044-12.866-6.385 4.68-4.68 11.694-.6 12.866 1.261s0 5.124 0 5.124z" fill="url(#T)"/><path d="M50.275 99.869c2.829 2.121 3.536 4.242 2.121 5.657 2.121 4.242 12.022 1.415 14.851-2.121-3.535-3.536-13.959-4.379-16.972-3.536z" fill="#871131"/><path d="M50.937 99.565l1.851 4.045c1.729.5 5.146 1.113 12.277-2.022-4.123-1.32-14.128-2.023-14.128-2.023z" fill="#fff"/><path d="M67.247 103.404c-2.829-7.072-18.387-12.022-16.972-3.536 3.535 3.536 8.486-2.123 16.972 3.536z" fill="url(#U)"/><path d="M52.396 105.521c-2.828 3.536 6.365 11.314 14.851-2.121-3.535 2.121-14.143 4.246-14.851 2.121z" fill="url(#V)"/><path d="M51.87 147.919h46.578v-20.182c-6.887-11.285-31.1-2.339-39.273 3.718s-7.305 16.464-7.305 16.464z" fill="url(#W)"/><path d="M92.576 121.6c-.465 10.766-4.4 17.279 1.2 19.325s31.331 10.628 31.331 17.648-18.719 39-22.619 57.72-16.38 37.44-14.821 42.9c-38.219 16.38-52.708 8.58-54.434 0s2.174-27.3-1.726-31.2-14.039-10.921-16.38-18.721c6.241-9.36 19.5-25.739 18.721-33.54s2.339-24.96 8.58-28.08 19.65-5.361 20.745-10.09a109.57 109.57 0 0 0 1.726-12.131c5.605-4.299 24.009-6.485 27.677-3.831z" fill="url(#X)"/><g clip-path="url(#Y)" transform="translate(15.122 120.445)"><g opacity=".1" fill="none" stroke="#000" stroke-miterlimit="10" stroke-width=".916"><path d="M60.84-2.431c0 23.433-22.686 74.364-31.271 88.253-.951 1.537-1.075 3.446-.332 5.093a34.92 34.92 0 0 0 11.232 14.038c1.806 1.268 2.664 3.504 2.17 5.655-2.719 11.848-5.025 35.771-3.639 40.621M56.55-1.262c-2.217 11.826-21.245 71.284-36.508 87.436-1.569 1.652-1.921 4.117-.877 6.142 3.275 6.237 8.908 10.51 12.626 12.815a5.42 5.42 0 0 1 2.422 5.9c-3 12.18-2.623 36.941-2.623 39.023M43.638 17.517c-4.724 13.871-12.586 50.526-30.993 67.839-2.074 1.953-2.288 5.176-.49 7.386 3.682 4.469 7.943 8.427 12.672 11.768a5.41 5.41 0 0 1 2.233 5.253c-1.728 11.21-3.243 36.323-1.784 38.563m9.876-126.429C31.036 36.178 21.006 68.471 6.015 85.08a5.42 5.42 0 0 0-.577 6.539c3.563 5.621 10.478 12.041 13.951 14.862 1.324 1.074 2.065 2.708 2 4.412-.407 10.646-2.564 30.5-2.057 33.88M67.095-2.431c1.086 7.717-21.017 76.047-26.832 88.466a5.44 5.44 0 0 0-.315 3.788c1.875 6.521 4.936 12.64 9.031 18.05.861 1.126 1.247 2.544 1.074 3.951-1.481 12.448-5.465 32.375-3.073 38.235M72.93-4.382c0 6.241-18.355 88.287-19.667 91.6-2.952 7.46 3.287 21.673 2.508 23.06s-2.429 34.757-2 38.047m25.4-144.908c0 8.58-12.815 81.842-13.26 85.8s-3.9 17.161-3.9 20.28-1.171 36.469-1.171 36.469M83.328 17.517s-4.937 64.184-6.887 69.5-7.41 20.918-7.41 23.259-3.127 34.493-3.127 34.493M91.429 23.291l-9.92 62.808c-.782 3.9-8.58 19.533-8.58 23.026s-4.343 31.267-4.343 31.267M99.451 26.819c0 2.339-12.48 57.72-13.26 60.06s-7.8 19.5-8.582 22.619-6.53 30.894-6.53 30.894"/></g></g><path d="M63.168 124.021c-2.809 2.729.315 4.911-.465 8.811s-3.871 4.5-1.546 7.318 30.406 2.043 31.967-1.078-.781-4.3 0-8.779 3.437-8.2.548-9.85-22.239-4.455-30.504 3.578z" fill="url(#Z)"/><path d="M87.689 256.572c-21.891 10.7-51.966 15.323-54.855-.778-1.881 31.757-6.791 104.8 18.169 189.04 36.66 7.019 67.081 0 87.361-8.58-10.141-28.862 3.483-88.886.78-124.021-2.341-30.42-51.455-55.661-51.455-55.661z" fill="url(#a)"/><path d="M139.506 514.154c-3.846 20.479-21.422 85.9-19.863 90.58s7.02 5.461 7.02 10.141-3.833 5.459-6.207 21.839h-2.783v-13.26c-5.046.017-9.128 4.68-12.546 13.26h-23.7s8.58-4.68 14.039-7.02c3.12-14.039 13.26-27.3 13.26-27.3 0-21.06-3.2-88.241-3.2-88.241 9.438 7.122 28.102 5.362 33.98.001z" fill="url(#b)"/><path d="M87.661 515.715c-3.845 20.479-24.543 84.339-22.983 89.019s7.021 5.461 7.021 10.141-3.834 5.459-6.207 21.839h-2.788v-13.26c-5.046.017-9.128 4.68-12.546 13.26h-23.7s8.58-4.68 14.039-7.02c3.12-14.039 13.26-27.3 13.26-27.3l-.082-86.68c9.443 7.116 28.108 5.362 33.986.001z" fill="url(#c)"/><path d="M137.584 275.574c-.764 19.872-39.174-20.546-35.88-27.3s36.66 7.019 35.88 27.3z" fill="#602847"/><path d="M98.45 127.737c8.713 12.116 28.213 23.816 28.213 30.055s-31.371 84.491-31.675 89.436 22.614 25.225 22.614 25.225c-17.459 9.36-46.784 14.089-50.451 13.673-1.876-23.448 4.132-33.09 2.962-42.882s-11.31-26.952-9.751-33.972c3.112-13.998 28.596-40.612 38.088-81.535z" fill="url(#d)"/><path d="M59.177 131.455s-17.534 11.084-22.214 18.321-2.341 25.193-4.681 29.476-19.351 28.111-19.034 31.015 17.56 16.846 17.907 22.357-3.619 36.709-4.365 39.83c7.085 10.921 15.633 11.7 15.633 10.921.78-17.941 3.12-51.481-.78-56.942-6.3-8.818-15.168-10.766-13.261-18.719s29.61-58.92 30.795-76.259z" fill="url(#e)"/><path d="M125.884 161.692c4.474 12.866 23.4 95.161 10.919 117-4.68-23.4-30.767-34.071-34.493-31.464 1.907-25.21 5.19-53.539 4.242-67.976s13.091-35.499 19.332-17.56z" fill="url(#f)"/><path d="M106.383 140.632c-49.14 105.3-109.28 82.615-53.471-7.053.86-2.274 5.087 0 5.087 0-28.056 68.673 6.895 56.525 44.484 5.493 2.639-2.224 3.9 1.56 3.9 1.56z" fill="url(#g)"/><path d="M62.703 128.932c-12.674 30.055 7.5 45.16 34.557-2.77 8.1 2.421 11.775 2.157 12.4 13.384-10.3 22.927-93 94.439-53.2-7.494a11.39 11.39 0 0 1 6.243-3.12z" fill="url(#h)"/></svg>
