<svg xmlns="http://www.w3.org/2000/svg" xmlns:xlink="http://www.w3.org/1999/xlink" viewBox="0 0 163.02 417.26"><defs><style>.cls-1,.cls-23{fill:none;}.cls-2{fill:url(#Безымянный_градиент_159);}.cls-3{fill:url(#Безымянный_градиент_322);}.cls-4{fill:url(#Безымянный_градиент_322-2);}.cls-5{fill:url(#Безымянный_градиент_801);}.cls-6{fill:#a2aaae;}.cls-7{fill:#a9bcca;}.cls-8{fill:#d23c3e;}.cls-9{fill:url(#Безымянный_градиент_598);}.cls-10{fill:url(#Безымянный_градиент_492);}.cls-11{fill:url(#Безымянный_градиент_600);}.cls-12{fill:url(#Безымянный_градиент_323);}.cls-13{fill:url(#Безымянный_градиент_720);}.cls-14{fill:url(#Безымянный_градиент_783);}.cls-15{fill:url(#Безымянный_градиент_720-2);}.cls-16{fill:url(#Безымянный_градиент_929);}.cls-17{fill:url(#Безымянный_градиент_2726);}.cls-18{clip-path:url(#clip-path);}.cls-19{opacity:0.4;}.cls-20{fill:#211c20;}.cls-21{fill:url(#Безымянный_градиент_322-3);}.cls-22{fill:url(#Безымянный_градиент_783-2);}.cls-23{stroke:#db9a6a;stroke-linecap:round;stroke-miterlimit:10;stroke-width:1.31px;}.cls-24{fill:url(#Безымянный_градиент_951);}.cls-25{fill:url(#Безымянный_градиент_322-4);}.cls-26{fill:url(#Безымянный_градиент_744);}.cls-27{fill:url(#Безымянный_градиент_744-2);}.cls-28{fill:url(#Безымянный_градиент_744-3);}.cls-29{fill:url(#Безымянный_градиент_322-5);}.cls-30{fill:url(#Безымянный_градиент_322-6);}.cls-31{fill:url(#Безымянный_градиент_322-7);}</style><linearGradient id="Безымянный_градиент_159" x1="6300.07" y1="-712.78" x2="6300.39" y2="-726.7" gradientTransform="matrix(-0.96, 0.27, 0.27, 0.96, 6303.93, -815.85)" gradientUnits="userSpaceOnUse"><stop offset="0.64" stop-color="#ffd7a5"/><stop offset="1" stop-color="#faa96c"/></linearGradient><linearGradient id="Безымянный_градиент_322" x1="30.45" y1="184.32" x2="39.96" y2="129.3" gradientUnits="userSpaceOnUse"><stop offset="0" stop-color="#6d515b"/><stop offset="1" stop-color="#1b2139"/></linearGradient><linearGradient id="Безымянный_градиент_322-2" x1="37.03" y1="185.46" x2="46.53" y2="130.44" xlink:href="#Безымянный_градиент_322"/><linearGradient id="Безымянный_градиент_801" x1="4352.18" y1="-632.75" x2="4355.05" y2="-569.7" gradientTransform="translate(-2754.61 3485.96) rotate(-42.85)" gradientUnits="userSpaceOnUse"><stop offset="0" stop-color="#fff5f5"/><stop offset="1" stop-color="#c6d9db"/></linearGradient><linearGradient id="Безымянный_градиент_598" x1="4352.21" y1="-631.11" x2="4354.41" y2="-582.85" gradientTransform="translate(-4326.77 686.42)" gradientUnits="userSpaceOnUse"><stop offset="0" stop-color="#ddf5f5" stop-opacity="0"/><stop offset="1" stop-color="#fafff5" stop-opacity="0.4"/></linearGradient><linearGradient id="Безымянный_градиент_492" x1="4351.72" y1="-561.91" x2="4355.03" y2="-557.53" gradientTransform="translate(-2754.61 3485.96) rotate(-42.85)" gradientUnits="userSpaceOnUse"><stop offset="0" stop-color="#5d7d91"/><stop offset="1" stop-color="#374b6b"/></linearGradient><linearGradient id="Безымянный_градиент_600" x1="4348.21" y1="-634.09" x2="4353.48" y2="-627.11" gradientTransform="translate(-3948.6 1984.17) rotate(-17.64)" gradientUnits="userSpaceOnUse"><stop offset="0" stop-color="#ddf5f5" stop-opacity="0"/><stop offset="1" stop-color="#faffff" stop-opacity="0.5"/></linearGradient><linearGradient id="Безымянный_градиент_323" x1="73.73" y1="399.67" x2="78.4" y2="345.65" gradientUnits="userSpaceOnUse"><stop offset="0.04" stop-color="#fabb80"/><stop offset="1" stop-color="#faa16c"/></linearGradient><radialGradient id="Безымянный_градиент_720" cx="53.72" cy="412.82" r="27.03" gradientUnits="userSpaceOnUse"><stop offset="0" stop-color="#dd3461"/><stop offset="0.26" stop-color="#cc3254"/><stop offset="0.78" stop-color="#a02b32"/><stop offset="0.89" stop-color="#962a2a"/></radialGradient><linearGradient id="Безымянный_градиент_783" x1="103.72" y1="382.3" x2="106.6" y2="331" gradientUnits="userSpaceOnUse"><stop offset="0.46" stop-color="#fabb80"/><stop offset="1" stop-color="#faa16c"/></linearGradient><radialGradient id="Безымянный_градиент_720-2" cx="81.8" cy="412.82" r="27.03" xlink:href="#Безымянный_градиент_720"/><linearGradient id="Безымянный_градиент_929" x1="77.31" y1="117.1" x2="117.66" y2="312.16" gradientUnits="userSpaceOnUse"><stop offset="0" stop-color="#9f85df"/><stop offset="0.67" stop-color="#7b3f79"/></linearGradient><radialGradient id="Безымянный_градиент_2726" cx="95.12" cy="295.15" r="37.84" gradientTransform="translate(594.11 164.51) rotate(85.96) scale(1 1.72)" gradientUnits="userSpaceOnUse"><stop offset="0" stop-color="#9f85df"/><stop offset="0.83" stop-color="#7b3f79"/></radialGradient><clipPath id="clip-path"><path class="cls-1" d="M125.15,291.24c2.61-31.35.65-44.41,1.19-57,8.6-34.43,12.52-40.31,13.17-49.45s-20.89-32-37.51-45.06c0,0-27.77-7.83-49.35-2C40.06,181.19,57.8,267,67.16,291.24h0c-13.3,12.4-19.29,21.9-32.89,19.11,12,19.24,34.18,14,37.72,11.15,14.92,15.88,35.33,6.31,44.68,4.35C129.06,323.23,148,335.64,163,301,147.35,303,138.86,299.73,125.15,291.24Z"/></clipPath><linearGradient id="Безымянный_градиент_322-3" x1="93.93" y1="14.05" x2="100.93" y2="55.39" xlink:href="#Безымянный_градиент_322"/><linearGradient id="Безымянный_градиент_783-2" x1="80.74" y1="91.23" x2="86.41" y2="9.37" xlink:href="#Безымянный_градиент_783"/><radialGradient id="Безымянный_градиент_951" cx="62.65" cy="129.24" r="124.33" gradientTransform="translate(0.35 60.11) rotate(0.29) scale(1 0.53)" gradientUnits="userSpaceOnUse"><stop offset="0" stop-color="#f3dde9"/><stop offset="0.67" stop-color="#93a3b7"/></radialGradient><linearGradient id="Безымянный_градиент_322-4" x1="102.45" y1="57.95" x2="111.34" y2="167.77" xlink:href="#Безымянный_градиент_322"/><linearGradient id="Безымянный_градиент_744" x1="91.53" y1="97.5" x2="88.75" y2="115.62" gradientTransform="translate(159.4 -14.76) rotate(70.16)" gradientUnits="userSpaceOnUse"><stop offset="0" stop-color="#bb9bb7"/><stop offset="0.67" stop-color="#7b3f3f"/></linearGradient><linearGradient id="Безымянный_градиент_744-2" x1="89.41" y1="121.65" x2="80.07" y2="139.99" gradientTransform="translate(212.07 41.43) rotate(87.49)" xlink:href="#Безымянный_градиент_744"/><linearGradient id="Безымянный_градиент_744-3" x1="93.02" y1="149.22" x2="92.8" y2="169.23" gradientTransform="translate(93.21 -24.8) rotate(30)" xlink:href="#Безымянный_градиент_744"/><linearGradient id="Безымянный_градиент_322-5" x1="48.85" y1="60.77" x2="57.29" y2="164.91" xlink:href="#Безымянный_градиент_322"/><linearGradient id="Безымянный_градиент_322-6" x1="104.18" y1="40.13" x2="110.69" y2="64.81" xlink:href="#Безымянный_градиент_322"/><linearGradient id="Безымянный_градиент_322-7" x1="51.16" y1="21.29" x2="58.16" y2="62.64" xlink:href="#Безымянный_градиент_322"/></defs><g id="Слой_2" data-name="Слой 2"><g id="Слой_2-2" data-name="Слой 2"><path class="cls-2" d="M43.82,177.47c5.59,13.9,5.73,23.22,5.73,23.22,5.84,5,9.82,9.94,9,12.93s-2.17,15.08-5.9,15.58-6.08-4.49-6.08-4.49c-.25,1.79-4.41-1.26-5.84-2.92a12.63,12.63,0,0,1-2.91-7.31c-.22-2.7,3.86-14.87,3.74-15.95-1.11-5.23-3.79-19.36-3.79-19.36Z"/><path class="cls-3" d="M55.08,67.43c-20.73,5.62-34.82,77.9-15.86,79.34C52.89,147.81,62.67,65.37,55.08,67.43Z"/><path class="cls-4" d="M30.85,144.82c-.27,12.43.26,32.8,8.1,54.34,2.72-.13,7.84-.65,9.8-1.95.65-20.25.12-48.51-1.07-58.31C46.06,125.68,31.39,120.63,30.85,144.82Z"/><path class="cls-5" d="M1.88,68.47,38,107.4a10.57,10.57,0,0,0,7,3.35l1.72.11a7,7,0,0,1,4.68,2.23L56,118a2.45,2.45,0,0,0,3.47.13h0a2.45,2.45,0,0,0,.13-3.48L55,109.75a7,7,0,0,1-1.87-4.85v-1.71a10.54,10.54,0,0,0-2.81-7.27L14.24,57a7,7,0,0,0-9.93-.38L2.25,58.54A7,7,0,0,0,1.88,68.47Z"/><path class="cls-6" d="M47.72,99.29,41.53,105a.34.34,0,0,1-.49,0,.35.35,0,0,1,0-.5l6.18-5.74a.35.35,0,0,1,.48.52Z"/><path class="cls-6" d="M42,93.1,35.8,98.84a.35.35,0,0,1-.48-.52l6.18-5.73a.36.36,0,0,1,.5,0A.35.35,0,0,1,42,93.1Z"/><path class="cls-6" d="M36.25,86.92l-6.19,5.74a.35.35,0,0,1-.48-.52l6.19-5.73a.34.34,0,0,1,.49,0A.35.35,0,0,1,36.25,86.92Z"/><path class="cls-6" d="M30.51,80.74l-6.18,5.73a.35.35,0,1,1-.48-.51L30,80.22a.35.35,0,0,1,.48.52Z"/><path class="cls-6" d="M24.77,74.55l-6.18,5.74a.35.35,0,1,1-.48-.52L24.3,74a.35.35,0,0,1,.47.51Z"/><path class="cls-6" d="M19,68.37,12.85,74.1a.34.34,0,0,1-.49,0,.35.35,0,0,1,0-.5l6.18-5.74a.35.35,0,0,1,.48.52Z"/><path class="cls-6" d="M13.3,62.18,7.12,67.92a.36.36,0,0,1-.5,0,.35.35,0,0,1,0-.49l6.18-5.74a.36.36,0,0,1,.5,0A.35.35,0,0,1,13.3,62.18Z"/><rect class="cls-7" x="30.43" y="53.75" width="2.81" height="69.23" rx="1.41" transform="translate(-51.6 45.23) rotate(-42.85)"/><rect class="cls-8" x="37.6" y="70.27" width="2.81" height="51.66" rx="1.21" transform="translate(-54.94 52.17) rotate(-42.85)"/><rect class="cls-9" x="21.08" y="51.2" width="11.25" height="63.26" rx="5.62" transform="translate(-49.21 40.26) rotate(-42.85)"/><path class="cls-10" d="M56.71,111.56l2.86,3.09a2.45,2.45,0,0,1-.13,3.48h0A2.45,2.45,0,0,1,56,118l-2.87-3.09"/><ellipse class="cls-11" cx="6.9" cy="64.9" rx="5.24" ry="6.83" transform="translate(-26.98 9.12) rotate(-25.21)"/><path class="cls-12" d="M81.4,280.79c7.27,22.5,18,26.35,16.44,43.38S85,385.76,84.43,393.51c4.75,9.63,6.44,9.19,0,13.37s-14.12,9.67-29.54,7.25c12.25-7.45,23.75-21.35,23.75-21.35-1.3-30.69-10.3-105.46-10.3-105.46Z"/><path class="cls-13" d="M91.9,417.26c-.85-8.16-3.32-28.07-4.63-28.73-7.83,1.31-8.49.66-14.36-.65-5.88,15-8.49,15-15.11,24.35-5.33.27-15.58,2-15.58,2v3h33l7-8.91-1,8.91Z"/><path class="cls-14" d="M109.47,280.79c7.28,22.5,18,26.35,16.45,43.38s-12.85,61.59-13.41,69.34c4.75,9.63,6.44,9.19,0,13.37S98.39,416.55,83,414.13c12.25-7.45,23.75-21.35,23.75-21.35-1.3-30.69-10.31-105.46-10.31-105.46Z"/><path class="cls-15" d="M120,417.26c-.85-8.16-3.32-28.07-4.63-28.73-7.83,1.31-8.49.66-14.36-.65-5.88,15-8.49,15-15.11,24.35-5.33.27-15.59,2-15.59,2v3h33l7-8.91-1,8.91Z"/><path class="cls-16" d="M102,139.74c16.62,13.06,38.17,35.92,37.51,45.06s-4.57,15-13.17,49.45c.11,13.24.11,23.68-1.19,57-27.64,21.09-48,22.65-57,2.51s-28.61-110.91-15.54-156C74.23,131.91,102,139.74,102,139.74Z"/><path class="cls-17" d="M163,301c-15.67,2-24.16-1.3-37.87-9.79-7.19,5.22-43.51,20.89-58,0-13.3,12.4-19.29,21.9-32.89,19.11,12,19.24,34.18,14,37.72,11.15,14.92,15.88,35.33,6.31,44.68,4.35C129.06,323.23,148,335.64,163,301Z"/><g class="cls-18"><g class="cls-19"><path class="cls-20" d="M40.36,320.29V317c16.49,0,26.6-10,34.7-18.28-.59-2.51-1.66-6-3-10.35-7.58-25-23.36-77.1-16-150.78l3.24.32C52,211,67.69,262.63,75.22,287.45c1.48,4.92,2.66,8.8,3.22,11.47l.18.85-.61.62C69.39,309.26,58.65,320.29,40.36,320.29Z"/><path class="cls-20" d="M69.17,327.14l-2-2.6c6.79-5.14,13.87-16.15,16.17-23.1C66.6,236.75,66.61,200.27,66.62,158.05c0-6.53,0-13.29-.06-20.25l3.26,0c.07,7,.06,13.74.06,20.28,0,42.1,0,78.45,16.78,143l.12.45-.14.45C84.35,309.37,76.61,321.53,69.17,327.14Z"/><path class="cls-20" d="M97.61,334.37,94.37,334c.24-1.92,2.3-19.07,0-32.12C89,285.63,85.46,239.25,82.35,198.31c-1.87-24.75-3.65-48.13-5.64-62.78l3.23-.44c2,14.75,3.79,38.18,5.67,63,3.1,40.84,6.62,87.14,11.93,102.85l.06.24C100,314.69,97.86,332.4,97.61,334.37Z"/><path class="cls-20" d="M118.7,330.09c-10.16-4.34-12.89-21.11-13.62-30.71v-.15l0-.15c.8-7.75-4.84-52.65-6.66-59.25-.62-2.21-.7-8.07-.82-16.94-.32-22.06-.84-59-9.84-86.87l3.11-1c9.15,28.34,9.68,65.58,10,87.82.11,8,.2,14.31.7,16.12,2,7.15,7.53,51.82,6.78,60.31,1.15,15,5.39,25.15,11.63,27.82Z"/><path class="cls-20" d="M143.61,328.63c-12.28-.52-25.94-15.18-29.82-32l-.08-.34.07-.33c2.21-11.77-.23-42-3-53.65-2.14-9.11-.07-19.82,2.33-32.21.64-3.3,1.3-6.71,1.91-10.27,2.82-16.2-2.47-35.59-16.14-59.27l2.83-1.63c14.07,24.37,19.48,44.47,16.53,61.46-.62,3.59-1.29,7-1.93,10.33-2.32,12-4.33,22.41-2.35,30.84,2.48,10.55,5.36,41.59,3,54.66,3.67,15.37,15.84,28.69,26.7,29.15Z"/><path class="cls-20" d="M155.77,315c-9.23,0-25.07-6.3-31.93-13.94-3.19-3.55-4.75-5.63-4.23-7.68,2.76-11,1.71-46.83,0-56.94s5.47-38.94,9.72-49.57c3.59-8.94-9.38-21.63-19.73-40.74l2.19-2.42c15.35,27.41,25.25,32.7,20.57,44.38-4.09,10.2-11.08,38.77-9.53,47.8,1.62,9.42,3.45,44.52.39,56.68-.48,1.89.79,3.2,2.61,5.23,6.57,7.31,24.64,14.86,32,13.82l.46,3.23A18.67,18.67,0,0,1,155.77,315Z"/></g></g><path class="cls-21" d="M89.23,21.55c13.06-.77,32.26,5,38,9.38-4.84,13.89-20.5,32.37-20.5,32.37L71.6,62,65.72,26.12C69.64,24.16,78.13,22.2,89.23,21.55Z"/><path class="cls-22" d="M101.64,0c-4.57,10.45-4.57,30-4.57,34s15.6,21.82,15.6,21.82c-4.5,20-30,48.05-50.86,46.74S54,60.73,80.33,37.16c.18-9,.41-27.37.41-27.37Z"/><path class="cls-23" d="M68.92,85c-3.21,5.69-6.74,17.59-7.28,21.82"/><path class="cls-24" d="M111.71,54.66C128.14,72,132.33,75.09,130.37,88.15s-15,46.37-24.81,52.9-25.47,3.92-32,3.26-17,7.84-36.57-13.06c2.61-10.45,7.27-22.17,9.14-28.73,2.62-9.14-1.3-24.81,5.23-33.3a151.88,151.88,0,0,1,15-16.33C37,109.05,72.91,125.38,111.71,54.66Z"/><path class="cls-25" d="M108.11,47.18c-8.38,19.26-33.24,71-30.63,84.73,2.36,12.41,10.11,42.43,19.09,58.43,8.83,1.32,34.2,1,46.74-10.77C135.07,167.82,112,148,112.67,137.66S138.44,96.48,130.82,77A69.49,69.49,0,0,0,108.11,47.18Z"/><ellipse class="cls-26" cx="90.21" cy="106.11" rx="4.9" ry="4.24" transform="translate(-40.22 154.95) rotate(-70.16)"/><ellipse class="cls-27" cx="84.39" cy="131.5" rx="4.9" ry="4.24" transform="translate(-50.69 210.05) rotate(-87.49)"/><ellipse class="cls-28" cx="92.88" cy="161.53" rx="4.24" ry="4.9" transform="translate(-68.32 68.08) rotate(-30)"/><path class="cls-29" d="M68.92,49.37c-9,6.4-19.52,17.24-21.48,27.68s.26,15.54-1.5,22.14S33.07,128,35.69,131.91s13.34,8.53,12.4,14.36-10.31,37-10.31,37c9.66,4.78,17.5,3.48,17.5,3.48,1.3-13.06,6.69-36.61,4-41.49s-12.21-14.43-11.19-20.55S55.79,69.35,68.92,49.37Z"/><path class="cls-30" d="M90.88,86.29c3.58-12.5,3.89-32.05,3.41-35,7.52-3.31,28.51-7.06,32.95-20.35-4.19,14.54-12.54,22-12.54,22C111.09,64.3,96.44,82.47,90.88,86.29Z"/><path class="cls-31" d="M65.72,26.12l3.7,22.61c-5.66,9.39-11.33,25.8-12.41,31,.22-21.59-11.17-26.32-14.14-26.16C46.13,44.4,54.62,32,65.72,26.12Z"/></g></g></svg>