<svg xmlns="http://www.w3.org/2000/svg" xmlns:xlink="http://www.w3.org/1999/xlink" viewBox="0 0 249.46 363"><defs><style>.cls-1,.cls-21,.cls-9{fill:none;}.cls-2{fill:url(#Новый_образец_градиента_копия_2);}.cls-3{fill:url(#Безымянный_градиент_62);}.cls-4{fill:url(#Безымянный_градиент_175);}.cls-5{fill:url(#Новый_образец_градиента_копия_2-2);}.cls-6{fill:url(#Безымянный_градиент_62-2);}.cls-7{fill:url(#Безымянный_градиент_175-2);}.cls-8{fill:url(#Безымянный_градиент_144);}.cls-9{stroke:#e36d4f;stroke-width:0.6px;}.cls-21,.cls-9{stroke-miterlimit:10;}.cls-10{fill:url(#Безымянный_градиент_466);}.cls-11{fill:url(#Безымянный_градиент_469);}.cls-12{fill:url(#Безымянный_градиент_159);}.cls-13{fill:url(#linear-gradient);}.cls-14{fill:url(#Безымянный_градиент_159-2);}.cls-15{fill:url(#Безымянный_градиент_667);}.cls-16{fill:url(#Безымянный_градиент_16);}.cls-17{fill:url(#Безымянный_градиент_16-2);}.cls-18{fill:url(#Новый_образец_градиента_копия_2-3);}.cls-19{fill:url(#Безымянный_градиент_158);}.cls-20{fill:#283547;}.cls-21{stroke:#283547;stroke-linecap:round;stroke-width:0.65px;}.cls-22{fill:url(#Безымянный_градиент_600);}.cls-23{fill:url(#Новый_образец_градиента_копия_2-4);}.cls-24{fill:url(#Новый_образец_градиента_копия_6);}.cls-25{fill:url(#Безымянный_градиент_19);}.cls-26{fill:url(#Новый_образец_градиента_копия_6-2);}.cls-27{fill:url(#Безымянный_градиент_14);}.cls-28{fill:url(#Новый_образец_градиента_копия_6-3);}.cls-29{fill:url(#Безымянный_градиент_663);}.cls-30{fill:url(#Безымянный_градиент_663-2);}.cls-31{opacity:0.2;}.cls-32{clip-path:url(#clip-path);}.cls-33{fill:#211c20;}.cls-34{fill:#59192f;}.cls-35{clip-path:url(#clip-path-2);}.cls-36{opacity:0.3;}.cls-37{fill:#441527;}.cls-38{fill:url(#Безымянный_градиент_2723);}</style><linearGradient id="Новый_образец_градиента_копия_2" x1="90.62" y1="325.32" x2="90.01" y2="308.05" gradientUnits="userSpaceOnUse"><stop offset="0" stop-color="#5d7d91"/><stop offset="1" stop-color="#374b6b"/></linearGradient><linearGradient id="Безымянный_градиент_62" x1="65.93" y1="334.22" x2="79.23" y2="349.81" gradientUnits="userSpaceOnUse"><stop offset="0" stop-color="#ff5553"/><stop offset="1" stop-color="#a64444"/></linearGradient><radialGradient id="Безымянный_градиент_175" cx="52.72" cy="341.56" r="11.97" gradientUnits="userSpaceOnUse"><stop offset="0" stop-color="#fa9bcf"/><stop offset="1" stop-color="#d52151"/></radialGradient><linearGradient id="Новый_образец_градиента_копия_2-2" x1="188.8" y1="325.32" x2="188.19" y2="308.05" xlink:href="#Новый_образец_градиента_копия_2"/><linearGradient id="Безымянный_градиент_62-2" x1="164.11" y1="334.22" x2="177.41" y2="349.81" xlink:href="#Безымянный_градиент_62"/><radialGradient id="Безымянный_градиент_175-2" cx="150.9" cy="341.56" r="11.97" xlink:href="#Безымянный_градиент_175"/><linearGradient id="Безымянный_градиент_144" x1="93.91" y1="99.56" x2="109.91" y2="19.36" gradientUnits="userSpaceOnUse"><stop offset="0.37" stop-color="#fac38f"/><stop offset="0.83" stop-color="#faa96c"/></linearGradient><radialGradient id="Безымянный_градиент_466" cx="89.98" cy="74.98" r="10.35" gradientUnits="userSpaceOnUse"><stop offset="0" stop-color="#ea9d4e"/><stop offset="0.29" stop-color="#e78c48"/><stop offset="0.87" stop-color="#df6037"/><stop offset="0.89" stop-color="#df5f37"/></radialGradient><linearGradient id="Безымянный_градиент_469" x1="-1704.74" y1="540.3" x2="-1703.19" y2="543.65" gradientTransform="matrix(-1.05, 0.35, 0.58, 0.63, -2022.55, 323.77)" gradientUnits="userSpaceOnUse"><stop offset="0" stop-color="#fff" stop-opacity="0"/><stop offset="1" stop-color="#fff" stop-opacity="0.6"/></linearGradient><linearGradient id="Безымянный_градиент_159" x1="11.46" y1="182.37" x2="14.92" y2="216.4" gradientUnits="userSpaceOnUse"><stop offset="0.64" stop-color="#ffd7a5"/><stop offset="1" stop-color="#faa96c"/></linearGradient><linearGradient id="linear-gradient" x1="27.16" y1="347.1" x2="22.11" y2="220.54" gradientUnits="userSpaceOnUse"><stop offset="0" stop-color="#212429"/><stop offset="0.2" stop-color="#292f33"/><stop offset="0.69" stop-color="#3a4647"/><stop offset="1" stop-color="#404e4f"/></linearGradient><linearGradient id="Безымянный_градиент_159-2" x1="16.54" y1="181.84" x2="17.86" y2="200.9" xlink:href="#Безымянный_градиент_159"/><linearGradient id="Безымянный_градиент_667" x1="-6.48" y1="160.07" x2="15.02" y2="143.56" gradientUnits="userSpaceOnUse"><stop offset="0" stop-color="#a5457d"/><stop offset="1" stop-color="#59192f"/></linearGradient><radialGradient id="Безымянный_градиент_16" cx="137.37" cy="163.61" r="126.44" gradientUnits="userSpaceOnUse"><stop offset="0" stop-color="#ee5f3e"/><stop offset="1" stop-color="#d24133"/></radialGradient><radialGradient id="Безымянный_градиент_16-2" cx="88.92" cy="125.9" r="77.66" xlink:href="#Безымянный_градиент_16"/><linearGradient id="Новый_образец_градиента_копия_2-3" x1="544.18" y1="-22.89" x2="544.18" y2="-0.61" gradientTransform="translate(-412.07 161.44)" xlink:href="#Новый_образец_градиента_копия_2"/><linearGradient id="Безымянный_градиент_158" x1="544.55" y1="-20.3" x2="543.86" y2="29.95" gradientTransform="translate(-413.19 161.69)" gradientUnits="userSpaceOnUse"><stop offset="0" stop-color="#fff"/><stop offset="1" stop-color="#c6d9db"/></linearGradient><linearGradient id="Безымянный_градиент_600" x1="531.12" y1="-17.58" x2="541.29" y2="0.85" gradientTransform="translate(-362.54 397.66) rotate(-25.62)" gradientUnits="userSpaceOnUse"><stop offset="0" stop-color="#ddf5f5" stop-opacity="0"/><stop offset="1" stop-color="#faffff" stop-opacity="0.5"/></linearGradient><linearGradient id="Новый_образец_градиента_копия_2-4" x1="544.18" y1="31.59" x2="544.18" y2="38.23" gradientTransform="translate(-401.44 159.02)" xlink:href="#Новый_образец_градиента_копия_2"/><radialGradient id="Новый_образец_градиента_копия_6" cx="-6.28" cy="192.64" r="33.24" gradientTransform="matrix(1, 0.05, -0.05, 0.97, 162.58, 20.11)" gradientUnits="userSpaceOnUse"><stop offset="0" stop-color="#ba3434"/><stop offset="0.47" stop-color="#a92f2f"/><stop offset="0.89" stop-color="#962a2a"/></radialGradient><linearGradient id="Безымянный_градиент_19" x1="147.49" y1="179.02" x2="151.49" y2="235.04" xlink:href="#Безымянный_градиент_16"/><radialGradient id="Новый_образец_градиента_копия_6-2" cx="-425.4" cy="258.01" r="26.83" gradientTransform="matrix(0.8, 0.04, -0.03, 1, 411.24, -55.55)" xlink:href="#Новый_образец_градиента_копия_6"/><radialGradient id="Безымянный_градиент_14" cx="63.03" cy="202.67" r="15.84" gradientUnits="userSpaceOnUse"><stop offset="0" stop-color="#ee5f3e"/><stop offset="1" stop-color="#ee5f3e"/></radialGradient><radialGradient id="Новый_образец_градиента_копия_6-3" cx="91.57" cy="110.81" r="183.73" gradientTransform="matrix(1, 0, 0, 1, 0, 0)" xlink:href="#Новый_образец_градиента_копия_6"/><linearGradient id="Безымянный_градиент_663" x1="172.65" y1="268.46" x2="210.94" y2="76.61" gradientUnits="userSpaceOnUse"><stop offset="0.14" stop-color="#59192f"/><stop offset="0.77" stop-color="#a5457d"/></linearGradient><linearGradient id="Безымянный_градиент_663-2" x1="38.85" y1="261.01" x2="70.34" y2="103.21" xlink:href="#Безымянный_градиент_663"/><clipPath id="clip-path" transform="translate(0 12.45)"><path class="cls-1" d="M208.14,35.8c8.9,11.58-4.94,83.42-10,94.6,26.49,28.25,39.67,58,41.48,125.38-50.59,13.23-87.28,9-87.28,9-3-55.3-2.15-75.08-5-85.34-3.92-14.36-6.85-40.48-3.92-59.42s14.41-64.59,16-108.69C179.07,11.28,195.08,18.82,208.14,35.8Z"/></clipPath><clipPath id="clip-path-2" transform="translate(0 12.45)"><path class="cls-1" d="M63.18,55.39c-7.21,21.09-7.84,71.83,0,98.6,2.8,9.57,5.15,25.35,4.57,34S65.13,265,65.13,265c-10.44,1.31-19-3.18-18.93-5.87,2.7-23.67,11.42-76.7,4.57-85.55S40.1,157,41,150.73c1.52-10.84,7.07-46,7.19-55.51s-.15-24.82,3.91-30A47.21,47.21,0,0,1,63.18,55.39Z"/></clipPath><linearGradient id="Безымянный_градиент_2723" x1="192.3" y1="33.55" x2="228.31" y2="142.58" gradientUnits="userSpaceOnUse"><stop offset="0.18" stop-color="#a5457d"/><stop offset="1" stop-color="#59192f"/></linearGradient></defs><g id="Слой_2" data-name="Слой 2"><g id="Слой_2-2" data-name="Слой 2"><path class="cls-2" d="M98.7,280.18c-6,19.45-10.26,37.19-3.62,62.28-1.86,5.82-5.43,3-7,.65-5.78-25.95-13.89-36.89-.68-68.31C91.36,275.61,98.7,280.18,98.7,280.18Z" transform="translate(0 12.45)"/><path class="cls-3" d="M109,337.38c.6,4.19,0,10.17-3,12.57H39c4.7-7.19,19.67-18.56,29.25-22.15,3,5.39,21,15,25.14,16.16C100,339.77,107.76,337.38,109,337.38Z" transform="translate(0 12.45)"/><circle class="cls-4" cx="54.18" cy="344.14" r="8.68"/><path class="cls-5" d="M196.88,280.18c-6,19.45-10.26,37.19-3.62,62.28-1.86,5.82-5.43,3-7,.65-5.78-25.95-13.89-36.89-.67-68.31C189.54,275.61,196.88,280.18,196.88,280.18Z" transform="translate(0 12.45)"/><path class="cls-6" d="M207.14,337.38c.6,4.19,0,10.17-3,12.57h-67c4.7-7.19,19.67-18.56,29.25-22.15,3,5.39,20.95,15,25.14,16.16C198.16,339.77,205.94,337.38,207.14,337.38Z" transform="translate(0 12.45)"/><circle class="cls-7" cx="152.36" cy="344.14" r="8.68"/><path class="cls-8" d="M131,0c15.66,8.71,21.63,13,21.63,13-3.49,24.54-4.17,77.18-59.25,83.16S57.47,56,68.25,51.81,131,0,131,0Z" transform="translate(0 12.45)"/><path class="cls-9" d="M74.83,50.61c-3.59,10.18.9,24.31,16.94,24.28,18.68,0,40.84-12.6,42.63-27.57" transform="translate(0 12.45)"/><path class="cls-10" d="M89.72,69.79c1.82-1.5,8.11-.22,9.45,3.12.6,1.5,0,11.08-2.7,12.28-3.8,1.69-12,2.09-12.27-.6C83.68,79.91,88.05,71.16,89.72,69.79Z" transform="translate(0 12.45)"/><ellipse class="cls-11" cx="89.52" cy="74.64" rx="4.35" ry="1.55" transform="translate(-18.14 131.73) rotate(-62.34)"/><path class="cls-12" d="M14.37,175.14C6,179.33,4.19,183.52,0,185.91c.6,10.78,3.59,16.77,7.78,18.56,4.79,2.4,12,.6,13.17-6s.6-10.17,2.4-13.17S14.37,175.14,14.37,175.14Z" transform="translate(0 12.45)"/><path class="cls-13" d="M40.11,211.06c-3,3.59-6.58,7.18-16.16,7.18-3.6-6-5.39-16.76-5.39-19.16-3.59,3-6.59,1.8-7.19,6.59s6.59,44.9,15,64.66c.6,32.32,0,65.25-3.59,79.62a46.26,46.26,0,0,1-7.76.6c1.17-16.77,7.76-70.05,4.17-79S1.2,220,3.59,205.67s22.15-20.36,26.34-18S40.11,211.06,40.11,211.06Z" transform="translate(0 12.45)"/><path class="cls-14" d="M22.75,184.12c1.22,4.28-4.19,6-4.54,14.44-.1,2.47-1.89,5.77-4.05,4.88-1.61-.67-2.06-9-1.59-11.54C8,185.86,12,172.74,22.75,184.12Z" transform="translate(0 12.45)"/><path class="cls-15" d="M55.68,62.59c-10.14,13.7-12,49.9-13.77,70.64C31.22,149,16.16,165.56,13.17,175.74c1.8,4.19,5.39,9,10.18,10.77,7.18-5.39,25.14-17.36,32.92-28.14s12-64.93,4.79-75S52.08,66.78,55.68,62.59Z" transform="translate(0 12.45)"/><path class="cls-16" d="M66.45,53c-29.33,18.56-11.37,50.29-9,58.07-10.77,32.33-16.16,44.3-15.56,44.3,6,5.39,11.37,11.38,20.35,11.38-3.59,7.18,0,15.28,0,15.28-1.2,15.25-9,91.28-7.78,122.41,50.29,13.77,135.71,13.77,177.41,0-1-43.1,12.37-129.31-35.53-174.21,3.6-9,23.35-80.22,9-96.39s-34.12-23.35-52.68-21c-4.19,41.9-25.14,82-63.46,81.42S64.66,59.59,66.45,53Z" transform="translate(0 12.45)"/><path class="cls-17" d="M196.36,130.24c3.6-9,23.35-80.22,9-96.39s-34.12-23.35-52.68-21c-4.19,41.9-25.14,82-63.46,81.42S64.66,59.59,66.45,53c-29.33,18.56-11.37,50.29-9,58.07-10.77,32.33-16.16,44.3-15.56,44.3,6,5.39,11.37,11.38,20.35,11.38,17.36-5.39,34.13-7.19,74.84-2.4C163,167.41,186.19,154.18,196.36,130.24Z" transform="translate(0 12.45)"/><rect class="cls-18" x="115.02" y="141.75" width="34.17" height="57.77" rx="4.85" transform="translate(-60.8 86.36) rotate(-25.62)"/><rect class="cls-19" x="117.1" y="145.2" width="27.78" height="46.22" rx="3.91" transform="translate(-59.9 85.65) rotate(-25.62)"/><rect class="cls-20" x="118.66" y="159.39" width="4.19" height="4.19" transform="translate(-57.96 80.55) rotate(-25.62)"/><rect class="cls-20" x="123.9" y="161.91" width="2.09" height="2.09" transform="translate(-58.18 82.5) rotate(-25.62)"/><rect class="cls-20" x="126.77" y="158.21" width="2.09" height="2.09" transform="translate(-56.3 83.38) rotate(-25.62)"/><rect class="cls-20" x="129.48" y="163.87" width="2.09" height="2.09" transform="translate(-58.48 85.11) rotate(-25.62)"/><rect class="cls-20" x="128.58" y="161.99" width="2.09" height="2.09" transform="translate(-57.76 84.54) rotate(-25.62)"/><rect class="cls-20" x="135.14" y="161.16" width="2.09" height="2.09" transform="translate(-56.75 87.29) rotate(-25.62)"/><rect class="cls-20" x="129.56" y="159.2" width="2.09" height="2.09" transform="translate(-56.45 84.69) rotate(-25.62)"/><rect class="cls-20" x="123.97" y="157.23" width="2.09" height="2.09" transform="translate(-56.15 82.08) rotate(-25.62)"/><rect class="cls-20" x="128.5" y="166.67" width="2.09" height="2.09" transform="translate(-59.79 84.96) rotate(-25.62)"/><rect class="cls-20" x="126.61" y="167.57" width="2.09" height="2.09" transform="translate(-60.36 84.23) rotate(-25.62)"/><rect class="cls-20" x="121.93" y="167.5" width="2.09" height="2.09" transform="translate(-60.79 82.2) rotate(-25.62)"/><rect class="cls-20" x="122.92" y="164.7" width="2.09" height="2.09" transform="translate(-59.49 82.35) rotate(-25.62)"/><rect class="cls-20" x="132.35" y="160.18" width="2.09" height="2.09" transform="translate(-56.6 85.99) rotate(-25.62)"/><rect class="cls-20" x="130.31" y="170.44" width="2.09" height="2.09" transform="translate(-61.24 86.12) rotate(-25.62)"/><rect class="cls-20" x="131.29" y="167.65" width="2.09" height="2.09" transform="translate(-59.94 86.27) rotate(-25.62)"/><rect class="cls-20" x="129.99" y="153.96" width="4.19" height="4.19" transform="translate(-54.49 84.91) rotate(-25.62)"/><rect class="cls-20" x="124.09" y="170.71" width="4.19" height="4.19" transform="translate(-62.32 84.01) rotate(-25.62)"/><rect class="cls-20" x="135.42" y="165.28" width="4.19" height="4.19" transform="translate(-58.86 88.37) rotate(-25.62)"/><rect class="cls-21" x="118.44" y="153.74" width="21.39" height="21.39" transform="translate(-58.41 84.46) rotate(-25.62)"/><path class="cls-22" d="M126.73,191.55,110.2,157.08a3.92,3.92,0,0,1,1.73-5.26l18.14-8.7a3.92,3.92,0,0,1,5.18,1.95" transform="translate(0 12.45)"/><rect class="cls-23" x="136.96" y="190.96" width="11.55" height="3.69" rx="1.84" transform="translate(-69.34 93.13) rotate(-25.62)"/><path class="cls-24" d="M113.78,183c-1.58,32.83,2.34,54.26,32.7,54.35s38-25.6,36.07-60C171.75,181.66,133.41,186,113.78,183Z" transform="translate(0 12.45)"/><path class="cls-25" d="M119.16,183.72c-1.6,28.69,1.61,46.25,27.38,46.49s32.36-21,31-51C163,182,137.06,185.31,119.16,183.72Z" transform="translate(0 12.45)"/><path class="cls-26" d="M74.83,183.52c-4.53.5-16.32-.8-18.56-1.6,1.17,18.3,1.41,49.19,1.41,49.19C63.89,231.4,72.31,231.84,74.83,183.52Z" transform="translate(0 12.45)"/><path class="cls-27" d="M71,183.52c-3.86.6-14-1.2-15.9-1.8,1.44,15.57,2.41,41.9,2.41,41.9C62.79,223.63,70,224.83,71,183.52Z" transform="translate(0 12.45)"/><path class="cls-28" d="M98.78,161.59c-5.37-3.4-10.56-7.06-10.73-12.79-.53-18,6.72-41.82,7.75-54.79a54,54,0,0,1-6.55.31,53.48,53.48,0,0,1-7.48-.63c-.66,19.91-11,49.44-8.44,55.65C76,156,79.85,160.42,85.75,162.1c3.4,10.53-5.9,136.33,0,148.64,5.78.82,11.74,1.52,17.82,2.09C103.07,299.09,97.49,171.39,98.78,161.59Z" transform="translate(0 12.45)"/><path class="cls-29" d="M208.14,35.8c8.9,11.58-4.94,83.42-10,94.6,26.49,28.25,39.67,58,41.48,125.38-50.59,13.23-87.28,9-87.28,9-3-55.3-2.15-75.08-5-85.34-3.92-14.36-6.85-40.48-3.92-59.42s14.41-64.59,16-108.69C179.07,11.28,195.08,18.82,208.14,35.8Z" transform="translate(0 12.45)"/><path class="cls-30" d="M63.18,55.39c-7.21,21.09-7.84,71.83,0,98.6,2.8,9.57,5.15,25.35,4.57,34S65.13,265,65.13,265c-10.44,1.31-19-3.18-18.93-5.87,2.7-23.67,11.42-76.7,4.57-85.55S40.1,157,41,150.73c1.52-10.84,7.07-46,7.19-55.51s-.15-24.82,3.91-30A47.21,47.21,0,0,1,63.18,55.39Z" transform="translate(0 12.45)"/><g class="cls-31"><g class="cls-32"><path class="cls-33" d="M149.44,20.06l-2.33-2.61c11-9.8,43.71-26.91,45.1-27.63l1.62,3.1C193.49-6.9,160.14,10.55,149.44,20.06Z" transform="translate(0 12.45)"/><path class="cls-33" d="M145.3,43.81l-3.24-1.34c3.23-7.81,53.68-42.94,59.42-46.92l2,2.87C182.11,13.23,147.43,38.64,145.3,43.81Z" transform="translate(0 12.45)"/><path class="cls-33" d="M143.6,69.16l-2.36-2.59c7.11-6.46,70.14-48.39,72.82-50.17L216,19.31C215.34,19.75,150.5,62.87,143.6,69.16Z" transform="translate(0 12.45)"/><path class="cls-33" d="M140.07,97.77l-2.36-2.58C147.13,86.6,215.1,40.26,218,38.3l2,2.89C219.25,41.67,149.31,89.35,140.07,97.77Z" transform="translate(0 12.45)"/><path class="cls-33" d="M135.66,124l-2.52-2.42c5-5.24,79.11-52.25,82.26-54.24l1.88,3C195.91,83.88,139.6,119.94,135.66,124Z" transform="translate(0 12.45)"/><path class="cls-33" d="M133.89,150.89l-2-2.84c7.93-5.67,79.19-51.11,82.22-53L216,98C215.22,98.43,141.75,145.28,133.89,150.89Z" transform="translate(0 12.45)"/><path class="cls-33" d="M135,177.44l-2.59-2.35c5.63-6.2,71.23-47.89,74-49.67l1.88,3C189.39,140.38,139.39,172.58,135,177.44Z" transform="translate(0 12.45)"/><path class="cls-33" d="M145.13,230.41l-2.9-2c8.43-12.44,81.21-65.17,84.3-67.41l2.05,2.83C227.83,164.42,153.21,218.48,145.13,230.41Z" transform="translate(0 12.45)"/><path class="cls-33" d="M146.58,256.8l-2.91-2c7.92-11.79,91.38-73.64,94.93-76.27l2.08,2.81C210.78,203.52,152.64,247.76,146.58,256.8Z" transform="translate(0 12.45)"/><path class="cls-33" d="M146.92,278.45l-3.11-1.6c2.89-5.69,79.46-63.23,94.78-74.7l2.1,2.8C204.38,232.14,149.44,274.16,146.92,278.45Z" transform="translate(0 12.45)"/><path class="cls-33" d="M163,288.38l-2.44-2.51c4.9-4.74,79-60.33,82.15-62.69l2.1,2.8C218.14,246,166.76,284.71,163,288.38Z" transform="translate(0 12.45)"/><path class="cls-33" d="M204.16,278.65l-2.85-2c6.14-8.63,44.54-35,46.18-36.12l2,2.88C249.07,243.66,209.94,270.53,204.16,278.65Z" transform="translate(0 12.45)"/><path class="cls-33" d="M221.33,45.25C219.13,39.47,190,9.05,171-10l2.47-2.47c4.9,4.9,47.93,48.11,51.1,56.45Z" transform="translate(0 12.45)"/><path class="cls-33" d="M221.27,69.27C218.8,59.33,169.78,10.81,151.1-7l2.42-2.53c6.95,6.64,68,65.26,71.14,78Z" transform="translate(0 12.45)"/><path class="cls-33" d="M218.57,97c-3.08-9.59-58.5-56.16-79.6-73.3l2.2-2.71C149,27.38,218,83.63,221.9,96Z" transform="translate(0 12.45)"/><path class="cls-33" d="M213.45,123.6c-2.74-5.66-46.07-45.63-74.53-71.11l2.34-2.61c7.29,6.54,71.41,64.1,75.34,72.19Z" transform="translate(0 12.45)"/><path class="cls-33" d="M143,199.53l-2.23-2.69c7.88-6.55,66.33-45.38,76.94-52.42-7.41-7.61-53.15-38.83-82.18-58l1.93-2.92c13.51,8.92,81,53.73,84.35,60.57l.66,1.38-1.27.84C220.5,146.76,151.34,192.6,143,199.53Z" transform="translate(0 12.45)"/><path class="cls-33" d="M231.52,172.38C228,168.1,171,133.9,133.52,112l1.76-3c9.6,5.62,93.92,55.08,98.95,61.22Z" transform="translate(0 12.45)"/><path class="cls-33" d="M238.24,196.37c-2.37-3.17-31.55-18.42-55-30.67-21.46-11.2-41.72-21.79-47.23-25.86l2.08-2.82c5.29,3.92,25.44,14.44,46.77,25.58C218,179.94,238.38,190.72,241,194.28Z" transform="translate(0 12.45)"/><path class="cls-33" d="M242.51,216.8c-5.15-5-45-21.23-71.36-32-19.3-7.85-29.45-12-31-13.29l2.19-2.73c1.45,1.1,15.4,6.77,30.17,12.78C209,196.48,239.74,209.2,245,214.3Z" transform="translate(0 12.45)"/><path class="cls-33" d="M242.57,236.87c-7.19-6.33-93.95-42.07-102.26-43.23l.48-3.46c4.71.66,29.86,10.46,52.27,19.8,10.81,4.5,46.49,19.57,51.83,24.27Z" transform="translate(0 12.45)"/><path class="cls-33" d="M245.64,259.4c-9.89-7.19-91.83-38.83-100.46-39.75l.37-3.48c9.21,1,91.59,32.72,102.15,40.41Z" transform="translate(0 12.45)"/><path class="cls-33" d="M238.53,279c-8.44-6.87-81.06-34.22-92.57-38.3l1.17-3.3c6.88,2.44,84.24,31.26,93.61,38.88Z" transform="translate(0 12.45)"/><path class="cls-33" d="M194.39,282.65c-4.87-4.84-24.59-10.24-36.37-13.47-7.24-2-10.77-3-12-3.74l1.84-3c.88.54,6.07,2,11.1,3.34,13.67,3.74,32.39,8.87,37.92,14.36Z" transform="translate(0 12.45)"/></g></g><path class="cls-34" d="M158.3,9.31c-.88,16.42-17.39,98.72-15.77,120.07,15-14.11,28.56-44.2,31.09-50.28A48.57,48.57,0,0,0,162.43,73a40.15,40.15,0,0,0,15-6.53c.37-20.48.82-49.56-7.43-55.14C162,10.63,158.3,9.31,158.3,9.31Z" transform="translate(0 12.45)"/><g class="cls-35"><g class="cls-36"><path class="cls-33" d="M22.83,50.78l-2-2.24c9.43-8.39,37.4-23,38.59-23.64l1.38,2.65C60.53,27.7,32,42.64,22.83,50.78Z" transform="translate(0 12.45)"/><path class="cls-33" d="M19.28,71.1,16.52,70c2.76-6.69,45.93-36.75,50.84-40.16l1.71,2.46C50.79,44.93,21.11,66.68,19.28,71.1Z" transform="translate(0 12.45)"/><path class="cls-33" d="M17.83,92.79l-2-2.21c6.08-5.53,60-41.41,62.31-42.94l1.66,2.5C79.22,50.51,23.74,87.41,17.83,92.79Z" transform="translate(0 12.45)"/><path class="cls-33" d="M14.81,117.28l-2-2.21c8.06-7.35,66.23-47,68.7-48.69l1.68,2.48C82.57,69.27,22.71,110.07,14.81,117.28Z" transform="translate(0 12.45)"/><path class="cls-33" d="M11,139.76l-2.16-2.07c4.31-4.49,67.7-44.71,70.4-46.42l1.6,2.53C62.6,105.39,14.41,136.25,11,139.76Z" transform="translate(0 12.45)"/><path class="cls-33" d="M9.52,162.74,7.78,160.3c6.79-4.84,67.78-43.73,70.37-45.39l1.61,2.53C79.12,117.84,16.25,157.94,9.52,162.74Z" transform="translate(0 12.45)"/><path class="cls-33" d="M10.46,185.46l-2.22-2c4.82-5.31,61-41,63.34-42.51l1.61,2.53C57,153.74,14.23,181.3,10.46,185.46Z" transform="translate(0 12.45)"/><path class="cls-33" d="M19.14,230.79l-2.48-1.68c7.21-10.64,69.49-55.77,72.14-57.69l1.76,2.43C89.91,174.31,26.05,220.58,19.14,230.79Z" transform="translate(0 12.45)"/><path class="cls-33" d="M20.38,253.37l-2.49-1.66c6.78-10.1,78.2-63,81.24-65.27l1.78,2.4C75.32,207.78,25.57,245.64,20.38,253.37Z" transform="translate(0 12.45)"/><path class="cls-33" d="M20.67,271.9,18,270.53c2.47-4.87,68-54.11,81.11-63.93l1.79,2.4C69.84,232.27,22.83,268.23,20.67,271.9Z" transform="translate(0 12.45)"/><path class="cls-33" d="M34.4,280.4l-2.08-2.15c4.19-4.06,67.6-51.63,70.3-53.65l1.8,2.4C81.62,244.09,37.65,277.25,34.4,280.4Z" transform="translate(0 12.45)"/><path class="cls-33" d="M69.66,272.07l-2.44-1.73c5.25-7.38,38.12-29.95,39.51-30.91l1.7,2.47C108.09,242.13,74.61,265.12,69.66,272.07Z" transform="translate(0 12.45)"/><path class="cls-33" d="M84.35,72.33c-1.88-5-26.77-31-43-47.26L43.42,23c4.19,4.2,41,41.18,43.73,48.31Z" transform="translate(0 12.45)"/><path class="cls-33" d="M84.3,92.89c-2.12-8.51-44.06-50-60-65.31l2.07-2.16c6,5.68,58.17,55.84,60.88,66.75Z" transform="translate(0 12.45)"/><path class="cls-33" d="M82,116.63c-2.64-8.2-50.07-48-68.12-62.72l1.88-2.32c6.72,5.45,65.7,53.59,69.09,64.13Z" transform="translate(0 12.45)"/><path class="cls-33" d="M77.61,139.38c-2.35-4.84-39.43-39-63.78-60.85l2-2.23c6.25,5.59,61.12,54.85,64.48,61.77Z" transform="translate(0 12.45)"/><path class="cls-33" d="M17.32,204.36l-1.91-2.3c6.74-5.6,56.76-38.84,65.84-44.86-6.34-6.51-45.48-33.23-70.32-49.63l1.65-2.49c11.55,7.63,69.36,46,72.18,51.83l.57,1.18-1.09.72C83.64,159.21,24.46,198.43,17.32,204.36Z" transform="translate(0 12.45)"/><path class="cls-33" d="M93.07,181.13c-3-3.67-51.8-32.93-83.87-51.71l1.51-2.58c8.22,4.81,80.38,47.13,84.68,52.39Z" transform="translate(0 12.45)"/><path class="cls-33" d="M98.82,201.66c-2-2.72-27-15.76-47.07-26.25-18.36-9.59-35.7-18.64-40.41-22.13l1.77-2.41c4.53,3.35,21.77,12.36,40,21.89,28.4,14.84,45.81,24.06,48.08,27.11Z" transform="translate(0 12.45)"/><path class="cls-33" d="M102.47,219.15C98.07,214.83,64,201,41.41,191.8c-16.52-6.72-25.2-10.28-26.57-11.37l1.88-2.34C18,179,29.9,183.89,42.54,189c31.3,12.72,57.56,23.61,62,28Z" transform="translate(0 12.45)"/><path class="cls-33" d="M102.53,236.32c-6.15-5.42-80.4-36-87.51-37l.41-3c7.64,1.07,82.43,31.85,89.08,37.71Z" transform="translate(0 12.45)"/><path class="cls-33" d="M105.15,255.6c-8.46-6.16-78.58-33.24-86-34l.32-3c7.88.84,78.38,28,87.41,34.58Z" transform="translate(0 12.45)"/><path class="cls-33" d="M99.07,272.37c-7.22-5.87-69.37-29.28-79.22-32.78l1-2.82c5.89,2.09,72.09,26.76,80.11,33.28Z" transform="translate(0 12.45)"/><path class="cls-33" d="M61.3,275.49c-4.17-4.14-21-8.76-31.13-11.52-6.19-1.7-9.22-2.54-10.28-3.2l1.57-2.55c.75.47,5.2,1.68,9.5,2.86,11.69,3.2,27.72,7.59,32.45,12.29Z" transform="translate(0 12.45)"/></g></g><path class="cls-34" d="M66.44,52.78C54,68.45,57.24,125.4,59.88,138.39c-11.7-11.23-19.56-37.94-19.56-37.94A18.67,18.67,0,0,0,50,93.69a26.46,26.46,0,0,1-9.89-1.41C42.93,80.86,49.46,59.31,66.44,52.78Z" transform="translate(0 12.45)"/><circle class="cls-34" cx="155.57" cy="157.63" r="8.82"/><circle class="cls-34" cx="161.45" cy="202.69" r="7.51"/><circle class="cls-37" cx="164.72" cy="251.66" r="6.86"/><path class="cls-38" d="M203.09,32.1c17.41,11.65,36.38,62.22,31,90.35-13.77,7.19-19.16,6-19.16,6C200,108.09,192.77,94.32,185,78.75S183.48,19,203.09,32.1Z" transform="translate(0 12.45)"/></g></g></svg>