<svg xmlns="http://www.w3.org/2000/svg" xmlns:xlink="http://www.w3.org/1999/xlink" viewBox="0 0 150.56 415.72"><defs><style>.cls-1,.cls-25,.cls-6{fill:none;}.cls-2{fill:#283547;}.cls-3{fill:url(#Безымянный_градиент_1909);}.cls-4{fill:url(#Безымянный_градиент_1424);}.cls-5{fill:url(#Безымянный_градиент_18);}.cls-6{stroke:#283547;stroke-linejoin:round;}.cls-25,.cls-6{stroke-linecap:round;stroke-width:1.39px;}.cls-7{fill:url(#Безымянный_градиент_1909-2);}.cls-8{fill:url(#Безымянный_градиент_1428);}.cls-9{fill:url(#Безымянный_градиент_159);}.cls-10{fill:url(#Безымянный_градиент_1424-2);}.cls-11{fill:url(#Безымянный_градиент_1424-3);}.cls-12{fill:url(#Безымянный_градиент_1424-4);}.cls-13{fill:url(#Безымянный_градиент_1424-5);}.cls-14{fill:url(#Безымянный_градиент_1424-6);}.cls-15{fill:url(#Безымянный_градиент_1424-7);}.cls-16{fill:url(#Безымянный_градиент_1424-8);}.cls-17{fill:url(#Безымянный_градиент_11);}.cls-18{fill:#a2aaae;}.cls-19{fill:#a9bcca;}.cls-20{fill:#d23c3e;}.cls-21{fill:url(#Безымянный_градиент_598);}.cls-22{fill:url(#Безымянный_градиент_492);}.cls-23{fill:url(#Безымянный_градиент_600);}.cls-24{fill:url(#Безымянный_градиент_159-2);}.cls-25{stroke:#c0717c;stroke-miterlimit:10;}.cls-26{fill:url(#Безымянный_градиент_1424-9);}.cls-27{fill:url(#Безымянный_градиент_1424-10);}.cls-28{fill:url(#Безымянный_градиент_1424-11);}.cls-29{fill:url(#Безымянный_градиент_1424-12);}.cls-30{fill:url(#Безымянный_градиент_1424-13);}.cls-31{fill:url(#Безымянный_градиент_1424-14);}.cls-32{fill:url(#Безымянный_градиент_1424-15);}.cls-33{fill:url(#Безымянный_градиент_1424-16);}.cls-34{fill:url(#Безымянный_градиент_1424-17);}.cls-35{fill:url(#Безымянный_градиент_938);}.cls-36{fill:url(#Безымянный_градиент_1424-18);}.cls-37{fill:url(#Безымянный_градиент_11-2);}.cls-38{fill:url(#Безымянный_градиент_159-3);}.cls-39{fill:url(#Новый_образец_градиента_копия_2);}.cls-40{fill:url(#Новый_образец_градиента_копия_2-2);}.cls-41{opacity:0.4;}.cls-42{clip-path:url(#clip-path);}.cls-43{fill:#81330d;}.cls-44{fill:url(#Безымянный_градиент_2491);}.cls-45{fill:url(#Безымянный_градиент_2491-2);}.cls-46{fill:url(#Безымянный_градиент_2491-3);}.cls-47{fill:url(#Безымянный_градиент_2491-4);}</style><linearGradient id="Безымянный_градиент_1909" x1="137.27" y1="194.96" x2="151.5" y2="397.81" gradientTransform="translate(-61.83 -68.78) rotate(1.42)" gradientUnits="userSpaceOnUse"><stop offset="0" stop-color="#737d83"/><stop offset="1" stop-color="#191121"/></linearGradient><linearGradient id="Безымянный_градиент_1424" x1="23.06" y1="376.99" x2="79.5" y2="392.61" gradientUnits="userSpaceOnUse"><stop offset="0" stop-color="#d993bf"/><stop offset="1" stop-color="#ed5b89"/></linearGradient><linearGradient id="Безымянный_градиент_18" x1="25.11" y1="394.85" x2="87.93" y2="405.5" gradientUnits="userSpaceOnUse"><stop offset="0" stop-color="#fff5f5"/><stop offset="1" stop-color="#c6d9db"/></linearGradient><linearGradient id="Безымянный_градиент_1909-2" x1="106.59" y1="142.87" x2="125.84" y2="401.64" gradientTransform="matrix(1, 0, 0, 1, 0, 0)" xlink:href="#Безымянный_градиент_1909"/><linearGradient id="Безымянный_градиент_1428" x1="120.09" y1="37.34" x2="6.75" y2="87.27" gradientUnits="userSpaceOnUse"><stop offset="0.51" stop-color="#fac38f"/><stop offset="1" stop-color="#faa96c"/></linearGradient><linearGradient id="Безымянный_градиент_159" x1="134.88" y1="70.91" x2="21.53" y2="120.83" gradientUnits="userSpaceOnUse"><stop offset="0.64" stop-color="#ffd7a5"/><stop offset="1" stop-color="#faa96c"/></linearGradient><linearGradient id="Безымянный_градиент_1424-2" x1="8025.76" y1="2332.74" x2="8008.75" y2="2360.29" gradientTransform="matrix(-0.85, -0.53, -0.53, 0.85, 8107.57, 2268.15)" xlink:href="#Безымянный_градиент_1424"/><linearGradient id="Безымянный_градиент_1424-3" x1="8028.33" y1="2352.34" x2="8014.21" y2="2375.21" gradientTransform="matrix(-0.85, -0.53, -0.53, 0.85, 8107.57, 2268.15)" xlink:href="#Безымянный_градиент_1424"/><linearGradient id="Безымянный_градиент_1424-4" x1="8028.94" y1="2367.87" x2="8015.93" y2="2388.96" gradientTransform="matrix(-0.85, -0.53, -0.53, 0.85, 8107.57, 2268.15)" xlink:href="#Безымянный_градиент_1424"/><linearGradient id="Безымянный_градиент_1424-5" x1="8764.31" y1="1930.88" x2="8754.6" y2="1953.58" gradientTransform="matrix(-0.92, -0.39, -0.39, 0.92, 8841.86, 1746.98)" xlink:href="#Безымянный_градиент_1424"/><linearGradient id="Безымянный_градиент_1424-6" x1="11055.03" y1="-2216.87" x2="11062.6" y2="-2193.38" gradientTransform="matrix(-0.9, 0.43, 0.29, 0.62, 10668.64, -3252.52)" xlink:href="#Безымянный_градиент_1424"/><linearGradient id="Безымянный_градиент_1424-7" x1="11057.4" y1="-2200.6" x2="11063.63" y2="-2181.28" gradientTransform="matrix(-0.9, 0.43, 0.29, 0.62, 10668.64, -3252.52)" xlink:href="#Безымянный_градиент_1424"/><linearGradient id="Безымянный_градиент_1424-8" x1="11055.83" y1="-2186.39" x2="11061.29" y2="-2169.44" gradientTransform="matrix(-0.9, 0.43, 0.29, 0.62, 10668.64, -3252.52)" xlink:href="#Безымянный_градиент_1424"/><linearGradient id="Безымянный_градиент_11" x1="-518.65" y1="81.9" x2="-515.78" y2="144.95" gradientTransform="translate(340.45 -383.42) rotate(-41.46)" gradientUnits="userSpaceOnUse"><stop offset="0" stop-color="#fff5f5"/><stop offset="1" stop-color="#c6d9db"/></linearGradient><linearGradient id="Безымянный_градиент_598" x1="-518.61" y1="83.53" x2="-516.41" y2="131.79" gradientTransform="translate(543.59 -68.73)" gradientUnits="userSpaceOnUse"><stop offset="0" stop-color="#ddf5f5" stop-opacity="0"/><stop offset="1" stop-color="#fafff5" stop-opacity="0.4"/></linearGradient><linearGradient id="Безымянный_градиент_492" x1="-519.11" y1="152.74" x2="-515.8" y2="157.12" gradientTransform="translate(340.45 -383.42) rotate(-41.46)" gradientUnits="userSpaceOnUse"><stop offset="0" stop-color="#5d7d91"/><stop offset="1" stop-color="#374b6b"/></linearGradient><linearGradient id="Безымянный_градиент_600" x1="-522.62" y1="80.56" x2="-517.34" y2="87.54" gradientTransform="translate(476.51 -214.06) rotate(-17.64)" gradientUnits="userSpaceOnUse"><stop offset="0" stop-color="#ddf5f5" stop-opacity="0"/><stop offset="1" stop-color="#faffff" stop-opacity="0.5"/></linearGradient><linearGradient id="Безымянный_градиент_159-2" x1="88.81" y1="64.95" x2="97.1" y2="10.42" xlink:href="#Безымянный_градиент_159"/><linearGradient id="Безымянный_градиент_1424-9" x1="74.69" y1="61.95" x2="76.22" y2="115.89" xlink:href="#Безымянный_градиент_1424"/><linearGradient id="Безымянный_градиент_1424-10" x1="90.08" y1="4" x2="90.69" y2="25.45" xlink:href="#Безымянный_градиент_1424"/><linearGradient id="Безымянный_градиент_1424-11" x1="89.33" y1="19.19" x2="89.88" y2="38.43" xlink:href="#Безымянный_градиент_1424"/><linearGradient id="Безымянный_градиент_1424-12" x1="90.51" y1="30.36" x2="91.07" y2="50.14" xlink:href="#Безымянный_градиент_1424"/><linearGradient id="Безымянный_градиент_1424-13" x1="89.89" y1="35" x2="90.72" y2="64.22" xlink:href="#Безымянный_градиент_1424"/><linearGradient id="Безымянный_градиент_1424-14" x1="82.09" y1="48.14" x2="83.06" y2="82.59" xlink:href="#Безымянный_градиент_1424"/><linearGradient id="Безымянный_градиент_1424-15" x1="77.44" y1="65.79" x2="78.4" y2="99.5" xlink:href="#Безымянный_градиент_1424"/><linearGradient id="Безымянный_градиент_1424-16" x1="72.76" y1="83.2" x2="73.61" y2="113.37" xlink:href="#Безымянный_градиент_1424"/><linearGradient id="Безымянный_градиент_1424-17" x1="72.99" y1="104.63" x2="73.84" y2="134.51" xlink:href="#Безымянный_градиент_1424"/><linearGradient id="Безымянный_градиент_938" x1="74.98" y1="5.26" x2="55.97" y2="121.96" gradientUnits="userSpaceOnUse"><stop offset="0" stop-color="#c3577f"/><stop offset="1" stop-color="#ad298d"/></linearGradient><linearGradient id="Безымянный_градиент_1424-18" x1="81.18" y1="380.43" x2="133" y2="397.47" xlink:href="#Безымянный_градиент_1424"/><linearGradient id="Безымянный_градиент_11-2" x1="75.68" y1="397.63" x2="138.5" y2="408.28" gradientTransform="matrix(1, 0, 0, 1, 0, 0)" xlink:href="#Безымянный_градиент_11"/><linearGradient id="Безымянный_градиент_159-3" x1="44.21" y1="120.44" x2="55.33" y2="141.97" xlink:href="#Безымянный_градиент_159"/><linearGradient id="Новый_образец_градиента_копия_2" x1="104.26" y1="132.08" x2="93.59" y2="144.08" gradientTransform="matrix(1, 0, 0, 1, 0, 0)" xlink:href="#Безымянный_градиент_492"/><linearGradient id="Новый_образец_градиента_копия_2-2" x1="89.75" y1="126.91" x2="87.53" y2="161.7" gradientTransform="matrix(1, 0, 0, 1, 0, 0)" xlink:href="#Безымянный_градиент_492"/><clipPath id="clip-path"><circle class="cls-1" cx="97.47" cy="145.27" r="20.9"/></clipPath><linearGradient id="Безымянный_градиент_2491" x1="-340.25" y1="-918.88" x2="-353.42" y2="-903.54" gradientTransform="matrix(0.98, -0.19, 0.19, 0.98, 618.88, 969.77)" gradientUnits="userSpaceOnUse"><stop offset="0" stop-color="#ffe5b3"/><stop offset="0.17" stop-color="#fbdc9f"/><stop offset="0.51" stop-color="#f0c46b"/><stop offset="1" stop-color="#df9f19"/></linearGradient><linearGradient id="Безымянный_градиент_2491-2" x1="-346.38" y1="-924.15" x2="-359.55" y2="-908.81" xlink:href="#Безымянный_градиент_2491"/><linearGradient id="Безымянный_градиент_2491-3" x1="-342.82" y1="-921.09" x2="-355.99" y2="-905.75" xlink:href="#Безымянный_градиент_2491"/><linearGradient id="Безымянный_градиент_2491-4" x1="-347.12" y1="-924.79" x2="-360.29" y2="-909.45" xlink:href="#Безымянный_градиент_2491"/></defs><g id="Слой_2" data-name="Слой 2"><g id="Слой_2-2" data-name="Слой 2"><path class="cls-2" d="M106.14,96.61c8,10.19,6.72,32.64,3.45,37.41-2,.4-2.11-1.3-2.11-1.3,2.1-4.38,4.56-22.24-2.48-31.8C103.94,99.47,105.62,96,106.14,96.61Z"/><path class="cls-3" d="M73.67,135.57c21.48,16.87,34.42,14.06,28.93,39s-16.07,59.4-19,67.67c19.75,16.48,14.41,33.77,4,63.37s-14.64,58-9.36,69.3C73,386.56,63.83,374,63.85,373.26c.11-32.68,2.53-83.51-4.65-102.46s-18.71-60.52-17.38-84.56c2-35.76,4.56-55.61,5.72-62.44C53.67,128.82,57.06,132.38,73.67,135.57Z"/><path class="cls-4" d="M78.44,368.39c2.09,11.12,20.85,22.94,20.16,34.06-19.46,3.48-59.08,13.21-75.07-6.95,11.12-2.78,35.47-10.17,38.24-23.16C70.79,373.48,71.49,364.92,78.44,368.39Z"/><path class="cls-5" d="M100,396.89c0,9-4.84,15.29-10.41,16-7,0-13.92-.7-16-4.17-3.83,3.82-5.59,4.17-10.44,4.17s-32,2.08-40.3-17.38c4.17-1.39,32.66,6.26,35.44,9,6.26,2.78,10.43,4.7,17.38-5.73,5.56,6.25,10.43,2.25,10.43,2.25S91.65,386.47,100,396.89Z"/><path class="cls-6" d="M55.5,385.08c-17.37-14.6-2.68-22.44.4-1.14,1.29-12.32,14.93-12,1-.24"/><path class="cls-7" d="M100.69,128.07c21.89,16.33,52,22.76,47.09,47.79S133.19,235.63,130.4,244c20.16,16,18.67,25.81,9,55.65s-16.63,66-11.07,77.11c-4.87,11.82-13.9,1.1-13.9.41-.7-32.67,0-85.21-7.65-104s-18.17-61.86-28.2-83.76-12.7-48.5-11.71-55.36C75.79,137,94.62,134.51,100.69,128.07Z"/><path class="cls-8" d="M57.28,41.49c-9.34,3.49-30.64,28.6-40.91,47s4.37,21.67,14.07,8.3S53.69,70.45,58,65,70.27,36.64,57.28,41.49Z"/><path class="cls-9" d="M14.3,104.4c3.45,4.64,22.77,27.81,28.52,30.4s9.62-.66,5.18-7.38S28.56,99.52,25.19,96.65,9,97.29,14.3,104.4Z"/><path class="cls-10" d="M55.48,40.38c-6.26,2.27-16.62,14-17.77,17.17S48.34,74.86,52.4,72.77s12-12.53,14.23-17.31S71.66,34.49,55.48,40.38Z"/><path class="cls-11" d="M52.74,73C56,66.52,45,50.34,38.48,54.86A32.07,32.07,0,0,0,27.69,68c-.78,2.08,13.92,15.8,16.08,14S51.29,75.89,52.74,73Z"/><path class="cls-12" d="M43.6,81.57c2.16-6-11.37-16.79-15.41-14.4s-8.17,10-8.4,13S32,94.52,34.65,92.51,41.94,86.16,43.6,81.57Z"/><path class="cls-13" d="M25.13,103.18C30.48,99,36.7,93,36.86,89S23.57,73.7,19,79.26,9.82,94.33,12.46,98,23.21,104.69,25.13,103.18Z"/><path class="cls-14" d="M29.91,93.74c-2.58-1.94-16.32-9.8-19.59-2-2.29,5.5,3.52,15.26,5.22,15s17-4.29,17-6.53S32.52,95.69,29.91,93.74Z"/><path class="cls-15" d="M30.3,97.52c-2.28-1.19-19.52,2-17.37,8,1.28,3.53,6.17,8.29,8.86,8.05s12.93-6.1,13-9S32.2,98.51,30.3,97.52Z"/><path class="cls-16" d="M35.13,104.84c-1.57-.63-16.32,3.91-14.78,8.92.82,2.64,4.33,6.53,6.3,6.1S38.38,113.51,38.4,112,38.12,106,35.13,104.84Z"/><path class="cls-17" d="M1.76,27.37,36.91,67.16a10.52,10.52,0,0,0,7,3.52l1.71.16a7,7,0,0,1,4.63,2.34l4.43,5a2.47,2.47,0,0,0,3.48.21h0a2.46,2.46,0,0,0,.21-3.47l-4.43-5A7,7,0,0,1,52.13,65l.06-1.72A10.51,10.51,0,0,0,49.55,56L14.4,16.2a7,7,0,0,0-9.92-.61l-2.1,1.86A7,7,0,0,0,1.76,27.37Z"/><path class="cls-18" d="M46.84,59.29l-6.32,5.59a.37.37,0,0,1-.5,0,.36.36,0,0,1,0-.5l6.33-5.58a.35.35,0,0,1,.46.52Z"/><path class="cls-18" d="M41.26,53l-6.32,5.58a.35.35,0,0,1-.5,0,.34.34,0,0,1,0-.49l6.32-5.59a.37.37,0,0,1,.5,0A.36.36,0,0,1,41.26,53Z"/><path class="cls-18" d="M35.67,46.65l-6.32,5.58a.35.35,0,0,1-.46-.52l6.32-5.59a.35.35,0,0,1,.46.53Z"/><path class="cls-18" d="M30.09,40.33l-6.32,5.58a.35.35,0,0,1-.5,0,.36.36,0,0,1,0-.5l6.32-5.58a.35.35,0,0,1,.47.53Z"/><path class="cls-18" d="M24.51,34l-6.33,5.58a.34.34,0,0,1-.49,0,.35.35,0,0,1,0-.5L24,33.48a.35.35,0,0,1,.5,0A.37.37,0,0,1,24.51,34Z"/><path class="cls-18" d="M18.92,27.68,12.6,33.27a.36.36,0,0,1-.5,0,.37.37,0,0,1,0-.5l6.33-5.58a.35.35,0,0,1,.46.52Z"/><path class="cls-18" d="M13.34,21.36,7,27a.36.36,0,0,1-.5,0,.35.35,0,0,1,0-.5l6.32-5.58a.35.35,0,1,1,.47.52Z"/><rect class="cls-19" x="29.83" y="13.38" width="2.81" height="69.23" rx="1.41" transform="translate(-23.95 32.7) rotate(-41.46)"/><rect class="cls-20" x="36.81" y="30.06" width="2.81" height="51.66" rx="1.21" transform="translate(-27.43 39.3) rotate(-41.46)"/><rect class="cls-21" x="20.61" y="10.7" width="11.25" height="63.26" rx="5.62" transform="translate(-21.45 27.97) rotate(-41.46)"/><path class="cls-22" d="M55.53,71.78l2.79,3.16a2.46,2.46,0,0,1-.21,3.47h0a2.47,2.47,0,0,1-3.48-.21L51.84,75"/><ellipse class="cls-23" cx="6.87" cy="23.92" rx="5.24" ry="6.83" transform="translate(-9.07 4.81) rotate(-23.81)"/><path class="cls-24" d="M110.94,0c-5.56,7.65-11.12,27.11-8.34,32s22.24,8.34,25,16-13.9,43.1-22.93,54.91-8.47,20.55-4.26,26.78c-24.16,9.14-43,9.37-47.18.33-.69-16.68,1.39-54.56,2.09-55.61-3.48-10.44-3.48-29.19,4.86-34.75s22.94-9.73,22.94-9.73c0-8.34.69-18.77.69-18.77Z"/><path class="cls-25" d="M95,76.46c1.39-3.48,11.12-27.8,21.54-36.84"/><path class="cls-25" d="M72,33.36c-5.56,5.56-16,29.89-18.77,35.45"/><path class="cls-26" d="M112.33,91.06c-6.25,1.39-16.68-10.43-16-18.08-16,6.26-38.23,6.26-41.71-7C40,80.63,28.23,93.36,53.25,110.28c-.69,2.56-1.16,5.14,0,6.15,8.93,7.77,46.57,4.51,46.57,4.51Z"/><path class="cls-27" d="M71.7,12.76c-2.61,2-2.61,11.54,0,12.41,11.76,7.18,32.39-1,35.78-4.43S113.84,5,106.47,5C98.24,4.86,74.91,9.28,71.7,12.76Z"/><path class="cls-28" d="M71.7,24.52c-2.68,1.15-3.65,8.78-2.61,12.4,1.31,4.58,33.1,6.46,39.18-3.26,3.26-5.22,2.81-14.52,0-13.71C103.7,21.25,79.54,31.7,71.7,24.52Z"/><path class="cls-29" d="M107.62,33c-8.49,5.87-18.94,6.53-30,5.22-4.54-.53-8.49-3.92-8.49-5.88-4.57-.65-9.25,3.51-9.8,5.88s5.88,10.45,15,12.41S109.58,55.86,122,40.19C124.32,37.24,110.16,31.24,107.62,33Z"/><path class="cls-30" d="M122,39.54c5.13,1.49,11.34,7.94,8,12.79s-29.26,20-55.69,13.7C53.42,61.09,50.15,53.94,50.15,51.29c-2.61-5.88,6.53-15.67,9.14-13.06s8.27,10.7,20.79,12.86S112.84,46.72,122,39.54Z"/><path class="cls-31" d="M118.06,59.13c5.58,0,7.26,17.15,0,21.91-12.4,8.12-47.66,5.51-59.42-1s-13.28-6.2-14.36-11.1c-4.57-4.57-.66-17,5.87-17.63,4.44,3.13,7,9.72,24.16,13.06C97.82,68.92,112.84,59.13,118.06,59.13Z"/><path class="cls-32" d="M116.76,81.33c5.22,2-3.88,18.15-8.49,20.24-7.18,3.27-65.51-.4-69.87-15.67-2.61-9.14.65-14.37,5.88-17C47,71,52.76,78.72,71.05,82.63,97.61,88.33,111,79.18,116.76,81.33Z"/><path class="cls-33" d="M108.59,100.21c2.63,2.72-.22,11.93-5.17,14.81-23,2.49-52,2.88-61.1-6.27-5.23-2.61-7.78-19.82-2.91-22.64C52.41,98.1,84.75,106,108.59,100.21Z"/><path class="cls-34" d="M42.32,107.45c11.15,7.42,39.18,14.36,60.6,6.76,2.21,2.14,6,10.22,1.43,14.79-13.71,8.49-43.39,15.13-57.28-.93C41.48,121.43,37.75,113.33,42.32,107.45Z"/><path class="cls-35" d="M79.34,9.44c-1.11,4-7,12.25-2.76,28.36S60,65,53.25,82.54c-4.55,11.9-8.59,40.69,6.89,53.7-5-8.61-13.55-22.51-5.42-51,6.53-22.86,28.08-30,23.69-47.45C75,24.32,79.34,9.44,79.34,9.44Z"/><path class="cls-36" d="M129,371.17c2.09,11.13,20.86,22.94,20.16,34.06-19.46,3.48-59.08,13.21-75.07-7,11.12-2.78,35.47-10.17,38.24-23.16C121.36,376.26,122.06,367.7,129,371.17Z"/><path class="cls-37" d="M150.56,399.67c0,9-4.83,15.29-10.41,16-7,0-13.92-.7-16-4.17-3.82,3.82-5.59,4.17-10.44,4.17s-32,2.08-40.3-17.38c4.17-1.39,32.67,6.26,35.45,9,6.25,2.78,10.42,4.7,17.37-5.73,5.57,6.25,10.43,2.25,10.43,2.25S142.22,389.25,150.56,399.67Z"/><path class="cls-6" d="M106.08,387.86c-17.38-14.6-2.69-22.44.39-1.14,1.3-12.32,14.93-12,1-.24"/><path class="cls-38" d="M43.52,128.59c.86-2.36,2.78-9,6.26-7.65,1.9.77,12.92,11.86,12.51,13.91-2.78,2.08-8.42-4.59-9.42-4.38,3.55,3.19,6.64,8.55,6.64,9.24s-2.78,4.87-5.56,4.17-6.3-1.2-8.71-2.34S40.74,136.24,43.52,128.59Z"/><circle class="cls-39" cx="91.93" cy="145.95" r="20.9"/><path class="cls-40" d="M79.47,134.78c-3.63,6.63,25.34,30.05,25.34,30.05-4,2.29-10,2.27-16,1.92-7.6-.46-16.11-7.37-17.48-17.44-1.4-10.28,4.41-16.25,3.76-15.92C74.84,137.2,78.43,135.16,79.47,134.78Z"/><circle class="cls-2" cx="97.47" cy="145.27" r="20.9"/><path class="cls-2" d="M60,36.92C44.28,80,54.07,119.2,75.4,138.14a15,15,0,0,1-1.09,3.92c-30-26.12-28.71-74.22-17.63-103.83A2.91,2.91,0,0,1,60,36.92Z"/><g class="cls-41"><g class="cls-42"><path d="M125.75,162.64c-5-6.69-43.27-30.49-55.8-36.07l.38-.86c12.59,5.61,51.11,29.6,56.18,36.37Z"/><path d="M128.64,154.48c-5-7.38-42.29-30.2-53-34.68l.36-.87c11.1,4.63,48.27,27.35,53.45,35Z"/><path d="M129.79,144.58c-4.73-5.05-32.55-26.14-44.75-30l.29-.9c12.31,3.87,40.38,25.14,45.14,30.22Z"/><path d="M116.54,174.36a3.89,3.89,0,0,1-.42,0l.13-.93h.09c-3.44-3.83-47.76-28.93-50.95-29.84l0-.12-.1.17c-.32-.23-.41-.48-.27-.73s.4-.31.76-.16c1.65.66,14.5,7.59,27.23,14.88,24.92,14.28,24.58,15.59,24.41,16.22C117.34,174.27,116.9,174.36,116.54,174.36Z"/><path d="M108.58,176.12c-4.53,0-43-24.16-43.39-24.41l.51-.79c8.06,5.22,40.33,24.73,42.75,24.31l.46.81A.62.62,0,0,1,108.58,176.12Z"/><path d="M121.23,167.64c-3.85-4.47-45.89-29.64-54.91-34.23l.43-.84c7.71,3.93,51.09,29.69,55.19,34.46Z"/><path d="M79.31,173.53l-.92-.15c1.38-8.35,24.53-47.37,33.13-58.15l.74.59C103.7,126.54,80.68,165.28,79.31,173.53Z"/><path d="M73,167.61l-.93-.11c1.06-9.21,23.6-46.48,31.33-55.7l.72.61C96.64,121.33,74,158.76,73,167.61Z"/><path d="M67.42,159.34l-.91-.25c1.89-6.71,17-38.5,26.17-47.61l.67.67C84.28,121.16,69.29,152.69,67.42,159.34Z"/><path d="M92.32,179.86a.62.62,0,0,1-.49-.22c-.44-.48-1.34-1.49,14.21-25.63,7.95-12.34,16.17-24.41,17.32-25.75q.39-.45.75-.21c.25.16.28.43.1.78l-.12-.06,0,0c-2.42,2.27-30.21,45-31.5,49.94l.07-.06.54.77A1.75,1.75,0,0,1,92.32,179.86Z"/><path d="M100.47,177.67h0l.12-.93c2.22-.77,21.92-32.92,26.68-41.26l.81.47C127.81,136.36,103.5,177.67,100.47,177.67Z"/><path d="M85.63,175.88l-.91-.21c1.44-6.12,28.1-49,33.14-56l.76.55C112.73,128.44,87,170.13,85.63,175.88Z"/></g></g><path class="cls-43" d="M105.54,142.54l-1.14.62a.83.83,0,0,1-.08-.12,1.17,1.17,0,0,0-2.09.36,1.8,1.8,0,0,0-.07.89,1.5,1.5,0,0,0,.71,1,1.19,1.19,0,0,0,.79.12,1.05,1.05,0,0,0,.61-.26.86.86,0,0,0,.27-.65l-1,.12s0,0,0-.07l-.09-.8c0-.06,0-.07.06-.08l2.38-.26h.06c0,.12,0,.24,0,.36a3.21,3.21,0,0,1,0,.76,2.22,2.22,0,0,1-1,1.54,2.66,2.66,0,0,1-1.23.39,2.74,2.74,0,0,1-1.36-.17,2.27,2.27,0,0,1-1.14-1,2.66,2.66,0,0,1-.25-2,2.29,2.29,0,0,1,1.24-1.57,3.15,3.15,0,0,1,1.41-.31,2.33,2.33,0,0,1,1.26.33,2.52,2.52,0,0,1,.69.69Z"/><path class="cls-43" d="M91.9,145.26c-.08-.77-.17-1.54-.26-2.3,0-.06,0-.08.07-.08l1.76-.19a2.38,2.38,0,0,1,2.14.82,2.17,2.17,0,0,1,.48,2.17,2.35,2.35,0,0,1-1.61,1.64,2.46,2.46,0,0,1-.47.1l-1.77.2c-.06,0-.08,0-.09-.07L92,146.17c0-.31-.07-.61-.1-.91ZM93,143.78l.29,2.67a2.33,2.33,0,0,0,.81-.16,1.11,1.11,0,0,0,.51-.42,1.37,1.37,0,0,0,.15-1.27,1.24,1.24,0,0,0-.69-.76,1.45,1.45,0,0,0-.74-.1Z"/><path class="cls-43" d="M97.81,144.82l-.26-.25a.78.78,0,0,1,.06-1.18,1.46,1.46,0,0,1,1-.32,1.25,1.25,0,0,1,.63.18.72.72,0,0,1,.25,1,1.69,1.69,0,0,1-.47.49l-.06,0,.53.42.11-.4.74.15a2.09,2.09,0,0,1-.23.72l.44.23-.29.8-.51-.29c-.09,0-.09,0-.16,0a1.74,1.74,0,0,1-1.15.46,1.7,1.7,0,0,1-.7-.12,1,1,0,0,1-.55-1.24,1.34,1.34,0,0,1,.4-.54Zm1.24,1.05v0l-.77-.59h0a.55.55,0,0,0-.23.38.42.42,0,0,0,.23.47.39.39,0,0,0,.3,0A.83.83,0,0,0,99.05,145.87ZM98.14,144s0,.12.08.16a1.9,1.9,0,0,0,.25.24h0l.16-.13a.32.32,0,0,0-.23-.58A.3.3,0,0,0,98.14,144Z"/><polygon class="cls-43" points="100.94 140.09 94.44 140.76 92.36 134.94 95.55 136.62 96.91 130.17 99.54 136.21 102.32 133.91 100.94 140.09"/><path class="cls-44" d="M104.9,142.67l-1.14.61-.08-.12a1.13,1.13,0,0,0-1.33-.44,1.19,1.19,0,0,0-.77.8,1.79,1.79,0,0,0-.06.89,1.46,1.46,0,0,0,.71,1,1.19,1.19,0,0,0,.79.13,1.15,1.15,0,0,0,.61-.26.89.89,0,0,0,.27-.65l-1,.11a.13.13,0,0,1,0-.06l-.09-.81s0-.07.06-.07l2.38-.26h.06c0,.13,0,.25,0,.37a3.23,3.23,0,0,1,0,.76,2.24,2.24,0,0,1-1,1.54,2.78,2.78,0,0,1-1.23.39,2.75,2.75,0,0,1-1.36-.18,2.29,2.29,0,0,1-1.14-1,2.73,2.73,0,0,1-.26-2,2.34,2.34,0,0,1,1.25-1.56,3.27,3.27,0,0,1,1.41-.32,2.34,2.34,0,0,1,1.26.34,2.52,2.52,0,0,1,.69.69A.56.56,0,0,1,104.9,142.67Z"/><path class="cls-45" d="M91.26,145.38c-.09-.77-.17-1.53-.26-2.3,0-.05,0-.07.07-.08l1.76-.19a2.38,2.38,0,0,1,2.14.83,2.17,2.17,0,0,1,.48,2.17,2.35,2.35,0,0,1-1.61,1.64,1.86,1.86,0,0,1-.47.09l-1.77.2c-.06,0-.08,0-.09-.06l-.15-1.39c0-.3-.07-.61-.1-.91Zm1.13-1.48.29,2.67a2.32,2.32,0,0,0,.81-.15A1.13,1.13,0,0,0,94,146a1.38,1.38,0,0,0,.15-1.26,1.23,1.23,0,0,0-.69-.77,1.57,1.57,0,0,0-.74-.1Z"/><path class="cls-46" d="M97.16,145l-.25-.25a.79.79,0,0,1,.06-1.19,1.46,1.46,0,0,1,1-.31,1.16,1.16,0,0,1,.63.18.72.72,0,0,1,.25,1,1.54,1.54,0,0,1-.47.48l-.06,0,.53.41.11-.39.74.14a2.25,2.25,0,0,1-.23.72l.44.23-.29.8-.51-.28c-.09-.05-.09-.06-.16,0a1.69,1.69,0,0,1-1.15.46,1.55,1.55,0,0,1-.7-.12,1,1,0,0,1-.55-1.24,1.38,1.38,0,0,1,.4-.53Zm1.25,1h0l-.77-.59h0a.57.57,0,0,0-.23.39.4.4,0,0,0,.22.46.42.42,0,0,0,.31,0A.89.89,0,0,0,98.41,146Zm-.91-1.88a.53.53,0,0,0,.08.17,2.84,2.84,0,0,0,.25.23s0,0,0,0l.16-.13a.33.33,0,0,0,.1-.39.34.34,0,0,0-.33-.18A.29.29,0,0,0,97.5,144.11Z"/><polygon class="cls-47" points="100.3 140.22 93.8 140.89 91.71 135.06 94.91 136.75 96.26 130.3 98.89 136.34 101.68 134.03 100.3 140.22"/></g></g></svg>