<svg xmlns="http://www.w3.org/2000/svg" xmlns:xlink="http://www.w3.org/1999/xlink" viewBox="0 0 243.35 408.79"><defs><style>.cls-1{fill:url(#Безымянный_градиент_1231);}.cls-2{fill:url(#Новый_образец_градиента_копия_2);}.cls-3{fill:url(#Безымянный_градиент_948);}.cls-4{fill:url(#Безымянный_градиент_786);}.cls-5{fill:url(#Новый_образец_градиента_копия_2-2);}.cls-6{fill:url(#Безымянный_градиент_948-2);}.cls-7{fill:url(#Безымянный_градиент_786-2);}.cls-8{fill:url(#Безымянный_градиент_873);}.cls-9{fill:url(#Безымянный_градиент_783);}.cls-10{fill:url(#Безымянный_градиент_159);}.cls-11{fill:url(#Безымянный_градиент_1231-2);}.cls-12{fill:url(#Безымянный_градиент_1231-3);}.cls-13{fill:url(#Безымянный_градиент_913);}.cls-14{fill:url(#Безымянный_градиент_3070);}.cls-15{fill:url(#Безымянный_градиент_3070-2);}.cls-16{fill:url(#Безымянный_градиент_3070-3);}.cls-17{fill:#a2b2bc;}.cls-18{fill:url(#Безымянный_градиент_1198);}.cls-19{fill:url(#Безымянный_градиент_25);}.cls-20{fill:url(#Безымянный_градиент_911);}.cls-21,.cls-30,.cls-31{opacity:0.5;}.cls-21{fill:url(#Безымянный_градиент_911-2);}.cls-22{fill:none;stroke:#283547;stroke-miterlimit:10;stroke-width:1.37px;}.cls-23{fill:url(#Новый_образец_градиента_копия_3);}.cls-24{fill:url(#Безымянный_градиент_3);}.cls-25{fill:url(#Безымянный_градиент_3-2);}.cls-26{fill:url(#Новый_образец_градиента_копия_2-3);}.cls-27{fill:url(#Новый_образец_градиента_копия_3-2);}.cls-28{fill:url(#Новый_образец_градиента_копия_3-3);}.cls-29{fill:url(#Новый_образец_градиента_копия_3-4);}.cls-30{fill:url(#Безымянный_градиент_911-3);}.cls-31{fill:url(#Безымянный_градиент_911-4);}.cls-32{fill:url(#Безымянный_градиент_948-3);}.cls-33{fill:url(#Безымянный_градиент_948-4);}.cls-34{fill:#0d131b;}.cls-35{fill:url(#Безымянный_градиент_948-5);}.cls-36{fill:url(#Безымянный_градиент_32);}.cls-37{fill:url(#Безымянный_градиент_32-2);}.cls-38{fill:url(#Безымянный_градиент_1226);}.cls-39{fill:url(#Безымянный_градиент_1226-2);}.cls-40{fill:url(#Безымянный_градиент_1226-3);}.cls-41{fill:url(#Безымянный_градиент_1226-4);}.cls-42{fill:url(#Безымянный_градиент_1226-5);}.cls-43{fill:url(#Безымянный_градиент_1226-6);}.cls-44{fill:url(#Новый_образец_градиента_копия_2-4);}.cls-45{fill:url(#Безымянный_градиент_159-2);}.cls-46{fill:url(#Безымянный_градиент_159-3);}.cls-47{fill:url(#Безымянный_градиент_1231-4);}.cls-48{fill:url(#Безымянный_градиент_1231-5);}.cls-49{fill:url(#Безымянный_градиент_914);}.cls-50{fill:url(#Безымянный_градиент_1231-6);}.cls-51{fill:url(#Безымянный_градиент_1231-7);}.cls-52{fill:url(#Безымянный_градиент_1231-8);}.cls-53{fill:url(#Безымянный_градиент_1231-9);}.cls-54{fill:url(#Безымянный_градиент_1231-10);}.cls-55{fill:url(#Безымянный_градиент_1231-11);}.cls-56{fill:url(#Новый_образец_градиента_копия_2-5);}</style><linearGradient id="Безымянный_градиент_1231" x1="88.76" y1="28.76" x2="92.56" y2="58.68" gradientUnits="userSpaceOnUse"><stop offset="0" stop-color="#c3d7f0"/><stop offset="1" stop-color="#8d99a7"/></linearGradient><linearGradient id="Новый_образец_градиента_копия_2" x1="75.72" y1="390.93" x2="83.48" y2="390.93" gradientUnits="userSpaceOnUse"><stop offset="0" stop-color="#5d7d91"/><stop offset="1" stop-color="#374b6b"/></linearGradient><linearGradient id="Безымянный_градиент_948" x1="41.86" y1="399.62" x2="83.78" y2="401.73" gradientUnits="userSpaceOnUse"><stop offset="0" stop-color="#535757"/><stop offset="1" stop-color="#0d131b"/></linearGradient><linearGradient id="Безымянный_градиент_786" x1="66.54" y1="201.6" x2="85.58" y2="368.01" gradientUnits="userSpaceOnUse"><stop offset="0.22" stop-color="#694538"/><stop offset="1" stop-color="#1c1007"/></linearGradient><linearGradient id="Новый_образец_градиента_копия_2-2" x1="137.56" y1="390.93" x2="145.32" y2="390.93" xlink:href="#Новый_образец_градиента_копия_2"/><linearGradient id="Безымянный_градиент_948-2" x1="103.69" y1="399.62" x2="145.62" y2="401.73" xlink:href="#Безымянный_градиент_948"/><linearGradient id="Безымянный_градиент_786-2" x1="104.63" y1="204" x2="151.1" y2="512.59" xlink:href="#Безымянный_градиент_786"/><linearGradient id="Безымянный_градиент_873" x1="98.5" y1="97.8" x2="102.25" y2="20.47" gradientUnits="userSpaceOnUse"><stop offset="0.37" stop-color="#fabb80"/><stop offset="0.83" stop-color="#faa16c"/></linearGradient><linearGradient id="Безымянный_градиент_783" x1="4483.66" y1="-553.77" x2="4478.5" y2="-543.35" gradientTransform="matrix(-1.12, 0.43, 0.36, 0.93, 5265.04, -1157.68)" gradientUnits="userSpaceOnUse"><stop offset="0.46" stop-color="#fabb80"/><stop offset="1" stop-color="#faa16c"/></linearGradient><linearGradient id="Безымянный_градиент_159" x1="4489.06" y1="-555.74" x2="4489.49" y2="-573.91" gradientTransform="matrix(-1.12, 0.43, 0.36, 0.93, 5265.04, -1157.68)" gradientUnits="userSpaceOnUse"><stop offset="0.64" stop-color="#ffd7a5"/><stop offset="1" stop-color="#faa96c"/></linearGradient><linearGradient id="Безымянный_градиент_1231-2" x1="23.79" y1="375.04" x2="23.79" y2="66.94" xlink:href="#Безымянный_градиент_1231"/><linearGradient id="Безымянный_градиент_1231-3" x1="22.2" y1="375.04" x2="22.2" y2="66.94" xlink:href="#Безымянный_градиент_1231"/><linearGradient id="Безымянный_градиент_913" x1="67.24" y1="232.49" x2="16.22" y2="275.39" gradientUnits="userSpaceOnUse"><stop offset="0.35" stop-color="#694538"/><stop offset="1" stop-color="#1c1007"/></linearGradient><linearGradient id="Безымянный_градиент_3070" x1="3220.45" y1="-394.8" x2="3220.45" y2="-301.3" gradientTransform="translate(-2455 2162.85) rotate(-28.99)" gradientUnits="userSpaceOnUse"><stop offset="0" stop-color="#5d7d91"/><stop offset="1" stop-color="#170f1f"/></linearGradient><linearGradient id="Безымянный_градиент_3070-2" x1="2570.53" y1="-366.56" x2="2569.78" y2="-312.27" gradientTransform="matrix(-0.87, 0.48, 0.48, 0.87, 2610.27, -643.53)" xlink:href="#Безымянный_градиент_3070"/><linearGradient id="Безымянный_градиент_3070-3" x1="3220.34" y1="-355.32" x2="3220.54" y2="-341.44" gradientTransform="translate(-3027.06 645.71)" xlink:href="#Безымянный_градиент_3070"/><linearGradient id="Безымянный_градиент_1198" x1="55.41" y1="19.37" x2="159.58" y2="231.13" gradientUnits="userSpaceOnUse"><stop offset="0" stop-color="#b3e571"/><stop offset="0.99" stop-color="#4b8b41"/></linearGradient><radialGradient id="Безымянный_градиент_25" cx="95.03" cy="222.19" r="40.39" xlink:href="#Безымянный_градиент_948"/><linearGradient id="Безымянный_градиент_911" x1="65.72" y1="83.92" x2="106.78" y2="36.73" gradientUnits="userSpaceOnUse"><stop offset="0" stop-color="#7b885d"/><stop offset="0.99" stop-color="#556f43"/></linearGradient><linearGradient id="Безымянный_градиент_911-2" x1="76.16" y1="101.98" x2="69.32" y2="209.86" xlink:href="#Безымянный_градиент_911"/><linearGradient id="Новый_образец_градиента_копия_3" x1="74.49" y1="131.84" x2="73.08" y2="156.05" gradientUnits="userSpaceOnUse"><stop offset="0" stop-color="#ddf5f5"/><stop offset="1" stop-color="#c6d9db"/></linearGradient><linearGradient id="Безымянный_градиент_3" x1="58.22" y1="139.23" x2="88.48" y2="143.79" gradientUnits="userSpaceOnUse"><stop offset="0.33" stop-color="#faf8eb"/><stop offset="0.57" stop-color="#f3efde"/><stop offset="0.96" stop-color="#e3dac1"/></linearGradient><linearGradient id="Безымянный_градиент_3-2" x1="60.87" y1="142.76" x2="63.96" y2="157.43" xlink:href="#Безымянный_градиент_3"/><linearGradient id="Новый_образец_градиента_копия_2-3" x1="73.37" y1="140.42" x2="74.48" y2="132.76" xlink:href="#Новый_образец_градиента_копия_2"/><linearGradient id="Новый_образец_градиента_копия_3-2" x1="111.11" y1="49.53" x2="118.09" y2="66.74" xlink:href="#Новый_образец_градиента_копия_3"/><linearGradient id="Новый_образец_градиента_копия_3-3" x1="74.17" y1="52.13" x2="63.39" y2="64.87" xlink:href="#Новый_образец_градиента_копия_3"/><linearGradient id="Новый_образец_градиента_копия_3-4" x1="91.54" y1="65.51" x2="90.67" y2="76.3" xlink:href="#Новый_образец_градиента_копия_3"/><linearGradient id="Безымянный_градиент_911-3" x1="114.92" y1="104.44" x2="108.08" y2="212.32" xlink:href="#Безымянный_градиент_911"/><linearGradient id="Безымянный_градиент_911-4" x1="41.73" y1="99.8" x2="34.89" y2="207.68" xlink:href="#Безымянный_градиент_911"/><linearGradient id="Безымянный_градиент_948-3" x1="92.16" y1="205.07" x2="92.33" y2="251.42" xlink:href="#Безымянный_градиент_948"/><linearGradient id="Безымянный_градиент_948-4" x1="92.95" y1="226.9" x2="91.11" y2="207.39" xlink:href="#Безымянный_градиент_948"/><linearGradient id="Безымянный_градиент_948-5" x1="92.19" y1="217.67" x2="91.36" y2="250.6" xlink:href="#Безымянный_градиент_948"/><linearGradient id="Безымянный_градиент_32" x1="73.41" y1="220.14" x2="110.67" y2="220.14" gradientUnits="userSpaceOnUse"><stop offset="0" stop-color="#9799a1"/><stop offset="1" stop-color="#c6d9db"/></linearGradient><linearGradient id="Безымянный_градиент_32-2" x1="109.95" y1="230" x2="109.78" y2="218.89" xlink:href="#Безымянный_градиент_32"/><linearGradient id="Безымянный_градиент_1226" x1="150.02" y1="37.78" x2="194.7" y2="115.15" gradientUnits="userSpaceOnUse"><stop offset="0" stop-color="#c3d7f0"/><stop offset="0.57" stop-color="#8d99a7"/></linearGradient><linearGradient id="Безымянный_градиент_1226-2" x1="140.82" y1="64.52" x2="181.55" y2="135.07" xlink:href="#Безымянный_градиент_1226"/><linearGradient id="Безымянный_градиент_1226-3" x1="133.98" y1="90.66" x2="168.73" y2="150.83" xlink:href="#Безымянный_градиент_1226"/><linearGradient id="Безымянный_градиент_1226-4" x1="133.05" y1="116.95" x2="166.66" y2="175.16" xlink:href="#Безымянный_градиент_1226"/><linearGradient id="Безымянный_градиент_1226-5" x1="131.71" y1="146.41" x2="162.59" y2="199.9" xlink:href="#Безымянный_градиент_1226"/><linearGradient id="Безымянный_градиент_1226-6" x1="128.1" y1="177.8" x2="154.36" y2="223.27" xlink:href="#Безымянный_градиент_1226"/><linearGradient id="Новый_образец_градиента_копия_2-4" x1="132.7" y1="15.78" x2="114.69" y2="204.51" xlink:href="#Новый_образец_градиента_копия_2"/><linearGradient id="Безымянный_градиент_159-2" x1="331.5" y1="2110.72" x2="325.13" y2="2123.6" gradientTransform="matrix(1.19, 0.13, -0.11, 0.99, 10.54, -1898.69)" xlink:href="#Безымянный_градиент_159"/><linearGradient id="Безымянный_градиент_159-3" x1="338.17" y1="2108.29" x2="338.7" y2="2085.84" gradientTransform="matrix(1.19, 0.13, -0.11, 0.99, 10.54, -1898.69)" xlink:href="#Безымянный_градиент_159"/><linearGradient id="Безымянный_градиент_1231-4" x1="184.36" y1="42.94" x2="199.02" y2="231.65" xlink:href="#Безымянный_градиент_1231"/><linearGradient id="Безымянный_градиент_1231-5" x1="177.86" y1="266.95" x2="265.87" y2="133.29" gradientTransform="translate(-98.7 96.08) rotate(-28.99)" xlink:href="#Безымянный_градиент_1231"/><linearGradient id="Безымянный_градиент_914" x1="122.57" y1="241.96" x2="167.35" y2="289.38" gradientUnits="userSpaceOnUse"><stop offset="0.17" stop-color="#694538"/><stop offset="0.38" stop-color="#57382c"/><stop offset="0.79" stop-color="#27180e"/><stop offset="0.88" stop-color="#1c1007"/></linearGradient><linearGradient id="Безымянный_градиент_1231-6" x1="7680.02" y1="46.39" x2="7686.84" y2="100.02" gradientTransform="matrix(-1, 0, 0, 1, 7721.54, 0)" xlink:href="#Безымянный_градиент_1231"/><linearGradient id="Безымянный_градиент_1231-7" x1="7686.66" y1="68.75" x2="7694.51" y2="130.51" gradientTransform="matrix(-1, 0, 0, 1, 7721.54, 0)" xlink:href="#Безымянный_градиент_1231"/><linearGradient id="Безымянный_градиент_1231-8" x1="7688.05" y1="96.27" x2="7694.91" y2="150.27" gradientTransform="matrix(-1, 0, 0, 1, 7721.54, 0)" xlink:href="#Безымянный_градиент_1231"/><linearGradient id="Безымянный_градиент_1231-9" x1="7688.06" y1="122.99" x2="7694.46" y2="173.38" gradientTransform="matrix(-1, 0, 0, 1, 7721.54, 0)" xlink:href="#Безымянный_градиент_1231"/><linearGradient id="Безымянный_градиент_1231-10" x1="7685.86" y1="151.73" x2="7691.35" y2="194.93" gradientTransform="matrix(-1, 0, 0, 1, 7721.54, 0)" xlink:href="#Безымянный_градиент_1231"/><linearGradient id="Безымянный_градиент_1231-11" x1="7684.11" y1="180.44" x2="7688.96" y2="218.62" gradientTransform="matrix(-1, 0, 0, 1, 7721.54, 0)" xlink:href="#Безымянный_градиент_1231"/><linearGradient id="Новый_образец_градиента_копия_2-5" x1="60.47" y1="8.89" x2="42.47" y2="197.62" xlink:href="#Новый_образец_градиента_копия_2"/></defs><g id="Слой_2" data-name="Слой 2"><g id="Слой_2-2" data-name="Слой 2"><path class="cls-1" d="M34.88,51.6c-4.35,8.08,109.9-11.85,111-21.08C147.2,19.61,56,12.52,34.88,51.6Z"/><polygon class="cls-2" points="75.72 384.75 75.72 396.44 81.91 397.11 83.48 384.75 75.72 384.75"/><path class="cls-3" d="M84,393.68l3.2,15.11H78.4l-.62-2.06-11.66,2.06s-19.25,0-24.75-4.12a5.34,5.34,0,0,1,1.07-2.75c5.8,0,23.66-1.37,29.85-7.56C74.35,394.36,79.84,397.8,84,393.68Z"/><path class="cls-4" d="M38.62,215c-2.75,48.86,15.8,93.65,17.86,104.24s17.18,55.38,17.18,70c5.5,1.63,10.5.81,11.43,0,4.62-24.43,9.87-48.05,2.31-57-.69-17.91,11-88.77,14.43-103.43C81.91,219.08,48.93,210.12,38.62,215Z"/><polygon class="cls-5" points="137.56 384.75 137.56 396.44 143.74 397.11 145.32 384.75 137.56 384.75"/><path class="cls-6" d="M145.8,393.68l3.2,15.11h-8.77l-.61-2.06L128,408.79s-19.25,0-24.75-4.12a5.34,5.34,0,0,1,1.07-2.75c5.8,0,23.67-1.37,29.85-7.56C136.18,394.36,141.68,397.8,145.8,393.68Z"/><path class="cls-7" d="M149.24,210.94c13,26.87-.86,97.72-3.18,120.53,7,4.88,9.2,14.91,0,58.76-2.58,2.19-11.25-.94-11.94-2.57-.69-29.32-20.73-80-25.42-91.21s-48.78-41.54-46-75.74C103.89,210.12,149.24,210.94,149.24,210.94Z"/><path class="cls-8" d="M131.37,0s-.68,31.6,1.38,41.22c-2.06,39.85-40.2,60.35-52.22,56.34-20.61-6.87-8.93-68-4.81-79S131.37,0,131.37,0Z"/><path class="cls-9" d="M48.67,230.61c-2.12-.67,4.62,12.58,7.42,12S63.23,235.19,48.67,230.61Z"/><path class="cls-10" d="M25.4,191.87c7.4,13.84,18,34.21,18,34.21,7.35,4.34,12.67,7.08,11.79,10.39s5.72,15.07,1.17,16.2-11.54-1-11.54-1c-.23,1.94-2.52,3.4-3.94,1.56S31,242.1,30.58,239.26s3.11-13,2.92-14.18c-1.56-5.37-15.44-30.42-15.44-30.42Z"/><path class="cls-11" d="M31.75,60.46c-13.7,9.78-33.66,38-31.6,87.25C1.52,180.69,34,177.16,34.5,145S65.43,36.43,31.75,60.46Z"/><path class="cls-12" d="M2.53,170c3.24,23.34,18.6,54.54,27.85,61.52a31.46,31.46,0,0,0,12-7.76C40,194.15,39.22,174.18,29.6,162.7S-1.34,142.1,2.53,170Z"/><path class="cls-13" d="M50.3,225.35c.69,5.5-7.56,22-13.74,24.73,4.81,8.94,6.89,21.13,6.89,21.13C55.11,269.32,74.35,244.59,50.3,225.35Z"/><path class="cls-14" d="M169.18,254.13a50,50,0,1,0,67.91,19.48A50,50,0,0,0,169.18,254.13Zm43.28,78.11a40.46,40.46,0,1,1,15.78-55A40.47,40.47,0,0,1,212.46,332.24Z"/><path class="cls-15" d="M186.31,284.93c11.48-6.36,33-7.31,36.85-15,4.54-2.71,12.78,10.08,6.59,10.15-5-2.68-10.54,3.75-12,16.05-1.37,11.43,9.6,12.76,14.88,8.45,5,2.12,1.11,15.25-4.86,12.81-1.27-6.33-12.7-1.91-21.73,3.1l-.1.05c-9,5-18.85,12.35-14.15,16.78-1.1,6.36-14.31,2.71-13.44-2.66,6.46-2.2,11.14-12.21.73-17.1-11.22-5.27-19.59-4-20,1.67-3.34,5.22-9.82-8.55-5.11-11,8.57.78,20.78-16.94,32.25-23.29"/><ellipse class="cls-16" cx="193.39" cy="297.82" rx="8.37" ry="6.42" transform="translate(-120.11 131.03) rotate(-28.99)"/><path class="cls-17" d="M99.77,62.52,87.4,70.08,81.58,87.71,78.21,70.17,69.54,57.71S49.61,92.75,80.19,101C100,106.41,121.07,78.32,99.77,62.52Z"/><path class="cls-18" d="M131.85,27.21c-38.94,81-72.31,81-59.95,8C36.67,58.73,31.75,60.46,31.75,60.46,15.36,90.33,17.38,166.8,42.06,219.85c-2.06,10.31,77,25.21,107.86-1.37,5.5-83.82,18.82-127.7,40.93-152.43C161.84,41.52,141.74,33.39,131.85,27.21Z"/><path class="cls-19" d="M39.31,213.67c12,7.6,61.44,25.57,111.45-4-.3,4.67-.84,8.86-.84,8.86-15.11,17.18-77.63,24.05-107.86,4.12A43.42,43.42,0,0,0,39.31,213.67Z"/><path class="cls-20" d="M139.62,30.92c-2-1.09-6.26-2.76-7.77-3.71-38.94,81-72.31,81-59.95,8L64.69,40C48.89,113.42,96.33,121.61,139.62,30.92Z"/><path class="cls-21" d="M77.15,105.93S53.77,150.19,50.43,155.2C53.77,171.06,73,205.3,73,205.3c4.17-12.53,22.13-49.7,22.13-49.7C89.68,144.34,78,113.45,77.15,105.93Z"/><path class="cls-22" d="M123.81,37.51s-44,97.15-49.46,96.46-4.12-92.75-4.12-92.75"/><path class="cls-23" d="M57.17,137.41c10.31-.69,28.86,0,33,.69,2.06,5.49-.69,22-.69,22-2.75,1.38-31.6-1.37-33-2.06C55.8,154.59,56.48,141.53,57.17,137.41Z"/><path class="cls-24" d="M58.55,139.47c5.49-.69,26.79-.69,29.54.69V144c-4.12-.41-28.86-.83-29.54-1Z"/><path class="cls-25" d="M59,155.62s-.55-7.93,0-10.43c1.53,0,5.78-.22,7.15.46.69,3.44,0,8.94-.68,10.31C64,156,59.36,155.27,59,155.62Z"/><path class="cls-26" d="M73.56,140.27c1.47-2.17,2.85-7.67.79-7.67S72.77,139,73.56,140.27Z"/><path class="cls-27" d="M131.37,22c-2.75,7.55-37.1,44-44,48.09,8.25-3.44,11.68-7.56,26.11,10.3C118.32,68,134,32.74,134.41,28.74,133.14,23.48,131.37,22,131.37,22Z"/><path class="cls-28" d="M78.21,70.17,71.6,33l-3.44,3.43-11,36.42C69.54,62.52,73.66,63.21,78.21,70.17Z"/><circle class="cls-29" cx="90.84" cy="74.2" r="2.75"/><path class="cls-30" d="M115.14,132l-14.33,23.91,10.58,22.7s10.26-20.36,11-21.58S115.72,137,115.14,132Z"/><path class="cls-31" d="M45.42,153.53c-.83,4.17-6.68,17.53-7.51,20.87-2.51-4.17-6.68-20.87-6.68-20.87l7.09-17.91Z"/><path class="cls-32" d="M70.79,214.85c6.53.65,30.25,1.48,42.23-1.22,2.4,8.32,5,25.52,0,29s-37.06,3.92-41.57.91C65.57,239.67,70.79,214.85,70.79,214.85Z"/><path class="cls-33" d="M73.41,219.42l-2.62-4.57s37.5-.35,41.93-1.15c-.92,2.31-2.09,5.07-2.09,5.07C104.1,221.38,78,222,73.41,219.42Z"/><path class="cls-34" d="M73.41,219.57c8.49,3.7,33.3,3.08,37.22-.62C98.22,215.87,77.32,218.34,73.41,219.57Z"/><path class="cls-35" d="M110,241c-2,3.27-33.3,4.57-36.56.65-1.68-2-.66-18.28,0-22.2,2.61.66,26.12,2.61,37.22-.65C111.28,222,111.65,238.17,110,241Z"/><path class="cls-36" d="M91.94,221.51a111.73,111.73,0,0,1-18-1.19.64.64,0,0,1-.52-.76.65.65,0,0,1,.76-.52c8.17,1.55,28.36,1.68,35.67-.25a.66.66,0,0,1,.8.47.65.65,0,0,1-.47.79C106.38,221.06,99.18,221.51,91.94,221.51Z"/><path class="cls-37" d="M109.91,219.44c-1.24,0-2.36,8.66-1.89,9.12.65.66,3.91,1.31,3.91,0S111.14,219.45,109.91,219.44Z"/><path class="cls-38" d="M192.91,66.56C192.11,60,155,29,139.36,25.48c-1.31,9.05-2,16.71-6.53,28.55C140,61,175.54,82,179,84S194.86,82.57,192.91,66.56Z"/><path class="cls-39" d="M133.48,51.94c5.23,0,41.14,27.84,45.71,31.32s3.09,24.7-10.86,23.49S122.44,87,123.81,82.48C127.61,70,131.52,59.59,133.48,51.94Z"/><path class="cls-40" d="M170.7,103.45c4.47,3.57,4.57,17.41-3.91,19.49s-49.49-1.86-48.33-8.35c2.62-14.62,3.27-25.06,5.88-32.72C129.56,81.87,168.09,101.36,170.7,103.45Z"/><path class="cls-41" d="M165.66,120.4c-9.3-1.75-38.37-9.15-46.54-9.29-1.31,10.44-3.27,19.49-3.36,31.79-.08,11.09,49.05,5.19,52.5,3.62C172.66,144.53,174.33,122,165.66,120.4Z"/><path class="cls-42" d="M116.5,142.44c-.65,8.35-2,18.79-3.91,35.5,9.79,2.09,42.44.7,46.36-1.39s14.78-31.37,8-32.05S116.5,142.44,116.5,142.44Z"/><path class="cls-43" d="M158.27,174.37c5.38.36,3.39,22.62-3.52,27s-39.93,8.78-42,7.29c-.92-7.87.38-32.31.12-32.92C128,173.86,156.93,174.28,158.27,174.37Z"/><path class="cls-44" d="M138.71,28.75c-2.62,26.77-15,53.54-20.9,96.64-2.38,17.48-3.65,75.15-5.09,83.29-3.53-28.14.73-76.5,4.87-99.48S136.75,34.62,138.71,28.75Z"/><path class="cls-45" d="M176.8,241.21c2.33-1.46-1.6,16.48-5.12,16.72S160.82,251.23,176.8,241.21Z"/><path class="cls-46" d="M192.53,187.62c-4.52,18.86-10.83,46.51-10.83,46.51-7.43,7.49-12.93,12.43-10.84,16.11s-2.14,19.81,3.66,19.74S188,265.15,188,265.15c.88,2.24,4.08,3.28,5.19.63s8.4-16.37,7.95-19.87-7.8-14.64-7.92-16c.19-6.91,9-41.2,9-41.2Z"/><path class="cls-47" d="M192.91,66.62c13.9,10,26.7,43.41,18.05,92.85s-32.88,17.63-40.62-14.21C160.92,106.49,176.58,54.87,192.91,66.62Z"/><path class="cls-48" d="M213.35,167.12c3.63,22.79-9.1,60.4-15.77,69.58-11.55,3.26-20.72-3.87-20.72-3.87-6.24-28.41-11.31-59.41-5.59-72.92S209,139.88,213.35,167.12Z"/><path class="cls-49" d="M123.13,231.53c2.06,12.37,20.65,16.67,28.87,16.58C138.22,278.85,99.77,271.38,123.13,231.53Z"/><path class="cls-50" d="M24.43,62.05C29.66,54.21,46,42.5,61.65,39.2c-3.26,5.22-9.14,12.4-8.48,21.89C46,67.71,25.28,76.44,21.82,78.38S15.92,74.81,24.43,62.05Z"/><path class="cls-51" d="M52.52,59.76c-5.23,0-26.78,13.35-31.35,16.66s-10.45,30-2,30.69c13.95,1.07,27.52-14.46,28.08-18.94C48.59,77.72,51.86,67.93,52.52,59.76Z"/><path class="cls-52" d="M19.87,106.1c-4.46,3.39-7.84,21.76.65,23.74S46.3,124.91,46,118.64a142.39,142.39,0,0,1,1.3-30.44C42.07,88.2,22.48,104.11,19.87,106.1Z"/><path class="cls-53" d="M21.65,127.42c9.31-4.64,15.52-12,23.69-12.09,0,9.41-.1,18,0,29.65.08,10.54-20.22,10.71-23.67,9.23C17.26,152.31,13.77,131.35,21.65,127.42Z"/><path class="cls-54" d="M45.34,145.1C46,153,46,161,48,176.88c-9.8,2-18.94,3.27-22.86,1.28s-9.8-22.08-2.16-25.87C29,149.27,45.34,145.1,45.34,145.1Z"/><path class="cls-55" d="M25.77,176.1c-5.38.34-2.36,22.16,4.54,26.34s16.19,4,18.28,2.62c.93-7.48-1.15-29.68-.9-30.26C32.53,173,27.11,176,25.77,176.1Z"/><path class="cls-56" d="M63.16,35.37c-13.91,28-14.57,60-15.87,83.49s3.63,70.72,1.49,83.68C43.84,144.23,42.15,127,45.33,96,47.94,70.54,51,52.45,63.16,35.37Z"/></g></g></svg>