<svg xmlns="http://www.w3.org/2000/svg" xmlns:xlink="http://www.w3.org/1999/xlink" width="170.82" height="499.337" ><defs><linearGradient id="A" x1="397.663" y1="-23.134" x2="397.679" y2="-23.403"><stop offset=".641" stop-color="#ffd7a5"/><stop offset="1" stop-color="#faa96c"/></linearGradient><linearGradient id="B" x1=".006" y1="1.473" x2=".352" y2=".78"><stop offset="0" stop-color="#6d515b"/><stop offset="1" stop-color="#1b2139"/></linearGradient><linearGradient id="C" x1=".342" y1=".808" x2=".863" y2=".037" xlink:href="#B"/><linearGradient id="D" x1=".437" y1=".888" x2=".545" y2=".484"><stop offset=".04" stop-color="#fabb80"/><stop offset="1" stop-color="#faa16c"/></linearGradient><radialGradient id="E" cx=".232" cy=".849" r=".92" gradientTransform="translate(0.204) scale(0.591 1)"><stop offset="0" stop-color="#dd3461"/><stop offset=".262" stop-color="#cc3153"/><stop offset=".778" stop-color="#a02b31"/><stop offset=".888" stop-color="#962a2a"/></radialGradient><linearGradient id="F" x1=".481" y1=".758" x2=".548" y2=".375"><stop offset=".464" stop-color="#fabb80"/><stop offset="1" stop-color="#faa16c"/></linearGradient><radialGradient id="G" xlink:href="#E"/><linearGradient id="H" x1=".318" y1="-.107" x2=".76" y2="1.024"><stop offset="0" stop-color="#9f85df"/><stop offset=".671" stop-color="#7b3f79"/></linearGradient><radialGradient id="I" cx=".473" cy=".1" r=".964" gradientTransform="matrix(0.022, 0.998, -0.522, 0.121, 0.515, -0.384)"><stop offset="0" stop-color="#9f85df"/><stop offset=".826" stop-color="#7b3f79"/></radialGradient><clipPath id="J"><path d="M449.071 592.635c3.12-37.44.78-53.04 1.427-68.072 10.274-41.129 14.953-48.149 15.733-59.07s-24.96-38.219-44.809-53.82c0 0-33.174-9.36-58.947-2.341-15.045 51.848 6.149 154.352 17.328 183.31l-.005-.009c-15.893 14.821-23.045 26.162-39.285 22.83 14.317 22.98 40.819 16.7 45.049 13.316 17.818 18.969 42.2 7.545 53.369 5.194 14.821-3.12 37.441 11.7 55.381-29.64-18.721 2.341-28.861-1.559-45.241-11.698z" transform="translate(-340.512 -406.723)" fill="none"/></clipPath><linearGradient id="K" x1=".458" y1="-.178" x2=".572" y2=".811" xlink:href="#B"/><linearGradient id="L" x1=".478" y1=".89" x2=".571" y2=".091" xlink:href="#F"/><radialGradient id="M" cx=".274" cy=".825" r="1.343" gradientTransform="matrix(0.987, 0.005, -0.003, 0.532, 0.006, 0.384)"><stop offset="0" stop-color="#f3dde9"/><stop offset=".675" stop-color="#93a3b7"/></radialGradient><linearGradient id="N" x1=".381" y1=".075" x2=".516" y2=".839" xlink:href="#B"/><linearGradient id="O" x1=".635" y1="-.514" x2=".351" y2="1.62"><stop offset="0" stop-color="#bb9bb7"/><stop offset=".671" stop-color="#7b3f3f"/></linearGradient><linearGradient id="P" x1="1.012" y1="-.661" x2=".059" y2="1.499" xlink:href="#O"/><linearGradient id="Q" x1=".516" y1="-.757" x2=".49" y2="1.286" xlink:href="#O"/><linearGradient id="R" x1=".403" y1=".083" x2=".654" y2=".84" xlink:href="#B"/><linearGradient id="S" x1=".366" y1=".166" x2=".545" y2=".612" xlink:href="#B"/><linearGradient id="T" x1=".312" y1="-.09" x2=".576" y2=".681" xlink:href="#B"/></defs><g transform="translate(-47.472 -162.176)"><path d="M47.472 660.208z" fill="#b4c8ef"/><path d="M75.907 374.157c6.675 16.61 6.849 27.74 6.849 27.74 6.968 5.958 11.731 11.87 10.76 15.447s-2.589 18.011-7.044 18.61-7.269-5.366-7.269-5.366c-.293 2.135-5.269-1.5-6.973-3.493-2.06-2.463-3.279-5.52-3.481-8.724-.252-3.231 4.61-17.762 4.469-19.054l-4.52-23.123z" fill="url(#A)"/><path d="M89.361 242.718c-24.762 6.721-41.6 93.052-18.947 94.776 16.332 1.243 28.014-97.236 18.947-94.776z" fill="url(#B)"/><path d="M60.421 335.168c-.325 14.836.312 39.168 9.671 64.909 3.251-.158 9.361-.781 11.7-2.341.78-24.18.151-57.938-1.277-69.643-1.927-15.797-19.459-21.82-20.094 7.075z" fill="url(#C)"/><path d="M120.793 497.576c8.687 26.883 21.519 31.476 19.647 51.814s-15.348 73.575-16.021 82.836c5.676 11.5 7.693 10.975 0 15.968s-16.87 11.55-35.291 8.662c14.638-8.9 28.38-25.51 28.38-25.51-1.561-36.66-12.315-125.97-12.315-125.97z" fill="url(#D)"/><path d="M133.339 660.597c-1.013-9.749-3.966-33.54-5.526-34.319-9.361 1.559-10.141.78-17.161-.78-7.019 17.939-10.139 17.939-18.04 29.086-6.37.325-18.62 2.426-18.62 2.426v3.587h39.431l8.365-10.646-1.2 10.646z" fill="url(#E)"/><path d="M154.333 497.576c8.689 26.883 21.521 31.476 19.647 51.814s-15.347 73.575-16.019 82.836c5.674 11.5 7.691 10.975 0 15.968s-16.87 11.55-35.291 8.662c14.637-8.9 28.378-25.51 28.378-25.51-1.559-36.66-12.315-125.97-12.315-125.97z" fill="url(#F)"/><path d="M166.878 660.597c-1.011-9.749-3.966-33.54-5.526-34.319-9.359 1.559-10.139.78-17.16-.78-7.021 17.939-10.141 17.939-18.041 29.086-6.37.325-18.619 2.426-18.619 2.426v3.587h39.431l8.364-10.646-1.2 10.646z" fill="url(#G)"/><path d="M145.403 329.096c19.849 15.6 45.589 42.9 44.809 53.82s-5.459 17.941-15.733 59.07c.133 15.811.133 28.291-1.427 68.072-33.017 25.2-57.291 27.062-68.036 3s-34.178-132.482-18.561-186.3c25.774-7.022 58.948 2.338 58.948 2.338z" fill="url(#H)"/><path d="M218.292 521.757c-18.719 2.339-28.86-1.561-45.24-11.7-8.58 6.239-51.967 24.96-69.274 0-15.893 14.821-23.045 26.162-39.285 22.83 14.317 22.98 40.819 16.7 45.049 13.316 17.818 18.969 42.2 7.545 53.369 5.194 14.821-3.121 37.442 11.7 55.381-29.64z" fill="url(#I)"/><g clip-path="url(#J)" transform="translate(64.494 324.145)"><g opacity=".4" fill="#211c20"><path d="M7.286 220.623v-3.9c19.7 0 31.773-11.913 41.44-21.839-.7-2.993-1.976-7.191-3.543-12.359-9.058-29.895-27.906-92.1-19.093-180.108l3.88.39c-8.735 87.233 9.962 148.935 18.947 178.586 1.777 5.868 3.182 10.5 3.851 13.694l.213 1.016-.723.744c-10.304 10.591-23.126 23.776-44.972 23.776zm34.411 8.176l-2.349-3.112c8.122-6.13 16.571-19.279 19.323-27.592-20.042-77.271-20.035-120.844-20.025-171.27l-.073-24.2 3.9-.036.073 24.233c-.01 50.279-.019 93.7 20.04 170.835l.14.538-.163.529c-2.74 8.847-11.982 23.371-20.866 30.075zm33.97 8.64l-3.869-.49c.289-2.291 2.741-22.786.039-38.367-6.476-19.361-10.68-74.769-14.393-123.665l-6.745-75 3.863-.526c2.4 17.624 4.523 45.606 6.772 75.23 3.7 48.791 7.9 104.092 14.247 122.855l.073.288c2.839 16.162.311 37.316.013 39.675zm25.192-5.118c-12.133-5.189-15.4-25.213-16.264-36.687l-.014-.175.019-.174c.958-9.262-5.778-62.9-7.957-70.782-.729-2.639-.827-9.637-.977-20.231-.373-26.354-1-70.464-11.745-103.761l3.713-1.2C78.56 33.167 79.19 77.643 79.566 104.216c.134 9.548.242 17.092.838 19.247 2.359 8.541 8.993 61.9 8.093 72.042 1.379 17.934 6.44 30.04 13.895 33.228zm29.755-1.737c-14.671-.625-30.983-18.133-35.622-38.231l-.09-.4.075-.4c2.649-14.056-.267-50.231-3.527-64.085-2.56-10.88-.087-23.669 2.777-38.478l2.288-12.26c3.359-19.356-2.95-42.514-19.284-70.8l3.377-1.951c16.811 29.112 23.271 53.127 19.749 73.42l-2.3 12.333c-2.778 14.37-5.179 26.78-2.811 36.846 2.965 12.6 6.4 49.678 3.638 65.287 4.39 18.367 18.925 34.273 31.9 34.825zm14.524-16.32c-11.031 0-29.946-7.535-38.139-16.652-3.817-4.247-5.671-6.729-5.054-9.176 3.3-13.111 2.043-55.936-.031-68.014-2.062-12.014 6.523-46.518 11.607-59.208 4.281-10.689-11.2-25.843-23.564-48.663l2.616-2.891c18.326 32.729 30.157 39.052 24.568 53-4.884 12.191-13.234 46.314-11.384 57.1 1.932 11.258 4.121 53.178.46 67.709-.567 2.252.948 3.823 3.12 6.241 7.848 8.733 29.428 17.75 38.214 16.506l.545 3.863c-.981.129-1.969.191-2.958.185z"/></g></g><g transform="translate(65.719 162.176)"><path d="M64.433 25.74c15.594-.918 38.539 6.025 45.4 11.2-5.778 16.6-24.488 38.669-24.488 38.669l-41.971-1.51-7.02-42.9c4.679-2.339 14.82-4.679 28.079-5.459z" fill="url(#K)"/><path d="M79.254 0c-5.459 12.48-5.459 35.879-5.459 40.56s18.64 26.062 18.64 26.062c-5.378 23.857-35.8 57.4-60.758 55.837s-9.36-49.92 22.122-78.068l.5-32.693z" fill="url(#L)"/><path d="M40.173 101.513c-3.839 6.791-8.05 21.012-8.692 26.056" fill="none" stroke="#db9a6a" stroke-linecap="round" stroke-miterlimit="10" stroke-width=".916"/><path d="M91.281 65.288c19.626 20.743 24.633 24.412 22.292 40.012s-17.939 55.379-29.639 63.179-30.419 4.681-38.219 3.9-20.28 9.361-43.68-15.6c3.12-12.48 8.682-26.489 10.921-34.319 3.119-10.921-1.561-29.64 6.239-39.78a181.31 181.31 0 0 1 17.941-19.5c-35.102 67.08 7.797 86.58 54.145 2.108z" fill="url(#M)"/><path d="M86.988 56.36c-10.008 23-39.714 84.821-36.594 101.2 2.822 14.824 12.08 50.691 22.81 69.8 10.539 1.57 40.851 1.175 55.822-12.865-9.841-14.041-37.457-37.739-36.594-50.069s30.787-49.191 21.674-72.491A83.02 83.02 0 0 0 86.988 56.36z" fill="url(#N)"/><ellipse cx="5.85" cy="5.07" rx="5.85" ry="5.07" transform="matrix(.339428 -.940632 .940632 .339428 58.849 130.532)" fill="url(#O)"/><ellipse cx="5.85" cy="5.07" rx="5.85" ry="5.07" transform="matrix(.043846 -.999038 .999038 .043846 53.329 162.701)" fill="url(#P)"/><ellipse cx="5.07" cy="5.85" rx="5.07" ry="5.85" transform="matrix(.866025 -.5 .5 .866025 61.479 190.419)" fill="url(#Q)"/><path d="M40.169 58.968C29.41 66.612 16.849 79.56 14.51 92.039s.315 18.554-1.793 26.437S-2.65 152.876.469 157.56s15.939 10.2 14.821 17.16-12.315 44.212-12.315 44.212c11.535 5.708 20.895 4.149 20.895 4.149 1.561-15.6 8-43.73 4.78-49.555s-14.582-17.243-13.36-24.544 9.201-66.145 24.879-90.014z" fill="url(#R)"/><path d="M66.398 103.075c4.276-14.936 4.658-38.284 4.077-41.82 8.978-3.953 34.057-8.432 39.358-24.315-5 17.376-14.979 26.238-14.979 26.238-4.315 13.625-21.813 35.332-28.456 39.897z" fill="url(#S)"/><path d="M36.353 31.194l4.421 27.013c-6.76 11.208-13.535 30.809-14.827 37 .267-25.791-13.341-31.442-16.892-31.252 3.899-10.915 14.038-25.736 27.298-32.761z" fill="url(#T)"/></g></g></svg>
