<svg xmlns="http://www.w3.org/2000/svg" xmlns:xlink="http://www.w3.org/1999/xlink" viewBox="0 0 168.26 488.73"><defs><style>.cls-1,.cls-14{fill:none;}.cls-2{fill:url(#Безымянный_градиент_1700);}.cls-3{fill:url(#Безымянный_градиент_1785);}.cls-4{fill:url(#Безымянный_градиент_873);}.cls-5{fill:url(#Безымянный_градиент_322);}.cls-6{fill:url(#Безымянный_градиент_1724);}.cls-7{fill:url(#Безымянный_градиент_1724-2);}.cls-8{fill:url(#Безымянный_градиент_1578);}.cls-9{fill:url(#Безымянный_градиент_322-2);}.cls-10{fill:url(#Безымянный_градиент_1724-3);}.cls-11{fill:url(#Безымянный_градиент_1724-4);}.cls-12{fill:url(#Безымянный_градиент_1578-2);}.cls-13{fill:url(#Безымянный_градиент_1300);}.cls-14{stroke-miterlimit:10;stroke-width:1.31px;stroke:url(#Безымянный_градиент_1490);}.cls-15{fill:url(#Безымянный_градиент_1300-2);}.cls-16{fill:url(#Новый_образец_градиента_копия_2);}.cls-17{fill:url(#Безымянный_градиент_1300-3);}.cls-18{fill:url(#Новый_образец_градиента_копия_2-2);}.cls-19{opacity:0.5;}.cls-20{clip-path:url(#clip-path);}.cls-21{fill:url(#Новый_образец_градиента_копия_3);}.cls-22{fill:url(#Новый_образец_градиента_копия_3-2);}.cls-23{fill:url(#Новый_образец_градиента_копия_3-3);}.cls-24{fill:url(#Новый_образец_градиента_копия_3-4);}.cls-25{fill:url(#Новый_образец_градиента_копия_3-5);}.cls-26{fill:url(#Новый_образец_градиента_копия_3-6);}.cls-27{fill:url(#Новый_образец_градиента_копия_3-7);}.cls-28{fill:url(#Новый_образец_градиента_копия_3-8);}.cls-29{fill:url(#Новый_образец_градиента_копия_3-9);}.cls-30{fill:url(#Безымянный_градиент_159);}.cls-31{fill:url(#Безымянный_градиент_1725);}.cls-32{fill:url(#Безымянный_градиент_1562);}.cls-33{fill:url(#Безымянный_градиент_1562-2);}.cls-34{fill:url(#Безымянный_градиент_1562-3);}.cls-35{fill:url(#Безымянный_градиент_859);}.cls-36{fill:#a2aaae;}.cls-37{fill:#a9bcca;}.cls-38{fill:#d23c3e;}.cls-39{fill:url(#Безымянный_градиент_598);}.cls-40{fill:url(#Безымянный_градиент_492);}.cls-41{fill:url(#Безымянный_градиент_600);}.cls-42{fill:url(#Безымянный_градиент_1562-4);}.cls-43{fill:url(#Безымянный_градиент_1562-5);}.cls-44{fill:url(#Безымянный_градиент_1562-6);}.cls-45{fill:url(#Безымянный_градиент_1562-7);}.cls-46{fill:url(#Безымянный_градиент_322-3);}.cls-47{fill:url(#Безымянный_градиент_1785-2);}.cls-48{fill:url(#Безымянный_градиент_1785-3);}</style><linearGradient id="Безымянный_градиент_1700" x1="100.49" y1="26.4" x2="94.82" y2="169.12" gradientUnits="userSpaceOnUse"><stop offset="0" stop-color="#bb9bb7"/><stop offset="0.67" stop-color="#5f4d5f"/></linearGradient><linearGradient id="Безымянный_градиент_1785" x1="88.3" y1="136.85" x2="106.09" y2="15.03" gradientUnits="userSpaceOnUse"><stop offset="0.22" stop-color="#5f89bf"/><stop offset="1" stop-color="#183773"/></linearGradient><linearGradient id="Безымянный_градиент_873" x1="99.45" y1="57.9" x2="101.62" y2="13.55" gradientUnits="userSpaceOnUse"><stop offset="0.37" stop-color="#fabb80"/><stop offset="0.83" stop-color="#faa16c"/></linearGradient><linearGradient id="Безымянный_градиент_322" x1="61.83" y1="465.75" x2="81.84" y2="485.09" gradientUnits="userSpaceOnUse"><stop offset="0" stop-color="#6d515b"/><stop offset="1" stop-color="#1b2139"/></linearGradient><linearGradient id="Безымянный_градиент_1724" x1="67.6" y1="465.2" x2="83.27" y2="480.54" gradientUnits="userSpaceOnUse"><stop offset="0.32" stop-color="#fff" stop-opacity="0"/><stop offset="0.39" stop-color="#fdfdfc" stop-opacity="0.06"/><stop offset="0.51" stop-color="#f9f7f2" stop-opacity="0.2"/><stop offset="0.67" stop-color="#f3eee3" stop-opacity="0.45"/><stop offset="0.87" stop-color="#e9e2cf" stop-opacity="0.78"/><stop offset="1" stop-color="#e3dac1"/></linearGradient><linearGradient id="Безымянный_градиент_1724-2" x1="62.29" y1="470.62" x2="77.97" y2="485.96" xlink:href="#Безымянный_градиент_1724"/><linearGradient id="Безымянный_градиент_1578" x1="73.47" y1="197.84" x2="92.98" y2="410.41" gradientUnits="userSpaceOnUse"><stop offset="0" stop-color="#5d7dbf"/><stop offset="1" stop-color="#374b6b"/></linearGradient><linearGradient id="Безымянный_градиент_322-2" x1="104.77" y1="469.06" x2="177.13" y2="498.07" xlink:href="#Безымянный_градиент_322"/><linearGradient id="Безымянный_градиент_1724-3" x1="124.15" y1="464.4" x2="135.82" y2="479.4" xlink:href="#Безымянный_градиент_1724"/><linearGradient id="Безымянный_градиент_1724-4" x1="118.05" y1="469.14" x2="129.72" y2="484.15" xlink:href="#Безымянный_градиент_1724"/><linearGradient id="Безымянный_градиент_1578-2" x1="101.19" y1="238.22" x2="133.21" y2="430.78" xlink:href="#Безымянный_градиент_1578"/><linearGradient id="Безымянный_градиент_1300" x1="109.43" y1="47.64" x2="97.43" y2="238.7" gradientUnits="userSpaceOnUse"><stop offset="0" stop-color="#ffffb5"/><stop offset="1" stop-color="#f1c15f"/></linearGradient><linearGradient id="Безымянный_градиент_1490" x1="73.67" y1="191.28" x2="85.16" y2="191.28" gradientUnits="userSpaceOnUse"><stop offset="0" stop-color="#e2ba7d"/><stop offset="1" stop-color="#f1d579"/></linearGradient><linearGradient id="Безымянный_градиент_1300-2" x1="110.27" y1="29.51" x2="107.83" y2="68.29" xlink:href="#Безымянный_градиент_1300"/><linearGradient id="Новый_образец_градиента_копия_2" x1="92.07" y1="60.33" x2="79.73" y2="175.7" gradientUnits="userSpaceOnUse"><stop offset="0" stop-color="#5d7d91"/><stop offset="1" stop-color="#374b6b"/></linearGradient><linearGradient id="Безымянный_градиент_1300-3" x1="84.69" y1="34.33" x2="82.79" y2="64.62" xlink:href="#Безымянный_градиент_1300"/><linearGradient id="Новый_образец_градиента_копия_2-2" x1="90.98" y1="69.13" x2="92.98" y2="50.13" xlink:href="#Новый_образец_градиента_копия_2"/><clipPath id="clip-path"><path class="cls-1" d="M89.08,64.29S78,159,72.1,170.72c2,7.84,2,17.63,3.26,17.63s11.11-10.44,13.06-17.63c0-9.79,6.67-99.25,5.29-106.43C92.28,61.67,89.08,64.29,89.08,64.29Z"/></clipPath><linearGradient id="Новый_образец_градиента_копия_3" x1="85.82" y1="71.89" x2="97.12" y2="71.89" gradientTransform="translate(75.95 -43.41) rotate(44.17)" gradientUnits="userSpaceOnUse"><stop offset="0" stop-color="#ddf5f5"/><stop offset="1" stop-color="#c6d9db"/></linearGradient><linearGradient id="Новый_образец_градиента_копия_3-2" x1="83.69" y1="82.66" x2="98.3" y2="82.66" gradientTransform="translate(83.32 -40.03) rotate(44.17)" xlink:href="#Новый_образец_градиента_копия_3"/><linearGradient id="Новый_образец_градиента_копия_3-3" x1="81.62" y1="92.78" x2="100.72" y2="92.78" gradientTransform="translate(80.06 -36.82) rotate(39.6)" xlink:href="#Новый_образец_градиента_копия_3"/><linearGradient id="Новый_образец_градиента_копия_3-4" x1="78.72" y1="107.76" x2="97.97" y2="107.76" gradientTransform="translate(100.06 -31.09) rotate(44.17)" xlink:href="#Новый_образец_градиента_копия_3"/><linearGradient id="Новый_образец_градиента_копия_3-5" x1="75.98" y1="121.47" x2="99" y2="121.47" gradientTransform="translate(94.5 -28.07) rotate(38.45)" xlink:href="#Новый_образец_градиента_копия_3"/><linearGradient id="Новый_образец_градиента_копия_3-6" x1="74.46" y1="136.13" x2="96.18" y2="136.13" gradientTransform="translate(105.13 -23.3) rotate(39.16)" xlink:href="#Новый_образец_градиента_копия_3"/><linearGradient id="Новый_образец_градиента_копия_3-7" x1="71.04" y1="149.79" x2="92.68" y2="149.79" gradientTransform="translate(106.42 -19.13) rotate(36.93)" xlink:href="#Новый_образец_градиента_копия_3"/><linearGradient id="Новый_образец_градиента_копия_3-8" x1="68.23" y1="162.51" x2="92.51" y2="162.51" gradientTransform="translate(113.47 -15.74) rotate(36.84)" xlink:href="#Новый_образец_градиента_копия_3"/><linearGradient id="Новый_образец_градиента_копия_3-9" x1="68.07" y1="174.25" x2="91.02" y2="174.25" gradientTransform="translate(118.69 -13.26) rotate(36.33)" xlink:href="#Новый_образец_градиента_копия_3"/><linearGradient id="Безымянный_градиент_159" x1="7102" y1="114.4" x2="7102.34" y2="99.72" gradientTransform="matrix(-1, 0.08, 0.08, 1, 7109.82, -406.68)" gradientUnits="userSpaceOnUse"><stop offset="0.64" stop-color="#ffd7a5"/><stop offset="1" stop-color="#faa96c"/></linearGradient><linearGradient id="Безымянный_градиент_1725" x1="60.35" y1="228.91" x2="118.77" y2="228.91" gradientUnits="userSpaceOnUse"><stop offset="0.16" stop-color="#694538"/><stop offset="1" stop-color="#1c1007"/></linearGradient><linearGradient id="Безымянный_градиент_1562" x1="139.84" y1="69.84" x2="141.49" y2="292.8" gradientUnits="userSpaceOnUse"><stop offset="0" stop-color="#8567ad"/><stop offset="1" stop-color="#1b2139"/></linearGradient><linearGradient id="Безымянный_градиент_1562-2" x1="1.76" y1="137.75" x2="42.1" y2="133.08" xlink:href="#Безымянный_градиент_1562"/><linearGradient id="Безымянный_градиент_1562-3" x1="13.29" y1="224.85" x2="53.64" y2="220.18" xlink:href="#Безымянный_градиент_1562"/><linearGradient id="Безымянный_градиент_859" x1="32.97" y1="90.77" x2="35.85" y2="153.82" gradientTransform="translate(-84.09 43.96) rotate(-48.58)" gradientUnits="userSpaceOnUse"><stop offset="0" stop-color="#fff5f5"/><stop offset="1" stop-color="#c6d9db"/></linearGradient><linearGradient id="Безымянный_градиент_598" x1="33.01" y1="92.4" x2="35.21" y2="140.66" gradientTransform="translate(-5.75 -22.33)" gradientUnits="userSpaceOnUse"><stop offset="0" stop-color="#ddf5f5" stop-opacity="0"/><stop offset="1" stop-color="#fafff5" stop-opacity="0.4"/></linearGradient><linearGradient id="Безымянный_градиент_492" x1="32.52" y1="161.61" x2="35.83" y2="165.99" gradientTransform="translate(-84.09 43.96) rotate(-48.58)" xlink:href="#Новый_образец_градиента_копия_2"/><linearGradient id="Безымянный_градиент_600" x1="29.01" y1="89.43" x2="34.28" y2="96.41" gradientTransform="translate(-51.7 2.49) rotate(-17.64)" gradientUnits="userSpaceOnUse"><stop offset="0" stop-color="#ddf5f5" stop-opacity="0"/><stop offset="1" stop-color="#faffff" stop-opacity="0.5"/></linearGradient><linearGradient id="Безымянный_градиент_1562-4" x1="59.95" y1="67.82" x2="61.61" y2="293.23" xlink:href="#Безымянный_градиент_1562"/><linearGradient id="Безымянный_градиент_1562-5" x1="128.37" y1="15" x2="127.03" y2="129.71" xlink:href="#Безымянный_градиент_1562"/><linearGradient id="Безымянный_градиент_1562-6" x1="63.57" y1="14.25" x2="62.24" y2="128.95" xlink:href="#Безымянный_градиент_1562"/><linearGradient id="Безымянный_градиент_1562-7" x1="131.15" y1="215.26" x2="131.25" y2="228.34" xlink:href="#Безымянный_градиент_1562"/><linearGradient id="Безымянный_градиент_322-3" x1="53.07" y1="214.89" x2="53.16" y2="227.27" xlink:href="#Безымянный_градиент_322"/><linearGradient id="Безымянный_градиент_1785-2" x1="108.38" y1="142.06" x2="126.53" y2="17.73" xlink:href="#Безымянный_градиент_1785"/><linearGradient id="Безымянный_градиент_1785-3" x1="66.18" y1="135.05" x2="84.21" y2="11.49" xlink:href="#Безымянный_градиент_1785"/></defs><g id="Слой_2" data-name="Слой 2"><g id="Слой_2-2" data-name="Слой 2"><path class="cls-2" d="M69.65,53s57.95-3.1,57.95-3.75,2.62-11.1,2.62-11.1c-13.06-9.8-52.9-9.41-60.73,8.68"/><path class="cls-3" d="M101.23,25.68c10-1.4,28.17.55,29.88,9.13-7,8-51.83,9.23-53.79,6.62s-3.91-4.1-.65-6.62S92.49,26.9,101.23,25.68Z"/><path class="cls-4" d="M116.5,0c-2,9.07-4.93,25.13-1.81,38.18C109.83,57.74,90.2,63.26,86.05,52a264.28,264.28,0,0,1,1.07-28.87Z"/><path class="cls-5" d="M102.79,474.69s1.59,11.1,1.45,14H95.36l-3-4.24A11.61,11.61,0,0,1,83,488.73H62.18c-10.32,0-20.12-9.47-16.85-12.73,3.26,1.31,15,3.26,17.63,2s11.1-10.45,15-11.1S102.79,474.69,102.79,474.69Z"/><path class="cls-6" d="M72.75,471.43c1.67-1.67,11.76,0,10.45,2s-14.37,2.61-13.71,1.3S71.45,472.73,72.75,471.43Z"/><path class="cls-7" d="M65.57,478.61c-1.46,0,2-2.61,3.26-2.61s6,.94,5.64,1.78S66.88,478.61,65.57,478.61Z"/><path class="cls-8" d="M104.19,262.37c1.1,23.26-11.85,98.38-4.66,122.54s5.45,86.19,4.68,97.29c-10-9.79-20.78-17.23-30.69-12.86,1.19-25.66,5-58,.81-80S54.93,257.57,59.92,223.94C66.64,213.5,102.33,222.77,104.19,262.37Z"/><path class="cls-9" d="M157.64,474.37s1.59,11.1,1.45,14h-8.88l-3-4.25a11.6,11.6,0,0,1-9.32,4.25H117c-10.32,0-20.12-9.47-16.85-12.74,3.26,1.31,15,3.27,17.63,2s11.1-10.45,15-11.1S157.64,474.37,157.64,474.37Z"/><path class="cls-10" d="M127.6,471.1c1.67-1.66,11.76,0,10.45,2s-14.36,2.61-13.71,1.31S126.3,472.41,127.6,471.1Z"/><path class="cls-11" d="M120.42,478.29c-1.46,0,2-2.62,3.27-2.62s6,.95,5.63,1.78S121.73,478.29,120.42,478.29Z"/><path class="cls-12" d="M122.38,224.27c12.41,11.75,15.24,25.49,13.82,75.11s4.5,80.88,11,94.67c8.65,18.35,12.93,73.13,11.69,88.15-16.84-8.48-17.25-14.82-30.62-12.4.68-19.34,0-63.36-5.88-72.17S111,373,107.2,332.61,94.3,295,84.51,277.93s-17.63-34.07-13.72-50.4S116.5,217.09,122.38,224.27Z"/><path class="cls-13" d="M119,39.83s47.3,36.21,46.9,46S123.69,206,122.38,224.27c-24.81,9.79-60.73,11.1-64,2.61-5.88-42.44-11.9-144.09-9.21-153S76.67,40.78,83.85,41.43C78.46,54.25,103.44,53.84,119,39.83Z"/><path class="cls-14" d="M84.51,149.83c-.66,13.06-15.55,66.71-8.1,82.66"/><path class="cls-15" d="M113.89,29c-1.6,5.63-11.75,13.72-17.63,16.33-2,3.26-1.82,5.33-1.82,5.33,5.74-4.68,7.27,3.09,11.4,16.51,5-3.2,17.22-21,18.18-25.68C120.08,32.21,117.81,25.76,113.89,29Z"/><path class="cls-16" d="M89.08,64.29S78,159,72.1,170.72c2,7.84,2,17.63,3.26,17.63s11.11-10.44,13.06-17.63c0-9.79,6.67-99.25,5.29-106.43C92.28,61.67,89.08,64.29,89.08,64.29Z"/><path class="cls-17" d="M86.47,34.25c0,4.57,0,9.79,3.26,10.45,2,1.3,1.42,6,1.42,6-6.64-4.68-9.91,5.77-11.87,13a106.92,106.92,0,0,1-2.61-20.89C79.28,35.55,84.74,30.57,86.47,34.25Z"/><path class="cls-18" d="M87.12,49.27c2.71-1.81,11.82-2.76,12.41,2,.65,5.22-3.79,13.39-5.82,17.79-1.43-2.94-4.9-3.26-5.29-1.47C85,58.08,85.16,50.57,87.12,49.27Z"/><g class="cls-19"><g class="cls-20"><rect class="cls-21" x="84.55" y="70.91" width="13.85" height="1.96" transform="translate(-24.23 84.06) rotate(-44.17)"/><rect class="cls-22" x="81.76" y="81.68" width="18.47" height="1.96" transform="translate(-31.87 86.77) rotate(-44.17)"/><rect class="cls-23" x="79.59" y="91.8" width="23.16" height="1.96" transform="translate(-38.22 79.4) rotate(-39.6)"/><rect class="cls-24" x="75.88" y="106.78" width="24.93" height="1.96" transform="translate(-50.11 92.02) rotate(-44.17)"/><rect class="cls-25" x="73.57" y="120.49" width="27.84" height="1.96" transform="translate(-56.56 80.74) rotate(-38.45)"/><rect class="cls-26" x="72.11" y="135.15" width="26.42" height="1.96" transform="translate(-66.8 84.46) rotate(-39.16)"/><rect class="cls-27" x="69.06" y="148.81" width="25.6" height="1.96" transform="translate(-73.58 79.23) rotate(-36.93)"/><rect class="cls-28" x="65.94" y="161.53" width="28.87" height="1.96" transform="translate(-81.38 80.63) rotate(-36.84)"/><rect class="cls-29" x="66.03" y="173.27" width="27.03" height="1.96" transform="translate(-87.77 80.99) rotate(-36.33)"/></g></g><path class="cls-30" d="M43,241.07c2.93,15.52,1.18,25.18,1.18,25.18,5,6.35,8.12,12.28,6.67,15.21s-5.32,15.14-9.28,14.9-5.37-5.89-5.37-5.89c-.62,1.8-4.3-2.2-5.44-4.22a13.33,13.33,0,0,1-1.52-8.14c.33-2.84,7-14.58,7.13-15.73-.08-5.63,0-20.78,0-20.78Z"/><path class="cls-31" d="M118.77,221.74c-9.45,3.84-40.79,12.32-58.42,5.14v6.59c15,5.82,48.93.9,58.42-4.8A23.38,23.38,0,0,1,118.77,221.74Z"/><path class="cls-32" d="M127,42.74c16.49,16.61,43.75,32,41.14,41.79s-30.54,101.91-33.55,110.7c7.68,30,12.66,95.37,12.66,102-5.23,9.42-26.15,11-32.67,10.13-2.58-21.95-1.38-97.12-1.33-116.24S115.68,89.46,127,42.74Z"/><path class="cls-33" d="M59.69,100.85c.66-20.89-7.51-37.57-15.18-24s-9,77.08-8.34,101.16S51.5,194.27,53.31,177,59.46,108.15,59.69,100.85Z"/><path class="cls-34" d="M29.14,268.39c8.86,3.83,19.32.85,20-4.65.78-15.6,3.46-61.84,4.7-71.88S39.12,163.2,37.33,180.35,28.63,253.75,29.14,268.39Z"/><path class="cls-35" d="M2.38,85.8l39.81,35.12a10.57,10.57,0,0,0,7.34,2.63l1.71-.06a7.08,7.08,0,0,1,4.89,1.75l5,4.43a2.46,2.46,0,0,0,3.47-.21h0A2.47,2.47,0,0,0,64.4,126l-5-4.43A7.06,7.06,0,0,1,57,116.92l-.15-1.71a10.55,10.55,0,0,0-3.53-6.94L13.54,73.15a7,7,0,0,0-9.92.62l-1.86,2.1A7,7,0,0,0,2.38,85.8Z"/><path class="cls-36" d="M51.07,111.88l-5.58,6.32a.34.34,0,0,1-.49,0,.35.35,0,0,1,0-.49l5.58-6.33a.36.36,0,0,1,.5,0A.35.35,0,0,1,51.07,111.88Z"/><path class="cls-36" d="M44.75,106.3l-5.58,6.32a.35.35,0,0,1-.53-.46l5.58-6.33a.36.36,0,0,1,.5,0A.37.37,0,0,1,44.75,106.3Z"/><path class="cls-36" d="M38.42,100.72,32.84,107a.35.35,0,0,1-.49,0,.36.36,0,0,1,0-.5l5.58-6.33a.36.36,0,0,1,.5,0A.35.35,0,0,1,38.42,100.72Z"/><path class="cls-36" d="M32.1,95.14l-5.58,6.32a.36.36,0,0,1-.5,0,.35.35,0,0,1,0-.5l5.58-6.33a.36.36,0,0,1,.5,0A.37.37,0,0,1,32.1,95.14Z"/><path class="cls-36" d="M25.77,89.56l-5.58,6.32a.35.35,0,0,1-.49,0,.36.36,0,0,1,0-.5l5.58-6.33a.37.37,0,0,1,.5,0A.35.35,0,0,1,25.77,89.56Z"/><path class="cls-36" d="M19.45,84,13.87,90.3a.36.36,0,0,1-.5,0,.35.35,0,0,1,0-.5l5.58-6.33a.35.35,0,0,1,.53.47Z"/><path class="cls-36" d="M13.12,78.4,7.54,84.73A.35.35,0,0,1,7,84.26l5.58-6.32a.36.36,0,0,1,.5,0A.35.35,0,0,1,13.12,78.4Z"/><rect class="cls-37" x="32.78" y="67.99" width="2.81" height="69.23" rx="1.41" transform="translate(-65.37 60.36) rotate(-48.58)"/><rect class="cls-38" x="40.68" y="83.75" width="2.81" height="51.66" rx="1.21" transform="translate(-67.93 68.65) rotate(-48.58)"/><rect class="cls-39" x="22.89" y="65.97" width="11.25" height="63.26" rx="5.62" transform="translate(-63.54 54.42) rotate(-48.58)"/><path class="cls-40" d="M61.24,123.19,64.4,126a2.47,2.47,0,0,1,.22,3.48h0a2.46,2.46,0,0,1-3.47.21L58,126.88"/><ellipse class="cls-41" cx="7.02" cy="81.74" rx="5.24" ry="6.83" transform="translate(-41.03 15.24) rotate(-30.94)"/><path class="cls-42" d="M73.52,43.18c-10,48.09-13.49,132.34-13,149.53S68.85,307.4,68.85,307.4c-9.81-3.46-17-2.78-17-8-.62-33.33,1.64-98,.5-111s-7.9-97.26-5.5-114.26C55.12,58.41,70.37,43.63,73.52,43.18Z"/><path class="cls-43" d="M138.71,46.65c.82,8.2,2.42,42.44,1.86,45.38s-10.35,11-10.35,11l9.14,6.31c-11.76,29.39-22.56,57.37-26,67.21-.3-26,3.22-107.9,11.65-132,2.51-3.06,2.56-7.73,5.18-6.42S137.4,43.39,138.71,46.65Z"/><path class="cls-44" d="M60.83,171.55c-2.93-36.92-6.36-65.47-6.36-65.47L59,101.51c-5.22-2.62-7.84-4.57-7.84-7.19s9.62-42.86,20.49-51.14c3-.44,3.62-1.62,2.37,2.82C65.57,76,65.24,145.61,60.83,171.55Z"/><path class="cls-45" d="M120.42,217.09c0-3.52,19.47-4.26,20.26-2.62.64,1.31,2.5,10.83,0,12.41s-17,3.27-18.63,1.79C120.83,227.58,120.42,219.05,120.42,217.09Z"/><path class="cls-46" d="M50.55,214.47c.6-1.59,5.22-1.3,5.88,0s.65,12.41,0,13.06c-.93.94-5.23.64-6.53-.65S49.9,216.23,50.55,214.47Z"/><path class="cls-47" d="M131.52,36.21c2.54,10.15-7.83,83.58-9.14,97.29-3.26,4.57-22.12-2-24.81-4.57,1.79-17.63,27.05-84,25-91C126.16,32.51,129.56,28.37,131.52,36.21Z"/><path class="cls-48" d="M77.93,39.83C76.06,48.9,76,122.4,76.67,132.2,72.1,135.46,61.5,142.7,59,138.07,60.65,91.6,69.49,43.45,72.1,38.85S79.2,32.36,77.93,39.83Z"/></g></g></svg>