<svg xmlns="http://www.w3.org/2000/svg" xmlns:xlink="http://www.w3.org/1999/xlink" width="201.125" height="532.742" ><defs><linearGradient id="A" x1=".529" y1="-.43" x2=".461" y2="1.41"><stop offset="0" stop-color="#ffd63c"/><stop offset="1" stop-color="#d38527"/></linearGradient><linearGradient id="B" x1=".358" y1="1.062" x2=".507" y2=".337"><stop offset=".628" stop-color="#fac38f"/><stop offset=".959" stop-color="#faa96c"/></linearGradient><linearGradient id="C" x1="-.012" y1="-.126" x2=".599" y2=".576"><stop offset="0" stop-color="#ab8faf"/><stop offset="1" stop-color="#374b6b"/></linearGradient><linearGradient id="D" x1=".419" y1=".116" x2=".683" y2="1.349"><stop offset=".641" stop-color="#ffd7a5"/><stop offset="1" stop-color="#faa96c"/></linearGradient><linearGradient id="E" x1="-.218" y1="-4.92" x2=".635" y2="1.575"><stop offset=".766" stop-color="#fac38f"/><stop offset="1" stop-color="#faa96c"/></linearGradient><linearGradient id="F" x1=".313" y1="-1.505" x2=".551" y2="1.061" xlink:href="#D"/><linearGradient id="G" x1=".498" y1="-.273" x2=".503" y2="1.185" xlink:href="#C"/><linearGradient id="H" x1=".41" y1="-.17" x2=".656" y2=".749"><stop offset="0" stop-color="#e75555"/><stop offset="1" stop-color="#a64444"/></linearGradient><linearGradient id="I" x1=".042" y1=".211" x2=".858" y2=".832"><stop offset="0" stop-color="#5d7d91"/><stop offset="1" stop-color="#374b6b"/></linearGradient><linearGradient id="J" x1=".412" y1="-.32" x2=".524" y2="1.354"><stop offset=".004" stop-color="#fff5f5"/><stop offset="1" stop-color="#c6d9db"/></linearGradient><linearGradient id="K" x1=".52" y1="-.017" x2=".499" y2=".964"><stop offset="0" stop-color="#cf5555"/><stop offset="1" stop-color="#a64444"/></linearGradient><linearGradient id="L" x1="42.769" y1="-8.329" x2="42.655" y2="-7.313"><stop offset="0" stop-color="#faa478"/><stop offset="1" stop-color="#f7694d"/></linearGradient><linearGradient id="M" x1=".551" y1="-.025" x2=".487" y2=".99" xlink:href="#L"/><linearGradient id="N" x1=".369" y1=".044" x2=".877" y2="1.115" xlink:href="#H"/><linearGradient id="O" x1=".524" y1=".019" x2=".461" y2=".896" xlink:href="#C"/><clipPath id="P"><path d="M1872.492 307.912c5.6 2.988 39.78 22.621 40.56 32.76s-8.58 56.94-10.92 72.54 2.341 87.361 2.341 87.361c-19.5 14.039-78 4.68-85.02-10.921-1.559-30.419-.78-144.3 4.68-152.881s21.1-23.283 21.1-23.283c-5.501 30.304 17.899 21.724 27.259-5.576z" transform="translate(-1818.742 -307.912)" fill="none"/></clipPath><linearGradient id="Q" x1=".529" y1="-1.158" x2=".229" y2="14.259" xlink:href="#C"/><linearGradient id="R" x1=".5" y1="-.467" x2=".5" y2="-.096" xlink:href="#C"/><linearGradient id="S" x1=".5" y1="-.85" x2=".5" y2="-.383" xlink:href="#C"/><linearGradient id="T" x1=".555" y1=".065" x2=".446" y2=".861" xlink:href="#A"/><linearGradient id="U" x1=".601" y1=".001" x2=".362" y2=".883" xlink:href="#A"/><linearGradient id="V" x1=".709" y1="-.825" x2=".405" y2=".869" xlink:href="#A"/><linearGradient id="W" x1=".667" y1="-.452" x2=".458" y2=".971" xlink:href="#A"/><linearGradient id="X" x1=".573" y1="-.028" x2=".484" y2=".988" xlink:href="#K"/><linearGradient id="Y" x1=".486" y1="-.271" x2=".511" y2="1.183" xlink:href="#C"/><linearGradient id="Z" x1=".499" y1="-.27" x2=".503" y2="1.183" xlink:href="#C"/><linearGradient id="a" x1="394.176" y1="-79.964" x2="392.5" y2="-82.298" xlink:href="#D"/><linearGradient id="b" x1="94.519" y1="-34.339" x2="94.119" y2="-35.347" xlink:href="#D"/><linearGradient id="c" x1=".729" y1=".757" x2="-.299" y2="-.359" xlink:href="#D"/></defs><path d="M74.283 46.535l-2.589-17c5.112-10.039 34.714-25.224 52.674-8.662-2.3 5.825-2.489 18.264-2.489 18.264z" fill="url(#A)"/><path d="M116.075-.001c-1.828 5.459-7.288 26.521-8.069 42.9-2.739 16.612-20.973 20.462-24.526 11.4s4.47-40.892 4.47-40.892z" fill="url(#B)"/><path d="M61.986 57.718c-19.2 20.568-22.621 74.881-22.621 117.782s19.5 28.86 20.28 6.239 5.082-77.28 6.241-83.461c2.339-12.479 7.017-52.26-3.9-40.56z" fill="url(#C)"/><path d="M39.364 187.421c-.633 9.8 9.37 55.706 14.414 71.464s9.37 10.279 7.928-5.482l-6.287-65.983c-.92-10.073-15.335-11.162-16.055.001z" fill="url(#D)"/><path d="M71.7 272.312c-.628-2.38-8.723 6.563-5.219 16.475 2.26-.526 8.431-4.334 5.219-16.475z" fill="url(#E)"/><path d="M65.249 260.411c6.163 7.681 7.657 14.805 5.172 17.917s-3.269 18.658-8.057 18.057c-6.718-.844-8.98-7.329-8.98-7.329-1.2 1.978-6.21-2.577-6.523-5.376s-.931-12.774.2-16.067 8.558-13.406 9.891-13.818c2.533-.78 6.636 4.548 8.297 6.616z" fill="url(#F)"/><path d="M58.865 196.561c-7.8.78-20.28-.78-21.839-2.341-3.9-2.339-13.542-30.419-13.542-30.419 8.081-3.12 32.261 14.819 38.5 14.819-.778 5.461-3.119 17.941-3.119 17.941z" fill="url(#G)"/><path d="M58.987 199.29c-2.46 30.809 6.6 163.127 8.309 180.82s3.471 133.13 1.81 144.051c2.921 4.68 8.547-.056 8.547-.056 3.054-19.444 26.121-98.671 27.234-108.365s-2.341-25.739-7.021-32.76l16.38-169.261C96.305 192.66 58.987 199.29 58.987 199.29z" fill="url(#H)"/><path d="M86.166 521.041l1.859 11.7H29.076l-7.65-19.5c11.7 3.9 43.68 11.7 45.24 11.7a118.49 118.49 0 0 1-3.12-14.819c7.021-4.681 9.725 0 10.92.78-.73 5.459.78 14.039.78 14.039 3.032-2.607 6.923-3.997 10.92-3.9z" fill="url(#I)"/><path d="M33.856 532.74H0c1.146-14.039 12.066-18.719 21.426-19.5 10.136 6.241 12.43 19.5 12.43 19.5z" fill="url(#J)"/><path d="M67.304 525.143c.485-28.4-19.182-25.355-1.417-.882-12.825-11.816-23.87-1.137-1.064.524" fill="none" stroke="#283547" stroke-linecap="round" stroke-linejoin="round" stroke-width="1.029"/><path d="M153.982 48.687c-.735-20.607-3.175-17.487-17.115-19.048s-10.943 3.253-12.492 15.667c3.922 3.767 7.031 1.062 7.031 1.062.78-8.147-3.029-15.318 8.626-14.073s7.826 15.136 7.826 15.136z" fill="url(#K)"/><path d="M181.788 120.79c7.758-.882 15.949-.752 16.1 4.225s1.913 43.35-.982 46.818-11.319 6.135-11.319 6.135z" fill="url(#L)"/><path d="M123.605 46.801c4.518-6.214 62.4 1.476 62.4 13.609s7.8 115.092 1.56 122.111-68.884 7.482-71.492-.158 1.293-126.98 7.532-135.562z" fill="url(#M)"/><path d="M166.948 178.079a40.58 40.58 0 0 1-4.433-.245.78.78 0 0 1-.683-.863.78.78 0 0 1 .863-.683c3.071.359 12.1.65 13.214-2.6 1.731-5.041-1.078-77.753-2-101.647l-.381-10.463c0-2.126-5.512-5.3-15.73-6.992a.78.78 0 0 1-.64-.894.78.78 0 0 1 .894-.64c7.858 1.3 17.032 4.314 17.032 8.525 0 .55.151 4.469.38 10.4 1.743 45.114 3.536 97.5 1.919 102.212-1.117 3.255-6.446 3.89-10.435 3.89z" fill="#cf5555"/><path d="M140.765 215.28c7.02 14.041 24.961 75.661 35.88 156.781 10.025 9.744 15.6 17.941 14.821 36.66s-5.194 90.481 1.692 115.441c-2.72 3.17-7.076 4.4-11.052 3.12-8.58-51.481-28.034-126.394-33.542-143.521s-32.76-115.439-53.82-119.34c-15.6-5.461-27.6-45.674-27.448-53.258s73.469 4.117 73.469 4.117z" fill="url(#N)"/><path d="M199.264 521.042l1.859 11.7h-58.949l-7.65-19.5c11.7 3.9 43.68 11.7 45.24 11.7a118.49 118.49 0 0 1-3.12-14.819c7.021-4.681 9.726 0 10.921.78-.73 5.459.78 14.039.78 14.039 3.031-2.607 6.922-3.997 10.919-3.9z" fill="url(#I)"/><path d="M146.956 532.741H113.1c1.146-14.039 12.066-18.719 21.426-19.5 10.139 6.241 12.43 19.5 12.43 19.5z" fill="url(#J)"/><path d="M180.403 525.144c.485-28.4-19.182-25.355-1.416-.882-12.825-11.816-23.87-1.137-1.064.524" fill="none" stroke="#283547" stroke-linecap="round" stroke-linejoin="round" stroke-width="1.029"/><path d="M111.126 28.08c5.6 2.988 39.78 22.621 40.56 32.76s-8.58 56.94-10.92 72.54 2.341 87.361 2.341 87.361c-19.5 14.039-78 4.68-85.02-10.921-1.559-30.419-.78-144.3 4.68-152.881s21.1-23.283 21.1-23.283c-5.501 30.304 17.899 21.724 27.259-5.576z" fill="url(#O)"/><g clip-path="url(#P)" transform="translate(57.376 28.08)"><g opacity=".4" fill="#211c20"><path d="M42.399 204.012c-1.529-39.99-.25-135.248 15.537-209.545l7.628 1.621C49.938 69.634 48.677 164.06 50.192 203.713zm20.396-2.632c-3.365-42.805 7.422-144.042 13.6-191.594l7.734 1C77.992 58.058 67.26 158.601 70.573 200.764zm-41.413-1.668c-1.2-27.261 5-158.214 9.785-191.962l7.723 1.095c-4.6 32.482-10.869 164.234-9.715 190.525zM6.54 196.491c-3.6-20.309.272-172.526 3.607-188.965l7.645 1.551c-3.134 15.451-6.939 167.043-3.572 186.054z"/><path d="M-14.8 68.374l-3.365-7.036c14.315-6.847 106.114-10.52 131.872-3.429l-2.072 7.519c-10.9-3-36.924-4.251-67.927-3.265-32.012 1.019-53.666 3.896-58.508 6.211zm6.9-28.6l-3.018-7.192c16.787-7.046 98.428-7.284 117.247-3.078l-1.7 7.613C85.818 32.916 6.172 33.869-7.9 39.774zm-15.826 57.501l-2.608-7.351c24.912-8.84 113.62-9.852 142.383-5.017l-1.294 7.693C87.366 87.997-.218 88.934-23.726 97.275zm3.741 32.033l-2.293-7.455c33.235-10.228 114.6-5.861 143.152-3.314l-.693 7.769c-39.094-3.486-111.715-5.753-140.166 3zm155.326 26.835c-30.5-2.845-158.744-2.029-166.949-.332l-1.58-7.638c10.231-2.116 139.916-2.533 169.254.2zm-39.112 28.988c-9.3-4.63-98.908-8.071-124.215-8.071v-7.8c8.524 0 114.619 2.378 127.691 8.89z"/></g></g><path d="M95.525 45.239s-3.9 4.159-5.459 7.54l-3.054-7.54c-6.305-2.339-7.9 1.818-3.982 7.54s14.836 2.6 17.175-1.3-2.34-6.24-4.68-6.24z" fill="url(#Q)"/><path d="M110.257 24.466s1.648 1.881 1.648 2.834c0 12.48-6.239 24.96-7.019 26.519-3.9-6.239-6.241-7.8-9.361-8.58 3.9-1.562 9.361-3.118 14.732-20.773z" fill="url(#R)"/><path d="M84.366 30.545l-2.882 3.776c-3.12 5.459-5.461 12.48-3.9 19.5 3.12-6.239 5.459-7.8 9.359-8.58-3.119-3.901-3.898-8.581-2.577-14.696z" fill="url(#S)"/><path d="M122.757 30.545c10.209 16.256 28.148 20.156 28.148 27.956-4.68-4.681-13.328-.1-16.38 30.419-1.559 15.6-2.341 46.867 8.58 43.713-.78 7.734 5.294 73.2 1.478 75.974s-36.578 5.371-40.868 1.733-1.306-164.855 19.042-179.795z" fill="url(#T)"/><path d="M77.084 40.311c-5.247 21.558-4.276 162.056-8.083 163.27s-13.307-3.221-14.041-8.582S56.521 63.18 61.98 53.818c2.998-5.13 10.711-16.096 15.104-13.507z" fill="url(#U)"/><path d="M74.717 63.327s-7.272-17.308-8.052-21.988 4.353-11.373 6.467-13.877c1.886 2.8 5.235 11.559 5.235 11.559-2.342 6.219-3.396 22.115-3.65 24.306z" fill="url(#V)"/><path d="M110.924 62.639c7.433-8.279 13.321-13.566 15.027-15.839 2.339-3.12 3.863-21.426-1.578-25.923s-10.122 8.762-10.122 8.762c3.115 1.561-2.699 30.736-3.327 33z" fill="url(#W)"/><path d="M162.606 53.819l-8.582-1.559c-11.7-6.241-17.941-10.139-20.28-10.139-7.885 0-60.06 173.159 30.419 134.94-3.119-1.559-8.917-1.66-8.917-1.66-51.144 10.24-24.623-101.3-14.483-127.821 6.243 3.899 15.602 10.139 21.843 6.239z" fill="url(#X)"/><path d="M151.686 60.06c6.326 7.73 20.28 67.861 19.5 131.821-.458 37.567-21.06 9.36-21.84-3.9-1.161-19.715-6.241-77.22-9.361-88.92s4.68-47.581 11.701-39.001z" fill="url(#Y)"/><path d="M147.786 187.981c-3.12-8.58-2.339-21.061-2.339-21.061 10.139 5.461 26.519-7.8 40.56 2.341-5.046 10.921-9.329 25.326-12.48 25.739s-12.48 1.56-25.741-7.019z" fill="url(#Z)"/><path d="M125.804 133.509c-1.478 2.157-6.389-9.676.649-18.348 2.074 1.334 6.892 7.344-.649 18.348z" fill="url(#a)"/><path d="M130.827 141.73c1.958-10.274-.187-17.7-4.067-19.386s-12.357-15.88-16.552-12.929c-5.883 4.137-4.777 11.348-4.777 11.348-2.113-1.26-4.543 5.51-3.444 8.29s5.487 12.449 8.187 14.976 14.7 8.318 16.159 8.04c2.77-.529 3.967-7.571 4.494-10.339z" fill="url(#b)"/><path d="M157.588 208.261c-8.2-7.659-28.521-38.221-35.542-57.721s5.044-8.58 10.323 0 32.576 33.541 37.257 46.8-5.356 17.16-12.038 10.921z" fill="url(#c)"/></svg>
