<svg xmlns="http://www.w3.org/2000/svg" xmlns:xlink="http://www.w3.org/1999/xlink" viewBox="0 0 268.71 363"><defs><style>.cls-1,.cls-20,.cls-9{fill:none;}.cls-2{fill:url(#Новый_образец_градиента_копия_2);}.cls-3{fill:url(#Безымянный_градиент_62);}.cls-4{fill:url(#Безымянный_градиент_175);}.cls-5{fill:url(#Новый_образец_градиента_копия_2-2);}.cls-6{fill:url(#Безымянный_градиент_62-2);}.cls-7{fill:url(#Безымянный_градиент_175-2);}.cls-8{fill:url(#Безымянный_градиент_144);}.cls-9{stroke:#e36d4f;stroke-width:0.6px;}.cls-20,.cls-9{stroke-miterlimit:10;}.cls-10{fill:url(#Безымянный_градиент_466);}.cls-11{fill:url(#Безымянный_градиент_159);}.cls-12{fill:url(#linear-gradient);}.cls-13{fill:url(#Безымянный_градиент_159-2);}.cls-14{fill:url(#Безымянный_градиент_667);}.cls-15{fill:url(#Безымянный_градиент_16);}.cls-16{fill:url(#Безымянный_градиент_16-2);}.cls-17{fill:url(#Новый_образец_градиента_копия_3);}.cls-18{fill:url(#Безымянный_градиент_481);}.cls-19{fill:#e86b56;}.cls-20{stroke:#bdbfc6;stroke-width:0.5px;}.cls-21{fill:#6473a0;}.cls-22{fill:url(#Новый_образец_градиента_копия_6);}.cls-23{fill:url(#Безымянный_градиент_19);}.cls-24{fill:url(#Новый_образец_градиента_копия_6-2);}.cls-25{fill:url(#Безымянный_градиент_14);}.cls-26{fill:url(#Новый_образец_градиента_копия_6-3);}.cls-27{fill:url(#Безымянный_градиент_663);}.cls-28{fill:url(#Безымянный_градиент_663-2);}.cls-29{opacity:0.2;}.cls-30{clip-path:url(#clip-path);}.cls-31{fill:#211c20;}.cls-32{fill:#59192f;}.cls-33{clip-path:url(#clip-path-2);}.cls-34{opacity:0.3;}.cls-35{fill:#441527;}.cls-36{fill:url(#Безымянный_градиент_3070);}.cls-37{fill:url(#Безымянный_градиент_3070-2);}.cls-38{fill:url(#Безымянный_градиент_3070-3);}.cls-39{fill:url(#Безымянный_градиент_2723);}</style><linearGradient id="Новый_образец_градиента_копия_2" x1="90.62" y1="325.32" x2="90.01" y2="308.05" gradientUnits="userSpaceOnUse"><stop offset="0" stop-color="#5d7d91"/><stop offset="1" stop-color="#374b6b"/></linearGradient><linearGradient id="Безымянный_градиент_62" x1="65.93" y1="334.22" x2="79.23" y2="349.81" gradientUnits="userSpaceOnUse"><stop offset="0" stop-color="#ff5553"/><stop offset="1" stop-color="#a64444"/></linearGradient><radialGradient id="Безымянный_градиент_175" cx="52.72" cy="341.56" r="11.97" gradientUnits="userSpaceOnUse"><stop offset="0" stop-color="#fa9bcf"/><stop offset="1" stop-color="#d52151"/></radialGradient><linearGradient id="Новый_образец_градиента_копия_2-2" x1="188.8" y1="325.32" x2="188.19" y2="308.05" xlink:href="#Новый_образец_градиента_копия_2"/><linearGradient id="Безымянный_градиент_62-2" x1="164.11" y1="334.22" x2="177.41" y2="349.81" xlink:href="#Безымянный_градиент_62"/><radialGradient id="Безымянный_градиент_175-2" cx="150.9" cy="341.56" r="11.97" xlink:href="#Безымянный_градиент_175"/><linearGradient id="Безымянный_градиент_144" x1="93.91" y1="99.56" x2="109.91" y2="19.36" gradientUnits="userSpaceOnUse"><stop offset="0.37" stop-color="#fac38f"/><stop offset="0.83" stop-color="#faa96c"/></linearGradient><radialGradient id="Безымянный_градиент_466" cx="89.98" cy="74.98" r="10.35" gradientUnits="userSpaceOnUse"><stop offset="0" stop-color="#ea9d4e"/><stop offset="0.29" stop-color="#e78c48"/><stop offset="0.87" stop-color="#df6037"/><stop offset="0.89" stop-color="#df5f37"/></radialGradient><linearGradient id="Безымянный_градиент_159" x1="11.46" y1="182.37" x2="14.92" y2="216.4" gradientUnits="userSpaceOnUse"><stop offset="0.64" stop-color="#ffd7a5"/><stop offset="1" stop-color="#faa96c"/></linearGradient><linearGradient id="linear-gradient" x1="27.16" y1="347.1" x2="22.11" y2="220.54" gradientUnits="userSpaceOnUse"><stop offset="0" stop-color="#212429"/><stop offset="0.2" stop-color="#292f33"/><stop offset="0.69" stop-color="#3a4647"/><stop offset="1" stop-color="#404e4f"/></linearGradient><linearGradient id="Безымянный_градиент_159-2" x1="16.54" y1="181.84" x2="17.86" y2="200.9" xlink:href="#Безымянный_градиент_159"/><linearGradient id="Безымянный_градиент_667" x1="-6.48" y1="160.07" x2="15.02" y2="143.56" gradientUnits="userSpaceOnUse"><stop offset="0" stop-color="#a5457d"/><stop offset="1" stop-color="#59192f"/></linearGradient><radialGradient id="Безымянный_градиент_16" cx="137.37" cy="163.61" r="126.44" gradientUnits="userSpaceOnUse"><stop offset="0" stop-color="#ee5f3e"/><stop offset="1" stop-color="#d24133"/></radialGradient><radialGradient id="Безымянный_градиент_16-2" cx="88.92" cy="125.9" r="77.66" xlink:href="#Безымянный_градиент_16"/><linearGradient id="Новый_образец_градиента_копия_3" x1="3334.43" y1="-621.57" x2="3364.47" y2="-621.57" gradientTransform="translate(-2785.24 1937.39) rotate(-20.7)" gradientUnits="userSpaceOnUse"><stop offset="0" stop-color="#ddf5f5"/><stop offset="1" stop-color="#c6d9db"/></linearGradient><linearGradient id="Безымянный_градиент_481" x1="3364.76" y1="-591.99" x2="3346.7" y2="-636.71" gradientTransform="translate(-2785.24 1937.39) rotate(-20.7)" gradientUnits="userSpaceOnUse"><stop offset="0" stop-color="#ddf5f5"/><stop offset="1" stop-color="#fafff5"/></linearGradient><radialGradient id="Новый_образец_градиента_копия_6" cx="-3.94" cy="228.4" r="33.24" gradientTransform="matrix(1, 0.05, -0.05, 0.97, 161.9, -14.67)" gradientUnits="userSpaceOnUse"><stop offset="0" stop-color="#ba3434"/><stop offset="0.47" stop-color="#a92f2f"/><stop offset="0.89" stop-color="#962a2a"/></radialGradient><linearGradient id="Безымянный_градиент_19" x1="147.49" y1="179.02" x2="151.49" y2="235.04" xlink:href="#Безымянный_градиент_16"/><radialGradient id="Новый_образец_градиента_копия_6-2" cx="-594.68" cy="289.36" r="26.83" gradientTransform="matrix(0.8, 0.04, -0.03, 1, 548.31, -80.82)" xlink:href="#Новый_образец_градиента_копия_6"/><radialGradient id="Безымянный_градиент_14" cx="63.03" cy="202.67" r="15.84" gradientUnits="userSpaceOnUse"><stop offset="0" stop-color="#ee5f3e"/><stop offset="1" stop-color="#ee5f3e"/></radialGradient><radialGradient id="Новый_образец_градиента_копия_6-3" cx="91.57" cy="110.81" r="183.73" gradientTransform="matrix(1, 0, 0, 1, 0, 0)" xlink:href="#Новый_образец_градиента_копия_6"/><linearGradient id="Безымянный_градиент_663" x1="172.65" y1="268.46" x2="210.94" y2="76.61" gradientUnits="userSpaceOnUse"><stop offset="0.14" stop-color="#59192f"/><stop offset="0.77" stop-color="#a5457d"/></linearGradient><linearGradient id="Безымянный_градиент_663-2" x1="38.85" y1="261.01" x2="70.34" y2="103.21" xlink:href="#Безымянный_градиент_663"/><clipPath id="clip-path" transform="translate(0 12.45)"><path class="cls-1" d="M208.14,35.8c8.9,11.58-4.94,83.42-10,94.6,26.49,28.25,39.67,58,41.48,125.38-50.59,13.23-87.28,9-87.28,9-3-55.3-2.15-75.08-5-85.34-3.92-14.36-6.85-40.48-3.92-59.42s14.41-64.59,16-108.69C179.07,11.28,195.08,18.82,208.14,35.8Z"/></clipPath><clipPath id="clip-path-2" transform="translate(0 12.45)"><path class="cls-1" d="M63.18,55.39c-7.21,21.09-7.84,71.83,0,98.6,2.8,9.57,5.15,25.35,4.57,34S65.13,265,65.13,265c-10.44,1.31-19-3.18-18.93-5.87,2.7-23.67,11.42-76.7,4.57-85.55S40.1,157,41,150.73c1.52-10.84,7.07-46,7.19-55.51s-.15-24.82,3.91-30A47.21,47.21,0,0,1,63.18,55.39Z"/></clipPath><linearGradient id="Безымянный_градиент_3070" x1="4076.83" y1="-152.68" x2="4076.83" y2="-59.18" gradientTransform="translate(-3296.08 2189.01) rotate(-28.99)" gradientUnits="userSpaceOnUse"><stop offset="0" stop-color="#5d7d91"/><stop offset="1" stop-color="#170f1f"/></linearGradient><linearGradient id="Безымянный_градиент_3070-2" x1="974.24" y1="-124.45" x2="973.49" y2="-70.16" gradientTransform="matrix(-0.87, 0.48, 0.48, 0.87, 1121.99, -258.79)" xlink:href="#Безымянный_градиент_3070"/><linearGradient id="Безымянный_градиент_3070-3" x1="4076.73" y1="-113.2" x2="4076.92" y2="-99.33" gradientTransform="translate(-3858.09 226.5)" xlink:href="#Безымянный_градиент_3070"/><linearGradient id="Безымянный_градиент_2723" x1="192.3" y1="33.55" x2="228.31" y2="142.58" gradientUnits="userSpaceOnUse"><stop offset="0.18" stop-color="#a5457d"/><stop offset="1" stop-color="#59192f"/></linearGradient></defs><g id="Слой_2" data-name="Слой 2"><g id="Слой_2-2" data-name="Слой 2"><path class="cls-2" d="M98.7,280.18c-6,19.45-10.26,37.19-3.62,62.28-1.86,5.82-5.43,3-7,.65-5.78-25.95-13.89-36.89-.68-68.31C91.36,275.61,98.7,280.18,98.7,280.18Z" transform="translate(0 12.45)"/><path class="cls-3" d="M109,337.38c.6,4.19,0,10.17-3,12.57H39c4.7-7.19,19.67-18.56,29.25-22.15,3,5.39,21,15,25.14,16.16C100,339.77,107.76,337.38,109,337.38Z" transform="translate(0 12.45)"/><circle class="cls-4" cx="54.18" cy="344.14" r="8.68"/><path class="cls-5" d="M196.88,280.18c-6,19.45-10.26,37.19-3.62,62.28-1.86,5.82-5.43,3-7,.65-5.78-25.95-13.89-36.89-.67-68.31C189.54,275.61,196.88,280.18,196.88,280.18Z" transform="translate(0 12.45)"/><path class="cls-6" d="M207.14,337.38c.6,4.19,0,10.17-3,12.57h-67c4.7-7.19,19.67-18.56,29.25-22.15,3,5.39,20.95,15,25.14,16.16C198.16,339.77,205.94,337.38,207.14,337.38Z" transform="translate(0 12.45)"/><circle class="cls-7" cx="152.36" cy="344.14" r="8.68"/><path class="cls-8" d="M131,0c15.66,8.71,21.63,13,21.63,13-3.49,24.54-4.17,77.18-59.25,83.16S57.47,56,68.25,51.81,131,0,131,0Z" transform="translate(0 12.45)"/><path class="cls-9" d="M74.83,50.61c-3.59,10.18.9,24.31,16.94,24.28,18.68,0,40.84-12.6,42.63-27.57" transform="translate(0 12.45)"/><path class="cls-10" d="M89.72,69.79c1.82-1.5,8.11-.22,9.45,3.12.6,1.5,0,11.08-2.7,12.28-3.8,1.69-12,2.09-12.27-.6C83.68,79.91,88.05,71.16,89.72,69.79Z" transform="translate(0 12.45)"/><path class="cls-11" d="M14.37,175.14C6,179.33,4.19,183.52,0,185.91c.6,10.78,3.59,16.77,7.78,18.56,4.79,2.4,12,.6,13.17-6s.6-10.17,2.4-13.17S14.37,175.14,14.37,175.14Z" transform="translate(0 12.45)"/><path class="cls-12" d="M40.11,211.06c-3,3.59-6.58,7.18-16.16,7.18-3.6-6-5.39-16.76-5.39-19.16-3.59,3-6.59,1.8-7.19,6.59s6.59,44.9,15,64.66c.6,32.32,0,65.25-3.59,79.62a46.26,46.26,0,0,1-7.76.6c1.17-16.77,7.76-70.05,4.17-79S1.2,220,3.59,205.67s22.15-20.36,26.34-18S40.11,211.06,40.11,211.06Z" transform="translate(0 12.45)"/><path class="cls-13" d="M22.75,184.12c1.22,4.28-4.19,6-4.54,14.44-.1,2.47-1.89,5.77-4.05,4.88-1.61-.67-2.06-9-1.59-11.54C8,185.86,12,172.74,22.75,184.12Z" transform="translate(0 12.45)"/><path class="cls-14" d="M55.68,62.59c-10.14,13.7-12,49.9-13.77,70.64C31.22,149,16.16,165.56,13.17,175.74c1.8,4.19,5.39,9,10.18,10.77,7.18-5.39,25.14-17.36,32.92-28.14s12-64.93,4.79-75S52.08,66.78,55.68,62.59Z" transform="translate(0 12.45)"/><path class="cls-15" d="M66.45,53c-29.33,18.56-11.37,50.29-9,58.07-10.77,32.33-16.16,44.3-15.56,44.3,6,5.39,11.37,11.38,20.35,11.38-3.59,7.18,0,15.28,0,15.28-1.2,15.25-9,91.28-7.78,122.41,50.29,13.77,135.71,13.77,177.41,0-1-43.1,12.37-129.31-35.53-174.21,3.6-9,23.35-80.22,9-96.39s-34.12-23.35-52.68-21c-4.19,41.9-25.14,82-63.46,81.42S64.66,59.59,66.45,53Z" transform="translate(0 12.45)"/><path class="cls-16" d="M196.36,130.24c3.6-9,23.35-80.22,9-96.39s-34.12-23.35-52.68-21c-4.19,41.9-25.14,82-63.46,81.42S64.66,59.59,66.45,53c-29.33,18.56-11.37,50.29-9,58.07-10.77,32.33-16.16,44.3-15.56,44.3,6,5.39,11.37,11.38,20.35,11.38,17.36-5.39,34.13-7.19,74.84-2.4C163,167.41,186.19,154.18,196.36,130.24Z" transform="translate(0 12.45)"/><path class="cls-17" d="M104.54,151.75c7-2.64,23-7.08,28.11-10.62,4.61,12.21,16.26,45.89,16.26,45.89-2.62,5.82-19.57,14.9-22.63,13.91C123.67,191.19,111.21,162.11,104.54,151.75Z" transform="translate(0 12.45)"/><path class="cls-18" d="M113.12,153.34c6.86-3.13,18.24-8.5,19.53-12.21,6.5,15.78,15.31,42,21.86,50.75-2.58,3.12-12.49,9.54-21.29,11.8C130.2,195.7,120.61,166.06,113.12,153.34Z" transform="translate(0 12.45)"/><polygon class="cls-19" points="127.02 167.22 125.28 168.13 124.37 166.39 122.32 167.46 123.23 169.21 121.49 170.11 122.56 172.16 124.3 171.25 125.21 172.99 127.26 171.92 126.35 170.18 128.09 169.27 127.02 167.22"/><path class="cls-20" d="M133.71,144c-1.81,2.29-12.66,9.07-16.89,10.67,2.07,4,16.73,41.42,18.15,45.18,4.58-.66,14.63-6.62,17.57-10.94" transform="translate(0 12.45)"/><path class="cls-21" d="M130.34,169.09c-.19.07-.61.23-3.89-4.6l.7,5.32a.26.26,0,0,1-.21.29.27.27,0,0,1-.29-.22l-.83-6.38a.24.24,0,0,1,.16-.27h0a.26.26,0,0,1,.3.1,43.41,43.41,0,0,0,3.87,5.21,9.57,9.57,0,0,0,0-1.2c-.05-1-.06-1.58.26-1.75a.42.42,0,0,1,.46.07,4.15,4.15,0,0,0,2.21.86,13.56,13.56,0,0,0,.44-2.15c.37-2.26.59-3.33,1.07-3.51a.4.4,0,0,1,.42.09l.52.49a3.16,3.16,0,0,0,1.7,1.06.25.25,0,1,1-.07.49,3.5,3.5,0,0,1-2-1.19c-.14-.14-.29-.29-.45-.43a13.44,13.44,0,0,0-.71,3.08c-.32,1.92-.43,2.42-.72,2.53-.61.23-1.92-.35-2.65-.87a7,7,0,0,0,0,1.21C130.7,168.39,130.7,169,130.34,169.09Z" transform="translate(0 12.45)"/><path class="cls-21" d="M138.14,175.8l-.08,0c-.61.14-1.31-.72-2.63-2.54l-.29.35a2.92,2.92,0,0,0-1,2c0,.47-.09.78-.37.93-.65.34-1.81-.48-3-1.4-.1-.08-.14-.07-.15-.06-.24.1-.54,1-.64,2.3a.25.25,0,0,1-.5,0c.05-.72.26-2.42.94-2.72a.62.62,0,0,1,.66.12c1.73,1.38,2.27,1.44,2.44,1.35s.11-.2.1-.45a3.35,3.35,0,0,1,1.1-2.37c.13-.15.26-.3.37-.45l0,0-.65-.9c-.69-.94-.89-1.64-.6-2.06a.87.87,0,0,1,1-.25,1.92,1.92,0,0,1,1.39,1.64,2.43,2.43,0,0,1-.5,1.6c.91,1.26,1.88,2.55,2.21,2.47,0,0,.13,0,.22-.52a14,14,0,0,0,0-2.95c-.12-1.5-.15-2,.21-2.16h0c.3-.11.55.22.66.36.33.44.46.44.46.44s.2-.25.27-.36a1.81,1.81,0,0,1,.86-.87.25.25,0,0,1,.32.15.24.24,0,0,1-.14.32,1.36,1.36,0,0,0-.61.66c-.17.28-.35.58-.67.6s-.54-.18-.89-.63l-.05-.06a12.83,12.83,0,0,0,.08,1.51,13.84,13.84,0,0,1,0,3.08C138.63,175.09,138.53,175.65,138.14,175.8Zm-3.79-5.71-.08.06c-.11.16,0,.65.59,1.49q.28.41.57.78a1.85,1.85,0,0,0,.31-1.12,1.43,1.43,0,0,0-1-1.2A.67.67,0,0,0,134.35,170.09Z" transform="translate(0 12.45)"/><path class="cls-21" d="M138.22,186.47l-.11,0c-.57,0-1.13-1-2.39-3.53-.49-1-1-2-1.43-2.71a1,1,0,0,0-.28-.34c-.41.32-.29,4.5.2,5.81a.25.25,0,0,1-.14.33.24.24,0,0,1-.32-.15c-.4-1-.89-6,.07-6.44.3-.14.6,0,.9.52a31,31,0,0,1,1.45,2.76,13.91,13.91,0,0,0,1.88,3.23l0-.09c.14-.45.26-.95.37-1.43.3-1.29.49-2,.9-2.23a.5.5,0,0,1,.43,0c.17.07.6-.14,1.11-.49a8.81,8.81,0,0,0-.95-.84.86.86,0,0,1-.41-.86c.1-.74,1.21-1.51,2.26-1.89.51-.18,1.42-.41,1.87,0a.89.89,0,0,1,.28.66c0,.95-1.3,2.16-1.45,2.3s-.47.42-.83.7c.6.59,1.19,1.15,1.59,1.07.18,0,.34-.21.49-.54a7.05,7.05,0,0,0,.56-2.28c0-.48.08-.77.31-.91a.48.48,0,0,1,.45,0l.27.15c.09-.07.23-.16.44-.29a.25.25,0,0,1,.34.09.26.26,0,0,1-.09.35,3,3,0,0,0-.49.33.28.28,0,0,1-.44,0,.67.67,0,0,0-.22-.15,4.41,4.41,0,0,0-.07.49,7.56,7.56,0,0,1-.6,2.44,1.27,1.27,0,0,1-.86.83c-.66.12-1.35-.54-2.08-1.27-.61.42-1.28.76-1.68.58h0c-.22.08-.48,1.21-.64,1.88-.12.5-.23,1-.38,1.47A.56.56,0,0,1,138.22,186.47Zm3.65-7.81c-1,.36-1.78,1-1.85,1.45a.39.39,0,0,0,.21.38,8.48,8.48,0,0,1,1.07.95,9.58,9.58,0,0,0,.85-.7c.36-.33,1.29-1.31,1.29-1.93a.38.38,0,0,0-.12-.29c-.15-.13-.63-.16-1.36.11Z" transform="translate(0 12.45)"/><path class="cls-22" d="M113.78,183c-1.58,32.83,2.34,54.26,32.7,54.35s38-25.6,36.07-60C171.75,181.66,133.41,186,113.78,183Z" transform="translate(0 12.45)"/><path class="cls-23" d="M119.16,183.72c-1.6,28.69,1.61,46.25,27.38,46.49s32.36-21,31-51C163,182,137.06,185.31,119.16,183.72Z" transform="translate(0 12.45)"/><path class="cls-24" d="M74.83,183.52c-4.53.5-16.32-.8-18.56-1.6,1.17,18.3,1.41,49.19,1.41,49.19C63.89,231.4,72.31,231.84,74.83,183.52Z" transform="translate(0 12.45)"/><path class="cls-25" d="M71,183.52c-3.86.6-14-1.2-15.9-1.8,1.44,15.57,2.41,41.9,2.41,41.9C62.79,223.63,70,224.83,71,183.52Z" transform="translate(0 12.45)"/><path class="cls-26" d="M98.78,161.59c-5.37-3.4-10.56-7.06-10.73-12.79-.53-18,6.72-41.82,7.75-54.79a54,54,0,0,1-6.55.31,53.48,53.48,0,0,1-7.48-.63c-.66,19.91-11,49.44-8.44,55.65C76,156,79.85,160.42,85.75,162.1c3.4,10.53-5.9,136.33,0,148.64,5.78.82,11.74,1.52,17.82,2.09C103.07,299.09,97.49,171.39,98.78,161.59Z" transform="translate(0 12.45)"/><path class="cls-27" d="M208.14,35.8c8.9,11.58-4.94,83.42-10,94.6,26.49,28.25,39.67,58,41.48,125.38-50.59,13.23-87.28,9-87.28,9-3-55.3-2.15-75.08-5-85.34-3.92-14.36-6.85-40.48-3.92-59.42s14.41-64.59,16-108.69C179.07,11.28,195.08,18.82,208.14,35.8Z" transform="translate(0 12.45)"/><path class="cls-28" d="M63.18,55.39c-7.21,21.09-7.84,71.83,0,98.6,2.8,9.57,5.15,25.35,4.57,34S65.13,265,65.13,265c-10.44,1.31-19-3.18-18.93-5.87,2.7-23.67,11.42-76.7,4.57-85.55S40.1,157,41,150.73c1.52-10.84,7.07-46,7.19-55.51s-.15-24.82,3.91-30A47.21,47.21,0,0,1,63.18,55.39Z" transform="translate(0 12.45)"/><g class="cls-29"><g class="cls-30"><path class="cls-31" d="M149.44,20.06l-2.33-2.61c11-9.8,43.71-26.91,45.1-27.63l1.62,3.1C193.49-6.9,160.14,10.55,149.44,20.06Z" transform="translate(0 12.45)"/><path class="cls-31" d="M145.3,43.81l-3.24-1.34c3.23-7.81,53.68-42.94,59.42-46.92l2,2.87C182.11,13.23,147.43,38.64,145.3,43.81Z" transform="translate(0 12.45)"/><path class="cls-31" d="M143.6,69.16l-2.36-2.59c7.11-6.46,70.14-48.39,72.82-50.17L216,19.31C215.34,19.75,150.5,62.87,143.6,69.16Z" transform="translate(0 12.45)"/><path class="cls-31" d="M140.07,97.77l-2.36-2.58C147.13,86.6,215.1,40.26,218,38.3l2,2.89C219.25,41.67,149.31,89.35,140.07,97.77Z" transform="translate(0 12.45)"/><path class="cls-31" d="M135.66,124l-2.52-2.42c5-5.24,79.11-52.25,82.26-54.24l1.88,3C195.91,83.88,139.6,119.94,135.66,124Z" transform="translate(0 12.45)"/><path class="cls-31" d="M133.89,150.89l-2-2.84c7.93-5.67,79.19-51.11,82.22-53L216,98C215.22,98.43,141.75,145.28,133.89,150.89Z" transform="translate(0 12.45)"/><path class="cls-31" d="M135,177.44l-2.59-2.35c5.63-6.2,71.23-47.89,74-49.67l1.88,3C189.39,140.38,139.39,172.58,135,177.44Z" transform="translate(0 12.45)"/><path class="cls-31" d="M145.13,230.41l-2.9-2c8.43-12.44,81.21-65.17,84.3-67.41l2.05,2.83C227.83,164.42,153.21,218.48,145.13,230.41Z" transform="translate(0 12.45)"/><path class="cls-31" d="M146.58,256.8l-2.91-2c7.92-11.79,91.38-73.64,94.93-76.27l2.08,2.81C210.78,203.52,152.64,247.76,146.58,256.8Z" transform="translate(0 12.45)"/><path class="cls-31" d="M146.92,278.45l-3.11-1.6c2.89-5.69,79.46-63.23,94.78-74.7l2.1,2.8C204.38,232.14,149.44,274.16,146.92,278.45Z" transform="translate(0 12.45)"/><path class="cls-31" d="M163,288.38l-2.44-2.51c4.9-4.74,79-60.33,82.15-62.69l2.1,2.8C218.14,246,166.76,284.71,163,288.38Z" transform="translate(0 12.45)"/><path class="cls-31" d="M204.16,278.65l-2.85-2c6.14-8.63,44.54-35,46.18-36.12l2,2.88C249.07,243.66,209.94,270.53,204.16,278.65Z" transform="translate(0 12.45)"/><path class="cls-31" d="M221.33,45.25C219.13,39.47,190,9.05,171-10l2.47-2.47c4.9,4.9,47.93,48.11,51.1,56.45Z" transform="translate(0 12.45)"/><path class="cls-31" d="M221.27,69.27C218.8,59.33,169.78,10.81,151.1-7l2.42-2.53c6.95,6.64,68,65.26,71.14,78Z" transform="translate(0 12.45)"/><path class="cls-31" d="M218.57,97c-3.08-9.59-58.5-56.16-79.6-73.3l2.2-2.71C149,27.38,218,83.63,221.9,96Z" transform="translate(0 12.45)"/><path class="cls-31" d="M213.45,123.6c-2.74-5.66-46.07-45.63-74.53-71.11l2.34-2.61c7.29,6.54,71.41,64.1,75.34,72.19Z" transform="translate(0 12.45)"/><path class="cls-31" d="M143,199.53l-2.23-2.69c7.88-6.55,66.33-45.38,76.94-52.42-7.41-7.61-53.15-38.83-82.18-58l1.93-2.92c13.51,8.92,81,53.73,84.35,60.57l.66,1.38-1.27.84C220.5,146.76,151.34,192.6,143,199.53Z" transform="translate(0 12.45)"/><path class="cls-31" d="M231.52,172.38C228,168.1,171,133.9,133.52,112l1.76-3c9.6,5.62,93.92,55.08,98.95,61.22Z" transform="translate(0 12.45)"/><path class="cls-31" d="M238.24,196.37c-2.37-3.17-31.55-18.42-55-30.67-21.46-11.2-41.72-21.79-47.23-25.86l2.08-2.82c5.29,3.92,25.44,14.44,46.77,25.58C218,179.94,238.38,190.72,241,194.28Z" transform="translate(0 12.45)"/><path class="cls-31" d="M242.51,216.8c-5.15-5-45-21.23-71.36-32-19.3-7.85-29.45-12-31-13.29l2.19-2.73c1.45,1.1,15.4,6.77,30.17,12.78C209,196.48,239.74,209.2,245,214.3Z" transform="translate(0 12.45)"/><path class="cls-31" d="M242.57,236.87c-7.19-6.33-93.95-42.07-102.26-43.23l.48-3.46c4.71.66,29.86,10.46,52.27,19.8,10.81,4.5,46.49,19.57,51.83,24.27Z" transform="translate(0 12.45)"/><path class="cls-31" d="M245.64,259.4c-9.89-7.19-91.83-38.83-100.46-39.75l.37-3.48c9.21,1,91.59,32.72,102.15,40.41Z" transform="translate(0 12.45)"/><path class="cls-31" d="M238.53,279c-8.44-6.87-81.06-34.22-92.57-38.3l1.17-3.3c6.88,2.44,84.24,31.26,93.61,38.88Z" transform="translate(0 12.45)"/><path class="cls-31" d="M194.39,282.65c-4.87-4.84-24.59-10.24-36.37-13.47-7.24-2-10.77-3-12-3.74l1.84-3c.88.54,6.07,2,11.1,3.34,13.67,3.74,32.39,8.87,37.92,14.36Z" transform="translate(0 12.45)"/></g></g><path class="cls-32" d="M158.3,9.31c-.88,16.42-17.39,98.72-15.77,120.07,15-14.11,28.56-44.2,31.09-50.28A48.57,48.57,0,0,0,162.43,73a40.15,40.15,0,0,0,15-6.53c.37-20.48.82-49.56-7.43-55.14C162,10.63,158.3,9.31,158.3,9.31Z" transform="translate(0 12.45)"/><g class="cls-33"><g class="cls-34"><path class="cls-31" d="M22.83,50.78l-2-2.24c9.43-8.39,37.4-23,38.59-23.64l1.38,2.65C60.53,27.7,32,42.64,22.83,50.78Z" transform="translate(0 12.45)"/><path class="cls-31" d="M19.28,71.1,16.52,70c2.76-6.69,45.93-36.75,50.84-40.16l1.71,2.46C50.79,44.93,21.11,66.68,19.28,71.1Z" transform="translate(0 12.45)"/><path class="cls-31" d="M17.83,92.79l-2-2.21c6.08-5.53,60-41.41,62.31-42.94l1.66,2.5C79.22,50.51,23.74,87.41,17.83,92.79Z" transform="translate(0 12.45)"/><path class="cls-31" d="M14.81,117.28l-2-2.21c8.06-7.35,66.23-47,68.7-48.69l1.68,2.48C82.57,69.27,22.71,110.07,14.81,117.28Z" transform="translate(0 12.45)"/><path class="cls-31" d="M11,139.76l-2.16-2.07c4.31-4.49,67.7-44.71,70.4-46.42l1.6,2.53C62.6,105.39,14.41,136.25,11,139.76Z" transform="translate(0 12.45)"/><path class="cls-31" d="M9.52,162.74,7.78,160.3c6.79-4.84,67.78-43.73,70.37-45.39l1.61,2.53C79.12,117.84,16.25,157.94,9.52,162.74Z" transform="translate(0 12.45)"/><path class="cls-31" d="M10.46,185.46l-2.22-2c4.82-5.31,61-41,63.34-42.51l1.61,2.53C57,153.74,14.23,181.3,10.46,185.46Z" transform="translate(0 12.45)"/><path class="cls-31" d="M19.14,230.79l-2.48-1.68c7.21-10.64,69.49-55.77,72.14-57.69l1.76,2.43C89.91,174.31,26.05,220.58,19.14,230.79Z" transform="translate(0 12.45)"/><path class="cls-31" d="M20.38,253.37l-2.49-1.66c6.78-10.1,78.2-63,81.24-65.27l1.78,2.4C75.32,207.78,25.57,245.64,20.38,253.37Z" transform="translate(0 12.45)"/><path class="cls-31" d="M20.67,271.9,18,270.53c2.47-4.87,68-54.11,81.11-63.93l1.79,2.4C69.84,232.27,22.83,268.23,20.67,271.9Z" transform="translate(0 12.45)"/><path class="cls-31" d="M34.4,280.4l-2.08-2.15c4.19-4.06,67.6-51.63,70.3-53.65l1.8,2.4C81.62,244.09,37.65,277.25,34.4,280.4Z" transform="translate(0 12.45)"/><path class="cls-31" d="M69.66,272.07l-2.44-1.73c5.25-7.38,38.12-29.95,39.51-30.91l1.7,2.47C108.09,242.13,74.61,265.12,69.66,272.07Z" transform="translate(0 12.45)"/><path class="cls-31" d="M84.35,72.33c-1.88-5-26.77-31-43-47.26L43.42,23c4.19,4.2,41,41.18,43.73,48.31Z" transform="translate(0 12.45)"/><path class="cls-31" d="M84.3,92.89c-2.12-8.51-44.06-50-60-65.31l2.07-2.16c6,5.68,58.17,55.84,60.88,66.75Z" transform="translate(0 12.45)"/><path class="cls-31" d="M82,116.63c-2.64-8.2-50.07-48-68.12-62.72l1.88-2.32c6.72,5.45,65.7,53.59,69.09,64.13Z" transform="translate(0 12.45)"/><path class="cls-31" d="M77.61,139.38c-2.35-4.84-39.43-39-63.78-60.85l2-2.23c6.25,5.59,61.12,54.85,64.48,61.77Z" transform="translate(0 12.45)"/><path class="cls-31" d="M17.32,204.36l-1.91-2.3c6.74-5.6,56.76-38.84,65.84-44.86-6.34-6.51-45.48-33.23-70.32-49.63l1.65-2.49c11.55,7.63,69.36,46,72.18,51.83l.57,1.18-1.09.72C83.64,159.21,24.46,198.43,17.32,204.36Z" transform="translate(0 12.45)"/><path class="cls-31" d="M93.07,181.13c-3-3.67-51.8-32.93-83.87-51.71l1.51-2.58c8.22,4.81,80.38,47.13,84.68,52.39Z" transform="translate(0 12.45)"/><path class="cls-31" d="M98.82,201.66c-2-2.72-27-15.76-47.07-26.25-18.36-9.59-35.7-18.64-40.41-22.13l1.77-2.41c4.53,3.35,21.77,12.36,40,21.89,28.4,14.84,45.81,24.06,48.08,27.11Z" transform="translate(0 12.45)"/><path class="cls-31" d="M102.47,219.15C98.07,214.83,64,201,41.41,191.8c-16.52-6.72-25.2-10.28-26.57-11.37l1.88-2.34C18,179,29.9,183.89,42.54,189c31.3,12.72,57.56,23.61,62,28Z" transform="translate(0 12.45)"/><path class="cls-31" d="M102.53,236.32c-6.15-5.42-80.4-36-87.51-37l.41-3c7.64,1.07,82.43,31.85,89.08,37.71Z" transform="translate(0 12.45)"/><path class="cls-31" d="M105.15,255.6c-8.46-6.16-78.58-33.24-86-34l.32-3c7.88.84,78.38,28,87.41,34.58Z" transform="translate(0 12.45)"/><path class="cls-31" d="M99.07,272.37c-7.22-5.87-69.37-29.28-79.22-32.78l1-2.82c5.89,2.09,72.09,26.76,80.11,33.28Z" transform="translate(0 12.45)"/><path class="cls-31" d="M61.3,275.49c-4.17-4.14-21-8.76-31.13-11.52-6.19-1.7-9.22-2.54-10.28-3.2l1.57-2.55c.75.47,5.2,1.68,9.5,2.86,11.69,3.2,27.72,7.59,32.45,12.29Z" transform="translate(0 12.45)"/></g></g><path class="cls-32" d="M66.44,52.78C54,68.45,57.24,125.4,59.88,138.39c-11.7-11.23-19.56-37.94-19.56-37.94A18.67,18.67,0,0,0,50,93.69a26.46,26.46,0,0,1-9.89-1.41C42.93,80.86,49.46,59.31,66.44,52.78Z" transform="translate(0 12.45)"/><circle class="cls-32" cx="155.57" cy="157.63" r="8.82"/><circle class="cls-32" cx="161.45" cy="202.69" r="7.51"/><circle class="cls-35" cx="164.72" cy="251.66" r="6.86"/><path class="cls-36" d="M194.53,77a50,50,0,1,0,67.91,19.49A50,50,0,0,0,194.53,77Zm43.28,78.12a40.47,40.47,0,1,1,15.79-55A40.47,40.47,0,0,1,237.81,155.15Z" transform="translate(0 12.45)"/><path class="cls-37" d="M211.67,107.83c11.47-6.35,33-7.31,36.84-15,4.55-2.72,12.79,10.07,6.59,10.14-5-2.67-10.54,3.75-12,16.06-1.37,11.42,9.6,12.76,14.88,8.45,5,2.11,1.11,15.24-4.86,12.8-1.27-6.33-12.7-1.9-21.73,3.1l-.1.06c-9,5-18.85,12.35-14.15,16.78-1.1,6.35-14.31,2.71-13.44-2.67,6.46-2.19,11.14-12.2.73-17.1-11.22-5.27-19.59-4-20,1.68-3.35,5.22-9.83-8.56-5.11-11,8.56.78,20.77-16.94,32.24-23.3" transform="translate(0 12.45)"/><ellipse class="cls-38" cx="218.74" cy="120.73" rx="8.37" ry="6.42" transform="translate(-31.1 133.58) rotate(-28.99)"/><path class="cls-39" d="M203.09,32.1c17.41,11.65,36.38,62.22,31,90.35-13.77,7.19-19.16,6-19.16,6C200,108.09,192.77,94.32,185,78.75S183.48,19,203.09,32.1Z" transform="translate(0 12.45)"/><path class="cls-9" d="M119.36,66.74c8.13-5,14.14-11.92,15-19.42" transform="translate(0 12.45)"/></g></g></svg>