<svg xmlns="http://www.w3.org/2000/svg" xmlns:xlink="http://www.w3.org/1999/xlink" width="255.348" height="488.301" ><defs><linearGradient id="A" x1=".486" y1=".217" x2=".52" y2="1.164"><stop offset="0" stop-color="#c3d7f0"/><stop offset="1" stop-color="#8d99a7"/></linearGradient><linearGradient id="B" y1=".5" x2="1" y2=".5"><stop offset="0" stop-color="#5d7d91"/><stop offset="1" stop-color="#374b6b"/></linearGradient><linearGradient id="C" x1=".011" y1=".393" x2=".926" y2=".533"><stop offset="0" stop-color="#535757"/><stop offset="1" stop-color="#0d131b"/></linearGradient><linearGradient id="D" x1=".444" y1="-.068" x2=".744" y2=".874"><stop offset=".219" stop-color="#694538"/><stop offset="1" stop-color="#1c1007"/></linearGradient><linearGradient id="E" xlink:href="#C"/><linearGradient id="F" x1=".456" y1="-.038" x2=".96" y2="1.675" xlink:href="#D"/><linearGradient id="G" x1=".465" y1=".997" x2=".524" y2=".209"><stop offset=".365" stop-color="#fabb80"/><stop offset=".825" stop-color="#faa16c"/></linearGradient><linearGradient id="H" x1="416.571" y1="-58.28" x2="416.089" y2="-57.418"><stop offset=".464" stop-color="#fabb80"/><stop offset="1" stop-color="#faa16c"/></linearGradient><linearGradient id="I" x1="112.448" y1="-10.738" x2="112.458" y2="-11.03"><stop offset=".641" stop-color="#ffd7a5"/><stop offset="1" stop-color="#faa96c"/></linearGradient><linearGradient id="J" x1=".5" y1="2.776" x2=".5" y2=".096" xlink:href="#A"/><linearGradient id="K" x1=".5" y1="2.795" x2=".5" y2="-1.058" xlink:href="#A"/><linearGradient id="L" x1="1.214" y1=".156" x2="-.805" y2="1.091"><stop offset=".351" stop-color="#694538"/><stop offset="1" stop-color="#1c1007"/></linearGradient><linearGradient id="M" x1=".202" y1="-.038" x2=".816" y2=".989"><stop offset="0" stop-color="#b3e571"/><stop offset=".991" stop-color="#4b8b41"/></linearGradient><radialGradient id="N" cx=".5" cy=".5" r="1.607" gradientTransform="translate(0.387) scale(0.225 1)" xlink:href="#C"/><linearGradient id="O" x1=".053" y1=".813" x2=".579" y2=".136"><stop offset="0" stop-color="#7b885d"/><stop offset=".991" stop-color="#556f43"/></linearGradient><linearGradient id="P" x1=".576" y1="-.04" x2=".423" y2="1.046" xlink:href="#O"/><linearGradient id="Q" x1=".527" y1="-.226" x2=".486" y2=".811"><stop offset="0" stop-color="#ddf5f5"/><stop offset="1" stop-color="#c6d9db"/></linearGradient><linearGradient id="R" x1="-.011" y1=".043" x2="1.013" y2=".958"><stop offset=".334" stop-color="#faf8eb"/><stop offset=".571" stop-color="#f3eede"/><stop offset=".956" stop-color="#e3dac1"/></linearGradient><linearGradient id="S" x1=".281" y1="-.223" x2=".684" y2="1.136" xlink:href="#R"/><linearGradient id="T" x1=".194" y1="1.019" x2=".637" y2=".021" xlink:href="#B"/><linearGradient id="U" x1=".504" y1=".472" x2=".653" y2=".766" xlink:href="#Q"/><linearGradient id="V" x1=".808" y1=".481" x2=".296" y2=".8" xlink:href="#Q"/><linearGradient id="W" x1=".629" y1="-1.081" x2=".469" y2=".882" xlink:href="#Q"/><linearGradient id="X" x1=".652" y1="-.59" x2=".336" y2="1.724" xlink:href="#O"/><linearGradient id="Y" x1=".74" y1="-.924" x2=".258" y2="1.858" xlink:href="#O"/><linearGradient id="Z" x1=".498" y1="-.268" x2=".501" y2="1.182" xlink:href="#C"/><linearGradient id="a" x1=".528" y1="1.787" x2=".485" y2="-.853" xlink:href="#C"/><linearGradient id="b" x1=".509" y1="-.043" x2=".488" y2="1.26" xlink:href="#C"/><linearGradient id="c" y1=".5" x2="1" y2=".5"><stop offset="0" stop-color="#9799a1"/><stop offset="1" stop-color="#c6d9db"/></linearGradient><linearGradient id="d" x1=".507" y1="1.069" x2=".465" y2="-.056" xlink:href="#c"/><linearGradient id="e" x1=".285" y1=".208" x2="1.026" y2="1.518"><stop offset="0" stop-color="#c3d7f0"/><stop offset=".571" stop-color="#8d99a7"/></linearGradient><linearGradient id="f" x1=".295" y1=".229" x2="1.001" y2="1.515" xlink:href="#e"/><linearGradient id="g" x1=".281" y1=".211" x2=".91" y2="1.656" xlink:href="#e"/><linearGradient id="h" x1=".308" y1=".152" x2=".907" y2="1.669" xlink:href="#e"/><linearGradient id="i" x1=".338" y1=".109" x2=".884" y2="1.573" xlink:href="#e"/><linearGradient id="j" x1=".321" y1=".102" x2=".857" y2="1.412" xlink:href="#e"/><linearGradient id="k" x1=".78" y1="-.072" x2=".12" y2=".977" xlink:href="#B"/><linearGradient id="l" x1="-193.031" y1="323.276" x2="-193.446" y2="324.327" xlink:href="#I"/><linearGradient id="m" x1="-45.572" y1="57.737" x2="-45.564" y2="57.413" xlink:href="#I"/><linearGradient id="n" x1=".364" y1="-.183" x2=".681" y2="1.387" xlink:href="#A"/><linearGradient id="o" x1=".047" y1="1.004" x2="1.391" y2="-.602" xlink:href="#A"/><linearGradient id="p" x1=".188" y1=".293" x2="1.423" y2="1.628"><stop offset=".173" stop-color="#694538"/><stop offset=".379" stop-color="#56382c"/><stop offset=".793" stop-color="#27170e"/><stop offset=".882" stop-color="#1c1007"/></linearGradient><linearGradient id="q" x1="256.774" y1=".182" x2="256.932" y2="1.538" xlink:href="#A"/><linearGradient id="r" x1="293.817" y1=".19" x2="294.025" y2="1.493" xlink:href="#A"/><linearGradient id="s" x1="345.425" y1=".192" x2="345.639" y2="1.478" xlink:href="#A"/><linearGradient id="t" x1="389.525" y1=".194" x2="389.751" y2="1.468" xlink:href="#A"/><linearGradient id="u" x1="384.563" y1=".195" x2="384.754" y2="1.463" xlink:href="#A"/><linearGradient id="v" x1="427.825" y1=".196" x2="428.013" y2="1.399" xlink:href="#A"/><linearGradient id="w" x1=".862" y1="-.158" x2="-.064" y2=".971" xlink:href="#B"/></defs><path d="M41.663 61.639c-5.2 9.644 131.278-14.162 132.6-25.183 1.56-13.036-107.429-21.504-132.6 25.183z" fill="url(#A)"/><path d="M90.449 459.578v13.969l7.386.8 1.886-14.772z" fill="url(#B)"/><path d="M100.297 470.246l3.823 18.055H93.645l-.734-2.462-13.934 2.462s-23 0-29.561-4.923c.107-1.193.548-2.331 1.273-3.284 6.934 0 28.271-1.641 35.657-9.027 2.462 0 9.026 4.104 13.951-.821z" fill="url(#C)"/><path d="M46.131 256.828c-3.282 58.368 18.876 111.871 21.339 124.518s20.517 66.15 20.517 83.66c6.564 1.946 12.536.974 13.654 0 5.517-29.183 11.785-57.395 2.758-68.1-.821-21.4 13.132-106.034 17.234-123.544-23.798-11.671-63.189-22.37-75.502-16.534z" fill="url(#D)"/><path d="M164.31 459.578v13.969l7.386.8 1.886-14.772z" fill="url(#B)"/><path d="M174.158 470.246l3.823 18.055h-10.473l-.734-2.462-13.934 2.462s-23 0-29.563-4.923c.107-1.193.549-2.331 1.275-3.284 6.932 0 28.269-1.641 35.656-9.027 2.459 0 9.025 4.104 13.95-.821z" fill="url(#E)"/><path d="M178.26 251.964c15.594 32.1-1.016 116.735-3.791 143.974 8.4 5.836 10.982 17.81 0 70.191-3.087 2.618-13.443-1.124-14.264-3.069-.821-35.021-24.759-95.593-30.365-108.952s-58.268-49.613-54.986-90.471c49.241-12.645 103.406-11.673 103.406-11.673z" fill="url(#F)"/><path d="M156.923 0s-.821 37.751 1.641 49.24c-2.462 47.6-48.015 72.081-62.37 67.3-24.621-8.207-10.67-81.246-5.745-94.378S156.923 0 156.923 0z" fill="url(#G)"/><path d="M58.132 275.463c-2.533-.8 5.526 15.025 8.869 14.39s8.531-8.922-8.869-14.39z" fill="url(#H)"/><path d="M30.342 229.187l21.477 40.86c8.781 5.189 15.129 8.461 14.077 12.412s6.84 18 1.4 19.361-13.781-1.234-13.781-1.234c-.276 2.312-3.015 4.063-4.7 1.862s-11.845-13.261-12.281-16.647 3.713-15.6 3.488-16.943c-1.864-6.416-18.443-36.338-18.443-36.338z" fill="url(#I)"/><path d="M37.926 72.218C21.555 83.896-2.274 117.585.175 176.444c1.641 39.392 40.46 35.177 41.033-3.282S78.161 43.519 37.926 72.218z" fill="url(#J)"/><path d="M3.022 203.074c3.866 27.879 22.219 65.156 33.262 73.494 5.407-1.961 10.294-5.135 14.284-9.278-2.826-35.373-3.727-59.226-15.209-72.951s-36.959-24.6-32.337 8.735z" fill="url(#K)"/><path d="M60.084 269.182c.821 6.564-9.027 26.26-16.414 29.544 5.745 10.669 8.231 25.23 8.231 25.23 13.927-2.252 36.907-31.796 8.183-54.774z" fill="url(#L)"/><path d="M119.173 74.681L104.4 83.709l-6.949 21.058-4.033-20.954-10.355-14.877s-23.8 41.854 12.72 51.755c23.658 6.414 48.831-27.134 23.39-46.01z" fill="#a2b2bc"/><path d="M157.49 32.505c-46.51 96.71-86.375 96.71-71.611 9.6C43.8 70.158 37.926 72.221 37.926 72.221c-19.573 35.683-17.17 127.026 12.31 190.4-2.462 12.31 91.934 30.1 128.845-1.641 6.566-100.122 22.483-152.535 48.888-182.074-34.652-29.308-58.667-39.018-70.479-46.401z" fill="url(#M)"/><path d="M46.952 255.229c14.283 9.073 73.39 30.54 133.125-4.836-.349 5.57-1 10.582-1 10.582-18.055 20.517-92.735 28.724-128.845 4.923a51.3 51.3 0 0 0-3.28-10.669z" fill="url(#N)"/><path d="M166.771 36.931c-2.373-1.3-7.475-3.3-9.281-4.426-46.51 96.71-86.375 96.71-71.611 9.6q-4.589 3.059-8.61 5.711c-18.874 87.672 37.798 97.444 89.502-10.885z" fill="url(#O)"/><path d="M92.157 126.535L60.24 185.383c3.989 18.95 26.929 59.846 26.929 59.846 4.988-14.962 26.443-59.368 26.443-59.368-6.495-13.444-20.457-50.35-21.455-59.326z" opacity=".5" fill="url(#P)"/><path d="M147.896 44.806S95.372 160.853 88.808 160.031s-4.925-110.79-4.925-110.79" fill="none" stroke="#283547" stroke-miterlimit="10" stroke-width=".964"/><path d="M68.291 164.135c12.31-.821 34.467 0 39.392.82 2.462 6.566-.821 26.262-.821 26.262-3.284 1.641-37.751-1.643-39.392-2.463-.826-4.099.001-19.699.821-24.619z" fill="url(#Q)"/><path d="M69.932 166.596c6.564-.821 32.006-.821 35.288.821v4.593c-4.923-.489-34.467-1-35.288-1.153z" fill="url(#R)"/><path d="M70.421 185.882s-.664-9.472 0-12.458c1.817.034 6.9-.262 8.539.558.821 4.1 0 10.669-.82 12.31-1.643 0-7.231-.82-7.719-.41z" fill="url(#S)"/><path d="M87.865 167.557c1.764-2.6 3.4-9.167.943-9.167s-1.886 7.666-.943 9.167z" fill="url(#T)"/><path d="M156.92 26.262c-3.284 9.027-44.317 52.522-52.524 57.447 9.848-4.1 13.952-9.028 31.187 12.31 5.744-14.773 24.49-56.913 24.965-61.693-1.509-6.28-3.628-8.064-3.628-8.064z" fill="url(#U)"/><path d="M93.418 83.813l-7.895-44.421-4.1 4.1-13.13 43.5c14.769-12.31 19.694-11.49 25.125-3.179z" fill="url(#V)"/><circle cx="108.503" cy="88.633" r="3.283" fill="url(#W)"/><path d="M137.531 157.632l-17.114 28.57 12.63 27.11 13.14-25.777c.88-1.452-7.956-23.875-8.656-29.903z" opacity=".5" fill="url(#X)"/><path d="M54.254 183.389c-1 4.988-7.979 20.946-8.976 24.936-2.993-4.986-7.979-24.936-7.979-24.936l8.478-21.392z" opacity=".5" fill="url(#Y)"/><path d="M84.564 256.641c7.8.78 36.129 1.769 50.434-1.456 2.872 9.93 5.975 30.479 0 34.687s-44.263 4.683-49.654 1.088c-7.021-4.68-.78-34.319-.78-34.319z" fill="url(#Z)"/><path d="M87.684 262.099l-3.12-5.459s44.782-.417 50.081-1.379l-2.5 6.059c-7.801 3.12-39.001 3.9-44.461.779z" fill="url(#a)"/><path d="M87.684 262.275c10.139 4.419 39.779 3.682 44.46-.737-14.82-3.683-39.78-.736-44.46.737z" fill="#0d131b"/><path d="M131.362 287.841c-2.339 3.9-39.779 5.459-43.679.78-2-2.4-.781-21.841 0-26.521 3.119.78 31.2 3.12 44.46-.78.78 3.9 1.231 23.171-.781 26.521z" fill="url(#b)"/><path d="M109.824 264.597c-8.306 0-16.657-.5-21.5-1.422a.78.78 0 0 1-.465-1.286.78.78 0 0 1 .755-.246c9.753 1.845 33.87 2 42.606-.3a.78.78 0 1 1 .4 1.508c-4.547 1.2-13.147 1.746-21.796 1.746z" fill="url(#c)"/><path d="M131.281 262.12c-1.478-.017-2.809 10.352-2.257 10.9.78.78 4.68 1.559 4.68 0s-.947-10.886-2.423-10.9z" fill="url(#d)"/><path d="M230.424 79.502c-.952-7.78-45.24-44.9-63.961-49.062-1.559 10.81-2.339 19.957-7.8 34.093 8.58 8.316 51.016 33.39 55.147 35.821s18.954-1.727 16.614-20.852z" fill="url(#e)"/><path d="M159.444 62.039c6.241 0 49.142 33.262 54.6 37.419s3.684 29.5-12.979 28.055-54.816-23.591-53.169-28.991c4.528-14.863 9.207-27.336 11.548-36.483z" fill="url(#f)"/><path d="M203.902 123.574c5.332 4.263 5.461 20.789-4.68 23.285s-59.105-2.223-57.72-9.979c3.12-17.463 3.9-29.936 7.021-39.084 6.239-.001 52.261 23.284 55.379 25.778z" fill="url(#g)"/><path d="M197.879 143.814c-11.113-2.089-45.839-10.927-55.6-11.092-1.559 12.473-3.9 23.283-4.005 37.971-.1 13.244 58.586 6.2 62.708 4.329 5.261-2.387 7.253-29.262-3.103-31.208z" fill="url(#h)"/><path d="M139.163 170.141c-.78 9.979-2.339 22.452-4.68 42.411 11.7 2.494 50.7.831 55.381-1.663s17.658-37.474 9.608-38.279-60.309-2.469-60.309-2.469z" fill="url(#i)"/><path d="M189.05 208.287c6.428.427 4.046 27.016-4.2 32.271s-47.7 10.492-50.206 8.7c-1.1-9.393.451-38.594.145-39.316 18.108-2.271 52.667-1.762 54.261-1.655z" fill="url(#j)"/><path d="M165.683 34.345c-3.12 31.98-17.941 63.959-24.96 115.439-2.848 20.879-4.358 89.766-6.079 99.483-4.223-33.606.868-91.372 5.814-118.827s22.885-89.081 25.225-96.095z" fill="url(#k)"/><path d="M163.793 271.705c3.277-.177-11.22 16.3-15.03 14.509s-7.47-13.292 15.03-14.509z" fill="url(#l)"/><path d="M211.244 224.822l-38.235 42.334c-12.1 3.522-20.7 5.493-20.655 10.546s-13.706 19.458-7.606 22.748 16.875 2.746 16.875 2.746c-.378 2.853 2.365 5.788 5.059 3.67s18.244-12.245 19.8-16.166.333-19.81 1.015-21.354c4.2-7.111 33.216-37.852 33.216-37.852z" fill="url(#m)"/><path d="M230.424 79.58c16.61 11.959 31.9 51.85 21.562 110.909s-39.275 21.061-48.52-16.979c-11.254-46.306 7.458-107.971 26.958-93.93z" fill="url(#n)"/><path d="M244.862 215.456c-9.393 25.913-44.472 57.841-56.753 63.574-13.951-3.284-19.4-16.036-19.4-16.036 9.926-33.3 22.573-68.625 36.371-79.426s51.014.904 39.782 31.888z" fill="url(#o)"/><path d="M147.076 276.566c2.462 14.773 24.667 19.907 34.491 19.8-16.46 36.723-62.395 27.799-34.491-19.8z" fill="url(#p)"/><path d="M29.183 74.119c6.241-9.36 25.739-23.349 44.46-27.3-3.9 6.239-10.92 14.819-10.131 26.155-8.58 7.9-33.317 18.334-37.45 20.644s-7.041-4.253 3.121-19.499z" fill="url(#q)"/><path d="M62.733 71.385c-6.241 0-31.99 15.944-37.45 19.9s-12.48 35.88-2.339 36.66c16.669 1.282 32.871-17.274 33.54-22.621 1.559-12.484 5.459-24.185 6.249-33.939z" fill="url(#r)"/><path d="M23.732 126.733c-5.332 4.052-9.359 25.995.78 28.365s30.787-5.892 30.421-13.382c-.79-16.116-.01-25.476 1.559-36.355-6.239-.001-29.639 19.002-32.76 21.372z" fill="url(#s)"/><path d="M25.857 152.205c11.127-5.546 18.537-14.281 28.3-14.439l-.01 35.414c.1 12.584-24.149 12.8-28.272 11.019-5.263-2.267-9.434-27.3-.018-31.994z" fill="url(#t)"/><path d="M54.154 173.321c.78 9.482.78 18.993 3.119 37.957-11.7 2.37-22.619 3.91-27.3 1.539s-11.71-26.378-2.589-30.911c7.24-3.599 26.77-8.585 26.77-8.585z" fill="url(#u)"/><path d="M30.79 210.346c-6.428.409-2.828 26.482 5.419 31.475s19.339 4.818 21.839 3.12c1.1-8.927-1.382-35.451-1.076-36.137-18.114-2.164-24.593 1.441-26.182 1.542z" fill="url(#v)"/><path d="M75.443 42.256c-16.62 33.424-17.4 71.643-18.959 99.723s4.346 84.477 1.782 99.958c-5.905-69.655-7.918-90.265-4.123-127.257 3.121-30.42 6.718-52.028 21.3-72.424z" fill="url(#w)"/></svg>
