<svg xmlns="http://www.w3.org/2000/svg" xmlns:xlink="http://www.w3.org/1999/xlink" viewBox="0 0 217.6 414.75"><defs><style>.cls-1{fill:url(#Безымянный_градиент_783);}.cls-2{fill:#283547;}.cls-3{fill:url(#Новый_образец_градиента_копия_2);}.cls-4{fill:url(#Безымянный_градиент_1624);}.cls-5{fill:url(#Безымянный_градиент_447);}.cls-6{fill:url(#Новый_образец_градиента_копия_2-2);}.cls-7{fill:url(#Безымянный_градиент_1624-2);}.cls-25,.cls-29,.cls-8{fill:none;stroke-miterlimit:10;}.cls-8{stroke:#5e80a0;stroke-width:1.26px;}.cls-9{fill:url(#Безымянный_градиент_446);}.cls-10{fill:#087265;}.cls-11{fill:url(#Безымянный_градиент_1861);}.cls-12{fill:url(#Безымянный_градиент_1842);}.cls-13{fill:url(#Безымянный_градиент_1847);}.cls-14{fill:url(#Безымянный_градиент_783-2);}.cls-15{fill:url(#Безымянный_градиент_1865);}.cls-16{fill:url(#Безымянный_градиент_1865-2);}.cls-17{fill:url(#Безымянный_градиент_446-2);}.cls-18{fill:url(#Безымянный_градиент_1850);}.cls-19{fill:url(#Безымянный_градиент_783-3);}.cls-20{fill:url(#Безымянный_градиент_159);}.cls-21{fill:url(#Безымянный_градиент_1858);}.cls-22{fill:url(#Новый_образец_градиента_копия_3);}.cls-23{fill:url(#Безымянный_градиент_481);}.cls-24{fill:#e86b56;}.cls-25{stroke:#bdbfc6;stroke-width:0.5px;}.cls-26{fill:#6473a0;}.cls-27{fill:url(#Новый_образец_градиента_копия_2-3);}.cls-28{fill:url(#Безымянный_градиент_158);}.cls-29{stroke:#283547;stroke-linecap:round;stroke-width:0.65px;}.cls-30{fill:url(#Безымянный_градиент_600);}.cls-31{fill:url(#Новый_образец_градиента_копия_2-4);}.cls-32{fill:url(#Безымянный_градиент_1843);}.cls-33{fill:url(#Безымянный_градиент_3070);}.cls-34{fill:url(#Безымянный_градиент_3070-2);}.cls-35{fill:url(#Безымянный_градиент_3070-3);}.cls-36{fill:url(#Безымянный_градиент_159-2);}.cls-37{fill:url(#Безымянный_градиент_159-3);}.cls-38{fill:url(#Безымянный_градиент_1850-2);}</style><linearGradient id="Безымянный_градиент_783" x1="74.53" y1="417.92" x2="77.03" y2="383.09" gradientUnits="userSpaceOnUse"><stop offset="0.46" stop-color="#fabb80"/><stop offset="1" stop-color="#faa16c"/></linearGradient><linearGradient id="Новый_образец_градиента_копия_2" x1="43.76" y1="411.48" x2="85.42" y2="411.48" gradientUnits="userSpaceOnUse"><stop offset="0" stop-color="#5d7d91"/><stop offset="1" stop-color="#374b6b"/></linearGradient><linearGradient id="Безымянный_градиент_1624" x1="62.13" y1="158.65" x2="74.78" y2="320.78" gradientUnits="userSpaceOnUse"><stop offset="0" stop-color="#8bd7ef"/><stop offset="1" stop-color="#4777b3"/></linearGradient><linearGradient id="Безымянный_градиент_447" x1="127.87" y1="402.11" x2="130.37" y2="367.28" gradientUnits="userSpaceOnUse"><stop offset="0.79" stop-color="#fabb80"/><stop offset="0.95" stop-color="#faa16c"/></linearGradient><linearGradient id="Новый_образец_градиента_копия_2-2" x1="95.36" y1="411.48" x2="137.01" y2="411.48" xlink:href="#Новый_образец_градиента_копия_2"/><linearGradient id="Безымянный_градиент_1624-2" x1="104.36" y1="157.05" x2="148.94" y2="391.07" xlink:href="#Безымянный_градиент_1624"/><linearGradient id="Безымянный_градиент_446" x1="140.18" y1="36.11" x2="136.35" y2="79.48" gradientUnits="userSpaceOnUse"><stop offset="0" stop-color="#404e4f"/><stop offset="0.31" stop-color="#3a4647"/><stop offset="0.8" stop-color="#292f33"/><stop offset="1" stop-color="#212429"/></linearGradient><linearGradient id="Безымянный_градиент_1861" x1="18.01" y1="165.73" x2="33.33" y2="84.9" gradientUnits="userSpaceOnUse"><stop offset="0" stop-color="#43dcaa"/><stop offset="0.44" stop-color="#008d81"/></linearGradient><radialGradient id="Безымянный_градиент_1842" cx="-192.11" cy="143.28" fx="-203.45770742994725" fy="131.09786969534034" r="88.38" gradientTransform="translate(245.54) scale(0.93 1)" gradientUnits="userSpaceOnUse"><stop offset="0" stop-color="#43dcaa"/><stop offset="0.77" stop-color="#008d81"/></radialGradient><radialGradient id="Безымянный_градиент_1847" cx="-187.51" cy="60.69" r="102.04" gradientTransform="translate(245.54) scale(0.93 1)" gradientUnits="userSpaceOnUse"><stop offset="0" stop-color="#43dcaa"/><stop offset="1" stop-color="#008d81"/></radialGradient><linearGradient id="Безымянный_градиент_783-2" x1="83.2" y1="51.26" x2="79.41" y2="28.51" xlink:href="#Безымянный_градиент_783"/><linearGradient id="Безымянный_градиент_1865" x1="72.94" y1="51.54" x2="121.03" y2="18.16" gradientUnits="userSpaceOnUse"><stop offset="0.44" stop-color="#43dcaa"/><stop offset="1" stop-color="#008d81"/></linearGradient><linearGradient id="Безымянный_градиент_1865-2" x1="89" y1="53.82" x2="45.82" y2="22.75" xlink:href="#Безымянный_градиент_1865"/><linearGradient id="Безымянный_градиент_446-2" x1="107.84" y1="85.43" x2="147.56" y2="85.43" xlink:href="#Безымянный_градиент_446"/><linearGradient id="Безымянный_градиент_1850" x1="148.51" y1="-1.22" x2="162.44" y2="112.2" gradientTransform="matrix(1, 0, 0, 1, 0, 0)" xlink:href="#Безымянный_градиент_1847"/><linearGradient id="Безымянный_градиент_783-3" x1="3521.8" y1="-2861.38" x2="3518.06" y2="-2853.8" gradientTransform="matrix(-0.12, 0.99, 0.99, 0.12, 3326.44, -2970.99)" xlink:href="#Безымянный_градиент_783"/><linearGradient id="Безымянный_градиент_159" x1="4671.06" y1="-2175.26" x2="4671.39" y2="-2189.21" gradientTransform="matrix(-0.58, 0.81, 0.81, 0.58, 4539.42, -2349.26)" gradientUnits="userSpaceOnUse"><stop offset="0.64" stop-color="#ffd7a5"/><stop offset="1" stop-color="#faa96c"/></linearGradient><linearGradient id="Безымянный_градиент_1858" x1="36.44" y1="187.31" x2="11.14" y2="127.21" gradientUnits="userSpaceOnUse"><stop offset="0.03" stop-color="#43dcaa"/><stop offset="0.8" stop-color="#008d81"/></linearGradient><linearGradient id="Новый_образец_градиента_копия_3" x1="-23.02" y1="157.06" x2="7.02" y2="157.06" gradientTransform="translate(213.32 51.41) rotate(45.52)" gradientUnits="userSpaceOnUse"><stop offset="0" stop-color="#ddf5f5"/><stop offset="1" stop-color="#c6d9db"/></linearGradient><linearGradient id="Безымянный_градиент_481" x1="7.31" y1="186.63" x2="-10.76" y2="141.92" gradientTransform="translate(213.32 51.41) rotate(45.52)" gradientUnits="userSpaceOnUse"><stop offset="0" stop-color="#ddf5f5"/><stop offset="1" stop-color="#fafff5"/></linearGradient><linearGradient id="Новый_образец_градиента_копия_2-3" x1="94.12" y1="134.33" x2="94.12" y2="156.61" gradientTransform="translate(263.75 86.58) rotate(90)" xlink:href="#Новый_образец_градиента_копия_2"/><linearGradient id="Безымянный_градиент_158" x1="94.5" y1="136.93" x2="93.8" y2="187.18" gradientTransform="translate(5.41 15.52)" gradientUnits="userSpaceOnUse"><stop offset="0" stop-color="#fff"/><stop offset="1" stop-color="#c6d9db"/></linearGradient><linearGradient id="Безымянный_градиент_600" x1="81.06" y1="139.64" x2="91.24" y2="158.08" gradientTransform="translate(191.12 14.09) rotate(58.87)" gradientUnits="userSpaceOnUse"><stop offset="0" stop-color="#ddf5f5" stop-opacity="0"/><stop offset="1" stop-color="#faffff" stop-opacity="0.5"/></linearGradient><linearGradient id="Новый_образец_градиента_копия_2-4" x1="94.12" y1="188.81" x2="94.12" y2="195.45" gradientTransform="translate(-17.84 2.4)" xlink:href="#Новый_образец_градиента_копия_2"/><linearGradient id="Безымянный_градиент_1843" x1="72.64" y1="127.07" x2="78.13" y2="212.48" gradientTransform="matrix(1, 0, 0, 1, 0, 0)" xlink:href="#Безымянный_градиент_1847"/><linearGradient id="Безымянный_градиент_3070" x1="2225.96" y1="-139.99" x2="2225.96" y2="-46.49" gradientTransform="translate(-1734.35 1401.62) rotate(-28.99)" gradientUnits="userSpaceOnUse"><stop offset="0" stop-color="#5d7d91"/><stop offset="1" stop-color="#170f1f"/></linearGradient><linearGradient id="Безымянный_градиент_3070-2" x1="1340.97" y1="-111.76" x2="1340.22" y2="-57.47" gradientTransform="matrix(-0.87, 0.48, 0.48, 0.87, 1385.51, -326.92)" xlink:href="#Безымянный_градиент_3070"/><linearGradient id="Безымянный_градиент_3070-3" x1="2225.86" y1="-100.51" x2="2226.05" y2="-86.63" gradientTransform="translate(-2058.33 334.51)" xlink:href="#Безымянный_градиент_3070"/><linearGradient id="Безымянный_градиент_159-2" x1="5371.02" y1="359.61" x2="5365.5" y2="370.77" gradientTransform="translate(-3399.81 -3851.13) rotate(44.88)" xlink:href="#Безымянный_градиент_159"/><linearGradient id="Безымянный_градиент_159-3" x1="4751.28" y1="1534.65" x2="4751.72" y2="1515.53" gradientTransform="translate(-3973.85 -2614.86) rotate(16.28)" xlink:href="#Безымянный_градиент_159"/><linearGradient id="Безымянный_градиент_1850-2" x1="4071.12" y1="1870.9" x2="4079.3" y2="1937.45" gradientTransform="matrix(1, -0.03, 0.03, 1.14, -3978.13, -1926.94)" xlink:href="#Безымянный_градиент_1847"/></defs><g id="Слой_2" data-name="Слой 2"><g id="Слой_2-2" data-name="Слой 2"><path class="cls-1" d="M85.65,356c-1.22,9.79-8.5,39.83-6.07,48.32C76.54,407.57,72,406,72,406c.26-8.89-1.56-42.85.87-52.64C79,352.71,85.65,356,85.65,356Z"/><path class="cls-2" d="M82.42,397.53c1.06,5.17,4.07,6.89,1.77,17.22H47.74c-5.87-8.61-4.85-5.26,19.7-15,2.22-9.34,1.08-11.55,1.21-23.51,3.64-.65,17.24,0,17,1.31A198,198,0,0,0,82.42,397.53Z"/><path class="cls-3" d="M73,410.16c2.22-1.12,11.12,0,11.88.57s.66,2.87.16,4h-39c-3.29-4-2.41-7.13-1.2-6.43S58.15,417.62,73,410.16Z"/><path class="cls-4" d="M32.34,188.39c11.42,46.78,14.46,84,20.53,103.6S65,341,66.22,361.86c3,5.22,21.25,3.91,24.28.65.61-18.94,6.68-36.57,4.86-49.63S80.93,283.36,98.16,209C76.17,198,32.34,188.39,32.34,188.39Z"/><path class="cls-5" d="M137.85,356c-1.21,9.79-8.5,39.83-6.07,48.32-3,3.27-7.54,1.71-7.54,1.71.26-8.89-1.56-42.85.86-52.64C131.17,352.71,137.85,356,137.85,356Z"/><path class="cls-2" d="M134,397.53c1.07,5.17,4.08,6.89,1.78,17.22H99.33c-5.87-8.61-4.84-5.26,19.7-15,2.23-9.34,1.08-11.55,1.22-23.51,3.64-.65,17.23,0,17,1.31C136,384.06,134.82,389.28,134,397.53Z"/><path class="cls-6" d="M124.58,410.16c2.22-1.12,11.12,0,11.88.57s.66,2.87.16,4h-39c-3.3-4-2.41-7.13-1.2-6.43S109.74,417.62,124.58,410.16Z"/><path class="cls-7" d="M149.56,167.81c13.79,16.43-1.39,54.3-5.64,76.51s9,59.81,6.6,73.33-9,40.29-9,46.17c-6.07,5.22-24.88,2.89-25.8-1.82,3.65-23.79-3.69-55.87-7.58-67.4-7.29-21.55-38.37-74-42.86-101.66C107.86,176.85,134.9,150.35,149.56,167.81Z"/><path class="cls-8" d="M126.28,190.27c4.89,13.56-3.6,54-1.78,65.15S136.64,309,136,318.11s-5.09,46.43-5.88,48.68"/><path class="cls-8" d="M130.53,190.27c4.89,13.56-3.61,54-1.78,65.15s12.14,53.54,11.53,62.69-5.09,46.43-5.88,48.68"/><path class="cls-9" d="M111.8,37.64c6.51-5,55.19,2.29,58.22,19.92s3.65,66-12.74,73.14-49.49-.32-54.79-10.29S98.5,47.75,111.8,37.64Z"/><path class="cls-10" d="M53.16,14.66c-2.11,1.76-15.23,22.8,12.57,35.79s56.11-20.94,54.71-34S99.09,0,99.09,0Z"/><path class="cls-11" d="M33.86,47.77c-9.94,7.82-8.92,9.79-14.38,26.11S12.8,98.05,14,117.64,29.8,143.1,38.91,133.31s1.21-20.9,3.64-32S55.53,53,33.86,47.77Z"/><path class="cls-12" d="M49.22,38.62C31.62,50.38,28,45.81,31,64.74s-.6,32-7.89,42.45,9.11,20.89,12.14,23.51c-2.43,20.24-19.42,51.58-1.21,64S99,214.28,130,184.24c7.68-7.45,40.06-32.65,17.6-55.5-4.85-18.29,7.29-62.69,1.22-75.1-14-10.45-25.5-20.89-29.75-21.55S49.22,38.62,49.22,38.62Z"/><path class="cls-13" d="M35.26,130.7c-3-2.62-19.42-13.06-12.14-23.51S34.05,83.68,31,64.74s.61-14.36,18.21-26.12c0,0,65.56-7.18,69.81-6.53s15.79,11.1,29.75,21.55c3.94,8.06.2,29.61-1.57,48.74-8.14,23.74-27.68,30.71-46.44,28.2S52.26,118.94,35.26,130.7Z"/><path class="cls-10" d="M147.52,166.4c4.33,2.38,4.29,5.43,4.29,5.43-8.5,20.9-35.81,39.18-72.23,38.53C104.46,201.22,121.38,196.88,147.52,166.4Z"/><path class="cls-14" d="M101.73,10.54s-8.8,18.29,5.16,26.12C91.72,50.38,58.33,49.72,55.3,40.58c6.07-3.26,7.28-9.14,7.28-16.32S101.73,10.54,101.73,10.54Z"/><path class="cls-15" d="M111.65,2.86C135.42,4.67,130,19.69,128.14,38c-4.25-2.61-9.11-5.88-9.11-5.88-16.39,19.59-38.32,7.37-50.73,29.8-3-12.58,12.06-25.39,30.79-31.84s15.09-17.55,4.16-19.51S111.65,2.86,111.65,2.86Z"/><path class="cls-16" d="M52.26,10.54C43.15,21,33,26.78,33.84,32.38S64.4,43.85,69.26,57.56c4.25-8.49,2.55-14.12-2.37-17.51s-21.31-6-12.2-18.41S52.26,10.54,52.26,10.54Z"/><path class="cls-17" d="M136,43.85l-6.68-5.23c-42.68,55.84-14,107.75,18.21,90.12-.6-2.62-1.16-10-1.16-10C124.5,133.31,96.57,103.27,136,43.85Z"/><path class="cls-18" d="M148.78,53.64c7.48,4.18-1.82,11.1,10.32,24.16s7.89,9.14,10.32,22.86,26.71,25.46,7.89,37.22S151.17,141.14,147,132s1.74-13.77-3.08-23.53S132.39,44.5,148.78,53.64Z"/><path class="cls-19" d="M46.8,160.73c-2,.59,4.77,14.36,11.53,8.49C59.54,166.61,57.72,157.47,46.8,160.73Z"/><path class="cls-20" d="M18.81,148.29c13.82,8.46,18.74,11.24,18.74,11.24,8.13.31,13.78.2,15.08,3.45s12.33,10.38,10,13.89a9.24,9.24,0,0,1-8.84,4c1,1.77-4.3,3.79-6.46,2.86s-9.68-4.62-11.64-6.89-5.1-11.28-5.91-12.16c-4.37-3.89-14.87-10.55-14.87-10.55Z"/><path class="cls-21" d="M12.8,111.76C6.73,117.64-4.7,126.41,2.54,134.1c-5,12.12-2.48,20.76,6,21.41,0,8.49.36,17.69,5,20.92s9.53-7.21,14.39-5.25c-.61-6.53,3-13.71,6.07-15-1.22-5.87,7.28-11.1,1.82-14.36,0-7.84-4.55-10.19-6.68-11.76C17.66,121.55,18.87,105.88,12.8,111.76Z"/><path class="cls-10" d="M37.72,158.82l-3.67-2.66c-4.86,0-9.11,12.41-6.07,15a13.64,13.64,0,0,0,4.36.53C31,169.22,32.89,159.51,37.72,158.82Z"/><path class="cls-10" d="M85,143.88c1.32,11.5,14,37.75,34.65,45.59-58.88,14.36-81.34,0-83.16-3.92S85,143.88,85,143.88Z"/><path class="cls-22" d="M104.54,126c5.23,5.32,15.76,18.19,21,21.43-9.31,9.14-35.43,33.39-35.43,33.39-6.39-.06-21.54-11.9-21.86-15.1C76.16,159.38,97.75,136.25,104.54,126Z"/><path class="cls-23" d="M106.55,134.47c5.63,5,15.13,13.26,19,12.94C113.77,159.72,93.38,178.34,88,187.88c-3.89-1.1-13.77-7.58-19.38-14.73C74.67,167.18,97.92,146.45,106.55,134.47Z"/><polygon class="cls-24" points="110.83 147.76 109.3 146.53 110.53 145 108.72 143.56 107.5 145.09 105.96 143.87 104.52 145.67 106.05 146.9 104.83 148.43 106.63 149.87 107.86 148.34 109.39 149.57 110.83 147.76"/><path class="cls-25" d="M123.44,149.52c-2.83-.74-13.41-7.93-16.57-11.15-2.87,3.52-31.16,32-34,34.82,2.45,3.93,12,10.73,17.1,11.67"/><path class="cls-26" d="M99.07,156.57c-.14-.14-.45-.46,2.65-5.41L97.13,154a.26.26,0,0,1-.35-.09.25.25,0,0,1,.09-.34l5.5-3.34a.26.26,0,0,1,.31,0h0a.26.26,0,0,1,0,.31,44.37,44.37,0,0,0-3.21,5.64,8.79,8.79,0,0,0,1.1-.48c.92-.46,1.42-.69,1.71-.46a.41.41,0,0,1,.12.45,4.21,4.21,0,0,0,.1,2.36,12.55,12.55,0,0,0,2.15-.46c2.21-.57,3.28-.8,3.64-.44a.42.42,0,0,1,.08.43c-.07.23-.15.45-.23.67a3.05,3.05,0,0,0-.28,2,.25.25,0,0,1-.17.31.26.26,0,0,1-.32-.17,3.5,3.5,0,0,1,.3-2.29q.1-.28.21-.6a14.23,14.23,0,0,0-3.11.6c-1.88.48-2.38.58-2.6.36-.45-.46-.45-1.9-.28-2.77a8,8,0,0,0-1.1.48C99.86,156.62,99.35,156.85,99.07,156.57Z"/><path class="cls-26" d="M96.08,166.41l0,0c-.38-.51.13-1.5,1.26-3.44l-.44-.13a3,3,0,0,0-2.24-.09.89.89,0,0,1-1,0c-.58-.45-.3-1.85.08-3.29,0-.12,0-.15,0-.16-.19-.18-1.12-.1-2.36.34a.26.26,0,0,1-.32-.15.24.24,0,0,1,.15-.32c.68-.24,2.33-.75,2.87-.24a.61.61,0,0,1,.16.65c-.56,2.15-.41,2.66-.26,2.78s.24,0,.46-.09a3.33,3.33,0,0,1,2.61.05l.57.16,0,0c.18-.3.36-.62.55-1Q99,160,99.78,160.1a.89.89,0,0,1,.63.81,1.92,1.92,0,0,1-.94,1.94,2.5,2.5,0,0,1-1.67.19c-.78,1.34-1.57,2.74-1.37,3,0,0,.09.1.57,0a13.87,13.87,0,0,0,2.68-1.22c1.32-.72,1.8-1,2.07-.68h0c.22.23,0,.59-.07.75-.26.48-.21.59-.21.59s.3.09.43.11a1.81,1.81,0,0,1,1.15.43.26.26,0,0,1,0,.36.24.24,0,0,1-.35,0,1.4,1.4,0,0,0-.85-.29c-.33,0-.67-.08-.82-.37s-.06-.56.22-1.06l0-.07a13.11,13.11,0,0,0-1.36.68,13.52,13.52,0,0,1-2.8,1.26C96.93,166.58,96.37,166.71,96.08,166.41Zm3.7-5.76a.14.14,0,0,0-.09-.05c-.2,0-.6.24-1.12,1.13l-.49.84a1.82,1.82,0,0,0,1.15-.16,1.41,1.41,0,0,0,.68-1.42A.6.6,0,0,0,99.78,160.65Z"/><path class="cls-26" d="M86.35,170.8a.3.3,0,0,1-.07-.1c-.27-.5.44-1.43,2.26-3.6.72-.85,1.45-1.73,1.91-2.41.2-.29.19-.39.19-.39-.45-.25-4.23,1.55-5.23,2.53a.25.25,0,1,1-.35-.36c.8-.79,5.1-3.21,5.92-2.52.25.21.21.55-.11,1-.48.69-1.22,1.58-1.94,2.44a14.18,14.18,0,0,0-2.21,3h.11c.46-.05,1-.15,1.45-.24,1.3-.24,2-.37,2.4-.07a.5.5,0,0,1,.18.4c0,.17.37.48.89.81a8.44,8.44,0,0,0,.39-1.21.85.85,0,0,1,.62-.72c.72-.21,1.87.5,2.64,1.31.37.39.95,1.12.75,1.71a.89.89,0,0,1-.49.52c-.86.38-2.5-.32-2.68-.4a10.41,10.41,0,0,1-1-.48c-.31.79-.58,1.55-.35,1.89.1.15.33.23.69.23a6.9,6.9,0,0,0,2.32-.41c.46-.15.73-.24,1-.08a.46.46,0,0,1,.17.42,2.23,2.23,0,0,1,0,.3l.44.29a.25.25,0,0,1,.05.35.24.24,0,0,1-.35,0,4,4,0,0,0-.5-.31.28.28,0,0,1-.16-.41.57.57,0,0,0,0-.27l-.47.14a7.28,7.28,0,0,1-2.47.43,1.24,1.24,0,0,1-1.11-.45c-.37-.56,0-1.46.33-2.42-.64-.39-1.22-.86-1.21-1.3h0c-.17-.17-1.3.05-2,.18-.49.09-1,.19-1.49.24A.62.62,0,0,1,86.35,170.8ZM95,171c-.72-.73-1.64-1.22-2.07-1.1-.09,0-.21.09-.27.35a8.92,8.92,0,0,1-.44,1.36c.32.17.66.34,1,.49a4,4,0,0,0,2.28.4.38.38,0,0,0,.22-.23c.06-.19-.11-.63-.64-1.2Z"/><rect class="cls-27" x="68.44" y="163.61" width="57.77" height="34.17" rx="4.85" transform="translate(-79.41 76.34) rotate(-31.13)"/><rect class="cls-28" x="85.65" y="156.26" width="27.78" height="46.22" rx="3.91" transform="translate(201.61 1.43) rotate(58.87)"/><rect class="cls-2" x="103.25" y="166.43" width="4.19" height="4.19" transform="translate(195.13 -8.78) rotate(58.87)"/><rect class="cls-2" x="103.24" y="171.78" width="2.09" height="2.09" transform="matrix(0.52, 0.86, -0.86, 0.52, 198.31, -5.79)"/><rect class="cls-2" x="107.19" y="174.28" width="2.09" height="2.09" transform="translate(202.36 -7.97) rotate(58.87)"/><rect class="cls-2" x="101.82" y="177.53" width="2.09" height="2.09" transform="matrix(0.52, 0.86, -0.86, 0.52, 202.54, -1.8)"/><rect class="cls-2" x="103.61" y="176.45" width="2.09" height="2.09" transform="translate(202.48 -3.85) rotate(58.87)"/><rect class="cls-2" x="105.06" y="182.91" width="2.09" height="2.09" transform="matrix(0.52, 0.86, -0.86, 0.52, 208.71, -1.98)"/><rect class="cls-2" x="106.48" y="177.16" width="2.09" height="2.09" transform="translate(204.48 -5.97) rotate(58.87)"/><rect class="cls-2" x="107.9" y="171.41" width="2.09" height="2.09" transform="translate(200.24 -9.96) rotate(58.87)"/><rect class="cls-2" x="98.94" y="176.82" width="2.09" height="2.09" transform="translate(200.55 0.32) rotate(58.87)"/><rect class="cls-2" x="97.86" y="175.03" width="2.09" height="2.09" transform="translate(198.49 0.38) rotate(58.87)"/><rect class="cls-2" x="97.49" y="170.36" width="2.09" height="2.09" transform="translate(194.32 -1.55) rotate(58.87)"/><rect class="cls-2" x="100.36" y="171.07" width="2.09" height="2.09" transform="matrix(0.52, 0.86, -0.86, 0.52, 196.31, -3.67)"/><rect class="cls-2" x="105.77" y="180.03" width="2.09" height="2.09" transform="translate(206.59 -3.97) rotate(58.87)"/><rect class="cls-2" x="95.36" y="178.99" width="2.09" height="2.09" transform="translate(200.67 4.43) rotate(58.87)"/><rect class="cls-2" x="98.23" y="179.7" width="2.09" height="2.09" transform="matrix(0.52, 0.86, -0.86, 0.52, 202.66, 2.32)"/><rect class="cls-2" x="109.75" y="177.18" width="4.19" height="4.19" transform="translate(207.47 -9.15) rotate(58.87)"/><rect class="cls-2" x="92.5" y="172.92" width="4.19" height="4.19" transform="translate(195.5 3.56) rotate(58.87)"/><rect class="cls-2" x="99" y="183.67" width="4.19" height="4.19" transform="translate(207.84 3.19) rotate(58.87)"/><rect class="cls-29" x="92.52" y="166.45" width="21.39" height="21.39" transform="translate(201.48 -2.79) rotate(58.87)"/><path class="cls-30" d="M76,177.36l32.72-19.77a3.93,3.93,0,0,1,5.41,1.22L124.52,176a3.91,3.91,0,0,1-1.44,5.34"/><rect class="cls-31" x="70.5" y="191.57" width="11.55" height="3.69" rx="1.84" transform="translate(202.4 28.12) rotate(58.87)"/><path class="cls-32" d="M47.25,143.62c5-5.09,35.62-.79,36.7,0-4.5,21.82,18.62,48.25,42.33,43.78-24.81,22.41-73.27,41.25-99.75-3.48C35.49,175.42,44.67,166.34,47.25,143.62Z"/><path class="cls-33" d="M143.42,197.74a50,50,0,1,0,67.91,19.49A50,50,0,0,0,143.42,197.74Zm43.28,78.12a40.47,40.47,0,1,1,15.79-55A40.47,40.47,0,0,1,186.7,275.86Z"/><path class="cls-34" d="M160.56,228.54c11.47-6.35,33-7.31,36.84-15,4.55-2.72,12.79,10.07,6.59,10.14-5-2.67-10.54,3.75-12,16.06-1.37,11.42,9.6,12.76,14.88,8.45,5,2.11,1.11,15.24-4.86,12.8-1.26-6.33-12.7-1.9-21.73,3.1l-.1.06c-9,5-18.85,12.35-14.15,16.78-1.1,6.35-14.31,2.71-13.43-2.67,6.45-2.19,11.13-12.2.72-17.1-11.22-5.27-19.59-4-20,1.68-3.35,5.22-9.83-8.56-5.11-11,8.56.78,20.77-16.94,32.24-23.3"/><ellipse class="cls-35" cx="167.63" cy="241.44" rx="8.37" ry="6.42" transform="translate(-96.01 111.49) rotate(-28.99)"/><path class="cls-36" d="M151.39,191.79c2.16-.19-3.28,8.75-12.51,8.85C138.74,198.71,140.35,192.76,151.39,191.79Z"/><path class="cls-37" d="M171,147.47c-6.85,15.05-16.66,37.14-16.66,37.14-6.77,5.47-11.67,9-10.87,12.22s-4.45,15.49-.42,16.55c5.65,1.49,9.9-2.82,9.9-2.82.2,1.92,5.9,0,7.21-2.08s5.56-9.6,5.91-12.51-2.82-12.68-2.64-13.84c1.46-5.65,14.31-32.95,14.31-32.95Z"/><path class="cls-38" d="M163.55,121.67c11.92-7,14.91,8.35,19.34,13.83s-4.59,7.38-3.28,12.21,6.51,16.46-3.16,19.79-.62,8.45-9,15.21c-2.6-5.46-12.75-4.21-15.73-1.24-6.66-5.25-5.62-8.81-3.7-13.81-7.12-5.22-6-9.83-2.72-15.79S143.32,133.59,163.55,121.67Z"/><path class="cls-10" d="M152.17,185.48l-.44-4c2.76-3.66,12.28-5.19,15.73,1.24-.87,1.7-2.44,4.39-2.44,4.39S162.32,181,152.17,185.48Z"/></g></g></svg>