<svg xmlns="http://www.w3.org/2000/svg" xmlns:xlink="http://www.w3.org/1999/xlink" viewBox="0 0 160.64 533.04"><defs><style>.cls-1,.cls-36{fill:none;}.cls-2{fill:url(#Безымянный_градиент_322);}.cls-3{fill:url(#Безымянный_градиент_1987);}.cls-4{fill:url(#Безымянный_градиент_1988);}.cls-5{fill:url(#Безымянный_градиент_159);}.cls-6{fill:url(#Безымянный_градиент_159-2);}.cls-7{fill:url(#Безымянный_градиент_783);}.cls-8{fill:#602847;}.cls-9{fill:url(#Безымянный_градиент_1977);}.cls-10{fill:url(#Безымянный_градиент_159-3);}.cls-11{fill:url(#Безымянный_градиент_159-4);}.cls-12{fill:url(#Безымянный_градиент_159-5);}.cls-13{fill:url(#Безымянный_градиент_159-6);}.cls-14{fill:url(#Новый_образец_градиента_копия_4);}.cls-15{fill:#fff;}.cls-16{fill:#283547;}.cls-17{clip-path:url(#clip-path);}.cls-18{fill:url(#Безымянный_градиент_744);}.cls-19{fill:url(#Безымянный_градиент_725);}.cls-20{clip-path:url(#clip-path-2);}.cls-21{fill:url(#Безымянный_градиент_744-2);}.cls-22{fill:url(#Безымянный_градиент_725-2);}.cls-23{fill:url(#Безымянный_градиент_744-3);}.cls-24{fill:url(#Безымянный_градиент_744-4);}.cls-25{fill:#871131;}.cls-26{fill:url(#Безымянный_градиент_1808);}.cls-27{fill:url(#Безымянный_градиент_1808-2);}.cls-28{fill:url(#Безымянный_градиент_762);}.cls-29{fill:url(#Безымянный_градиент_762-2);}.cls-30{fill:url(#Безымянный_градиент_201);}.cls-31{fill:url(#Безымянный_градиент_493);}.cls-32{fill:url(#Новый_образец_градиента_копия_2);}.cls-33{fill:url(#Безымянный_градиент_2127);}.cls-34{clip-path:url(#clip-path-3);}.cls-35{opacity:0.1;}.cls-36{stroke:#000;stroke-miterlimit:10;stroke-width:1.31px;}.cls-37{fill:url(#Безымянный_градиент_2127-2);}.cls-38{fill:url(#Безымянный_градиент_446);}.cls-39{fill:url(#Безымянный_градиент_1977-2);}.cls-40{fill:url(#Безымянный_градиент_1977-3);}.cls-41{fill:url(#Безымянный_градиент_1977-4);}.cls-42{fill:url(#Безымянный_градиент_922);}.cls-43{fill:#a2aaae;}.cls-44{fill:#a9bcca;}.cls-45{fill:#d23c3e;}.cls-46{fill:url(#Безымянный_градиент_598);}.cls-47{fill:url(#Безымянный_градиент_492);}.cls-48{fill:url(#Безымянный_градиент_600);}.cls-49{fill:url(#Безымянный_градиент_1977-5);}.cls-50{fill:url(#Безымянный_градиент_1977-6);}.cls-51{fill:url(#Безымянный_градиент_1785);}.cls-52{fill:url(#Безымянный_градиент_1785-2);}</style><linearGradient id="Безымянный_градиент_322" x1="95.45" y1="-7.66" x2="101.95" y2="185.9" gradientUnits="userSpaceOnUse"><stop offset="0" stop-color="#6d515b"/><stop offset="1" stop-color="#1b2139"/></linearGradient><linearGradient id="Безымянный_градиент_1987" x1="39.44" y1="27.98" x2="104.8" y2="12.42" gradientUnits="userSpaceOnUse"><stop offset="0.47" stop-color="#fff" stop-opacity="0"/><stop offset="1" stop-color="#e4e9eb" stop-opacity="0.4"/></linearGradient><linearGradient id="Безымянный_градиент_1988" x1="108.5" y1="17.61" x2="136.84" y2="44.62" gradientUnits="userSpaceOnUse"><stop offset="0" stop-color="#fff" stop-opacity="0"/><stop offset="1" stop-color="#e4e9eb" stop-opacity="0.4"/></linearGradient><linearGradient id="Безымянный_градиент_159" x1="112.25" y1="452.92" x2="113.36" y2="368.23" gradientUnits="userSpaceOnUse"><stop offset="0.64" stop-color="#ffd7a5"/><stop offset="1" stop-color="#faa96c"/></linearGradient><linearGradient id="Безымянный_градиент_159-2" x1="80.38" y1="452.51" x2="81.49" y2="367.81" xlink:href="#Безымянный_градиент_159"/><linearGradient id="Безымянный_градиент_783" x1="92.68" y1="127.15" x2="93.57" y2="88.47" gradientUnits="userSpaceOnUse"><stop offset="0.46" stop-color="#fabb80"/><stop offset="1" stop-color="#faa16c"/></linearGradient><linearGradient id="Безымянный_градиент_1977" x1="76.19" y1="133.1" x2="53.51" y2="176.78" gradientUnits="userSpaceOnUse"><stop offset="0" stop-color="#f55"/><stop offset="1" stop-color="#922855"/></linearGradient><linearGradient id="Безымянный_градиент_159-3" x1="89.24" y1="33.22" x2="78.18" y2="105.8" xlink:href="#Безымянный_градиент_159"/><linearGradient id="Безымянный_градиент_159-4" x1="92.59" y1="71.94" x2="91.27" y2="47.39" xlink:href="#Безымянный_градиент_159"/><linearGradient id="Безымянный_градиент_159-5" x1="66.1" y1="72.93" x2="64.81" y2="49.01" xlink:href="#Безымянный_градиент_159"/><linearGradient id="Безымянный_градиент_159-6" x1="50.83" y1="-334.02" x2="35.35" y2="-304.84" gradientTransform="translate(99.03 379.04) rotate(-3.74)" xlink:href="#Безымянный_градиент_159"/><linearGradient id="Новый_образец_градиента_копия_4" x1="-1626.6" y1="-746.83" x2="-1644.04" y2="-741.39" gradientTransform="matrix(0.72, -0.14, 0.15, 0.75, 1412.38, 378.76)" gradientUnits="userSpaceOnUse"><stop offset="0.64" stop-color="#fabb80"/><stop offset="1" stop-color="#faa96c"/></linearGradient><clipPath id="clip-path"><path class="cls-1" d="M72.08,66.37c-6.65-7.41-11.9-11.32-11.9-2.18C64.26,67.45,70,69.2,72.08,66.37Z"/></clipPath><linearGradient id="Безымянный_градиент_744" x1="63.18" y1="63.92" x2="69.72" y2="63.92" gradientUnits="userSpaceOnUse"><stop offset="0" stop-color="#bb9bb7"/><stop offset="0.67" stop-color="#7b3f3f"/></linearGradient><linearGradient id="Безымянный_градиент_725" x1="6.05" y1="-6.18" x2="6.18" y2="-11.22" gradientTransform="translate(60.67 73.22) rotate(-2.18)" gradientUnits="userSpaceOnUse"><stop offset="0" stop-color="#ddf5f5" stop-opacity="0.4"/><stop offset="1" stop-color="#c6d9db" stop-opacity="0"/></linearGradient><clipPath id="clip-path-2"><path class="cls-1" d="M82.25,65.83c4-11.44,15-16.66,20.27-8.17A34.69,34.69,0,0,1,82.25,65.83Z"/></clipPath><linearGradient id="Безымянный_градиент_744-2" x1="90.11" y1="59.02" x2="98.88" y2="59.02" xlink:href="#Безымянный_градиент_744"/><linearGradient id="Безымянный_градиент_725-2" x1="34.25" y1="-9.45" x2="34.4" y2="-15.48" xlink:href="#Безымянный_градиент_725"/><linearGradient id="Безымянный_градиент_744-3" x1="85.76" y1="43.83" x2="87.34" y2="56.26" xlink:href="#Безымянный_градиент_744"/><linearGradient id="Безымянный_градиент_744-4" x1="63.14" y1="45.86" x2="64.88" y2="59.53" xlink:href="#Безымянный_градиент_744"/><linearGradient id="Безымянный_градиент_1808" x1="70.49" y1="83.21" x2="84.77" y2="83.21" gradientUnits="userSpaceOnUse"><stop offset="0" stop-color="#fa9ea5"/><stop offset="1" stop-color="#f7496d"/></linearGradient><linearGradient id="Безымянный_градиент_1808-2" x1="71.91" y1="89.74" x2="84.77" y2="89.74" xlink:href="#Безымянный_градиент_1808"/><linearGradient id="Безымянный_градиент_762" x1="878.37" y1="68.15" x2="878.37" y2="72.1" gradientTransform="translate(-792.45 -111.11) rotate(7.77)" gradientUnits="userSpaceOnUse"><stop offset="0" stop-color="#c3a19b"/><stop offset="0.23" stop-color="#c0a597"/><stop offset="0.46" stop-color="#b7af8b"/><stop offset="0.69" stop-color="#a7c176"/><stop offset="0.92" stop-color="#92d95a"/><stop offset="1" stop-color="#89e34f"/></linearGradient><linearGradient id="Безымянный_градиент_762-2" x1="73.27" y1="74.36" x2="73.27" y2="81.22" gradientTransform="matrix(1, 0, 0, 1, 0, 0)" xlink:href="#Безымянный_градиент_762"/><linearGradient id="Безымянный_градиент_201" x1="74.04" y1="57.37" x2="70.55" y2="75.09" gradientUnits="userSpaceOnUse"><stop offset="0.22" stop-color="#ffd7a5"/><stop offset="0.84" stop-color="#fa5763"/></linearGradient><radialGradient id="Безымянный_градиент_493" cx="76.02" cy="75.62" r="3.62" gradientUnits="userSpaceOnUse"><stop offset="0" stop-color="#fcffff" stop-opacity="0.4"/><stop offset="0.18" stop-color="#f8fef9" stop-opacity="0.42"/><stop offset="0.36" stop-color="#edfbe8" stop-opacity="0.48"/><stop offset="0.54" stop-color="#daf7cc" stop-opacity="0.58"/><stop offset="0.72" stop-color="#c0f0a3" stop-opacity="0.71"/><stop offset="0.9" stop-color="#9fe870" stop-opacity="0.89"/><stop offset="1" stop-color="#89e34f"/></radialGradient><linearGradient id="Новый_образец_градиента_копия_2" x1="71.88" y1="113.12" x2="110.9" y2="113.12" gradientUnits="userSpaceOnUse"><stop offset="0" stop-color="#5d7d91"/><stop offset="1" stop-color="#374b6b"/></linearGradient><linearGradient id="Безымянный_градиент_2127" x1="41.14" y1="162.92" x2="133.21" y2="162.92" gradientUnits="userSpaceOnUse"><stop offset="0" stop-color="#b5ffff"/><stop offset="0.67" stop-color="#89c9ff"/></linearGradient><clipPath id="clip-path-3"><path class="cls-1" d="M106,101.8c-.39,9-3.68,14.47,1,16.18s26.23,8.9,26.23,14.77-15.67,32.65-18.94,48.32-13.71,31.35-12.4,35.92c-32,13.71-44.13,7.18-45.57,0s1.82-22.86-1.45-26.12S43.1,181.73,41.14,175.2c5.22-7.84,16.32-21.55,15.67-28.08s2-20.9,7.18-23.51,16.45-4.49,17.37-8.45A91.22,91.22,0,0,0,82.81,105C87.5,101.41,102.91,99.58,106,101.8Z"/></clipPath><linearGradient id="Безымянный_градиент_2127-2" x1="78.97" y1="109.04" x2="108" y2="109.04" xlink:href="#Безымянный_градиент_2127"/><linearGradient id="Безымянный_градиент_446" x1="95.26" y1="217.2" x2="107.93" y2="359.25" gradientUnits="userSpaceOnUse"><stop offset="0" stop-color="#404e4f"/><stop offset="0.31" stop-color="#3a4647"/><stop offset="0.8" stop-color="#292f33"/><stop offset="1" stop-color="#212429"/></linearGradient><linearGradient id="Безымянный_градиент_1977-2" x1="116.75" y1="434.57" x2="124.73" y2="523.99" xlink:href="#Безымянный_градиент_1977"/><linearGradient id="Безымянный_градиент_1977-3" x1="72.1" y1="435.93" x2="79.96" y2="524.02" xlink:href="#Безымянный_градиент_1977"/><linearGradient id="Безымянный_градиент_1977-4" x1="113.79" y1="127.69" x2="98.12" y2="234.73" xlink:href="#Безымянный_градиент_1977"/><linearGradient id="Безымянный_градиент_922" x1="-323.17" y1="803.49" x2="-320.3" y2="866.54" gradientTransform="translate(-470.62 -602.2) rotate(-55.27)" gradientUnits="userSpaceOnUse"><stop offset="0" stop-color="#fff5f5"/><stop offset="1" stop-color="#c6d9db"/></linearGradient><linearGradient id="Безымянный_градиент_598" x1="-323.13" y1="805.13" x2="-320.93" y2="853.39" gradientTransform="translate(352.24 -695.98)" gradientUnits="userSpaceOnUse"><stop offset="0" stop-color="#ddf5f5" stop-opacity="0"/><stop offset="1" stop-color="#fafff5" stop-opacity="0.4"/></linearGradient><linearGradient id="Безымянный_градиент_492" x1="-323.63" y1="874.33" x2="-320.32" y2="878.71" gradientTransform="translate(-470.62 -602.2) rotate(-55.27)" xlink:href="#Новый_образец_градиента_копия_2"/><linearGradient id="Безымянный_градиент_600" x1="-327.14" y1="802.15" x2="-321.86" y2="809.13" gradientTransform="translate(71.82 -742.97) rotate(-17.64)" gradientUnits="userSpaceOnUse"><stop offset="0" stop-color="#ddf5f5" stop-opacity="0"/><stop offset="1" stop-color="#faffff" stop-opacity="0.5"/></linearGradient><linearGradient id="Безымянный_градиент_1977-5" x1="59.72" y1="129.44" x2="52.72" y2="231.47" xlink:href="#Безымянный_градиент_1977"/><linearGradient id="Безымянный_градиент_1977-6" x1="124.7" y1="116.54" x2="130.37" y2="208.58" xlink:href="#Безымянный_градиент_1977"/><linearGradient id="Безымянный_градиент_1785" x1="80.76" y1="118.05" x2="91.26" y2="166.06" gradientUnits="userSpaceOnUse"><stop offset="0.22" stop-color="#5f89bf"/><stop offset="1" stop-color="#183773"/></linearGradient><linearGradient id="Безымянный_градиент_1785-2" x1="117.41" y1="106.44" x2="66.89" y2="139.95" xlink:href="#Безымянный_градиент_1785"/></defs><g id="Слой_2" data-name="Слой 2"><g id="Слой_2-2" data-name="Слой 2"><path class="cls-2" d="M113,17.17C112.32-.46,99.91-.46,92.07.19S58.77,7.38,38.53,34.8c7.83,32,15,60.73,12.4,96.65,2.62.65,9.15-.66,9.15-.66,1.3-7.83,2-24.16,2-28.73,2,11.76,3.27,20.24,3.27,25.47,3.26,3.26,57.46,74.44,67.26,78.36a89.83,89.83,0,0,0,28.08-9.8c-10.45-35.26-31.85-110-26.12-129.29s9.14-32.65,9.14-32.65C138.44,15.87,118.15,11.07,113,17.17Z"/><path class="cls-3" d="M48.59,29.58c24.28,2.61,40.87.14,51-7.11-5.22-2.1-10.3-4.7-13.8-4.67,8-3.87,16.6-3.3,20.92,0C104.22.22,81.5-3.07,48.59,29.58Z"/><path class="cls-4" d="M121.13,21.58c4.57,4.25,5.55,7.35,5.55,7.35a14.58,14.58,0,0,0-10.45-2A64.16,64.16,0,0,1,124.72,40c-3.92.46-11.1-2.62-11.75-4.57,2,5.22,4.57,9.14,16.28,10.79,3.46.49,11.46-12.34,11.46-12.34C135.17,25.66,129.29,20.1,121.13,21.58Z"/><path class="cls-5" d="M101.87,215.68c19.59,9.8,41.22,32.38,41.83,46.23s-9.84,74.58-12.45,86.33c13.72,19.59,19.59,32.65,18.94,50.93S125.7,507.7,125.7,507.7s-13.38-131.38-13.38-141.18c-15-32.64-37.25-131.39-34-148.95C97.31,211.18,101.87,215.68,101.87,215.68Z"/><path class="cls-6" d="M86.2,217.64c16.68,18,23.48,32.27,23.29,46.13s-8.91,80.07-12.19,91.65c12.56,20.35,12.5,27.54,10.8,45.76S77.43,508.12,77.43,508.12s-5.51-126.59-5-136.37C59.36,338.29,52.53,234.33,56.81,217,76.11,211.7,86.2,217.64,86.2,217.64Z"/><path class="cls-7" d="M105.13,84.26c0,10.62-.78,32.24-.78,32.24s-21.95,3.33-23,0c1.57-6,1.61-13.94,1.59-22.68S105.13,84.26,105.13,84.26Z"/><path class="cls-8" d="M29.53,222.68c-2.06,16.52,34.78-12.63,33-18.65S31.62,205.82,29.53,222.68Z"/><path class="cls-9" d="M54.58,130.17c-5.43,10-32.19,75.46-24.83,95.19,7-18.7,30-24,32.75-21.33,1.83-21.09,3-44.94,5.68-56.74S62.16,116.19,54.58,130.17Z"/><path class="cls-10" d="M106.44,27.62c-1.31,11.75,3.26,29.38,11.1,23.51.76,15.75-1.55,32.08-6.64,35.58-9,6.21-32.54,17.31-37.76,14.7S55.5,74.64,55.5,71.37s5.23-5.22,3.27-10.45-5.88-17.1-3.27-22.85S84.24,47.21,106.44,27.62Z"/><path class="cls-11" d="M81.62,66.8c-3.26-3.27-2.44-12.92-1.3-16.33.65-1.95,7.18-7.83,13.06-4.57,5.26,2.93,12.71,7.65,10.6,13S84.89,70.06,81.62,66.8Z"/><path class="cls-12" d="M72.55,67.74c-.76,2-9.21,2.32-12.47-2.9-2-6.53-3.21-16-.66-16.32s7,1.23,8,3.23S73.93,64.11,72.55,67.74Z"/><path class="cls-13" d="M111.32,60.63c0-3.27,13.3-21.05,17.32-8.2,3.27,10.45-7.57,17.25-10.72,18.54S111.34,69.24,111.32,60.63Z"/><path class="cls-14" d="M115.58,59c3.92,0,4.38,4.41,3.92,7.19,4.83-1.58,7.18-5.23,7.18-9.15C126.68,47.65,116.64,56.6,115.58,59Z"/><path class="cls-15" d="M82.25,65.83c4-11.44,15-16.66,20.27-8.17A34.69,34.69,0,0,1,82.25,65.83Z"/><path class="cls-16" d="M82.25,65.83c6.59-17,16.35-16,20.27-8.17C91.42,49.17,86.79,59,82.25,65.83Z"/><path class="cls-16" d="M99.91,55.05c2,0,3.92-1.31,5.22-3.92a15,15,0,0,1-7.32,2.33C100.05,54,99.91,55.05,99.91,55.05Z"/><path class="cls-15" d="M72.08,66.37c-6.65-7.41-11.9-11.32-11.9-2.18C64.26,67.45,70,69.2,72.08,66.37Z"/><g class="cls-17"><ellipse class="cls-18" cx="66.45" cy="63.92" rx="3.27" ry="3.66"/><path class="cls-19" d="M69.14,63.81a2.9,2.9,0,0,1-2.59,3.13A2.84,2.84,0,0,1,63.76,64a2.9,2.9,0,0,1,2.59-3.13A2.84,2.84,0,0,1,69.14,63.81Z"/><ellipse class="cls-15" cx="64" cy="62.26" rx="1.1" ry="1.23"/></g><path class="cls-16" d="M72.08,66.37C63.1,57,60.76,57,60.18,64.19,59.59,51.78,65.43,56.35,72.08,66.37Z"/><path class="cls-16" d="M60.18,61.58c-.91,1.18-3.51-.66-4.68-2,1.17.65,4.61.75,5.26,0A5.66,5.66,0,0,1,60.18,61.58Z"/><g class="cls-20"><circle class="cls-21" cx="94.49" cy="59.02" r="4.38"/><path class="cls-22" d="M98.1,58.88a3.61,3.61,0,1,1-3.74-3.47A3.62,3.62,0,0,1,98.1,58.88Z"/><circle class="cls-15" cx="91.21" cy="57.03" r="1.47"/></g><path class="cls-23" d="M79.67,53.74c-.31-4.57-2-5.88,3.26-7.84s7.84-2,10.45,0C86.2,47.86,83.89,49.17,79.67,53.74Z"/><path class="cls-24" d="M68.89,54.51C65,51,60.73,47.78,58.12,49.17c3.91-3.92,9.79-.5,10.77,1S68.89,54.51,68.89,54.51Z"/><path class="cls-25" d="M70.57,83.61c2.36,1.77,3,3.55,1.77,4.73,1.78,3.55,10.07,1.19,12.43-1.77C81.81,83.61,73.09,82.9,70.57,83.61Z"/><path class="cls-15" d="M71.12,83.35s1.29,3,1.55,3.39c1.45.42,4.31.93,10.28-1.69C79.5,83.94,71.12,83.35,71.12,83.35Z"/><path class="cls-26" d="M84.77,86.57c-2.36-5.92-15.39-10.07-14.2-3C73.53,86.57,77.67,81.83,84.77,86.57Z"/><path class="cls-27" d="M72.34,88.34c-2.37,3,5.33,9.47,12.43-1.77C81.81,88.34,72.93,90.12,72.34,88.34Z"/><path class="cls-28" d="M71,76.22c-2,0,0,3-2,3s0-2-3-3C68.3,74.94,70.61,75.1,71,76.22Z"/><path class="cls-29" d="M76.55,76.1c-3,1,.44,5.12-2.56,5.12-3.81,0,0-5-4-5C73.8,73.37,75.59,74.19,76.55,76.1Z"/><path class="cls-30" d="M69.87,61c-.09,3.15-3.54,11.48-7,13.56,3.47,3.47,13.18,4.17,15.26.7S75.45,64.76,74.36,61,69.94,58.51,69.87,61Z"/><circle class="cls-31" cx="77" cy="76.04" r="2.86"/><path class="cls-32" d="M71.91,123.83h39V106.94c-5.77-9.45-26-2-32.88,3.11S71.91,123.83,71.91,123.83Z"/><path class="cls-33" d="M106,101.8c-.39,9-3.68,14.47,1,16.18s26.23,8.9,26.23,14.77-15.67,32.65-18.94,48.32-13.71,31.35-12.4,35.92c-32,13.71-44.13,7.18-45.57,0s1.82-22.86-1.45-26.12S43.1,181.73,41.14,175.2c5.22-7.84,16.32-21.55,15.67-28.08s2-20.9,7.18-23.51,16.45-4.49,17.37-8.45A91.22,91.22,0,0,0,82.81,105C87.5,101.41,102.91,99.58,106,101.8Z"/><g class="cls-34"><g class="cls-35"><path class="cls-36" d="M92.07,98.8c0,19.61-19,62.25-26.18,73.88a4.54,4.54,0,0,0-.27,4.26A29.21,29.21,0,0,0,75,188.7a4.55,4.55,0,0,1,1.82,4.73c-2.28,9.92-4.21,29.95-3,34"/><path class="cls-36" d="M88.48,99.78c-1.86,9.9-17.79,59.67-30.56,73.19a4.5,4.5,0,0,0-.74,5.15c2.74,5.22,7.46,8.8,10.57,10.73a4.52,4.52,0,0,1,2,4.94c-2.51,10.2-2.19,30.92-2.19,32.67"/><path class="cls-36" d="M77.67,115.5c-4,11.61-10.54,42.3-25.95,56.79a4.56,4.56,0,0,0-.41,6.18,54.21,54.21,0,0,0,10.61,9.85,4.53,4.53,0,0,1,1.87,4.4c-1.44,9.39-2.71,30.41-1.49,32.29"/><path class="cls-36" d="M70.57,119.16c-3.45,12-11.85,39-24.4,52.9a4.55,4.55,0,0,0-.48,5.47c3,4.71,8.77,10.08,11.68,12.44a4.52,4.52,0,0,1,1.67,3.7c-.34,8.91-2.14,25.53-1.72,28.36"/><path class="cls-36" d="M97.31,98.8c.91,6.46-17.59,63.66-22.46,74.06a4.57,4.57,0,0,0-.27,3.17,46.13,46.13,0,0,0,7.57,15.11,4.55,4.55,0,0,1,.89,3.31c-1.24,10.42-4.57,27.1-2.57,32"/><path class="cls-36" d="M102.19,97.16c0,5.23-15.36,73.92-16.46,76.69-2.47,6.24,2.75,18.14,2.1,19.3s-2,29.1-1.67,31.86"/><path class="cls-36" d="M107.42,103.69c0,7.19-10.73,68.52-11.1,71.83s-3.27,14.37-3.27,17-1,30.53-1,30.53"/><path class="cls-36" d="M110.9,115.5s-4.13,53.73-5.77,58.18-6.2,17.52-6.2,19.47S96.31,222,96.31,222"/><path class="cls-36" d="M117.68,120.33s-7.65,49.32-8.3,52.58-7.19,16.35-7.19,19.28-3.63,26.17-3.63,26.17"/><path class="cls-36" d="M124.4,123.28c0,2-10.45,48.33-11.1,50.28s-6.53,16.33-7.19,18.94-5.46,25.86-5.46,25.86"/></g></g><path class="cls-37" d="M81.36,103.83c-2.35,2.28.26,4.11-.39,7.37s-3.24,3.77-1.29,6.13,25.45,1.71,26.76-.9-.65-3.6,0-7.35,2.88-6.86.46-8.25S88.28,97.1,81.36,103.83Z"/><path class="cls-38" d="M101.89,214.79c-18.33,9-43.5,12.83-45.92-.65-1.58,26.59-5.69,87.74,15.21,158.26,30.69,5.88,56.15,0,73.13-7.18-8.49-24.16,2.92-74.41.66-103.83C143,235.93,101.89,214.79,101.89,214.79Z"/><path class="cls-39" d="M145.27,430.44c-3.22,17.14-17.94,71.91-16.63,75.83s5.88,4.57,5.88,8.49-3.21,4.57-5.2,18.28H127v-11.1c-4.23,0-7.64,3.92-10.51,11.1H96.64s7.19-3.92,11.76-5.88c2.61-11.75,11.1-22.85,11.1-22.85,0-17.63-2.68-73.87-2.68-73.87C124.72,436.4,140.35,434.92,145.27,430.44Z"/><path class="cls-40" d="M101.87,431.74c-3.22,17.15-20.55,70.61-19.24,74.53s5.87,4.57,5.87,8.49-3.21,4.57-5.19,18.28H81v-11.1c-4.22,0-7.64,3.92-10.5,11.1H50.63s7.18-3.92,11.75-5.88c2.61-11.75,11.1-22.85,11.1-22.85,0-17.63-.07-72.57-.07-72.57C81.32,437.7,97,436.23,101.87,431.74Z"/><path class="cls-41" d="M110.9,106.94c7.29,10.14,23.62,19.94,23.62,25.16S108.25,202.83,108,207s18.93,21.12,18.93,21.12c-14.61,7.84-39.16,11.79-42.23,11.45-1.57-19.63,3.45-27.71,2.48-35.9S77.71,181.07,79,175.2C81.62,163.48,103,141.2,110.9,106.94Z"/><path class="cls-42" d="M3,128l43.63,30.25A10.58,10.58,0,0,0,54.25,160l1.7-.26A7,7,0,0,1,61,160.91l5.5,3.82a2.47,2.47,0,0,0,3.42-.62h0a2.47,2.47,0,0,0-.62-3.43l-5.5-3.81a7,7,0,0,1-2.88-4.33l-.35-1.68a10.56,10.56,0,0,0-4.31-6.49L12.64,114.13a7,7,0,0,0-9.79,1.77l-1.6,2.31A7,7,0,0,0,3,128Z"/><path class="cls-43" d="M54.42,148.23l-4.8,6.93a.35.35,0,0,1-.58-.4l4.81-6.93a.35.35,0,0,1,.49-.09A.34.34,0,0,1,54.42,148.23Z"/><path class="cls-43" d="M47.49,143.42l-4.8,6.93a.35.35,0,0,1-.58-.4L46.92,143a.34.34,0,0,1,.48-.09A.35.35,0,0,1,47.49,143.42Z"/><path class="cls-43" d="M40.56,138.62l-4.8,6.93a.35.35,0,0,1-.58-.4l4.8-6.93a.35.35,0,1,1,.58.4Z"/><path class="cls-43" d="M33.63,133.81l-4.81,6.93a.35.35,0,0,1-.49.09.36.36,0,0,1-.08-.49l4.8-6.93a.35.35,0,1,1,.58.4Z"/><path class="cls-43" d="M26.7,129l-4.81,6.93a.35.35,0,1,1-.58-.4l4.81-6.93a.35.35,0,1,1,.58.4Z"/><path class="cls-43" d="M19.76,124.2,15,131.13a.35.35,0,1,1-.58-.4l4.81-6.93a.35.35,0,1,1,.57.4Z"/><path class="cls-43" d="M12.83,119.4,8,126.33a.35.35,0,1,1-.58-.4l4.8-6.93a.35.35,0,1,1,.58.4Z"/><rect class="cls-44" x="35.16" y="106.37" width="2.81" height="69.23" rx="1.41" transform="translate(-100.13 90.72) rotate(-55.27)"/><rect class="cls-45" x="43.83" y="121.16" width="2.81" height="51.66" rx="1.21" transform="translate(-101.34 100.43) rotate(-55.27)"/><rect class="cls-46" x="24.74" y="105.05" width="11.25" height="63.26" rx="5.62" transform="translate(-99.27 83.77) rotate(-55.27)"/><path class="cls-47" d="M65.84,158.28l3.47,2.4a2.47,2.47,0,0,1,.62,3.43h0a2.47,2.47,0,0,1-3.42.62L63,162.32"/><ellipse class="cls-48" cx="7.16" cy="123.42" rx="5.24" ry="6.83" transform="translate(-73.87 30.05) rotate(-37.63)"/><path class="cls-8" d="M143.66,230.7c-.64,16.64-32.8-17.2-30-22.85S144.31,213.72,143.66,230.7Z"/><path class="cls-49" d="M78,110.05s-14.68,9.28-18.6,15.34-2,21.09-3.92,24.67S39.31,173.6,39.57,176s14.7,14.1,15,18.72-3,30.73-3.65,33.34c5.93,9.14,13.08,9.79,13.08,9.14.66-15,2.62-43.1-.65-47.67-5.27-7.38-12.7-9-11.1-15.67S77,124.57,78,110.05Z"/><path class="cls-50" d="M133.86,135.36c3.75,10.78,19.59,79.67,9.15,97.95-3.92-19.59-25.76-28.52-28.88-26.34,1.6-21.1,4.35-44.82,3.55-56.91S128.64,120.35,133.86,135.36Z"/><path class="cls-51" d="M117.54,117.73c-41.14,88.16-91.49,69.17-44.76-5.9.72-1.9,4.25,0,4.25,0-23.48,57.49,5.78,47.32,37.24,4.6C116.48,114.57,117.54,117.73,117.54,117.73Z"/><path class="cls-52" d="M81,107.94c-10.61,25.16,6.28,37.8,28.93-2.32,6.79,2,9.86,1.8,10.38,11.2-8.62,19.2-77.85,79.07-44.53-6.27A9.46,9.46,0,0,1,81,107.94Z"/></g></g></svg>