<svg xmlns="http://www.w3.org/2000/svg" xmlns:xlink="http://www.w3.org/1999/xlink" viewBox="0 0 243.35 408.79"><defs><style>.cls-1{fill:url(#Безымянный_градиент_1231);}.cls-2{fill:url(#Новый_образец_градиента_копия_2);}.cls-3{fill:url(#Безымянный_градиент_948);}.cls-4{fill:url(#Безымянный_градиент_786);}.cls-5{fill:url(#Новый_образец_градиента_копия_2-2);}.cls-6{fill:url(#Безымянный_градиент_948-2);}.cls-7{fill:url(#Безымянный_градиент_786-2);}.cls-8{fill:url(#Безымянный_градиент_873);}.cls-9{fill:url(#Безымянный_градиент_783);}.cls-10{fill:url(#Безымянный_градиент_159);}.cls-11{fill:url(#Безымянный_градиент_1231-2);}.cls-12{fill:url(#Безымянный_градиент_1231-3);}.cls-13{fill:url(#Безымянный_градиент_913);}.cls-14{fill:url(#Безымянный_градиент_3070);}.cls-15{fill:url(#Безымянный_градиент_3070-2);}.cls-16{fill:url(#Безымянный_градиент_3070-3);}.cls-17{fill:#a2b2bc;}.cls-18{fill:url(#Безымянный_градиент_1198);}.cls-19{fill:url(#Безымянный_градиент_25);}.cls-20{fill:url(#Безымянный_градиент_911);}.cls-21,.cls-30,.cls-31{opacity:0.5;}.cls-21{fill:url(#Безымянный_градиент_911-2);}.cls-22,.cls-38,.cls-54{fill:none;stroke-miterlimit:10;}.cls-22,.cls-38{stroke:#283547;}.cls-22{stroke-width:1.37px;}.cls-23{fill:url(#Новый_образец_градиента_копия_3);}.cls-24{fill:url(#Безымянный_градиент_3);}.cls-25{fill:url(#Безымянный_градиент_3-2);}.cls-26{fill:url(#Новый_образец_градиента_копия_2-3);}.cls-27{fill:url(#Новый_образец_градиента_копия_3-2);}.cls-28{fill:url(#Новый_образец_градиента_копия_3-3);}.cls-29{fill:url(#Новый_образец_градиента_копия_3-4);}.cls-30{fill:url(#Безымянный_градиент_911-3);}.cls-31{fill:url(#Безымянный_градиент_911-4);}.cls-32{fill:url(#Безымянный_градиент_948-3);}.cls-33{fill:url(#Безымянный_градиент_948-4);}.cls-34{fill:#0d131b;}.cls-35{fill:url(#Новый_образец_градиента_копия_2-4);}.cls-36{fill:url(#Безымянный_градиент_158);}.cls-37{fill:#283547;}.cls-38{stroke-linecap:round;stroke-width:0.65px;}.cls-39{fill:url(#Безымянный_градиент_600);}.cls-40{fill:url(#Новый_образец_градиента_копия_2-5);}.cls-41{fill:url(#Безымянный_градиент_948-5);}.cls-42{fill:url(#Безымянный_градиент_32);}.cls-43{fill:url(#Безымянный_градиент_32-2);}.cls-44{fill:url(#Безымянный_градиент_1226);}.cls-45{fill:url(#Безымянный_градиент_1226-2);}.cls-46{fill:url(#Безымянный_градиент_1226-3);}.cls-47{fill:url(#Безымянный_градиент_1226-4);}.cls-48{fill:url(#Безымянный_градиент_1226-5);}.cls-49{fill:url(#Безымянный_градиент_1226-6);}.cls-50{fill:url(#Новый_образец_градиента_копия_2-6);}.cls-51{fill:url(#Новый_образец_градиента_копия_3-5);}.cls-52{fill:url(#Безымянный_градиент_481);}.cls-53{fill:#e86b56;}.cls-54{stroke:#bdbfc6;stroke-width:0.5px;}.cls-55{fill:#6473a0;}.cls-56{fill:url(#Безымянный_градиент_159-2);}.cls-57{fill:url(#Безымянный_градиент_159-3);}.cls-58{fill:url(#Безымянный_градиент_1231-4);}.cls-59{fill:url(#Безымянный_градиент_1231-5);}.cls-60{fill:url(#Безымянный_градиент_914);}.cls-61{fill:url(#Безымянный_градиент_1231-6);}.cls-62{fill:url(#Безымянный_градиент_1231-7);}.cls-63{fill:url(#Безымянный_градиент_1231-8);}.cls-64{fill:url(#Безымянный_градиент_1231-9);}.cls-65{fill:url(#Безымянный_градиент_1231-10);}.cls-66{fill:url(#Безымянный_градиент_1231-11);}.cls-67{fill:url(#Новый_образец_градиента_копия_2-7);}</style><linearGradient id="Безымянный_градиент_1231" x1="88.76" y1="28.76" x2="92.56" y2="58.68" gradientUnits="userSpaceOnUse"><stop offset="0" stop-color="#c3d7f0"/><stop offset="1" stop-color="#8d99a7"/></linearGradient><linearGradient id="Новый_образец_градиента_копия_2" x1="75.72" y1="390.93" x2="83.48" y2="390.93" gradientUnits="userSpaceOnUse"><stop offset="0" stop-color="#5d7d91"/><stop offset="1" stop-color="#374b6b"/></linearGradient><linearGradient id="Безымянный_градиент_948" x1="41.86" y1="399.62" x2="83.78" y2="401.73" gradientUnits="userSpaceOnUse"><stop offset="0" stop-color="#535757"/><stop offset="1" stop-color="#0d131b"/></linearGradient><linearGradient id="Безымянный_градиент_786" x1="66.54" y1="201.6" x2="85.58" y2="368.01" gradientUnits="userSpaceOnUse"><stop offset="0.22" stop-color="#694538"/><stop offset="1" stop-color="#1c1007"/></linearGradient><linearGradient id="Новый_образец_градиента_копия_2-2" x1="137.56" y1="390.93" x2="145.32" y2="390.93" xlink:href="#Новый_образец_градиента_копия_2"/><linearGradient id="Безымянный_градиент_948-2" x1="103.69" y1="399.62" x2="145.62" y2="401.73" xlink:href="#Безымянный_градиент_948"/><linearGradient id="Безымянный_градиент_786-2" x1="104.63" y1="204" x2="151.1" y2="512.59" xlink:href="#Безымянный_градиент_786"/><linearGradient id="Безымянный_градиент_873" x1="98.5" y1="97.8" x2="102.25" y2="20.47" gradientUnits="userSpaceOnUse"><stop offset="0.37" stop-color="#fabb80"/><stop offset="0.83" stop-color="#faa16c"/></linearGradient><linearGradient id="Безымянный_градиент_783" x1="2565.25" y1="-171.22" x2="2560.1" y2="-160.8" gradientTransform="matrix(-1.12, 0.43, 0.36, 0.93, 2980.98, -699.23)" gradientUnits="userSpaceOnUse"><stop offset="0.46" stop-color="#fabb80"/><stop offset="1" stop-color="#faa16c"/></linearGradient><linearGradient id="Безымянный_градиент_159" x1="2570.66" y1="-173.18" x2="2571.08" y2="-191.35" gradientTransform="matrix(-1.12, 0.43, 0.36, 0.93, 2980.98, -699.23)" gradientUnits="userSpaceOnUse"><stop offset="0.64" stop-color="#ffd7a5"/><stop offset="1" stop-color="#faa96c"/></linearGradient><linearGradient id="Безымянный_градиент_1231-2" x1="23.79" y1="375.04" x2="23.79" y2="66.94" xlink:href="#Безымянный_градиент_1231"/><linearGradient id="Безымянный_градиент_1231-3" x1="22.2" y1="375.04" x2="22.2" y2="66.94" xlink:href="#Безымянный_градиент_1231"/><linearGradient id="Безымянный_градиент_913" x1="67.24" y1="232.49" x2="16.22" y2="275.39" gradientUnits="userSpaceOnUse"><stop offset="0.35" stop-color="#694538"/><stop offset="1" stop-color="#1c1007"/></linearGradient><linearGradient id="Безымянный_градиент_3070" x1="3077.37" y1="126.69" x2="3077.37" y2="220.19" gradientTransform="translate(-2582.57 1637.36) rotate(-28.99)" gradientUnits="userSpaceOnUse"><stop offset="0" stop-color="#5d7d91"/><stop offset="1" stop-color="#170f1f"/></linearGradient><linearGradient id="Безымянный_градиент_3070-2" x1="553.26" y1="154.92" x2="552.51" y2="209.21" gradientTransform="matrix(-0.87, 0.48, 0.48, 0.87, 593, -122.04)" xlink:href="#Безымянный_градиент_3070"/><linearGradient id="Безымянный_градиент_3070-3" x1="3077.26" y1="166.17" x2="3077.46" y2="180.04" gradientTransform="translate(-2883.98 124.22)" xlink:href="#Безымянный_градиент_3070"/><linearGradient id="Безымянный_градиент_1198" x1="55.41" y1="19.37" x2="159.58" y2="231.13" gradientUnits="userSpaceOnUse"><stop offset="0" stop-color="#b3e571"/><stop offset="0.99" stop-color="#4b8b41"/></linearGradient><radialGradient id="Безымянный_градиент_25" cx="95.03" cy="222.19" r="40.39" xlink:href="#Безымянный_градиент_948"/><linearGradient id="Безымянный_градиент_911" x1="65.72" y1="83.92" x2="106.78" y2="36.73" gradientUnits="userSpaceOnUse"><stop offset="0" stop-color="#7b885d"/><stop offset="0.99" stop-color="#556f43"/></linearGradient><linearGradient id="Безымянный_градиент_911-2" x1="76.16" y1="101.98" x2="69.32" y2="209.86" xlink:href="#Безымянный_градиент_911"/><linearGradient id="Новый_образец_градиента_копия_3" x1="74.49" y1="131.84" x2="73.08" y2="156.05" gradientUnits="userSpaceOnUse"><stop offset="0" stop-color="#ddf5f5"/><stop offset="1" stop-color="#c6d9db"/></linearGradient><linearGradient id="Безымянный_градиент_3" x1="58.22" y1="139.23" x2="88.48" y2="143.79" gradientUnits="userSpaceOnUse"><stop offset="0.33" stop-color="#faf8eb"/><stop offset="0.57" stop-color="#f3efde"/><stop offset="0.96" stop-color="#e3dac1"/></linearGradient><linearGradient id="Безымянный_градиент_3-2" x1="60.87" y1="142.76" x2="63.96" y2="157.43" xlink:href="#Безымянный_градиент_3"/><linearGradient id="Новый_образец_градиента_копия_2-3" x1="73.37" y1="140.42" x2="74.48" y2="132.76" xlink:href="#Новый_образец_градиента_копия_2"/><linearGradient id="Новый_образец_градиента_копия_3-2" x1="111.11" y1="49.53" x2="118.09" y2="66.74" xlink:href="#Новый_образец_градиента_копия_3"/><linearGradient id="Новый_образец_градиента_копия_3-3" x1="74.17" y1="52.13" x2="63.39" y2="64.87" xlink:href="#Новый_образец_градиента_копия_3"/><linearGradient id="Новый_образец_градиента_копия_3-4" x1="91.54" y1="65.51" x2="90.67" y2="76.3" xlink:href="#Новый_образец_градиента_копия_3"/><linearGradient id="Безымянный_градиент_911-3" x1="114.92" y1="104.44" x2="108.08" y2="212.32" xlink:href="#Безымянный_градиент_911"/><linearGradient id="Безымянный_градиент_911-4" x1="41.73" y1="99.8" x2="34.89" y2="207.68" xlink:href="#Безымянный_градиент_911"/><linearGradient id="Безымянный_градиент_948-3" x1="92.16" y1="205.07" x2="92.33" y2="251.42" xlink:href="#Безымянный_градиент_948"/><linearGradient id="Безымянный_градиент_948-4" x1="92.95" y1="226.9" x2="91.11" y2="207.39" xlink:href="#Безымянный_градиент_948"/><linearGradient id="Новый_образец_градиента_копия_2-4" x1="91.84" y1="173.04" x2="91.84" y2="195.32" xlink:href="#Новый_образец_градиента_копия_2"/><linearGradient id="Безымянный_градиент_158" x1="92.21" y1="175.64" x2="91.51" y2="225.89" gradientUnits="userSpaceOnUse"><stop offset="0" stop-color="#fff"/><stop offset="1" stop-color="#c6d9db"/></linearGradient><linearGradient id="Безымянный_градиент_600" x1="78.77" y1="178.35" x2="88.95" y2="196.79" gradientUnits="userSpaceOnUse"><stop offset="0" stop-color="#ddf5f5" stop-opacity="0"/><stop offset="1" stop-color="#faffff" stop-opacity="0.5"/></linearGradient><linearGradient id="Новый_образец_градиента_копия_2-5" x1="91.84" y1="227.52" x2="91.84" y2="234.16" xlink:href="#Новый_образец_градиента_копия_2"/><linearGradient id="Безымянный_градиент_948-5" x1="92.19" y1="217.67" x2="91.36" y2="250.6" xlink:href="#Безымянный_градиент_948"/><linearGradient id="Безымянный_градиент_32" x1="73.53" y1="220.23" x2="110.79" y2="220.23" gradientTransform="matrix(1, -0.01, 0.01, 1, -1.57, 0.52)" gradientUnits="userSpaceOnUse"><stop offset="0" stop-color="#9799a1"/><stop offset="1" stop-color="#c6d9db"/></linearGradient><linearGradient id="Безымянный_градиент_32-2" x1="109.95" y1="230" x2="109.78" y2="218.89" gradientTransform="matrix(1, 0, 0, 1, 0, 0)" xlink:href="#Безымянный_градиент_32"/><linearGradient id="Безымянный_градиент_1226" x1="150.02" y1="37.78" x2="194.7" y2="115.15" gradientUnits="userSpaceOnUse"><stop offset="0" stop-color="#c3d7f0"/><stop offset="0.57" stop-color="#8d99a7"/></linearGradient><linearGradient id="Безымянный_градиент_1226-2" x1="140.82" y1="64.52" x2="181.55" y2="135.07" xlink:href="#Безымянный_градиент_1226"/><linearGradient id="Безымянный_градиент_1226-3" x1="133.98" y1="90.66" x2="168.73" y2="150.83" xlink:href="#Безымянный_градиент_1226"/><linearGradient id="Безымянный_градиент_1226-4" x1="133.05" y1="116.95" x2="166.66" y2="175.16" xlink:href="#Безымянный_градиент_1226"/><linearGradient id="Безымянный_градиент_1226-5" x1="131.71" y1="146.41" x2="162.59" y2="199.9" xlink:href="#Безымянный_градиент_1226"/><linearGradient id="Безымянный_градиент_1226-6" x1="128.1" y1="177.8" x2="154.36" y2="223.27" xlink:href="#Безымянный_градиент_1226"/><linearGradient id="Новый_образец_градиента_копия_2-6" x1="132.7" y1="15.78" x2="114.69" y2="204.51" xlink:href="#Новый_образец_градиента_копия_2"/><linearGradient id="Новый_образец_градиента_копия_3-5" x1="132.79" y1="238.7" x2="162.83" y2="238.7" gradientTransform="matrix(0.74, 0.68, -0.68, 0.74, 197.55, -46.57)" xlink:href="#Новый_образец_градиента_копия_3"/><linearGradient id="Безымянный_градиент_481" x1="163.12" y1="268.27" x2="145.06" y2="223.56" gradientTransform="matrix(0.74, 0.68, -0.68, 0.74, 197.55, -46.57)" gradientUnits="userSpaceOnUse"><stop offset="0" stop-color="#ddf5f5"/><stop offset="1" stop-color="#fafff5"/></linearGradient><linearGradient id="Безымянный_градиент_159-2" x1="149.28" y1="1994.53" x2="142.91" y2="2007.41" gradientTransform="matrix(1.19, 0.13, -0.11, 0.99, 215.05, -1759.71)" xlink:href="#Безымянный_градиент_159"/><linearGradient id="Безымянный_градиент_159-3" x1="155.96" y1="1992.1" x2="156.49" y2="1969.64" gradientTransform="matrix(1.19, 0.13, -0.11, 0.99, 215.05, -1759.71)" xlink:href="#Безымянный_градиент_159"/><linearGradient id="Безымянный_градиент_1231-4" x1="184.36" y1="42.94" x2="199.02" y2="231.65" xlink:href="#Безымянный_градиент_1231"/><linearGradient id="Безымянный_градиент_1231-5" x1="34.78" y1="788.43" x2="122.79" y2="654.77" gradientTransform="translate(-226.27 -429.41) rotate(-28.99)" xlink:href="#Безымянный_градиент_1231"/><linearGradient id="Безымянный_градиент_914" x1="122.57" y1="241.96" x2="167.35" y2="289.38" gradientUnits="userSpaceOnUse"><stop offset="0.17" stop-color="#694538"/><stop offset="0.38" stop-color="#57382c"/><stop offset="0.79" stop-color="#27180e"/><stop offset="0.88" stop-color="#1c1007"/></linearGradient><linearGradient id="Безымянный_градиент_1231-6" x1="5519.67" y1="46.39" x2="5526.49" y2="100.02" gradientTransform="matrix(-1, 0, 0, 1, 5561.19, 0)" xlink:href="#Безымянный_градиент_1231"/><linearGradient id="Безымянный_градиент_1231-7" x1="5526.31" y1="68.75" x2="5534.16" y2="130.51" gradientTransform="matrix(-1, 0, 0, 1, 5561.19, 0)" xlink:href="#Безымянный_градиент_1231"/><linearGradient id="Безымянный_градиент_1231-8" x1="5527.7" y1="96.27" x2="5534.56" y2="150.27" gradientTransform="matrix(-1, 0, 0, 1, 5561.19, 0)" xlink:href="#Безымянный_градиент_1231"/><linearGradient id="Безымянный_градиент_1231-9" x1="5527.71" y1="122.99" x2="5534.11" y2="173.38" gradientTransform="matrix(-1, 0, 0, 1, 5561.19, 0)" xlink:href="#Безымянный_градиент_1231"/><linearGradient id="Безымянный_градиент_1231-10" x1="5525.51" y1="151.73" x2="5531" y2="194.93" gradientTransform="matrix(-1, 0, 0, 1, 5561.19, 0)" xlink:href="#Безымянный_градиент_1231"/><linearGradient id="Безымянный_градиент_1231-11" x1="5523.76" y1="180.44" x2="5528.61" y2="218.62" gradientTransform="matrix(-1, 0, 0, 1, 5561.19, 0)" xlink:href="#Безымянный_градиент_1231"/><linearGradient id="Новый_образец_градиента_копия_2-7" x1="60.47" y1="8.89" x2="42.47" y2="197.62" xlink:href="#Новый_образец_градиента_копия_2"/></defs><g id="Слой_2" data-name="Слой 2"><g id="Слой_2-2" data-name="Слой 2"><path class="cls-1" d="M34.88,51.6c-4.35,8.08,109.9-11.85,111-21.08C147.2,19.61,56,12.52,34.88,51.6Z"/><polygon class="cls-2" points="75.72 384.75 75.72 396.44 81.91 397.11 83.48 384.75 75.72 384.75"/><path class="cls-3" d="M84,393.68l3.2,15.11H78.4l-.62-2.06-11.66,2.06s-19.25,0-24.75-4.12a5.34,5.34,0,0,1,1.07-2.75c5.8,0,23.66-1.37,29.85-7.56C74.35,394.36,79.84,397.8,84,393.68Z"/><path class="cls-4" d="M38.62,215c-2.75,48.86,15.8,93.65,17.86,104.24s17.18,55.38,17.18,70c5.5,1.63,10.5.81,11.43,0,4.62-24.43,9.87-48.05,2.31-57-.69-17.91,11-88.77,14.43-103.43C81.91,219.08,48.93,210.12,38.62,215Z"/><polygon class="cls-5" points="137.56 384.75 137.56 396.44 143.74 397.11 145.32 384.75 137.56 384.75"/><path class="cls-6" d="M145.8,393.68l3.2,15.11h-8.77l-.61-2.06L128,408.79s-19.25,0-24.75-4.12a5.34,5.34,0,0,1,1.07-2.75c5.8,0,23.67-1.37,29.85-7.56C136.18,394.36,141.68,397.8,145.8,393.68Z"/><path class="cls-7" d="M149.24,210.94c13,26.87-.86,97.72-3.18,120.53,7,4.88,9.2,14.91,0,58.76-2.58,2.19-11.25-.94-11.94-2.57-.69-29.32-20.73-80-25.42-91.21s-48.78-41.54-46-75.74C103.89,210.12,149.24,210.94,149.24,210.94Z"/><path class="cls-8" d="M131.37,0s-.68,31.6,1.38,41.22c-2.06,39.85-40.2,60.35-52.22,56.34-20.61-6.87-8.93-68-4.81-79S131.37,0,131.37,0Z"/><path class="cls-9" d="M48.67,230.61c-2.12-.67,4.62,12.58,7.42,12S63.23,235.19,48.67,230.61Z"/><path class="cls-10" d="M25.4,191.87c7.4,13.84,18,34.21,18,34.21,7.35,4.34,12.67,7.08,11.79,10.39s5.72,15.07,1.17,16.2-11.54-1-11.54-1c-.23,1.94-2.52,3.4-3.94,1.56S31,242.1,30.58,239.26s3.11-13,2.92-14.18c-1.56-5.37-15.44-30.42-15.44-30.42Z"/><path class="cls-11" d="M31.75,60.46c-13.7,9.78-33.66,38-31.6,87.25C1.52,180.69,34,177.16,34.5,145S65.43,36.43,31.75,60.46Z"/><path class="cls-12" d="M2.53,170c3.24,23.34,18.6,54.54,27.85,61.52a31.46,31.46,0,0,0,12-7.76C40,194.15,39.22,174.18,29.6,162.7S-1.34,142.1,2.53,170Z"/><path class="cls-13" d="M50.3,225.35c.69,5.5-7.56,22-13.74,24.73,4.81,8.94,6.89,21.13,6.89,21.13C55.11,269.32,74.35,244.59,50.3,225.35Z"/><path class="cls-14" d="M169.18,254.13a50,50,0,1,0,67.91,19.48A50,50,0,0,0,169.18,254.13Zm43.28,78.11a40.46,40.46,0,1,1,15.78-55A40.47,40.47,0,0,1,212.46,332.24Z"/><path class="cls-15" d="M186.31,284.93c11.48-6.36,33-7.31,36.85-15,4.54-2.71,12.78,10.08,6.59,10.15-5-2.68-10.54,3.75-12,16.05-1.37,11.43,9.6,12.76,14.88,8.45,5,2.12,1.11,15.25-4.86,12.81-1.27-6.33-12.7-1.91-21.73,3.1l-.1.05c-9,5-18.85,12.35-14.15,16.78-1.1,6.36-14.31,2.71-13.44-2.66,6.46-2.2,11.14-12.21.73-17.1-11.22-5.27-19.59-4-20,1.67-3.34,5.22-9.82-8.55-5.11-11,8.57.78,20.78-16.94,32.25-23.29"/><ellipse class="cls-16" cx="193.39" cy="297.82" rx="8.37" ry="6.42" transform="translate(-120.11 131.03) rotate(-28.99)"/><path class="cls-17" d="M99.77,62.52,87.4,70.08,81.58,87.71,78.21,70.17,69.54,57.71S49.61,92.75,80.19,101C100,106.41,121.07,78.32,99.77,62.52Z"/><path class="cls-18" d="M131.85,27.21c-38.94,81-72.31,81-59.95,8C36.67,58.73,31.75,60.46,31.75,60.46,15.36,90.33,17.38,166.8,42.06,219.85c-2.06,10.31,77,25.21,107.86-1.37,5.5-83.82,18.82-127.7,40.93-152.43C161.84,41.52,141.74,33.39,131.85,27.21Z"/><path class="cls-19" d="M39.31,213.67c12,7.6,61.44,25.57,111.45-4-.3,4.67-.84,8.86-.84,8.86-15.11,17.18-77.63,24.05-107.86,4.12A43.42,43.42,0,0,0,39.31,213.67Z"/><path class="cls-20" d="M139.62,30.92c-2-1.09-6.26-2.76-7.77-3.71-38.94,81-72.31,81-59.95,8L64.69,40C48.89,113.42,96.33,121.61,139.62,30.92Z"/><path class="cls-21" d="M77.15,105.93S53.77,150.19,50.43,155.2C53.77,171.06,73,205.3,73,205.3c4.17-12.53,22.13-49.7,22.13-49.7C89.68,144.34,78,113.45,77.15,105.93Z"/><path class="cls-22" d="M123.81,37.51s-44,97.15-49.46,96.46-4.12-92.75-4.12-92.75"/><path class="cls-23" d="M57.17,137.41c10.31-.69,28.86,0,33,.69,2.06,5.49-.69,22-.69,22-2.75,1.38-31.6-1.37-33-2.06C55.8,154.59,56.48,141.53,57.17,137.41Z"/><path class="cls-24" d="M58.55,139.47c5.49-.69,26.79-.69,29.54.69V144c-4.12-.41-28.86-.83-29.54-1Z"/><path class="cls-25" d="M59,155.62s-.55-7.93,0-10.43c1.53,0,5.78-.22,7.15.46.69,3.44,0,8.94-.68,10.31C64,156,59.36,155.27,59,155.62Z"/><path class="cls-26" d="M73.56,140.27c1.47-2.17,2.85-7.67.79-7.67S72.77,139,73.56,140.27Z"/><path class="cls-27" d="M131.37,22c-2.75,7.55-37.1,44-44,48.09,8.25-3.44,11.68-7.56,26.11,10.3C118.32,68,134,32.74,134.41,28.74,133.14,23.48,131.37,22,131.37,22Z"/><path class="cls-28" d="M78.21,70.17,71.6,33l-3.44,3.43-11,36.42C69.54,62.52,73.66,63.21,78.21,70.17Z"/><circle class="cls-29" cx="90.84" cy="74.2" r="2.75"/><path class="cls-30" d="M115.14,132l-14.33,23.91,10.58,22.7s10.26-20.36,11-21.58S115.72,137,115.14,132Z"/><path class="cls-31" d="M45.42,153.53c-.83,4.17-6.68,17.53-7.51,20.87-2.51-4.17-6.68-20.87-6.68-20.87l7.09-17.91Z"/><path class="cls-32" d="M70.79,214.85c6.53.65,30.25,1.48,42.23-1.22,2.4,8.32,5,25.52,0,29s-37.06,3.92-41.57.91C65.57,239.67,70.79,214.85,70.79,214.85Z"/><path class="cls-33" d="M73.41,219.42l-2.62-4.57s37.5-.35,41.93-1.15c-.92,2.31-2.09,5.07-2.09,5.07C104.1,221.38,78,222,73.41,219.42Z"/><path class="cls-34" d="M73.41,219.57c8.49,3.7,33.3,3.08,37.22-.62C98.22,215.87,77.32,218.34,73.41,219.57Z"/><rect class="cls-35" x="74.75" y="176.25" width="34.17" height="57.77" rx="4.85"/><rect class="cls-36" x="77.94" y="179.45" width="27.78" height="46.22" rx="3.91"/><rect class="cls-37" x="83.46" y="189.88" width="4.19" height="4.19"/><rect class="cls-37" x="87.65" y="194.07" width="2.09" height="2.09"/><rect class="cls-37" x="91.84" y="191.97" width="2.09" height="2.09"/><rect class="cls-37" x="91.84" y="198.25" width="2.09" height="2.09"/><rect class="cls-37" x="91.84" y="196.16" width="2.09" height="2.09"/><rect class="cls-37" x="98.11" y="198.25" width="2.09" height="2.09"/><rect class="cls-37" x="93.93" y="194.07" width="2.09" height="2.09"/><rect class="cls-37" x="89.74" y="189.88" width="2.09" height="2.09"/><rect class="cls-37" x="89.74" y="200.35" width="2.09" height="2.09"/><rect class="cls-37" x="87.65" y="200.35" width="2.09" height="2.09"/><rect class="cls-37" x="83.46" y="198.25" width="2.09" height="2.09"/><rect class="cls-37" x="85.56" y="196.16" width="2.09" height="2.09"/><rect class="cls-37" x="96.02" y="196.16" width="2.09" height="2.09"/><rect class="cls-37" x="89.74" y="204.53" width="2.09" height="2.09"/><rect class="cls-37" x="91.84" y="202.44" width="2.09" height="2.09"/><rect class="cls-37" x="96.02" y="189.88" width="4.19" height="4.19"/><rect class="cls-37" x="83.46" y="202.44" width="4.19" height="4.19"/><rect class="cls-37" x="96.02" y="202.44" width="4.19" height="4.19"/><rect class="cls-38" x="81.14" y="187.56" width="21.39" height="21.39"/><path class="cls-39" d="M77.94,221.67V183.44a3.92,3.92,0,0,1,3.84-4h20.11a3.92,3.92,0,0,1,3.84,4"/><rect class="cls-40" x="86.06" y="227.88" width="11.55" height="3.69" rx="1.84"/><path class="cls-41" d="M110,241c-2,3.27-33.3,4.57-36.56.65-1.68-2-.66-18.28,0-22.2,2.61.66,26.12,2.61,37.22-.65C111.28,222,111.65,238.17,110,241Z"/><path class="cls-42" d="M92,221.51a111.63,111.63,0,0,1-18-1.07.65.65,0,1,1,.23-1.28c8.18,1.49,28.37,1.49,35.67-.49a.66.66,0,0,1,.34,1.27C106.39,221,99.19,221.47,92,221.51Z"/><path class="cls-43" d="M109.91,219.44c-1.24,0-2.36,8.66-1.89,9.12.65.66,3.91,1.31,3.91,0S111.14,219.45,109.91,219.44Z"/><path class="cls-44" d="M192.91,66.56C192.11,60,155,29,139.36,25.48c-1.31,9.05-2,16.71-6.53,28.55C140,61,175.54,82,179,84S194.86,82.57,192.91,66.56Z"/><path class="cls-45" d="M133.48,51.94c5.23,0,41.14,27.84,45.71,31.32s3.09,24.7-10.86,23.49S122.44,87,123.81,82.48C127.61,70,131.52,59.59,133.48,51.94Z"/><path class="cls-46" d="M170.7,103.45c4.47,3.57,4.57,17.41-3.91,19.49s-49.49-1.86-48.33-8.35c2.62-14.62,3.27-25.06,5.88-32.72C129.56,81.87,168.09,101.36,170.7,103.45Z"/><path class="cls-47" d="M165.66,120.4c-9.3-1.75-38.37-9.15-46.54-9.29-1.31,10.44-3.27,19.49-3.36,31.79-.08,11.09,49.05,5.19,52.5,3.62C172.66,144.53,174.33,122,165.66,120.4Z"/><path class="cls-48" d="M116.5,142.44c-.65,8.35-2,18.79-3.91,35.5,9.79,2.09,42.44.7,46.36-1.39s14.78-31.37,8-32.05S116.5,142.44,116.5,142.44Z"/><path class="cls-49" d="M158.27,174.37c5.38.36,3.39,22.62-3.52,27s-39.93,8.78-42,7.29c-.92-7.87.38-32.31.12-32.92C128,173.86,156.93,174.28,158.27,174.37Z"/><path class="cls-50" d="M138.71,28.75c-2.62,26.77-15,53.54-20.9,96.64-2.38,17.48-3.65,75.15-5.09,83.29-3.53-28.14.73-76.5,4.87-99.48S136.75,34.62,138.71,28.75Z"/><path class="cls-51" d="M152.7,199.11c5.51,5,16.7,17.32,22.16,20.28-8.81,9.62-33.6,35.22-33.6,35.22-6.38.29-22.14-10.74-22.64-13.91C126.14,234,146.47,209.73,152.7,199.11Z"/><path class="cls-52" d="M155.16,207.47c5.89,4.72,15.82,12.45,19.7,11.92-11.15,12.92-30.52,32.6-35.41,42.41-3.95-.89-14.16-6.83-20.14-13.67C125.07,241.83,147.18,219.9,155.16,207.47Z"/><polygon class="cls-53" points="160.15 220.52 158.55 219.38 159.69 217.78 157.81 216.44 156.67 218.04 155.07 216.9 153.73 218.77 155.33 219.92 154.18 221.51 156.06 222.86 157.21 221.26 158.8 222.4 160.15 220.52"/><path class="cls-54" d="M172.83,221.61c-2.87-.58-13.82-7.2-17.15-10.25C153,215,126.27,245,123.56,247.94c2.65,3.79,12.51,10.07,17.7,10.74"/><path class="cls-55" d="M148.87,230c-.15-.13-.48-.44,2.35-5.54l-4.43,3a.25.25,0,0,1-.29-.41l5.32-3.63a.24.24,0,0,1,.31,0h0a.25.25,0,0,1,.05.31,43,43,0,0,0-2.9,5.81,8.19,8.19,0,0,0,1.06-.54c.9-.51,1.39-.77,1.69-.56a.44.44,0,0,1,.15.45,4.1,4.1,0,0,0,.22,2.35,13.07,13.07,0,0,0,2.12-.57c2.18-.69,3.24-1,3.61-.64a.42.42,0,0,1,.11.42c-.06.24-.13.47-.2.69a3.16,3.16,0,0,0-.18,2,.25.25,0,0,1-.47.17,3.6,3.6,0,0,1,.17-2.31q.09-.28.18-.6a13,13,0,0,0-3.07.76c-1.85.58-2.35.71-2.58.49-.48-.43-.55-1.86-.42-2.75a8.33,8.33,0,0,0-1.08.54C149.66,230,149.16,230.21,148.87,230Z"/><path class="cls-55" d="M146.4,239.94l-.05-.06c-.4-.48.05-1.5,1.08-3.5l-.45-.1a2.93,2.93,0,0,0-2.24,0q-.62.36-1,.09c-.61-.42-.4-1.83-.1-3.29,0-.13,0-.15,0-.16-.2-.17-1.13,0-2.34.46a.24.24,0,0,1-.33-.13.25.25,0,0,1,.14-.33c.66-.28,2.28-.86,2.85-.39a.63.63,0,0,1,.19.65c-.45,2.16-.26,2.67-.1,2.78s.23,0,.44-.12a3.4,3.4,0,0,1,2.62-.08l.57.13,0,0,.5-1c.53-1,1.06-1.53,1.57-1.46a.86.86,0,0,1,.67.77,1.91,1.91,0,0,1-.83,2,2.41,2.41,0,0,1-1.65.27c-.72,1.38-1.43,2.82-1.21,3.09,0,0,.09.1.56,0a14,14,0,0,0,2.62-1.36c1.28-.78,1.74-1,2-.78h0c.24.21.05.58,0,.74-.24.5-.18.61-.18.61s.3.07.44.08a1.82,1.82,0,0,1,1.16.37.26.26,0,0,1,0,.36.25.25,0,0,1-.36,0,1.36,1.36,0,0,0-.86-.24c-.33,0-.67-.05-.84-.33s-.09-.56.17-1.08l0-.06a11.7,11.7,0,0,0-1.32.75,14.55,14.55,0,0,1-2.73,1.41C147.26,240.06,146.71,240.22,146.4,239.94Zm3.39-6a.19.19,0,0,0-.1,0c-.19,0-.58.28-1.05,1.2-.15.3-.3.59-.45.86a1.83,1.83,0,0,0,1.15-.22,1.43,1.43,0,0,0,.6-1.46A.6.6,0,0,0,149.79,234Z"/><path class="cls-55" d="M136.92,244.83l-.08-.09c-.29-.49.37-1.46,2.07-3.72.67-.89,1.36-1.8,1.78-2.5.19-.3.17-.4.17-.41-.46-.22-4.14,1.77-5.09,2.81a.25.25,0,0,1-.36,0,.24.24,0,0,1,0-.35c.76-.83,4.92-3.48,5.78-2.84.26.2.24.55-.06,1-.43.72-1.13,1.64-1.8,2.54a14.24,14.24,0,0,0-2,3.13h.11c.45-.08,1-.2,1.44-.32,1.28-.31,2-.47,2.39-.2a.53.53,0,0,1,.2.39c0,.18.4.47.93.77a8.4,8.4,0,0,0,.33-1.23.86.86,0,0,1,.58-.76c.71-.24,1.9.4,2.7,1.17.39.37,1,1.07.85,1.67a.88.88,0,0,1-.46.54c-.85.43-2.52-.18-2.71-.25s-.59-.23-1-.43c-.27.8-.49,1.58-.25,1.9.11.15.35.21.7.2a7.29,7.29,0,0,0,2.3-.53c.45-.18.72-.28.94-.13a.48.48,0,0,1,.2.4,2.73,2.73,0,0,1,0,.31,4.53,4.53,0,0,1,.45.26.25.25,0,1,1-.27.42,3.2,3.2,0,0,0-.52-.28.28.28,0,0,1-.18-.4.78.78,0,0,0,0-.27,2.55,2.55,0,0,0-.46.16,7.64,7.64,0,0,1-2.46.56A1.27,1.27,0,0,1,142,248c-.41-.54-.13-1.45.19-2.44-.65-.35-1.25-.79-1.27-1.23h0c-.18-.16-1.3.12-2,.28-.49.12-1,.24-1.48.33A.63.63,0,0,1,136.92,244.83Zm8.62-.27c-.76-.7-1.7-1.14-2.13-1-.09,0-.21.1-.25.36a8.64,8.64,0,0,1-.36,1.39c.32.16.67.31,1,.44a4,4,0,0,0,2.3.27.35.35,0,0,0,.2-.23c.06-.2-.14-.63-.7-1.17Z"/><path class="cls-56" d="M176.8,241.21c2.33-1.46-1.6,16.48-5.12,16.72S160.82,251.23,176.8,241.21Z"/><path class="cls-57" d="M192.53,187.62c-4.52,18.86-10.83,46.51-10.83,46.51-7.43,7.49-12.93,12.43-10.84,16.11s-2.14,19.81,3.66,19.74S188,265.15,188,265.15c.88,2.24,4.08,3.28,5.19.63s8.4-16.37,7.95-19.87-7.8-14.64-7.92-16c.19-6.91,9-41.2,9-41.2Z"/><path class="cls-58" d="M192.91,66.62c13.9,10,26.7,43.41,18.05,92.85s-32.88,17.63-40.62-14.21C160.92,106.49,176.58,54.87,192.91,66.62Z"/><path class="cls-59" d="M213.35,167.12c3.63,22.79-9.1,60.4-15.77,69.58-11.55,3.26-20.72-3.87-20.72-3.87-6.24-28.41-11.31-59.41-5.59-72.92S209,139.88,213.35,167.12Z"/><path class="cls-60" d="M123.13,231.53c2.06,12.37,20.65,16.67,28.87,16.58C138.22,278.85,99.77,271.38,123.13,231.53Z"/><path class="cls-61" d="M24.43,62.05C29.66,54.21,46,42.5,61.65,39.2c-3.26,5.22-9.14,12.4-8.48,21.89C46,67.71,25.28,76.44,21.82,78.38S15.92,74.81,24.43,62.05Z"/><path class="cls-62" d="M52.52,59.76c-5.23,0-26.78,13.35-31.35,16.66s-10.45,30-2,30.69c13.95,1.07,27.52-14.46,28.08-18.94C48.59,77.72,51.86,67.93,52.52,59.76Z"/><path class="cls-63" d="M19.87,106.1c-4.46,3.39-7.84,21.76.65,23.74S46.3,124.91,46,118.64a142.39,142.39,0,0,1,1.3-30.44C42.07,88.2,22.48,104.11,19.87,106.1Z"/><path class="cls-64" d="M21.65,127.42c9.31-4.64,15.52-12,23.69-12.09,0,9.41-.1,18,0,29.65.08,10.54-20.22,10.71-23.67,9.23C17.26,152.31,13.77,131.35,21.65,127.42Z"/><path class="cls-65" d="M45.34,145.1C46,153,46,161,48,176.88c-9.8,2-18.94,3.27-22.86,1.28s-9.8-22.08-2.16-25.87C29,149.27,45.34,145.1,45.34,145.1Z"/><path class="cls-66" d="M25.77,176.1c-5.38.34-2.36,22.16,4.54,26.34s16.19,4,18.28,2.62c.93-7.48-1.15-29.68-.9-30.26C32.53,173,27.11,176,25.77,176.1Z"/><path class="cls-67" d="M63.16,35.37c-13.91,28-14.57,60-15.87,83.49s3.63,70.72,1.49,83.68C43.84,144.23,42.15,127,45.33,96,47.94,70.54,51,52.45,63.16,35.37Z"/></g></g></svg>