<svg xmlns="http://www.w3.org/2000/svg" xmlns:xlink="http://www.w3.org/1999/xlink" viewBox="0 0 169.31 446"><defs><style>.cls-1,.cls-15{fill:none;}.cls-2{fill:url(#Безымянный_градиент_1939);}.cls-3{fill:url(#Безымянный_градиент_57);}.cls-4{fill:url(#Безымянный_градиент_139);}.cls-5{fill:url(#Безымянный_градиент_3070);}.cls-6{fill:url(#Безымянный_градиент_3070-2);}.cls-7{fill:url(#Безымянный_градиент_3070-3);}.cls-8{fill:url(#Безымянный_градиент_159);}.cls-9{fill:url(#Безымянный_градиент_58);}.cls-10{fill:url(#Безымянный_градиент_159-2);}.cls-11{fill:url(#Безымянный_градиент_139-2);}.cls-12{fill:url(#Безымянный_градиент_1924);}.cls-13{fill:url(#Новый_образец_градиента_копия_2);}.cls-14{fill:url(#Безымянный_градиент_18);}.cls-15{stroke:#283547;stroke-linecap:round;stroke-linejoin:round;stroke-width:1.47px;}.cls-16{fill:url(#Новый_образец_градиента_копия_7);}.cls-17{fill:url(#Новый_образец_градиента_копия);}.cls-18{fill:url(#Новый_образец_градиента_копия-2);}.cls-19{fill:#cf5555;}.cls-20{fill:url(#Безымянный_градиент_1924-2);}.cls-21{fill:url(#Новый_образец_градиента_копия_2-2);}.cls-22{fill:url(#Безымянный_градиент_18-2);}.cls-23{fill:url(#Безымянный_градиент_139-3);}.cls-24{clip-path:url(#clip-path);}.cls-25{opacity:0.4;}.cls-26{fill:#211c20;}.cls-27{fill:url(#Безымянный_градиент_139-4);}.cls-28{fill:url(#Безымянный_градиент_139-5);}.cls-29{fill:url(#Безымянный_градиент_139-6);}.cls-30{fill:url(#Безымянный_градиент_1939-2);}.cls-31{fill:url(#Безымянный_градиент_1939-3);}.cls-32{fill:url(#Безымянный_градиент_1939-4);}.cls-33{fill:url(#Безымянный_градиент_1939-5);}.cls-34{fill:url(#Новый_образец_градиента_копия_7-2);}.cls-35{fill:url(#Безымянный_градиент_139-7);}.cls-36{fill:url(#Безымянный_градиент_139-8);}.cls-37{fill:url(#Безымянный_градиент_159-3);}.cls-38{fill:url(#Безымянный_градиент_159-4);}.cls-39{fill:url(#Безымянный_градиент_159-5);}</style><linearGradient id="Безымянный_градиент_1939" x1="84.28" y1="-0.57" x2="81.28" y2="50.28" gradientUnits="userSpaceOnUse"><stop offset="0" stop-color="#ffd63c"/><stop offset="1" stop-color="#d38527"/></linearGradient><linearGradient id="Безымянный_градиент_57" x1="80.11" y1="52.52" x2="84.27" y2="16.67" gradientUnits="userSpaceOnUse"><stop offset="0.63" stop-color="#fac38f"/><stop offset="0.96" stop-color="#faa96c"/></linearGradient><linearGradient id="Безымянный_градиент_139" x1="33.58" y1="31" x2="48.7" y2="117.7" gradientUnits="userSpaceOnUse"><stop offset="0" stop-color="#ab8faf"/><stop offset="1" stop-color="#374b6b"/></linearGradient><linearGradient id="Безымянный_градиент_3070" x1="66.85" y1="280.86" x2="66.85" y2="374.38" gradientTransform="matrix(0.72, 0.7, -0.7, 0.72, 231.07, -0.96)" gradientUnits="userSpaceOnUse"><stop offset="0" stop-color="#5d7d91"/><stop offset="1" stop-color="#170f1f"/></linearGradient><linearGradient id="Безымянный_градиент_3070-2" x1="5491.57" y1="-1124.43" x2="5490.82" y2="-1070.14" gradientTransform="matrix(-0.96, -0.26, -0.26, 0.96, 5054.24, 2797.19)" xlink:href="#Безымянный_градиент_3070"/><linearGradient id="Безымянный_градиент_3070-3" x1="249.69" y1="-1113.18" x2="249.89" y2="-1099.3" gradientTransform="translate(-1055.78 30.51) rotate(90)" xlink:href="#Безымянный_градиент_3070"/><linearGradient id="Безымянный_градиент_159" x1="41.81" y1="158.89" x2="46.81" y2="250.58" gradientUnits="userSpaceOnUse"><stop offset="0.64" stop-color="#ffd7a5"/><stop offset="1" stop-color="#faa96c"/></linearGradient><linearGradient id="Безымянный_градиент_58" x1="54.57" y1="158.19" x2="59.58" y2="249.89" gradientUnits="userSpaceOnUse"><stop offset="0.77" stop-color="#fac38f"/><stop offset="1" stop-color="#faa96c"/></linearGradient><linearGradient id="Безымянный_градиент_159-2" x1="46.38" y1="158.64" x2="51.38" y2="250.33" xlink:href="#Безымянный_градиент_159"/><linearGradient id="Безымянный_градиент_139-2" x1="36.65" y1="129.19" x2="36.8" y2="169.88" xlink:href="#Безымянный_градиент_139"/><linearGradient id="Безымянный_градиент_1924" x1="69.07" y1="119.4" x2="80.53" y2="371.51" gradientUnits="userSpaceOnUse"><stop offset="0" stop-color="#e75555"/><stop offset="1" stop-color="#a64444"/></linearGradient><linearGradient id="Новый_образец_градиента_копия_2" x1="21.19" y1="429.7" x2="66.7" y2="442.53" gradientUnits="userSpaceOnUse"><stop offset="0" stop-color="#5d7d91"/><stop offset="1" stop-color="#374b6b"/></linearGradient><linearGradient id="Безымянный_градиент_18" x1="12.6" y1="424.44" x2="15.77" y2="451.78" gradientUnits="userSpaceOnUse"><stop offset="0" stop-color="#fff5f5"/><stop offset="1" stop-color="#c6d9db"/></linearGradient><linearGradient id="Новый_образец_градиента_копия_7" x1="117.94" y1="24.3" x2="117.42" y2="40.17" gradientUnits="userSpaceOnUse"><stop offset="0" stop-color="#cf5555"/><stop offset="1" stop-color="#a64444"/></linearGradient><linearGradient id="Новый_образец_градиента_копия" x1="-122.82" y1="-256.38" x2="-124.43" y2="-207.37" gradientTransform="translate(299.28 346.94) rotate(-3.8)" gradientUnits="userSpaceOnUse"><stop offset="0" stop-color="#faa478"/><stop offset="1" stop-color="#f7694d"/></linearGradient><linearGradient id="Новый_образец_градиента_копия-2" x1="131.88" y1="34.3" x2="127.88" y2="156.12" gradientTransform="matrix(1, 0, 0, 1, 0, 0)" xlink:href="#Новый_образец_градиента_копия"/><linearGradient id="Безымянный_градиент_1924-2" x1="96.18" y1="186.45" x2="149.7" y2="472.54" xlink:href="#Безымянный_градиент_1924"/><linearGradient id="Новый_образец_градиента_копия_2-2" x1="115.87" y1="429.7" x2="161.39" y2="442.53" xlink:href="#Новый_образец_градиента_копия_2"/><linearGradient id="Безымянный_градиент_18-2" x1="107.29" y1="424.44" x2="110.46" y2="451.78" xlink:href="#Безымянный_градиент_18"/><linearGradient id="Безымянный_градиент_139-3" x1="90.34" y1="26.76" x2="85.34" y2="173.15" xlink:href="#Безымянный_градиент_139"/><clipPath id="clip-path"><path class="cls-1" d="M94,23.51c4.69,2.5,33.3,18.93,34,27.42s-7.19,47.67-9.15,60.73,2,73.14,2,73.14c-16.32,11.75-65.3,3.92-71.17-9.14-1.31-25.47-.66-120.81,3.91-128S71.14,28.18,71.14,28.18C66.53,53.55,86.12,46.36,94,23.51Z"/></clipPath><linearGradient id="Безымянный_градиент_139-4" x1="77.49" y1="26.32" x2="72.49" y2="172.71" xlink:href="#Безымянный_градиент_139"/><linearGradient id="Безымянный_градиент_139-5" x1="87.76" y1="9" x2="87.76" y2="18.12" xlink:href="#Безымянный_градиент_139"/><linearGradient id="Безымянный_градиент_139-6" x1="69.59" y1="9" x2="69.59" y2="18.12" xlink:href="#Безымянный_градиент_139"/><linearGradient id="Безымянный_градиент_1939-2" x1="109.05" y1="35.47" x2="104.6" y2="156.39" xlink:href="#Безымянный_градиент_1939"/><linearGradient id="Безымянный_градиент_1939-3" x1="58.02" y1="33.59" x2="53.58" y2="154.52" xlink:href="#Безымянный_градиент_1939"/><linearGradient id="Безымянный_градиент_1939-4" x1="63.67" y1="-1.78" x2="60.66" y2="49.07" xlink:href="#Безымянный_градиент_1939"/><linearGradient id="Безымянный_градиент_1939-5" x1="103.37" y1="0.56" x2="100.37" y2="51.41" xlink:href="#Безымянный_градиент_1939"/><linearGradient id="Новый_образец_градиента_копия_7-2" x1="119.59" y1="31.96" x2="115.67" y2="151.41" xlink:href="#Новый_образец_градиента_копия_7"/><linearGradient id="Безымянный_градиент_139-7" x1="130.53" y1="14.72" x2="131.2" y2="199.65" xlink:href="#Безымянный_градиент_139"/><linearGradient id="Безымянный_градиент_139-8" x1="139.6" y1="131.63" x2="139.73" y2="168.09" xlink:href="#Безымянный_градиент_139"/><linearGradient id="Безымянный_градиент_159-3" x1="-831.45" y1="-1293.63" x2="-841.45" y2="-1329.98" gradientTransform="translate(1241.89 1170.3) rotate(-14.3)" xlink:href="#Безымянный_градиент_159"/><linearGradient id="Безымянный_градиент_159-4" x1="-840.01" y1="-1291.28" x2="-850.02" y2="-1327.62" gradientTransform="translate(1241.89 1170.3) rotate(-14.3)" xlink:href="#Безымянный_градиент_159"/><linearGradient id="Безымянный_градиент_159-5" x1="132.4" y1="162.26" x2="88.55" y2="95.4" xlink:href="#Безымянный_градиент_159"/></defs><g id="Слой_2" data-name="Слой 2"><g id="Слой_2-2" data-name="Слой 2"><path class="cls-2" d="M63.12,39,61,24.73c4.28-8.41,29.06-21.12,44.1-7.25C103.12,22.35,103,32.77,103,32.77Z"/><path class="cls-3" d="M98.1,0C96.57,4.57,92,22.2,91.35,35.91c-2.29,13.91-17.56,17.14-20.53,9.55s3.74-34.23,3.74-34.23Z"/><path class="cls-4" d="M52.82,48.32C36.75,65.54,33.88,111,33.88,146.92s16.33,24.17,17,5.23,4.26-64.7,5.23-69.87C58.05,71.83,62,38.53,52.82,48.32Z"/><path class="cls-5" d="M63.16,232.13a50,50,0,1,0,35,61.37A49.95,49.95,0,0,0,63.16,232.13ZM39.57,318.26a40.47,40.47,0,1,1,49.72-28.34A40.47,40.47,0,0,1,39.57,318.26Z"/><path class="cls-6" d="M53.91,266.14c12.65,3.46,28.7,17.8,36.84,15,5.15,1.23,2.11,16.14-2.38,11.86-1.72-5.42-10.16-4.68-19.81,3.1-9,7.22-2,15.83,4.75,16.44,2.12,5-9.86,11.68-12.43,5.77,3.52-5.42-7.75-10.23-17.71-13l-.12,0c-9.95-2.73-22.11-4.33-21.84,2.12-5.23,3.78-12.13-8.05-7.75-11.29,6.15,2.94,16.49-1,12.46-11.73-4.35-11.61-11.23-16.54-15.47-12.76-6,1.4-1.06-13,4-11.41,5.58,6.54,26.69,2.38,39.34,5.85"/><ellipse class="cls-7" cx="49.97" cy="280.31" rx="6.42" ry="8.37" transform="translate(-233.59 254.47) rotate(-74.69)"/><path class="cls-8" d="M33.88,156.91c-.53,8.2,7.85,46.63,12.07,59.83s7.84,8.6,6.64-4.59-4.5-46.81-5.27-55.24S34.49,147.56,33.88,156.91Z"/><path class="cls-9" d="M61,228c-.52-2-7.3,5.5-4.37,13.8C58.48,241.32,63.64,238.14,61,228Z"/><path class="cls-10" d="M55.55,218c5.16,6.43,6.41,12.39,4.33,15s-2.73,15.62-6.74,15.11c-5.63-.7-7.52-6.13-7.52-6.13-1,1.66-5.2-2.16-5.46-4.5s-.78-10.69.17-13.45,7.16-11.22,8.28-11.57C50.73,211.82,54.16,216.28,55.55,218Z"/><path class="cls-11" d="M50.21,164.56c-6.53.65-17-.66-18.28-2-3.27-2-11.34-25.47-11.34-25.47,6.76-2.61,27,12.41,32.23,12.41C52.17,154.11,50.21,164.56,50.21,164.56Z"/><path class="cls-12" d="M50.31,166.84c-2.06,25.79,5.52,136.57,7,151.38s2.9,111.45,1.51,120.59c2.45,3.92,7.16,0,7.16,0,2.55-16.28,21.87-82.61,22.8-90.72s-2-21.55-5.88-27.43c2.61-26.77,11.1-129.29,13.71-141.7C81.55,161.29,50.31,166.84,50.31,166.84Z"/><path class="cls-13" d="M73.06,436.2l1.56,9.8H25.27l-6.4-16.33c9.79,3.27,36.56,9.8,37.87,9.8a98.76,98.76,0,0,1-2.61-12.41c5.87-3.92,8.14,0,9.14.65-.61,4.57.65,11.76.65,11.76A13.52,13.52,0,0,1,73.06,436.2Z"/><path class="cls-14" d="M29.27,446H.93c1-11.76,10.1-15.68,17.94-16.33C27.35,434.9,29.27,446,29.27,446Z"/><path class="cls-15" d="M57.27,439.64c.41-23.78-16.05-21.23-1.18-.74-10.74-9.89-20-.95-.89.44"/><path class="cls-16" d="M129.84,40.76c-.62-17.25-2.66-14.64-14.33-15.95s-9.16,2.73-10.46,13.12c3.29,3.15,5.89.89,5.89.89C111.59,32,108.4,26,118.16,27s6.55,12.67,6.55,12.67Z"/><path class="cls-17" d="M153.12,101.12c6.49-.74,13.35-.63,13.47,3.54s1.61,36.29-.82,39.19S156.3,149,156.3,149Z"/><path class="cls-18" d="M104.41,39.18c3.78-5.2,52.24,1.24,52.24,11.39s6.53,96.35,1.3,102.23-57.66,6.26-59.85-.13S99.18,46.36,104.41,39.18Z"/><path class="cls-19" d="M140.69,149.08a36.33,36.33,0,0,1-3.71-.2.66.66,0,0,1-.57-.73.65.65,0,0,1,.72-.57c2.58.3,10.13.55,11.07-2.17,1.45-4.22-.91-65.1-1.68-85.1-.2-5.16-.32-8.27-.32-8.76,0-1.78-4.61-4.43-13.17-5.85a.65.65,0,0,1-.53-.75.66.66,0,0,1,.75-.54c6.57,1.09,14.25,3.62,14.25,7.14,0,.46.13,3.74.32,8.71,1.46,37.77,3,81.63,1.61,85.57C148.49,148.55,144,149.08,140.69,149.08Z"/><path class="cls-20" d="M118.77,180.23c5.88,11.75,20.9,63.34,30,131.25,8.39,8.16,13.06,15,12.41,30.69s-4.35,75.75,1.42,96.64a8.71,8.71,0,0,1-9.26,2.62c-7.18-43.1-23.47-105.82-28.08-120.16s-27.42-96.64-45-99.9c-13.06-4.58-23.11-38.24-23-44.59S118.77,180.23,118.77,180.23Z"/><path class="cls-21" d="M167.75,436.2l1.56,9.8H120l-6.41-16.33c9.8,3.27,36.57,9.8,37.87,9.8a101,101,0,0,1-2.61-12.41c5.88-3.92,8.14,0,9.14.65-.61,4.57.66,11.76.66,11.76A13.49,13.49,0,0,1,167.75,436.2Z"/><path class="cls-22" d="M124,446H95.61c1-11.76,10.1-15.68,17.94-16.33C122,434.9,124,446,124,446Z"/><path class="cls-15" d="M152,439.64c.41-23.78-16.06-21.23-1.19-.74-10.73-9.89-20-.95-.89.44"/><path class="cls-23" d="M94,23.51c4.69,2.5,33.3,18.93,34,27.42s-7.19,47.67-9.15,60.73,2,73.14,2,73.14c-16.32,11.75-65.3,3.92-71.17-9.14-1.31-25.47-.66-120.81,3.91-128S71.14,28.18,71.14,28.18C66.53,53.55,86.12,46.36,94,23.51Z"/><g class="cls-24"><g class="cls-25"><path class="cls-26" d="M84.46,194.3c-1.28-33.48-.21-113.22,13-175.42l6.38,1.35C90.77,81.8,89.71,160.85,91,194.05Z"/><path class="cls-26" d="M101.53,192.1c-2.81-35.84,6.22-120.59,11.39-160.4l6.47.84C114.25,72.12,105.27,156.29,108,191.59Z"/><path class="cls-26" d="M66.86,190.7c-1-22.82,4.19-132.45,8.2-160.7l6.46.91c-3.85,27.2-9.1,137.49-8.13,159.51Z"/><path class="cls-26" d="M54.44,188c-3-17,.23-144.43,3-158.19l6.4,1.29C61.23,44,58.05,171,60.87,186.86Z"/><path class="cls-26" d="M36.57,80.75l-2.81-5.89c12-5.73,88.83-8.81,110.4-2.87l-1.74,6.29c-9.12-2.51-30.91-3.56-56.86-2.73C58.75,76.4,40.63,78.81,36.57,80.75Z"/><path class="cls-26" d="M42.35,56.81l-2.53-6c14.06-5.9,82.4-6.1,98.16-2.58l-1.43,6.37C120.81,51.06,54.13,51.86,42.35,56.81Z"/><path class="cls-26" d="M29.1,104.94l-2.18-6.15c20.85-7.4,95.12-8.25,119.19-4.2L145,101C122.1,97.18,48.78,98,29.1,104.94Z"/><path class="cls-26" d="M32.23,131.76l-1.92-6.24c27.83-8.56,96-4.91,119.85-2.77l-.58,6.5C116.85,126.33,56.05,124.43,32.23,131.76Z"/><path class="cls-26" d="M162.27,154.23c-25.53-2.39-132.9-1.7-139.77-.28l-1.32-6.4c8.56-1.77,117.13-2.12,141.69.17Z"/><path class="cls-26" d="M129.52,178.5c-7.78-3.88-82.8-6.76-104-6.76v-6.53c7.14,0,96,2,106.9,7.44Z"/></g></g><path class="cls-27" d="M80.9,37.87a30.85,30.85,0,0,0-4.57,6.32c-1.31-3.49-2.56-6.32-2.56-6.32-5.28-2-6.61,1.53-3.33,6.32s12.42,2.17,14.38-1.09S82.86,37.87,80.9,37.87Z"/><path class="cls-28" d="M93.23,20.48s1.38,1.58,1.38,2.37c0,10.45-5.22,20.9-5.87,22.21-3.27-5.23-5.23-6.53-7.84-7.19C84.17,36.57,88.74,35.26,93.23,20.48Z"/><path class="cls-29" d="M71.56,25.57l-2.41,3.16c-2.62,4.57-4.57,10.45-3.27,16.33,2.61-5.23,4.57-6.53,7.84-7.19C71.11,34.61,70.45,30.69,71.56,25.57Z"/><path class="cls-30" d="M103.7,25.57c8.54,13.61,23.56,16.87,23.56,23.4-3.91-3.91-11.15-.08-13.71,25.47-1.31,13.06-2,39.24,7.18,36.6-.65,6.47,4.44,61.28,1.24,63.6s-30.62,4.5-34.21,1.45S86.66,38.08,103.7,25.57Z"/><path class="cls-31" d="M65.47,33.75c-4.4,18-3.58,135.67-6.77,136.68s-11.14-2.69-11.76-7.18S48.25,52.89,52.82,45.06C55.33,40.76,61.79,31.58,65.47,33.75Z"/><path class="cls-32" d="M63.48,53s-6.09-14.49-6.74-18.41S60.38,25.09,62.15,23c1.58,2.34,4.39,9.68,4.39,9.68C64.58,37.87,63.69,51.18,63.48,53Z"/><path class="cls-33" d="M93.79,52.44c6.22-6.93,11.15-11.36,12.58-13.26,2-2.61,3.23-17.94-1.32-21.7s-8.48,7.33-8.48,7.33C99.18,26.12,94.32,50.54,93.79,52.44Z"/><path class="cls-34" d="M137.06,45.06l-7.18-1.31c-9.8-5.22-15-8.49-17-8.49-6.6,0-50.28,145,25.46,113-2.61-1.31-7.46-1.39-7.46-1.39-42.82,8.57-20.61-84.81-12.13-107C124,43.1,131.83,48.32,137.06,45.06Z"/><path class="cls-35" d="M127.92,50.28c5.29,6.47,17,56.81,16.32,110.36-.38,31.45-17.63,7.83-18.28-3.27-1-16.5-5.23-64.64-7.84-74.44S122,43.1,127.92,50.28Z"/><path class="cls-36" d="M124.65,157.37c-2.61-7.18-2-17.63-2-17.63,8.49,4.57,22.2-6.53,34,2-4.23,9.14-7.81,21.2-10.45,21.55S135.75,164.56,124.65,157.37Z"/><path class="cls-37" d="M106.25,111.77c-1.24,1.81-5.35-8.1.54-15.36C108.53,97.53,112.56,102.56,106.25,111.77Z"/><path class="cls-38" d="M110.45,118.65c1.64-8.6-.15-14.82-3.4-16.23S96.7,89.13,93.19,91.6c-4.92,3.46-4,9.5-4,9.5-1.76-1.06-3.8,4.61-2.88,6.94s4.59,10.42,6.85,12.54,12.31,7,13.53,6.73C109,126.87,110,121,110.45,118.65Z"/><path class="cls-39" d="M132.86,174.35C126,167.94,109,142.35,103.1,126s4.23-7.18,8.64,0,27.28,28.08,31.2,39.18S138.45,179.57,132.86,174.35Z"/></g></g></svg>