<svg xmlns="http://www.w3.org/2000/svg" xmlns:xlink="http://www.w3.org/1999/xlink" viewBox="0 0 132.16 533.04"><defs><style>.cls-1,.cls-33{fill:none;}.cls-2{fill:url(#Безымянный_градиент_322);}.cls-3{fill:url(#Безымянный_градиент_1987);}.cls-4{fill:url(#Безымянный_градиент_1988);}.cls-5{fill:url(#Безымянный_градиент_159);}.cls-6{fill:url(#Безымянный_градиент_159-2);}.cls-7{fill:url(#Безымянный_градиент_783);}.cls-8{fill:#602847;}.cls-9{fill:url(#Безымянный_градиент_1977);}.cls-10{fill:url(#Безымянный_градиент_159-3);}.cls-11{fill:url(#Безымянный_градиент_159-4);}.cls-12{fill:url(#Безымянный_градиент_159-5);}.cls-13{fill:url(#Безымянный_градиент_159-6);}.cls-14{fill:url(#Новый_образец_градиента_копия_4);}.cls-15{fill:#fff;}.cls-16{fill:#283547;}.cls-17{clip-path:url(#clip-path);}.cls-18{fill:url(#Безымянный_градиент_744);}.cls-19{fill:url(#Безымянный_градиент_725);}.cls-20{fill:url(#Безымянный_градиент_201);}.cls-21{clip-path:url(#clip-path-2);}.cls-22{fill:url(#Безымянный_градиент_744-2);}.cls-23{fill:url(#Безымянный_градиент_725-2);}.cls-24{fill:url(#Безымянный_градиент_744-3);}.cls-25{fill:url(#Безымянный_градиент_744-4);}.cls-26{fill:#871131;}.cls-27{fill:url(#Безымянный_градиент_1808);}.cls-28{fill:url(#Безымянный_градиент_1808-2);}.cls-29{fill:url(#Новый_образец_градиента_копия_2);}.cls-30{fill:url(#Безымянный_градиент_2127);}.cls-31{clip-path:url(#clip-path-3);}.cls-32{opacity:0.1;}.cls-33{stroke:#000;stroke-miterlimit:10;stroke-width:1.31px;}.cls-34{fill:url(#Безымянный_градиент_2127-2);}.cls-35{fill:url(#Безымянный_градиент_446);}.cls-36{fill:url(#Безымянный_градиент_1977-2);}.cls-37{fill:url(#Безымянный_градиент_1977-3);}.cls-38{fill:url(#Безымянный_градиент_1977-4);}.cls-39{fill:url(#Безымянный_градиент_1977-5);}.cls-40{fill:url(#Безымянный_градиент_1977-6);}.cls-41{fill:url(#Безымянный_градиент_1785);}.cls-42{fill:url(#Безымянный_градиент_1785-2);}</style><linearGradient id="Безымянный_градиент_322" x1="66.97" y1="-7.66" x2="73.47" y2="185.9" gradientUnits="userSpaceOnUse"><stop offset="0" stop-color="#6d515b"/><stop offset="1" stop-color="#1b2139"/></linearGradient><linearGradient id="Безымянный_градиент_1987" x1="10.96" y1="27.98" x2="76.32" y2="12.42" gradientUnits="userSpaceOnUse"><stop offset="0.47" stop-color="#fff" stop-opacity="0"/><stop offset="1" stop-color="#e4e9eb" stop-opacity="0.4"/></linearGradient><linearGradient id="Безымянный_градиент_1988" x1="80.02" y1="17.61" x2="108.37" y2="44.62" gradientUnits="userSpaceOnUse"><stop offset="0" stop-color="#fff" stop-opacity="0"/><stop offset="1" stop-color="#e4e9eb" stop-opacity="0.4"/></linearGradient><linearGradient id="Безымянный_градиент_159" x1="83.77" y1="452.92" x2="84.88" y2="368.23" gradientUnits="userSpaceOnUse"><stop offset="0.64" stop-color="#ffd7a5"/><stop offset="1" stop-color="#faa96c"/></linearGradient><linearGradient id="Безымянный_градиент_159-2" x1="51.9" y1="452.51" x2="53.01" y2="367.81" xlink:href="#Безымянный_градиент_159"/><linearGradient id="Безымянный_градиент_783" x1="64.2" y1="127.15" x2="65.09" y2="88.47" gradientUnits="userSpaceOnUse"><stop offset="0.46" stop-color="#fabb80"/><stop offset="1" stop-color="#faa16c"/></linearGradient><linearGradient id="Безымянный_градиент_1977" x1="47.71" y1="133.1" x2="25.04" y2="176.78" gradientUnits="userSpaceOnUse"><stop offset="0" stop-color="#f55"/><stop offset="1" stop-color="#922855"/></linearGradient><linearGradient id="Безымянный_градиент_159-3" x1="60.77" y1="33.22" x2="49.7" y2="105.8" xlink:href="#Безымянный_градиент_159"/><linearGradient id="Безымянный_градиент_159-4" x1="64.11" y1="71.94" x2="62.79" y2="47.39" xlink:href="#Безымянный_градиент_159"/><linearGradient id="Безымянный_градиент_159-5" x1="37.62" y1="72.93" x2="36.33" y2="49.01" xlink:href="#Безымянный_градиент_159"/><linearGradient id="Безымянный_градиент_159-6" x1="24.76" y1="-407.63" x2="9.28" y2="-378.46" gradientTransform="translate(101.37 450.8) rotate(-3.74)" xlink:href="#Безымянный_градиент_159"/><linearGradient id="Новый_образец_градиента_копия_4" x1="-2040.35" y1="-1037.43" x2="-2057.79" y2="-1031.98" gradientTransform="matrix(0.72, -0.14, 0.15, 0.75, 1724.27, 537.43)" gradientUnits="userSpaceOnUse"><stop offset="0.64" stop-color="#fabb80"/><stop offset="1" stop-color="#faa96c"/></linearGradient><clipPath id="clip-path"><path class="cls-1" d="M43.6,66.37C37,59,31.7,55.05,31.7,64.19,35.79,67.45,41.48,69.2,43.6,66.37Z"/></clipPath><linearGradient id="Безымянный_градиент_744" x1="34.7" y1="63.92" x2="41.24" y2="63.92" gradientUnits="userSpaceOnUse"><stop offset="0" stop-color="#bb9bb7"/><stop offset="0.67" stop-color="#7b3f3f"/></linearGradient><linearGradient id="Безымянный_градиент_725" x1="-21.61" y1="-49.12" x2="-21.48" y2="-54.16" gradientTransform="translate(61.47 115.07) rotate(-2.18)" gradientUnits="userSpaceOnUse"><stop offset="0" stop-color="#ddf5f5" stop-opacity="0.4"/><stop offset="1" stop-color="#c6d9db" stop-opacity="0"/></linearGradient><linearGradient id="Безымянный_градиент_201" x1="45.76" y1="57.77" x2="42.28" y2="75.49" gradientUnits="userSpaceOnUse"><stop offset="0.22" stop-color="#ffd7a5"/><stop offset="0.84" stop-color="#fa5763"/></linearGradient><clipPath id="clip-path-2"><path class="cls-1" d="M53.77,65.83c3.95-11.44,15-16.66,20.27-8.17A34.69,34.69,0,0,1,53.77,65.83Z"/></clipPath><linearGradient id="Безымянный_градиент_744-2" x1="61.63" y1="59.02" x2="70.4" y2="59.02" xlink:href="#Безымянный_градиент_744"/><linearGradient id="Безымянный_градиент_725-2" x1="6.59" y1="-52.39" x2="6.74" y2="-58.42" xlink:href="#Безымянный_градиент_725"/><linearGradient id="Безымянный_градиент_744-3" x1="57.28" y1="43.83" x2="58.86" y2="56.26" xlink:href="#Безымянный_градиент_744"/><linearGradient id="Безымянный_градиент_744-4" x1="34.66" y1="45.86" x2="36.4" y2="59.53" xlink:href="#Безымянный_градиент_744"/><linearGradient id="Безымянный_градиент_1808" x1="42.01" y1="83.21" x2="56.3" y2="83.21" gradientUnits="userSpaceOnUse"><stop offset="0" stop-color="#fa9ea5"/><stop offset="1" stop-color="#f7496d"/></linearGradient><linearGradient id="Безымянный_градиент_1808-2" x1="43.43" y1="89.74" x2="56.3" y2="89.74" xlink:href="#Безымянный_градиент_1808"/><linearGradient id="Новый_образец_градиента_копия_2" x1="43.4" y1="113.12" x2="82.42" y2="113.12" gradientUnits="userSpaceOnUse"><stop offset="0" stop-color="#5d7d91"/><stop offset="1" stop-color="#374b6b"/></linearGradient><linearGradient id="Безымянный_градиент_2127" x1="12.66" y1="162.92" x2="104.73" y2="162.92" gradientUnits="userSpaceOnUse"><stop offset="0" stop-color="#b5ffff"/><stop offset="0.67" stop-color="#89c9ff"/></linearGradient><clipPath id="clip-path-3"><path class="cls-1" d="M77.5,101.8c-.39,9-3.68,14.47,1,16.18s26.23,8.9,26.23,14.77S89.06,165.4,85.8,181.07,72.08,212.42,73.39,217c-32,13.71-44.13,7.18-45.57,0s1.82-22.86-1.45-26.12-11.75-9.14-13.71-15.67c5.22-7.84,16.33-21.55,15.67-28.08s2-20.9,7.19-23.51,16.45-4.49,17.36-8.45A91.22,91.22,0,0,0,54.33,105C59,101.41,74.43,99.58,77.5,101.8Z"/></clipPath><linearGradient id="Безымянный_градиент_2127-2" x1="50.49" y1="109.04" x2="79.52" y2="109.04" xlink:href="#Безымянный_градиент_2127"/><linearGradient id="Безымянный_градиент_446" x1="66.78" y1="217.2" x2="79.46" y2="359.25" gradientUnits="userSpaceOnUse"><stop offset="0" stop-color="#404e4f"/><stop offset="0.31" stop-color="#3a4647"/><stop offset="0.8" stop-color="#292f33"/><stop offset="1" stop-color="#212429"/></linearGradient><linearGradient id="Безымянный_градиент_1977-2" x1="88.27" y1="434.57" x2="96.25" y2="523.99" xlink:href="#Безымянный_градиент_1977"/><linearGradient id="Безымянный_градиент_1977-3" x1="43.62" y1="435.93" x2="51.48" y2="524.02" xlink:href="#Безымянный_градиент_1977"/><linearGradient id="Безымянный_градиент_1977-4" x1="85.31" y1="127.69" x2="69.64" y2="234.73" xlink:href="#Безымянный_градиент_1977"/><linearGradient id="Безымянный_градиент_1977-5" x1="31.24" y1="129.44" x2="24.24" y2="231.47" xlink:href="#Безымянный_градиент_1977"/><linearGradient id="Безымянный_градиент_1977-6" x1="96.22" y1="116.54" x2="101.89" y2="208.58" xlink:href="#Безымянный_градиент_1977"/><linearGradient id="Безымянный_градиент_1785" x1="52.28" y1="118.05" x2="62.78" y2="166.06" gradientUnits="userSpaceOnUse"><stop offset="0.22" stop-color="#5f89bf"/><stop offset="1" stop-color="#183773"/></linearGradient><linearGradient id="Безымянный_градиент_1785-2" x1="88.93" y1="106.44" x2="38.41" y2="139.95" xlink:href="#Безымянный_градиент_1785"/></defs><g id="Слой_2" data-name="Слой 2"><g id="Слой_2-2" data-name="Слой 2"><path class="cls-2" d="M84.49,17.17C83.84-.46,71.43-.46,63.59.19S30.29,7.38,10.05,34.8c7.83,32,15,60.73,12.41,96.65,2.61.65,9.14-.66,9.14-.66,1.3-7.83,2-24.16,2-28.73,2,11.76,3.26,20.24,3.26,25.47,3.27,3.26,57.47,74.44,67.26,78.36a89.83,89.83,0,0,0,28.08-9.8C121.71,160.83,100.31,86.07,106,66.8s9.14-32.65,9.14-32.65C110,15.87,89.67,11.07,84.49,17.17Z"/><path class="cls-3" d="M20.11,29.58c24.28,2.61,40.87.14,51-7.11-5.22-2.1-10.29-4.7-13.8-4.67,8-3.87,16.61-3.3,20.92,0C75.74.22,53-3.07,20.11,29.58Z"/><path class="cls-4" d="M92.65,21.58c4.57,4.25,5.55,7.35,5.55,7.35a14.55,14.55,0,0,0-10.44-2A64.44,64.44,0,0,1,96.24,40c-3.91.46-11.1-2.62-11.75-4.57,2,5.22,4.57,9.14,16.28,10.79,3.46.49,11.47-12.34,11.47-12.34C106.69,25.66,100.82,20.1,92.65,21.58Z"/><path class="cls-5" d="M73.39,215.68c19.59,9.8,41.22,32.38,41.83,46.23s-9.83,74.58-12.45,86.33c13.72,19.59,19.59,32.65,18.94,50.93S97.22,507.7,97.22,507.7,83.84,376.32,83.84,366.52c-15-32.64-37.25-131.39-34-148.95C68.83,211.18,73.39,215.68,73.39,215.68Z"/><path class="cls-6" d="M57.72,217.64c16.68,18,23.48,32.27,23.29,46.13s-8.91,80.07-12.19,91.65C81.39,375.77,81.33,383,79.63,401.18S49,508.12,49,508.12s-5.51-126.59-5-136.37C30.88,338.29,24.05,234.33,28.33,217,47.63,211.7,57.72,217.64,57.72,217.64Z"/><path class="cls-7" d="M76.65,84.26c0,10.62-.78,32.24-.78,32.24s-22,3.33-23,0c1.57-6,1.61-13.94,1.59-22.68S76.65,84.26,76.65,84.26Z"/><path class="cls-8" d="M1.05,222.68C-1,239.2,35.83,210.05,34,204S3.14,205.82,1.05,222.68Z"/><path class="cls-9" d="M26.1,130.17c-5.43,10-32.19,75.46-24.83,95.19,7-18.7,30-24,32.75-21.33,1.83-21.09,2.95-44.94,5.68-56.74S33.68,116.19,26.1,130.17Z"/><path class="cls-10" d="M78,27.62C76.65,39.37,81.23,57,89.06,51.13c.76,15.75-1.55,32.08-6.64,35.58-9,6.21-32.54,17.31-37.76,14.7S27,74.64,27,71.37s5.22-5.22,3.26-10.45S24.41,43.82,27,38.07,55.76,47.21,78,27.62Z"/><path class="cls-11" d="M53.15,66.8c-3.27-3.27-2.45-12.92-1.31-16.33.65-1.95,7.18-7.83,13.06-4.57,5.26,2.93,12.71,7.65,10.6,13S56.41,70.06,53.15,66.8Z"/><path class="cls-12" d="M44.07,67.74c-.76,2-9.21,2.32-12.47-2.9-2-6.53-3.21-16-.66-16.32s7,1.23,8.05,3.23S45.45,64.11,44.07,67.74Z"/><path class="cls-13" d="M82.84,60.63c0-3.27,13.3-21.05,17.32-8.2C103.43,62.88,92.59,69.68,89.44,71S82.87,69.24,82.84,60.63Z"/><path class="cls-14" d="M87.1,59C91,59,91.48,63.37,91,66.15c4.83-1.58,7.18-5.23,7.18-9.15C98.2,47.65,88.16,56.6,87.1,59Z"/><path class="cls-15" d="M53.77,65.83c3.95-11.44,15-16.66,20.27-8.17A34.69,34.69,0,0,1,53.77,65.83Z"/><path class="cls-16" d="M53.77,65.83c6.59-17,16.35-16,20.27-8.17C62.94,49.17,58.31,59,53.77,65.83Z"/><path class="cls-16" d="M71.43,55.05c2,0,3.92-1.31,5.22-3.92a15,15,0,0,1-7.32,2.33C71.57,54,71.43,55.05,71.43,55.05Z"/><path class="cls-15" d="M43.6,66.37C37,59,31.7,55.05,31.7,64.19,35.79,67.45,41.48,69.2,43.6,66.37Z"/><g class="cls-17"><ellipse class="cls-18" cx="37.97" cy="63.92" rx="3.27" ry="3.66"/><path class="cls-19" d="M40.66,63.81a2.9,2.9,0,0,1-2.59,3.13A2.84,2.84,0,0,1,35.28,64a2.9,2.9,0,0,1,2.59-3.13A2.84,2.84,0,0,1,40.66,63.81Z"/><ellipse class="cls-15" cx="35.52" cy="62.26" rx="1.1" ry="1.23"/></g><path class="cls-16" d="M43.6,66.37C34.62,57,32.28,57,31.7,64.19,31.11,51.78,37,56.35,43.6,66.37Z"/><path class="cls-16" d="M31.7,61.58c-.91,1.18-3.51-.66-4.67-2,1.16.65,4.61.75,5.25,0C32.41,60.07,31.7,61.58,31.7,61.58Z"/><path class="cls-20" d="M41.6,61.36c-.1,3.15-3.55,11.48-7,13.56,3.47,3.48,13.19,4.17,15.27.7s-2.67-10.46-3.77-14.26S41.67,58.91,41.6,61.36Z"/><g class="cls-21"><circle class="cls-22" cx="66.02" cy="59.02" r="4.38"/><path class="cls-23" d="M69.62,58.88a3.61,3.61,0,1,1-3.74-3.47A3.61,3.61,0,0,1,69.62,58.88Z"/><circle class="cls-15" cx="62.73" cy="57.03" r="1.47"/></g><path class="cls-24" d="M51.19,53.74c-.31-4.57-2-5.88,3.26-7.84s7.84-2,10.45,0C57.72,47.86,55.41,49.17,51.19,53.74Z"/><path class="cls-25" d="M40.41,54.51c-3.91-3.5-8.16-6.73-10.77-5.34,3.92-3.92,9.79-.5,10.77,1S40.41,54.51,40.41,54.51Z"/><path class="cls-26" d="M42.09,83.61c2.37,1.77,3,3.55,1.77,4.73,1.78,3.55,10.07,1.19,12.44-1.77C53.34,83.61,44.61,82.9,42.09,83.61Z"/><path class="cls-15" d="M42.64,83.35s1.29,3,1.55,3.39c1.45.42,4.31.93,10.28-1.69C51,83.94,42.64,83.35,42.64,83.35Z"/><path class="cls-27" d="M56.3,86.57c-2.37-5.92-15.4-10.07-14.21-3C45.05,86.57,49.19,81.83,56.3,86.57Z"/><path class="cls-28" d="M43.86,88.34c-2.36,3,5.33,9.47,12.44-1.77C53.34,88.34,44.46,90.12,43.86,88.34Z"/><path class="cls-29" d="M43.43,123.83h39V106.94c-5.77-9.45-26-2-32.88,3.11S43.43,123.83,43.43,123.83Z"/><path class="cls-30" d="M77.5,101.8c-.39,9-3.68,14.47,1,16.18s26.23,8.9,26.23,14.77S89.06,165.4,85.8,181.07,72.08,212.42,73.39,217c-32,13.71-44.13,7.18-45.57,0s1.82-22.86-1.45-26.12-11.75-9.14-13.71-15.67c5.22-7.84,16.33-21.55,15.67-28.08s2-20.9,7.19-23.51,16.45-4.49,17.36-8.45A91.22,91.22,0,0,0,54.33,105C59,101.41,74.43,99.58,77.5,101.8Z"/><g class="cls-31"><g class="cls-32"><path class="cls-33" d="M63.59,98.8c0,19.61-19,62.25-26.18,73.88a4.54,4.54,0,0,0-.27,4.26,29.21,29.21,0,0,0,9.4,11.76,4.55,4.55,0,0,1,1.82,4.73c-2.28,9.92-4.21,29.95-3,34"/><path class="cls-33" d="M60,99.78c-1.85,9.9-17.78,59.67-30.56,73.19a4.48,4.48,0,0,0-.73,5.15c2.74,5.22,7.45,8.8,10.57,10.73a4.53,4.53,0,0,1,2,4.94c-2.51,10.2-2.19,30.92-2.19,32.67"/><path class="cls-33" d="M49.19,115.5c-3.95,11.61-10.53,42.3-25.94,56.79a4.54,4.54,0,0,0-.41,6.18,53.65,53.65,0,0,0,10.61,9.85,4.54,4.54,0,0,1,1.86,4.4c-1.44,9.39-2.71,30.41-1.49,32.29"/><path class="cls-33" d="M42.09,119.16c-3.45,12-11.84,39-24.39,52.9a4.53,4.53,0,0,0-.49,5.47c3,4.71,8.77,10.08,11.68,12.44a4.52,4.52,0,0,1,1.67,3.7c-.34,8.91-2.14,25.53-1.72,28.36"/><path class="cls-33" d="M68.83,98.8c.91,6.46-17.59,63.66-22.46,74.06a4.51,4.51,0,0,0-.26,3.17,46.16,46.16,0,0,0,7.56,15.11,4.56,4.56,0,0,1,.9,3.31c-1.24,10.42-4.58,27.1-2.58,32"/><path class="cls-33" d="M73.72,97.16c0,5.23-15.37,73.92-16.47,76.69-2.47,6.24,2.75,18.14,2.1,19.3s-2,29.1-1.67,31.86"/><path class="cls-33" d="M78.94,103.69c0,7.19-10.73,68.52-11.1,71.83s-3.27,14.37-3.27,17-1,30.53-1,30.53"/><path class="cls-33" d="M82.42,115.5s-4.13,53.73-5.77,58.18-6.2,17.52-6.2,19.47S67.83,222,67.83,222"/><path class="cls-33" d="M89.2,120.33s-7.65,49.32-8.3,52.58-7.18,16.35-7.18,19.28-3.64,26.17-3.64,26.17"/><path class="cls-33" d="M95.92,123.28c0,2-10.45,48.33-11.1,50.28s-6.53,16.33-7.19,18.94-5.46,25.86-5.46,25.86"/></g></g><path class="cls-34" d="M52.88,103.83c-2.35,2.28.27,4.11-.39,7.37s-3.24,3.77-1.29,6.13S76.65,119,78,116.43s-.65-3.6,0-7.35,2.88-6.86.46-8.25S59.8,97.1,52.88,103.83Z"/><path class="cls-35" d="M73.41,214.79c-18.33,9-43.5,12.83-45.92-.65C25.91,240.73,21.8,301.88,42.7,372.4c30.69,5.88,56.16,0,73.13-7.18-8.48-24.16,2.92-74.41.66-103.83C114.53,235.93,73.41,214.79,73.41,214.79Z"/><path class="cls-36" d="M116.79,430.44c-3.22,17.14-17.93,71.91-16.63,75.83s5.88,4.57,5.88,8.49-3.21,4.57-5.2,18.28H98.51v-11.1c-4.22,0-7.64,3.92-10.5,11.1H68.17s7.18-3.92,11.75-5.88C82.53,515.41,91,504.31,91,504.31c0-17.63-2.68-73.87-2.68-73.87C96.24,436.4,111.87,434.92,116.79,430.44Z"/><path class="cls-37" d="M73.39,431.74c-3.22,17.15-20.55,70.61-19.24,74.53S60,510.84,60,514.76s-3.21,4.57-5.19,18.28H52.49v-11.1c-4.22,0-7.64,3.92-10.5,11.1H22.15s7.18-3.92,11.75-5.88C36.52,515.41,45,504.31,45,504.31c0-17.63-.06-72.57-.06-72.57C52.84,437.7,68.47,436.23,73.39,431.74Z"/><path class="cls-8" d="M115.18,230.7c-.64,16.64-32.79-17.2-30-22.85S115.83,213.72,115.18,230.7Z"/><path class="cls-38" d="M82.42,106.94C89.71,117.08,106,126.88,106,132.1S79.78,202.83,79.52,207s18.93,21.12,18.93,21.12c-14.61,7.84-39.16,11.79-42.23,11.45-1.57-19.63,3.46-27.71,2.48-35.9s-9.47-22.57-8.17-28.44C53.14,163.48,74.47,141.2,82.42,106.94Z"/><path class="cls-39" d="M49.54,110.05s-14.68,9.28-18.6,15.34S29,146.48,27,150.06s-16.2,23.54-15.94,26,14.7,14.1,15,18.72-3,30.73-3.65,33.34c5.93,9.14,13.09,9.79,13.09,9.14.65-15,2.61-43.1-.66-47.67-5.27-7.38-12.7-9-11.1-15.67S48.55,124.57,49.54,110.05Z"/><path class="cls-40" d="M105.39,135.36c3.74,10.78,19.59,79.67,9.14,97.95-3.92-19.59-25.76-28.52-28.88-26.34,1.6-21.1,4.35-44.82,3.55-56.91S100.16,120.35,105.39,135.36Z"/><path class="cls-41" d="M89.06,117.73c-41.14,88.16-91.48,69.17-44.76-5.9.72-1.9,4.26,0,4.26,0-23.49,57.49,5.77,47.32,37.24,4.6C88,114.57,89.06,117.73,89.06,117.73Z"/><path class="cls-42" d="M52.49,107.94c-10.61,25.16,6.28,37.8,28.93-2.32,6.79,2,9.86,1.8,10.38,11.2C83.18,136,14,195.89,47.27,110.55A9.49,9.49,0,0,1,52.49,107.94Z"/></g></g></svg>