<svg xmlns="http://www.w3.org/2000/svg" xmlns:xlink="http://www.w3.org/1999/xlink" width="168.15" height="496.582" ><defs><linearGradient id="A" x1="-3.126" y1=".316" x2="-2.897" y2="1.108"><stop offset="0" stop-color="#737d83"/><stop offset="1" stop-color="#191121"/></linearGradient><linearGradient id="B" x1="-.006" y1=".234" x2=".745" y2=".622"><stop offset="0" stop-color="#d993bf"/><stop offset="1" stop-color="#ed5b89"/></linearGradient><linearGradient id="C" x1=".029" y1=".087" x2=".844" y2=".624"><stop offset=".004" stop-color="#fff5f5"/><stop offset="1" stop-color="#c6d9db"/></linearGradient><linearGradient id="D" x1=".489" y1=".058" x2=".725" y2="1.076" xlink:href="#A"/><linearGradient id="E" x1="2.08" y1="-.054" x2="-.119" y2=".724"><stop offset=".511" stop-color="#fac38f"/><stop offset="1" stop-color="#faa96c"/></linearGradient><linearGradient id="F" x1="3.303" y1="-.618" x2=".23" y2=".629"><stop offset=".641" stop-color="#ffd7a5"/><stop offset="1" stop-color="#faa96c"/></linearGradient><linearGradient id="G" x1="535.728" y1="139.024" x2="535.174" y2="139.838" xlink:href="#B"/><linearGradient id="H" x1="641.445" y1="167.684" x2="640.895" y2="168.498" xlink:href="#B"/><linearGradient id="I" x1="685.059" y1="182.006" x2="684.518" y2="182.82" xlink:href="#B"/><linearGradient id="J" x1="626.431" y1="128.469" x2="626.045" y2="129.348" xlink:href="#B"/><linearGradient id="K" x1="375.322" y1="-372.019" x2="375.655" y2="-370.745" xlink:href="#B"/><linearGradient id="L" x1="387.478" y1="-420.879" x2="387.761" y2="-419.691" xlink:href="#B"/><linearGradient id="M" x1="469.276" y1="-452.889" x2="469.577" y2="-451.767" xlink:href="#B"/><linearGradient id="N" x1=".477" y1=".475" x2=".588" y2=".076" xlink:href="#F"/><linearGradient id="O" x1=".489" y1="-.073" x2=".51" y2=".897" xlink:href="#B"/><linearGradient id="P" x1=".492" y1="-.041" x2=".507" y2=".888" xlink:href="#B"/><linearGradient id="Q" x1=".493" y1="-.034" x2=".506" y2=".892" xlink:href="#B"/><linearGradient id="R" x1=".496" y1="-.096" x2=".505" y2=".891" xlink:href="#B"/><linearGradient id="S" x1=".495" y1="-.094" x2=".505" y2=".888" xlink:href="#B"/><linearGradient id="T" x1=".494" y1="-.09" x2=".506" y2=".899" xlink:href="#B"/><linearGradient id="U" x1=".494" y1="-.093" x2=".506" y2=".906" xlink:href="#B"/><linearGradient id="V" x1=".494" y1="-.096" x2=".506" y2=".896" xlink:href="#B"/><linearGradient id="W" x1=".494" y1="-.093" x2=".507" y2=".89" xlink:href="#B"/><linearGradient id="X" x1=".855" y1="-.033" x2=".226" y2=".887"><stop offset="0" stop-color="#c3577f"/><stop offset="1" stop-color="#ad298d"/></linearGradient><linearGradient id="Y" x1=".094" y1=".25" x2=".784" y2=".673" xlink:href="#B"/><linearGradient id="Z" x1=".029" y1=".087" x2=".844" y2=".624"><stop offset="0" stop-color="#fff5f5"/><stop offset="1" stop-color="#c6d9db"/></linearGradient><linearGradient id="a" x1=".1" y1="-.014" x2=".654" y2=".914" xlink:href="#F"/><linearGradient id="b" x1=".795" y1=".168" x2=".54" y2=".455"><stop offset="0" stop-color="#5d7d91"/><stop offset="1" stop-color="#374b6b"/></linearGradient><linearGradient id="c" x1=".553" y1="-.193" x2=".488" y2=".844" xlink:href="#b"/><clipPath id="d"><circle cx="24.96" cy="24.96" r="24.96" fill="none"/></clipPath><linearGradient id="e" x1="352.423" y1="-217.052" x2="349.862" y2="-214.033"><stop offset="0" stop-color="#ffe5b3"/><stop offset=".169" stop-color="#fadb9e"/><stop offset=".514" stop-color="#f0c46b"/><stop offset="1" stop-color="#df9f19"/></linearGradient><linearGradient id="f" x1="398.21" y1="-224" x2="395.322" y2="-220.903" xlink:href="#e"/><linearGradient id="g" x1="530.27" y1="-289.427" x2="526.419" y2="-285.415" xlink:href="#e"/><linearGradient id="h" x1="182.082" y1="-103.6" x2="180.761" y2="-102.152" xlink:href="#e"/><path id="i" d="M108.881 167.341l-7.772.8-2.487-6.961 3.816 2.012 1.619-7.7 3.142 7.213 3.325-2.749z"/></defs><path d="M115.091 115.404c9.56 12.163 8.027 38.989 4.113 44.687-2.366.475-2.509-1.561-2.509-1.561 2.5-5.221 5.444-26.558-2.964-37.981-1.268-1.725.737-5.94 1.36-5.145z" fill="#283547"/><path d="M76.302 161.942c25.654 20.142 41.11 16.8 34.561 46.534s-19.2 70.95-22.762 80.829c23.6 19.686 17.212 40.342 4.772 75.7s-17.495 69.331-11.185 82.775c-6.159 13.968-17.141-1.088-17.12-1.918.135-39.031 3.025-99.754-5.55-122.39s-22.347-72.285-20.757-101.007c2.365-42.714 5.442-66.422 6.828-74.58 7.321 5.993 11.374 10.244 31.213 14.057z" fill="url(#A)"/><path d="M82.003 440.046c2.491 13.285 24.909 27.4 24.078 40.684-23.247 4.15-70.574 15.774-89.669-8.3 13.283-3.321 42.366-12.153 45.676-27.663 10.77 1.356 11.613-8.873 19.915-4.721z" fill="url(#B)"/><path d="M107.741 474.088c0 10.793-5.776 18.266-12.436 19.1-8.338 0-16.624-.829-19.114-4.981-4.567 4.566-6.678 4.981-12.471 4.981s-38.175 2.492-48.139-20.757c4.981-1.66 39.023 7.473 42.344 10.795 7.472 3.321 12.454 5.611 20.757-6.844 6.643 7.472 12.455 2.691 12.455 2.691s6.642-17.439 16.604-4.985z" fill="url(#C)"/><path d="M54.604 459.972c-20.757-17.435-3.2-26.8.473-1.36 1.544-14.715 17.836-14.38 1.209-.283" fill="none" stroke="#283547" stroke-linecap="round" stroke-linejoin="round" stroke-width=".975"/><path d="M108.582 152.983c26.146 19.5 62.059 27.186 56.247 57.078s-17.435 71.4-20.757 81.365c24.078 19.1 22.3 30.823 10.733 66.473s-19.866 78.825-13.224 92.11c-5.812 14.114-16.606 1.309-16.606.48-.829-39.023 0-101.775-9.133-124.191s-21.71-73.9-33.687-100.049-15.175-57.933-13.99-66.121c10.669 3.555 33.158.539 40.417-7.145z" fill="url(#D)"/><path d="M56.719 49.562c-11.156 4.166-36.6 34.158-48.857 56.174s5.213 25.881 16.805 9.913 27.765-31.493 32.957-38.07 14.619-33.811-.905-28.017z" fill="url(#E)"/><path d="M5.385 124.711c4.118 5.538 27.195 33.214 34.072 36.313s11.487-.788 6.181-8.82-23.22-33.325-27.246-36.757-19.326.764-13.007 9.264z" fill="url(#F)"/><path d="M54.577 48.233C47.104 50.95 34.729 65.02 33.344 68.748S46.044 89.425 50.9 86.92s14.376-14.958 16.991-20.678S73.9 41.204 54.577 48.233z" fill="url(#G)"/><path d="M51.305 87.17c3.842-7.71-9.258-27.032-17.035-21.633-5.628 3.973-10.08 9.39-12.888 15.681-.933 2.485 16.63 18.867 19.209 16.773s8.978-7.34 10.714-10.821z" fill="url(#H)"/><path d="M40.383 97.438c2.579-7.148-13.578-20.052-18.4-17.2s-9.766 11.985-10.032 15.563 14.562 17.1 17.749 14.7 8.704-7.581 10.683-13.063z" fill="url(#I)"/><path d="M18.314 123.244c6.394-5.049 13.828-12.218 14.017-16.909s-15.873-18.3-21.312-11.659-10.983 18-7.838 22.42 12.848 7.957 15.133 6.148z" fill="url(#J)"/><path d="M24.032 111.969c-3.083-2.313-19.5-11.7-23.4-2.341-2.739 6.573 4.2 18.236 6.241 17.939s20.333-5.121 20.28-7.8-.001-5.459-3.121-7.798z" fill="url(#K)"/><path d="M24.496 116.489c-2.719-1.423-23.314 2.439-20.745 9.519 1.532 4.222 7.368 9.9 10.575 9.618s15.456-7.284 15.5-10.788c.05-3.561-3.064-7.164-5.33-8.349z" fill="url(#L)"/><path d="M30.272 125.229c-1.881-.752-19.5 4.68-17.655 10.663.972 3.149 5.17 7.79 7.514 7.276s14.017-7.579 14.041-9.36-.33-7.151-3.9-8.579z" fill="url(#M)"/><path d="M120.826 0c-6.643 9.133-13.285 32.382-9.964 38.194s26.568 9.962 29.89 19.1-16.6 51.477-27.4 65.591-10.114 24.549-5.08 31.987c-28.86 10.921-51.378 11.188-56.36.4-.831-19.928 1.66-65.167 2.49-66.422-4.152-12.471-4.152-34.873 5.812-41.513s27.4-11.625 27.4-11.625c0-9.962.831-22.417.831-22.417z" fill="url(#N)"/><path d="M101.728 91.331c1.661-4.152 13.285-33.211 25.739-44m-53.138-7.477c-6.643 6.643-19.1 35.7-22.417 42.344" fill="none" stroke-linecap="round" stroke-width=".975" stroke="#c0717c" stroke-miterlimit="10"/><path d="M122.485 108.766c-7.472 1.662-19.926-12.454-19.1-21.587-19.1 7.473-45.665 7.473-49.818-8.3-17.435 17.435-31.549 32.646-1.66 52.854-.831 3.057-1.387 6.144 0 7.349 10.667 9.273 55.627 5.388 55.627 5.388z" fill="url(#O)"/><path d="M73.954 15.248c-3.12 2.339-3.12 13.774 0 14.819 14.039 8.58 38.684-1.227 42.743-5.294s7.6-18.748-1.209-18.852c-9.832-.113-37.701 5.163-41.534 9.327z" fill="url(#P)"/><path d="M73.953 29.287c-3.207 1.374-4.358 10.492-3.12 14.821 1.559 5.459 39.544 7.71 46.8-3.9 3.9-6.241 3.355-17.338 0-16.38-5.46 1.559-34.32 14.039-43.68 5.459z" fill="url(#Q)"/><path d="M116.853 39.428c-10.139 7.019-22.619 7.8-35.88 6.239-5.422-.638-10.139-4.68-10.139-7.02-5.461-.78-11.05 4.189-11.7 7.02s7.021 12.48 17.939 14.821 42.121 6.239 56.94-12.48c2.79-3.526-14.12-10.686-17.16-8.58z" fill="url(#R)"/><path d="M134.012 47.228c6.13 1.779 13.537 9.492 9.5 15.277s-34.959 23.869-66.521 16.371C52.113 72.967 48.213 64.43 48.213 61.267c-3.12-7.02 7.8-18.721 10.92-15.6s9.874 12.778 24.827 15.359 39.133-5.218 50.052-13.798z" fill="url(#S)"/><path d="M129.332 70.628c6.665 0 8.668 20.495 0 26.172-14.819 9.708-56.94 6.588-70.979-1.21s-15.861-7.414-17.161-13.261c-5.459-5.459-.78-20.28 7.021-21.06 5.3 3.735 8.358 11.613 28.86 15.6 28.08 5.459 46.023-6.241 52.259-6.241z" fill="url(#T)"/><path d="M127.773 97.148c6.239 2.341-4.637 21.678-10.141 24.18-8.58 3.9-78.247-.475-83.459-18.721-3.12-10.921.78-17.16 7.019-20.28 3.253 2.47 10.141 11.7 31.98 16.38 31.723 6.797 47.751-4.128 54.601-1.559z" fill="url(#U)"/><path d="M118.015 119.703c3.136 3.251-.266 14.245-6.174 17.686-27.416 2.981-62.068 3.44-72.988-7.48-6.241-3.12-9.288-23.68-3.475-27.05 15.527 14.319 54.159 23.796 82.637 16.844z" fill="url(#V)"/><path d="M38.853 128.348c13.323 8.862 46.8 17.16 72.391 8.081 2.638 2.557 7.17 12.2 1.709 17.658-16.38 10.141-51.828 18.07-68.424-1.1-6.672-7.934-11.137-17.62-5.676-24.639z" fill="url(#W)"/><path d="M83.081 11.282c-1.33 4.746-8.4 14.63-3.3 33.868s-19.865 32.5-27.864 53.442c-5.43 14.218-10.263 48.612 8.228 64.144-5.917-10.275-16.189-26.885-6.469-60.908 7.8-27.3 33.541-35.88 28.29-56.678-4.069-16.094 1.115-33.868 1.115-33.868z" fill="url(#X)"/><path d="M142.413 443.367c2.491 13.285 24.907 27.4 24.078 40.683-23.249 4.152-70.574 15.776-89.671-8.3 13.285-3.321 42.368-12.153 45.677-27.663 10.774 1.357 11.612-8.872 19.916-4.72z" fill="url(#Y)"/><path d="M168.151 477.409c0 10.793-5.776 18.266-12.436 19.1-8.338 0-16.623-.829-19.114-4.981-4.567 4.566-6.678 4.981-12.473 4.981S85.953 499 75.991 475.752c4.981-1.66 39.023 7.473 42.344 10.795 7.471 3.32 12.454 5.611 20.757-6.843 6.643 7.472 12.454 2.691 12.454 2.691s6.641-17.44 16.605-4.986z" fill="url(#Z)"/><path d="M115.013 463.294c-20.757-17.435-3.206-26.8.473-1.36 1.544-14.715 17.836-14.38 1.209-.283" fill="none" stroke="#283547" stroke-linecap="round" stroke-linejoin="round" stroke-width=".975"/><path d="M40.289 153.601c1.023-2.812 3.321-10.793 7.472-9.133 2.276.911 15.433 14.163 14.945 16.606-3.321 2.49-10.051-5.477-11.252-5.23 4.239 3.817 7.931 10.211 7.931 11.041s-3.321 5.812-6.643 4.981-7.524-1.44-10.4-2.8-5.374-6.332-2.053-15.465z" fill="url(#a)"/><circle cx="98.116" cy="174.342" r="24.96" fill="url(#b)"/><path d="M83.233 160.994c-4.336 7.926 30.273 35.9 30.273 35.9-4.833 2.732-11.993 2.708-19.145 2.283-9.08-.541-19.243-8.8-20.883-20.832-1.67-12.271 5.271-19.412 4.493-19.005-.271 4.539 4.014 2.11 5.262 1.654z" fill="url(#c)"/><g fill="#283547"><circle cx="104.731" cy="173.53" r="24.96"/><path d="M59.912 44.112c-18.721 51.481-7.021 98.28 18.458 120.9-.223 1.611-.66 3.185-1.3 4.68-35.88-31.2-34.3-88.658-21.06-124.021a3.47 3.47 0 0 1 3.902-1.559z"/></g><g clip-path="url(#d)" transform="translate(79.771 148.57)" opacity=".4"><path d="M58.745 45.711c-5.98-8-51.694-36.427-66.661-43.09l.456-1.025c15.045 6.7 61.053 35.353 67.1 43.442zm3.444-9.748C56.238 27.145 11.674-.12-1.165-5.47l.431-1.035c13.266 5.528 57.66 32.661 63.855 41.842zm1.372-11.836c-5.64-6.028-38.873-31.218-53.444-35.8l.337-1.071c14.715 4.625 48.241 30.024 53.927 36.1zM47.742 59.709a3.99 3.99 0 0 1-.5-.039l.148-1.113.113.014C43.39 53.998-9.545 24.01-13.358 22.931l.043-.146-.128.206c-.38-.278-.489-.572-.32-.875s.473-.369.913-.192c1.963.788 17.314 9.067 32.523 17.779 29.771 17.056 29.359 18.622 29.161 19.374-.14.52-.663.632-1.092.632zm-9.513 2.092c-5.4 0-51.36-28.85-51.831-29.154l.61-.943c9.628 6.232 48.181 29.536 51.067 29.042l.547.965c-.119.069-.256.1-.393.09zM53.34 51.683c-4.595-5.349-54.815-35.411-65.584-40.9l.511-1c9.209 4.692 61.032 35.467 65.925 41.163z"/><path d="M3.273 58.713l-1.106-.186c1.646-9.964 29.3-56.581 39.58-69.451l.876.7C32.4 2.586 4.903 48.86 3.273 58.713zm-7.543-7.07l-1.115-.129c1.275-11 28.2-55.522 37.433-66.534l.86.722C23.972-3.643-3.046 41.071-4.27 51.643zm-6.672-9.878l-1.081-.3c2.252-8.01 20.328-45.989 31.264-56.869l.792.8C9.207-3.838-8.705 33.818-10.942 41.765zm29.745 24.507c-.221.004-.432-.09-.577-.257-.521-.575-1.607-1.777 16.974-30.622C44.692 20.657 54.51 6.244 55.89 4.64c.308-.357.611-.441.9-.249s.33.5.119.926l-.145-.071.043.058c-2.891 2.712-36.083 53.7-37.63 59.65l.1-.065.644.921a2.18 2.18 0 0 1-1.118.462zm9.745-2.614h-.046l.145-1.112c2.652-.923 26.187-39.317 31.87-49.283l.973.557c-.286.499-29.321 49.838-32.942 49.838zm-17.73-2.133l-1.091-.257c1.725-7.315 33.569-58.484 39.586-66.885l.913.652c-7.036 9.823-37.787 59.621-39.408 66.49z"/></g><g fill="#81330d"><path d="M114.376 170.269l-1.365.732-.1-.145a1.33 1.33 0 0 0-1.578-.523 1.38 1.38 0 0 0-.919.957 2.05 2.05 0 0 0-.073 1.059c.082.519.392.975.844 1.243a1.42 1.42 0 0 0 .94.152 1.32 1.32 0 0 0 .732-.315c.21-.201.326-.48.32-.771l-1.24.136-.014-.077-.109-.965c-.007-.061.01-.08.07-.085q1.427-.156 2.851-.315h.067l.047.434c.02.304.004.609-.047.909a2.66 2.66 0 0 1-1.226 1.84 3.7 3.7 0 0 1-3.095.254 2.72 2.72 0 0 1-1.365-1.232 3.21 3.21 0 0 1-.3-2.359 2.73 2.73 0 0 1 1.49-1.869 3.77 3.77 0 0 1 1.686-.378 2.73 2.73 0 0 1 1.5.4 2.9 2.9 0 0 1 .829.826c.007.025.03.054.055.092zm-16.297 3.239q-.151-1.371-.3-2.742c-.009-.072.012-.09.08-.1l2.1-.23c.967-.13 1.934.244 2.561.992a2.59 2.59 0 0 1 .575 2.591 2.83 2.83 0 0 1-1.931 1.959 3.07 3.07 0 0 1-.553.112l-2.119.238c-.073.009-.1-.005-.105-.082l-.184-1.651-.121-1.089zm1.346-1.769l.353 3.194c.329-.005.656-.068.963-.186a1.4 1.4 0 0 0 .616-.507 1.67 1.67 0 0 0 .175-1.512 1.46 1.46 0 0 0-.827-.916 1.81 1.81 0 0 0-.887-.116l-.393.043zm5.708 1.251l-.308-.3c-.196-.189-.299-.453-.284-.724s.147-.523.362-.689a1.7 1.7 0 0 1 1.169-.375c.266.001.527.074.754.213a.87.87 0 0 1 .3 1.207 2.01 2.01 0 0 1-.558.579l-.073.054.633.494.129-.466.88.172c-.039.301-.132.593-.276.861l.53.272-.351.952-.6-.337c-.107-.063-.1-.066-.194.02a2.05 2.05 0 0 1-1.369.545 1.89 1.89 0 0 1-.834-.14 1.17 1.17 0 0 1-.664-1.481 1.56 1.56 0 0 1 .483-.638c.08-.076.174-.142.271-.219zm1.488 1.246l-.005-.014-.912-.7c-.019-.01-.042-.01-.061 0-.152.108-.254.273-.281.458a.54.54 0 0 0 .157.473c.127.123.305.175.478.14a1.03 1.03 0 0 0 .623-.357zm-1.088-2.244a.71.71 0 0 0 .092.2 3.59 3.59 0 0 0 .3.279c.009.009.041 0 .056-.012l.189-.151a.4.4 0 0 0 .114-.466.4.4 0 0 0-.39-.223c-.098-.002-.193.037-.262.108s-.104.167-.099.265z"/><use xlink:href="#i"/></g><path d="M113.612 170.42l-1.367.732-.1-.145a1.33 1.33 0 0 0-1.58-.523c-.45.139-.796.5-.917.955-.119.341-.144.707-.073 1.061.082.519.391.975.843 1.243a1.42 1.42 0 0 0 .941.15 1.3 1.3 0 0 0 .73-.313 1.04 1.04 0 0 0 .32-.773l-1.24.138c0-.031-.012-.055-.013-.077l-.109-.965c-.007-.061.01-.08.07-.087l2.852-.313c.024 0 .048 0 .068-.005l.046.436c.02.304.005.609-.046.909-.122.762-.569 1.433-1.226 1.839-.945.537-2.079.63-3.1.255-.584-.24-1.067-.675-1.365-1.232-.398-.719-.505-1.563-.3-2.359.183-.819.733-1.508 1.49-1.869a3.75 3.75 0 0 1 1.685-.378c.528-.015 1.05.124 1.5.4a2.9 2.9 0 0 1 .829.824c.016.029.035.056.062.097z" fill="url(#e)"/><path d="M97.312 173.655q-.151-1.371-.3-2.741c-.007-.071.012-.092.082-.1l2.1-.23c.967-.131 1.933.243 2.56.991a2.59 2.59 0 0 1 .575 2.593 2.83 2.83 0 0 1-1.93 1.958 2.9 2.9 0 0 1-.553.114l-2.119.238c-.072.008-.1-.005-.105-.082l-.184-1.653-.121-1.088zm1.346-1.767l.353 3.192a2.79 2.79 0 0 0 .965-.184 1.4 1.4 0 0 0 .615-.507 1.67 1.67 0 0 0 .176-1.513c-.127-.412-.43-.747-.827-.914-.28-.113-.585-.153-.885-.116l-.396.042z" fill="url(#f)"/><path d="M104.366 173.137l-.306-.3c-.196-.189-.3-.454-.285-.725s.147-.523.362-.69a1.7 1.7 0 0 1 1.169-.373c.267-.001.528.072.756.211.2.12.344.316.4.543s.018.467-.105.666c-.145.228-.335.424-.558.577l-.073.056.635.492.128-.466.88.174a2.48 2.48 0 0 1-.276.86l.531.272-.352.953-.6-.337c-.107-.063-.1-.068-.194.019-.372.346-.861.541-1.369.545a1.9 1.9 0 0 1-.834-.138c-.583-.237-.875-.891-.664-1.483a1.56 1.56 0 0 1 .484-.637l.271-.219zm1.49 1.246l-.007-.014-.912-.7c-.02-.007-.042-.006-.061.005-.152.108-.253.273-.279.458a.49.49 0 0 0 .272.557.5.5 0 0 0 .361.056c.245-.041.467-.168.626-.359zm-1.09-2.244c.021.071.053.139.094.2a3.09 3.09 0 0 0 .3.279c.009.009.041 0 .054-.012l.189-.151c.136-.106.186-.288.123-.448s-.225-.259-.397-.243c-.099-.002-.195.038-.264.11s-.105.169-.099.268z" fill="url(#g)"/><use xlink:href="#i" x="-0.766" y="0.148" fill="url(#h)"/></svg>
