<svg xmlns="http://www.w3.org/2000/svg" xmlns:xlink="http://www.w3.org/1999/xlink" width="166.217" height="583.791" ><defs><linearGradient id="A" x1=".511" y1="-.253" x2=".417" y2="6.464"><stop offset="0" stop-color="#bb9bb7"/><stop offset=".671" stop-color="#5f4d5f"/></linearGradient><linearGradient id="B" x1=".238" y1="6.412" x2=".555" y2="-.588"><stop offset=".219" stop-color="#5f89bf"/><stop offset="1" stop-color="#183773"/></linearGradient><linearGradient id="C" x1=".442" y1="1.002" x2=".513" y2=".235"><stop offset=".365" stop-color="#fabb80"/><stop offset=".825" stop-color="#faa16c"/></linearGradient><linearGradient id="D" x1=".288" y1="-.049" x2=".624" y2=".834"><stop offset="0" stop-color="#6d515b"/><stop offset="1" stop-color="#1b2139"/></linearGradient><linearGradient id="E" x1="-.135" y1="-1.198" x2=".996" y2="2.117"><stop offset=".32" stop-color="#fff" stop-opacity="0"/><stop offset=".387" stop-color="#fdfcfb" stop-opacity=".055"/><stop offset=".509" stop-color="#f9f7f2" stop-opacity=".204"/><stop offset=".675" stop-color="#f2eee3" stop-opacity=".447"/><stop offset=".874" stop-color="#e9e2ce" stop-opacity=".776"/><stop offset="1" stop-color="#e3dac1"/></linearGradient><linearGradient id="F" x1="-.315" y1="-2.059" x2="1.375" y2="3.813" xlink:href="#E"/><linearGradient id="G" x1=".316" y1="-.084" x2=".74" y2=".726"><stop offset="0" stop-color="#5d7dbf"/><stop offset="1" stop-color="#374b6b"/></linearGradient><linearGradient id="H" x1=".088" y1=".117" x2="1.303" y2="1.441" xlink:href="#D"/><linearGradient id="I" x1="-.012" y1="-1.302" x2=".831" y2="1.941" xlink:href="#E"/><linearGradient id="J" x1="-.217" y1="-2.499" x2="1.041" y2="3.245" xlink:href="#E"/><linearGradient id="K" x1=".352" y1=".08" x2=".71" y2=".806" xlink:href="#G"/><linearGradient id="L" x1=".519" y1=".04" x2=".417" y2="1.032"><stop offset="0" stop-color="#ffffb5"/><stop offset="1" stop-color="#f1c15f"/></linearGradient><linearGradient id="M" x1=".535" y1=".035" x2=".453" y2="1.028" xlink:href="#L"/><linearGradient id="N" x1=".916" y1="-.022" x2=".35" y2=".899"><stop offset="0" stop-color="#5d7d91"/><stop offset="1" stop-color="#374b6b"/></linearGradient><linearGradient id="O" x1=".551" y1=".043" x2=".421" xlink:href="#L"/><linearGradient id="P" x1=".378" y1="1.005" x2=".523" y2=".11" xlink:href="#N"/><clipPath id="Q"><path d="M1146.163 307.109s-13.261 113.1-20.28 127.141c2.339 9.36 2.339 21.06 3.9 21.06s13.26-12.48 15.6-21.06c0-11.7 7.958-118.56 6.319-127.141-1.717-3.119-5.539 0-5.539 0z" transform="translate(-1125.883 -305.723)" fill="none"/></clipPath><linearGradient id="R" x1=".092" y1=".5" x2=".908" y2=".5"><stop offset="0" stop-color="#ddf5f5"/><stop offset="1" stop-color="#c6d9db"/></linearGradient><linearGradient id="S" x1=".104" x2=".896" xlink:href="#R"/><linearGradient id="T" x1=".088" x2=".912" xlink:href="#R"/><linearGradient id="U" x1=".114" x2=".886" xlink:href="#R"/><linearGradient id="V" x1=".087" x2=".913" xlink:href="#R"/><linearGradient id="W" x1=".089" x2=".911" xlink:href="#R"/><linearGradient id="X" x1=".077" x2=".923" xlink:href="#R"/><linearGradient id="Y" x1=".079" x2=".921" xlink:href="#R"/><linearGradient id="Z" x1=".076" x2=".924" xlink:href="#R"/><linearGradient id="a" x1="366.545" y1="-2.097" x2="366.561" y2="-2.363"><stop offset=".641" stop-color="#ffd7a5"/><stop offset="1" stop-color="#faa96c"/></linearGradient><linearGradient id="b" y1=".5" x2="1" y2=".5"><stop offset=".157" stop-color="#694538"/><stop offset="1" stop-color="#1c1007"/></linearGradient><linearGradient id="c" x1=".487" y1=".102" x2=".517" y2=".944"><stop offset="0" stop-color="#8567ad"/><stop offset="1" stop-color="#1b2139"/></linearGradient><linearGradient id="d" x1="-1.445" y1=".543" x2=".257" y2=".504" xlink:href="#c"/><linearGradient id="e" x1="-.637" y1=".532" x2=".987" y2=".484" xlink:href="#c"/><linearGradient id="f" x1=".501" y1=".093" x2=".562" y2=".946" xlink:href="#c"/><linearGradient id="g" x1=".549" y1="-.165" x2=".5" y2=".662" xlink:href="#c"/><linearGradient id="h" x1=".527" y1="-.221" x2=".47" y2=".669" xlink:href="#c"/><linearGradient id="i" x1=".498" y1=".104" x2=".503" y2=".942" xlink:href="#c"/><linearGradient id="j" x1=".493" y1=".103" x2=".505" y2=".945" xlink:href="#D"/><linearGradient id="k" x1=".315" y1="1.068" x2=".843" y2="-.137" xlink:href="#B"/><linearGradient id="l" x1=".373" y1=".957" x2="1.317" y2="-.223" xlink:href="#B"/></defs><g transform="translate(-7.153 -86.253)"><path d="M55.571 149.58l69.229-4.481c0-.781 3.12-13.26 3.12-13.26-15.6-11.7-63.186-11.235-72.544 10.372" fill="url(#A)"/><path d="M93.297 116.922c11.889-1.663 33.648.657 35.7 10.907-8.386 9.583-61.913 11.031-64.253 7.913s-4.68-4.9-.78-7.913 18.891-9.448 29.333-10.907z" fill="url(#B)"/><path d="M111.541 86.253c-2.341 10.837-5.888 30.021-2.166 45.6-5.81 23.368-29.255 29.956-34.216 16.53-.56-15.151 1.28-34.486 1.28-34.486z" fill="url(#C)"/><path d="M95.161 653.274s1.895 13.26 1.726 16.77H86.281l-3.6-5.07c-2.726 3.324-6.84 5.197-11.137 5.07H46.65c-12.33 0-24.03-11.31-20.13-15.211 3.9 1.561 17.939 3.9 21.06 2.341s13.26-12.48 17.939-13.26 29.642 9.36 29.642 9.36z" fill="url(#D)"/><path d="M59.281 649.374c1.989-1.988 14.039 0 12.48 2.341s-17.16 3.119-16.38 1.559 2.338-2.34 3.9-3.9z" fill="url(#E)"/><path d="M50.701 657.954c-1.745 0 2.339-3.12 3.9-3.12s7.214 1.129 6.726 2.125-9.067.995-10.626.995z" fill="url(#F)"/><path d="M96.836 399.656c1.307 27.784-14.155 117.506-5.575 146.366s6.515 102.96 5.6 116.221c-11.976-11.7-24.825-20.583-36.662-15.362 1.423-30.658 5.963-69.309.963-95.614s-23.167-157.344-17.2-197.515c8.023-12.479 50.651-1.402 52.874 45.904z" fill="url(#G)"/><path d="M160.681 652.883s1.895 13.26 1.728 16.77h-10.607l-3.6-5.07a13.87 13.87 0 0 1-11.137 5.07h-24.894c-12.33 0-24.031-11.31-20.13-15.21 3.9 1.561 17.939 3.9 21.06 2.341s13.26-12.48 17.941-13.26 29.639 9.359 29.639 9.359z" fill="url(#H)"/><path d="M124.801 648.983c1.988-1.988 14.041 0 12.48 2.341s-17.16 3.119-16.38 1.559 2.34-2.34 3.9-3.9z" fill="url(#I)"/><path d="M116.22 657.563c-1.745 0 2.341-3.12 3.9-3.12s7.215 1.129 6.728 2.125-9.068.995-10.628.995z" fill="url(#J)"/><path d="M118.566 354.142c14.819 14.039 18.205 30.453 16.513 89.717s5.369 96.61 13.126 113.083c10.321 21.923 15.434 87.359 13.958 105.3-20.115-10.139-20.6-17.7-36.578-14.819.81-23.1 0-75.678-7.019-86.2s-13.644-29.374-18.133-77.668-15.408-44.908-27.108-65.321-21.06-40.693-16.38-60.193 54.596-12.479 61.621-3.899z" fill="url(#K)"/><path d="M114.496 133.835s56.509 43.246 56.028 54.947-50.4 143.52-51.961 165.361c-29.641 11.7-72.54 13.26-76.44 3.12-7.021-50.7-14.206-172.122-11-182.783s32.843-39.52 41.423-38.739c-6.45 15.318 23.394 14.82 41.95-1.906z" fill="url(#L)"/><path d="M73.319 265.222c-.78 15.6-18.571 79.69-9.676 98.736" fill="none" stroke="#707070" stroke-miterlimit="10" stroke-width=".916"/><path d="M108.425 120.921c-1.912 6.721-14.039 16.38-21.06 19.5-2.341 3.9-2.177 6.372-2.177 6.372 6.857-5.592 8.689 3.686 13.622 19.717 5.968-3.817 20.564-25.11 21.72-30.669-4.715-11.12-7.43-18.82-12.105-14.92z" fill="url(#M)"/><path d="M78.781 163.041s-13.261 113.1-20.28 127.141c2.339 9.36 2.339 21.06 3.9 21.06s13.26-12.48 15.6-21.06c0-11.7 7.958-118.56 6.319-127.141-1.717-3.119-5.539 0-5.539 0z" fill="url(#N)"/><path d="M75.66 127.162c0 5.459 0 11.7 3.9 12.48 2.339 1.559 1.69 7.152 1.69 7.152-7.931-5.592-11.831 6.888-14.17 15.467a127.68 127.68 0 0 1-3.12-24.96c3.12-8.58 9.64-14.538 11.7-10.139z" fill="url(#O)"/><path d="M76.441 145.101c3.245-2.164 14.116-3.294 14.821 2.341.78 6.239-4.523 16-6.942 21.259-1.716-3.519-5.854-3.9-6.319-1.76-4.049-11.318-3.899-20.281-1.56-21.84z" fill="url(#P)"/><g clip-path="url(#Q)" transform="translate(58.501 161.655)" opacity=".5"><g transform="translate(-4.808 3.867)"><g transform="translate(21.201)"><path transform="matrix(.717288 -.696777 .696777 .717288 0 11.529)" fill="url(#R)" d="M0 0h16.546v2.339H0z"/></g><g transform="translate(18.646 10.941)"><path transform="matrix(.717288 -.696777 .696777 .717288 0 15.372)" fill="url(#S)" d="M0 0h22.062v2.339H0z"/></g><g transform="translate(16.184 21.843)"><path transform="matrix(.770535 -.637397 .637397 .770535 0 17.634)" fill="url(#T)" d="M0 0h27.666v2.34H0z"/></g><g transform="translate(12.713 38.239)"><path transform="matrix(.717288 -.696777 .696777 .717288 0 20.753)" fill="url(#U)" d="M0 0h29.784v2.339H0z"/></g><g transform="translate(9.443 54.565)"><path transform="matrix(.783 -.622 .622 .783 0 20.681)" fill="url(#V)" d="M0 0h33.258v2.34H0z"/></g><g transform="translate(7.626 72.464)"><path transform="matrix(.775375 -.631502 .631502 .775375 0 19.93)" fill="url(#W)" d="M0 0h31.559v2.34H0z"/></g><g transform="translate(3.538 89.536)"><path transform="matrix(.799 -.601 .601 .799 0 18.373)" fill="url(#X)" d="M0 0h30.579v2.34H0z"/></g><g transform="translate(.184 103.571)"><path transform="matrix(.800355 -.599527 .599527 .800355 0 20.671)" fill="url(#Y)" d="M0 0h34.479v2.34H0z"/></g><g transform="translate(0 118.363)"><path transform="matrix(.806 -.592 .592 .806 0 19.131)" fill="url(#Z)" d="M0 0h32.292v2.34H0z"/></g></g></g><path d="M23.762 374.21c3.507 18.533 1.411 30.075 1.411 30.075 5.987 7.582 9.7 14.667 7.969 18.167s-6.355 18.091-11.084 17.8-6.418-7.031-6.418-7.031c-.739 2.147-5.141-2.63-6.5-5.037a15.9 15.9 0 0 1-1.816-9.729c.4-3.393 8.4-17.42 8.512-18.784-.089-6.734.053-24.827.053-24.827z" fill="url(#a)"/><path d="M114.249 351.126c-11.288 4.576-48.73 14.717-69.789 6.137v7.867c17.941 6.952 58.457 1.074 69.789-5.737a27.99 27.99 0 0 1 0-8.267z" fill="url(#b)"/><path d="M124.021 137.301c19.7 19.846 52.26 38.221 49.14 49.92s-36.478 121.73-40.078 132.235c9.177 35.833 15.122 113.916 15.12 121.881-6.244 11.253-31.235 13.134-39.02 12.109-3.086-26.226-1.643-116.008-1.592-138.855s2.969-121.475 16.43-177.29z" fill="url(#c)"/><path d="M43.681 206.721c.78-24.96-8.978-44.877-18.139-28.679s-10.755 92.073-9.958 120.827 18.31 19.437 20.474-1.255 7.35-82.175 7.623-90.893z" fill="url(#d)"/><path d="M7.185 406.847c10.589 4.571 23.082 1.018 23.938-5.563.933-18.622 4.133-73.863 5.614-85.853s-17.631-34.239-19.774-13.755-10.39 87.674-9.778 105.171z" fill="url(#e)"/><path d="M60.196 137.832c-11.973 57.439-16.118 158.08-15.537 178.615s9.957 137 9.957 137c-11.715-4.143-20.329-3.33-20.312-9.586-.747-39.813 1.959-117.018.6-132.618s-9.443-116.187-6.573-136.484c9.886-18.737 28.101-36.396 31.865-36.927z" fill="url(#f)"/><path d="M138.056 141.981c.984 9.788 2.894 50.684 2.227 54.2s-12.366 13.144-12.366 13.144l10.921 7.535-31.023 80.283c-.354-31.085 3.849-128.888 13.925-157.625 2.995-3.655 3.057-9.239 6.178-7.678s8.582 6.241 10.138 10.141z" fill="url(#g)"/><path d="M45.043 291.167c-3.507-44.1-7.6-78.209-7.6-78.209l5.461-5.461c-6.241-3.119-9.361-5.459-9.361-8.58s11.492-51.2 24.466-61.089c3.614-.531 4.334-1.939 2.834 3.369-10.143 35.884-10.538 118.981-15.8 149.97z" fill="url(#h)"/><path d="M116.22 345.563c0-4.2 23.251-5.09 24.2-3.12.756 1.559 2.986 12.928-.024 14.821s-20.28 3.9-22.255 2.13c-1.438-1.293-1.921-11.492-1.921-13.831z" fill="url(#i)"/><path d="M32.76 342.442c.713-1.91 6.241-1.559 7.021 0s.78 14.821 0 15.6c-1.113 1.113-6.241.754-7.8-.78s-.001-12.729.779-14.82z" fill="url(#j)"/><path d="M129.48 129.501c3.034 12.131-9.359 99.841-10.919 116.221-3.9 5.459-26.422-2.341-29.641-5.459 2.142-21.061 32.317-100.379 29.808-108.69 4.34-6.483 8.413-11.432 10.752-2.072z" fill="url(#k)"/><path d="M65.471 133.836c-2.24 10.832-2.29 98.627-1.51 110.327-5.459 3.9-18.123 12.548-21.06 7.019 1.925-55.517 12.48-113.034 15.6-118.527s8.481-7.747 6.97 1.181z" fill="url(#l)"/></g></svg>
