<svg xmlns="http://www.w3.org/2000/svg" xmlns:xlink="http://www.w3.org/1999/xlink" width="220.273" height="495.417" ><defs><linearGradient id="A" x1=".207" y1="1.217" x2=".386" y2=".561"><stop offset=".464" stop-color="#fabb80"/><stop offset="1" stop-color="#faa16c"/></linearGradient><linearGradient id="B" y1=".5" x2="1" y2=".5"><stop offset="0" stop-color="#5d7d91"/><stop offset="1" stop-color="#374b6b"/></linearGradient><linearGradient id="C" x1=".453" y1="-.168" x2=".645" y2=".748"><stop offset="0" stop-color="#8bd7ef"/><stop offset="1" stop-color="#4777b3"/></linearGradient><linearGradient id="D" x1=".288" y1=".92" x2=".467" y2=".264"><stop offset=".789" stop-color="#fabb80"/><stop offset=".952" stop-color="#faa16c"/></linearGradient><linearGradient id="E" x1=".435" y1="-.025" x2=".93" y2="1.119" xlink:href="#C"/><linearGradient id="F" x1=".563" x2=".51" y2=".445"><stop offset="0" stop-color="#404e4f"/><stop offset=".311" stop-color="#394547"/><stop offset=".802" stop-color="#292f33"/><stop offset="1" stop-color="#212429"/></linearGradient><linearGradient id="G" x1=".131" y1="1.308" x2=".587" y2=".412"><stop offset="0" stop-color="#43dcaa"/><stop offset=".439" stop-color="#008d81"/></linearGradient><radialGradient id="H" cx=".341" cy=".642" fx=".256" fy=".571" r=".474" gradientTransform="translate(0.892 -0.049) scale(1.293 1.076)"><stop offset="0" stop-color="#43dcaa"/><stop offset=".77" stop-color="#008d81"/></radialGradient><radialGradient id="I" cx=".386" cy=".289" r=".958" gradientTransform="translate(-0.731 -0.022) scale(0.766 1.076)"><stop offset="0" stop-color="#43dcaa"/><stop offset="1" stop-color="#008d81"/></radialGradient><linearGradient id="J" x1=".541" y1="1.11" x2=".467" y2=".49" xlink:href="#A"/><linearGradient id="K" x1=".081" y1=".825" x2=".856" y2=".259"><stop offset=".44" stop-color="#43dcaa"/><stop offset="1" stop-color="#008d81"/></linearGradient><linearGradient id="L" x1="1.457" y1=".92" x2=".317" y2=".26" xlink:href="#K"/><linearGradient id="M" x1="0" y1=".5" x2="1" y2=".5" xlink:href="#F"/><linearGradient id="N" x1=".22" y1="-.591" x2=".523" y2=".655" gradientTransform="matrix(1, 0, 0, 1, 0, 0)" xlink:href="#I"/><linearGradient id="O" x1="-242.899" y1="251.499" x2="-243.206" y2="252.21" xlink:href="#A"/><linearGradient id="P" x1="18.454" y1="-10.733" x2="18.461" y2="-11.125"><stop offset=".641" stop-color="#ffd7a5"/><stop offset="1" stop-color="#faa96c"/></linearGradient><linearGradient id="Q" x1=".966" y1="1.154" x2=".295" y2=".251"><stop offset=".035" stop-color="#43dcaa"/><stop offset=".801" stop-color="#008d81"/></linearGradient><linearGradient id="R" x1=".462" y1="-.202" x2=".517" y2="1.019" gradientTransform="matrix(1, 0, 0, 1, 0, 0)" xlink:href="#I"/><linearGradient id="S" x1="1141.28" y1="1212.768" x2="1140.275" y2="1213.496" xlink:href="#P"/><linearGradient id="T" x1="26.629" y1="309.234" x2="26.638" y2="308.906" xlink:href="#P"/><linearGradient id="U" x1="-23.929" y1="317.694" x2="-23.787" y2="319.042" gradientTransform="matrix(1, 0, 0, 1, 0, 0)" xlink:href="#I"/></defs><path d="M102.304 425.217c-1.45 11.7-10.151 47.581-7.252 57.72-3.624 3.9-9.012 2.041-9.012 2.041.312-10.621-1.864-51.181 1.037-62.881 7.25-.78 15.227 3.12 15.227 3.12z" fill="url(#A)"/><path d="M98.448 474.849c1.275 6.171 4.869 8.227 2.116 20.568H57.019c-7.01-10.284-5.786-6.285 23.533-17.939 2.661-11.161 1.29-13.792 1.449-28.08 4.351-.78 20.592.012 20.3 1.559-1.442 7.8-2.897 14.041-3.853 23.892z" fill="#283547"/><path d="M87.18 489.935c2.646-1.33 13.282-.01 14.191.681s.788 3.434.191 4.8H55.013c-3.939-4.8-2.879-8.513-1.44-7.684s15.882 11.113 33.607 2.203z" fill="url(#B)"/><path d="M38.629 225.03c13.644 55.886 17.27 100.346 24.521 123.747s14.5 58.5 15.953 83.461c3.625 6.239 25.379 4.68 29 .78.725-22.621 7.977-43.68 5.8-59.281s-17.233-35.257 3.347-124.1c-26.269-13.103-78.621-24.607-78.621-24.607z" fill="url(#C)"/><path d="M164.664 425.216c-1.45 11.7-10.153 47.581-7.252 57.72-3.626 3.9-9.012 2.041-9.012 2.041.311-10.621-1.864-51.181 1.037-62.881 7.25-.78 15.227 3.12 15.227 3.12z" fill="url(#D)"/><path d="M160.083 474.849c1.275 6.171 4.867 8.227 2.114 20.568h-43.542c-7.01-10.284-5.786-6.285 23.531-17.939 2.662-11.161 1.292-13.792 1.45-28.08 4.351-.78 20.592.012 20.3 1.559-1.447 7.8-2.897 14.041-3.853 23.892z" fill="#283547"/><path d="M148.815 489.935c2.646-1.33 13.282-.01 14.191.681s.786 3.434.191 4.8h-46.55c-3.939-4.8-2.88-8.513-1.44-7.684s15.883 11.113 33.608 2.203z" fill="url(#B)"/><path d="M178.646 200.449c16.472 19.626-1.655 64.866-6.731 91.387s10.686 71.444 7.88 87.593-10.781 48.127-10.781 55.147c-7.25 6.241-29.728 3.452-30.816-2.174 4.35-28.412-4.409-66.734-9.065-80.505-8.7-25.741-45.825-88.423-51.191-121.432 50.902-19.218 83.197-50.873 100.704-30.016z" fill="url(#E)"/><path d="M150.843 227.278c5.844 16.2-4.307 64.558-2.131 77.818s14.5 63.961 13.777 74.881-6.083 55.461-7.029 58.15m.461-210.849c5.846 16.2-4.305 64.558-2.131 77.818s14.5 63.961 13.777 74.881-6.081 55.461-7.027 58.15" fill="none" stroke="#5e80a0" stroke-miterlimit="10" stroke-width=".884"/><path d="M133.545 44.954c7.781-5.916 65.923 2.737 69.548 23.8s4.351 78.781-15.226 87.361-59.111-.381-65.448-12.281-4.764-86.794 11.126-98.88z" fill="url(#F)"/><path d="M63.504 17.515c-2.53 2.1-18.2 27.226 15.015 42.742s67.021-25.009 65.344-40.626S118.363 0 118.363 0z" fill="#087265"/><path d="M40.447 57.066C28.57 66.405 29.795 68.754 23.269 88.255s-7.976 28.86-6.525 52.26 18.852 30.421 29.728 18.721 1.45-24.96 4.351-38.221 15.502-57.7-10.376-63.949z" fill="url(#G)"/><path d="M58.798 46.135c-21.028 14.039-25.379 8.58-21.753 31.2s-.725 38.219-9.426 50.7 10.876 24.96 14.5 28.08c-2.9 24.18-23.2 61.62-1.45 76.44s77.584 23.4 114.564-12.48c9.171-8.9 47.856-39 21.029-66.3-5.8-21.839 8.7-74.879 1.449-89.7-16.676-12.48-30.453-24.96-35.53-25.74s-83.383 7.8-83.383 7.8z" fill="url(#H)"/><path d="M42.122 156.115c-3.626-3.12-23.2-15.6-14.5-28.08s13.052-28.08 9.426-50.7.725-17.161 21.753-31.2c0 0 78.311-8.58 83.386-7.8s18.853 13.26 35.53 25.74c4.71 9.625.243 35.371-1.876 58.22-9.726 28.361-33.06 36.675-55.471 33.688s-57.946-13.907-78.248.132z" fill="url(#I)"/><path d="M176.217 198.761c5.17 2.846 5.122 6.493 5.122 6.493-10.151 24.96-42.78 46.8-86.287 46.021 29.731-10.92 49.939-16.107 81.165-52.514z" fill="#087265"/><path d="M121.513 12.594s-10.507 21.841 6.171 31.2c-18.128 16.38-58.009 15.6-61.633 4.68 7.25-3.9 8.7-10.919 8.7-19.5s46.762-16.38 46.762-16.38z" fill="url(#J)"/><path d="M133.361 3.415c28.4 2.16 21.875 20.1 19.7 41.941-5.076-3.12-10.878-7.021-10.878-7.021-19.577 23.4-45.78 8.8-60.6 35.6-3.525-15.035 14.405-30.338 36.776-38.037s18.019-20.961 4.967-23.3 10.035-9.183 10.035-9.183z" fill="url(#K)"/><path d="M62.424 12.594c-10.876 12.482-22.971 19.4-22 26.08s36.5 13.7 42.3 30.08c5.076-10.139 3.047-16.86-2.826-20.91s-25.452-7.17-14.576-21.989-2.898-13.261-2.898-13.261z" fill="url(#L)"/><path d="M162.489 52.374l-7.977-6.239c-50.989 66.7-16.676 128.7 21.754 107.639-.725-3.119-1.386-11.954-1.386-11.954-26.169 17.415-59.523-18.465-12.391-89.446z" fill="url(#M)"/><path d="M177.714 64.075c8.944 4.988-2.174 13.261 12.327 28.86s9.427 10.921 12.327 27.3 31.906 30.421 9.428 44.46-31.226 3.9-36.255-7.02 2.082-16.446-3.672-28.113-13.732-76.406 5.845-65.487z" fill="url(#N)"/><path d="M55.899 191.995c-2.342.7 5.7 17.153 13.775 10.139 1.451-3.119-.724-14.039-13.775-10.139z" fill="url(#O)"/><path d="M22.472 177.13l22.379 13.425c9.717.378 16.457.237 18.01 4.121s14.729 12.4 11.976 16.588c-3.861 5.871-10.561 4.746-10.561 4.746 1.164 2.114-5.134 4.526-7.717 3.42s-11.559-5.522-13.9-8.229-6.095-13.474-7.065-14.526c-5.221-4.647-17.767-12.608-17.767-12.608z" fill="url(#P)"/><path d="M15.294 133.499c-7.25 7.021-20.9 17.505-12.265 26.693-5.924 14.477-2.962 24.788 7.189 25.568 0 10.141.424 21.128 6.013 24.994s11.39-8.614 17.19-6.273c-.723-7.8 3.626-16.38 7.252-17.939-1.45-7.02 8.7-13.261 2.176-17.161 0-9.36-5.437-12.17-7.977-14.039-13.778-10.143-12.328-28.867-19.578-21.843z" fill="url(#Q)"/><path d="M45.057 189.706l-4.385-3.17c-5.8 0-10.876 14.819-7.252 17.939a16.18 16.18 0 0 0 5.209.632c-1.583-2.972.658-14.572 6.428-15.401zm56.462-17.841c1.573 13.741 16.738 45.09 41.391 54.45-70.334 17.161-97.163 0-99.337-4.68s57.946-49.77 57.946-49.77z" fill="#087265"/><path d="M56.443 171.554c5.982-6.079 42.545-.94 43.842 0-5.385 26.063 22.234 57.635 50.558 52.3-29.641 26.768-87.519 49.271-119.149-4.162 10.704-10.15 21.668-20.998 24.749-48.138z" fill="url(#R)"/><path d="M145.81 112.434c-.836 2.455-7.976-7.8-3.626-17.939 2.176.78 7.896 5.415 3.626 17.939z" fill="url(#S)"/><path d="M184.757 155.286l-32.535-36.124c-2.712-10.044-4.23-17.11-8.112-17.783s-14.775-12.339-17.876-8.445c-4.351 5.461-1.7 12.175-1.7 12.175-2.191-.7-2.828 6.462-1.2 8.886s7.8 10.709 10.812 12.492 15.216 3.049 16.4 3.8c5.463 4.314 29.091 31.533 29.091 31.533z" fill="url(#T)"/><path d="M216.568 159.561c1.927 16.417-16.322 12.259-24.454 14.463s-5.843-8.583-11.755-9.485-21.131-.821-20.1-13-8.927-4.746-12.277-17.158c7.226-.208 10.747-11.9 8.949-16.6 8.946-4.746 12.328-1.885 16.877 2.63 9.136-5.267 13.637-1.835 18.566 4.641s20.926 6.648 24.194 34.509z" fill="url(#U)"/><path d="M152.337 116.335l4.591 1.45c2.659 4.79-.254 15.924-8.949 16.6-1.437-1.772-3.619-4.787-3.619-4.787s7.977-.003 7.977-13.263z" fill="#087265"/></svg>
