<svg xmlns="http://www.w3.org/2000/svg" xmlns:xlink="http://www.w3.org/1999/xlink" viewBox="0 0 178.53 555.99"><defs><style>.cls-1,.cls-55{fill:none;}.cls-2{fill:url(#Безымянный_градиент_785);}.cls-3{fill:url(#Безымянный_градиент_159);}.cls-4{fill:url(#Безымянный_градиент_925);}.cls-5{fill:url(#Безымянный_градиент_785-2);}.cls-6{fill:url(#Безымянный_градиент_1105);}.cls-7{fill:url(#Безымянный_градиент_159-2);}.cls-8{fill:url(#Безымянный_градиент_925-2);}.cls-9{fill:url(#Безымянный_градиент_785-3);}.cls-10{fill:url(#Безымянный_градиент_1105-2);}.cls-11{fill:url(#Безымянный_градиент_785-4);}.cls-12{fill:url(#Безымянный_градиент_783);}.cls-13{fill:url(#Безымянный_градиент_3);}.cls-14{fill:url(#Безымянный_градиент_856);}.cls-15{fill:url(#Безымянный_градиент_856-2);}.cls-16{fill:url(#Безымянный_градиент_785-5);}.cls-17{fill:url(#Безымянный_градиент_785-6);}.cls-18{fill:url(#Безымянный_градиент_390);}.cls-19{fill:url(#Безымянный_градиент_390-2);}.cls-20{fill:url(#Безымянный_градиент_390-3);}.cls-21{fill:url(#Безымянный_градиент_794);}.cls-22{fill:#a2aaae;}.cls-23{fill:#a9bcca;}.cls-24{fill:#d23c3e;}.cls-25{fill:url(#Безымянный_градиент_598);}.cls-26{fill:url(#Безымянный_градиент_492);}.cls-27{fill:url(#Безымянный_градиент_600);}.cls-28{fill:url(#Безымянный_градиент_159-3);}.cls-29{fill:url(#Безымянный_градиент_159-4);}.cls-30{fill:url(#Безымянный_градиент_159-5);}.cls-31{fill:url(#Безымянный_градиент_159-6);}.cls-32{fill:#fff;}.cls-33{fill:url(#Новый_образец_градиента_копия_2);}.cls-34{clip-path:url(#clip-path);}.cls-35{fill:url(#Новый_образец_градиента_копия_2-2);}.cls-36{fill:url(#Безымянный_градиент_725);}.cls-37{fill:url(#Новый_образец_градиента_копия_4);}.cls-38{fill:url(#Безымянный_градиент_140);}.cls-39{fill:#283547;}.cls-40{fill:url(#Безымянный_градиент_160);}.cls-41{fill:#e36d4f;}.cls-42{fill:url(#Безымянный_градиент_159-7);}.cls-43{fill:url(#Безымянный_градиент_738);}.cls-44{fill:url(#Новый_образец_градиента_копия_2-3);}.cls-45{fill:url(#Новый_образец_градиента_копия_2-4);}.cls-46{fill:url(#Безымянный_градиент_725-2);}.cls-47{fill:url(#Новый_образец_градиента_копия_2-5);}.cls-48{fill:url(#Новый_образец_градиента_копия_2-6);}.cls-49{fill:url(#Безымянный_градиент_140-2);}.cls-50{fill:url(#Безымянный_градиент_160-2);}.cls-51{fill:url(#Новый_образец_градиента_копия_3);}.cls-52{fill:url(#Новый_образец_градиента_копия_3-2);}.cls-53{fill:url(#Новый_образец_градиента_копия_3-3);}.cls-54{fill:url(#Безымянный_градиент_782);}.cls-55{stroke:#283547;stroke-linecap:round;stroke-miterlimit:10;stroke-width:1.31px;}.cls-56{fill:url(#Безымянный_градиент_159-8);}.cls-57{fill:url(#Безымянный_градиент_785-7);}.cls-58{fill:url(#Безымянный_градиент_785-8);}.cls-59{fill:url(#Безымянный_градиент_785-9);}.cls-60{fill:url(#Безымянный_градиент_785-10);}.cls-61{fill:url(#Безымянный_градиент_925-3);}</style><linearGradient id="Безымянный_градиент_785" x1="16.2" y1="185.88" x2="31.54" y2="316.59" gradientUnits="userSpaceOnUse"><stop offset="0" stop-color="#694538"/><stop offset="1" stop-color="#1c1007"/></linearGradient><linearGradient id="Безымянный_градиент_159" x1="51.22" y1="528.88" x2="50.56" y2="503.02" gradientUnits="userSpaceOnUse"><stop offset="0.64" stop-color="#ffd7a5"/><stop offset="1" stop-color="#faa96c"/></linearGradient><linearGradient id="Безымянный_градиент_925" x1="69.89" y1="553.02" x2="29.71" y2="529.68" gradientUnits="userSpaceOnUse"><stop offset="0.22" stop-color="#694538"/><stop offset="1" stop-color="#af6737"/></linearGradient><linearGradient id="Безымянный_градиент_785-2" x1="12.12" y1="554.02" x2="91.21" y2="550.58" xlink:href="#Безымянный_градиент_785"/><linearGradient id="Безымянный_градиент_1105" x1="57.65" y1="270.32" x2="70.75" y2="491.13" gradientUnits="userSpaceOnUse"><stop offset="0" stop-color="#5da7c7"/><stop offset="1" stop-color="#374b6b"/></linearGradient><linearGradient id="Безымянный_градиент_159-2" x1="101.5" y1="528.88" x2="100.84" y2="503.02" xlink:href="#Безымянный_градиент_159"/><linearGradient id="Безымянный_градиент_925-2" x1="120.17" y1="553.02" x2="79.99" y2="529.68" xlink:href="#Безымянный_градиент_925"/><linearGradient id="Безымянный_градиент_785-3" x1="62.4" y1="554.02" x2="141.49" y2="550.58" xlink:href="#Безымянный_градиент_785"/><linearGradient id="Безымянный_градиент_1105-2" x1="97" y1="328.85" x2="137.39" y2="646.77" xlink:href="#Безымянный_градиент_1105"/><linearGradient id="Безымянный_градиент_785-4" x1="-22.21" y1="157.12" x2="50.32" y2="205.14" xlink:href="#Безымянный_градиент_785"/><linearGradient id="Безымянный_градиент_783" x1="83.37" y1="174.05" x2="80.05" y2="133.12" gradientUnits="userSpaceOnUse"><stop offset="0.46" stop-color="#fabb80"/><stop offset="1" stop-color="#faa16c"/></linearGradient><linearGradient id="Безымянный_градиент_3" x1="90.24" y1="174.43" x2="77.39" y2="293.02" gradientUnits="userSpaceOnUse"><stop offset="0.33" stop-color="#faf8eb"/><stop offset="0.57" stop-color="#f3efde"/><stop offset="0.96" stop-color="#e3dac1"/></linearGradient><linearGradient id="Безымянный_градиент_856" x1="116.23" y1="175.71" x2="84.11" y2="280.42" gradientUnits="userSpaceOnUse"><stop offset="0" stop-color="#69abbf"/><stop offset="0.24" stop-color="#679bae"/><stop offset="0.7" stop-color="#617382"/><stop offset="0.88" stop-color="#5f616f"/></linearGradient><linearGradient id="Безымянный_градиент_856-2" x1="858.6" y1="-393.67" x2="828.23" y2="-294.66" gradientTransform="translate(-717.7 717.24) rotate(-10.6)" xlink:href="#Безымянный_градиент_856"/><linearGradient id="Безымянный_градиент_785-5" x1="114.68" y1="210.3" x2="155.01" y2="527.74" xlink:href="#Безымянный_градиент_785"/><linearGradient id="Безымянный_градиент_785-6" x1="22.35" y1="209.23" x2="61.56" y2="517.84" xlink:href="#Безымянный_градиент_785"/><linearGradient id="Безымянный_градиент_390" x1="33.69" y1="194.84" x2="62.14" y2="194.84" gradientUnits="userSpaceOnUse"><stop offset="0" stop-color="#ff4541"/><stop offset="1" stop-color="#a64444"/></linearGradient><linearGradient id="Безымянный_градиент_390-2" x1="49.11" y1="177.3" x2="113.63" y2="160.46" xlink:href="#Безымянный_градиент_390"/><linearGradient id="Безымянный_градиент_390-3" x1="57.62" y1="140.7" x2="70.96" y2="177.38" xlink:href="#Безымянный_градиент_390"/><linearGradient id="Безымянный_градиент_794" x1="107.37" y1="440.04" x2="110.24" y2="503.09" gradientTransform="translate(-363.1 65.76) rotate(-61.68)" gradientUnits="userSpaceOnUse"><stop offset="0" stop-color="#fff5f5"/><stop offset="1" stop-color="#c6d9db"/></linearGradient><linearGradient id="Безымянный_градиент_598" x1="107.4" y1="441.68" x2="109.6" y2="489.93" gradientTransform="translate(-7.17 -276.49)" gradientUnits="userSpaceOnUse"><stop offset="0" stop-color="#ddf5f5" stop-opacity="0"/><stop offset="1" stop-color="#fafff5" stop-opacity="0.4"/></linearGradient><linearGradient id="Безымянный_градиент_492" x1="106.91" y1="510.88" x2="110.22" y2="515.26" gradientTransform="translate(-363.1 65.76) rotate(-61.68)" gradientUnits="userSpaceOnUse"><stop offset="0" stop-color="#5d7d91"/><stop offset="1" stop-color="#374b6b"/></linearGradient><linearGradient id="Безымянный_градиент_600" x1="103.4" y1="438.7" x2="108.67" y2="445.68" gradientTransform="translate(-158.52 -207.42) rotate(-17.64)" gradientUnits="userSpaceOnUse"><stop offset="0" stop-color="#ddf5f5" stop-opacity="0"/><stop offset="1" stop-color="#faffff" stop-opacity="0.5"/></linearGradient><linearGradient id="Безымянный_градиент_159-3" x1="78.3" y1="28.82" x2="78.96" y2="100.62" xlink:href="#Безымянный_градиент_159"/><linearGradient id="Безымянный_градиент_159-4" x1="71.69" y1="75.23" x2="82.8" y2="30.66" xlink:href="#Безымянный_градиент_159"/><linearGradient id="Безымянный_градиент_159-5" x1="67.01" y1="66.69" x2="69.35" y2="49.35" xlink:href="#Безымянный_градиент_159"/><linearGradient id="Безымянный_градиент_159-6" x1="141.11" y1="51.63" x2="123.78" y2="84.31" xlink:href="#Безымянный_градиент_159"/><linearGradient id="Новый_образец_градиента_копия_2" x1="62.14" y1="57.63" x2="72.91" y2="57.63" gradientTransform="matrix(1, 0, 0, 1, 0, 0)" xlink:href="#Безымянный_градиент_492"/><clipPath id="clip-path"><path class="cls-1" d="M71.94,64.16c1.3-8.49.65-11.75-3.27-11.75s-5.87,7.83-6.53,11.1A5.58,5.58,0,0,0,71.94,64.16Z"/></clipPath><linearGradient id="Новый_образец_градиента_копия_2-2" x1="65.12" y1="61.93" x2="74.81" y2="61.93" gradientTransform="matrix(1, 0, 0, 1, 0, 0)" xlink:href="#Безымянный_градиент_492"/><linearGradient id="Безымянный_градиент_725" x1="210.84" y1="-45.99" x2="211.01" y2="-52.66" gradientTransform="translate(-138.93 119.74) rotate(-2.18)" gradientUnits="userSpaceOnUse"><stop offset="0" stop-color="#ddf5f5" stop-opacity="0.4"/><stop offset="1" stop-color="#c6d9db" stop-opacity="0"/></linearGradient><linearGradient id="Новый_образец_градиента_копия_4" x1="152.5" y1="62.96" x2="133.27" y2="68.96" gradientUnits="userSpaceOnUse"><stop offset="0.64" stop-color="#fabb80"/><stop offset="1" stop-color="#faa96c"/></linearGradient><linearGradient id="Безымянный_градиент_140" x1="51.03" y1="56.13" x2="53.34" y2="65.96" gradientUnits="userSpaceOnUse"><stop offset="0" stop-color="#fff" stop-opacity="0"/><stop offset="1" stop-color="#e4e9eb"/></linearGradient><linearGradient id="Безымянный_градиент_160" x1="711.79" y1="-6497.97" x2="715.02" y2="-6491.05" gradientTransform="matrix(-0.34, 0.23, 0.19, 0.42, 1513.61, 2637.61)" gradientUnits="userSpaceOnUse"><stop offset="0" stop-color="#fff" stop-opacity="0.2"/><stop offset="1" stop-color="#fff"/></linearGradient><linearGradient id="Безымянный_градиент_159-7" x1="96.96" y1="70.72" x2="99.29" y2="53.38" xlink:href="#Безымянный_градиент_159"/><linearGradient id="Безымянный_градиент_738" x1="56.23" y1="55.75" x2="49.01" y2="78.83" gradientUnits="userSpaceOnUse"><stop offset="0.64" stop-color="#fabb80"/><stop offset="1" stop-color="#faa16c"/></linearGradient><linearGradient id="Новый_образец_градиента_копия_2-3" x1="90.87" y1="58.28" x2="105.24" y2="58.28" gradientTransform="matrix(1, 0, 0, 1, 0, 0)" xlink:href="#Безымянный_градиент_492"/><linearGradient id="Новый_образец_градиента_копия_2-4" x1="93.85" y1="62.59" x2="103.54" y2="62.59" gradientTransform="matrix(1, 0, 0, 1, 0, 0)" xlink:href="#Безымянный_градиент_492"/><linearGradient id="Безымянный_градиент_725-2" x1="239.53" y1="-44.25" x2="239.7" y2="-50.92" xlink:href="#Безымянный_градиент_725"/><linearGradient id="Новый_образец_градиента_копия_2-5" x1="97.34" y1="49.51" x2="97.92" y2="42.5" gradientTransform="matrix(1, 0, 0, 1, 0, 0)" xlink:href="#Безымянный_градиент_492"/><linearGradient id="Новый_образец_градиента_копия_2-6" x1="71.1" y1="50.77" x2="71.6" y2="44.66" gradientTransform="matrix(1, 0, 0, 1, 0, 0)" xlink:href="#Безымянный_градиент_492"/><linearGradient id="Безымянный_градиент_140-2" x1="78.15" y1="58.66" x2="80.82" y2="70" xlink:href="#Безымянный_градиент_140"/><linearGradient id="Безымянный_градиент_160-2" x1="674.8" y1="-6443.64" x2="678.52" y2="-6435.66" gradientTransform="matrix(-0.34, 0.23, 0.19, 0.42, 1517.72, 2625.84)" xlink:href="#Безымянный_градиент_160"/><linearGradient id="Новый_образец_градиента_копия_3" x1="66.29" y1="93.85" x2="63.78" y2="141.69" gradientUnits="userSpaceOnUse"><stop offset="0" stop-color="#ddf5f5"/><stop offset="1" stop-color="#c6d9db"/></linearGradient><linearGradient id="Новый_образец_градиента_копия_3-2" x1="95.29" y1="120.5" x2="84.46" y2="140.67" xlink:href="#Новый_образец_градиента_копия_3"/><linearGradient id="Новый_образец_градиента_копия_3-3" x1="40.21" y1="109.88" x2="39.32" y2="157.01" xlink:href="#Новый_образец_градиента_копия_3"/><linearGradient id="Безымянный_градиент_782" x1="118.86" y1="104.66" x2="117.53" y2="130.44" gradientUnits="userSpaceOnUse"><stop offset="0.44" stop-color="#ddf5f5"/><stop offset="1" stop-color="#c6d9db"/></linearGradient><linearGradient id="Безымянный_градиент_159-8" x1="5.26" y1="187.82" x2="27.61" y2="118.47" xlink:href="#Безымянный_градиент_159"/><linearGradient id="Безымянный_градиент_785-7" x1="0.29" y1="125.91" x2="20.29" y2="228.45" xlink:href="#Безымянный_градиент_785"/><linearGradient id="Безымянный_градиент_785-8" x1="-951.86" y1="-913.51" x2="-949.5" y2="-894.93" gradientTransform="matrix(0.82, 0.04, -0.04, 0.77, 851.4, 741.66)" xlink:href="#Безымянный_градиент_785"/><linearGradient id="Безымянный_градиент_785-9" x1="-64.43" y1="-1978.26" x2="-58.83" y2="-1934.17" gradientTransform="matrix(1, 0.05, -0.03, 0.63, 110.52, 1271.8)" xlink:href="#Безымянный_градиент_785"/><linearGradient id="Безымянный_градиент_785-10" x1="-951.03" y1="-901.49" x2="-945.06" y2="-854.55" gradientTransform="matrix(0.82, 0.04, -0.04, 0.77, 851.4, 741.66)" xlink:href="#Безымянный_градиент_785"/><linearGradient id="Безымянный_градиент_925-3" x1="-950.77" y1="-888.26" x2="-947.23" y2="-860.37" gradientTransform="matrix(0.82, 0.04, -0.04, 0.77, 851.4, 741.66)" xlink:href="#Безымянный_градиент_925"/></defs><g id="Слой_2" data-name="Слой 2"><g id="Слой_2-2" data-name="Слой 2"><polygon class="cls-2" points="28.48 239.96 20.48 395.36 61.48 398.61 38.82 243.41 28.48 239.96"/><path class="cls-3" d="M65.41,474.9c.65,23.5,7.18,63.34,7.18,67.25-9.14.66-30.69,5.23-37.22,3.92S15.78,541.5,21,550.64c15.68,0,62.69,1.31,62.69,1.31,0-11.75-7.18-58.12-5.22-74.44S65.41,474.9,65.41,474.9Z"/><path class="cls-4" d="M87,550.64l-2.62-17-16.32-2-2,6.36a153.11,153.11,0,0,1-26.77,6.7c-11.1-5.23-22.3-5.65-23.51-2.62a8.82,8.82,0,0,0,0,7.19c2.66.26,14.43,4.35,28.08,4.57C63.72,554.23,87,550.64,87,550.64Z"/><path class="cls-5" d="M88.5,555.87c1.07-2.61,0-7.57,0-7.57s-45.95,7.57-72.72.38c-1.31,2.62-1.29,2.4-.65,2.62C32.76,557.17,51,555.87,88.5,555.87Z"/><path class="cls-6" d="M32.76,276.39C41.9,339.07,48,372.67,50.19,393.74s2.16,90.95,3.46,134c16.33,3.92,44.41,2,44.41,2C90.87,483.39,81.5,347,85.21,315.62S32.76,276.39,32.76,276.39Z"/><path class="cls-7" d="M115.69,474.9c.65,23.5,7.18,63.34,7.18,67.25-9.14.66-30.69,5.23-37.22,3.92s-19.59-4.57-14.37,4.57C87,550.64,134,552,134,552c0-11.75-7.18-58.12-5.22-74.44S115.69,474.9,115.69,474.9Z"/><path class="cls-8" d="M137.24,550.64l-2.61-17-16.33-2-2,6.36a153.11,153.11,0,0,1-26.77,6.7c-11.1-5.23-22.3-5.65-23.51-2.62a8.82,8.82,0,0,0,0,7.19c2.66.26,14.43,4.35,28.08,4.57C114,554.23,137.24,550.64,137.24,550.64Z"/><path class="cls-9" d="M138.78,555.87c1.07-2.61,0-7.57,0-7.57s-45.95,7.57-72.72.38c-1.31,2.62-1.29,2.4-.65,2.62C83,557.17,101.32,555.87,138.78,555.87Z"/><path class="cls-10" d="M133.58,275.22c10.84,33.16-2.35,85.71,0,117.88s12.8,124.24,12.15,137.3c-28.08.65-43.75-3.26-43.75-3.26-.66-61.39-7.23-123.86-12.11-141.6S47.93,316.22,47.53,290.1,133.58,275.22,133.58,275.22Z"/><path class="cls-11" d="M52.71,159.89C48.14,161.57,17,192.05,9.43,203.8s-9.25,18.74-.86,18.84,34.55-30.1,40.12-38.95S52.71,159.89,52.71,159.89Z"/><path class="cls-12" d="M109.16,108.56c-3.27,13.06-12.41,35.27-1.31,44.41-15,18.94-34.61,38.53-50.93,28.73s15-48.6,15-48.6Z"/><path class="cls-13" d="M110.46,153.62c15,8.49,25.21,23.36,26.32,30.94s-12,65.71-15.87,72.24c9.8,9.14,20.25,13.06,11.1,28.07C111.12,309,64.1,304.46,44.51,294s-22.85-17.63-20.24-26.78,10.45-27.42,10.45-27.42c.65-22.86,8.49-65.3,11.75-71.83s12.41-17,12.41-17C52,172.43,72.59,200.64,110.46,153.62Z"/><path class="cls-14" d="M118.3,160.15C104.59,186.27,65.41,284.22,92.18,302.5c-2.79,1.76-7.64,0-7.64,0-17.17-19.56-.76-87.54,29.19-145.59C114.85,158.33,118.3,160.15,118.3,160.15Z"/><path class="cls-15" d="M56.27,156.23C43.21,236.55,30.15,287.49,49.08,296a13,13,0,0,1-7.18-2.61c-16.33-13.06-3-57.45,9.79-133.21C54.54,157.55,56.27,156.23,56.27,156.23Z"/><path class="cls-16" d="M111.77,153C91.53,212.39,92.89,293.66,98.06,323.4s4,91.19,4,91.19c30.64,2.84,69.47-4.38,76.5-5.67-18.59-49.59-30.84-111.64-41.68-136.1-6.75-15.23-9-32.59-8.55-48.8s14-36.25,5.28-49.73A75.66,75.66,0,0,0,111.77,153Z"/><path class="cls-17" d="M61.48,148.16C53,176.06,41.9,193.45,34.72,239.82c-3.5,22.54-6,40.72-3.27,67.91S37.33,404.86,36,408.86c-17.63,4.08-35.35-1.2-35.35-1.2C11.21,378.91,17.74,288.79,19.05,269.2S31.43,166.86,61.48,148.16Z"/><path class="cls-18" d="M52.35,156.89s-17.08,67.17-18.66,81.9c3,6.25,10.82-1.58,14.09,2.33,5.87-60.07,8-78.36,14.36-92.72C58.55,147.74,52.35,156.89,52.35,156.89Z"/><path class="cls-19" d="M54.63,153.81c-1,33.77,22.53,37.64,54.53-3.15,5.22-3.57,6.23,4.77,6.23,4.77-1.66,13.21-70.16,77.33-62.68,4.46C53,155.58,54.63,153.81,54.63,153.81Z"/><path class="cls-20" d="M56.27,150.83c2.65,3.38,5.36,29.81,27.49,24.46-10.59,6.94-28.43,11.49-31.55-16.19S55.61,150,56.27,150.83Z"/><path class="cls-21" d="M73.35,187.13l46.74,25.19a10.53,10.53,0,0,0,7.74.9l1.66-.44a7,7,0,0,1,5.15.6l5.9,3.17a2.45,2.45,0,0,0,3.33-1h0a2.46,2.46,0,0,0-1-3.33L137,209.05a7.06,7.06,0,0,1-3.34-4l-.54-1.63a10.52,10.52,0,0,0-5-6L81.36,172.28a7,7,0,0,0-9.52,2.85l-1.34,2.48A7,7,0,0,0,73.35,187.13Z"/><path class="cls-22" d="M126.69,201.5l-4,7.43a.36.36,0,0,1-.48.14.35.35,0,0,1-.14-.47l4-7.43a.36.36,0,0,1,.48-.14A.35.35,0,0,1,126.69,201.5Z"/><path class="cls-22" d="M119.26,197.5l-4,7.43a.35.35,0,0,1-.47.14.36.36,0,0,1-.15-.48l4-7.42a.35.35,0,0,1,.61.33Z"/><path class="cls-22" d="M111.84,193.5l-4,7.43a.35.35,0,0,1-.62-.34l4-7.42a.35.35,0,0,1,.62.33Z"/><path class="cls-22" d="M104.42,189.5l-4,7.42a.34.34,0,0,1-.47.15.36.36,0,0,1-.15-.48l4-7.42a.35.35,0,0,1,.47-.15A.36.36,0,0,1,104.42,189.5Z"/><path class="cls-22" d="M97,185.5l-4,7.42a.35.35,0,1,1-.62-.33l4-7.43a.35.35,0,1,1,.62.34Z"/><path class="cls-22" d="M89.57,181.5l-4,7.42a.35.35,0,1,1-.61-.33l4-7.43a.35.35,0,0,1,.47-.14A.36.36,0,0,1,89.57,181.5Z"/><path class="cls-22" d="M82.14,177.49l-4,7.43a.36.36,0,0,1-.48.14.35.35,0,0,1-.14-.47l4-7.43A.36.36,0,0,1,82,177,.35.35,0,0,1,82.14,177.49Z"/><rect class="cls-23" x="106.73" y="161.68" width="2.81" height="69.23" rx="1.41" transform="translate(-115.96 198.36) rotate(-61.68)"/><rect class="cls-24" x="116.01" y="175.47" width="2.81" height="51.66" rx="1.21" transform="translate(-115.49 209.16) rotate(-61.68)"/><rect class="cls-25" x="95.86" y="161.08" width="11.25" height="63.26" rx="5.62" transform="translate(-116.3 190.62) rotate(-61.68)"/><path class="cls-26" d="M139.16,210.22l3.71,2a2.46,2.46,0,0,1,1,3.33h0a2.45,2.45,0,0,1-3.33,1l-3.72-2"/><ellipse class="cls-27" cx="76.96" cy="182.13" rx="5.24" ry="6.83" transform="translate(-104.97 104.69) rotate(-44.04)"/><path class="cls-28" d="M122.87,20.41c11,1.61,0,56.81,2,71.18-26.77,35.26-95.5,11.1-95.42,0S64.68,41,77.78,40.18C80.47,27.41,91.53,15.84,122.87,20.41Z"/><path class="cls-29" d="M113.73,65.47c4.32-10.56,2-39.18-28.73-25.47-5.88,0-14.49-5.86-44.8,30.37-16.2,11.74-14,27,5.62,26.72S107.85,79.83,113.73,65.47Z"/><path class="cls-30" d="M74.55,45.88c3.8.21-.67,15.13-1.64,16.71S64,70,61.78,64.81,62.8,45.22,74.55,45.88Z"/><path class="cls-31" d="M119,68.73c.25-4,10.45-15.67,24.82-7.83,11.82,6.44-13.72,19.59-17.63,20.89S118.3,79.18,119,68.73Z"/><path class="cls-32" d="M71.94,64.16c1.3-8.49.65-11.75-3.27-11.75s-5.87,7.83-6.53,11.1A5.58,5.58,0,0,0,71.94,64.16Z"/><path class="cls-33" d="M62.14,63.51c.66-11.1,5.23-12.41,7.19-12.41s5.22,2,2.61,13.06c.65-10.45-1.31-11.75-3.27-11.75S63.45,55.67,62.14,63.51Z"/><g class="cls-34"><circle class="cls-35" cx="69.97" cy="61.93" r="4.84"/><path class="cls-36" d="M74,61.78A4,4,0,1,1,69.81,58,4,4,0,0,1,74,61.78Z"/><circle class="cls-32" cx="66.33" cy="59.73" r="1.62"/></g><path class="cls-37" d="M123.52,68.73c6.53-1.3,8.49,2.61,7.19,5.88,7.18-5.88,10.45-7.84,9.85-9.9C139.52,61.11,125.48,66.12,123.52,68.73Z"/><ellipse class="cls-38" cx="52.15" cy="60.9" rx="6.51" ry="6.79"/><path class="cls-39" d="M52.43,52.41c-4.53,0-7.92,3.76-7.92,8.49s3.39,8.49,7.92,8.49,7.93-3.76,7.93-8.49S57,52.41,52.43,52.41Zm-.28,15.28a6.8,6.8,0,1,1,6.51-6.79A6.66,6.66,0,0,1,52.15,67.69Z"/><ellipse class="cls-40" cx="50" cy="58.01" rx="2.91" ry="2.15" transform="translate(-20.68 28.52) rotate(-26.59)"/><path class="cls-41" d="M51,76.57c-.65,3.26-3.92,7.83-4.57,8.49,4.57,2,15,2,16.33,2-5.23,0-13.06-2.62-13.06-2.62.65-2,2.61-6.53,2.61-7.83S51,76.57,51,76.57Z"/><path class="cls-42" d="M90.37,64.81c-.15-11.75.5-22.85,9.65-20.24s7.17,14.37,6.19,19.59S90.53,72.65,90.37,64.81Z"/><path class="cls-43" d="M75.86,60.24c-1.82-2.71-3.92,3.27-9.15,3.92S31.05,59.53,29,69s21.43,12.11,31.22,8.84c4.57,4.57,13,2.62,13-3.26S77.16,62.2,75.86,60.24Z"/><path class="cls-32" d="M90.87,64.81c1.31-10.44,4.58-11.75,8.49-11.75s5.88,6.53,5.88,11.1C100.67,72,90.22,72.65,90.87,64.81Z"/><path class="cls-44" d="M105.24,64.16c0-11.1-3.26-12.41-6.53-12.41s-7.84,2.62-7.84,13.06c1.31-9.14,4.58-10.93,7.19-11S104.59,55,105.24,64.16Z"/><circle class="cls-45" cx="98.7" cy="62.59" r="4.84"/><path class="cls-46" d="M102.68,62.43a4,4,0,1,1-4.13-3.83A4,4,0,0,1,102.68,62.43Z"/><circle class="cls-32" cx="95.06" cy="60.39" r="1.62"/><path class="cls-47" d="M88.92,42.61c-.66,3.27,1.87,7.7,2.56,7.44,2-3.12,9.31-5.76,14.8.58-2.08-7.55-9-10.49-12.84-9.25a5.15,5.15,0,0,0-1.26,3.19L91.53,42Z"/><path class="cls-48" d="M78.62,44.19c-.15,1-2,6.91-2.69,6.91-.8-2.61-4.67-7.83-11.84,0,2.63-5.22,7.86-7.3,11.45-6.91,1.29.77,1,1.68,1,1.68l.58-1.73Z"/><ellipse class="cls-49" cx="79.45" cy="64.16" rx="7.51" ry="7.84"/><path class="cls-39" d="M79.77,54.37c-5.23,0-9.14,4.33-9.14,9.79S74.54,74,79.77,74s9.15-4.34,9.15-9.8S85,54.37,79.77,54.37ZM79.45,72A7.84,7.84,0,1,1,87,64.16,7.68,7.68,0,0,1,79.45,72Z"/><ellipse class="cls-50" cx="76.96" cy="60.83" rx="3.36" ry="2.48" transform="translate(-19.09 40.89) rotate(-26.59)"/><path class="cls-39" d="M59.6,60.39c2.07-2.76,10.08-2.11,11.68.51v1.52c-3.73-2.83-8.41-3.15-11.68-.7A3,3,0,0,1,59.6,60.39Z"/><path class="cls-51" d="M35.37,78.53c-4.72,14.52,14.87,20.71,49,8.49,7.84-3.27,20.9-5,20.9-5,1.31,1.07,1,8.45,1,8.45,1.57-1.51,4.84-10,4.84-12,1.3-3.92,5.6-6.53,5.6-6.53.93,4.57,3.86,12.19,8,11.64,6.86,2.83,5.52,35.6,3.17,42a43.66,43.66,0,0,1-20.75,11.91,19.81,19.81,0,0,0-.81-11.57c-3,11.31-12.81,25.8-42.19,28.67,3.94-4,5.72-10.19,4.5-13.78-5.06,11.77-22.77,23.84-24.08,36.25-17-15-41.79-41.79-39.83-56.16a57.83,57.83,0,0,0-3.92,5.88C.11,107.91,2.38,80.57,35.37,78.53Z"/><path class="cls-52" d="M103.54,103c3,12.11,5.07,35.15-25.35,45.18,5.12-7.36,8.77-15.43,9.42-18-3.27,6.53-11.22,11.34-11.49,11.55.78-7.42,3.65-16,10.84-26.18.65,5.1,0,6.8,0,6.8C90.87,118.36,97.27,115,103.54,103Z"/><path class="cls-53" d="M41.25,98.77c-13.06,5.88-20.9,22.85-20.25,33.3-5.87-6.53-7.83-18.93-7.83-20.24-3.92,13.06-3.27,28.08,20.24,48.32,9.8-7.18,27.91-16.32,35.18-37.87a31.67,31.67,0,0,1-16.16,8.21c2.53-5,1.22-12.13,1.22-12.13-3.91,2.61-9.79,3.92-11.1,5.22C39.29,115.09,39.29,105.3,41.25,98.77Z"/><path class="cls-54" d="M118.88,85.52c7.26,5.41,9.66,29-1.66,40.05-5-10.5-4.45-22.59-4.45-22.59a8.08,8.08,0,0,1,4.22,5.58C118.3,101.38,116.85,89.25,118.88,85.52Z"/><path class="cls-55" d="M105.24,148.16c-1.31,14.6-4.57,40.07-12.41,40.07-13.31,0-4.8-104.16-4.8-121.3"/><path class="cls-56" d="M8.1,183c3.11-12.38,6.67-32,6.67-32-3.56-5.88-7.66-16.24-1.36-24.12S27.7,112.43,29.9,115.72s-7.68,7.35-10.9,12.5a29.77,29.77,0,0,1,7.88.59s5.22,11.75,5.22,13.71-8.48,12.41-9.79,15-6.07,35-6.07,35Z"/><path class="cls-57" d="M23.83,157.33c-.3,9.66-6.5,50.12-7.76,55.86S1.17,229.31.06,213s12.46-61.36,12.46-61.36Z"/><path class="cls-58" d="M122.25,8.16C116.57-.09,102-.8,99.57.53s-7,4.1-8.88,6.81C91.23,13,118.41,12.55,122.25,8.16Z"/><path class="cls-59" d="M105.93,25.77c-21-2.71-47.69-3-49.45,3S83.14,42.16,108,44.15c27.65,2.22,44,.65,44.25-4.45S126.25,28.4,105.93,25.77Z"/><path class="cls-60" d="M82.7,25.17c1.65-9.62,7.43-16.78,8.75-19,.37,5.15,5.33,2.53,7.8,1.5s28.07-4.42,30.86.85-.48,24.88-.48,24.88C117.15,34.94,90,32.3,82.7,25.17Z"/><path class="cls-61" d="M84.17,19.53c5.2,6.81,28.35,11.44,46.28,7.85a30.94,30.94,0,0,0-.08,5.83c-9.91,3.72-41,.41-48.06-8.07A44.54,44.54,0,0,1,84.17,19.53Z"/></g></g></svg>