<svg xmlns="http://www.w3.org/2000/svg" xmlns:xlink="http://www.w3.org/1999/xlink" viewBox="0 0 171.9 488.73"><defs><style>.cls-1,.cls-17{fill:none;}.cls-2{fill:url(#Безымянный_градиент_3070);}.cls-3{fill:url(#Безымянный_градиент_3070-2);}.cls-4{fill:url(#Безымянный_градиент_3070-3);}.cls-5{fill:url(#Безымянный_градиент_1700);}.cls-6{fill:url(#Безымянный_градиент_1785);}.cls-7{fill:url(#Безымянный_градиент_873);}.cls-8{fill:url(#Безымянный_градиент_322);}.cls-9{fill:url(#Безымянный_градиент_1724);}.cls-10{fill:url(#Безымянный_градиент_1724-2);}.cls-11{fill:url(#Безымянный_градиент_1578);}.cls-12{fill:url(#Безымянный_градиент_322-2);}.cls-13{fill:url(#Безымянный_градиент_1724-3);}.cls-14{fill:url(#Безымянный_градиент_1724-4);}.cls-15{fill:url(#Безымянный_градиент_1578-2);}.cls-16{fill:url(#Безымянный_градиент_1300);}.cls-17{stroke-miterlimit:10;stroke-width:1.31px;stroke:url(#Безымянный_градиент_1490);}.cls-18{fill:url(#Безымянный_градиент_1300-2);}.cls-19{fill:url(#Новый_образец_градиента_копия_2);}.cls-20{fill:url(#Безымянный_градиент_1300-3);}.cls-21{fill:url(#Новый_образец_градиента_копия_2-2);}.cls-22{opacity:0.5;}.cls-23{clip-path:url(#clip-path);}.cls-24{fill:url(#Новый_образец_градиента_копия_3);}.cls-25{fill:url(#Новый_образец_градиента_копия_3-2);}.cls-26{fill:url(#Новый_образец_градиента_копия_3-3);}.cls-27{fill:url(#Новый_образец_градиента_копия_3-4);}.cls-28{fill:url(#Новый_образец_градиента_копия_3-5);}.cls-29{fill:url(#Новый_образец_градиента_копия_3-6);}.cls-30{fill:url(#Новый_образец_градиента_копия_3-7);}.cls-31{fill:url(#Новый_образец_градиента_копия_3-8);}.cls-32{fill:url(#Новый_образец_градиента_копия_3-9);}.cls-33{fill:url(#Безымянный_градиент_159);}.cls-34{fill:url(#Безымянный_градиент_1725);}.cls-35{fill:url(#Безымянный_градиент_1562);}.cls-36{fill:url(#Безымянный_градиент_1562-2);}.cls-37{fill:url(#Безымянный_градиент_1562-3);}.cls-38{fill:url(#Безымянный_градиент_1562-4);}.cls-39{fill:url(#Безымянный_градиент_1562-5);}.cls-40{fill:url(#Безымянный_градиент_1562-6);}.cls-41{fill:url(#Безымянный_градиент_1562-7);}.cls-42{fill:url(#Безымянный_градиент_322-3);}.cls-43{fill:url(#Безымянный_градиент_1785-2);}.cls-44{fill:url(#Безымянный_градиент_1785-3);}</style><linearGradient id="Безымянный_градиент_3070" x1="2640.24" y1="-347.05" x2="2640.24" y2="-253.55" gradientTransform="translate(-2114.05 1871.49) rotate(-28.99)" gradientUnits="userSpaceOnUse"><stop offset="0" stop-color="#5d7d91"/><stop offset="1" stop-color="#170f1f"/></linearGradient><linearGradient id="Безымянный_градиент_3070-2" x1="2364.61" y1="-318.81" x2="2363.85" y2="-264.52" gradientTransform="matrix(-0.87, 0.48, 0.48, 0.87, 2263.58, -553.9)" xlink:href="#Безымянный_градиент_3070"/><linearGradient id="Безымянный_градиент_3070-3" x1="2640.14" y1="-307.57" x2="2640.33" y2="-293.69" gradientTransform="translate(-2590.28 629.55)" xlink:href="#Безымянный_градиент_3070"/><linearGradient id="Безымянный_градиент_1700" x1="104.13" y1="26.4" x2="98.46" y2="169.12" gradientUnits="userSpaceOnUse"><stop offset="0" stop-color="#bb9bb7"/><stop offset="0.67" stop-color="#5f4d5f"/></linearGradient><linearGradient id="Безымянный_градиент_1785" x1="91.94" y1="136.85" x2="109.72" y2="15.03" gradientUnits="userSpaceOnUse"><stop offset="0.22" stop-color="#5f89bf"/><stop offset="1" stop-color="#183773"/></linearGradient><linearGradient id="Безымянный_градиент_873" x1="103.09" y1="57.9" x2="105.25" y2="13.55" gradientUnits="userSpaceOnUse"><stop offset="0.37" stop-color="#fabb80"/><stop offset="0.83" stop-color="#faa16c"/></linearGradient><linearGradient id="Безымянный_градиент_322" x1="65.47" y1="465.75" x2="85.48" y2="485.09" gradientUnits="userSpaceOnUse"><stop offset="0" stop-color="#6d515b"/><stop offset="1" stop-color="#1b2139"/></linearGradient><linearGradient id="Безымянный_градиент_1724" x1="71.23" y1="465.2" x2="86.91" y2="480.54" gradientUnits="userSpaceOnUse"><stop offset="0.32" stop-color="#fff" stop-opacity="0"/><stop offset="0.39" stop-color="#fdfdfc" stop-opacity="0.06"/><stop offset="0.51" stop-color="#f9f7f2" stop-opacity="0.2"/><stop offset="0.67" stop-color="#f3eee3" stop-opacity="0.45"/><stop offset="0.87" stop-color="#e9e2cf" stop-opacity="0.78"/><stop offset="1" stop-color="#e3dac1"/></linearGradient><linearGradient id="Безымянный_градиент_1724-2" x1="65.93" y1="470.62" x2="81.6" y2="485.96" xlink:href="#Безымянный_градиент_1724"/><linearGradient id="Безымянный_градиент_1578" x1="77.11" y1="197.84" x2="96.62" y2="410.41" gradientUnits="userSpaceOnUse"><stop offset="0" stop-color="#5d7dbf"/><stop offset="1" stop-color="#374b6b"/></linearGradient><linearGradient id="Безымянный_градиент_322-2" x1="108.41" y1="469.06" x2="180.77" y2="498.07" xlink:href="#Безымянный_градиент_322"/><linearGradient id="Безымянный_градиент_1724-3" x1="127.79" y1="464.4" x2="139.46" y2="479.4" xlink:href="#Безымянный_градиент_1724"/><linearGradient id="Безымянный_градиент_1724-4" x1="121.69" y1="469.14" x2="133.36" y2="484.15" xlink:href="#Безымянный_градиент_1724"/><linearGradient id="Безымянный_градиент_1578-2" x1="104.83" y1="238.22" x2="136.84" y2="430.78" xlink:href="#Безымянный_градиент_1578"/><linearGradient id="Безымянный_градиент_1300" x1="113.07" y1="47.64" x2="101.07" y2="238.7" gradientUnits="userSpaceOnUse"><stop offset="0" stop-color="#ffffb5"/><stop offset="1" stop-color="#f1c15f"/></linearGradient><linearGradient id="Безымянный_градиент_1490" x1="77.31" y1="191.28" x2="88.8" y2="191.28" gradientUnits="userSpaceOnUse"><stop offset="0" stop-color="#e2ba7d"/><stop offset="1" stop-color="#f1d579"/></linearGradient><linearGradient id="Безымянный_градиент_1300-2" x1="113.9" y1="29.51" x2="111.47" y2="68.29" xlink:href="#Безымянный_градиент_1300"/><linearGradient id="Новый_образец_градиента_копия_2" x1="95.71" y1="60.33" x2="83.37" y2="175.7" gradientUnits="userSpaceOnUse"><stop offset="0" stop-color="#5d7d91"/><stop offset="1" stop-color="#374b6b"/></linearGradient><linearGradient id="Безымянный_градиент_1300-3" x1="88.33" y1="34.33" x2="86.43" y2="64.62" xlink:href="#Безымянный_градиент_1300"/><linearGradient id="Новый_образец_градиента_копия_2-2" x1="94.62" y1="69.13" x2="96.62" y2="50.13" xlink:href="#Новый_образец_градиента_копия_2"/><clipPath id="clip-path"><path class="cls-1" d="M92.72,64.29S81.61,159,75.74,170.72c2,7.84,2,17.63,3.26,17.63s11.1-10.44,13.06-17.63c0-9.79,6.66-99.25,5.29-106.43C95.92,61.67,92.72,64.29,92.72,64.29Z"/></clipPath><linearGradient id="Новый_образец_градиента_копия_3" x1="89.46" y1="71.89" x2="100.76" y2="71.89" gradientTransform="translate(76.98 -45.95) rotate(44.17)" gradientUnits="userSpaceOnUse"><stop offset="0" stop-color="#ddf5f5"/><stop offset="1" stop-color="#c6d9db"/></linearGradient><linearGradient id="Новый_образец_градиента_копия_3-2" x1="87.32" y1="82.66" x2="101.94" y2="82.66" gradientTransform="translate(84.35 -42.57) rotate(44.17)" xlink:href="#Новый_образец_градиента_копия_3"/><linearGradient id="Новый_образец_градиента_копия_3-3" x1="85.26" y1="92.78" x2="104.36" y2="92.78" gradientTransform="translate(80.9 -39.14) rotate(39.6)" xlink:href="#Новый_образец_градиента_копия_3"/><linearGradient id="Новый_образец_градиента_копия_3-4" x1="82.36" y1="107.76" x2="101.61" y2="107.76" gradientTransform="translate(101.09 -33.62) rotate(44.17)" xlink:href="#Новый_образец_градиента_копия_3"/><linearGradient id="Новый_образец_градиента_копия_3-5" x1="79.62" y1="121.47" x2="102.64" y2="121.47" gradientTransform="translate(95.29 -30.33) rotate(38.45)" xlink:href="#Новый_образец_градиента_копия_3"/><linearGradient id="Новый_образец_градиента_копия_3-6" x1="78.1" y1="136.13" x2="99.82" y2="136.13" gradientTransform="translate(105.95 -25.6) rotate(39.16)" xlink:href="#Новый_образец_градиента_копия_3"/><linearGradient id="Новый_образец_градиента_копия_3-7" x1="74.67" y1="149.79" x2="96.32" y2="149.79" gradientTransform="translate(107.15 -21.32) rotate(36.93)" xlink:href="#Новый_образец_градиента_копия_3"/><linearGradient id="Новый_образец_градиента_копия_3-8" x1="71.87" y1="162.51" x2="96.15" y2="162.51" gradientTransform="translate(114.2 -17.92) rotate(36.84)" xlink:href="#Новый_образец_градиента_копия_3"/><linearGradient id="Новый_образец_градиента_копия_3-9" x1="71.71" y1="174.25" x2="94.66" y2="174.25" gradientTransform="translate(119.4 -15.41) rotate(36.33)" xlink:href="#Новый_образец_градиента_копия_3"/><linearGradient id="Безымянный_градиент_159" x1="5631.81" y1="173.56" x2="5632.16" y2="158.89" gradientTransform="matrix(-1, 0.08, 0.08, 1, 5643.26, -347.81)" gradientUnits="userSpaceOnUse"><stop offset="0.64" stop-color="#ffd7a5"/><stop offset="1" stop-color="#faa96c"/></linearGradient><linearGradient id="Безымянный_градиент_1725" x1="63.98" y1="228.91" x2="122.41" y2="228.91" gradientUnits="userSpaceOnUse"><stop offset="0.16" stop-color="#694538"/><stop offset="1" stop-color="#1c1007"/></linearGradient><linearGradient id="Безымянный_градиент_1562" x1="143.48" y1="69.84" x2="145.12" y2="292.8" gradientUnits="userSpaceOnUse"><stop offset="0" stop-color="#8567ad"/><stop offset="1" stop-color="#1b2139"/></linearGradient><linearGradient id="Безымянный_градиент_1562-2" x1="5.39" y1="137.75" x2="45.74" y2="133.08" xlink:href="#Безымянный_градиент_1562"/><linearGradient id="Безымянный_градиент_1562-3" x1="16.93" y1="224.85" x2="57.28" y2="220.18" xlink:href="#Безымянный_градиент_1562"/><linearGradient id="Безымянный_градиент_1562-4" x1="63.58" y1="67.82" x2="65.25" y2="293.23" xlink:href="#Безымянный_градиент_1562"/><linearGradient id="Безымянный_градиент_1562-5" x1="132.01" y1="15" x2="130.67" y2="129.71" xlink:href="#Безымянный_градиент_1562"/><linearGradient id="Безымянный_градиент_1562-6" x1="67.21" y1="14.25" x2="65.88" y2="128.95" xlink:href="#Безымянный_градиент_1562"/><linearGradient id="Безымянный_градиент_1562-7" x1="134.79" y1="215.26" x2="134.88" y2="228.34" xlink:href="#Безымянный_градиент_1562"/><linearGradient id="Безымянный_градиент_322-3" x1="56.71" y1="214.89" x2="56.8" y2="227.27" xlink:href="#Безымянный_градиент_322"/><linearGradient id="Безымянный_градиент_1785-2" x1="112.01" y1="142.06" x2="130.16" y2="17.73" xlink:href="#Безымянный_градиент_1785"/><linearGradient id="Безымянный_градиент_1785-3" x1="69.81" y1="135.05" x2="87.85" y2="11.49" xlink:href="#Безымянный_градиент_1785"/></defs><g id="Слой_2" data-name="Слой 2"><g id="Слой_2-2" data-name="Слой 2"><path class="cls-2" d="M25.75,285.72A50,50,0,1,0,93.66,305.2,49.95,49.95,0,0,0,25.75,285.72ZM69,363.83a40.46,40.46,0,1,1,15.79-55A40.45,40.45,0,0,1,69,363.83Z"/><path class="cls-3" d="M42.89,316.52c11.47-6.36,33-7.31,36.85-15,4.54-2.71,12.78,10.08,6.58,10.15-5-2.68-10.54,3.75-12,16.05-1.37,11.43,9.6,12.76,14.88,8.46,5,2.11,1.11,15.24-4.86,12.8-1.26-6.33-12.69-1.91-21.73,3.1l-.1.06c-9,5-18.85,12.35-14.15,16.77-1.1,6.36-14.31,2.71-13.43-2.66,6.45-2.2,11.13-12.21.72-17.1-11.21-5.27-19.59-4-20,1.68-3.35,5.21-9.82-8.56-5.11-11,8.56.78,20.77-16.94,32.24-23.29"/><ellipse class="cls-4" cx="49.96" cy="329.41" rx="8.37" ry="6.42" transform="translate(-153.39 65.48) rotate(-28.99)"/><path class="cls-5" d="M73.29,53s58-3.1,58-3.75,2.61-11.1,2.61-11.1c-13.06-9.8-52.89-9.41-60.73,8.68"/><path class="cls-6" d="M104.87,25.68c9.95-1.4,28.17.55,29.88,9.13-7,8-51.83,9.23-53.79,6.62s-3.92-4.1-.65-6.62S96.13,26.9,104.87,25.68Z"/><path class="cls-7" d="M120.14,0c-2,9.07-4.93,25.13-1.81,38.18C113.46,57.74,93.84,63.26,89.69,52a264.28,264.28,0,0,1,1.07-28.87Z"/><path class="cls-8" d="M106.43,474.69s1.58,11.1,1.44,14H99l-3-4.24a11.61,11.61,0,0,1-9.32,4.24H65.82C55.5,488.73,45.7,479.26,49,476c3.26,1.31,15,3.26,17.63,2s11.1-10.45,15-11.1S106.43,474.69,106.43,474.69Z"/><path class="cls-9" d="M76.39,471.43c1.67-1.67,11.75,0,10.45,2s-14.37,2.61-13.71,1.3S75.08,472.73,76.39,471.43Z"/><path class="cls-10" d="M69.21,478.61c-1.46,0,2-2.61,3.26-2.61s6,.94,5.63,1.78S70.51,478.61,69.21,478.61Z"/><path class="cls-11" d="M107.83,262.37c1.1,23.26-11.85,98.38-4.67,122.54s5.46,86.19,4.69,97.29c-10-9.79-20.78-17.23-30.69-12.86,1.19-25.66,5-58,.8-80S58.57,257.57,63.56,223.94C70.28,213.5,106,222.77,107.83,262.37Z"/><path class="cls-12" d="M161.28,474.37s1.59,11.1,1.45,14h-8.88l-3-4.25a11.6,11.6,0,0,1-9.32,4.25H120.67c-10.32,0-20.12-9.47-16.85-12.74,3.26,1.31,15,3.27,17.63,2s11.1-10.45,15-11.1S161.28,474.37,161.28,474.37Z"/><path class="cls-13" d="M131.24,471.1c1.67-1.66,11.76,0,10.45,2s-14.37,2.61-13.71,1.31S129.94,472.41,131.24,471.1Z"/><path class="cls-14" d="M124.06,478.29c-1.46,0,2-2.62,3.26-2.62s6,.95,5.64,1.78S125.37,478.29,124.06,478.29Z"/><path class="cls-15" d="M126,224.27c12.41,11.75,15.24,25.49,13.82,75.11s4.5,80.88,11,94.67c8.64,18.35,12.92,73.13,11.69,88.15-16.84-8.48-17.25-14.82-30.62-12.4.67-19.34,0-63.36-5.88-72.17s-11.42-24.59-15.18-65S97.94,295,88.14,277.93s-17.63-34.07-13.71-50.4S120.14,217.09,126,224.27Z"/><path class="cls-16" d="M122.61,39.83s47.31,36.21,46.91,46S127.32,206,126,224.27c-24.82,9.79-60.73,11.1-64,2.61-5.88-42.44-11.9-144.09-9.22-153s27.5-33.08,34.68-32.43C82.1,54.25,107.08,53.84,122.61,39.83Z"/><path class="cls-17" d="M88.14,149.83c-.65,13.06-15.54,66.71-8.1,82.66"/><path class="cls-18" d="M117.53,29c-1.6,5.63-11.75,13.72-17.63,16.33-2,3.26-1.82,5.33-1.82,5.33,5.74-4.68,7.27,3.09,11.4,16.51,5-3.2,17.22-21,18.18-25.68C123.72,32.21,121.45,25.76,117.53,29Z"/><path class="cls-19" d="M92.72,64.29S81.61,159,75.74,170.72c2,7.84,2,17.63,3.26,17.63s11.1-10.44,13.06-17.63c0-9.79,6.66-99.25,5.29-106.43C95.92,61.67,92.72,64.29,92.72,64.29Z"/><path class="cls-20" d="M90.1,34.25c0,4.57,0,9.79,3.27,10.45,2,1.3,1.41,6,1.41,6-6.64-4.68-9.9,5.77-11.86,13a106.92,106.92,0,0,1-2.61-20.89C82.92,35.55,88.38,30.57,90.1,34.25Z"/><path class="cls-21" d="M90.76,49.27c2.71-1.81,11.81-2.76,12.4,2,.66,5.22-3.78,13.39-5.81,17.79-1.43-2.94-4.9-3.26-5.29-1.47C88.67,58.08,88.8,50.57,90.76,49.27Z"/><g class="cls-22"><g class="cls-23"><rect class="cls-24" x="88.19" y="70.91" width="13.85" height="1.96" transform="translate(-23.2 86.6) rotate(-44.17)"/><rect class="cls-25" x="85.4" y="81.68" width="18.47" height="1.96" transform="translate(-30.84 89.3) rotate(-44.17)"/><rect class="cls-26" x="83.23" y="91.8" width="23.16" height="1.96" transform="translate(-37.38 81.72) rotate(-39.6)"/><rect class="cls-27" x="79.51" y="106.78" width="24.93" height="1.96" transform="translate(-49.08 94.56) rotate(-44.17)"/><rect class="cls-28" x="77.21" y="120.49" width="27.84" height="1.96" transform="translate(-55.77 83.01) rotate(-38.45)"/><rect class="cls-29" x="75.75" y="135.15" width="26.42" height="1.96" transform="translate(-65.98 86.76) rotate(-39.16)"/><rect class="cls-30" x="72.7" y="148.81" width="25.6" height="1.96" transform="translate(-72.85 81.42) rotate(-36.93)"/><rect class="cls-31" x="69.57" y="161.53" width="28.87" height="1.96" transform="matrix(0.8, -0.6, 0.6, 0.8, -80.66, 82.81)"/><rect class="cls-32" x="69.67" y="173.27" width="27.03" height="1.96" transform="translate(-87.06 83.15) rotate(-36.33)"/></g></g><path class="cls-33" d="M46.66,241.07c2.93,15.52,1.18,25.18,1.18,25.18,5,6.35,8.12,12.28,6.67,15.21s-5.32,15.14-9.28,14.9-5.37-5.89-5.37-5.89c-.62,1.8-4.31-2.2-5.44-4.22a13.26,13.26,0,0,1-1.52-8.14c.33-2.84,7-14.58,7.12-15.73-.07-5.63,0-20.78,0-20.78Z"/><path class="cls-34" d="M122.41,221.74c-9.45,3.84-40.8,12.32-58.43,5.14v6.59c15,5.82,48.94.9,58.43-4.8A23.38,23.38,0,0,1,122.41,221.74Z"/><path class="cls-35" d="M130.59,42.74c16.49,16.61,43.75,32,41.14,41.79s-30.54,101.91-33.55,110.7c7.68,30,12.66,95.37,12.65,102-5.22,9.42-26.15,11-32.66,10.13-2.59-21.95-1.38-97.12-1.33-116.24S119.32,89.46,130.59,42.74Z"/><path class="cls-36" d="M63.33,100.85C64,80,55.81,63.28,48.15,76.84s-9,77.08-8.34,101.16S55.14,194.27,57,177,63.1,108.15,63.33,100.85Z"/><path class="cls-37" d="M32.78,268.39c8.86,3.83,19.32.85,20-4.65.78-15.6,3.46-61.84,4.7-71.88S42.76,163.2,41,180.35,32.27,253.75,32.78,268.39Z"/><path class="cls-38" d="M77.16,43.18c-10,48.09-13.5,132.34-13,149.53S72.49,307.4,72.49,307.4c-9.81-3.46-17-2.78-17-8-.62-33.33,1.64-98,.5-111s-7.9-97.26-5.5-114.26C58.76,58.41,74,43.63,77.16,43.18Z"/><path class="cls-39" d="M142.34,46.65c.83,8.2,2.43,42.44,1.87,45.38s-10.36,11-10.36,11l9.15,6.31c-11.76,29.39-22.56,57.37-26,67.21-.3-26,3.22-107.9,11.65-132,2.51-3.06,2.56-7.73,5.17-6.42S141,43.39,142.34,46.65Z"/><path class="cls-40" d="M64.47,171.55c-2.93-36.92-6.36-65.47-6.36-65.47l4.57-4.57c-5.23-2.62-7.84-4.57-7.84-7.19s9.62-42.86,20.48-51.14c3-.44,3.63-1.62,2.38,2.82C69.21,76,68.88,145.61,64.47,171.55Z"/><path class="cls-41" d="M124.06,217.09c0-3.52,19.46-4.26,20.26-2.62.64,1.31,2.5,10.83,0,12.41s-17,3.27-18.63,1.79C124.46,227.58,124.06,219.05,124.06,217.09Z"/><path class="cls-42" d="M54.19,214.47c.6-1.59,5.22-1.3,5.88,0s.65,12.41,0,13.06c-.94.94-5.23.64-6.53-.65S53.54,216.23,54.19,214.47Z"/><path class="cls-43" d="M135.16,36.21c2.54,10.15-7.84,83.58-9.14,97.29-3.27,4.57-22.12-2-24.82-4.57,1.8-17.63,27.06-84,25-91C129.8,32.51,133.2,28.37,135.16,36.21Z"/><path class="cls-44" d="M81.57,39.83c-1.87,9.07-1.91,82.57-1.26,92.37-4.57,3.26-15.17,10.5-17.63,5.87C64.29,91.6,73.13,43.45,75.74,38.85S82.84,32.36,81.57,39.83Z"/></g></g></svg>