<svg xmlns="http://www.w3.org/2000/svg" width="55.582" height="38.609" ><defs><linearGradient id="A" x1=".193" y1=".634" x2=".865" y2=".066"><stop offset="0" stop-color="#5d7d91"/><stop offset="1" stop-color="#c78579"/></linearGradient><linearGradient id="B" x1=".496" y1=".127" x2=".517" y2=".862"><stop offset="0" stop-color="#5d7d91"/><stop offset="1" stop-color="#374b6b"/></linearGradient></defs><g transform="matrix(.992546 -.121869 .121869 .992546 0 6.325)"><path d="M19.964 33.361C8.984 26.369 5.99 18.387 6.988 12.4 16.97 4.414 40.923.422 51.903 1.42 43.919 17.389 32.94 26.369 19.964 33.361z" fill="url(#A)"/><path d="M0 9.405c1 13.974 16.97 10.98 16.97 10.98-3-3-2.231-4.755-2.231-4.755h6.8C24.954 14.4 44.917 6.412 51.9 1.419 39.925-2.572 6.988 2.417 0 9.405z" fill="url(#B)"/></g></svg>
