<svg xmlns="http://www.w3.org/2000/svg" xmlns:xlink="http://www.w3.org/1999/xlink" width="150.945" height="194.911" ><defs><linearGradient id="A" x1=".739" y1=".024" x2=".401" y2=".693"><stop offset=".546" stop-color="#5d7d91"/><stop offset="1" stop-color="#374b6b"/></linearGradient><linearGradient id="B" x1=".506" y1=".518" x2=".518" y2=".961"><stop offset="0" stop-color="#5d7d91"/><stop offset="1" stop-color="#374b6b"/></linearGradient><linearGradient id="C" x1=".517" y1="-.037" x2=".484" y2=".805" xlink:href="#A"/><linearGradient id="D" x1=".904" y1=".68" x2=".269" y2=".145"><stop offset="0" stop-color="#5d7d91"/><stop offset="1" stop-color="#c78579"/></linearGradient><linearGradient id="E" x1=".497" y1=".07" x2=".52" y2=".947" xlink:href="#B"/><linearGradient id="F" x1=".475" y1=".101" x2=".517" y2=".882"><stop offset="0" stop-color="#79ab7f"/><stop offset="1" stop-color="#c9b941"/></linearGradient><linearGradient id="G" x1=".469" y1=".089" x2=".521" y2=".902" xlink:href="#F"/><linearGradient id="H" x1=".511" y1="1.066" x2=".493" y2=".397" xlink:href="#B"/><linearGradient id="I" x1=".518" y1="1.208" x2=".491" y2=".324" xlink:href="#B"/><linearGradient id="J" x1=".515" y1="-.762" x2=".487" y2="1.811"><stop offset=".3" stop-color="#9da9b5"/><stop offset="1" stop-color="#374b6b"/></linearGradient><linearGradient id="K" x1=".477" y1=".195" x2=".522" y2=".967"><stop offset="0" stop-color="#cf5555"/><stop offset="1" stop-color="#a64444"/></linearGradient><linearGradient id="L" x1=".512" y1="-.776" x2=".486" y2="1.79"><stop offset="0" stop-color="#9da9b5"/><stop offset="1" stop-color="#374b6b"/></linearGradient><linearGradient id="M" x1=".511" y1="-.757" x2=".485" y2="1.809" xlink:href="#L"/><linearGradient id="N" x1=".742" y1="-.099" x2=".474" y2=".687" xlink:href="#A"/></defs><path d="M45.841 92.302c-10.188 25.411-35.653 55.972-38.2 61.064-1.273 19.1-8.915 28.015-3.819 36.926s26.6 3.225 29.215-2.843 0-28.609 0-28.609c6.438-8.021 35.723-32.213 40.819-39.855S45.841 92.302 45.841 92.302z" fill="url(#A)"/><path d="M42.022 80.787c-1.273 15.28 7.408 29.173 20.142 40.631 1.273-1.273 2.47-4.714 2.47-4.714a85.68 85.68 0 0 0 20.679 17c17.827-3.956 53.48-17.26 58.575-40.179s3.98-33.2-3.74-40.155-98.126 27.417-98.126 27.417z" fill="url(#B)"/><path d="M38.2 15.848C49.449-.005 136.248-13.44 148.982 24.76s-39.473 78.949-70.034 78.949S10.188 55.321 38.2 15.848z" fill="url(#C)"/><path d="M36.926 45.134C26.741 43.861 10.188 29.854 0 13.3c20.373-2.546 39.476 2.549 47.114 8.915-2.546 15.278-10.188 22.919-10.188 22.919z" fill="url(#D)"/><path d="M52.207 15.849C36.927 10.749 11.461 8.207 0 13.3c25.468 5.1 43.756 13.816 45.435 17.733 3.359-3.629 6.772-8.818 6.772-15.184z" fill="url(#E)"/><path d="M89.133 70.601c0-15.28 15.28-45.841 45.841-22.922-1.273 11.461-19.1 35.654-45.841 22.922z" fill="url(#F)"/><path d="M63.668 69.698c-2.546-14.223-15.28-33.619-30.561-19.4-1.273 19.031 15.281 29.215 30.561 19.4z" fill="url(#G)"/><path d="M102.325 74.158c-2.188-8.387.815-18.836 3.146-22.3 4.038 3.468 7.857 14.926 5.826 21.395-3.582 2.342-6.882 2.442-8.972.905zm-57.757-2.283c-1.273-5.1-1-13.665.521-17.266 3.395 3.2 6.893 11.967 5.844 18.539-2.546 1.275-3.819 0-6.365-1.273z" fill="#283547"/><path d="M134.974 47.68c-7.639-11.458-43.292-26.738-45.841 22.922 7.642-21.649 14.007-35.653 45.841-22.922z" fill="url(#H)"/><path d="M63.668 69.699c0-24.935-17.827-33.328-30.561-19.4 14.007-3.968 22.919-3.157 30.561 19.4z" fill="url(#I)"/><circle cx="43.295" cy="59.141" r="2.547" fill="#fff"/><path d="M66.741 87.722c3.007 4.007 15.8 5.556 19.445 0s-4.3-14.1-9.785-13.3-13.825 7.742-9.66 13.3z" fill="url(#J)"/><path d="M67.487 70.601c-1.273-6.369 14.007-10.188 17.827 0-3.819-1.273-7.639 0-8.912 3.819-2.413-1.624-2.546-5.095-8.915-3.819z" fill="url(#K)"/><path d="M76.363 72.145c1.312 7.369-8.876 23.922-22.883 13.738s11.385-22.378 22.883-13.738z" fill="url(#L)"/><path d="M76.229 72.145c-1.313 7.369 8.875 23.922 22.883 13.738S87.727 63.505 76.229 72.145z" fill="url(#M)"/><circle cx="102.504" cy="58.504" r="3.183" fill="#fff"/><path d="M89.697 154.722c-1.837 16.472-3.11 16.472-15.841 17.745s-16.554-14-14.007-22.919S89.6 129.281 94.462 122.86s44.932-35.626 50.364-33.756c5.768 50.852-5.214 56.92-12.625 58.682s-33.028-.621-42.504 6.936z" fill="url(#N)"/></svg>
