<svg xmlns="http://www.w3.org/2000/svg" width="24" height="24"><defs><filter id="A" x="2" y="2" width="20" height="20" filterUnits="userSpaceOnUse"><feOffset dx="1" dy="1"/><feGaussianBlur result="A"/><feFlood flood-color="#0f426d" flood-opacity=".541" result="B"/><feComposite operator="out" in="SourceGraphic" in2="A"/><feComposite operator="in" in="B"/><feComposite operator="in" in2="SourceGraphic"/></filter><filter id="B" x="3.344" y="5.215" width="18.656" height="14.57" filterUnits="userSpaceOnUse"><feOffset dx="1" dy="1"/><feGaussianBlur result="A"/><feFlood flood-color="#3e933e"/><feComposite operator="in" in2="A"/><feComposite in="SourceGraphic"/></filter></defs><g transform="translate(-19 -18.5)"><g fill="#b2c2e7" stroke="#fff"><rect width="24" height="24" rx="6" stroke="none" x="19" y="18.5"/><rect x="19.5" y="19" width="23" height="23" rx="5.5" fill="none"/></g><rect width="20" height="20" rx="6" fill="#fff" x="21" y="20.5"/><g transform="translate(19 18.5)" filter="url(#A)"><rect width="20" height="20" rx="6" transform="translate(2 2)" fill="#fff"/></g><g transform="translate(19.004 18.505)" filter="url(#B)"><path d="M-3386.5-7991.025c-1.369 2.28 2.929 8.181 7.275 6.827s11.968-11.845 9.714-13.243-8.471 9.123-10.491 9.491c-3.338.956-5.126-5.355-6.498-3.075z" transform="translate(3390.1 8002.78)" fill="#5fbe5f"/></g></g></svg>
