<svg xmlns="http://www.w3.org/2000/svg" xmlns:xlink="http://www.w3.org/1999/xlink" width="73.047" height="78.527" ><defs><filter id="A" x="0" y="0" width="73.047" height="78.527" filterUnits="userSpaceOnUse"><feOffset dx="-4" dy="4"/><feGaussianBlur result="A"/><feFlood flood-color="#f90" result="B"/><feComposite operator="out" in="SourceGraphic" in2="A"/><feComposite operator="in" in="B"/><feComposite operator="in" in2="SourceGraphic"/></filter><path id="B" d="M.075 29.671S2.253 3.536 28.388.271s44.647 23.957 42.469 39.2-17.423 37.024-39.2 37.024S-1.014 42.97.075 29.671z"/></defs><g transform="translate(1.007 1.031)"><use xlink:href="#B" fill="#ffbf00"/><g transform="translate(-1.01 -1.03)" filter="url(#A)"><path d="M-595.994 123.424s2.178-26.135 28.313-29.4 44.647 23.957 42.469 39.2-17.423 37.024-39.2 37.024-32.671-33.525-31.582-46.824z" transform="translate(597.08 -92.72)" fill="#fff"/></g><use xlink:href="#B" fill="none" stroke="#fdfdff" stroke-width="2"/><g fill="#fcffb1"><path d="M41.869 1.869c-19.027-4.157 0 16 10.207 17.264s16.507 20.792 8.568 22.3-16.254 27.343-8.568 25.326 16.507-17.261 17.263-27.847-8.44-32.884-27.47-37.043z" opacity=".5"/><path d="M54.039 16.539c1.527.409-2.057-6.539-9.966-9.21s8.435 8.799 9.966 9.21z"/></g><path d="M.075 29.671S1.711 10.066 19.129 2.694l.3.053s-27.7 30.879-4.279 54.941 38.759 5.324 47.277-6.389 7.665-17.674 7.665-17.674l.908 2.16a18.92 18.92 0 0 1-.143 3.688c-2.176 15.242-17.422 37.021-39.2 37.021S-1.014 42.97.075 29.671z" fill="#fff"/><path d="M1.554 28.834S3.118 10.911 19.768 4.176l.286.047s-26.482 28.227-4.09 50.221 37.05 4.868 45.192-5.842 7.328-16.152 7.328-16.152l.868 1.973c.069 1.125.024 2.255-.136 3.371-2.081 13.934-16.655 33.841-37.473 33.841S.514 40.988 1.554 28.834z" fill="#f90"/><path d="M12.331 14.769c0-1.778-6.252 4.131-6.825 13.479s6.825-11.7 6.825-13.479z" fill="#fcffb1"/><g transform="matrix(.994522 .104528 -.104528 .994522 1061.7 -8876.617)" fill="#fff"><path d="M-82.675 8984.409c-2.274 0-4.935-1.9-8.722-6.284-1.433 1.428-2.798 2.701-3.951 3.684-2.541 2.165-3.624 2.601-4.547 2.601-.812 0-1.542-.403-1.952-1.078-.941-1.544-.568-3.631 1.141-6.376a30.4 30.4 0 0 1 3.431-4.416c.133-.14.399-.476.731-.908-.617-.813-1.168-1.534-1.384-1.766-.912-.96-2.356-2.691-3.428-4.413-1.709-2.745-2.082-4.832-1.141-6.379.41-.674 1.139-1.075 1.95-1.075.957 0 2.102.478 4.844 2.856 1.287 1.117 2.794 2.548 4.356 4.134 4.104-4.878 6.945-6.99 9.324-6.99.553 0 1.077.113 1.559.338.79.368 1.345 1.074 1.525 1.938.293 1.403-.365 3.163-2.198 5.883-1.054 1.563-2.495 3.421-4.209 5.433 1.55 1.86 2.844 3.568 3.784 4.999 1.67 2.543 2.259 4.205 1.97 5.558a2.73 2.73 0 0 1-1.521 1.925 3.65 3.65 0 0 1-1.561.338z"/><path d="M-82.675 8982.409c.256 0 .494-.047.715-.15 1.67-.78-1.693-5.679-6.022-10.683 4.635-5.254 8.427-10.609 6.673-11.428-.22-.103-.459-.15-.714-.15-2.374 0-6.16 4.188-9.201 7.998-4.53-4.791-9.048-8.729-9.564-7.883-1.16 1.907 2.737 6.718 4.313 8.377.398.422 1.283 1.617 2.443 3.143-.838 1.108-1.472 1.947-1.792 2.284-1.576 1.659-5.475 6.47-4.313 8.376.048.078.129.116.242.116 1.044 0 4.75-3.242 8.617-7.257 2.926 3.59 6.383 7.257 8.604 7.257m0 4c-2.597 0-5.278-1.605-8.818-5.396a63.18 63.18 0 0 1-2.559 2.318c-2.667 2.272-4.196 3.078-5.843 3.078-1.517 0-2.886-.763-3.661-2.04-.61-1.004-1.18-2.706-.446-5.12.314-1.031.837-2.127 1.599-3.352 1.015-1.629 2.304-3.229 3.296-4.322a8.05 8.05 0 0 0-.282-.345c-1.023-1.079-2.518-2.881-3.664-4.722-.762-1.224-1.285-2.319-1.599-3.351-.736-2.418-.163-4.121.447-5.124a4.24 4.24 0 0 1 3.658-2.036c1.696 0 3.307.875 6.155 3.346.896.777 1.893 1.7 2.939 2.719.831-.922 1.608-1.722 2.342-2.411 2.656-2.493 4.909-3.653 7.088-3.653.847 0 1.656.176 2.403.524 1.367.639 2.328 1.856 2.638 3.344.263 1.261.048 2.64-.659 4.215-.42.936-1.021 1.98-1.839 3.193-.979 1.453-2.151 2.966-3.272 4.331 1.137 1.421 2.106 2.736 2.861 3.886 1.991 3.032 2.665 5.147 2.254 7.072-.315 1.476-1.273 2.686-2.63 3.319-.747.35-1.557.526-2.408.526z" fill="#f90"/></g></g></svg>
