<svg xmlns="http://www.w3.org/2000/svg" width="98.086" height="98.824" ><path d="M44.235 5.414c21.912 0 48.8 26.993 48.8 48.994s-26.888 44.416-48.8 44.416S0 76.414 0 54.408 22.323 5.414 44.235 5.414zm23.811.166c1.962 6.3 18.247 9.456 24.918 26s8.044-3.743-3.336-14.973S66.082-.724 68.046 5.58zM62.392.138c-2.64 1.333-3.392 4.043.413 5.731s2.226-7.063-.413-5.731z" fill="#e92218"/><path d="M51.073 71.682c-1.085-2.478-7.426-8.231-11.124-1.762s2.768 10.301 5.851 10.364 6.359-6.124 5.274-8.602z" fill="#c5d3f1"/><path d="M44.629 68.266c1.465-.371 3.018-.109 4.28.723s2.114 2.157 2.35 3.649c.63 3.239-1.365 5.359-4.608 5.989s-4.967-.937-5.598-4.181.333-5.551 3.576-6.181z" fill="#fff"/><path d="M41.054 74.445l-.093-.546c.651-.048 1.294.169 1.783.6 2.814 1.983 2.289 2.311 5.308.015 2.516-1.911.444-5.081-.321-6.091a5.32 5.32 0 0 1 3.526 4.213c.633 3.239-1.363 5.353-4.609 5.986a6.03 6.03 0 0 1-2.095.081c-1.917-.304-3.023-1.798-3.5-4.257z" fill="#eaf0ff"/><g transform="matrix(.999848 .017452 -.017452 .999848 34.617 24.918)"><path d="M9.92 0c5.479 0 9.2 5.039 8.934 16.489S15.4 35.326 9.92 35.326 0 17.088 0 11.008 4.441 0 9.92 0z" fill="#fff"/><path d="M5.3 31.112q.367.3.765.622c3.677 2.96 5.792-1.427 9.379-10.408 3.029-7.585-.768-17.577-2.019-20.493 3.488 1.853 5.635 6.864 5.429 15.654-.269 11.446-3.454 18.839-8.935 18.839-1.668 0-3.239-1.693-4.619-4.214z" fill="#eaf0ff"/><path d="M0 11.009A11 11 0 0 1 6.595.635c-3.638 3.177-5.387 8.002-4.63 12.772.779 5.9 1.855 12.294 2.516 16.065C1.782 23.588 0 14.859 0 11.009z" fill="#c5d3f1"/></g></svg>
