<svg xmlns="http://www.w3.org/2000/svg" width="250" height="215.823" ><defs><clipPath id="A"><path d="M2713.727 4934.153c-.284-6.955-5.8-5.115-8.1-.057 3.218 3.219 6.545 2.414 8.1.057z" transform="translate(-2705.626 -4929.596)" fill="none"/></clipPath><clipPath id="B"><path d="M2717.555,4934.48a2.295,2.295,0,1,1-2.38-2.206,2.294,2.294,0,0,1,2.38,2.206Z" transform="translate(-2712.968 -4932.273)" fill="none"/></clipPath><clipPath id="C"><path d="M2757.422,4934.184a2.482,2.482,0,1,1-2.575-2.389,2.483,2.483,0,0,1,2.575,2.389Z" transform="translate(-2752.459 -4931.793)" fill="none"/></clipPath></defs><path d="M126 11.823c48.049 0 107 58.951 107 107s-58.951 97-107 97-97-48.951-97-97 48.951-107 97-107zm52.215.363c4.3 13.768 40.013 20.651 54.641 56.792s17.64-8.175-7.314-32.7-51.63-37.855-47.327-24.092zM165.814.306c-5.788 2.911-7.438 8.829.906 12.517s4.882-15.432-.906-12.517z" fill="#b3c5f0"/><path d="M197.817 165.414c-.074 2.348-.975 4.594-2.544 6.342-.441.539-.917 1.048-1.424 1.526-6.2 5.931-19.206 10.685-35.646 13.069l-2.57.35a171.1 171.1 0 0 1-21.544 1.326c-22.7 0-42.636-4.215-53.922-10.557-1.982-1.083-3.834-2.388-5.52-3.89a15.44 15.44 0 0 1-2.894-3.443c-.89-1.416-1.372-3.051-1.393-4.723 0-4.425 3.587-8.557 9.78-12.042 5.232-2.945 12.319-5.432 20.686-7.251a144.6 144.6 0 0 1 18.872-2.739h.015a155.94 155.94 0 0 0 6.008.339c.387-.266.846-.407 1.316-.406h6.532c.505-.003.998.161 1.4.467 3.829-.087 7.4-.319 10.608-.611a153.34 153.34 0 0 1 16.035 1.845c18.07 3.074 31.422 9.082 35.147 16.282a8.97 8.97 0 0 1 1.023 3.335 8.06 8.06 0 0 1 .035.781z" fill="#25a9e1"/><path d="M155.633 186.55c.247-12.165-5.386-21.945-16.77-29.109-5.975-3.664-12.533-6.277-19.391-7.725l.452-2.528c7.191 1.484 14.065 4.219 20.311 8.079 11.893 7.488 18.049 18.105 17.967 30.893l-2.569.39z" fill="#0071bc"/><path d="M195.477 143.23c-.07 1.858.488 3.685 1.582 5.188 1.768 2.13.774 4.07-1.814 2.745s-3.8-5.462-3.8-5.462zM75.815 75.44c-.581-.283-1.043-.314-1.342 0-1.881 1.958-11.62 4.456-11.62 4.456a20.03 20.03 0 0 0 .35 1.008c-.417-.55-1.46-1.948-2.6-3.557l-.73-1.054-.725-1.059-1.167-1.8a9.21 9.21 0 0 1-1.465-3.079c-.031-1.824 2.1-1.557 2.1-1.557-.166-1.377.128-2.771.838-3.963a2 2 0 0 1 2.719-.961c.212-1.303 1.369-2.239 2.688-2.174 1.66-.031 2.369 2.359 2.96 4.554.211.8.411 1.578.632 2.194.056.169.123.324.185.468a2.11 2.11 0 0 0 .457.652 2.18 2.18 0 0 0 .879.514c.141.05.285.09.432.118.835.123 1.686.073 2.5-.149.606-.011 1.131.529 1.568 1.352a16.8 16.8 0 0 1 1.341 4.037zm129.741-5.088a2.06 2.06 0 0 1-.175.674 17.77 17.77 0 0 1-1.444 2.657l-2.035 3.053-.6.843-2.426 3.31.344-.992s-9.744-2.5-11.625-4.456c-.3-.314-.761-.283-1.336 0 .406-1.834 1.038-3.932 1.912-4.877.242-.309.608-.497 1-.514a6.4 6.4 0 0 0 2.092.2c.349-.023.693-.101 1.018-.231a1.7 1.7 0 0 0 .247-.118 2.09 2.09 0 0 0 .915-.986c.946-2.107 1.346-7.262 3.772-7.216a2.6 2.6 0 0 1 2.693 2.174 2 2 0 0 1 2.713.961 6.23 6.23 0 0 1 .838 3.963s2.133-.269 2.097 1.555z" fill="#ffd1c5"/><path d="M143.104 83.285c-.241 1.29-.559 2.565-.951 3.818-.308 11.764-11.409 18.5-11.409 18.5l-3.51-9.832-7.7 7.709c-5.083-11.132-.21-19.909 0-20.269l.031-.031h23.4zm18.738 64.655l-.072.016c-.042.013-.085.024-.128.031-.029.005-.058.012-.087.021l-2.195.447-.272.051-2.39.427-.611.1c-.057.005-.108.016-.17.026l-.678.108-1.758.268-1.932.262-1.115.144-.982.118-4.646.473-1.881.154-1.537.108-.719.046-.73.041-.735.041-.745.036-.2.01-1.316.051a.45.45 0 0 0-.082.005l-1.424.046-1.66.031-1.552.016a.66.66 0 0 1-.139 0h-.673c-.545 0-1.079 0-1.614-.011l-1.588-.025h-.005l-1.562-.041-1.531-.057h-.005l-1.146-.051h-.005l-1.095-.057-2.616-.169-.75-.057-.206-.016-.689-.056-2.009-.175-.93-.092-.354-.036-1.249-.134-9.39-1.331-.354-.062-3.376-.658c-.031 0-.057-.01-.077-.015l-.175-.042.144-1.819.416-5.252a146.87 146.87 0 0 0 18.455 2.513h.015l6.008.34c.387-.266.846-.407 1.316-.406h6.532c.506-.003.998.161 1.4.468 3.829-.087 7.4-.319 10.608-.611 5.275-.466 10.519-1.234 15.706-2.3l.329 4.147z" fill="#fff"/><path d="M161.842 147.941l-.072.016c-.042.013-.085.024-.128.031-.029.005-.058.012-.087.021l-2.195.447-.272.051-2.39.427-.611.1c-.057.005-.108.016-.17.026l-.678.108-1.758.268-1.932.262-1.115.144-.982.118-4.646.473-1.881.154-1.537.108-.719.046-.73.041-.735.041-.745.036-.2.01-1.316.051a.45.45 0 0 0-.082.005l-1.424.046-1.66.031-1.552.016a.66.66 0 0 1-.139 0h-.673c-.545 0-1.079 0-1.614-.011l-1.588-.025h-.005l-1.562-.041-1.531-.057h-.005l-1.146-.051h-.005l-1.095-.057-2.616-.169-.75-.057-.206-.016-.689-.056-2.009-.175-.93-.092-.354-.036-1.249-.134-9.39-1.331-.354-.062-3.376-.658c-.031 0-.057-.01-.077-.015l-.175-.042.144-1.819.416-5.252a146.87 146.87 0 0 0 18.455 2.513h.015l6.008.34a158.42 158.42 0 0 0 5.689.107q1.811 0 3.556-.046c3.829-.087 7.4-.319 10.608-.611 5.275-.466 10.519-1.234 15.706-2.3l.329 4.147z" fill="#3a3f56"/><path d="M163.553 51.902l-.709.915-4 4.749-3.155 3.278c-2.221 2.189-4.619 4.192-7.169 5.987a35.24 35.24 0 0 1-9.318 4.744c-5.081 1.73-10.621 1.526-15.562-.571a25.43 25.43 0 0 1-5.037-2.857 36.62 36.62 0 0 1-5.967-5.443 52.83 52.83 0 0 1-3.731-4.7q-.995-1.4-1.881-2.76c-17.762-27.146-2.23-43.494 8.048-47.092s15.233.966 15.233.966c17.813-9.464 31.039 4.375 31.165 15.5.014 1.241.889 2.313 1.28 3.479 1.125 3.301 1.947 6.697 2.457 10.146.832 5.883.406 10.966-1.654 13.659z" fill="#4e2e25"/><path d="M142.153 87.105c-.308 11.764-11.409 18.5-11.409 18.5l-3.51-9.832-7.7 7.709c-5.083-11.132-.21-19.909 0-20.269l4.029 3.983 4.44 4.4 11.122-3.536z" fill="#dbdbdb"/><path d="M123.595 79.714l-.05 12.72 15.564.061.065-16.547c-4.597 3.03-10.106 4.362-15.579 3.766z" fill="#ffd1c5"/><path d="M139.174 79.027l.05-12.747-15.563-.062-.065 16.574c5.473.596 10.982-.735 15.578-3.765z" fill="#d5a396"/><path d="M143.104 83.287a33.19 33.19 0 0 1-.951 3.818c-1.413 4.6-4.615 12.042-11.054 14.693l-3.032-9.333-7.884 7.792s-3.577-10.079-.653-17.042l.036-.032 3.978-2.832c-.006.367.01.735.046 1.1v.149a.57.57 0 0 0 .01.087v.051a17.6 17.6 0 0 0 .124 1.074l.062.37c.421 2.4 1.557 5.726 4.6 7.483 0 0 7.55-1.686 10.027-7.483a9.5 9.5 0 0 0 .74-2.935v-.036l3.813 2.971z" fill="#fff"/><path d="M153.84 44.037l-.415.135h0s-2.472 13.679-7.416-6.969c-12.177-10.256-12.272-17.908-12.272-17.908 4.015 22.839-23.521 10.658-27.9 20.972.98 5.008 1.373 10.112 1.169 15.211-.941 13.126 10.008 21.851 19.85 21.993 18.905.271 24.06-15.178 24.06-15.178s8.677.379 10-11.411c1.08-9.64-7.076-6.845-7.076-6.845z" fill="#ffd1c5"/><path d="M128.769 58.741c-4.361 1.905-7.062.84-7.579-2.074-.337-1.9 2-5.077 2-5.077l3.661-8.487h0c.168 1.343-3.211 10.245-3.211 10.245a5.91 5.91 0 0 0-.864 2.469c.124 2.163 2.174 3.88 5.993 2.925z" fill="#db7c65"/><path d="M135.297 65.471c-5.145.669-10.355.669-15.5 0 0 0 1.323 4.875 7.752 4.865 6.061-.009 7.677-3.922 7.748-4.865z" fill="#c43131"/><path d="M127.374 67.8c-4.942 0-6.392-1.455-7.014-2.247a59.84 59.84 0 0 0 14.542-.031c-.438.881-2.869 2.278-7.528 2.278z" fill="#fff"/><rect width="46.254" height="34.433" rx="7.259" transform="matrix(.707107 -.707107 .707107 .707107 192.945 169.47)" fill="#874b15"/><rect width="50.365" height="27.752" rx="6.8" transform="matrix(.707107 -.707107 .707107 .707107 189.311 168.744)" fill="#945c2c"/><path d="M201.144 156.91l-.191-.173a7.18 7.18 0 0 1 10.148-10.147l.172.19 1.845-1.845-.172-.19c-3.821-3.821-10.016-3.821-13.837 0s-3.821 10.016 0 13.837c.062.062.129.113.191.173z" fill="#231f20"/><g fill="#fbb03b"><rect width="5.139" height="6.681" rx="2.57" transform="matrix(.707107 -.707107 .707107 .707107 222.744 170.197)"/><path d="M135.893 145.639v3.952a2.32 2.32 0 0 1-1.9 2.282h-.005c-.137.027-.276.041-.416.041h-6.532c-.578.001-1.136-.215-1.562-.606h-.005a2.12 2.12 0 0 1-.36-.411 2.3 2.3 0 0 1-.4-1.3v-3.952a2.32 2.32 0 0 1 2.323-2.323h6.532c.506-.003.998.161 1.4.468.582.437.924 1.122.925 1.849z"/></g><path d="M209.154 146.579c.036 1.824-2.1 1.557-2.1 1.557.14 1.154-.04 2.323-.519 3.382a4.96 4.96 0 0 1-.319.581 2.39 2.39 0 0 1-1.372 1.115h-.005c-.449.111-.924.056-1.336-.154a2.6 2.6 0 0 1-2.693 2.174 1.72 1.72 0 0 1-1.331-.632v-.005c-.782-1.134-1.319-2.419-1.578-3.772h0l-.581-2.061c-.078-.252-.171-.499-.277-.74a.67.67 0 0 0-.052-.1c-.168-.337-.428-.621-.75-.817-1.336-.838-3.469-.216-3.469-.216a1.48 1.48 0 0 1-1.161-.7c-.875-1.437-1.467-3.028-1.747-4.687.576.282 1.038.313 1.336 0 1.881-1.958 11.625-4.451 11.625-4.451s-.113-.365-.344-.992c.622.822 2.554 3.413 4.183 5.859.73 1.095 1.4 2.169 1.861 3.032.311.498.524 1.05.629 1.627z" fill="#ffd1c5"/><path d="M132.545 47.632c-.459-4.14 2.76-8.278 12.878.919-2.3 1.84-9.658 3.679-12.878-.919zm-12.132.33c-.284-6.955-5.8-5.115-8.1-.057 3.218 3.219 6.545 2.414 8.1.057z" fill="#fff"/><g clip-path="url(#A)" transform="translate(112.312 43.404)"><g clip-path="url(#B)" transform="translate(3.773 1.376)"><path fill="#00b58b" d="M-.046-.047h4.681v4.682H-.046z"/></g><circle cx="3.977" cy="2.406" r=".934" fill="#fff"/></g><g clip-path="url(#C)" transform="translate(136.381 44.534)"><path fill="#00b58b" d="M-.049-.05h5.061v5.063H-.049z"/></g><circle cx="136.604" cy="45.651" r="1.01" fill="#fff"/><path d="M145.423 48.55c-6.439-7.357-13.8-9.2-12.878-.919 1.841-4.139 2.3-6.438 12.878.919zm-33.111-.644c4.14-7.817 8.845-5.4 8.1.058-1.486-5.173-4.426-5.112-8.1-.058z" fill="#283547"/><path d="M132.717 35.131c-1.038.484 1.12 4.893 1.12 4.893 3.333-1.358 11.805 1.106 11.965.276s-9.821-4.936-10.533-4.956a9.8 9.8 0 0 0-.924 2.54l-.395-2.487s-.946-.4-1.233-.266zm-12.812 1.622a8.52 8.52 0 0 1-2.422 3.979c-1.474-1.183-6.734.22-7.823.525a15.62 15.62 0 0 1 8.036-4.123 2.53 2.53 0 0 1 .664 1.311c.246-.532.457-1.081.63-1.641z" fill="#462922"/><rect width="18.502" height="29.294" rx="7.585" transform="matrix(.589337 -.807887 .807887 .589337 183.101 64.295)" fill="#231c1d"/><rect width="16.446" height="27.238" rx="6.896" transform="matrix(.589337 -.807887 .807887 .589337 184.122 63.768)" fill="#00467a"/><circle cx="206.194" cy="73.189" r="2.313" fill="#07d600"/><circle cx="209.828" cy="68.207" r="2.313" fill="#d64e00"/><path d="M82.157 161.739a34.04 34.04 0 0 0-2.015-8.367c-.867-2.294-1.985-4.485-3.335-6.532a34.01 34.01 0 0 0-9.446-9.559l-.812-.529-.2-.124a33.79 33.79 0 0 0-18.517-5.129l-3.161.2c-18.644 2.054-32.093 18.832-30.04 37.476s18.832 32.093 37.476 30.04a33.16 33.16 0 0 0 2.765-.417c17.353-3.37 29.218-19.489 27.279-37.06zM52.93 138.35c7.607 1.281 14.328 5.694 18.527 12.165a26.68 26.68 0 0 1 2.2 4.132c.177.419.101.901-.196 1.245s-.764.489-1.204.374c-2.144-.554-4.221-1.342-6.193-2.349-.411-.206-.812-.422-1.213-.647q-.879-.494-1.727-1.049a36.62 36.62 0 0 1-11.435-12.083 1.2 1.2 0 0 1 1.241-1.789zm-15.6 52.262a27.49 27.49 0 0 1-5.206-47.3 1.18 1.18 0 0 1 1.855 1.192 76.11 76.11 0 0 0 4.908 44.548 1.18 1.18 0 0 1-1.555 1.559zm11.833-18.218c-2.808.311-5.527-1.1-6.888-3.576s-1.097-5.528.67-7.732 4.688-3.127 7.401-2.337 4.682 3.136 4.989 5.945a6.99 6.99 0 0 1-6.172 7.7zm9.359 18.609c-.47.185-1.006.082-1.374-.264s-.504-.874-.348-1.355a34.71 34.71 0 0 1 14.956-19.251 28.48 28.48 0 0 1 1.778-.967 1.3 1.3 0 0 1 1.861 1.419c-.19 1.011-.439 2.009-.745 2.991-2.465 7.949-8.394 14.357-16.129 17.431z" fill="#00467a"/><path d="M79.413 141.49c-.509 2.292-1.362 4.985-2.606 5.35a.99.99 0 0 1-.3.042c0 0-3.32-.971-4.271 1.136a18.79 18.79 0 0 0-.776 2.5c-.539 2.03-1.171 4.3-2.564 4.667-.142.039-.29.056-.437.051-.98.048-1.903-.461-2.385-1.315a2.68 2.68 0 0 1-.3-.858 1.9 1.9 0 0 1-.91.211c-.716-.034-1.366-.429-1.727-1.049l-.082-.123c-.71-1.192-1.004-2.585-.838-3.962 0 0-2.127.267-2.1-1.557.016-.735 1.141-2.642 2.477-4.646l3.762-5.3.447-.6-.252.72.812.529c2.467.673 9.184 2.616 10.71 4.209.296.307.759.277 1.34-.005z" fill="#ffd1c5"/><g fill="#fff"><path d="M202.822 137.04s-9.744 2.492-11.625 4.45c-.3.313-.76.283-1.336 0-3.042-1.47-9.3-9.883-11.754-11.45-2.22-1.424-12.889-1.891-17.849-2.035l1.022 12.864a138.22 138.22 0 0 1-15.706 2.3c-3.207.293-6.779.524-10.607.611a2.29 2.29 0 0 0-1.4-.467h-6.532a2.32 2.32 0 0 0-1.315.406c-2.092-.077-4.1-.2-6.008-.339h-.016c-6.199-.446-12.363-1.286-18.455-2.513l1-12.566c-4.672.3-9.641.822-11.08 1.737-2.451 1.563-8.706 9.976-11.749 11.45-.581.283-1.043.313-1.341 0-1.526-1.593-8.243-3.536-10.71-4.209-.267-.18-.54-.354-.812-.529.052-.17.139-.416.252-.72a35.88 35.88 0 0 1 6.614-11.337c4.44-4.806 7.714-11.163 20.223-15.654a32.27 32.27 0 0 1-1.228-.354c-14.488-4.513-17.885-11.358-22.593-16.451a35.87 35.87 0 0 1-6.614-11.332c-.237-.638-.35-1.008-.35-1.008s9.739-2.5 11.62-4.456c.3-.314.761-.283 1.342 0 3.042 1.475 9.3 9.888 11.748 11.456 2.673 1.7 17.546 2.04 20.038 2.086a14.44 14.44 0 0 1 11.574-5.8h.391l-.031.021c-.206.37-5.078 9.149 0 20.281l7.7-7.709 3.51 9.831s11.1-6.737 11.409-18.5c.392-1.253.71-2.528.951-3.818l-.134-.1h.38c4.554 0 8.842 2.144 11.574 5.787 3.469-.072 17.047-.457 19.586-2.076 2.457-1.572 8.711-9.986 11.754-11.456.576-.283 1.038-.314 1.336 0 1.881 1.958 11.625 4.456 11.625 4.456s-.113.365-.344.992h0c-1.492 4.155-3.736 8-6.62 11.343-4.44 4.805-7.714 11.162-20.228 15.654a28.97 28.97 0 0 1 1.228.354c14.493 4.518 17.89 11.358 22.6 16.451 2.883 3.345 5.126 7.192 6.619 11.348h0l.341 1.001z"/><path d="M67.361 137.281l-.91-.242.1-.288.81.53z"/></g><path d="M2.834 52.175l56.603-41.307a3.51 3.51 0 0 1 4.902.765l27.218 37.297h0L29.286 94.373h0L2.068 57.077a3.51 3.51 0 0 1 .766-4.902z" fill="#e8e8e8"/><circle cx="45.526" cy="51.24" r="6.424" fill="#7a7a7a"/><g fill="#bdbdbd"><path d="M29.286 94.373l62.271-45.444h0 0c.536.734.758 1.651.618 2.548s-.631 1.703-1.365 2.239L34.073 95.121c-1.528 1.115-3.672.781-4.787-.748h0 0z"/><path d="M32.97 94.336l57.428-41.909 1.515 2.076-57.428 41.909z"/></g><path d="M74.561 71.649c-.637-1.747-.667-3.657-.087-5.423 1.028-2.57-.514-4.111-2.57-2.056s-1.936 6.364-1.936 6.364zm118.204.514c-.637-1.747-.667-3.657-.087-5.424 1.028-2.569-.514-4.111-2.57-2.056s-1.936 6.364-1.936 6.364z" fill="#ffd1c5"/></svg>
