<svg xmlns="http://www.w3.org/2000/svg" width="215.086" height="215.824" ><path d="M97 11.824c48.049 0 107 58.951 107 107s-58.951 97-107 97-97-48.951-97-97 48.951-107 97-107zm52.215.363c4.3 13.768 40.013 20.651 54.641 56.792s17.64-8.175-7.314-32.7-51.63-37.855-47.327-24.092zM136.814.307c-5.788 2.911-7.438 8.829.906 12.517s4.882-15.432-.906-12.517z" fill="#dee8ff"/><g transform="matrix(.809017 -.587785 .587785 .809017 -2846.427 -2092.716)"><path d="M1058.3 3514.917v43.655c.001 2.477-1.099 4.827-3.004 6.411s-4.415 2.24-6.85 1.789a8.74 8.74 0 0 1-1.063-.271l-30.736-10.01c-4.312-1.404-7.312-5.32-7.547-9.848l-2.9-55.69c-.109-2.034 1.229-3.864 3.2-4.376.851-.225 1.751-.178 2.574.134l21 7.818 15.039 5.6a15.42 15.42 0 0 1 2 .909 15.78 15.78 0 0 1 8.287 13.879z" fill="#fff"/><path d="M1096.639 3492.12l-2.9.9-28.218 8.708-2.111.653a16.2 16.2 0 0 1-10.164-.2l-3.227-1.138a15.46 15.46 0 0 0-2-.909l-15.039-5.6-21-7.818c-.823-.312-1.723-.359-2.574-.134l25.149-10.961a22.14 22.14 0 0 1 14.927-1l47.108 13.43c.901.26 1.525 1.079 1.536 2.016s-.593 1.771-1.487 2.053z" fill="#f1f5ff"/><path d="M1103.699 3531.159c.036 6.664-3.395 12.867-9.059 16.378l-27.71 17.17c-1.743 1.088-3.94 1.143-5.736.143s-2.906-2.896-2.899-4.951v-48.344a10.3 10.3 0 0 1 7.227-9.832l28.218-8.708a7.56 7.56 0 0 1 9.767 6.607 5.7 5.7 0 0 1 .028.58z" fill="#b3c5f0"/><path d="M1065.102 3565.443c-7 4.131-15.315 1.754-16.657 1.328 2.436.451 4.946-.204 6.85-1.789s3.005-3.934 3.004-6.411v1.325a5.66 5.66 0 0 0 6.803 5.547z" fill="#c9d8fa"/><path d="M1063.414 3502.375l2.111-.653a10.3 10.3 0 0 0-7.227 9.832v3.364a15.78 15.78 0 0 0-8.275-13.881l3.227 1.138a16.2 16.2 0 0 0 10.164.2z" fill="#fff"/><path d="M1103.615 3499.419l-.1.2a7.56 7.56 0 0 0-9.767-6.607l2.9-.9c.9-.277 1.51-1.113 1.499-2.054s-.639-1.764-1.544-2.021c6.214.555 7.012 11.382 7.012 11.382z" fill="#b0c3ee"/></g><g transform="matrix(.987688 .156434 -.156434 .987688 -347.842 -3535.256)"><path d="M1051.772 3509.76v38.186a7.29 7.29 0 0 1-8.619 7.17c-.315-.059-.625-.139-.93-.237l-26.885-8.756a9.58 9.58 0 0 1-6.6-8.615l-2.532-48.712c-.096-1.779 1.075-3.38 2.8-3.828a3.69 3.69 0 0 1 2.252.117l18.371 6.838 13.155 4.9a13.56 13.56 0 0 1 1.749.8 13.8 13.8 0 0 1 7.239 12.137z" fill="#fff"/><path d="M1085.306 3489.82l-2.532.783-24.682 7.617-1.847.571a14.17 14.17 0 0 1-8.89-.176l-2.823-1a13.53 13.53 0 0 0-1.749-.8l-13.155-4.9-18.371-6.838a3.7 3.7 0 0 0-2.252-.117l22-9.588c4.119-1.797 8.735-2.106 13.057-.874l41.206 11.747a1.86 1.86 0 0 1 .038 3.575z" fill="#f1f5ff"/><path d="M1091.487 3523.968a16.75 16.75 0 0 1-7.924 14.326l-24.238 15.019a4.94 4.94 0 0 1-7.553-4.206v-42.286c.001-3.94 2.561-7.423 6.321-8.6l24.682-7.616c1.916-.592 3.997-.283 5.658.84s2.723 2.94 2.886 4.939c.017.169.025.338.025.508z" fill="#b3c5f0"/><path d="M1057.722 3553.956c-6.119 3.613-13.4 1.535-14.57 1.161a7.29 7.29 0 0 0 8.619-7.17v1.159a4.95 4.95 0 0 0 5.951 4.85z" fill="#c9d8fa"/><path d="M1056.246 3498.79l1.847-.571c-3.76 1.177-6.321 4.66-6.321 8.6v2.942a13.8 13.8 0 0 0-7.238-12.142l2.823 1a14.17 14.17 0 0 0 8.889.171z" fill="#fff"/><path d="M1091.409 3496.205l-.09.178c-.164-1.999-1.225-3.815-2.886-4.939s-3.742-1.433-5.658-.841l2.532-.783a1.86 1.86 0 0 0-.039-3.564c5.443.478 6.141 9.949 6.141 9.949z" fill="#b0c3ee"/></g><path d="M104.421 118.994c-5.288 12.505-10.916 22.906-12.558 21.637-3.887-2.997.325-15.946 2.253-20.594.388-.942 1.034-3.166 1.88-6.101-3.584-2.217-6.346-3.974-7.491-4.524-4.544-2.165-16.334-8.97-15.456-13.8.392-2.147 12.77 2.382 25.845 8.647 3.59-11.316 8.687-24.308 14.168-23.923 4.244.299.681 14.28-4.695 28.717 12.831 6.857 23.596 14.267 20.781 17.184a3.63 3.63 0 0 1-1.348.873c-4.558 1.751-14.542-3.051-23.38-8.117z" fill="#0f426d"/></svg>
