<svg xmlns="http://www.w3.org/2000/svg" width="215.086" height="215.824" ><path d="M97 11.824c48.049 0 107 58.951 107 107s-58.951 97-107 97-97-48.951-97-97 48.951-107 97-107zm52.215.363c4.3 13.768 40.013 20.651 54.641 56.792s17.64-8.175-7.314-32.7-51.63-37.855-47.327-24.092zM136.814.307c-5.788 2.911-7.438 8.829.906 12.517s4.882-15.432-.906-12.517z" fill="#0f426d"/><path d="M72.521 100.224c13.594 0 31 34.546 31 51.667s-13.879 31-31 31-31-13.879-31-31 17.406-51.667 31-51.667z" fill="#ffc300"/><path d="M84.004 134.625c2.784-2.088 10.787 9.4 10.265 18.791s-6.437 13.745-10.265 16.007-7.83-2.61-2.61-5.219 8.874-8 6.96-13.223-7.134-14.269-4.35-16.356z" fill="#ffed00"/><g transform="matrix(.587785 .809017 -.809017 .587785 -317.368 -639.809)"><path d="M843.67 48.5a4.012 4.012 0 0 1-4 4h-29a4 4 0 0 1 0-8h.5v-36a14 14 0 0 1 28 0v36h.5a4.012 4.012 0 0 1 4 4z" fill="#8baeff"/><g fill="#dee8ff"><path d="M814.81 90.354V54.5h20.71v23.332l-20.71 12.521z"/><path d="M816.81 56.5v30.307l16.71-10.103V56.5h-16.71m-4-4h24.71v26.46L812.81 93.9V52.5z" fill="#b3c5f0"/></g><path d="M837.52,73.98V98.15a12.393,12.393,0,0,1-8.35,11.67v1.68a4,4,0,0,1-8,0v-1.68a12.389,12.389,0,0,1-8.36-11.67V88.92Z" fill="#ffba00"/></g><path d="M111.421 160.327c-5.288 12.505-10.916 22.906-12.558 21.637-3.887-2.997.325-15.946 2.253-20.594.388-.942 1.034-3.166 1.88-6.101-3.584-2.217-6.346-3.974-7.491-4.524-4.544-2.165-16.334-8.97-15.456-13.8.392-2.147 12.77 2.382 25.845 8.647 3.59-11.316 8.687-24.308 14.168-23.923 4.244.299.681 14.28-4.695 28.717 12.831 6.857 23.596 14.267 20.781 17.184a3.63 3.63 0 0 1-1.348.873c-4.558 1.751-14.542-3.051-23.38-8.117z" fill="#dee8ff"/></svg>
