<svg xmlns="http://www.w3.org/2000/svg" width="215.086" height="215.823" ><path d="M97 11.823c48.049 0 107 58.951 107 107s-58.951 97-107 97-97-48.951-97-97 48.951-107 97-107zm52.215.363c4.3 13.768 40.013 20.651 54.641 56.792s17.64-8.175-7.314-32.7-51.63-37.855-47.327-24.092zM136.814.306c-5.788 2.911-7.438 8.829.906 12.517s4.882-15.432-.906-12.517z" fill="#dee8ff"/><path d="M99.949 113.34V50.999c34.2 0 66.441 28.142 66.441 62.341s-32.242 62.341-66.441 62.341z" fill="#0a1233"/><path d="M99.949 113.34V84.899c14.467 0 28.441 13.974 28.441 28.441s-13.974 26.371-28.441 26.371z" fill="#eeedf0"/><path d="M114.168 68.72s3.258-4.755 3.963-2.994-.529 2.641.792 3.434c.895.553 1.749 1.171 2.554 1.849 0 0-.44 2.378-2.554 1.673s.352 3.258-.7 3.346-2.642-2.906-2.642-2.906-1.937 2.465-3.258 1.409 1.761-2.025 1.233-2.994-3.7-1.5-3.258-2.465 3.87-.352 3.87-.352zm28.339 33.432s2.274-.28 1.934.393-.926.537-.815 1.14a8.7 8.7 0 0 1 .121 1.248s-.824.494-1.17-.321-.878.962-1.183.67.171-1.552.171-1.552-1.244.071-1.277-.6 1.067-.008 1.216-.42-.527-1.5-.123-1.62 1.126 1.062 1.126 1.062zm-1.358-18.492s2.274-.28 1.935.393-.926.538-.815 1.14a8.86 8.86 0 0 1 .121 1.248s-.825.494-1.171-.321-.878.962-1.182.67.171-1.552.171-1.552-1.244.072-1.277-.6 1.067-.008 1.217-.42-.527-1.5-.123-1.62 1.124 1.062 1.124 1.062zm4.676 52.064s.578 3.851-.581 3.3-.954-1.549-1.972-1.333a14.74 14.74 0 0 1-2.114.261s-.877-1.378.492-2-1.674-1.449-1.192-1.979 2.643.221 2.643.221-.177-2.111.963-2.2.061 1.812.768 2.048 2.518-.962 2.746-.281-1.753 1.963-1.753 1.963zm-32.22 16.097s.259 1.726-.261 1.481-.428-.694-.884-.6a6.6 6.6 0 0 1-.948.117s-.393-.618.221-.9-.75-.65-.534-.887 1.185.1 1.185.1-.079-.946.431-.984.027.812.345.918 1.128-.431 1.231-.126-.786.881-.786.881zm20.876-.136s-1.445.978-1.448.4.442-.686.157-1.056a6.47 6.47 0 0 1-.514-.8s.387-.621.9-.188.262-.957.57-.865.422 1.112.422 1.112.819-.48 1.074-.036-.721.376-.679.707.876.832.645 1.056-1.127-.33-1.127-.33z" fill="#ffbc0f"/><path d="M115.61 99.802c-.091 2.137-1.793 3.854-3.929 3.963a4.01 4.01 0 0 1 0-7.925c2.136.109 3.838 1.825 3.929 3.962zm4.992 3.888c.527 1.117.117 2.452-.946 3.081-1.082.375-2.275-.097-2.807-1.111s-.243-2.264.68-2.941a2.39 2.39 0 0 1 3.073.971zm-10.123 23.684c.913 1.935.203 4.246-1.638 5.335a4.01 4.01 0 0 1-3.682-7.018c1.942-.897 4.247-.167 5.32 1.683zm-2.204-9.728c-2.331-.794-3.418-3.792-2.679-5.962a4.47 4.47 0 0 1 8.44 2.876c-.738 2.171-3.43 3.886-5.761 3.086zm7.359 8.708c-.689-.235-1.536.424-1.8 1.207a1.33 1.33 0 1 0 2.493.849 1.65 1.65 0 0 0-.693-2.056z" fill="#dfdfde"/><path d="M99.772 113.34V50.999c-34.2 0-65.075 28.142-65.075 62.341s30.875 62.341 65.075 62.341z" fill="#8baeff"/><path d="M97.749 167.602a11.94 11.94 0 0 1-9.286-4.424 8.61 8.61 0 0 1-1.466 1.069c-1.937 1.12-4.24 1.424-6.402.846s-4.005-1.991-5.125-3.928v-.007a8.47 8.47 0 0 1-.625-1.337c-3.383 1.68-7.489.366-9.268-2.966s-.587-7.475 2.691-9.352a6.99 6.99 0 0 1 3.481-.934 6.92 6.92 0 0 1 1.3.123 8.5 8.5 0 0 1 1.288-3.629c.725-1.134 1.713-2.075 2.881-2.744a21.05 21.05 0 0 0 20.546-4.1c.786.291 1.524.698 2.19 1.206v29.97c-.727.137-1.465.206-2.205.207z" fill="#fff"/><path d="M99.772 131.204l-.154-.02V92.436l.154.02V70.574a2.1 2.1 0 0 0-1.784 1.086 50.73 50.73 0 0 0-4.707 10.829 57.87 57.87 0 0 0-7.461-6.306 2.13 2.13 0 0 0-3.378 1.788c.135 4.547.687 11.731 2.713 15.625a17.86 17.86 0 0 0-.445.359l-.405-.333c-3.322-2.64-9.54-4.453-13.646-5.426a2.13 2.13 0 0 0-2.434 2.947c1.854 4.114 5.08 10.464 8.416 13.318l-.075.176c-4.368.006-10.564 2.112-14.512 3.656a2.13 2.13 0 0 0-.323 3.809c3.615 2.177 9.326 5.232 13.547 5.67h.036l.019.069c-3.383 2.8-6.67 9.266-8.548 13.434a2.13 2.13 0 0 0 2.434 2.947c3.872-.918 9.619-2.583 13.048-4.984l.256.236c-1.9 3.956-2.428 10.889-2.56 15.319a2.13 2.13 0 0 0 3.378 1.788c3.2-2.315 7.824-6.017 10.089-9.525.038 4.382 2.43 10.728 4.145 14.723.368.867 1.265 1.386 2.2 1.273z" fill="#ffbc0f"/><path d="M38.549 92.746a63.92 63.92 0 0 1 16.886-24.348A9.91 9.91 0 0 1 61 77.305a10.09 10.09 0 0 1-.149 1.726 8.2 8.2 0 0 1 3.767 15.165 8.2 8.2 0 0 1-9.647-.765 9.91 9.91 0 0 1-16.422-.685z" fill="#fff"/></svg>
