<svg xmlns="http://www.w3.org/2000/svg" width="215.086" height="215.824" ><path d="M97 11.823c48.049 0 107 58.951 107 107s-58.951 97-107 97-97-48.951-97-97 48.951-107 97-107zm52.215.363c4.3 13.768 40.013 20.651 54.641 56.792s17.64-8.175-7.314-32.7-51.63-37.855-47.327-24.092zM136.814.306c-5.788 2.911-7.438 8.829.906 12.517s4.882-15.432-.906-12.517z" fill="#0f426d"/><path d="M157.309 81.88s8.758 9.926 10.8 16.641.729 10.072 5.693 10.072 3.941 11.24 3.8 16.641 1.9 9.78-2.044 10.656-.876-4.087-11.385 7.007-27.009 17.37-27.009 17.37-2.773 10.072-10.8 12.116-16.641 0-16.641 0l-4.087-13.576-18.246 1.46s-1.314 4.816-5.693 5.108-4.533 6.569-4.533 6.569l-22.771-.437s-16.495-27.3-18.394-34.449a56.86 56.86 0 0 1-2.043-11.24c0 0-8.175-5.986-7.737-11.679s9.051-7.59 9.051-7.59-2.628-26.422 28.9-37.077 75.177 2.919 75.177 2.919 8.9-5.4 17.224-4.087a41.5 41.5 0 0 1 13.138 4.087c0 0-6.999 10.953-12.4 9.489z" fill="#ff99c9"/><g fill="#ae3939"><path d="M80.453 75.529s-5.363 6.242 3.5 5.146 18.282-1.532 27.808.329 11.385-.767 4.706-3.175-29.335-7.446-36.014-2.3zm55.471 6.715s.875-3.648 10.8-4.816 11.094.583 11.094.583-.95 12.919-9.343 13.284-16.638-4.161-12.551-9.051z"/><ellipse cx="158.877" cy="108.045" rx="4.16" ry="4.051"/></g><path d="M115.225 37.148c6.485 8.025 3.9 20.869-4.127 27.354-3.855 3.114-8.788 4.569-13.716 4.045s-9.445-2.984-12.558-6.839c-6.485-8.027-6.314-21.124 1.713-27.609s22.203-4.978 28.688 3.049z" fill="#ffba00"/></svg>
