<svg xmlns="http://www.w3.org/2000/svg" xmlns:xlink="http://www.w3.org/1999/xlink" width="215.086" height="215.823" ><path d="M97 11.823c48.049 0 107 58.951 107 107s-58.951 97-107 97-97-48.951-97-97 48.951-107 97-107z" fill="#0f426d"/><path d="M149.215 12.186c4.3 13.768 40.013 20.651 54.641 56.792s17.64-8.175-7.314-32.7-51.63-37.855-47.327-24.092zM136.814.306c-5.788 2.911-7.438 8.829.906 12.517s4.882-15.432-.906-12.517zM84.163 214.691c-20.7-3.608-40.738-15.558-56.064-31.8a133.44 133.44 0 0 0 1.822-34.317l26.122 4.474 31.618 4.218c36.236 4.36 75.767 1.931 98.578 9.007-18.681 24.988-49.3 44.514-78.036 48.714z" fill="#b3c5f0"/><path d="M87.661 157.263l-31.619-4.218-26.122-4.474-.038-.387a72.55 72.55 0 0 0-6.14-23.837c0 0 20.037 1.042 54.335 11.33q2.383.712 4.862 1.489l19.764 6.292h.008a18.1 18.1 0 0 0 3.315.563c.011.002.023.002.034 0l1.125.179h0c4.145 3.488 8.014 6.507 10.709 8.466 8.42 6.125 10.716 3.828 14.544-6.506l.127-.356c3.141.874 6.489-.372 8.293-3.088.2-.265.391-.533.582-.8l17.024-.344c20.207-.223 30.268 5.932 34.37 14.782-2.013 3.426-4.217 6.737-6.6 9.917-22.807-7.077-62.337-4.648-98.573-9.008z" fill="#dee8ff" stroke="rgba(0,0,0,0)"/><path d="M81.82 65.368a4.24 4.24 0 0 0 1.187-.44c-.387.169-.783.315-1.187.44zm0 0a4.24 4.24 0 0 0 1.187-.44c-.387.169-.783.315-1.187.44zm0 0a4.24 4.24 0 0 0 1.187-.44c-.387.169-.783.315-1.187.44zm0 0a4.24 4.24 0 0 0 1.187-.44c-.387.169-.783.315-1.187.44zm0 0a4.24 4.24 0 0 0 1.187-.44c-.387.169-.783.315-1.187.44zm6.055 18.736l.115 4.459c1.304 1.992 3.195 3.53 5.412 4.4 2.628 1.068 5.48 1.468 8.3 1.164l.054-.842c-5.866-.608-11.202-5.4-13.876-9.181zM81.82 65.368a4.24 4.24 0 0 0 1.187-.44c-.387.169-.783.315-1.187.44zm6.055 18.736c.083 1.336.153 2.981.115 4.459 1.304 1.992 3.195 3.53 5.412 4.4 2.628 1.068 5.48 1.468 8.3 1.164l.054-.842c-5.866-.608-11.202-5.4-13.876-9.181zM81.82 65.368a4.24 4.24 0 0 0 1.187-.44c-.387.169-.783.315-1.187.44zm6.055 18.736c.083 1.336.153 2.981.115 4.459 1.304 1.992 3.195 3.53 5.412 4.4 2.628 1.068 5.48 1.468 8.3 1.164l.054-.842c-5.866-.608-11.202-5.4-13.876-9.181zM81.82 65.368a4.24 4.24 0 0 0 1.187-.44c-.387.169-.783.315-1.187.44zm6.055 18.736c.083 1.336.153 2.981.115 4.459 1.304 1.992 3.195 3.53 5.412 4.4 2.628 1.068 5.48 1.468 8.3 1.164l.054-.842c-5.866-.608-11.202-5.4-13.876-9.181zM81.82 65.368a4.24 4.24 0 0 0 1.187-.44c-.387.169-.783.315-1.187.44zm0 0a4.24 4.24 0 0 0 1.187-.44c-.387.169-.783.315-1.187.44zm0 0a4.24 4.24 0 0 0 1.187-.44c-.387.169-.783.315-1.187.44zm0 0a4.24 4.24 0 0 0 1.187-.44c-.387.169-.783.315-1.187.44zm6.055 18.736c.083 1.336.153 2.981.115 4.459 1.304 1.992 3.195 3.53 5.412 4.4 2.628 1.068 5.48 1.468 8.3 1.164l.054-.842c-5.866-.608-11.202-5.4-13.876-9.181zM81.82 65.368a4.24 4.24 0 0 0 1.187-.44c-.387.169-.783.315-1.187.44zm6.055 18.736c.083 1.336.153 2.981.115 4.459 1.304 1.992 3.195 3.53 5.412 4.4 2.628 1.068 5.48 1.468 8.3 1.164l.054-.842c-5.866-.608-11.202-5.4-13.876-9.181zM81.82 65.368a4.24 4.24 0 0 0 1.187-.44c-.387.169-.783.315-1.187.44zm6.055 18.736c.083 1.336.153 2.981.115 4.459 1.304 1.992 3.195 3.53 5.412 4.4 2.628 1.068 5.48 1.468 8.3 1.164l.054-.842c-5.866-.608-11.202-5.4-13.876-9.181zM81.82 65.368a4.24 4.24 0 0 0 1.187-.44c-.387.169-.783.315-1.187.44zm6.055 18.736c.083 1.336.153 2.981.115 4.459 1.304 1.992 3.195 3.53 5.412 4.4 2.628 1.068 5.48 1.468 8.3 1.164l.054-.842c-5.866-.608-11.202-5.4-13.876-9.181zM81.82 65.368a4.24 4.24 0 0 0 1.187-.44c-.387.169-.783.315-1.187.44zm0 0a4.24 4.24 0 0 0 1.187-.44c-.387.169-.783.315-1.187.44zm6.055 18.736c.083 1.336.153 2.981.115 4.459 1.304 1.992 3.195 3.53 5.412 4.4 2.628 1.068 5.48 1.468 8.3 1.164l.054-.842c-5.866-.608-11.202-5.4-13.876-9.181zM81.82 65.368a4.24 4.24 0 0 0 1.187-.44c-.387.169-.783.315-1.187.44zm0 0a4.24 4.24 0 0 0 1.187-.44c-.387.169-.783.315-1.187.44zm0 0a4.24 4.24 0 0 0 1.187-.44c-.387.169-.783.315-1.187.44z" fill="#fbb03b"/><path d="M168.803 99.467c-1.891 1.08-7.406 2.542-13.99 4.926-2.74.991-5.668 2.143-8.592 3.494a40.92 40.92 0 0 1-2.587 1.087c-2.526.952-5.11 1.741-7.736 2.362l-.011-1.917s2.679-.766 4.593-6.124 5.358-9.186 6.889-11.482.383-2.679-1.914-1.148-4.976 5.358-4.976 5.358a20.57 20.57 0 0 1 1.531-5.741c1.149-2.3 5.741-6.124 2.3-5.741-2.514.28-4.616 4.425-4.983 5.163l.39-.953c1.531-3.827 4.976-5.741 3.062-6.889-1.745-1.045-4.443 3.628-4.907 4.467.272-.582 1.416-3.031 1.08-3.7-.383-.765-1.531-.765-3.062 1.531-.925 1.395-1.575 2.954-1.914 4.593a2.65 2.65 0 0 0-1.531-1.148c-1.148-.383-1.531 3.828-2.679 7.272s-.383 9.951-.383 9.951l-1.922 8.118c-2.924.425-4.845.57-4.845.57-.012.004-.025.006-.038.008-.245-4.823-3.4-11.532-2-15.969 2.3-7.272 11.482-11.865 8.037-20.668-1.435-3.671-3.4-8-5.212-11.808.777-2.235 1.129-6.155-.911-12.688-3.828-12.248-20.286-13.013-20.286-13.013-12.649-1.764-18.923 1.742-21.851 6.733h0c-2.473 2.384-5.584 6.927-7.617 15.463-3.827 16.075 3.828 14.927.766 26.792s-8.42 6.124-4.976 22.582c1.172 5.6 3.139 9.113 5.229 11.314l-19.007 3.613c-10.717 2.3-7.655-2.3-6.125-10.717s-1.531-11.865-10.717-23.73.766-17.606-4.21-31.768 1.531-12.248 8.8-12.631 13.013-3.445 29.472-8.42 22.582 1.531 40.954-7.655 19.9-1.531 28.323-5.358 9.951-2.3 12.631 0 1.531 18.755 6.506 41.719 3.827 15.31 9.186 22.2 1.912 8.422-.767 9.952z" fill="#dee8ff"/><use xlink:href="#B" fill="#fbb03b"/><path d="M123.402 65.078l-1.883 5.81a5.39 5.39 0 0 0-3.764-1.723c-4.297-.212-8.501-1.327-12.339-3.271-8.037-4.21-18.3-4.463-20.131-2.476-.648.654-1.423 1.169-2.277 1.512-.387.169-.783.316-1.187.44-.741.236-1.5.411-2.269.524a7.91 7.91 0 0 0-.035-.107c-.372-1.194-3.594-12.125.834-19.673h0c2.929-4.991 9.2-8.5 21.851-6.733 0 0 16.458.766 20.286 13.014 2.044 6.528 1.694 10.448.914 12.683z" fill="#603813"/><path d="M116.751 81.861c-1.516 4.93-5.29 11.367-13.557 11.479h0-.218a12.65 12.65 0 0 1-1.217-.062c-5.864-.6-11.2-5.4-13.879-9.178-.13-.18-.252-.364-.368-.54a9.47 9.47 0 0 1-1.377-2.852l-.766-3.444a6.38 6.38 0 0 1-6.123-2.679c-2.193-2.821-1.823-7.437.275-8.8l.035.107a14.39 14.39 0 0 0 2.27-.524c.415-.086.815-.235 1.186-.44a6.73 6.73 0 0 0 2.277-1.512c1.83-1.986 10.147-3.45 18.185.76 4.471 2.343 11.2 4.979 14.285 5.125.083 4.469-.055 9.469-1.008 12.56z" fill="#ffd1c5"/><path d="M83.007 64.928a4.24 4.24 0 0 1-1.187.44c.404-.125.8-.271 1.187-.44z" fill="#fbb03b"/><path d="M122.575 113.522c.157 3.089-.876 5.4-5.06 5.848l-.119.011h0l-5.963-3.18-.31-.651-.414-.865-2.537-5.534c-1.692-3.7-3.208-6.928-4.049-7.77a23.11 23.11 0 0 1-2.68-3.062l.261-4.195.053-.842 1.217.062h.218 0c8.268-.111 12.041-6.549 13.557-11.479.953-3.093 1.046-8.177.958-12.651a5.54 5.54 0 0 0 4.017-1.51c.811-.685 1.395-1.599 1.676-2.622 1.811 3.8 3.778 8.137 5.213 11.808 3.445 8.8-5.741 13.4-8.038 20.668-1.399 4.432 1.756 11.142 2 15.964zM87.991 88.563a12.58 12.58 0 0 1-.329 2.867l-1.271 4.176-.26.8a6.72 6.72 0 0 0-.743.486c-1.615 1.171-5.423 4.612-6.912 11.762a69.38 69.38 0 0 0-.96 12.921l.038 3.433a11.88 11.88 0 0 1-3.8-2.744c-2.09-2.2-4.057-5.718-5.229-11.314-3.445-16.458 1.914-10.717 4.976-22.582s-4.593-10.717-.766-26.792c2.032-8.535 5.144-13.078 7.617-15.463-4.429 7.548-1.206 18.479-.834 19.673-2.1 1.366-2.468 5.982-.275 8.8a6.38 6.38 0 0 0 6.124 2.679l.766 3.445c.296 1.021.761 1.985 1.377 2.851.115.176.237.36.368.54.082 1.339.151 2.984.113 4.462z" fill="#8c6239"/><path d="M110.707 114.686c-5.309.673-5.822-2.974-7.735-6.8a16.1 16.1 0 0 0-2.7-3.651c-1.408-1.46-2.937-2.798-4.57-4-.529.117-1.07.172-1.611.161-1.379.023-2.757-.031-4.13-.161a5.54 5.54 0 0 1-4.57-3.341c.236-.178.484-.341.742-.486l.261-.8a129.32 129.32 0 0 0 1.271-4.176c.219-.94.33-1.902.329-2.867a11.49 11.49 0 0 0 5.412 4.4c2.628 1.068 5.48 1.468 8.3 1.164l-.261 4.195a23.18 23.18 0 0 0 2.679 3.062c.842.842 2.358 4.069 4.05 7.77l2.533 5.53z" fill="#ffd1c5"/><g fill="#fbb03b"><use xlink:href="#B"/><path d="M120.225 136.127l-6.155-6.422a65.54 65.54 0 0 1-5.531-7.973l-.6-.937-2.717-4.2c-3.078-4.681-6.384-9.354-9.144-11.769-3.682-3.223-6.813-2.985-8.723-2.285-2.446.41-3.56 2.664-4.673 5.73-1.185 4.092-1.643 8.361-1.351 12.611.092 1.695.36 3.375.8 5.014.773 2.806 2.144 5.19 4.383 6.488 4.673 2.706 6.816 1.3 7.754-.046 3.858 3.965 8.447 8.091 12.753 11.724.053.046.11.092.164.142l-1.125-.18c-.012.002-.023.002-.035 0l-3.314-.562h-.007c-3.41-.854-8.386-2.725-19.765-6.292q-2.474-.775-4.861-1.489c-.069-.869-.41-5.328-.524-10.667l-.038-3.433a69.34 69.34 0 0 1 .96-12.922c1.489-7.149 5.3-10.59 6.912-11.762a5.54 5.54 0 0 0 4.57 3.341 37.4 37.4 0 0 0 4.13.161c.541.011 1.082-.044 1.611-.161a36 36 0 0 1 4.57 4 16.1 16.1 0 0 1 2.7 3.652c1.914 3.827 2.426 7.475 7.72 6.8.154.291.291.578.429.865.1.218.207.436.311.651.669 1.385 1.32 2.66 1.921 3.716a19.09 19.09 0 0 0 1.1 1.749c3.051 4.187 7.992 8.751 5.775 14.456z"/></g><use xlink:href="#B" fill="#d5a396"/><path d="M117.899 152.667c-2.694-1.96-6.563-4.979-10.709-8.467h0c-.052-.049-.111-.094-.165-.142-4.305-3.631-8.895-7.757-12.752-11.722a64.65 64.65 0 0 1-6.518-7.621c-.777-1.076-1.447-2.225-2-3.432l-.463-1.118c-3.229-8.049-1.748-12.094.082-16.489.593-.493 1.268-.878 1.994-1.136 1.91-.7 5.04-.938 8.721 2.285 2.762 2.415 6.068 7.088 9.146 11.768l2.717 4.2.6.938c1.643 2.791 3.492 5.456 5.531 7.972 1.958 1.96 4.543 4.7 6.154 6.423l1.5 1.614 3.341-14.268 1.635-7.164.759-3.365 1.921-8.117s-.766-6.507.382-9.952 1.531-7.656 2.68-7.272a2.64 2.64 0 0 1 1.531 1.149c.339-1.639.989-3.199 1.914-4.594 1.531-2.3 2.678-2.3 3.062-1.531.336.669-.808 3.119-1.079 3.7.462-.839 3.161-5.511 4.906-4.467 1.914 1.149-1.531 3.062-3.062 6.89l-.39.951c.367-.738 2.467-4.883 4.982-5.162 3.445-.384-1.147 3.443-2.3 5.741-.786 1.829-1.302 3.763-1.531 5.741 0 0 2.68-3.829 4.976-5.359s3.445-1.147 1.914 1.149-4.976 6.123-6.89 11.483-4.592 6.123-4.592 6.123l.012 1.917c0 2.634-.046 7.69-.333 13.309-.22 5.899-.89 11.772-2.006 17.568a31.15 31.15 0 0 1-.992 3.594l-.125.356c-2.424 6.544-4.234 9.865-7.374 9.866-1.827.002-4.091-1.112-7.179-3.359zm-31.386-20.285c-2.239-1.3-3.61-3.682-4.382-6.487a24.47 24.47 0 0 1-.8-5.013c-.291-4.251.166-8.519 1.351-12.612 1.113-3.066 2.228-5.32 4.672-5.73a6.57 6.57 0 0 0-1.994 1.136c-1.83 4.395-3.31 8.44-.08 16.489.142.364.3.735.463 1.118.553 1.207 1.223 2.356 2 3.432a64.65 64.65 0 0 0 6.518 7.621c-.699 1.033-1.881 1.633-3.127 1.589a9.52 9.52 0 0 1-4.621-1.542z" fill="#ffd1c5" stroke="rgba(0,0,0,0)" stroke-miterlimit="10"/><path d="M125.067 123.473l-3.341 14.269-1.5-1.615c2.216-5.7-2.725-10.269-5.772-14.46a19.03 19.03 0 0 1-1.1-1.749c-.6-1.056-1.252-2.331-1.922-3.716l5.963 3.18h0zm29.748-19.08c-1.443 7.674-5.607 26.536-13.37 37.521-.191.272-.386.54-.582.8a7.53 7.53 0 0 1-8.294 3.089c.401-1.177.732-2.377.991-3.594a115.73 115.73 0 0 0 2.005-17.568c1.818-2.438 4.471-7.031 8.069-15.67.884-.337 1.749-.7 2.587-1.087 2.925-1.347 5.853-2.5 8.594-3.491z" fill="#d5a396"/><path d="M90.5 64.776a13.75 13.75 0 0 1 5.385-.383 6.42 6.42 0 0 1 4.189 1.911" fill="#283547"/><path d="M101.803 82.759c2.08 1.409 3.58 1.091 4.119-.406.352-.975-.56-2.874-.56-2.874l-1.102-2.564h0c-.213.697.704 3.455.704 3.455.173.441.247.915.216 1.388-.267 1.135-1.489 1.858-3.379 1.002z" fill="#db7c65"/><path d="M88.526 70.334c6.196 5.35 12.511 6.017 10.784-.738-1.044 3.646-1.157 5.606-10.784.738zm27.321 1.122c-3.466 6.546-7.406 4.525-6.783-.048 1.245 4.331 3.703 4.28 6.783.048z" fill="#283547"/><path d="M96.224 82.907a4.97 4.97 0 0 0 3.164 2.564c1.192.384 3.771-.177 5.411.057 0 0-1.556 2.473-5.11 1.38-3.35-1.03-3.585-3.469-3.464-4.002z" fill="#db7c65"/><defs ><path id="B" d="M101.754 93.282l-.054.842a17.16 17.16 0 0 1-8.3-1.164c-2.217-.87-4.108-2.408-5.412-4.4.039-1.477-.031-3.123-.115-4.459 2.681 3.785 8.017 8.576 13.881 9.181z"/></defs></svg>
