<svg xmlns="http://www.w3.org/2000/svg" xmlns:xlink="http://www.w3.org/1999/xlink" width="127.965" height="105.728" ><defs><linearGradient id="A" x1=".244" y1="-.078" x2=".665" y2=".873"><stop offset="0" stop-color="#6d515b"/><stop offset="1" stop-color="#1b2139"/></linearGradient><linearGradient id="B" x1=".739" y1=".191" x2=".008" y2=".621"><stop offset=".641" stop-color="#ffd7a5"/><stop offset="1" stop-color="#faa96c"/></linearGradient><linearGradient id="C" x1="-.036" y1=".636" x2=".971" y2=".424" xlink:href="#A"/></defs><path d="M108.73.092c4.646.567 21.053 20.575 19.07 75.41-.991 27.382-24.424 19.8-27.571.558C97.113 57.018 86.277-2.654 108.73.092z" fill="url(#A)"/><path d="M74.389 80.839l-43.922 3.8c-8.442-3.575-15.861-5.2-18.627-2.731S-1.314 95.595.14 99.847s6.241.78 6.241.78c-1.781 1.215 3.7 4.045 6.239 4.68 3.123.744 6.402.471 9.359-.78 3-1.217 13.837-12.056 15.056-12.505 6.185-1.609 38.752-3.825 38.752-3.825z" fill="url(#B)"/><path d="M105.439 74.387c-14.827-.626-43.68 1.284-64.74 6.743.054 1.9-.78 10.141.78 13.261 21.841 2.339 57.2 1.593 70.627.23 15.828-1.608 22.209-19.015-6.667-20.234z" fill="url(#C)"/></svg>
