<svg xmlns="http://www.w3.org/2000/svg" xmlns:xlink="http://www.w3.org/1999/xlink" width="39.648" height="225.361" ><defs><linearGradient id="A" x1="1.093" y1=".069" x2=".29" y2=".813"><stop offset=".641" stop-color="#ffd7a5"/><stop offset="1" stop-color="#faa96c"/></linearGradient><linearGradient id="B" x1=".648" y1=".256" x2=".413" y2=".992" xlink:href="#A"/><linearGradient id="C" x1=".037" y1="-.025" x2=".887" y2=".88"><stop offset="0" stop-color="#694538"/><stop offset="1" stop-color="#1c1007"/></linearGradient><linearGradient id="D" x1="-3.736" y1="26.745" x2="-3.437" y2="25.992" xlink:href="#C"/></defs><path d="M13.932 192.575c2.044-1.93.167 18.8-3.12 19.5s-10.921-6.238 3.12-19.5z" fill="url(#A)"/><path d="M23.291 130.176l-5.459 53.82c-6.241 9.361-10.921 15.6-8.58 19.5s0 22.621 5.459 21.841 12.2-7.1 12.2-7.1c1.059 2.422 4.179 3.2 4.959.083s6.241-19.5 5.461-23.4-8.835-15.577-9.1-17.148c-.526-7.824 4.251-47.592 4.251-47.592z" fill="url(#B)"/><path d="M11.022 1.631c17.73 10.764 27.869 72.367 27.869 90.325 0 10.919-11.387 20.147-17.16 6.239s-16.38-61.62-19.5-70.2-5.008-34.739 8.791-26.364z" fill="url(#C)"/><path d="M31.073 181.78c8.525-37.886 10.028-75.829 7.405-88.439s-17.139-8.541-18.1 9.76-.9 58.9-4.678 74.091c7.775-2.065 15.373 4.588 15.373 4.588z" fill="url(#D)"/></svg>
