<svg xmlns="http://www.w3.org/2000/svg" xmlns:xlink="http://www.w3.org/1999/xlink" width="144.624" height="102.211" ><defs><linearGradient id="A" x1="499.221" y1="-17.922" x2="499.109" y2="-16.988"><stop offset=".641" stop-color="#ffd7a5"/><stop offset="1" stop-color="#faa96c"/></linearGradient><linearGradient id="B" x1="654.632" y1="115.84" x2="656.145" y2="115.84"><stop offset="0" stop-color="#b5ffff"/><stop offset=".675" stop-color="#89c9ff"/></linearGradient><linearGradient id="C" x1="1.393" y1=".053" x2="-.009" y2=".699"><stop offset="0" stop-color="#f55"/><stop offset="1" stop-color="#922855"/></linearGradient><linearGradient id="D" x1="-74.782" y1="145.19" x2="-74.533" y2="143.221" xlink:href="#A"/><linearGradient id="E" x1="0" y1=".5" x2="1" y2=".5" xlink:href="#B"/><linearGradient id="F" x1="-123.464" y1="233.952" x2="-123.536" y2="235.168" xlink:href="#A"/><linearGradient id="G" x1=".019" y1=".087" x2="1.016" y2=".772" xlink:href="#C"/></defs><path d="M36.112 61.049c4.269 7.124 11.074 13.123 10.854 17.35s3.393 22.107-.725 23.157-13.1-2.991-12.907-4.537c-1.481 1.379-4.377 1.643-5.8-2.346s-7.2-9.014-5.575-15.125 7.5-12.47 5.289-18.629 6.751-3.397 8.864.13z" fill="url(#A)"/><path d="M27.591 16.558l11.7 49.14c-9.361-3.9-13.261 3.9-13.261 3.9-7.8-17.939-14.819-33.54-16.38-39.779 6.241-8.581 17.941-13.261 17.941-13.261z" fill="url(#B)"/><path d="M3.847 39.819C-.925 28.398-.489 19.679 1.07 17.338 7.311 7.979 28.231-.833 37.27.063c.919 4.913 0 16.137 0 16.137C22.13 13.44 6.622 31.88 3.847 39.819z" fill="url(#C)"/><path d="M129.487 36.896c-7.259 6.3-46.389 35.07-55.471 38.073s-12.109.16-2.312-9.057 41.964-38.1 48.081-41.84 20.844 3.152 9.702 12.824z" fill="url(#D)"/><path d="M121.191 20.707c-12.48 9.113-45.24 39.881-48.75 43.216 7.8 5.112 7.41 9.576 7.41 9.576 17.159-9.359 54-35.576 55.081-39.627s-13.741-13.165-13.741-13.165z" fill="url(#E)"/><path d="M69.124 68.545c-7.575 3.406-16.586 4.438-18.823 8.033s-15.422 16.2-12.643 19.414 12.458 5.034 13.183 3.657c.427 1.976 2.654 3.849 6.1 1.391s11.057-3.284 13.22-9.225.977-14.516 6.309-18.307-3.598-6.648-7.346-4.963z" fill="url(#F)"/><path d="M104.032 18.899a105.1 105.1 0 0 0 1.559-15.6c30.593 2.771 38.286 24.483 39.033 30.572-.548 5.519-2.434 10.821-5.493 15.447-2.339-10.138-14.993-25.225-35.099-30.419z" fill="url(#G)"/></svg>
