<svg xmlns="http://www.w3.org/2000/svg" xmlns:xlink="http://www.w3.org/1999/xlink" viewBox="0 0 99.93 188.67"><defs><style>.cls-1{fill:url(#Безымянный_градиент_3070);}.cls-2{fill:url(#Безымянный_градиент_3070-2);}.cls-3{fill:url(#Безымянный_градиент_3070-3);}.cls-4{fill:url(#Безымянный_градиент_159);}.cls-5{fill:url(#Безымянный_градиент_159-2);}.cls-6{fill:url(#Безымянный_градиент_785);}.cls-7{fill:url(#Безымянный_градиент_785-2);}</style><linearGradient id="Безымянный_градиент_3070" x1="4420.43" y1="-215.92" x2="4420.43" y2="-122.42" gradientTransform="translate(-3734.75 2377.76) rotate(-28.99)" gradientUnits="userSpaceOnUse"><stop offset="0" stop-color="#5d7d91"/><stop offset="1" stop-color="#170f1f"/></linearGradient><linearGradient id="Безымянный_градиент_3070-2" x1="922.11" y1="-187.69" x2="921.36" y2="-133.4" gradientTransform="matrix(-0.87, 0.48, 0.48, 0.87, 938.26, -211.3)" xlink:href="#Безымянный_градиент_3070"/><linearGradient id="Безымянный_градиент_3070-3" x1="4420.32" y1="-176.44" x2="4420.51" y2="-162.57" gradientTransform="translate(-4370.46 256.65)" xlink:href="#Безымянный_градиент_3070"/><linearGradient id="Безымянный_градиент_159" x1="38.49" y1="162.26" x2="32.44" y2="174.5" gradientUnits="userSpaceOnUse"><stop offset="0.64" stop-color="#ffd7a5"/><stop offset="1" stop-color="#faa96c"/></linearGradient><linearGradient id="Безымянный_градиент_159-2" x1="48.26" y1="129.38" x2="42.59" y2="188.07" xlink:href="#Безымянный_градиент_159"/><linearGradient id="Безымянный_градиент_785" x1="26.62" y1="-2.21" x2="54.29" y2="77.48" gradientUnits="userSpaceOnUse"><stop offset="0" stop-color="#694538"/><stop offset="1" stop-color="#1c1007"/></linearGradient><linearGradient id="Безымянный_градиент_785-2" x1="8.16" y1="1091.2" x2="14.17" y2="1030.85" gradientTransform="matrix(1, -0.01, -0.01, 1.32, 50.95, -1286.52)" xlink:href="#Безымянный_градиент_785"/></defs><g id="Слой_2" data-name="Слой 2"><g id="Слой_2-2" data-name="Слой 2"><path class="cls-1" d="M25.75,44A50,50,0,1,0,93.66,63.43,49.95,49.95,0,0,0,25.75,44ZM69,122.06a40.46,40.46,0,1,1,15.79-55A40.46,40.46,0,0,1,69,122.06Z"/><path class="cls-2" d="M42.89,74.75c11.47-6.36,33-7.32,36.85-15C84.28,57,92.52,69.84,86.32,69.91c-5-2.68-10.54,3.75-12,16-1.37,11.42,9.6,12.76,14.88,8.45,5,2.11,1.11,15.24-4.86,12.81-1.26-6.33-12.69-1.91-21.73,3.1l-.1.05c-9,5-18.85,12.35-14.15,16.78-1.1,6.36-14.31,2.71-13.43-2.67,6.45-2.19,11.13-12.2.72-17.09-11.21-5.27-19.59-4-20,1.67-3.35,5.22-9.82-8.55-5.11-11,8.56.78,20.77-16.94,32.24-23.3"/><ellipse class="cls-3" cx="49.96" cy="87.64" rx="8.37" ry="6.42" transform="translate(-36.21 35.19) rotate(-28.99)"/><path class="cls-4" d="M37.08,161.22c1.72-1.62.14,15.74-2.61,16.32S25.33,172.32,37.08,161.22Z"/><path class="cls-5" d="M44.92,109C43,127.26,40.35,154,40.35,154c-5.23,7.83-9.14,13.06-7.18,16.32s0,18.94,4.57,18.29,10.21-6,10.21-6c.89,2,3.5,2.68,4.15.07s5.23-16.33,4.57-19.59-7.39-13-7.61-14.36c-.44-6.55,3.56-39.84,3.56-39.84Z"/><path class="cls-6" d="M34.65,1.37C49.49,10.38,58,62,58,77c0,9.15-9.53,16.87-14.37,5.23S29.9,30.62,27.29,23.44,23.1-5.65,34.65,1.37Z"/><path class="cls-7" d="M51.43,152.18c7.14-31.72,8.4-63.48,6.2-74S43.28,71,42.48,86.31s-.76,49.31-3.92,62C45.07,146.61,51.43,152.18,51.43,152.18Z"/></g></g></svg>