<svg xmlns="http://www.w3.org/2000/svg" xmlns:xlink="http://www.w3.org/1999/xlink" width="169.131" height="155.405" ><defs><linearGradient id="A" x1=".303" y1=".071" x2=".628" y2=".869"><stop offset=".219" stop-color="#1967b3"/><stop offset="1" stop-color="#183773"/></linearGradient><linearGradient id="B" x1=".263" y1="-.191" x2=".717" y2="1.016"><stop offset="0" stop-color="#ececef"/><stop offset=".21" stop-color="#dfdfe2"/><stop offset=".596" stop-color="#bdbec1"/><stop offset=".956" stop-color="#999b9d"/></linearGradient><linearGradient id="C" x1=".939" y1="1.517" x2=".265" y2="-.255"><stop offset="0" stop-color="#faf8ff"/><stop offset=".157" stop-color="#eeecf2"/><stop offset=".446" stop-color="#d1cfd0"/><stop offset=".624" stop-color="#bdbbb9"/></linearGradient><linearGradient id="D" x1=".479" y1="-.374" x2=".5" y2=".401" xlink:href="#B"/><linearGradient id="E" x1=".495" y1="-.133" x2=".507" y2=".787"><stop offset=".334" stop-color="#faf8ff"/><stop offset=".491" stop-color="#eeecf2"/><stop offset=".779" stop-color="#d1cfd0"/><stop offset=".956" stop-color="#bdbbb9"/></linearGradient><clipPath id="F"><path d="M714.213 449.543c-33.616-4.126-80.54-12.378-135.866-5.674 34.316 14.443 42.72 23.726 36.417 50.03 29.415-1.547 49.724-6.7 67.934-2.579 11.709 2.654 23.111 10.832 40.62 8.253-4.2-4.127-6.3-8.769-4.2-13.409s12.604-20.117-4.905-36.621z" transform="translate(-578.347 -441.334)" fill="none"/></clipPath><clipPath id="G"><path d="M606.322 458.028s2.8 11.138 0 15.112c6.3-.824 34.36-3.529 36.09-3.646 2.057-3.846 1.028-10.95-1.074-11.981-11.205-1.032-35.016.515-35.016.515z" transform="translate(-606.322 -457.158)" fill="none"/></clipPath><clipPath id="H"><path d="M644.76 478.5c3.9 1.2 17.234 5.565 20.721 5.96-.73-4.37 10.49-15.6 4.887-31.584-3.968-.781-7.982-1.313-12.017-1.592 3.612 8.811 1.438 17.3-.975 22.34-4.83-1.267-8.583-1.89-8.583-1.89-.135 1.254-4.033 6.766-4.033 6.766z" transform="translate(-644.76 -451.281)" fill="none"/></clipPath><linearGradient id="I" x1=".515" y1="-.286" x2=".48" y2="1.56" xlink:href="#B"/><linearGradient id="J" x1=".518" y1="-.29" x2=".473" y2="1.646" xlink:href="#B"/><linearGradient id="K" x1=".522" y1="-.253" x2=".465" y2="1.67" xlink:href="#B"/><linearGradient id="L" x1=".527" y1="-.244" x2=".458" y2="1.681" xlink:href="#B"/><linearGradient id="M" x1=".545" y1="-.147" x2=".453" y2=".971" xlink:href="#B"/><linearGradient id="N" x1=".55" y1="-.239" x2=".441" y2="1.336" xlink:href="#B"/><linearGradient id="O" x1=".572" y1="-.239" x2=".423" y2=".943" xlink:href="#B"/><linearGradient id="P" x1=".579" y1="-.198" x2=".383" y2=".925" xlink:href="#B"/><linearGradient id="Q" x1=".593" y1="-.32" x2=".4" y2="1.152" xlink:href="#B"/><linearGradient id="R" x1="-115.867" y1="359.413" x2="-115.551" y2="357.924"><stop offset=".641" stop-color="#ffd7a5"/><stop offset="1" stop-color="#faa96c"/></linearGradient><linearGradient id="S" x1=".098" y1=".896" x2=".99" y2=".078" xlink:href="#A"/></defs><path d="M148.174 9.305C159.018 25.411 166.731 76.1 169 93.089s-24.687 32.242-45.27 5.858-32.792-40.293-29.054-62.6 36.977-51.58 53.498-27.042z" fill="url(#A)"/><path d="M21.376 152.286C-5.237 131.655-.336 98.131 1.767 81.625c32.915 5.158 51.824 34.558 19.609 70.661z" fill="url(#B)"/><path d="M19.624 134.301c-5.252-6.387-14.356-19.15-4.552-35.654 21.712 2.579 37.819 5.672 37.819 5.672l-6.593 28.577z" fill="url(#C)"/><path d="M129.928 128.045c4.2 7.737 4.2 22.7 2.8 27.336-19.609-3.611-64.9-10.738-78.909-9.191s-32.76 5.745-32.76 5.745c14.356-17.975 19.223-45.037-5.989-53.289 30.816 0 111.354 5.156 111.354 5.156z" fill="url(#D)"/><path d="M137.632 87.299c-33.616-4.126-80.54-12.378-135.866-5.674 34.316 14.443 42.72 23.726 36.417 50.03 29.415-1.547 49.724-6.7 67.934-2.579 11.709 2.654 23.111 10.832 40.62 8.253-4.2-4.127-6.3-8.769-4.2-13.409s12.604-20.117-4.905-36.621z" fill="url(#E)"/><g clip-path="url(#F)" transform="translate(1.767 79.09)"><g clip-path="url(#G)" transform="translate(47.623 26.938)"><path d="M.32-.677l-.321.058v-.058z" fill="#c9cacc"/><path d="M2.394-.677l-2.395.433v-.375L.32-.677z" fill="#c8c9cb"/><path d="M4.468-.677L-.001.132v-.375l2.395-.433z" fill="#c7c8ca"/><path d="M6.543-.677L0 .507V.132l4.469-.809z" fill="#c6c7c9"/><path d="M8.617-.677L0 .882V.507L6.543-.677z" fill="#c5c5c8"/><path d="M10.691-.677L0 1.263V.888L8.617-.671z" fill="#c3c4c7"/><path d="M12.765-.677L0 1.633v-.37L10.691-.672z" fill="#c2c3c6"/><path d="M14.839-.677L0 2.008v-.375l12.765-2.31z" fill="#c1c2c5"/><path d="M16.913-.677L0 2.384v-.375L14.839-.676z" fill="#c0c1c4"/><path d="M18.987-.677L0 2.763v-.375L16.913-.673z" fill="#bfc0c3"/><path d="M21.061-.677L-.001 3.134v-.371L18.987-.673z" fill="#bebfc1"/><path d="M23.135-.677L-.001 3.51v-.375L21.061-.676z" fill="#bdbec0"/><path d="M25.209-.677L-.001 3.885V3.51L23.135-.677z" fill="#bcbdbf"/><path d="M27.284-.677L0 4.263v-.375L25.21-.674z" fill="#bbbcbe"/><path d="M29.358-.677L0 4.636v-.373L27.284-.674z" fill="#b9bbbd"/><path d="M31.432-.677L0 5.011v-.375L29.358-.677z" fill="#b8babc"/><path d="M33.506-.677L0 5.386v-.375L31.432-.677z" fill="#b7b8bb"/><path d="M35.578-.677L-.002 5.762v-.375L33.504-.676z" fill="#b6b7ba"/><path d="M37.654-.677L-.001 6.137v-.374l35.58-6.439z" fill="#b5b6b8"/><path d="M37.872-.677l.106.317L0 6.512v-.375L37.655-.677z" fill="#b4b5b7"/><path d="M37.978-.359l.118.354-38.1 6.894v-.375z" fill="#b2b4b6"/><path d="M38.095-.006l.05.151V.36L-.001 7.26v-.375z" fill="#b1b3b5"/><path d="M38.146.736L0 7.636v-.375l38.146-6.9z" fill="#b0b2b4"/><path d="M38.146 1.111L0 8.011v-.375l38.146-6.9z" fill="#afb0b3"/><path d="M38.146 1.487L0 8.387v-.375l38.146-6.9z" fill="#aeafb2"/><path d="M38.146 1.862L0 8.762v-.375l38.146-6.9z" fill="#adaeb0"/><path d="M38.146 2.238L0 9.138v-.375l38.146-6.9z" fill="#abadaf"/><path d="M38.146 2.612L0 9.512v-.375l38.146-6.9z" fill="#aaacae"/><path d="M38.146 2.988L0 9.888V9.52l38.146-6.9z" fill="#a9abad"/><path d="M38.146 3.363L0 10.263v-.375l38.146-6.9z" fill="#a8a9ac"/><path d="M38.146 3.739L0 10.639v-.375l38.146-6.9z" fill="#a7a8aa"/><path d="M38.146 4.114L0 11.014v-.375l38.146-6.9z" fill="#a5a7a9"/><path d="M38.146 4.49L0 11.39v-.375l38.146-6.9z" fill="#a4a6a8"/><path d="M38.146 4.864L0 11.764v-.37l38.146-6.9z" fill="#a3a5a7"/><path d="M38.146 5.24L0 12.14v-.375l38.146-6.9z" fill="#a2a3a6"/><path d="M38.146 5.615L0 12.515v-.375l38.146-6.9z" fill="#a0a2a4"/><path d="M38.146 5.991L0 12.891v-.375l38.146-6.9z" fill="#9fa1a3"/><path d="M38.146 6.366L0 13.266v-.375l38.146-6.9z" fill="#9ea0a2"/><path d="M38.146 6.742L0 13.642v-.373l38.146-6.9z" fill="#9d9fa1"/><path d="M38.146 7.117L0 14.017v-.375l38.146-6.9z" fill="#9c9d9f"/><path d="M38.146 7.492L0 14.392v-.375l38.146-6.9z" fill="#9a9c9e"/><g fill="#999b9d"><path d="M38.146 7.867L0 14.767v-.375l38.146-6.9z"/><path d="M0 14.77l38.146-6.9v8.115H0z"/></g></g><g clip-path="url(#H)" transform="translate(113.058 16.934)"><path d="M31.212.162L27.379 0h3.833z" fill="#cecfd1"/><path d="M31.211.657L15.66 0h11.718l3.833.162z" fill="#cdced0"/><path d="M31.212 1.152L3.943 0h11.718l15.551.657z" fill="#cccdcf"/><path d="M31.211 1.647L.688.357.716-.001h3.226l27.269 1.152z" fill="#cbccce"/><path d="M31.208 2.143L.647.852.685.358l30.523 1.29z" fill="#cacbcd"/><path d="M31.212 2.638L.612 1.345.65.851l30.561 1.291z" fill="#c9cacc"/><path d="M31.212 3.133L.577 1.838l.038-.494 30.6 1.293z" fill="#c8c9cb"/><path d="M31.212 3.628L.536 2.328l.038-.493L31.212 3.13z" fill="#c7c8ca"/><path d="M31.212 4.123L.497 2.823l.038-.494 30.676 1.3z" fill="#c6c7c9"/><path d="M31.211 4.619L.458 3.319l.038-.494 30.715 1.3z" fill="#c5c5c8"/><path d="M31.213 5.113L.421 3.813.459 3.32l30.753 1.3z" fill="#c3c4c7"/><path d="M31.211 5.609l-30.83-1.3.038-.494 30.792 1.3z" fill="#c2c3c6"/><path d="M31.211 6.103L.342 4.803.38 4.309l30.83 1.3z" fill="#c1c2c5"/><path d="M31.212 6.599L.305 5.293.343 4.8l30.869 1.3z" fill="#c0c1c4"/><path d="M31.212 7.094L.267 5.786l.038-.494 30.907 1.306z" fill="#bfc0c3"/><path d="M31.212 7.589L.228 6.28l.038-.494 30.945 1.308z" fill="#bebfc1"/><path d="M31.212 8.084L.19 6.773.229 6.28l30.984 1.309z" fill="#bdbec0"/><path d="M31.211 8.58L.15 7.268l.038-.494L31.21 8.085z" fill="#bcbdbf"/><path d="M31.211 9.074L.111 7.76l.038-.494L31.21 8.579z" fill="#bbbcbe"/><path d="M31.212 9.57L.071 8.254.109 7.76l31.1 1.314z" fill="#b9bbbd"/><path d="M31.212 10.065L.036 8.748l.038-.494L31.212 9.57z" fill="#b8babc"/><path d="M31.212 10.56L0 9.241v-.034l.036-.46 31.176 1.317z" fill="#b7b8bb"/><path d="M31.212 11.056L0 9.732v-.5l31.212 1.319z" fill="#b6b7ba"/><path d="M31.212 11.55L0 10.236v-.5l31.212 1.319z" fill="#b5b6b8"/><path d="M31.212 12.045L0 10.726v-.5l31.212 1.319z" fill="#b4b5b7"/><path d="M31.212 12.545L0 11.226v-.5l31.212 1.319z" fill="#b2b4b6"/><path d="M31.212 13.036L0 11.717v-.5l31.212 1.319z" fill="#b1b3b5"/><path d="M31.212 13.531L0 12.212v-.5l31.212 1.319z" fill="#b0b2b4"/><path d="M31.212 14.026L0 12.707v-.5l31.212 1.319z" fill="#afb0b3"/><path d="M31.212 14.522L0 13.203v-.5l31.212 1.319z" fill="#aeafb2"/><path d="M31.212 15.016L0 13.697v-.5l31.212 1.319z" fill="#adaeb0"/><path d="M31.212 15.511L0 14.192v-.5l31.212 1.319z" fill="#abadaf"/><path d="M31.212 16.006L0 14.687v-.5l31.212 1.319z" fill="#aaacae"/><path d="M31.212 16.502L0 15.179v-.5l31.212 1.319z" fill="#a9abad"/><path d="M31.212 16.997L0 15.678v-.5l31.212 1.319z" fill="#a8a9ac"/><path d="M31.212 17.487L0 16.168v-.5l31.212 1.319z" fill="#a7a8aa"/><path d="M31.212 17.992L0 16.673v-.5l31.212 1.319z" fill="#a5a7a9"/><path d="M31.212 18.482L0 17.163v-.5l31.212 1.319z" fill="#a4a6a8"/><path d="M31.212 18.977L0 17.658v-.5l31.212 1.319z" fill="#a3a5a7"/><path d="M31.212 19.472L0 18.153v-.5l31.212 1.319z" fill="#a2a3a6"/><path d="M31.212 19.968L0 18.649v-.5l31.212 1.319z" fill="#a0a2a4"/><path d="M31.212 20.463L0 19.144v-.5l31.212 1.319z" fill="#9fa1a3"/><path d="M31.212 20.958L0 19.639v-.5l31.212 1.319z" fill="#9ea0a2"/><path d="M31.212 21.454L0 20.135v-.5l31.212 1.319z" fill="#9d9fa1"/><path d="M31.212 21.948L0 20.626v-.5l31.212 1.319z" fill="#9c9d9f"/><path d="M31.212 22.443L0 21.124v-.5l31.212 1.319z" fill="#9a9c9e"/><g fill="#999b9d"><path d="M31.212 22.935L0 21.616v-.5l31.212 1.319z"/><path d="M0 21.62l31.212 1.319v10.237H0z"/></g></g><path d="M47.623 23.245c-.388 0-.7-.232-.7-.516 0-2.1-3.837-6.985-11.171-12.279C27.894 4.779 18.89.762 11.052-.571c-.376-.065-.611-.342-.524-.62a.74.74 0 0 1 .841-.386c18.019 3.063 36.96 18.789 36.96 24.306-.006.282-.319.516-.706.516z" fill="url(#I)"/><path d="M56.026 22.136a.68.68 0 0 1-.688-.422c-2-7.855-17.909-19.126-27.232-22.321-.352-.119-.5-.427-.341-.684.224-.275.599-.376.931-.25 9.581 3.284 25.945 14.923 28.019 23.067.072.279-.179.548-.56.6a.83.83 0 0 1-.129.01z" fill="url(#J)"/><path d="M63.804 21.708c-.299.027-.58-.147-.689-.427C61.784 15.67 51.687 1.988 41.926-1.25c-.352-.117-.509-.424-.351-.683a.82.82 0 0 1 .926-.259c10.325 3.427 20.583 17.35 21.994 23.295.066.281-.189.548-.57.6-.04.004-.081.006-.121.005z" fill="url(#K)"/><path d="M73.638 21.707a.7.7 0 0 1-.676-.385l-.4-1.118c-2.089-5.977-5.975-17.1-16.875-21.473-.34-.136-.466-.449-.281-.7.241-.263.622-.345.95-.206 11.435 4.584 15.421 15.992 17.563 22.122l.393 1.113c.1.276-.126.557-.5.63a.91.91 0 0 1-.174.017z" fill="url(#L)"/><path d="M89.911 39.789a.84.84 0 0 1-.225-.029c-.368-.09-.563-.383-.439-.654 4.637-10.04-2.756-36.4-11.142-39.728-.34-.134-.468-.448-.284-.7.239-.265.62-.348.948-.209 9.666 3.832 16.314 31.2 11.8 40.967a.72.72 0 0 1-.658.353z" fill="url(#M)"/><path d="M98.048 28.841h-.032c-.386-.014-.686-.254-.669-.538.667-10.793-5.88-23.092-10.514-28.007-.104-.108-.146-.262-.11-.407s.143-.263.285-.311c.32-.163.708-.112.974.129 4.744 5.03 11.445 17.612 10.764 28.642a.64.64 0 0 1-.698.492z" fill="url(#N)"/><path d="M103.648 41.22a.91.91 0 0 1-.242-.032c-.363-.1-.548-.395-.415-.662 4.993-9.981 2.441-30.409-4.707-37.687-.107-.105-.152-.257-.121-.403s.137-.266.278-.317a.87.87 0 0 1 .977.116c8.115 8.26 9.659 29.112 4.887 38.648-.141.224-.393.353-.657.337z" fill="url(#O)"/><path d="M108.55 42.251c-.111 0-.221-.021-.325-.06-.344-.133-.475-.444-.294-.7 6.877-9.623 6.906-32.622.049-39.692-.106-.106-.15-.258-.117-.404s.139-.264.28-.314a.87.87 0 0 1 .977.119c7.225 7.45 7.252 30.692.049 40.771a.76.76 0 0 1-.619.28z" fill="url(#P)"/><path d="M121.159 34.513h-.075c-.385-.029-.664-.283-.623-.567 1.454-10.172-.126-24.694-4.8-30.1-.097-.115-.129-.271-.086-.415s.157-.256.302-.297a.86.86 0 0 1 .967.158c4.826 5.585 6.486 20.416 5.008 30.761a.66.66 0 0 1-.693.46z" fill="url(#Q)"/></g><path d="M100.824 128.843c-8.112-2.887-24.732-7.729-28.441-5.454-11.394 6.157-23.734 8.335-24.8 14.053-1.088 5.817 9.278 8.306 10.141 8.58-.121 3.611 8.787 9.819 11.7 9.359 15.818-2.5 12.945 4.084 25.5-8.718s5.9-17.82 5.9-17.82z" fill="url(#R)"/><path d="M88.14 124.962c7.02 1.709 12.48 14.819 10.141 17.939 27.3-4.68 54.431-21.208 63.961-31.98 17.939-20.28-5.565-41.588-32.423-20.014L88.14 124.962z" fill="url(#S)"/></svg>
