<svg xmlns="http://www.w3.org/2000/svg" xmlns:xlink="http://www.w3.org/1999/xlink" viewBox="0 0 150.79 130.38"><defs><style>.cls-1{fill:url(#Безымянный_градиент_3070);}.cls-2{fill:url(#Безымянный_градиент_3070-2);}.cls-3{fill:url(#Безымянный_градиент_3070-3);}.cls-4{fill:url(#Безымянный_градиент_322);}.cls-5{fill:url(#Безымянный_градиент_159);}.cls-6{fill:url(#Безымянный_градиент_322-2);}</style><linearGradient id="Безымянный_градиент_3070" x1="3549.32" y1="-280.48" x2="3549.32" y2="-186.98" gradientTransform="translate(-2890.63 2004.83) rotate(-28.99)" gradientUnits="userSpaceOnUse"><stop offset="0" stop-color="#5d7d91"/><stop offset="1" stop-color="#170f1f"/></linearGradient><linearGradient id="Безымянный_градиент_3070-2" x1="1194.75" y1="-252.24" x2="1194" y2="-197.95" gradientTransform="matrix(-0.87, 0.48, 0.48, 0.87, 1258.89, -294.18)" xlink:href="#Безымянный_градиент_3070"/><linearGradient id="Безымянный_градиент_3070-3" x1="3549.21" y1="-241" x2="3549.41" y2="-227.12" gradientTransform="translate(-3448.49 313.98)" xlink:href="#Безымянный_градиент_3070"/><linearGradient id="Безымянный_градиент_322" x1="86.18" y1="-6.12" x2="97.85" y2="68.24" gradientUnits="userSpaceOnUse"><stop offset="0" stop-color="#6d515b"/><stop offset="1" stop-color="#1b2139"/></linearGradient><linearGradient id="Безымянный_градиент_159" x1="46.87" y1="71.58" x2="0.52" y2="80.58" gradientUnits="userSpaceOnUse"><stop offset="0.64" stop-color="#ffd7a5"/><stop offset="1" stop-color="#faa96c"/></linearGradient><linearGradient id="Безымянный_градиент_322-2" x1="31.36" y1="73.7" x2="103.05" y2="69.86" xlink:href="#Безымянный_градиент_322"/></defs><g id="Слой_2" data-name="Слой 2"><g id="Слой_2-2" data-name="Слой 2"><path class="cls-1" d="M76.62,36.72a50,50,0,1,0,67.91,19.49A50,50,0,0,0,76.62,36.72Zm43.28,78.12a40.46,40.46,0,1,1,15.79-55A40.47,40.47,0,0,1,119.9,114.84Z"/><path class="cls-2" d="M93.75,67.52c11.48-6.35,33-7.31,36.85-15,4.54-2.72,12.79,10.08,6.59,10.14-5-2.67-10.54,3.75-12,16.06-1.37,11.42,9.6,12.76,14.88,8.45,5,2.11,1.11,15.24-4.86,12.8-1.27-6.33-12.7-1.9-21.73,3.1l-.1.06c-9,5-18.85,12.35-14.15,16.78-1.1,6.35-14.31,2.71-13.44-2.67,6.46-2.19,11.14-12.2.73-17.1-11.22-5.27-19.59-4-20,1.68-3.35,5.22-9.83-8.55-5.11-11,8.56.78,20.77-16.94,32.24-23.3"/><ellipse class="cls-3" cx="100.83" cy="80.42" rx="8.37" ry="6.42" transform="translate(-26.34 58.94) rotate(-28.99)"/><path class="cls-4" d="M91,.08c3.88.47,17.62,17.22,16,63.13-.83,22.92-20.45,16.58-23.08.47C81.3,47.73,72.23-2.22,91,.08Z"/><path class="cls-5" d="M62.28,67.68c-14.94,1.21-36.77,3.18-36.77,3.18-7.07-3-13.28-4.35-15.6-2.29S-1.1,80,.12,83.59s5.22.66,5.22.66c-1.49,1,3.1,3.38,5.22,3.91a12.57,12.57,0,0,0,7.84-.65C20.92,86.49,30,77.42,31,77c5.18-1.35,32.45-3.2,32.45-3.2Z"/><path class="cls-6" d="M88.27,62.28c-12.41-.53-36.57,1.07-54.2,5.64,0,1.6-.65,8.49.66,11.1,18.28,2,47.88,1.34,59.12.19C107.1,77.87,112.44,63.3,88.27,62.28Z"/></g></g></svg>