<svg xmlns="http://www.w3.org/2000/svg" xmlns:xlink="http://www.w3.org/1999/xlink" viewBox="0 0 110.04 235.25"><defs><style>.cls-1{fill:url(#Безымянный_градиент_217);}.cls-2{fill:url(#Безымянный_градиент_159);}.cls-3{fill:url(#Безымянный_градиент_159-2);}.cls-4{fill:url(#Безымянный_градиент_216);}.cls-5{clip-path:url(#clip-path);}.cls-6{fill:url(#Безымянный_градиент_217-3);}.cls-7{fill:url(#Безымянный_градиент_217-4);}.cls-8{fill:url(#Безымянный_градиент_217-5);}.cls-9{fill:url(#Безымянный_градиент_1562);}.cls-10{fill:url(#Безымянный_градиент_1562-2);}</style><linearGradient id="Безымянный_градиент_217" x1="0.03" y1="114.76" x2="110.04" y2="114.76" gradientUnits="userSpaceOnUse"><stop offset="0" stop-color="#ddf5f5"/><stop offset="0" stop-color="#eef4f4"/><stop offset="1" stop-color="#c6d8df"/></linearGradient><linearGradient id="Безымянный_градиент_159" x1="61.12" y1="208.84" x2="55.06" y2="221.08" gradientUnits="userSpaceOnUse"><stop offset="0.64" stop-color="#ffd7a5"/><stop offset="1" stop-color="#faa96c"/></linearGradient><linearGradient id="Безымянный_градиент_159-2" x1="68.67" y1="198.92" x2="65.17" y2="235.07" xlink:href="#Безымянный_градиент_159"/><radialGradient id="Безымянный_градиент_216" cx="27.37" cy="88.18" r="62.53" xlink:href="#Безымянный_градиент_217"/><clipPath id="clip-path"><path class="cls-1" d="M.53,71c2.58-2.24,18.25-2.24,26.65,0,17.35-3.36,35.26-.56,53.16-4.48,9-3.91,20.71-3.91,21.83-3.36s1.12,26.31-2.8,30.79c3.92,7.83,2.24,17.34,0,18.46,3.92,7.28,11.19,39.74,10.63,44.22-10.07,2.23-54.56,4.47-56.66,1.11-3.63,2.24-13,4.8-14.52,2.12-3.14,1.92-24,8.52-27.87,6.28-.56-9-.56-15.67,0-17.35-3.36-2.8-1.12-31.9-.56-37.5C4.79,99.55-1.86,73.08.53,71Z"/></clipPath><linearGradient id="Безымянный_градиент_217-3" x1="37.33" y1="129.39" x2="108.33" y2="129.39" xlink:href="#Безымянный_градиент_217"/><linearGradient id="Безымянный_градиент_217-4" x1="19.34" y1="94.33" x2="100.57" y2="79.48" xlink:href="#Безымянный_градиент_217"/><linearGradient id="Безымянный_градиент_217-5" x1="22.69" y1="97.55" x2="19.41" y2="163.93" xlink:href="#Безымянный_градиент_217"/><linearGradient id="Безымянный_градиент_1562" x1="59.49" y1="-1.23" x2="73.16" y2="104.14" gradientUnits="userSpaceOnUse"><stop offset="0" stop-color="#8567ad"/><stop offset="1" stop-color="#1b2139"/></linearGradient><linearGradient id="Безымянный_градиент_1562-2" x1="64.13" y1="198.87" x2="75.46" y2="106.51" xlink:href="#Безымянный_градиент_1562"/></defs><g id="Слой_2" data-name="Слой 2"><g id="Слой_2-2" data-name="Слой 2"><path class="cls-2" d="M59.71,207.8c1.71-1.62.14,15.74-2.61,16.33S48,218.9,59.71,207.8Z"/><path class="cls-3" d="M63.63,186.35c-2,18.29-.66,14.27-.66,14.27-5.22,7.83-9.14,13.06-7.18,16.32s0,18.94,4.57,18.29,10.22-5.95,10.22-5.95c.88,2,3.49,2.68,4.15.07S80,213,79.3,209.76s-7.4-13-7.62-14.36c-.44-6.55-.36-9.05-.36-9.05Z"/><path class="cls-4" d="M.53,71c4.26-3.36,19.93-2.24,26.65,0,18.47-5,42,.56,53.16-4.48,9.52-3.36,20.71-3.91,21.83-3.36s1.12,26.31-2.8,30.79c3.92,7.83,2.24,17.34,0,18.46,3.92,7.28,11.19,39.74,10.63,44.22-10.07,2.23-54.56,4.47-56.66,1.11-3.63,2.24-13,4.8-14.52,2.12-3.14,1.92-24,8.52-27.87,6.28-.56-9-.56-15.67,0-17.35-3.36-2.8-1.12-31.9-.56-37.5C4.79,99.55-1.95,73,.53,71Z"/><path class="cls-1" d="M.53,71c2.58-2.24,18.25-2.24,26.65,0,17.35-3.36,35.26-.56,53.16-4.48,9-3.91,20.71-3.91,21.83-3.36s1.12,26.31-2.8,30.79c3.92,7.83,2.24,17.34,0,18.46,3.92,7.28,11.19,39.74,10.63,44.22-10.07,2.23-54.56,4.47-56.66,1.11-3.63,2.24-13,4.8-14.52,2.12-3.14,1.92-24,8.52-27.87,6.28-.56-9-.56-15.67,0-17.35-3.36-2.8-1.12-31.9-.56-37.5C4.79,99.55-1.86,73.08.53,71Z"/><g class="cls-5"><path class="cls-6" d="M106.15,93.11c-10.7,1.4-44.83,9.8-50.43,33.3-26.3,6.72-17.35,35.82-15.11,39.18.17.26,1.5-.08,3.36-1.42,1-.72,15.33.39,14-.82-5.6-5-14.6-16.18-12.31-24.06,6.15-2.24,31.9-1.12,53.72,11.75C96.57,141,78.1,129.77,65.79,129.21c18.47-11.19,42.54,6.72,42.54,6.72Z"/><path class="cls-7" d="M28.3,66.53c.28-1-7.57,30.72,14,49.81C49,99.55,57,91.7,60,93.11s-.49,13.32,2.67,13.24,20.2-30.86,20.07-40.94S28.3,66.53,28.3,66.53Z"/><path class="cls-8" d="M6.47,115.22c6.72-7.83,23.79-5.59,30.64,1.12-13.85,3.36-15.67,19.24-15.32,22.49s-8.32,9.4-13.08,10.53-2.24-33-2.24-33Z"/></g><path class="cls-9" d="M71.9.9c9.14,9.8,7.65,88.45,6.76,99.73s-14.24,26.5-18.34,9.75-7.94-51.8-8-63C52.31,31.59,65.16-6.31,71.9.9Z"/><path class="cls-10" d="M79.33,106.05c1.49,9.07,8.75,21.7,0,92.14.15,8.32-22.45-2-22.45-2,3.26-22.86,4.3-69.65,2.8-81.84S77,91.71,79.33,106.05Z"/></g></g></svg>