<svg xmlns="http://www.w3.org/2000/svg" xmlns:xlink="http://www.w3.org/1999/xlink" viewBox="0 0 141.59 209.38"><defs><style>.cls-1{fill:none;}.cls-2{fill:url(#Безымянный_градиент_708);}.cls-3{fill:url(#Безымянный_градиент_937);}.cls-4{fill:url(#Безымянный_градиент_708-2);}.cls-5{fill:url(#Безымянный_градиент_655);}.cls-6{clip-path:url(#clip-path);}.cls-7{clip-path:url(#clip-path-2);}.cls-8{fill:#c9cacc;}.cls-9{fill:#c8c9cb;}.cls-10{fill:#c7c8ca;}.cls-11{fill:#c6c7c9;}.cls-12{fill:#c5c5c8;}.cls-13{fill:#c3c4c7;}.cls-14{fill:#c2c3c6;}.cls-15{fill:#c1c2c5;}.cls-16{fill:#c0c1c4;}.cls-17{fill:#bfc0c3;}.cls-18{fill:#bebfc1;}.cls-19{fill:#bdbec0;}.cls-20{fill:#bcbdbf;}.cls-21{fill:#bbbcbe;}.cls-22{fill:#b9bbbd;}.cls-23{fill:#b8babc;}.cls-24{fill:#b7b8bb;}.cls-25{fill:#b6b7ba;}.cls-26{fill:#b5b6b8;}.cls-27{fill:#b4b5b7;}.cls-28{fill:#b2b4b6;}.cls-29{fill:#b1b3b5;}.cls-30{fill:#b0b2b4;}.cls-31{fill:#afb0b3;}.cls-32{fill:#aeafb2;}.cls-33{fill:#adaeb0;}.cls-34{fill:#abadaf;}.cls-35{fill:#aaacae;}.cls-36{fill:#a9abad;}.cls-37{fill:#a8a9ac;}.cls-38{fill:#a7a8aa;}.cls-39{fill:#a5a7a9;}.cls-40{fill:#a4a6a8;}.cls-41{fill:#a3a5a7;}.cls-42{fill:#a2a3a6;}.cls-43{fill:#a0a2a4;}.cls-44{fill:#9fa1a3;}.cls-45{fill:#9ea0a2;}.cls-46{fill:#9d9fa1;}.cls-47{fill:#9c9d9f;}.cls-48{fill:#9a9c9e;}.cls-49{fill:#999b9d;}.cls-50{clip-path:url(#clip-path-3);}.cls-51{fill:#cecfd1;}.cls-52{fill:#cdced0;}.cls-53{fill:#cccdcf;}.cls-54{fill:#cbccce;}.cls-55{fill:#cacbcd;}.cls-56{fill:url(#Безымянный_градиент_708-3);}.cls-57{fill:url(#Безымянный_градиент_708-4);}.cls-58{fill:url(#Безымянный_градиент_708-5);}.cls-59{fill:url(#Безымянный_градиент_708-6);}.cls-60{fill:url(#Безымянный_градиент_708-7);}.cls-61{fill:url(#Безымянный_градиент_708-8);}.cls-62{fill:url(#Безымянный_градиент_708-9);}.cls-63{fill:url(#Безымянный_градиент_708-10);}.cls-64{fill:url(#Безымянный_градиент_708-11);}.cls-65{fill:url(#Безымянный_градиент_1005);}.cls-66{fill:url(#Безымянный_градиент_3070);}.cls-67{fill:url(#Безымянный_градиент_3070-2);}.cls-68{fill:url(#Безымянный_градиент_3070-3);}.cls-69{fill:url(#Безымянный_градиент_159);}.cls-70{fill:url(#Безымянный_градиент_1005-2);}</style><linearGradient id="Безымянный_градиент_708" x1="8.37" y1="57.04" x2="22.83" y2="128.45" gradientUnits="userSpaceOnUse"><stop offset="0" stop-color="#ececef"/><stop offset="0.21" stop-color="#dfe0e2"/><stop offset="0.6" stop-color="#bebfc1"/><stop offset="0.96" stop-color="#999b9d"/></linearGradient><linearGradient id="Безымянный_градиент_937" x1="42.12" y1="127.88" x2="18.33" y2="74.97" gradientUnits="userSpaceOnUse"><stop offset="0" stop-color="#faf8ff"/><stop offset="0.16" stop-color="#efedf2"/><stop offset="0.45" stop-color="#d2d0d1"/><stop offset="0.62" stop-color="#bdbbb9"/></linearGradient><linearGradient id="Безымянный_градиент_708-2" x1="60.17" y1="64.8" x2="62.19" y2="101.64" xlink:href="#Безымянный_градиент_708"/><linearGradient id="Безымянный_градиент_655" x1="61.86" y1="59.66" x2="63.39" y2="104.92" gradientUnits="userSpaceOnUse"><stop offset="0.33" stop-color="#faf8ff"/><stop offset="0.49" stop-color="#efedf2"/><stop offset="0.78" stop-color="#d2d0d1"/><stop offset="0.96" stop-color="#bdbbb9"/></linearGradient><clipPath id="clip-path"><path class="cls-1" d="M115.22,73.08C87.08,69.63,47.8,62.72,1.48,68.33,30.21,80.42,37.24,88.2,32,110.22c24.62-1.3,41.62-5.61,56.87-2.16,9.8,2.22,19.35,9.07,34,6.91-3.51-3.46-5.27-7.34-3.51-11.23S129.88,86.9,115.22,73.08Z"/></clipPath><clipPath id="clip-path-2"><path class="cls-1" d="M41.35,89.49s2.34,9.33,0,12.65c5.27-.69,28.76-3,30.21-3,1.72-3.22.86-9.17-.9-10C61.28,88.2,41.35,89.49,41.35,89.49Z"/></clipPath><clipPath id="clip-path-3"><path class="cls-1" d="M96.13,103.17c3.26,1,14.43,4.66,17.34,5-.61-3.66,8.79-13,4.1-26.44a81.6,81.6,0,0,0-10.06-1.33,23.26,23.26,0,0,1-.82,18.7c-4-1.06-7.19-1.58-7.19-1.58C99.39,98.56,96.13,103.17,96.13,103.17Z"/></clipPath><linearGradient id="Безымянный_градиент_708-3" x1="26.57" y1="58.94" x2="25.48" y2="97.3" xlink:href="#Безымянный_градиент_708"/><linearGradient id="Безымянный_градиент_708-4" x1="37.26" y1="59.12" x2="36.17" y2="97.58" xlink:href="#Безымянный_градиент_708"/><linearGradient id="Безымянный_градиент_708-5" x1="46.29" y1="59.27" x2="45.19" y2="97.81" xlink:href="#Безымянный_градиент_708"/><linearGradient id="Безымянный_градиент_708-6" x1="56.18" y1="59.45" x2="55.08" y2="98.04" xlink:href="#Безымянный_градиент_708"/><linearGradient id="Безымянный_градиент_708-7" x1="73.08" y1="59.78" x2="71.98" y2="98.5" xlink:href="#Безымянный_градиент_708"/><linearGradient id="Безымянный_градиент_708-8" x1="79.63" y1="59.91" x2="78.53" y2="98.61" xlink:href="#Безымянный_градиент_708"/><linearGradient id="Безымянный_градиент_708-9" x1="87.88" y1="60.06" x2="86.78" y2="98.83" xlink:href="#Безымянный_градиент_708"/><linearGradient id="Безымянный_градиент_708-10" x1="95.02" y1="60.2" x2="93.92" y2="99.01" xlink:href="#Безымянный_градиент_708"/><linearGradient id="Безымянный_градиент_708-11" x1="101.61" y1="60.35" x2="100.5" y2="99.11" xlink:href="#Безымянный_градиент_708"/><linearGradient id="Безымянный_градиент_1005" x1="97.75" y1="6.74" x2="118.2" y2="82.32" gradientUnits="userSpaceOnUse"><stop offset="0.22" stop-color="#1967b3"/><stop offset="1" stop-color="#183773"/></linearGradient><linearGradient id="Безымянный_градиент_3070" x1="4767.11" y1="-51.97" x2="4767.11" y2="41.53" gradientTransform="translate(-4100.47 2474.13) rotate(-28.99)" gradientUnits="userSpaceOnUse"><stop offset="0" stop-color="#5d7d91"/><stop offset="1" stop-color="#170f1f"/></linearGradient><linearGradient id="Безымянный_градиент_3070-2" x1="582.52" y1="-23.73" x2="581.77" y2="30.56" gradientTransform="matrix(-0.87, 0.48, 0.48, 0.87, 578.75, -118.36)" xlink:href="#Безымянный_градиент_3070"/><linearGradient id="Безымянный_градиент_3070-3" x1="4767.01" y1="-12.48" x2="4767.2" y2="1.39" gradientTransform="translate(-4700.15 164.47)" xlink:href="#Безымянный_градиент_3070"/><linearGradient id="Безымянный_градиент_159" x1="-2892.97" y1="5648.61" x2="-2878.38" y2="5607.96" gradientTransform="matrix(0.38, 0.93, -0.93, 0.38, 6362.62, 678.24)" gradientUnits="userSpaceOnUse"><stop offset="0.64" stop-color="#ffd7a5"/><stop offset="1" stop-color="#faa96c"/></linearGradient><linearGradient id="Безымянный_градиент_1005-2" x1="80.41" y1="114.32" x2="140.43" y2="72.53" xlink:href="#Безымянный_градиент_1005"/></defs><g id="Слой_2" data-name="Слой 2"><g id="Слой_2-2" data-name="Слой 2"><path class="cls-2" d="M17.89,127.49C-4.38,110.22-.28,82.15,1.48,68.33,29,72.65,44.86,97.26,17.89,127.49Z"/><path class="cls-3" d="M16.43,112.43c-4.4-5.34-12-16-3.81-29.85,18.17,2.16,31.66,4.75,31.66,4.75l-5.52,23.93Z"/><path class="cls-4" d="M108.77,107.2c3.52,6.47,3.52,19,2.35,22.88-16.42-3-54.34-9-66.06-7.69s-27.43,4.81-27.43,4.81c12-15,16.1-37.71-5-44.62,25.8,0,93.22,4.32,93.22,4.32Z"/><path class="cls-5" d="M115.22,73.08C87.08,69.63,47.8,62.72,1.48,68.33,30.21,80.42,37.24,88.2,32,110.22c24.62-1.3,41.62-5.61,56.87-2.16,9.8,2.22,19.35,9.07,34,6.91-3.51-3.46-5.27-7.34-3.51-11.23S129.88,86.9,115.22,73.08Z"/><g class="cls-6"><g class="cls-7"><polygon class="cls-8" points="41.62 88.2 41.35 88.25 41.35 88.2 41.62 88.2"/><polygon class="cls-9" points="43.35 88.2 41.35 88.56 41.35 88.25 41.62 88.2 43.35 88.2"/><polygon class="cls-10" points="45.09 88.2 41.35 88.87 41.35 88.56 43.35 88.2 45.09 88.2"/><polygon class="cls-11" points="46.83 88.2 41.35 89.19 41.35 88.87 45.09 88.2 46.83 88.2"/><polygon class="cls-12" points="48.56 88.2 41.35 89.5 41.35 89.19 46.83 88.2 48.56 88.2"/><polygon class="cls-13" points="50.3 88.2 41.35 89.82 41.35 89.5 48.56 88.2 50.3 88.2"/><polygon class="cls-14" points="52.03 88.2 41.35 90.13 41.35 89.82 50.3 88.2 52.03 88.2"/><polygon class="cls-15" points="53.77 88.2 41.35 90.44 41.35 90.13 52.03 88.2 53.77 88.2"/><polygon class="cls-16" points="55.51 88.2 41.35 90.76 41.35 90.44 53.77 88.2 55.51 88.2"/><polygon class="cls-17" points="57.24 88.2 41.35 91.07 41.35 90.76 55.51 88.2 57.24 88.2"/><polygon class="cls-18" points="58.98 88.2 41.35 91.39 41.35 91.07 57.24 88.2 58.98 88.2"/><polygon class="cls-19" points="60.72 88.2 41.35 91.7 41.35 91.39 58.98 88.2 60.72 88.2"/><polygon class="cls-20" points="62.45 88.2 41.35 92.02 41.35 91.7 60.72 88.2 62.45 88.2"/><polygon class="cls-21" points="64.19 88.2 41.35 92.33 41.35 92.02 62.45 88.2 64.19 88.2"/><polygon class="cls-22" points="65.92 88.2 41.35 92.64 41.35 92.33 64.19 88.2 65.92 88.2"/><polygon class="cls-23" points="67.66 88.2 41.35 92.96 41.35 92.64 65.92 88.2 67.66 88.2"/><polygon class="cls-24" points="69.4 88.2 41.35 93.27 41.35 92.96 67.66 88.2 69.4 88.2"/><polygon class="cls-25" points="71.13 88.2 41.35 93.59 41.35 93.27 69.4 88.2 71.13 88.2"/><polygon class="cls-26" points="72.87 88.2 41.35 93.9 41.35 93.59 71.13 88.2 72.87 88.2"/><polygon class="cls-27" points="73.05 88.2 73.14 88.46 41.35 94.22 41.35 93.9 72.87 88.2 73.05 88.2"/><polygon class="cls-28" points="73.14 88.46 73.24 88.76 41.35 94.53 41.35 94.22 73.14 88.46"/><polygon class="cls-29" points="73.24 88.76 73.28 88.89 73.28 89.06 41.35 94.84 41.35 94.53 73.24 88.76"/><polygon class="cls-30" points="73.28 89.38 41.35 95.16 41.35 94.84 73.28 89.06 73.28 89.38"/><polygon class="cls-31" points="73.28 89.69 41.35 95.47 41.35 95.16 73.28 89.38 73.28 89.69"/><polygon class="cls-32" points="73.28 90.01 41.35 95.79 41.35 95.47 73.28 89.69 73.28 90.01"/><polygon class="cls-33" points="73.28 90.32 41.35 96.1 41.35 95.79 73.28 90.01 73.28 90.32"/><polygon class="cls-34" points="73.28 90.64 41.35 96.42 41.35 96.1 73.28 90.32 73.28 90.64"/><polygon class="cls-35" points="73.28 90.95 41.35 96.73 41.35 96.42 73.28 90.64 73.28 90.95"/><polygon class="cls-36" points="73.28 91.27 41.35 97.04 41.35 96.73 73.28 90.95 73.28 91.27"/><polygon class="cls-37" points="73.28 91.58 41.35 97.36 41.35 97.04 73.28 91.27 73.28 91.58"/><polygon class="cls-38" points="73.28 91.89 41.35 97.67 41.35 97.36 73.28 91.58 73.28 91.89"/><polygon class="cls-39" points="73.28 92.21 41.35 97.99 41.35 97.67 73.28 91.89 73.28 92.21"/><polygon class="cls-40" points="73.28 92.52 41.35 98.3 41.35 97.99 73.28 92.21 73.28 92.52"/><polygon class="cls-41" points="73.28 92.84 41.35 98.61 41.35 98.3 73.28 92.52 73.28 92.84"/><polygon class="cls-42" points="73.28 93.15 41.35 98.93 41.35 98.61 73.28 92.84 73.28 93.15"/><polygon class="cls-43" points="73.28 93.46 41.35 99.24 41.35 98.93 73.28 93.15 73.28 93.46"/><polygon class="cls-44" points="73.28 93.78 41.35 99.56 41.35 99.24 73.28 93.46 73.28 93.78"/><polygon class="cls-45" points="73.28 94.09 41.35 99.87 41.35 99.56 73.28 93.78 73.28 94.09"/><polygon class="cls-46" points="73.28 94.41 41.35 100.19 41.35 99.87 73.28 94.09 73.28 94.41"/><polygon class="cls-47" points="73.28 94.72 41.35 100.5 41.35 100.19 73.28 94.41 73.28 94.72"/><polygon class="cls-48" points="73.28 95.03 41.35 100.81 41.35 100.5 73.28 94.72 73.28 95.03"/><polygon class="cls-49" points="73.28 95.35 41.35 101.13 41.35 100.81 73.28 95.03 73.28 95.35"/><polygon class="cls-49" points="41.35 101.13 73.28 95.35 73.28 102.14 41.35 102.14 41.35 101.13"/></g><g class="cls-50"><polygon class="cls-51" points="122.26 80.52 119.05 80.39 122.26 80.39 122.26 80.52"/><polygon class="cls-52" points="122.26 80.94 109.24 80.39 119.05 80.39 122.26 80.52 122.26 80.94"/><polygon class="cls-53" points="122.26 81.35 99.43 80.39 109.24 80.39 122.26 80.94 122.26 81.35"/><polygon class="cls-54" points="122.26 81.77 96.7 80.69 96.73 80.39 99.43 80.39 122.26 81.35 122.26 81.77"/><polygon class="cls-55" points="122.26 82.18 96.67 81.1 96.7 80.69 122.26 81.77 122.26 82.18"/><polygon class="cls-8" points="122.26 82.6 96.64 81.51 96.67 81.1 122.26 82.18 122.26 82.6"/><polygon class="cls-9" points="122.26 83.01 96.61 81.93 96.64 81.51 122.26 82.6 122.26 83.01"/><polygon class="cls-10" points="122.26 83.42 96.58 82.34 96.61 81.93 122.26 83.01 122.26 83.42"/><polygon class="cls-11" points="122.26 83.84 96.54 82.75 96.58 82.34 122.26 83.42 122.26 83.84"/><polygon class="cls-12" points="122.26 84.25 96.51 83.17 96.54 82.75 122.26 83.84 122.26 84.25"/><polygon class="cls-13" points="122.26 84.67 96.48 83.58 96.51 83.17 122.26 84.25 122.26 84.67"/><polygon class="cls-14" points="122.26 85.08 96.45 83.99 96.48 83.58 122.26 84.67 122.26 85.08"/><polygon class="cls-15" points="122.26 85.5 96.42 84.41 96.45 83.99 122.26 85.08 122.26 85.5"/><polygon class="cls-16" points="122.26 85.91 96.38 84.82 96.42 84.41 122.26 85.5 122.26 85.91"/><polygon class="cls-17" points="122.26 86.33 96.35 85.23 96.38 84.82 122.26 85.91 122.26 86.33"/><polygon class="cls-18" points="122.26 86.74 96.32 85.65 96.35 85.23 122.26 86.33 122.26 86.74"/><polygon class="cls-19" points="122.26 87.16 96.29 86.06 96.32 85.65 122.26 86.74 122.26 87.16"/><polygon class="cls-20" points="122.26 87.57 96.25 86.47 96.29 86.06 122.26 87.16 122.26 87.57"/><polygon class="cls-21" points="122.26 87.98 96.22 86.89 96.25 86.47 122.26 87.57 122.26 87.98"/><polygon class="cls-22" points="122.26 88.4 96.19 87.3 96.22 86.89 122.26 87.98 122.26 88.4"/><polygon class="cls-23" points="122.26 88.81 96.16 87.71 96.19 87.3 122.26 88.4 122.26 88.81"/><polygon class="cls-24" points="122.26 89.23 96.13 88.13 96.13 88.1 96.16 87.71 122.26 88.81 122.26 89.23"/><polygon class="cls-25" points="122.26 89.64 96.13 88.54 96.13 88.13 122.26 89.23 122.26 89.64"/><polygon class="cls-26" points="122.26 90.06 96.13 88.95 96.13 88.54 122.26 89.64 122.26 90.06"/><polygon class="cls-27" points="122.26 90.47 96.13 89.37 96.13 88.95 122.26 90.06 122.26 90.47"/><polygon class="cls-28" points="122.26 90.89 96.13 89.78 96.13 89.37 122.26 90.47 122.26 90.89"/><polygon class="cls-29" points="122.26 91.3 96.13 90.2 96.13 89.78 122.26 90.89 122.26 91.3"/><polygon class="cls-30" points="122.26 91.72 96.13 90.61 96.13 90.2 122.26 91.3 122.26 91.72"/><polygon class="cls-31" points="122.26 92.13 96.13 91.03 96.13 90.61 122.26 91.72 122.26 92.13"/><polygon class="cls-32" points="122.26 92.55 96.13 91.44 96.13 91.03 122.26 92.13 122.26 92.55"/><polygon class="cls-33" points="122.26 92.96 96.13 91.86 96.13 91.44 122.26 92.55 122.26 92.96"/><polygon class="cls-34" points="122.26 93.37 96.13 92.27 96.13 91.86 122.26 92.96 122.26 93.37"/><polygon class="cls-35" points="122.26 93.79 96.13 92.68 96.13 92.27 122.26 93.37 122.26 93.79"/><polygon class="cls-36" points="122.26 94.2 96.13 93.1 96.13 92.68 122.26 93.79 122.26 94.2"/><polygon class="cls-37" points="122.26 94.62 96.13 93.51 96.13 93.1 122.26 94.2 122.26 94.62"/><polygon class="cls-38" points="122.26 95.03 96.13 93.93 96.13 93.51 122.26 94.62 122.26 95.03"/><polygon class="cls-39" points="122.26 95.45 96.13 94.34 96.13 93.93 122.26 95.03 122.26 95.45"/><polygon class="cls-40" points="122.26 95.86 96.13 94.76 96.13 94.34 122.26 95.45 122.26 95.86"/><polygon class="cls-41" points="122.26 96.28 96.13 95.17 96.13 94.76 122.26 95.86 122.26 96.28"/><polygon class="cls-42" points="122.26 96.69 96.13 95.59 96.13 95.17 122.26 96.28 122.26 96.69"/><polygon class="cls-43" points="122.26 97.11 96.13 96 96.13 95.59 122.26 96.69 122.26 97.11"/><polygon class="cls-44" points="122.26 97.52 96.13 96.42 96.13 96 122.26 97.11 122.26 97.52"/><polygon class="cls-45" points="122.26 97.93 96.13 96.83 96.13 96.42 122.26 97.52 122.26 97.93"/><polygon class="cls-46" points="122.26 98.35 96.13 97.24 96.13 96.83 122.26 97.93 122.26 98.35"/><polygon class="cls-47" points="122.26 98.76 96.13 97.66 96.13 97.24 122.26 98.35 122.26 98.76"/><polygon class="cls-48" points="122.26 99.18 96.13 98.07 96.13 97.66 122.26 98.76 122.26 99.18"/><polygon class="cls-49" points="122.26 99.59 96.13 98.49 96.13 98.07 122.26 99.18 122.26 99.59"/><polygon class="cls-49" points="96.13 98.49 122.26 99.59 122.26 108.16 96.13 108.16 96.13 98.49"/></g><path class="cls-56" d="M41.35,85.67c-.33,0-.59-.19-.59-.43,0-1.75-3.21-5.85-9.35-10.28-6.58-4.75-14.12-8.11-20.68-9.23-.32,0-.51-.28-.44-.51a.61.61,0,0,1,.7-.33c15.09,2.57,30.94,15.73,30.94,20.35C41.93,85.48,41.67,85.67,41.35,85.67Z"/><path class="cls-57" d="M48.38,84.74a.56.56,0,0,1-.57-.35c-1.68-6.58-15-16-22.8-18.69-.3-.1-.42-.35-.29-.57a.69.69,0,0,1,.78-.21c8,2.75,21.72,12.49,23.46,19.31.06.24-.15.46-.47.51Z"/><path class="cls-58" d="M54.89,84.38a.55.55,0,0,1-.57-.35c-1.12-4.7-9.57-16.15-17.74-18.87-.3-.09-.43-.35-.3-.57a.7.7,0,0,1,.78-.21c8.64,2.86,17.23,14.52,18.41,19.5.06.23-.16.46-.47.5Z"/><path class="cls-59" d="M63.13,84.38a.58.58,0,0,1-.57-.32l-.33-.93c-1.75-5-5-14.32-14.13-18-.28-.11-.39-.38-.23-.59a.7.7,0,0,1,.79-.17c9.58,3.84,12.91,13.39,14.71,18.52.11.33.22.64.32.93s-.1.47-.41.53Z"/><path class="cls-60" d="M76.75,99.52l-.19,0c-.31-.08-.47-.32-.37-.55,3.89-8.4-2.3-30.47-9.32-33.26-.29-.11-.4-.37-.24-.58a.7.7,0,0,1,.79-.18c8.09,3.21,13.66,26.12,9.88,34.3A.59.59,0,0,1,76.75,99.52Z"/><path class="cls-61" d="M83.56,90.36h0c-.32,0-.57-.22-.55-.46.55-9-4.93-19.33-8.81-23.44a.37.37,0,0,1,.15-.6.72.72,0,0,1,.82.11c4,4.21,9.58,14.74,9,24A.55.55,0,0,1,83.56,90.36Z"/><path class="cls-62" d="M88.25,100.72a.69.69,0,0,1-.2,0c-.31-.08-.46-.33-.35-.55,4.18-8.36,2-25.46-3.94-31.55a.37.37,0,0,1,.13-.61.76.76,0,0,1,.82.1C91.5,75,92.79,92.45,88.8,100.44A.62.62,0,0,1,88.25,100.72Z"/><path class="cls-63" d="M92.35,101.58a.65.65,0,0,1-.27,0c-.28-.11-.39-.37-.24-.58,5.75-8.06,5.78-27.31,0-33.23a.36.36,0,0,1,.13-.6.74.74,0,0,1,.82.1c6,6.24,6.07,25.69,0,34.13A.61.61,0,0,1,92.35,101.58Z"/><path class="cls-64" d="M102.91,95.11h-.06c-.32,0-.56-.23-.52-.47,1.21-8.52-.11-20.68-4-25.2a.38.38,0,0,1,.18-.6.74.74,0,0,1,.81.14c4,4.67,5.43,17.09,4.19,25.75A.55.55,0,0,1,102.91,95.11Z"/></g><path class="cls-65" d="M124,7.79c9.08,13.48,15.54,55.92,17.44,70.14s-20.67,27-37.9,4.91S76.13,49.1,79.26,30.43,110.22-12.75,124,7.79Z"/><path class="cls-66" d="M42.76,115.72a50,50,0,1,0,67.9,19.49A50,50,0,0,0,42.76,115.72ZM86,193.84a40.47,40.47,0,1,1,15.78-55A40.47,40.47,0,0,1,86,193.84Z"/><path class="cls-67" d="M59.89,146.52c11.47-6.35,33-7.31,36.85-15,4.54-2.72,12.78,10.07,6.58,10.14-5-2.67-10.53,3.75-12,16.06-1.37,11.42,9.6,12.76,14.88,8.45,5,2.11,1.11,15.24-4.87,12.8-1.26-6.33-12.69-1.9-21.72,3.1l-.11.06c-9,5-18.84,12.35-14.15,16.78-1.1,6.35-14.3,2.71-13.43-2.67,6.45-2.19,11.14-12.2.72-17.1-11.21-5.27-19.58-4-20,1.68-3.34,5.22-9.82-8.56-5.11-11,8.56.78,20.77-16.94,32.25-23.3"/><ellipse class="cls-68" cx="66.97" cy="159.42" rx="8.37" ry="6.42" transform="translate(-68.87 52.43) rotate(-28.99)"/><path class="cls-69" d="M84.41,107.86c-6.79-2.41-20.71-6.47-23.81-4.56-9.54,5.15-19.87,7-20.77,11.76s7.77,7,8.49,7.18c-.1,3,7.36,8.23,9.8,7.84C71.36,128,69,133.5,79.47,122.78S84.41,107.86,84.41,107.86Z"/><path class="cls-70" d="M73.79,104.61c5.88,1.44,10.45,12.41,8.49,15,22.85-3.92,45.57-17.75,53.54-26.77,15-17-4.65-34.82-27.14-16.76S73.79,104.61,73.79,104.61Z"/></g></g></svg>