<svg xmlns="http://www.w3.org/2000/svg" xmlns:xlink="http://www.w3.org/1999/xlink" width="40.211" height="203.51" ><defs><linearGradient id="A" x1=".232" y1=".016" x2=".783" y2=".897"><stop offset=".641" stop-color="#ffd7a5"/><stop offset="1" stop-color="#faa96c"/></linearGradient><linearGradient id="B" x1=".057" y1=".998" x2=".808" y2="-.139" xlink:href="#A"/><linearGradient id="C" x1=".453" y1=".084" x2=".559" y2="1.055" xlink:href="#A"/><linearGradient id="D" x1=".573" y1="-.057" x2=".458" y2=".839" xlink:href="#A"/><linearGradient id="E" x1=".471" y1="-.064" x2=".512" y2=".89"><stop offset="0" stop-color="#d993bf"/><stop offset="1" stop-color="#ed5b89"/></linearGradient><linearGradient id="F" x1=".483" y1="-.056" x2=".509" y2=".888" xlink:href="#E"/><linearGradient id="G" x1=".486" y1="-.058" y2=".889" xlink:href="#E"/><linearGradient id="H" x1="-56.82" y1="43.695" x2="-56.789" y2="44.655" xlink:href="#E"/><linearGradient id="I" x1=".489" y1="-.06" x2=".516" y2=".898" xlink:href="#E"/><linearGradient id="J" x1=".488" y1="-.066" y2=".897" xlink:href="#E"/><linearGradient id="K" x1=".486" y1="-.068" x2=".513" y2=".899" xlink:href="#E"/></defs><path d="M23.616 5.068c7.492 9.256 14.168 48.015 13.542 73.2s-17.638 19.645-19.511 0-7.914-41.231-9.044-49.533S13.191-7.813 23.616 5.068z" fill="url(#A)"/><path d="M37.2 87.839c-.976 10.863-9.8 65.1-14.369 74.644s-8.716 9.547-7.885-5.7 4.5-64.17 6.4-72.018S38.698 71.171 37.2 87.839z" fill="url(#B)"/><path d="M12.452 175.697c1.66 1.661-4.152 22.418-12.454 18.266 3.321-3.321 6.094-10.311 6.643-14.114s5.811-4.152 5.811-4.152z" fill="url(#C)"/><path d="M14.86 161.937c-3.19 7.669-9.052 14.591-8.221 18.743s-.153 22.364 4.075 22.8 12.526-4.857 12.112-6.358c1.665 1.147 4.569.989 5.4-3.163s5.812-9.964 3.319-15.776-9.225-11.249-7.933-17.664-7.169-2.378-8.752 1.418z" fill="url(#D)"/><path d="M27.158 6.498c4.932 6.239 8.071 24.711 7.291 28.611S12.778 46.03 9.964 41.348s-4.375-20.28-3.6-26.519 8.045-24.466 20.794-8.331z" fill="url(#E)"/><path d="M9.489 41.348c.78-8.58 22.076-18.138 25.859-9.458a38.32 38.32 0 0 1 2.734 20.113c-.512 2.606-24.063 7.318-25.157 4.183S9.137 45.221 9.489 41.348z" fill="url(#F)"/><path d="M13.389 55.823c1.56-7.438 22.086-9.93 24.693-4.964s2.014 15.328.361 18.511-21.375 6.9-22.824 3.185-3.427-11.029-2.23-16.732z" fill="url(#G)"/><path d="M18.603 89.373c-2.788-7.657-5.349-17.662-3.045-21.753s23.121-7.237 24.26 1.275-.112 21.087-5.11 23.193-15.105.026-16.105-2.715z" fill="url(#H)"/><path d="M16.811 83.929c2.114-4.709 24.561-7.547 23.05 2.627s-.689 14.654-2.661 15.534-18.5 1.009-19.6-2.565-2.045-12.796-.789-15.596z" fill="url(#I)"/><path d="M16.215 99.524c1.854-3.575 22.134-2.8 22.228 3.96.09 6.563-1.854 13.391-4.874 15.018s-17.085-.009-18.62-4.613c-1.56-4.681-.28-11.388 1.266-14.365z" fill="url(#J)"/><path d="M14.667 114.106c1.381-2.167 19.781-.994 20.561 3.686s-1.559 17.161-3.9 17.941-17.16-.78-17.939-3.12-1.342-14.396 1.278-18.507z" fill="url(#K)"/></svg>
