<svg xmlns="http://www.w3.org/2000/svg" xmlns:xlink="http://www.w3.org/1999/xlink" width="37.299" height="281.002" ><defs><linearGradient id="A" x1="1.093" y1=".069" x2=".29" y2=".813"><stop offset=".641" stop-color="#ffd7a5"/><stop offset="1" stop-color="#faa96c"/></linearGradient><linearGradient id="B" x1=".556" y1=".257" x2=".411" y2=".996" xlink:href="#A"/><linearGradient id="C" x1=".264" y1="-.01" x2=".771" y2=".884"><stop offset="0" stop-color="#8567ad"/><stop offset="1" stop-color="#1b2139"/></linearGradient><linearGradient id="D" x1=".272" y1=".975" x2=".696" y2=".072" xlink:href="#C"/></defs><path d="M8.793 248.213c2.044-1.932.167 18.8-3.12 19.5s-10.921-6.236 3.12-19.5z" fill="url(#A)"/><path d="M13.473 222.596c-2.341 21.839-.78 17.037-.78 17.037-6.241 9.361-10.921 15.6-8.582 19.5s0 22.621 5.461 21.841 12.2-7.1 12.2-7.1c1.059 2.424 4.179 3.2 4.959.083s6.241-19.5 5.459-23.4-8.834-15.576-9.1-17.148c-.524-7.824-.427-10.81-.427-10.81z" fill="url(#B)"/><path d="M23.349 1.078c10.92 11.7 9.145 105.649 8.083 119.125s-17.012 31.65-21.907 11.642S.035 69.977 0 56.545C-.051 37.738 15.307-7.538 23.349 1.078z" fill="url(#C)"/><path d="M32.236 126.68c1.777 10.825 10.446 25.917 0 110.058.168 9.94-26.826-2.44-26.826-2.44 3.9-27.3 5.145-83.19 3.352-97.755s20.659-27 23.474-9.863z" fill="url(#D)"/></svg>
