<svg xmlns="http://www.w3.org/2000/svg" xmlns:xlink="http://www.w3.org/1999/xlink" viewBox="0 0 167.45 230.22"><defs><style>.cls-1,.cls-6{fill:none;}.cls-2{fill:url(#Безымянный_градиент_708);}.cls-3{fill:url(#Новый_образец_градиента_копия_3);}.cls-4{fill:url(#Безымянный_градиент_481);}.cls-5{fill:#e86b56;}.cls-6{stroke:#bdbfc6;stroke-miterlimit:10;stroke-width:0.5px;}.cls-7{fill:#6473a0;}.cls-8{fill:url(#Безымянный_градиент_937);}.cls-9{fill:url(#Безымянный_градиент_708-2);}.cls-10{fill:url(#Безымянный_градиент_655);}.cls-11{clip-path:url(#clip-path);}.cls-12{clip-path:url(#clip-path-2);}.cls-13{fill:#c9cacc;}.cls-14{fill:#c8c9cb;}.cls-15{fill:#c7c8ca;}.cls-16{fill:#c6c7c9;}.cls-17{fill:#c5c5c8;}.cls-18{fill:#c3c4c7;}.cls-19{fill:#c2c3c6;}.cls-20{fill:#c1c2c5;}.cls-21{fill:#c0c1c4;}.cls-22{fill:#bfc0c3;}.cls-23{fill:#bebfc1;}.cls-24{fill:#bdbec0;}.cls-25{fill:#bcbdbf;}.cls-26{fill:#bbbcbe;}.cls-27{fill:#b9bbbd;}.cls-28{fill:#b8babc;}.cls-29{fill:#b7b8bb;}.cls-30{fill:#b6b7ba;}.cls-31{fill:#b5b6b8;}.cls-32{fill:#b4b5b7;}.cls-33{fill:#b2b4b6;}.cls-34{fill:#b1b3b5;}.cls-35{fill:#b0b2b4;}.cls-36{fill:#afb0b3;}.cls-37{fill:#aeafb2;}.cls-38{fill:#adaeb0;}.cls-39{fill:#abadaf;}.cls-40{fill:#aaacae;}.cls-41{fill:#a9abad;}.cls-42{fill:#a8a9ac;}.cls-43{fill:#a7a8aa;}.cls-44{fill:#a5a7a9;}.cls-45{fill:#a4a6a8;}.cls-46{fill:#a3a5a7;}.cls-47{fill:#a2a3a6;}.cls-48{fill:#a0a2a4;}.cls-49{fill:#9fa1a3;}.cls-50{fill:#9ea0a2;}.cls-51{fill:#9d9fa1;}.cls-52{fill:#9c9d9f;}.cls-53{fill:#9a9c9e;}.cls-54{fill:#999b9d;}.cls-55{clip-path:url(#clip-path-3);}.cls-56{fill:#cecfd1;}.cls-57{fill:#cdced0;}.cls-58{fill:#cccdcf;}.cls-59{fill:#cbccce;}.cls-60{fill:#cacbcd;}.cls-61{fill:url(#Безымянный_градиент_708-3);}.cls-62{fill:url(#Безымянный_градиент_708-4);}.cls-63{fill:url(#Безымянный_градиент_708-5);}.cls-64{fill:url(#Безымянный_градиент_708-6);}.cls-65{fill:url(#Безымянный_градиент_708-7);}.cls-66{fill:url(#Безымянный_градиент_708-8);}.cls-67{fill:url(#Безымянный_градиент_708-9);}.cls-68{fill:url(#Безымянный_градиент_708-10);}.cls-69{fill:url(#Безымянный_градиент_708-11);}.cls-70{fill:url(#Безымянный_градиент_1005);}.cls-71{fill:url(#Безымянный_градиент_2697);}.cls-72{fill:url(#Безымянный_градиент_3116);}.cls-73{fill:url(#Безымянный_градиент_2697-2);}.cls-74{fill:url(#Безымянный_градиент_2697-3);}.cls-75{fill:url(#Безымянный_градиент_925);}.cls-76{fill:url(#Безымянный_градиент_925-2);}.cls-77{fill:url(#Безымянный_градиент_159);}.cls-78{fill:url(#Безымянный_градиент_1005-2);}</style><linearGradient id="Безымянный_градиент_708" x1="34.23" y1="57.04" x2="48.69" y2="128.45" gradientUnits="userSpaceOnUse"><stop offset="0" stop-color="#ececef"/><stop offset="0.21" stop-color="#dfe0e2"/><stop offset="0.6" stop-color="#bebfc1"/><stop offset="0.96" stop-color="#999b9d"/></linearGradient><linearGradient id="Новый_образец_градиента_копия_3" x1="11236.93" y1="6760.53" x2="11266.97" y2="6760.53" gradientTransform="translate(-6733.33 11345.66) rotate(-90)" gradientUnits="userSpaceOnUse"><stop offset="0" stop-color="#ddf5f5"/><stop offset="1" stop-color="#c6d9db"/></linearGradient><linearGradient id="Безымянный_градиент_481" x1="11267.26" y1="6790.1" x2="11249.2" y2="6745.39" gradientTransform="translate(-6733.33 11345.66) rotate(-90)" gradientUnits="userSpaceOnUse"><stop offset="0" stop-color="#ddf5f5"/><stop offset="1" stop-color="#fafff5"/></linearGradient><linearGradient id="Безымянный_градиент_937" x1="67.98" y1="127.88" x2="44.2" y2="74.97" gradientUnits="userSpaceOnUse"><stop offset="0" stop-color="#faf8ff"/><stop offset="0.16" stop-color="#efedf2"/><stop offset="0.45" stop-color="#d2d0d1"/><stop offset="0.62" stop-color="#bdbbb9"/></linearGradient><linearGradient id="Безымянный_градиент_708-2" x1="86.04" y1="64.8" x2="88.06" y2="101.64" xlink:href="#Безымянный_градиент_708"/><linearGradient id="Безымянный_градиент_655" x1="87.72" y1="59.66" x2="89.25" y2="104.92" gradientUnits="userSpaceOnUse"><stop offset="0.33" stop-color="#faf8ff"/><stop offset="0.49" stop-color="#efedf2"/><stop offset="0.78" stop-color="#d2d0d1"/><stop offset="0.96" stop-color="#bdbbb9"/></linearGradient><clipPath id="clip-path"><path class="cls-1" d="M141.08,73.08c-28.14-3.45-67.42-10.36-113.74-4.75C56.07,80.42,63.11,88.2,57.83,110.22c24.62-1.3,41.63-5.61,56.87-2.16,9.8,2.22,19.35,9.07,34,6.91-3.52-3.46-5.28-7.34-3.52-11.23S155.74,86.9,141.08,73.08Z"/></clipPath><clipPath id="clip-path-2"><path class="cls-1" d="M67.21,89.49s2.34,9.33,0,12.65c5.28-.69,28.77-3,30.21-3,1.72-3.22.86-9.17-.9-10C87.14,88.2,67.21,89.49,67.21,89.49Z"/></clipPath><clipPath id="clip-path-3"><path class="cls-1" d="M122,103.17c3.26,1,14.43,4.66,17.35,5-.61-3.66,8.78-13,4.09-26.44a81.6,81.6,0,0,0-10.06-1.33,23.26,23.26,0,0,1-.82,18.7c-4-1.06-7.18-1.58-7.18-1.58C125.25,98.56,122,103.17,122,103.17Z"/></clipPath><linearGradient id="Безымянный_градиент_708-3" x1="52.43" y1="58.94" x2="51.34" y2="97.3" xlink:href="#Безымянный_градиент_708"/><linearGradient id="Безымянный_градиент_708-4" x1="63.13" y1="59.12" x2="62.03" y2="97.58" xlink:href="#Безымянный_градиент_708"/><linearGradient id="Безымянный_градиент_708-5" x1="72.15" y1="59.27" x2="71.05" y2="97.81" xlink:href="#Безымянный_градиент_708"/><linearGradient id="Безымянный_градиент_708-6" x1="82.04" y1="59.45" x2="80.95" y2="98.04" xlink:href="#Безымянный_градиент_708"/><linearGradient id="Безымянный_градиент_708-7" x1="98.94" y1="59.78" x2="97.84" y2="98.5" xlink:href="#Безымянный_градиент_708"/><linearGradient id="Безымянный_градиент_708-8" x1="105.49" y1="59.91" x2="104.39" y2="98.61" xlink:href="#Безымянный_градиент_708"/><linearGradient id="Безымянный_градиент_708-9" x1="113.74" y1="60.06" x2="112.64" y2="98.83" xlink:href="#Безымянный_градиент_708"/><linearGradient id="Безымянный_градиент_708-10" x1="120.88" y1="60.2" x2="119.78" y2="99.01" xlink:href="#Безымянный_градиент_708"/><linearGradient id="Безымянный_градиент_708-11" x1="127.47" y1="60.35" x2="126.37" y2="99.11" xlink:href="#Безымянный_градиент_708"/><linearGradient id="Безымянный_градиент_1005" x1="123.62" y1="6.74" x2="144.07" y2="82.32" gradientUnits="userSpaceOnUse"><stop offset="0.22" stop-color="#1967b3"/><stop offset="1" stop-color="#183773"/></linearGradient><linearGradient id="Безымянный_градиент_2697" x1="68.05" y1="148.81" x2="81.62" y2="162.75" gradientUnits="userSpaceOnUse"><stop offset="0" stop-color="#cbe9e5"/><stop offset="1" stop-color="#4f5b6f"/></linearGradient><linearGradient id="Безымянный_градиент_3116" x1="53.08" y1="178.27" x2="89.63" y2="215.82" gradientUnits="userSpaceOnUse"><stop offset="0" stop-color="#fffff9"/><stop offset="1" stop-color="#a7b9bd"/></linearGradient><linearGradient id="Безымянный_градиент_2697-2" x1="94.1" y1="163.69" x2="81.33" y2="242.33" xlink:href="#Безымянный_градиент_2697"/><linearGradient id="Безымянный_градиент_2697-3" x1="57.07" y1="170.47" x2="92.45" y2="170.47" xlink:href="#Безымянный_градиент_2697"/><linearGradient id="Безымянный_градиент_925" x1="77.79" y1="151.43" x2="75.61" y2="109.61" gradientUnits="userSpaceOnUse"><stop offset="0.22" stop-color="#694538"/><stop offset="1" stop-color="#af6737"/></linearGradient><linearGradient id="Безымянный_градиент_925-2" x1="83.08" y1="145.62" x2="81.44" y2="114.28" xlink:href="#Безымянный_градиент_925"/><linearGradient id="Безымянный_градиент_159" x1="-3066.51" y1="5300.72" x2="-3051.92" y2="5260.07" gradientTransform="matrix(0.38, 0.93, -0.93, 0.38, 6131.18, 969.68)" gradientUnits="userSpaceOnUse"><stop offset="0.64" stop-color="#ffd7a5"/><stop offset="1" stop-color="#faa96c"/></linearGradient><linearGradient id="Безымянный_градиент_1005-2" x1="106.27" y1="114.32" x2="166.29" y2="72.53" xlink:href="#Безымянный_градиент_1005"/></defs><g id="Слой_2" data-name="Слой 2"><g id="Слой_2-2" data-name="Слой 2"><path class="cls-2" d="M43.76,127.49C21.48,110.22,25.58,82.15,27.34,68.33,54.9,72.65,70.73,97.26,43.76,127.49Z"/><path class="cls-3" d="M0,108.73c0-7.47,1.51-24,0-30,13.05,0,48.67,1,48.67,1,4.52,4.51,7,23.58,5,26.09C43.65,104.78,12,106.15,0,108.73Z"/><path class="cls-4" d="M4.52,101.26C4,93.74,3,81.19,0,78.68c17.06-.5,44.66.51,55.19-2.5,2,3.51,4.52,15,3.52,24.08C50.18,100.26,19.07,98.75,4.52,101.26Z"/><polygon class="cls-5" points="10.77 88.77 11.01 90.72 9.06 90.96 9.34 93.25 11.29 93.02 11.52 94.97 13.81 94.69 13.58 92.74 15.53 92.5 15.25 90.21 13.3 90.44 13.06 88.5 10.77 88.77"/><path class="cls-6" d="M3,78.68c1.51,2.51,4,15.06,4,19.57,4.52-.5,44.66-1,48.68-1,1-4.52-1-16-4-20.31"/><path class="cls-7" d="M25.34,90.73c0,.19,0,.65-5.68,2L24.89,94a.27.27,0,0,1,.19.3.26.26,0,0,1-.31.19L18.51,93a.26.26,0,0,1-.2-.25h0a.27.27,0,0,1,.2-.24,42.78,42.78,0,0,0,6.24-1.78,7.81,7.81,0,0,0-1.12-.42c-1-.32-1.49-.51-1.54-.87a.42.42,0,0,1,.23-.41,4.21,4.21,0,0,0,1.58-1.75,13.32,13.32,0,0,0-1.85-1.18c-2-1.15-2.91-1.73-2.91-2.23a.43.43,0,0,1,.24-.37l.63-.32A3.07,3.07,0,0,0,21.61,82a.24.24,0,0,1,.33-.1.25.25,0,0,1,.11.34,3.54,3.54,0,0,1-1.82,1.43l-.56.27a13,13,0,0,0,2.63,1.75c1.68,1,2.11,1.26,2.11,1.57,0,.65-1,1.67-1.75,2.17a6.88,6.88,0,0,0,1.13.43C24.81,90.15,25.34,90.34,25.34,90.73Z"/><path class="cls-7" d="M34.37,85.8v.08c-.09.62-1.14,1-3.31,1.57l.22.39c.41.73.79,1.42,1.54,1.64.45.14.7.36.74.67.09.73-1.09,1.53-2.37,2.3-.11.06-.1.1-.1.12,0,.25.73.85,1.92,1.41a.25.25,0,1,1-.21.45c-.65-.3-2.18-1.1-2.21-1.84a.6.6,0,0,1,.35-.57c1.9-1.14,2.14-1.61,2.12-1.81s-.15-.18-.39-.25a3.31,3.31,0,0,1-1.82-1.87l-.3-.51h0l-1.06.29c-1.13.31-1.85.26-2.14-.17a.86.86,0,0,1,.11-1,1.92,1.92,0,0,1,2-.73,2.51,2.51,0,0,1,1.33,1c1.5-.4,3-.85,3.09-1.19,0,0,0-.13-.41-.39a14,14,0,0,0-2.77-1c-1.45-.42-2-.58-2-1h0c0-.31.4-.43.57-.48.53-.16.57-.28.57-.28s-.16-.27-.24-.37a1.83,1.83,0,0,1-.51-1.12.25.25,0,0,1,.5,0A1.45,1.45,0,0,0,30,82c.21.26.42.53.33.83s-.35.45-.91.61l-.07,0a13.15,13.15,0,0,0,1.45.47A13.23,13.23,0,0,1,33.71,85C33.88,85.09,34.37,85.38,34.37,85.8Zm-6.68,1.53a.17.17,0,0,0,0,.1c.11.16.6.25,1.6,0l.94-.26a1.93,1.93,0,0,0-1-.69,1.43,1.43,0,0,0-1.48.54A.6.6,0,0,0,27.69,87.33Z"/><path class="cls-7" d="M44.38,89.5a.37.37,0,0,1,0,.11c-.16.55-1.32.71-4.14,1-1.11.1-2.25.21-3,.37-.35.07-.41.15-.41.15.15.5,4.1,1.86,5.51,1.86a.26.26,0,0,1,0,.51c-1.13,0-5.9-1.29-6-2.35,0-.33.24-.55.8-.66.83-.16,2-.28,3.1-.38a14.06,14.06,0,0,0,3.68-.61.22.22,0,0,0-.07-.07c-.37-.29-.8-.57-1.21-.85-1.09-.73-1.72-1.17-1.76-1.63a.5.5,0,0,1,.15-.41c.12-.12.08-.61-.07-1.2a8.37,8.37,0,0,0-1.12.59.86.86,0,0,1-1,.08c-.66-.36-1-1.67-1-2.78,0-.54.11-1.47.66-1.75a.9.9,0,0,1,.72,0c.88.34,1.56,2,1.64,2.17s.22.59.36,1c.76-.35,1.49-.71,1.56-1.1,0-.18-.07-.4-.33-.65a6.91,6.91,0,0,0-1.94-1.34c-.43-.21-.69-.34-.73-.61a.47.47,0,0,1,.16-.42,1.49,1.49,0,0,1,.24-.19,3.55,3.55,0,0,1-.12-.51.24.24,0,0,1,.21-.29.25.25,0,0,1,.29.2,2.67,2.67,0,0,0,.14.57.29.29,0,0,1-.17.41.54.54,0,0,0-.22.16,3.25,3.25,0,0,0,.43.23,7.56,7.56,0,0,1,2.07,1.43,1.26,1.26,0,0,1,.47,1.1c-.12.66-1,1.07-1.93,1.5.18.72.26,1.46,0,1.77h0c0,.23,1,.88,1.54,1.26.42.29.86.58,1.24.87A.62.62,0,0,1,44.38,89.5Zm-6-6.18c0,1,.31,2,.71,2.24.08,0,.21.09.43-.06a8.41,8.41,0,0,1,1.27-.66c-.1-.35-.23-.71-.36-1s-.77-1.66-1.35-1.88a.37.37,0,0,0-.31,0c-.18.09-.37.53-.38,1.3C38.37,83.26,38.36,83.29,38.36,83.32Z"/><path class="cls-8" d="M42.29,112.43c-4.4-5.34-12-16-3.81-29.85,18.18,2.16,31.66,4.75,31.66,4.75l-5.52,23.93Z"/><path class="cls-9" d="M134.63,107.2c3.52,6.47,3.52,19,2.35,22.88-16.42-3-54.33-9-66.06-7.69s-27.43,4.81-27.43,4.81c12-15,16.1-37.71-5-44.62,25.8,0,93.22,4.32,93.22,4.32Z"/><path class="cls-10" d="M141.08,73.08c-28.14-3.45-67.42-10.36-113.74-4.75C56.07,80.42,63.11,88.2,57.83,110.22c24.62-1.3,41.63-5.61,56.87-2.16,9.8,2.22,19.35,9.07,34,6.91-3.52-3.46-5.28-7.34-3.52-11.23S155.74,86.9,141.08,73.08Z"/><g class="cls-11"><g class="cls-12"><polygon class="cls-13" points="67.48 88.2 67.21 88.25 67.21 88.2 67.48 88.2"/><polygon class="cls-14" points="69.21 88.2 67.21 88.56 67.21 88.25 67.48 88.2 69.21 88.2"/><polygon class="cls-15" points="70.95 88.2 67.21 88.87 67.21 88.56 69.21 88.2 70.95 88.2"/><polygon class="cls-16" points="72.69 88.2 67.21 89.19 67.21 88.87 70.95 88.2 72.69 88.2"/><polygon class="cls-17" points="74.42 88.2 67.21 89.5 67.21 89.19 72.69 88.2 74.42 88.2"/><polygon class="cls-18" points="76.16 88.2 67.21 89.82 67.21 89.5 74.42 88.2 76.16 88.2"/><polygon class="cls-19" points="77.9 88.2 67.21 90.13 67.21 89.82 76.16 88.2 77.9 88.2"/><polygon class="cls-20" points="79.63 88.2 67.21 90.44 67.21 90.13 77.9 88.2 79.63 88.2"/><polygon class="cls-21" points="81.37 88.2 67.21 90.76 67.21 90.44 79.63 88.2 81.37 88.2"/><polygon class="cls-22" points="83.11 88.2 67.21 91.07 67.21 90.76 81.37 88.2 83.11 88.2"/><polygon class="cls-23" points="84.84 88.2 67.21 91.39 67.21 91.07 83.11 88.2 84.84 88.2"/><polygon class="cls-24" points="86.58 88.2 67.21 91.7 67.21 91.39 84.84 88.2 86.58 88.2"/><polygon class="cls-25" points="88.31 88.2 67.21 92.02 67.21 91.7 86.58 88.2 88.31 88.2"/><polygon class="cls-26" points="90.05 88.2 67.21 92.33 67.21 92.02 88.31 88.2 90.05 88.2"/><polygon class="cls-27" points="91.79 88.2 67.21 92.64 67.21 92.33 90.05 88.2 91.79 88.2"/><polygon class="cls-28" points="93.52 88.2 67.21 92.96 67.21 92.64 91.79 88.2 93.52 88.2"/><polygon class="cls-29" points="95.26 88.2 67.21 93.27 67.21 92.96 93.52 88.2 95.26 88.2"/><polygon class="cls-30" points="97 88.2 67.21 93.59 67.21 93.27 95.26 88.2 97 88.2"/><polygon class="cls-31" points="98.73 88.2 67.21 93.9 67.21 93.59 97 88.2 98.73 88.2"/><polygon class="cls-32" points="98.92 88.2 99 88.46 67.21 94.22 67.21 93.9 98.73 88.2 98.92 88.2"/><polygon class="cls-33" points="99 88.46 99.1 88.76 67.21 94.53 67.21 94.22 99 88.46"/><polygon class="cls-34" points="99.1 88.76 99.14 88.89 99.14 89.06 67.21 94.84 67.21 94.53 99.1 88.76"/><polygon class="cls-35" points="99.14 89.38 67.21 95.16 67.21 94.84 99.14 89.06 99.14 89.38"/><polygon class="cls-36" points="99.14 89.69 67.21 95.47 67.21 95.16 99.14 89.38 99.14 89.69"/><polygon class="cls-37" points="99.14 90.01 67.21 95.79 67.21 95.47 99.14 89.69 99.14 90.01"/><polygon class="cls-38" points="99.14 90.32 67.21 96.1 67.21 95.79 99.14 90.01 99.14 90.32"/><polygon class="cls-39" points="99.14 90.64 67.21 96.42 67.21 96.1 99.14 90.32 99.14 90.64"/><polygon class="cls-40" points="99.14 90.95 67.21 96.73 67.21 96.42 99.14 90.64 99.14 90.95"/><polygon class="cls-41" points="99.14 91.27 67.21 97.04 67.21 96.73 99.14 90.95 99.14 91.27"/><polygon class="cls-42" points="99.14 91.58 67.21 97.36 67.21 97.04 99.14 91.27 99.14 91.58"/><polygon class="cls-43" points="99.14 91.89 67.21 97.67 67.21 97.36 99.14 91.58 99.14 91.89"/><polygon class="cls-44" points="99.14 92.21 67.21 97.99 67.21 97.67 99.14 91.89 99.14 92.21"/><polygon class="cls-45" points="99.14 92.52 67.21 98.3 67.21 97.99 99.14 92.21 99.14 92.52"/><polygon class="cls-46" points="99.14 92.84 67.21 98.61 67.21 98.3 99.14 92.52 99.14 92.84"/><polygon class="cls-47" points="99.14 93.15 67.21 98.93 67.21 98.61 99.14 92.84 99.14 93.15"/><polygon class="cls-48" points="99.14 93.46 67.21 99.24 67.21 98.93 99.14 93.15 99.14 93.46"/><polygon class="cls-49" points="99.14 93.78 67.21 99.56 67.21 99.24 99.14 93.46 99.14 93.78"/><polygon class="cls-50" points="99.14 94.09 67.21 99.87 67.21 99.56 99.14 93.78 99.14 94.09"/><polygon class="cls-51" points="99.14 94.41 67.21 100.19 67.21 99.87 99.14 94.09 99.14 94.41"/><polygon class="cls-52" points="99.14 94.72 67.21 100.5 67.21 100.19 99.14 94.41 99.14 94.72"/><polygon class="cls-53" points="99.14 95.03 67.21 100.81 67.21 100.5 99.14 94.72 99.14 95.03"/><polygon class="cls-54" points="99.14 95.35 67.21 101.13 67.21 100.81 99.14 95.03 99.14 95.35"/><polygon class="cls-54" points="67.21 101.13 99.14 95.35 99.14 102.14 67.21 102.14 67.21 101.13"/></g><g class="cls-55"><polygon class="cls-56" points="148.12 80.52 144.91 80.39 148.12 80.39 148.12 80.52"/><polygon class="cls-57" points="148.12 80.94 135.1 80.39 144.91 80.39 148.12 80.52 148.12 80.94"/><polygon class="cls-58" points="148.12 81.35 125.29 80.39 135.1 80.39 148.12 80.94 148.12 81.35"/><polygon class="cls-59" points="148.12 81.77 122.57 80.69 122.59 80.39 125.29 80.39 148.12 81.35 148.12 81.77"/><polygon class="cls-60" points="148.12 82.18 122.53 81.1 122.57 80.69 148.12 81.77 148.12 82.18"/><polygon class="cls-13" points="148.12 82.6 122.5 81.51 122.53 81.1 148.12 82.18 148.12 82.6"/><polygon class="cls-14" points="148.12 83.01 122.47 81.93 122.5 81.51 148.12 82.6 148.12 83.01"/><polygon class="cls-15" points="148.12 83.42 122.44 82.34 122.47 81.93 148.12 83.01 148.12 83.42"/><polygon class="cls-16" points="148.12 83.84 122.41 82.75 122.44 82.34 148.12 83.42 148.12 83.84"/><polygon class="cls-17" points="148.12 84.25 122.37 83.17 122.41 82.75 148.12 83.84 148.12 84.25"/><polygon class="cls-18" points="148.12 84.67 122.34 83.58 122.37 83.17 148.12 84.25 148.12 84.67"/><polygon class="cls-19" points="148.12 85.08 122.31 83.99 122.34 83.58 148.12 84.67 148.12 85.08"/><polygon class="cls-20" points="148.12 85.5 122.28 84.41 122.31 83.99 148.12 85.08 148.12 85.5"/><polygon class="cls-21" points="148.12 85.91 122.25 84.82 122.28 84.41 148.12 85.5 148.12 85.91"/><polygon class="cls-22" points="148.12 86.33 122.21 85.23 122.25 84.82 148.12 85.91 148.12 86.33"/><polygon class="cls-23" points="148.12 86.74 122.18 85.65 122.21 85.23 148.12 86.33 148.12 86.74"/><polygon class="cls-24" points="148.12 87.16 122.15 86.06 122.18 85.65 148.12 86.74 148.12 87.16"/><polygon class="cls-25" points="148.12 87.57 122.12 86.47 122.15 86.06 148.12 87.16 148.12 87.57"/><polygon class="cls-26" points="148.12 87.98 122.08 86.89 122.12 86.47 148.12 87.57 148.12 87.98"/><polygon class="cls-27" points="148.12 88.4 122.05 87.3 122.08 86.89 148.12 87.98 148.12 88.4"/><polygon class="cls-28" points="148.12 88.81 122.02 87.71 122.05 87.3 148.12 88.4 148.12 88.81"/><polygon class="cls-29" points="148.12 89.23 121.99 88.13 121.99 88.1 122.02 87.71 148.12 88.81 148.12 89.23"/><polygon class="cls-30" points="148.12 89.64 121.99 88.54 121.99 88.13 148.12 89.23 148.12 89.64"/><polygon class="cls-31" points="148.12 90.06 121.99 88.95 121.99 88.54 148.12 89.64 148.12 90.06"/><polygon class="cls-32" points="148.12 90.47 121.99 89.37 121.99 88.95 148.12 90.06 148.12 90.47"/><polygon class="cls-33" points="148.12 90.89 121.99 89.78 121.99 89.37 148.12 90.47 148.12 90.89"/><polygon class="cls-34" points="148.12 91.3 121.99 90.2 121.99 89.78 148.12 90.89 148.12 91.3"/><polygon class="cls-35" points="148.12 91.72 121.99 90.61 121.99 90.2 148.12 91.3 148.12 91.72"/><polygon class="cls-36" points="148.12 92.13 121.99 91.03 121.99 90.61 148.12 91.72 148.12 92.13"/><polygon class="cls-37" points="148.12 92.55 121.99 91.44 121.99 91.03 148.12 92.13 148.12 92.55"/><polygon class="cls-38" points="148.12 92.96 121.99 91.86 121.99 91.44 148.12 92.55 148.12 92.96"/><polygon class="cls-39" points="148.12 93.37 121.99 92.27 121.99 91.86 148.12 92.96 148.12 93.37"/><polygon class="cls-40" points="148.12 93.79 121.99 92.68 121.99 92.27 148.12 93.37 148.12 93.79"/><polygon class="cls-41" points="148.12 94.2 121.99 93.1 121.99 92.68 148.12 93.79 148.12 94.2"/><polygon class="cls-42" points="148.12 94.62 121.99 93.51 121.99 93.1 148.12 94.2 148.12 94.62"/><polygon class="cls-43" points="148.12 95.03 121.99 93.93 121.99 93.51 148.12 94.62 148.12 95.03"/><polygon class="cls-44" points="148.12 95.45 121.99 94.34 121.99 93.93 148.12 95.03 148.12 95.45"/><polygon class="cls-45" points="148.12 95.86 121.99 94.76 121.99 94.34 148.12 95.45 148.12 95.86"/><polygon class="cls-46" points="148.12 96.28 121.99 95.17 121.99 94.76 148.12 95.86 148.12 96.28"/><polygon class="cls-47" points="148.12 96.69 121.99 95.59 121.99 95.17 148.12 96.28 148.12 96.69"/><polygon class="cls-48" points="148.12 97.11 121.99 96 121.99 95.59 148.12 96.69 148.12 97.11"/><polygon class="cls-49" points="148.12 97.52 121.99 96.42 121.99 96 148.12 97.11 148.12 97.52"/><polygon class="cls-50" points="148.12 97.93 121.99 96.83 121.99 96.42 148.12 97.52 148.12 97.93"/><polygon class="cls-51" points="148.12 98.35 121.99 97.24 121.99 96.83 148.12 97.93 148.12 98.35"/><polygon class="cls-52" points="148.12 98.76 121.99 97.66 121.99 97.24 148.12 98.35 148.12 98.76"/><polygon class="cls-53" points="148.12 99.18 121.99 98.07 121.99 97.66 148.12 98.76 148.12 99.18"/><polygon class="cls-54" points="148.12 99.59 121.99 98.49 121.99 98.07 148.12 99.18 148.12 99.59"/><polygon class="cls-54" points="121.99 98.49 148.12 99.59 148.12 108.16 121.99 108.16 121.99 98.49"/></g><path class="cls-61" d="M67.21,85.67c-.32,0-.59-.19-.59-.43,0-1.75-3.21-5.85-9.35-10.28-6.58-4.75-14.11-8.11-20.68-9.23-.32,0-.51-.28-.44-.51a.61.61,0,0,1,.7-.33C51.94,67.46,67.8,80.62,67.8,85.24,67.8,85.48,67.53,85.67,67.21,85.67Z"/><path class="cls-62" d="M74.24,84.74a.56.56,0,0,1-.57-.35c-1.68-6.58-15-16-22.8-18.69-.29-.1-.42-.35-.28-.57a.67.67,0,0,1,.77-.21c8,2.75,21.73,12.49,23.46,19.31.06.24-.15.46-.47.51Z"/><path class="cls-63" d="M80.76,84.38a.56.56,0,0,1-.58-.35c-1.12-4.7-9.57-16.15-17.74-18.87-.29-.09-.43-.35-.29-.57a.68.68,0,0,1,.77-.21c8.65,2.86,17.23,14.52,18.41,19.5.06.23-.15.46-.47.5Z"/><path class="cls-64" d="M89,84.38a.58.58,0,0,1-.57-.32l-.33-.93c-1.75-5-5-14.32-14.12-18a.39.39,0,0,1-.24-.59.72.72,0,0,1,.8-.17c9.57,3.84,12.91,13.39,14.7,18.52q.17.5.33.93c.08.23-.11.47-.42.53Z"/><path class="cls-65" d="M102.61,99.52l-.19,0c-.3-.08-.47-.32-.36-.55,3.88-8.4-2.31-30.47-9.33-33.26-.29-.11-.39-.37-.24-.58a.72.72,0,0,1,.8-.18c8.09,3.21,13.65,26.12,9.88,34.3A.61.61,0,0,1,102.61,99.52Z"/><path class="cls-66" d="M109.42,90.36h0c-.33,0-.58-.22-.56-.46.56-9-4.93-19.33-8.8-23.44a.36.36,0,0,1,.14-.6A.72.72,0,0,1,101,66c4,4.21,9.58,14.74,9,24C110,90.18,109.74,90.36,109.42,90.36Z"/><path class="cls-67" d="M114.11,100.72l-.2,0c-.3-.08-.46-.33-.35-.55,4.18-8.36,2-25.46-3.94-31.55a.37.37,0,0,1,.13-.61.76.76,0,0,1,.82.1c6.8,6.92,8.09,24.37,4.09,32.36A.61.61,0,0,1,114.11,100.72Z"/><path class="cls-68" d="M118.22,101.58a.62.62,0,0,1-.27,0c-.29-.11-.4-.37-.25-.58,5.76-8.06,5.78-27.31,0-33.23a.36.36,0,0,1,.14-.6.74.74,0,0,1,.82.1c6,6.24,6.07,25.69,0,34.13A.64.64,0,0,1,118.22,101.58Z"/><path class="cls-69" d="M128.77,95.11h-.06c-.32,0-.56-.23-.52-.47,1.22-8.52-.11-20.68-4-25.2a.38.38,0,0,1,.18-.6.74.74,0,0,1,.81.14c4,4.67,5.43,17.09,4.19,25.75A.55.55,0,0,1,128.77,95.11Z"/></g><path class="cls-70" d="M149.91,7.79c9.07,13.48,15.53,55.92,17.43,70.14s-20.67,27-37.9,4.91S102,49.1,105.12,30.43,136.08-12.75,149.91,7.79Z"/><path class="cls-71" d="M74.84,146.05a9.73,9.73,0,1,0,9.72,9.73A9.73,9.73,0,0,0,74.84,146.05Zm0,16.46a6,6,0,1,1,6-6A6,6,0,0,1,74.84,162.51Z"/><path class="cls-72" d="M71.28,162.69c-.56,3.61-2.18,37.12-2.61,40.59-.57,4.49-3.75,9-8.23,8.42-3.15-.39-9.36-2.81-11-6.73,1.88,0,4.27-.18,5.76-1.31-7.67-3.14-8.09-13.21-9.91-12.91-1.13.19-5.8,11.22-1.31,20a8,8,0,0,0,3-4.31,19.48,19.48,0,0,0,9,10.4c5,2.83,17,8.67,18.89,13.36V158.77C72.78,158.77,71.84,159.08,71.28,162.69Z"/><path class="cls-73" d="M78.39,162.69c.56,3.61,2.19,37.12,2.62,40.59.56,4.49,3.74,9,8.23,8.42,3.14-.39,9.35-2.81,11-6.73-1.88,0-4.27-.18-5.75-1.31,7.66-3.14,8.08-13.21,9.91-12.91,1.12.19,5.8,11.22,1.31,20a7.9,7.9,0,0,1-3-4.31,19.52,19.52,0,0,1-9,10.4c-5,2.83-17,8.67-18.89,13.36V158.77C76.89,158.77,77.83,159.08,78.39,162.69Z"/><path class="cls-74" d="M74.84,174.31c4.3,0,12.34,0,16.08-1.06a4.69,4.69,0,0,0,0-3.82c-2-.94-9.91-2.81-16.08-2.81s-14,1.87-16.09,2.81a4.74,4.74,0,0,0,0,3.82C62.49,174.3,70.54,174.31,74.84,174.31Z"/><path class="cls-75" d="M76.6,150.8c-1.11,1.16-2.62,3.26-4.8.57s-8.72-30.76-8.72-38.59,25.32-5.53,25.47,1.3-7.84,0-12.41,0-8.74-1.34-8.49,3.27C68.31,129.1,72.49,151,76.6,150.8Z"/><path class="cls-76" d="M78.22,146.66s11.26-27.36,10.47-31.28-2.75-2.6-2.75-2.6c-2,13.06-10,33.33-10,33.33Z"/><path class="cls-77" d="M110.27,107.86c-6.79-2.41-20.71-6.47-23.81-4.56-9.54,5.15-19.87,7-20.76,11.76s7.76,7,8.48,7.18c-.1,3,7.36,8.23,9.8,7.84,13.24-2.09,10.84,3.42,21.35-7.3S110.27,107.86,110.27,107.86Z"/><path class="cls-78" d="M99.65,104.61c5.88,1.44,10.45,12.41,8.49,15,22.86-3.92,45.57-17.75,53.55-26.77,15-17-4.66-34.82-27.15-16.76S99.65,104.61,99.65,104.61Z"/></g></g></svg>