<svg xmlns="http://www.w3.org/2000/svg" xmlns:xlink="http://www.w3.org/1999/xlink" width="142.234" height="119.523" ><defs><linearGradient id="A" x1=".497" y1=".314" x2=".528" y2="1.011"><stop offset=".641" stop-color="#ffd7a5"/><stop offset="1" stop-color="#faa96c"/></linearGradient><linearGradient id="B" x1=".567" y1="1.063" x2=".44" y2=".055"><stop offset=".366" stop-color="#ffd7a5"/><stop offset="1" stop-color="#faa96c"/></linearGradient><linearGradient id="C" x1=".594" y1="1.261" x2=".424" y2=".034"><stop offset=".41" stop-color="#ffd7a5"/><stop offset="1" stop-color="#faa96c"/></linearGradient><linearGradient id="D" x1=".687" y1="-.033" x2=".479" y2=".863"><stop offset=".401" stop-color="#fabb80"/><stop offset="1" stop-color="#faa16c"/></linearGradient><linearGradient id="E" y1=".5" x2="1" y2=".5"><stop offset="0" stop-color="#93a779"/><stop offset="1" stop-color="#37a385"/></linearGradient><linearGradient id="F" x1="46.67" y1="-15.523" x2="46.693" y2="-16.359"><stop offset="0" stop-color="#ddf5f5" stop-opacity=".4"/><stop offset="1" stop-color="#c6d9db" stop-opacity="0"/></linearGradient><clipPath id="G"><path d="M1329.845 315.981c-2.974-9.543-13.125-14.223-17.476-1.743 2.901 4.681 15.374 5.045 17.476 1.743z" transform="translate(-1312.369 -306.679)" fill="none"/></clipPath><linearGradient id="H" x1="49.898" y1="-16.847" x2="49.921" y2="-17.682" xlink:href="#F"/><linearGradient id="I" y1=".5" x2="1" y2=".5"><stop offset="0" stop-color="#5d7d91"/><stop offset="1" stop-color="#374b6b"/></linearGradient><linearGradient id="J" x1=".323" y1="-1.287" x2=".536" y2=".691"><stop offset="0" stop-color="#e1a783"/><stop offset="1" stop-color="#c7816b"/></linearGradient><linearGradient id="K" x1=".51" y1="-1.179" x2=".496" y2="1.163"><stop offset="0" stop-color="#dfaf77"/><stop offset="1" stop-color="#d58f3d"/></linearGradient><linearGradient id="L" x1=".52" y1="-1.805" x2=".498" y2=".969" xlink:href="#K"/><linearGradient id="M" x1=".78" y1=".126" x2=".309" y2=".763"><stop offset="0" stop-color="#e9c58f"/><stop offset="1" stop-color="#e59d51"/></linearGradient><linearGradient id="N" x1=".46" y1=".31" x2=".516" y2="1.011"><stop offset="0" stop-color="#dfaf77"/><stop offset="1" stop-color="#e59d51"/></linearGradient><linearGradient id="O" x1=".734" y1=".33" x2="-.176" y2="1.17"><stop offset="0" stop-color="#fff" stop-opacity="0"/><stop offset="1" stop-color="#e4e9eb" stop-opacity=".6"/></linearGradient><linearGradient id="P" x1=".304" y1=".033" x2=".737" y2="1.29" xlink:href="#O"/><linearGradient id="Q" x1=".522" y1="-.119" x2=".501" y2=".691" xlink:href="#I"/><linearGradient id="R" x1=".481" y1="-.298" x2=".526" y2="1.522" xlink:href="#I"/><clipPath id="S"><path d="M1410.4 294.024c3.492-.322 1.187 4.756.252 7.323s.43 3.869-5.032 6.476c-4.537 2.165-19.155 7.644-37.561-5.866s-47.74-11.416-57.333-9.62-.717-14.5 2.7-15.151 41.307-2.695 60.1 7.17c13.658 7.171 23.903 10.86 36.874 9.668z" transform="translate(-1306.406 -276.561)" fill="none"/></clipPath></defs><path d="M94.989 22.358c13.05 3.12 26.1 24.96 23.928 42.9s-22.479 48.36-38.43 51.479-37.705 7.02-43.507-9.36-.725-28.86-5.075-35.1-5.076-19.5.725-25.739 62.359-24.18 62.359-24.18z" fill="url(#A)"/><path d="M72.509 82.419c-2.359-5.08-2.174-17.941 2.9-17.941s19.053-5.459 21.49 0 4.614 16.38-1.912 19.5-20.302 3.121-22.478-1.559z" fill="url(#B)"/><path d="M39.881 81.245c-1.11-6.566 0-12.868 4.351-12.868s11.246-.3 13.236 4.921 5.122 8.057 1.02 12.878-17.882-.644-18.607-4.931z" fill="url(#C)"/><path d="M65.259 76.958c3.626 0 5.076 14.041 2.176 16.38s-17.943 3.12-18.76 0 11.508-7.8 12.958-10.919 2.176-5.461 3.626-5.461z" fill="url(#D)"/><path d="M73.96 82.419c2.176-8.58 15.444-17.941 23.312-5.461-2.283 7.02-13.161 10.141-23.312 5.461zm-15.153.182c-2.974-9.543-13.125-14.223-17.476-1.743 2.901 4.681 15.374 5.045 17.476 1.743z" fill="#fff"/><ellipse cx="88.068" cy="76.933" rx="4.868" ry="5.236" fill="url(#E)"/><path d="M92.072 76.769a4.2 4.2 0 0 1-3.853 4.474 4.14 4.14 0 0 1-4.159-4.145 4.2 4.2 0 0 1 3.854-4.474 4.14 4.14 0 0 1 4.158 4.145z" fill="url(#F)"/><ellipse cx="84.417" cy="74.556" rx="1.632" ry="1.756" fill="#fff"/><g clip-path="url(#G)" transform="translate(41.331 73.299)"><ellipse cx="10.879" cy="5.55" rx="4.549" ry="4.894" fill="url(#E)"/><path d="M14.622 5.397c.148 2.144-1.457 4.009-3.6 4.181a3.87 3.87 0 0 1-3.886-3.875 3.92 3.92 0 0 1 3.6-4.181 3.87 3.87 0 0 1 3.886 3.875z" fill="url(#H)"/><ellipse cx="7.467" cy="3.328" rx="1.525" ry="1.641" fill="#fff"/></g><g fill="url(#I)"><path d="M73.96 82.419c3.626-11.7 17.619-17.941 23.312-5.461-4.567-4.68-16.06-7.8-23.312 5.461z"/><path d="M58.807 82.601c-3.773-12.065-13.85-14.787-17.476-2.024 2.901-6.739 7.397-11.834 17.476 2.024z"/></g><path d="M77.586 99.579c-5.077 4.68-21.028 7.02-26.1 5.459-2.9-4.68.865-6.239 2.9-6.239 5.074 0 13.049 4.68 23.2.78z" fill="url(#J)"/><path d="M71.05 62.052c-.713 1.646-2.273 9.111 1.045 8.888s16.368-8.021 17.818-8.021 9.394 1.161 9.394 1.161c-3.592-5.061-17.369-5.044-20.27-3.883a11.75 11.75 0 0 0-2.176 3.5v-3.12z" fill="url(#K)"/><path d="M56.558 62.918c.725 2.341 1.759 9.191-.572 8.495s-10.3-3.035-12.48-3.035-3.725 4.142-3.725 4.142c-.626-4.142.9-11.161 10.287-8.822a14.41 14.41 0 0 1 4.314 3.12c0-.78-1.45-3.12-1.45-3.12z" fill="url(#L)"/><path d="M115.291 25.479c0-14.821 2.176-20.28-9.426-21.841C53.658-3.382 43.507 44.978 0 58.238c10.878 20.28 26.6 25.785 34.081 26.519 1.451-15.6-10.876-21.06-1.45-32.76 3.709-4.603 74.685 6.242 82.66-26.518z" fill="url(#M)"/><path d="M113.872 22.358c1.42-2.341 10.12-7.02 11.571-7.02s-3.626 24.96 2.176 31.98 23.852 15.943 8.7 28.86-20.3 23.4-36.98 17.941c5.8-4.68 14.5-14.821 13.777-36.66-.29-8.716-5.383-19.82-5.383-19.82-1.867-2.801.37-11.38 6.139-15.281z" fill="url(#N)"/><path d="M105.864 3.638c-5.076 3.12-16.017 13.842-17.8 20.961-16.613.2-39.486 4.78-48.187 11.019 15.232-23.4 54.387-35.101 65.987-31.98z" fill="url(#O)"/><path d="M116.017 34.838c5.075 8.58 15.953 15.6 21.753 27.3-2.9 3.12-10.507 10.486-13.592 13.433.354-6.586.123-13-1.481-14.778.417 11.27-3.3 19.543-6.442 23.7.972-11.959 1.937-34.059-2.414-42.639 2.176-7.016-3.626-6.236 2.176-7.016z" fill="url(#P)"/><path d="M36.227 35.69C47.764.49 84.644-7.333 129.034 6.357c3.415 3.91-6.077 10.526-2.015 18.625s11.576 10.056 5.43 23.746C103.764 59.81 97.081 24.607 36.227 35.69z" fill="url(#Q)"/><path d="M135.175 39.491c3.492-.322 1.187 4.756.252 7.323s.43 3.869-5.032 6.476c-4.537 2.165-19.155 7.644-37.561-5.866s-47.74-11.416-57.333-9.62-.717-14.5 2.7-15.151 41.307-2.695 60.1 7.17c13.658 7.171 23.903 10.86 36.874 9.668z" fill="url(#R)"/><g clip-path="url(#S)" transform="translate(31.181 22.028)"><g opacity=".2"><path d="M6.935 18.938c-.667.007-1.277-.373-1.564-.975C2.104 10.856 9.212.134 14.106-3.871c.724-.586 1.778-.508 2.409.177a1.58 1.58 0 0 1-.186 2.3c-4.666 3.817-10.168 12.963-7.831 18.05a1.6 1.6 0 0 1-.878 2.147c-.217.09-.45.136-.685.135z"/></g><g opacity=".2"><path d="M17.047 18.732a1.7 1.7 0 0 1-1.616-1.1c-2.25-6.266 4.343-18.476 6.316-21.194a1.76 1.76 0 0 1 2.376-.412c.369.235.624.612.705 1.041s-.018.874-.275 1.227c-2.141 2.952-7.5 13.821-5.892 18.281a1.61 1.61 0 0 1-1.061 2.07 1.75 1.75 0 0 1-.553.087z"/></g><g opacity=".2"><path d="M28.945 18.732c-.615.005-1.187-.318-1.5-.848-2.591-4.528 3.572-18.433 4.833-21.175a1.74 1.74 0 0 1 2.249-.836 1.6 1.6 0 0 1 .877 2.147c-3.308 7.191-6.144 16.234-4.961 18.3a1.59 1.59 0 0 1-.681 2.211 1.75 1.75 0 0 1-.817.201z"/></g><g opacity=".2"><path d="M43.219 21.215a1.78 1.78 0 0 1-.687-.138 1.6 1.6 0 0 1-.875-2.148c.7-1.515 3.606-13.377 5.276-20.5a1.71 1.71 0 0 1 2.04-1.234 1.63 1.63 0 0 1 1.292 1.948c-.449 1.915-4.421 18.792-5.481 21.1-.288.601-.899.98-1.565.972z"/></g><g opacity=".2"><path d="M57.216 25.393a1.76 1.76 0 0 1-1.023-.325 1.58 1.58 0 0 1-.341-2.283c3.071-3.91 3.59-16.84 3.529-21.492a1.67 1.67 0 0 1 1.687-1.648h.022a1.67 1.67 0 0 1 1.706 1.61c.024 1.825.109 17.987-4.213 23.487a1.73 1.73 0 0 1-1.367.651z"/></g><g opacity=".2"><path d="M68.828 33.218a1.74 1.74 0 0 1-1.3-.569 1.58 1.58 0 0 1 .186-2.3c3.039-2.487 3.97-15.42 3.844-22.989a1.71 1.71 0 0 1 1.681-1.647 1.71 1.71 0 0 1 1.732 1.594c.06 3.524.1 21.318-5.034 25.516a1.76 1.76 0 0 1-1.109.395z"/></g><g opacity=".2"><path d="M79.122 36.08c-.466.002-.914-.182-1.243-.512-.309-.308-.476-.73-.462-1.166s.207-.846.534-1.134c4.019-3.616 3.656-16.674 3.178-21.4a1.65 1.65 0 0 1 1.534-1.779c.918-.106 1.749.547 1.864 1.464.194 1.9 1.719 18.733-4.234 24.086a1.75 1.75 0 0 1-1.171.441z"/></g><g opacity=".2"><path d="M90.181 37.455a1.75 1.75 0 0 1-1.188-.46 1.58 1.58 0 0 1-.037-2.3c3.153-3.1 2.209-13.871.875-19.929a1.63 1.63 0 0 1 1.319-1.93c.904-.198 1.801.36 2.022 1.258.392 1.777 3.676 17.515-1.765 22.871-.328.318-.769.494-1.226.49z"/></g><g opacity=".2"><path d="M97.508 35.174c-.272 0-.539-.062-.783-.182a1.6 1.6 0 0 1-.732-2.2c2.87-5.3 2.545-17.985 2.542-18.111a1.71 1.71 0 0 1 1.664-1.673 1.71 1.71 0 0 1 1.749 1.583c.017.555.351 13.656-2.921 19.7a1.72 1.72 0 0 1-1.519.883z"/></g></g></svg>
