<svg xmlns="http://www.w3.org/2000/svg" xmlns:xlink="http://www.w3.org/1999/xlink" viewBox="0 0 143.21 132.35"><defs><style>.cls-1{fill:none;}.cls-2{isolation:isolate;}.cls-3{fill:url(#Безымянный_градиент_271);}.cls-4{fill:url(#Безымянный_градиент_159);}.cls-5{fill:url(#Безымянный_градиент_159-2);}.cls-6{fill:url(#Безымянный_градиент_159-3);}.cls-7{fill:url(#Безымянный_градиент_159-4);}.cls-8{fill:#fff;}.cls-9{clip-path:url(#clip-path);}.cls-10{fill:#9c3f39;}.cls-11,.cls-14{mix-blend-mode:screen;}.cls-11{fill:url(#linear-gradient);}.cls-12{fill:#472c20;}.cls-13{clip-path:url(#clip-path-2);}.cls-14{fill:url(#linear-gradient-2);}.cls-15{fill:url(#Новый_образец_градиента_копия_3);}.cls-16{fill:#801320;}.cls-17{clip-path:url(#clip-path-3);}.cls-18{fill:url(#Безымянный_градиент_141);}.cls-19{fill:url(#Безымянный_градиент_160);}.cls-20{fill:#e36d4f;}.cls-21{fill:url(#Безымянный_градиент_141-2);}.cls-22{fill:url(#Безымянный_градиент_160-2);}.cls-23{fill:url(#Новый_образец_градиента_копия_3-2);}.cls-24{fill:url(#Безымянный_градиент_271-2);}.cls-25{fill:url(#Безымянный_градиент_271-3);}.cls-26{fill:url(#Безымянный_градиент_271-4);}.cls-27{fill:url(#Безымянный_градиент_271-5);}.cls-28{fill:url(#Безымянный_градиент_271-6);}.cls-29{fill:url(#Безымянный_градиент_762);}.cls-30{fill:url(#Безымянный_градиент_762-2);}.cls-31{fill:url(#Безымянный_градиент_201);}.cls-32{fill:url(#Безымянный_градиент_493);}</style><linearGradient id="Безымянный_градиент_271" x1="-10.28" y1="82.47" x2="18.9" y2="67.97" gradientUnits="userSpaceOnUse"><stop offset="0" stop-color="#ddf5f5"/><stop offset="1" stop-color="#adb7c1"/></linearGradient><linearGradient id="Безымянный_градиент_159" x1="71.92" y1="96.67" x2="78.81" y2="133.57" gradientUnits="userSpaceOnUse"><stop offset="0.64" stop-color="#ffd7a5"/><stop offset="1" stop-color="#faa96c"/></linearGradient><linearGradient id="Безымянный_градиент_159-2" x1="68.36" y1="97.33" x2="75.26" y2="134.23" xlink:href="#Безымянный_градиент_159"/><linearGradient id="Безымянный_градиент_159-3" x1="31.93" y1="96.79" x2="30.93" y2="59.45" xlink:href="#Безымянный_градиент_159"/><linearGradient id="Безымянный_градиент_159-4" x1="76.26" y1="95.61" x2="75.26" y2="58.26" xlink:href="#Безымянный_градиент_159"/><clipPath id="clip-path"><path class="cls-1" d="M21.05,89.94c2.66-13.08,14.06-10.3,20.39-1.4C39.33,97,23.16,97.21,21.05,89.94Z"/></clipPath><linearGradient id="linear-gradient" x1="19.19" y1="92.75" x2="19.41" y2="84.28" gradientTransform="translate(16.55)" gradientUnits="userSpaceOnUse"><stop offset="0" stop-color="#9c3f39"/><stop offset="1"/></linearGradient><clipPath id="clip-path-2"><path class="cls-1" d="M61.41,85.15c3.16-11.05,16.5-17.43,27.9-5.22C87.52,89.49,70.22,93.19,61.41,85.15Z"/></clipPath><linearGradient id="linear-gradient-2" x1="182.8" y1="-29.59" x2="183.06" y2="-39.67" gradientTransform="translate(-103.93 122.33) rotate(-2.18)" xlink:href="#linear-gradient"/><linearGradient id="Новый_образец_градиента_копия_3" x1="30.33" y1="63.76" x2="31.18" y2="68.36" gradientUnits="userSpaceOnUse"><stop offset="0" stop-color="#ddf5f5"/><stop offset="1" stop-color="#c6d9db"/></linearGradient><clipPath id="clip-path-3"><path class="cls-1" d="M57.67,117.34c5.87-.65,9.14-.65,16.32-3.26-15-7.84-9.32-3.08-19.52-2-2.41.26-4.64-1.32-4,6.52C50.48,118.65,51.68,118,57.67,117.34Z"/></clipPath><linearGradient id="Безымянный_градиент_141" x1="28.48" y1="70.4" x2="27.1" y2="102.27" gradientUnits="userSpaceOnUse"><stop offset="0" stop-color="#ba3434"/><stop offset="0.47" stop-color="#a92f2f"/><stop offset="0.89" stop-color="#962a2a"/></linearGradient><linearGradient id="Безымянный_градиент_160" x1="19.42" y1="78.83" x2="22.88" y2="86.26" gradientTransform="translate(37.45 -0.96) rotate(25.62)" gradientUnits="userSpaceOnUse"><stop offset="0" stop-color="#fff" stop-opacity="0.2"/><stop offset="1" stop-color="#fff"/></linearGradient><linearGradient id="Безымянный_градиент_141-2" x1="5662.19" y1="-409.96" x2="5660.74" y2="-376.3" gradientTransform="matrix(-0.99, 0.17, 0.17, 0.99, 5726.8, -476.63)" xlink:href="#Безымянный_градиент_141"/><linearGradient id="Безымянный_градиент_160-2" x1="2307.14" y1="-1114.71" x2="2310.85" y2="-1106.73" gradientTransform="matrix(-0.88, 0.48, 0.48, 0.88, 2628.25, -64.42)" xlink:href="#Безымянный_градиент_160"/><linearGradient id="Новый_образец_градиента_копия_3-2" x1="71.75" y1="54.98" x2="72.88" y2="61.11" xlink:href="#Новый_образец_градиента_копия_3"/><linearGradient id="Безымянный_градиент_271-2" x1="93.54" y1="-4.24" x2="95.71" y2="31.11" xlink:href="#Безымянный_градиент_271"/><linearGradient id="Безымянный_градиент_271-3" x1="30.82" y1="-2.83" x2="38.65" y2="28.68" xlink:href="#Безымянный_градиент_271"/><linearGradient id="Безымянный_градиент_271-4" x1="117.88" y1="17.49" x2="116.05" y2="77.35" xlink:href="#Безымянный_градиент_271"/><linearGradient id="Безымянный_градиент_271-5" x1="73.44" y1="10.08" x2="85.25" y2="54.77" xlink:href="#Безымянный_градиент_271"/><linearGradient id="Безымянный_градиент_271-6" x1="14.04" y1="22.26" x2="43.47" y2="57.19" xlink:href="#Безымянный_градиент_271"/><linearGradient id="Безымянный_градиент_762" x1="57.54" y1="101.27" x2="57.54" y2="110.86" gradientUnits="userSpaceOnUse"><stop offset="0" stop-color="#c3a19b"/><stop offset="0.23" stop-color="#c0a597"/><stop offset="0.46" stop-color="#b7af8b"/><stop offset="0.69" stop-color="#a7c176"/><stop offset="0.92" stop-color="#92d95a"/><stop offset="1" stop-color="#89e34f"/></linearGradient><linearGradient id="Безымянный_градиент_762-2" x1="285.14" y1="304.45" x2="285.14" y2="309.51" gradientTransform="translate(-193.54 -234.43) rotate(7.77)" xlink:href="#Безымянный_градиент_762"/><linearGradient id="Безымянный_градиент_201" x1="52.86" y1="79.75" x2="50.64" y2="110.65" gradientUnits="userSpaceOnUse"><stop offset="0.22" stop-color="#ffd7a5"/><stop offset="0.84" stop-color="#fa5763"/></linearGradient><radialGradient id="Безымянный_градиент_493" cx="59.71" cy="105.62" r="3.62" gradientUnits="userSpaceOnUse"><stop offset="0" stop-color="#fcffff" stop-opacity="0.4"/><stop offset="0.18" stop-color="#f8fef9" stop-opacity="0.42"/><stop offset="0.36" stop-color="#edfbe8" stop-opacity="0.48"/><stop offset="0.54" stop-color="#daf7cc" stop-opacity="0.58"/><stop offset="0.72" stop-color="#c0f0a3" stop-opacity="0.71"/><stop offset="0.9" stop-color="#9fe870" stop-opacity="0.89"/><stop offset="1" stop-color="#89e34f"/></radialGradient></defs><g class="cls-2"><g id="Слой_2" data-name="Слой 2"><g id="Слой_2-2" data-name="Слой 2"><path class="cls-3" d="M16.33,51.48C28.16,50.23,33.14,58.33,25,68.29S15.7,87.6,15.7,87.6C-5.47,86.35-2.36,68.29,8.23,65.18,7.61,55.84,10.72,53.35,16.33,51.48Z"/><path class="cls-4" d="M66.55,36.64C39,43.23,15.66,57.59,15.66,92.92c0,13.76,12.58,30.53,32.33,28.13,9,.6,49.69,10.18,67.65-16.76S122.83,31.25,66.55,36.64Z"/><path class="cls-5" d="M54.42,99.47c-8.51,4.16-15.74,8.26-12.71,18.44s31.95,26.78,59.51-.29C109.58,110.15,67,93.34,54.42,99.47Z"/><path class="cls-6" d="M39.49,64.83c4.1,2.37,8.5,22.7,1.32,28.68s-22.74,4.65-22.15-4.19S20,76.32,22.85,72,33.39,61.29,39.49,64.83Z"/><path class="cls-7" d="M60.63,86.52C58.77,78,52.78,63.58,61.76,58.79s28.09,2,30.53,7.78c10.18,24-20.83,37.5-31.66,20"/><path class="cls-8" d="M21.65,89.92c2.06-13.06,13.46-10.28,19.79-1.38C39.33,97,23.76,97.19,21.65,89.92Z"/><g class="cls-9"><circle class="cls-10" cx="35.87" cy="87.9" r="6.16"/><path class="cls-11" d="M40.94,87.9a5.07,5.07,0,1,1-5.07-5.07A5.07,5.07,0,0,1,40.94,87.9Z"/><circle class="cls-8" cx="30.81" cy="84.93" r="2.06"/></g><path class="cls-12" d="M21.65,89.92c.1-12.41,15.12-13.06,19.79-1.38C35.11,81,24.36,80.12,21.65,89.92Z"/><path class="cls-8" d="M61.41,85.15c3.16-11.05,16.5-16.78,27.9-5.22C87.52,89.49,70.22,93.19,61.41,85.15Z"/><g class="cls-13"><circle class="cls-10" cx="77.54" cy="80.02" r="7.32"/><path class="cls-14" d="M83.57,79.8A6,6,0,1,1,77.31,74,6,6,0,0,1,83.57,79.8Z"/><circle class="cls-8" cx="72.05" cy="76.7" r="2.46"/></g><path class="cls-12" d="M61.41,85.15c4.09-16.78,21.07-14.82,27.9-5.22C81.83,74.9,66.81,72.29,61.41,85.15Z"/><path class="cls-15" d="M41.59,67.51c-3.78-8.12-12.76-7-19.94,6.51C26.44,68.7,34.59,61.87,41.59,67.51Z"/><path class="cls-16" d="M57.67,117.34c5.87-.65,7.83,0,16.32-3.26-15-7.84-9.32-3.08-19.52-2-2.41.26-4.64-1.32-4,6.52C50.48,118.65,51.68,118,57.67,117.34Z"/><g class="cls-17"><path class="cls-8" d="M51,110.82l1.79,3.59c1.2.6,7.19.6,9-1.19a21.13,21.13,0,0,0-.6-4.19Z"/><path class="cls-8" d="M63.25,108.87a4.16,4.16,0,0,0,.91,3.15c1.19,0,1.79-.6,2.66-1.87.33-1.12-1.26-2.33-1.26-2.33Z"/></g><path class="cls-18" d="M27.7,71.31c-10.78,0-19.51,7.61-19.51,17s8.73,17,19.51,17,19.52-7.61,19.52-17S38.48,71.31,27.7,71.31Zm.6,32.63c-9.53,0-17.25-6.73-17.25-15s7.72-15,17.25-15,17.24,6.73,17.24,15S37.82,103.94,28.3,103.94Z"/><ellipse class="cls-19" cx="20.84" cy="81.88" rx="7.76" ry="4.81" transform="translate(-33.36 17.06) rotate(-25.62)"/><path class="cls-20" d="M61.76,98.9c7.78.6,19.58,6,24.46,9.58C82.21,103.1,71.94,97.7,61.76,98.9Z"/><path class="cls-20" d="M41.35,119c-1.11-4.27.64-12.06,2.43-15.69C40.45,107,38.37,114,41.35,119Z"/><path class="cls-21" d="M57.58,83.51c1.76,9.75,12.91,16.11,24.91,14.22S102.8,86.39,101,76.64,88.13,60.52,76.13,62.42,55.82,73.76,57.58,83.51Zm2,.32c-1.56-8.61,5.78-17,16.38-18.63s20.46,4,22,12.56-5.79,17-16.39,18.64S61.11,92.45,59.56,83.83Z"/><ellipse class="cls-22" cx="69.76" cy="74.57" rx="8.62" ry="5.14" transform="translate(-26 39.12) rotate(-26.59)"/><path class="cls-23" d="M57.34,63.79c2-11.58,18.8-12.17,32-.5C77.32,59.68,64.9,54.43,57.34,63.79Z"/><path class="cls-24" d="M128.42,45.25c5.6-25.53-11.83-28-24.29-28C103.51-9.55,75.49.41,74.24,10.38,69.26,6.64,57,12.21,62.89,22,67.28,38.89,117.83,52.1,128.42,45.25Z"/><path class="cls-25" d="M51.2,13.49c-13.78-22.17-34-1.93-31.14,5C3.87,15.36,2,33.42,12,38.4c14.32,1.25,34.25,3.11,37.36-3.11,15,0,16.19-3.12,14.32-8.72C74.24,21.59,68,2.28,51.2,13.49Z"/><path class="cls-26" d="M101.64,32.8c-12.45-5.61-14.32,8.71-6.85,14.32-6.23,16.81,6.39,23.54,16.89,22.35-2.65,10.72,12.38,21.86,21.1,8.79,17.44-7.48,8.72-18.06,4.36-18.06,11.83-15.57-10-23.67-16.82-18.06C122.81,32.8,112.85,24.7,101.64,32.8Z"/><path class="cls-27" d="M87.32,25.32C81.81,8.19,61.42,14.16,59,22c-9.79-5.23-14.62,10.79-5.9,15.77C54.31,49.61,71.75,45.87,74.86,44,74.24,55.21,94.79,59,101,49.61,114.1,52.72,115.9,38,106.28,36.35,112.57,19.9,94.17,17.85,87.32,25.32Z"/><path class="cls-28" d="M41.86,31.55C29.4,16,17.57,29.68,17,35.91c-19.36-6.07-24.29,26.78,1.24,19.3,3.56,11.2,32.29,1.4,34.25-12.45C67.46,41.6,57,16.78,41.86,31.55Z"/><path class="cls-29" d="M61.54,101.86c-5,1,0,9-4,9-3.81,0-1-5-4-5C57.35,103,60.59,100,61.54,101.86Z"/><path class="cls-30" d="M52.54,106.86c-3.14-.43-2.38,4.36-5,4s-.88-2.92-4.81-3.71C45,105.87,52.16,105.74,52.54,106.86Z"/><path class="cls-31" d="M49.72,80.94c-2.52,12-11.37,14.53-10.1,22.74s19.86,2.63,22.74-1.89C66.78,94.84,53.51,91.68,49.72,80.94Z"/><circle class="cls-32" cx="60.69" cy="106.04" r="2.86"/></g></g></g></svg>