<svg xmlns="http://www.w3.org/2000/svg" xmlns:xlink="http://www.w3.org/1999/xlink" viewBox="0 0 129.18 102.76"><defs><style>.cls-1{fill:none;}.cls-2{fill:url(#Безымянный_градиент_2249);}.cls-3{fill:url(#Безымянный_градиент_159);}.cls-4{fill:url(#Безымянный_градиент_2249-2);}.cls-5{fill:url(#Безымянный_градиент_159-2);}.cls-6{fill:url(#Безымянный_градиент_159-3);}.cls-7{fill:url(#Безымянный_градиент_150);}.cls-8{fill:url(#Безымянный_градиент_159-4);}.cls-9{fill:url(#Безымянный_градиент_122);}.cls-10{clip-path:url(#clip-path);}.cls-11{fill:url(#Безымянный_градиент_1144);}.cls-12{fill:url(#Безымянный_градиент_725);}.cls-13{fill:#fff;}.cls-14{fill:#283547;}.cls-15{fill:url(#Безымянный_градиент_762);}.cls-16{fill:url(#Безымянный_градиент_762-2);}.cls-17{fill:url(#Безымянный_градиент_201);}.cls-18{fill:url(#Безымянный_градиент_493);}.cls-19{fill:url(#Безымянный_градиент_150-2);}.cls-20{fill:url(#Безымянный_градиент_159-5);}.cls-21{fill:url(#Безымянный_градиент_122-2);}.cls-22{fill:url(#Безымянный_градиент_1144-2);}.cls-23{fill:url(#Безымянный_градиент_725-2);}.cls-24{fill:url(#Безымянный_градиент_1081);}.cls-25{fill:url(#Безымянный_градиент_1081-2);}.cls-26{fill:url(#Безымянный_градиент_1244);}.cls-27{fill:url(#Безымянный_градиент_1424);}.cls-28{fill:url(#Безымянный_градиент_1424-2);}.cls-29{fill:url(#Безымянный_градиент_1424-3);}.cls-30{fill:url(#Безымянный_градиент_1424-4);}.cls-31{fill:url(#Безымянный_градиент_1424-5);}.cls-32{fill:url(#Безымянный_градиент_1424-6);}.cls-33{fill:url(#Безымянный_градиент_1424-7);}.cls-34{fill:url(#Безымянный_градиент_1424-8);}.cls-35{fill:url(#Безымянный_градиент_1424-9);}.cls-36{fill:url(#Безымянный_градиент_1424-10);}.cls-37{fill:url(#Безымянный_градиент_1424-11);}.cls-38{fill:url(#Безымянный_градиент_1424-12);}.cls-39{fill:url(#Безымянный_градиент_1424-13);}.cls-40{fill:url(#Безымянный_градиент_1424-14);}.cls-41{fill:url(#Безымянный_градиент_1424-15);}.cls-42{fill:url(#Безымянный_градиент_1424-16);}.cls-43{fill:url(#Безымянный_градиент_1424-17);}.cls-44{fill:url(#Безымянный_градиент_1424-18);}.cls-45{fill:url(#Безымянный_градиент_1424-19);}.cls-46{fill:url(#Безымянный_градиент_1424-20);}.cls-47{fill:url(#Безымянный_градиент_1424-21);}.cls-48{fill:url(#Безымянный_градиент_1424-22);}.cls-49{fill:url(#Безымянный_градиент_1424-23);}.cls-50{fill:url(#Безымянный_градиент_1424-24);}.cls-51{fill:url(#Безымянный_градиент_1424-25);}.cls-52{fill:url(#Безымянный_градиент_1424-26);}.cls-53{fill:url(#Безымянный_градиент_1424-27);}.cls-54{fill:url(#Безымянный_градиент_1424-28);}.cls-55{fill:url(#Безымянный_градиент_1424-29);}.cls-56{fill:url(#Безымянный_градиент_1424-30);}.cls-57{fill:url(#Безымянный_градиент_1424-31);}.cls-58{fill:url(#Безымянный_градиент_1424-32);}.cls-59{fill:url(#Безымянный_градиент_1424-33);}.cls-60{fill:url(#Безымянный_градиент_1424-34);}.cls-61{fill:url(#Безымянный_градиент_1424-35);}.cls-62{fill:url(#Безымянный_градиент_1424-36);}.cls-63{fill:url(#Безымянный_градиент_1424-37);}.cls-64{fill:url(#Безымянный_градиент_1424-38);}.cls-65{fill:url(#Безымянный_градиент_1424-39);}.cls-66{fill:url(#Безымянный_градиент_1424-40);}.cls-67{fill:url(#Безымянный_градиент_1424-41);}.cls-68{fill:url(#Безымянный_градиент_1480);}.cls-69{fill:url(#Безымянный_градиент_1480-2);}</style><linearGradient id="Безымянный_градиент_2249" x1="127.6" y1="-7.84" x2="112.26" y2="23.17" gradientUnits="userSpaceOnUse"><stop offset="0" stop-color="#9d6545"/><stop offset="1" stop-color="#4d1f1d"/></linearGradient><linearGradient id="Безымянный_градиент_159" x1="69.4" y1="30.82" x2="21.3" y2="106" gradientUnits="userSpaceOnUse"><stop offset="0.64" stop-color="#ffd7a5"/><stop offset="1" stop-color="#faa96c"/></linearGradient><linearGradient id="Безымянный_градиент_2249-2" x1="31.1" y1="-3.97" x2="80.45" y2="77.39" xlink:href="#Безымянный_градиент_2249"/><linearGradient id="Безымянный_градиент_159-2" x1="46.59" y1="64.35" x2="46.59" y2="37.29" xlink:href="#Безымянный_градиент_159"/><linearGradient id="Безымянный_градиент_159-3" x1="20.03" y1="64.35" x2="20.03" y2="37.29" xlink:href="#Безымянный_градиент_159"/><radialGradient id="Безымянный_градиент_150" cx="21.48" cy="55.55" r="9.36" gradientUnits="userSpaceOnUse"><stop offset="0" stop-color="#f01749"/><stop offset="0.43" stop-color="#f01749" stop-opacity="0.54"/><stop offset="0.82" stop-color="#f01749" stop-opacity="0.15"/><stop offset="1" stop-color="#f01749" stop-opacity="0"/></radialGradient><linearGradient id="Безымянный_градиент_159-4" x1="96.13" y1="51.21" x2="66.63" y2="70.92" xlink:href="#Безымянный_градиент_159"/><radialGradient id="Безымянный_градиент_122" cx="20.63" cy="55.95" r="5.47" gradientUnits="userSpaceOnUse"><stop offset="0.41" stop-color="#fcffff"/><stop offset="0.48" stop-color="#fcfafb"/><stop offset="0.55" stop-color="#fbebef"/><stop offset="0.64" stop-color="#fad3dc"/><stop offset="0.72" stop-color="#f8b1c2"/><stop offset="0.82" stop-color="#f6859f"/><stop offset="0.91" stop-color="#f35176"/><stop offset="1" stop-color="#f01749"/></radialGradient><clipPath id="clip-path"><path class="cls-1" d="M25.71,58.93c-3.25-11-9.09-11.68-10.17-2.1C16.62,61.53,20.52,64.12,25.71,58.93Z"/></clipPath><linearGradient id="Безымянный_градиент_1144" x1="18.29" y1="56.05" x2="27.92" y2="56.05" gradientUnits="userSpaceOnUse"><stop offset="0" stop-color="#b57b8d"/><stop offset="1" stop-color="#634b8d"/></linearGradient><linearGradient id="Безымянный_градиент_725" x1="-72.77" y1="-37.05" x2="-72.6" y2="-43.67" gradientTransform="translate(97.28 94.09) rotate(-2.18)" gradientUnits="userSpaceOnUse"><stop offset="0" stop-color="#ddf5f5" stop-opacity="0.4"/><stop offset="1" stop-color="#c6d9db" stop-opacity="0"/></linearGradient><linearGradient id="Безымянный_градиент_762" x1="961.23" y1="134.48" x2="961.23" y2="138.14" gradientTransform="translate(-915.82 -196.43) rotate(7.77)" gradientUnits="userSpaceOnUse"><stop offset="0" stop-color="#c3a19b"/><stop offset="0.23" stop-color="#c0a597"/><stop offset="0.46" stop-color="#b7af8b"/><stop offset="0.69" stop-color="#a7c176"/><stop offset="0.92" stop-color="#92d95a"/><stop offset="1" stop-color="#89e34f"/></linearGradient><linearGradient id="Безымянный_градиент_762-2" x1="23.3" y1="66.24" x2="23.3" y2="73.1" gradientTransform="matrix(1, 0, 0, 1, 0, 0)" xlink:href="#Безымянный_градиент_762"/><linearGradient id="Безымянный_градиент_201" x1="24.32" y1="51.2" x2="19.51" y2="65.54" gradientUnits="userSpaceOnUse"><stop offset="0.22" stop-color="#ffd7a5"/><stop offset="0.84" stop-color="#fa5763"/></linearGradient><radialGradient id="Безымянный_градиент_493" cx="26.06" cy="67.5" r="3.62" gradientUnits="userSpaceOnUse"><stop offset="0" stop-color="#fcffff" stop-opacity="0.4"/><stop offset="0.18" stop-color="#f8fef9" stop-opacity="0.42"/><stop offset="0.36" stop-color="#edfbe8" stop-opacity="0.48"/><stop offset="0.54" stop-color="#daf7cc" stop-opacity="0.58"/><stop offset="0.72" stop-color="#c0f0a3" stop-opacity="0.71"/><stop offset="0.9" stop-color="#9fe870" stop-opacity="0.89"/><stop offset="1" stop-color="#89e34f"/></radialGradient><radialGradient id="Безымянный_градиент_150-2" cx="46.58" cy="54.76" r="13.42" xlink:href="#Безымянный_градиент_150"/><linearGradient id="Безымянный_градиент_159-5" x1="91.28" y1="50.67" x2="80.67" y2="62.38" xlink:href="#Безымянный_градиент_159"/><radialGradient id="Безымянный_градиент_122-2" cx="45.75" cy="55.71" r="8.78" xlink:href="#Безымянный_градиент_122"/><linearGradient id="Безымянный_градиент_1144-2" x1="42.34" y1="54.48" x2="52.76" y2="54.48" xlink:href="#Безымянный_градиент_1144"/><linearGradient id="Безымянный_градиент_725-2" x1="-48.29" y1="-37.37" x2="-48.1" y2="-44.54" xlink:href="#Безымянный_градиент_725"/><linearGradient id="Безымянный_градиент_1081" x1="47.61" y1="32.25" x2="41.98" y2="54.46" gradientUnits="userSpaceOnUse"><stop offset="0" stop-color="#9d6545"/><stop offset="1" stop-color="#674137"/></linearGradient><linearGradient id="Безымянный_градиент_1081-2" x1="25.61" y1="26.67" x2="19.98" y2="48.87" xlink:href="#Безымянный_градиент_1081"/><linearGradient id="Безымянный_градиент_1244" x1="14" y1="76.62" x2="34.7" y2="81.49" gradientUnits="userSpaceOnUse"><stop offset="0" stop-color="#edafa7"/><stop offset="1" stop-color="#c07171"/></linearGradient><linearGradient id="Безымянный_градиент_1424" x1="78.82" y1="34.14" x2="79.49" y2="90.66" gradientUnits="userSpaceOnUse"><stop offset="0" stop-color="#d993bf"/><stop offset="1" stop-color="#ed5b89"/></linearGradient><linearGradient id="Безымянный_градиент_1424-2" x1="73.06" y1="34.21" x2="73.73" y2="90.73" xlink:href="#Безымянный_градиент_1424"/><linearGradient id="Безымянный_градиент_1424-3" x1="69.13" y1="34.26" x2="69.8" y2="90.78" xlink:href="#Безымянный_градиент_1424"/><linearGradient id="Безымянный_градиент_1424-4" x1="69.6" y1="34.25" x2="70.27" y2="90.77" xlink:href="#Безымянный_градиент_1424"/><linearGradient id="Безымянный_градиент_1424-5" x1="89.89" y1="34.01" x2="90.55" y2="90.53" xlink:href="#Безымянный_градиент_1424"/><linearGradient id="Безымянный_градиент_1424-6" x1="91.92" y1="33.99" x2="92.59" y2="90.51" xlink:href="#Безымянный_градиент_1424"/><linearGradient id="Безымянный_градиент_1424-7" x1="67.66" y1="34.28" x2="68.32" y2="90.79" xlink:href="#Безымянный_градиент_1424"/><linearGradient id="Безымянный_градиент_1424-8" x1="66.55" y1="34.29" x2="67.22" y2="90.81" xlink:href="#Безымянный_градиент_1424"/><linearGradient id="Безымянный_градиент_1424-9" x1="79.35" y1="34.14" x2="80.02" y2="90.66" xlink:href="#Безымянный_градиент_1424"/><linearGradient id="Безымянный_градиент_1424-10" x1="69.71" y1="34.25" x2="70.37" y2="90.77" xlink:href="#Безымянный_градиент_1424"/><linearGradient id="Безымянный_градиент_1424-11" x1="69.44" y1="34.25" x2="70.11" y2="90.77" xlink:href="#Безымянный_градиент_1424"/><linearGradient id="Безымянный_градиент_1424-12" x1="73.7" y1="34.2" x2="74.37" y2="90.72" xlink:href="#Безымянный_градиент_1424"/><linearGradient id="Безымянный_градиент_1424-13" x1="80.32" y1="34.13" x2="80.99" y2="90.64" xlink:href="#Безымянный_градиент_1424"/><linearGradient id="Безымянный_градиент_1424-14" x1="85.18" y1="34.07" x2="85.85" y2="90.59" xlink:href="#Безымянный_градиент_1424"/><linearGradient id="Безымянный_градиент_1424-15" x1="87.94" y1="34.04" x2="88.61" y2="90.55" xlink:href="#Безымянный_градиент_1424"/><linearGradient id="Безымянный_градиент_1424-16" x1="90.29" y1="34.01" x2="90.95" y2="90.53" xlink:href="#Безымянный_градиент_1424"/><linearGradient id="Безымянный_градиент_1424-17" x1="91.14" y1="34" x2="91.8" y2="90.52" xlink:href="#Безымянный_градиент_1424"/><linearGradient id="Безымянный_градиент_1424-18" x1="89.85" y1="34.01" x2="90.51" y2="90.53" xlink:href="#Безымянный_градиент_1424"/><linearGradient id="Безымянный_градиент_1424-19" x1="90.12" y1="34.01" x2="90.78" y2="90.53" xlink:href="#Безымянный_градиент_1424"/><linearGradient id="Безымянный_градиент_1424-20" x1="91.13" y1="34" x2="91.8" y2="90.52" xlink:href="#Безымянный_градиент_1424"/><linearGradient id="Безымянный_градиент_1424-21" x1="77.83" y1="34.16" x2="78.5" y2="90.67" xlink:href="#Безымянный_градиент_1424"/><linearGradient id="Безымянный_градиент_1424-22" x1="84.17" y1="34.08" x2="84.83" y2="90.6" xlink:href="#Безымянный_градиент_1424"/><linearGradient id="Безымянный_градиент_1424-23" x1="88.73" y1="34.03" x2="89.4" y2="90.55" xlink:href="#Безымянный_градиент_1424"/><linearGradient id="Безымянный_градиент_1424-24" x1="88.28" y1="34.03" x2="88.95" y2="90.55" xlink:href="#Безымянный_градиент_1424"/><linearGradient id="Безымянный_градиент_1424-25" x1="66.8" y1="34.29" x2="67.46" y2="90.8" xlink:href="#Безымянный_градиент_1424"/><linearGradient id="Безымянный_градиент_1424-26" x1="65.44" y1="34.3" x2="66.11" y2="90.82" xlink:href="#Безымянный_градиент_1424"/><linearGradient id="Безымянный_градиент_1424-27" x1="91.92" y1="33.99" x2="92.58" y2="90.51" xlink:href="#Безымянный_градиент_1424"/><linearGradient id="Безымянный_градиент_1424-28" x1="91.98" y1="33.99" x2="92.64" y2="90.51" xlink:href="#Безымянный_градиент_1424"/><linearGradient id="Безымянный_градиент_1424-29" x1="81.38" y1="34.11" x2="82.04" y2="90.63" xlink:href="#Безымянный_градиент_1424"/><linearGradient id="Безымянный_градиент_1424-30" x1="89.72" y1="34.01" x2="90.39" y2="90.53" xlink:href="#Безымянный_градиент_1424"/><linearGradient id="Безымянный_градиент_1424-31" x1="89.6" y1="34.02" x2="90.27" y2="90.54" xlink:href="#Безымянный_градиент_1424"/><linearGradient id="Безымянный_градиент_1424-32" x1="86.37" y1="34.05" x2="87.04" y2="90.57" xlink:href="#Безымянный_градиент_1424"/><linearGradient id="Безымянный_градиент_1424-33" x1="79.5" y1="34.14" x2="80.16" y2="90.65" xlink:href="#Безымянный_градиент_1424"/><linearGradient id="Безымянный_градиент_1424-34" x1="74.78" y1="34.19" x2="75.44" y2="90.71" xlink:href="#Безымянный_градиент_1424"/><linearGradient id="Безымянный_градиент_1424-35" x1="71.81" y1="34.23" x2="72.48" y2="90.75" xlink:href="#Безымянный_градиент_1424"/><linearGradient id="Безымянный_градиент_1424-36" x1="67.41" y1="34.28" x2="68.08" y2="90.8" xlink:href="#Безымянный_градиент_1424"/><linearGradient id="Безымянный_градиент_1424-37" x1="67.18" y1="34.28" x2="67.84" y2="90.8" xlink:href="#Безымянный_градиент_1424"/><linearGradient id="Безымянный_градиент_1424-38" x1="69.16" y1="34.26" x2="69.83" y2="90.78" xlink:href="#Безымянный_градиент_1424"/><linearGradient id="Безымянный_градиент_1424-39" x1="69.24" y1="34.26" x2="69.91" y2="90.78" xlink:href="#Безымянный_градиент_1424"/><linearGradient id="Безымянный_градиент_1424-40" x1="67.25" y1="34.28" x2="67.92" y2="90.8" xlink:href="#Безымянный_градиент_1424"/><linearGradient id="Безымянный_градиент_1424-41" x1="79.85" y1="34.13" x2="80.51" y2="90.65" xlink:href="#Безымянный_градиент_1424"/><linearGradient id="Безымянный_градиент_1480" x1="84.1" y1="50.64" x2="83.44" y2="65.31" gradientUnits="userSpaceOnUse"><stop offset="0" stop-color="#737d83"/><stop offset="1" stop-color="#2b292b"/></linearGradient><linearGradient id="Безымянный_градиент_1480-2" x1="70.12" y1="26.78" x2="73.21" y2="6.43" xlink:href="#Безымянный_градиент_1480"/></defs><g id="Слой_2" data-name="Слой 2"><g id="Слой_2-2" data-name="Слой 2"><path class="cls-2" d="M88,24.54C84.11,9.61,108.35-8.1,116.56,8.31c3.89,7.79.65,11,3.24,16.88s11,5.84,9.09,18.17S110.72,64.12,99,50.49,88,24.54,88,24.54Z"/><path class="cls-3" d="M83.46,23.24c13,8.69,24,46.72-13.63,66.19s-48,13-51.26,9.09S-7,75.74,15.21,62.47C11.54,37.87,36.09-8.56,83.46,23.24Z"/><path class="cls-4" d="M93.85,36.87C99.69,20.64,84.76-2.07,1.7,6.37c-6.49,14.27,6.71,31.15,21.52,30.5s44-18.82,51.81-9.09S62.7,41.41,70.48,63.47C71.78,55.69,84.76,47.25,88,57s-18.82,18.17-16.88,26,16.23.65,16.23.65C95.14,67.37,118.51,44,93.85,36.87Z"/><path class="cls-5" d="M33.41,61.79c-1.88-2.47-.08-13.72,0-14.13S53,27.13,58.15,36.87s1.09,19.68-2.37,22.82S36.57,66,33.41,61.79Z"/><path class="cls-6" d="M25.06,62.82c1.3-1.29,2-11.53,1.31-13.55S19.63,37.4,16.18,40.7s-3.22,16-1.71,18.07S21.16,66.72,25.06,62.82Z"/><circle class="cls-7" cx="21.48" cy="55.55" r="9.36"/><path class="cls-8" d="M73.73,64.77c-2-7.79,7.14-22.71,18.82-14.92S80.87,77.75,75,73.86,73.73,64.77,73.73,64.77Z"/><path class="cls-9" d="M25.71,58.93c-3.25-11-9.09-11.68-10.17-2.1C16.62,61.53,20.52,64.12,25.71,58.93Z"/><g class="cls-10"><circle class="cls-11" cx="23.1" cy="56.05" r="4.81"/><path class="cls-12" d="M27.07,55.89A4,4,0,1,1,23,52.08,4,4,0,0,1,27.07,55.89Z"/><circle class="cls-13" cx="19.49" cy="53.86" r="1.61"/></g><path class="cls-14" d="M25.71,58.93c-2.6-16.22-10.59-11.33-10.17-2.1C16.4,52.59,19.87,45.3,25.71,58.93Z"/><path class="cls-15" d="M21,68.1c-2,0-.55,2.4-2.55,2.4s0-2-3-3C17.79,66.22,20.65,67,21,68.1Z"/><path class="cls-16" d="M26.58,68c-3,1,.45,5.13-2.55,5.13-3.81,0,0-5-4-5C23.84,65.25,25.63,66.07,26.58,68Z"/><path class="cls-17" d="M28.59,53.94C26,57.19,14.31,63.68,9.12,64.33c3.25,3.89,16.23,5.84,20.12,2.59S28.59,53.94,28.59,53.94Z"/><circle class="cls-18" cx="27.03" cy="67.92" r="2.86"/><circle class="cls-19" cx="46.58" cy="54.76" r="13.42"/><path class="cls-20" d="M76.32,61.53c5.2-2,8.44,2.59,5.84,5.84,9.09-6.49,9.09-11,6.49-13.63S78.92,53.09,76.32,61.53Z"/><path class="cls-21" d="M34.65,60c.79-8.88,9.23-12.12,22.21-8.23C56.21,56.34,54,64.35,34.65,60Z"/><circle class="cls-22" cx="47.55" cy="54.48" r="5.21"/><path class="cls-23" d="M51.84,54.32a4.29,4.29,0,1,1-4.45-4.13A4.3,4.3,0,0,1,51.84,54.32Z"/><circle class="cls-13" cx="43.65" cy="52.11" r="1.75"/><path class="cls-14" d="M34.79,59.58C36.09,46,50.37,44.65,56.86,51.79,48.42,49.85,39.33,47.9,34.79,59.58Z"/><path class="cls-24" d="M32.85,44.65c-2.15,2-2.6,6.1,1.94,4.35S50.08,27.21,58.66,37.88C54.4,30,47.77,31,32.85,44.65Z"/><path class="cls-25" d="M26.36,46c-.92-2.75-9.4-13.61-11.84-2.26,2.25-3.91,5.36-4.84,7.29,1,1.3,3.9,3,4.55,4.55,4.55C27,49.2,27,47.9,26.36,46Z"/><path class="cls-26" d="M18.5,80.75c-6.93-6.93-3.18-11.44,2.66-8.19s14.53,8.88,17.65,8.66C28.83,87.91,15.88,84.67,18.5,80.75Z"/><path class="cls-27" d="M80.46,49.34a.93.93,0,0,1-.88-.64l-3-9.77a.92.92,0,1,1,1.75-.55l3,9.77a.92.92,0,0,1-.6,1.15A.84.84,0,0,1,80.46,49.34Z"/><path class="cls-28" d="M79,50.37c-1,0-3.69-.95-11.83-4.12a.92.92,0,1,1,.67-1.71c3.06,1.2,6.36,2.44,8.57,3.21a59.27,59.27,0,0,1-3.84-9.11.91.91,0,1,1,1.73-.58c1.3,3.85,3.68,9.63,4.9,10.42.85.54.66,1.14.54,1.38S79.48,50.37,79,50.37Zm-.72-.31h0Z"/><path class="cls-29" d="M73.3,53.7c-.79,0-2-.06-3.85-.2-4.87-.38-5.55-.77-5.77-.91a.91.91,0,0,1-.33-1.25A.93.93,0,0,1,64.6,51c.77.37,5.93.79,8.3.85-.12-.35-.26-.79-.43-1.34-.59-1.85-2.15-6.78-3-7.28A.9.9,0,0,1,69,42a.91.91,0,0,1,1.21-.45c1.34.62,2.4,3.31,4,8.39.26.82.56,1.74.7,2.09l.56.4-.47.75C74.81,53.51,74.68,53.7,73.3,53.7Z"/><path class="cls-30" d="M73.22,57.22a.89.89,0,0,1-.69-.31l-6.8-7.75A.91.91,0,1,1,67.1,48l6.8,7.75a.92.92,0,0,1-.08,1.3A.91.91,0,0,1,73.22,57.22Z"/><path class="cls-31" d="M87.68,50.41a.9.9,0,0,1-.42-.1.92.92,0,0,1-.39-1.24c.42-.79,4.3-6.52,4.74-7.17a.92.92,0,0,1,1.27-.25.93.93,0,0,1,.25,1.28c-1.65,2.42-4.36,6.47-4.63,7A.92.92,0,0,1,87.68,50.41Z"/><path class="cls-32" d="M95.41,56.36a12.23,12.23,0,0,1-6.84-2.88L88,53l.33-.65c1.16-2.26,5.71-4.59,6.23-4.85a.9.9,0,0,1,1.22.41.91.91,0,0,1-.4,1.23,20.07,20.07,0,0,0-5,3.43,10.37,10.37,0,0,0,5,2,.92.92,0,1,1,0,1.83Z"/><path class="cls-33" d="M67.82,74.56a.91.91,0,0,1-.16-1.81,13.46,13.46,0,0,0,3.94-4.81,36.92,36.92,0,0,0-8.09-1.27.92.92,0,0,1,0-1.84h0a39.26,39.26,0,0,1,8.81,1.41,1.49,1.49,0,0,1,1.1,1.65c-.16,1.89-4,6.5-5.54,6.66Zm-.09-1.82ZM71.88,68h0Z"/><path class="cls-34" d="M65.39,61.85a.92.92,0,1,1,0-1.83,25.34,25.34,0,0,0,4.88-1.68,45.45,45.45,0,0,0-8.37-.76.92.92,0,0,1-.13-1.83c.09,0,10,0,10.87,2a1.26,1.26,0,0,1-.15,1.18C71.52,60.36,66,61.85,65.39,61.85Z"/><path class="cls-35" d="M83.81,80.79a1.07,1.07,0,0,1-.41-.1.91.91,0,0,1-.4-1.23c.22-.84-.92-4.9-1.73-6.38l-.6.68c-1,1.07-3.79,4.28-3.87,5.23a.92.92,0,0,1-.42,1.15.92.92,0,0,1-1.24-.39c-.71-1.34.78-3.39,4.15-7.2.45-.51.84-.94,1-1.18a1.17,1.17,0,0,1,1.61-.28c1.46.91,3.45,7.7,2.7,9.19A.92.92,0,0,1,83.81,80.79Z"/><path class="cls-36" d="M66.11,69.79a.89.89,0,0,1-.72-.36.91.91,0,0,1,.16-1.28L73.49,62a.92.92,0,0,1,1.12,1.46l-7.94,6.1A.9.9,0,0,1,66.11,69.79Z"/><path class="cls-37" d="M65.5,64.91a.92.92,0,0,1-.31-1.78l8.55-3.05a.9.9,0,0,1,1.17.55.92.92,0,0,1-.55,1.17l-8.55,3A.85.85,0,0,1,65.5,64.91Z"/><path class="cls-38" d="M70.49,78a.93.93,0,0,1-.55-.18.91.91,0,0,1-.18-1.28l7.32-9.77a.92.92,0,0,1,1.47,1.1l-7.33,9.77A.9.9,0,0,1,70.49,78Z"/><path class="cls-39" d="M80.15,79h-.08a.91.91,0,0,1-.83-1l1.22-13.43a.92.92,0,0,1,1.83.16L81.06,78.12A.91.91,0,0,1,80.15,79Z"/><path class="cls-40" d="M89.31,78.34a.89.89,0,0,1-.67-.3l-7.33-7.93a.92.92,0,1,1,1.35-1.25L90,76.8a.91.91,0,0,1,0,1.29A.88.88,0,0,1,89.31,78.34Z"/><path class="cls-41" d="M91.14,74.67a.87.87,0,0,1-.44-.11l-5.5-3a.92.92,0,0,1-.35-1.25.9.9,0,0,1,1.24-.35l5.5,3a.9.9,0,0,1,.35,1.24A.92.92,0,0,1,91.14,74.67Z"/><path class="cls-42" d="M85.65,57.58a.93.93,0,0,1-.86-.59.91.91,0,0,1,.54-1.18l9.76-3.67a.93.93,0,0,1,1.18.54.92.92,0,0,1-.53,1.18L86,57.52A1,1,0,0,1,85.65,57.58Z"/><path class="cls-43" d="M94.8,63.69a.89.89,0,0,1-.53-.18l-6.72-4.88a.92.92,0,0,1,1.08-1.48L95.34,62a.92.92,0,0,1-.54,1.66Z"/><path class="cls-44" d="M94.19,69.18a1,1,0,0,1-.43-.11L85.82,64.8a.92.92,0,0,1,.87-1.62l7.94,4.28a.92.92,0,0,1-.44,1.72Z"/><path class="cls-45" d="M93.58,72.84a.9.9,0,0,1-.61-.23l-6.1-5.5a.91.91,0,1,1,1.22-1.36l6.11,5.5a.91.91,0,0,1-.62,1.59Z"/><path class="cls-46" d="M85.65,62.46a.91.91,0,0,1-.1-1.82l11.6-1.22a.91.91,0,1,1,.19,1.82l-11.6,1.22Z"/><path class="cls-47" d="M77.19,49.55a.92.92,0,0,0,.8-.75l1.76-10.09A.92.92,0,0,0,79,37.65a.94.94,0,0,0-1.09.75L76.13,48.49a.93.93,0,0,0,.78,1.06A1.31,1.31,0,0,0,77.19,49.55Z"/><path class="cls-48" d="M78,50c-.15-.22-.43-.79.36-1.44,1.14-.94,2.77-7,3.55-11A.94.94,0,0,1,83,36.82a.92.92,0,0,1,.75,1.07,60.11,60.11,0,0,1-2.65,9.55c2.14-1.07,5.34-2.75,8.3-4.34a1,1,0,0,1,1.28.35.91.91,0,0,1-.37,1.25c-7.87,4.24-10.46,5.54-11.5,5.68A.75.75,0,0,1,78,50Zm1.52,0Z"/><path class="cls-49" d="M85.11,52.91c.8-.11,2-.33,3.9-.72,4.91-1,5.55-1.52,5.76-1.68a.89.89,0,0,0,.16-1.28,1,1,0,0,0-1.32-.16c-.73.46-5.94,1.58-8.35,2,.07-.37.15-.82.25-1.38.34-1.92,1.25-7,2.09-7.63a.89.89,0,0,0,.29-1.26,1,1,0,0,0-1.31-.28c-1.28.79-2,3.6-2.93,8.85-.15.85-.32,1.81-.42,2.16l-.51.48.58.69C83.54,52.92,83.69,53.1,85.11,52.91Z"/><path class="cls-50" d="M85.68,56.39a1,1,0,0,0,.66-.41l5.86-8.6a.9.9,0,0,0-.26-1.27,1,1,0,0,0-1.31.26L84.77,55A.9.9,0,0,0,85,56.24,1,1,0,0,0,85.68,56.39Z"/><path class="cls-51" d="M70,51.59a.94.94,0,0,0,.42-.16.89.89,0,0,0,.22-1.28c-.53-.72-5.29-5.88-5.83-6.46a1,1,0,0,0-1.33-.07.89.89,0,0,0-.07,1.29c2,2.18,5.34,5.82,5.7,6.31A1,1,0,0,0,70,51.59Z"/><path class="cls-52" d="M62.9,58.53a12.72,12.72,0,0,0,6.59-3.78l.52-.54-.44-.6c-1.5-2.08-6.46-3.78-7-4a1,1,0,0,0-1.2.57.92.92,0,0,0,.58,1.17,20.7,20.7,0,0,1,5.56,2.73,10.76,10.76,0,0,1-4.85,2.6.92.92,0,0,0-.8,1A.93.93,0,0,0,62.9,58.53Z"/><path class="cls-53" d="M93.5,72.85c-1.61.05-6.16-4-6.58-5.86a1.47,1.47,0,0,1,.89-1.78,41.88,41.88,0,0,1,8.8-2.59h0a1,1,0,0,1,1.06.76.92.92,0,0,1-.79,1.05,39.77,39.77,0,0,0-8.08,2.36A13.72,13.72,0,0,0,93.51,71a.91.91,0,0,1,.09,1.82ZM93.44,71Zm-4.9-4.12h0Z"/><path class="cls-54" d="M86.65,58a1.23,1.23,0,0,1-.31-1.15c.57-2.11,10.73-3.43,10.82-3.43a.92.92,0,1,1,.12,1.83,47.81,47.81,0,0,0-8.44,1.89,27.07,27.07,0,0,0,5.22,1,.94.94,0,0,1,1.06.79.92.92,0,0,1-.81,1C93.73,60,87.84,59.26,86.65,58Z"/><path class="cls-55" d="M77.23,80.78c-1-1.38.12-8.38,1.48-9.48a1.25,1.25,0,0,1,1.69.06c.22.21.68.59,1.21,1,4,3.33,5.77,5.16,5.24,6.58a1,1,0,0,1-1.21.55.91.91,0,0,1-.59-1.08c-.21-.93-3.56-3.73-4.67-4.66l-.71-.59c-.62,1.57-1.23,5.75-.88,6.55A.9.9,0,0,1,78.54,81a.76.76,0,0,1-.4.15A1,1,0,0,1,77.23,80.78Z"/><path class="cls-56" d="M94.68,67.88a1,1,0,0,0,.69-.45A.89.89,0,0,0,95,66.18l-9-5a1,1,0,0,0-1.28.34.9.9,0,0,0,.34,1.25l9,5A.94.94,0,0,0,94.68,67.88Z"/><path class="cls-57" d="M94.63,63a.92.92,0,0,0,.06-1.81l-9.15-1.87a.94.94,0,0,0-1.11.71.91.91,0,0,0,.72,1.09L94.3,63A1.22,1.22,0,0,0,94.63,63Z"/><path class="cls-58" d="M91.36,76.63a1,1,0,0,0,.53-.26.89.89,0,0,0,0-1.29l-8.84-8.69a1,1,0,0,0-1.33,0,.89.89,0,0,0,0,1.29l8.84,8.69A1,1,0,0,0,91.36,76.63Z"/><path class="cls-59" d="M81.62,78.85l.09,0a.91.91,0,0,0,.7-1.09L79.3,64.59a.94.94,0,0,0-1.13-.68A.9.9,0,0,0,77.46,65l3.11,13.15A1,1,0,0,0,81.62,78.85Z"/><path class="cls-60" d="M72.19,79.48a.9.9,0,0,0,.64-.38l6.38-8.86A.9.9,0,0,0,79,69a1,1,0,0,0-1.32.23l-6.37,8.85a.89.89,0,0,0,.23,1.27A1,1,0,0,0,72.19,79.48Z"/><path class="cls-61" d="M69.81,76.1a1,1,0,0,0,.44-.18l5.18-3.76a.9.9,0,0,0,.19-1.28,1,1,0,0,0-1.32-.19l-5.18,3.77a.89.89,0,0,0-.19,1.28A1,1,0,0,0,69.81,76.1Z"/><path class="cls-62" d="M73,58.42a.93.93,0,0,0,.79-.71.9.9,0,0,0-.71-1.09L62.64,54.31a1,1,0,0,0-1.13.69.91.91,0,0,0,.71,1.09L72.7,58.4A1,1,0,0,0,73,58.42Z"/><path class="cls-63" d="M64.54,65.7a.92.92,0,0,0,.53-.24l6.17-5.75a.89.89,0,0,0,0-1.29,1,1,0,0,0-1.33,0l-6.18,5.75a.9.9,0,0,0,0,1.29A1,1,0,0,0,64.54,65.7Z"/><path class="cls-64" d="M65.93,71.07a1,1,0,0,0,.43-.17l7.5-5.31a.89.89,0,0,0,.21-1.28,1,1,0,0,0-1.32-.2l-7.5,5.31A.9.9,0,0,0,65,70.7,1,1,0,0,0,65.93,71.07Z"/><path class="cls-65" d="M67.06,74.61a.9.9,0,0,0,.59-.31L73.12,68A.89.89,0,0,0,73,66.74a1,1,0,0,0-1.33.11l-5.47,6.26a.91.91,0,0,0,.11,1.29A.94.94,0,0,0,67.06,74.61Z"/><path class="cls-66" d="M73.72,63.26a.91.91,0,0,0-.16-1.82l-12,.35a.92.92,0,1,0,.06,1.83l12-.35Z"/><ellipse class="cls-67" cx="80.15" cy="60.02" rx="13.74" ry="17.61"/><ellipse class="cls-68" cx="83.82" cy="56.97" rx="6.41" ry="9.77"/><path class="cls-69" d="M51.51,5.24c16-19.17,36.27,18.15,36.27,49.29-3,4.27-5.7,1.87-5.59.32,0-20.11-16-62.25-27.78-49.19A9.63,9.63,0,0,1,51.51,5.24Z"/></g></g></svg>