<svg xmlns="http://www.w3.org/2000/svg" xmlns:xlink="http://www.w3.org/1999/xlink" width="130.738" height="148.555" ><defs><linearGradient id="A" x1=".496" y1="-.27" x2=".503" y2="1.182"><stop offset=".641" stop-color="#ffd7a5"/><stop offset="1" stop-color="#faa96c"/></linearGradient><linearGradient id="B" x1=".498" y1="-.27" x2=".501" y2="1.18"><stop offset="0" stop-color="#9d6545"/><stop offset="1" stop-color="#674137"/></linearGradient><linearGradient id="C" x1=".579" y1=".03" x2=".405" y2=".527"><stop offset="0" stop-color="#faa478"/><stop offset="1" stop-color="#f7694d"/></linearGradient><linearGradient id="D" x1=".421" y1=".332" x2=".758" y2=".819" xlink:href="#C"/><linearGradient id="E" x1="-41.316" y1="45.454" x2="-41.509" y2="46.509" xlink:href="#A"/><linearGradient id="F" x1="-74.743" y1="94.637" x2="-75.542" y2="95.026"><stop offset=".641" stop-color="#fabb80"/><stop offset="1" stop-color="#faa16c"/></linearGradient><linearGradient id="G" x1=".502" y1=".908" x2=".498" y2="-.006" xlink:href="#A"/><linearGradient id="H" x1=".503" y1=".894" x2=".497" y2="-.196" xlink:href="#A"/><linearGradient id="I" y1=".5" x2="1" y2=".5"><stop offset="0" stop-color="#bf6545"/><stop offset="1" stop-color="#776125"/></linearGradient><linearGradient id="J" x1="34.408" y1="-8.971" x2="34.43" y2="-9.806"><stop offset="0" stop-color="#ddf5f5" stop-opacity=".4"/><stop offset="1" stop-color="#c6d9db" stop-opacity="0"/></linearGradient><clipPath id="K"><path d="M1838.3 270.978c1.03-11.157-10.1-19.339-12.264 0 2.374 5.95 9.684 6.694 12.264 0z" transform="translate(-1826.032 -259.343)" fill="none"/></clipPath><linearGradient id="L" x1="38.946" y1="-10.425" x2="38.967" y2="-11.261" xlink:href="#J"/><linearGradient id="M" x1=".598" y1="-1.175" x2=".47" y2="1.176" xlink:href="#B"/><linearGradient id="N" x1=".499" y1="-.12" x2=".502" y2=".944"><stop offset="0" stop-color="#fff" stop-opacity="0"/><stop offset="1" stop-color="#e4e9eb"/></linearGradient><linearGradient id="O" x1=".561" y1="-.232" x2=".436" y2=".813"><stop offset="0" stop-color="#cf5555"/><stop offset="1" stop-color="#a64444"/></linearGradient><linearGradient id="P" x1="-786.608" y1="-2984.351" x2="-786.296" y2="-2982.23"><stop offset="0" stop-color="#fff" stop-opacity=".2"/><stop offset="1" stop-color="#fff"/></linearGradient><linearGradient id="Q" x1=".496" y1="-.716" x2=".514" y2="4.392" xlink:href="#O"/><linearGradient id="R" x1=".609" y1=".052" x2=".473" y2=".933" xlink:href="#F"/><linearGradient id="S" x1=".536" y1=".025" x2=".452" y2="1.723" xlink:href="#B"/><linearGradient id="T" x1="407.935" x2="407.938" xlink:href="#N"/><linearGradient id="U" x1="354.956" x2="354.83" xlink:href="#O"/><linearGradient id="V" x1="-498.342" y1="-2642.07" x2="-498.031" y2="-2639.949" xlink:href="#P"/></defs><path d="M62.4 19.505c-10.139 1.561-39 28.08-39 28.08s-1.561 34.42 0 43.73c-9.361 10.822-28.688 18.406-.694 56.758 16.208.266 56.073 11.053 74.794-85.667-16.38-41.34-35.1-42.901-35.1-42.901z" fill="url(#A)"/><path d="M35.101 17.163c-1.561.78-4.681 10.139-1.561 14.039s11.7-7.021 9.361-10.139-7.8-3.9-7.8-3.9z" fill="#e66658"/><path d="M77.999 28.866c-14.498 14.279-34.269 21.904-54.6 21.06v7.335c-15.6-7.335-5.461-15.136 26.519-41.656 15.602 3.12 28.081 13.261 28.081 13.261z" fill="url(#B)"/><path d="M63.181 11.705c6.239-5.459 25.74-15.6 31.2-10.139s10.141 9.359 13.261 7.02 7.019-3.9 14.039.78c5.8 3.869 11.7 7.8 7.8 14.039s-10.953 10.689-12.48 15.6-6.241 21.06-13.26 24.18-40.56-51.48-40.56-51.48z" fill="url(#C)"/><path d="M32.76 29.646c-2.341-4.68-3.9-10.141 0-13.26s14.039-11.7 20.28-11.7c14.041 0 66.3 46.8 50.7 66.3-3.9 4.68-11.23 13.045-11.23 13.045.31-15.384-44.266-58.036-51.171-61.405-7.799-4.68-10.138 3.12-8.579 7.02z" fill="url(#D)"/><path d="M86.557 92.845c3.941-6.246 26.146-6.27 27.277 1.837s-6.069 19.5-14.962 19.861-17.689-2.725-18.149-7.695 1.527-7.166 5.834-14.003z" fill="url(#E)"/><path d="M93.542 98.064c4.678 3.892 3.9 10.316-3.073 10.206 8.34 2.949 14.587.766 17.881-5.614s-10.939-6.465-14.808-4.592z" fill="url(#F)"/><path d="M51.862 81.409c-3.779-7.667-4.3-26.946 0-28.157s19.117 3.1 21.458 7.407 3.12 15.508-.78 21.54-16.397 7.897-20.678-.79z" fill="url(#G)"/><path d="M36.74 85.026c1.932-1.983 2.261-14.819 2.261-18.719-4.214-2.9-13.261-6.241-14.821-3.9s-3.12 19.5-.78 22.619 10.3 3.12 13.34 0z" fill="url(#H)"/><path d="M53.04 81.127c-1.559-11.7 15.3-20.28 18.571 0-3.598 6.239-14.671 7.019-18.571 0z" fill="#fff"/><circle cx="63.8" cy="77.259" r="6.667" fill="url(#I)"/><path d="M69.286 77.049a5.49 5.49 0 1 1-10.974.422 5.49 5.49 0 0 1 9.217-4.241 5.49 5.49 0 0 1 1.757 3.819z" fill="url(#J)"/><circle cx="58.8" cy="74.231" r="2.235" fill="#fff"/><path d="M53.04 81.127c-1.559-16.38 18.421-19.5 18.571 0-2.971-13.262-16.23-15.601-18.571 0z" fill="#774d37"/><path d="M36.448 80.281c1.03-11.157-10.1-19.339-12.264 0 2.374 5.95 9.684 6.694 12.264 0z" fill="#fff"/><g clip-path="url(#K)" transform="translate(24.18 68.646)"><circle cx="8.395" cy="8.615" r="5.881" fill="url(#I)"/><path d="M13.234 8.43c.075 1.957-1.037 3.767-2.816 4.586s-3.877.484-5.314-.847-1.931-3.397-1.251-5.234 2.4-3.084 4.357-3.158c2.672-.101 4.921 1.982 5.024 4.654z" fill="url(#L)"/><circle cx="3.985" cy="5.944" r="1.972" fill="#fff"/></g><path d="M36.448 80.281c-2.125-13.195-10.7-13.195-12.264 0-.004-20.215 14.817-11.634 12.264 0z" fill="#774d37"/><path d="M39.001 62.406c.779 1.736.779 3.723 0 5.459-7.021 1.561-14.041-9.36-15.6-3.119 1.559-10.14 5.459.78 15.6-2.34z" fill="url(#M)"/><g transform="translate(0 69.57)"><path d="M37.413 3.138C24.906.904 12.273 3.565 3.628 6.89c5.986 13.3 16.816 15.209 25.268 12.633s9.055-12.155 8.517-16.385z" fill="url(#N)"/><path d="M38.836 1.047C24.46-1.789 9.936 1.59 0 5.814c6.879 16.894 19.329 19.32 29.046 16.05s10.407-15.45 9.79-20.817zm-9.94 18.477C20.444 22.1 9.614 20.19 3.628 6.891 12.273 3.566 24.906.906 37.413 3.139c.537 4.227-.065 13.811-8.517 16.385z" fill="url(#O)"/><ellipse cx="7.128" cy="2.247" rx="7.128" ry="2.247" transform="matrix(.982186 -.187913 .187913 .982186 6.724 7.342)" fill="url(#P)"/></g><path d="M38.219 70.982c2.341-1.559 7.834-.788 8.6-.393v1.9c-4.7-.73-7.036-.73-8.6.049a1.08 1.08 0 0 1 0-1.556z" fill="url(#Q)"/><path d="M44.46 74.106c2.467 0 7.819 22.139 1.959 25.11s-30.487 4.3-31.434-2.213 20.895-10.417 23.234-15.1.781-7.797 6.241-7.797z" fill="url(#R)"/><path d="M49.919 50.701c-1.559 2.341-2.181 7.65-1.09 8.115 3.74-.63 8.258-5.878 25.345 3.144-.148-3.018-2.618-8.139-21.237-11.259-1.357.78-2.213 3.435-2.213 3.435l.938-3.435z" fill="url(#S)"/><path d="M47.734 72.814c13.508-2.411 27.152.461 36.488 4.053-6.464 14.363-18.161 16.424-27.289 13.644s-9.78-13.131-9.199-17.697z" fill="url(#T)"/><path d="M56.772 93.036c10.493 3.532 23.94.912 31.369-17.333-10.731-4.561-26.417-8.21-41.942-5.146-.668 5.798.079 18.947 10.573 22.479zm-9.038-20.222c13.508-2.411 27.152.461 36.488 4.053-6.464 14.363-18.161 16.424-27.289 13.644s-9.78-13.132-9.199-17.697z" fill="url(#U)"/><ellipse cx="57.048" cy="76.22" rx="7.128" ry="2.247" fill="url(#V)"/><path d="M50.696 112.326c-14.819-3.9-25.739-5.459-31.979-2.339 3.119 7.021 3.9 9.36 3.119 13.26 1.561-1.559.78-11.7.78-11.7 10.144-1.56 20.285.779 28.08.779z" fill="#c1845b"/></svg>
