<svg xmlns="http://www.w3.org/2000/svg" xmlns:xlink="http://www.w3.org/1999/xlink" width="223.73" height="202.884" ><defs><linearGradient id="A" x1=".16" y1=".499" x2=".794" y2=".501"><stop offset="0" stop-color="#b5accf"/><stop offset="1" stop-color="#835f6f"/></linearGradient><linearGradient id="B" x1=".641" y1=".799" x2=".094" y2="-.115"><stop offset="0" stop-color="#ddf5f5" stop-opacity="0"/><stop offset="1" stop-color="#fff" stop-opacity=".2"/></linearGradient><radialGradient id="C" cx=".385" cy=".378" r=".476" gradientTransform="translate(-0.387) scale(1.773 1)"><stop offset="0" stop-color="#e46da7"/><stop offset=".196" stop-color="#dc6196"/><stop offset=".581" stop-color="#c9446a"/><stop offset=".888" stop-color="#b92a43"/></radialGradient><linearGradient id="D" x1="-7587.944" y1="1691.244" x2="-7586.892" y2="1692.02"><stop offset="0" stop-color="#fff" stop-opacity="0"/><stop offset="1" stop-color="#fff" stop-opacity=".6"/></linearGradient><linearGradient id="E" x1=".645" y1=".121" x2=".412" y2="1.205"><stop offset=".632" stop-color="#ffd7a5"/><stop offset="1" stop-color="#faa96c"/></linearGradient><linearGradient id="F" x1=".504" y1="1.303" x2=".498" y2=".056"><stop offset=".641" stop-color="#ffd7a5"/><stop offset="1" stop-color="#faa96c"/></linearGradient><linearGradient id="G" x1=".535" y1="1.271" x2=".483" y2=".099" xlink:href="#F"/><linearGradient id="H" x1=".521" y1="-.39" x2=".493" y2=".787"><stop offset=".641" stop-color="#fabb80"/><stop offset="1" stop-color="#faa16c"/></linearGradient><linearGradient id="I" x1=".507" y1=".953" x2=".487" y2=".16" xlink:href="#F"/><linearGradient id="J" x1=".514" y1="1.097" x2=".487" y2=".124" xlink:href="#F"/><clipPath id="K"><path d="M371.75 300.827c1.561-17.161 21.558-3.12 23.649 0-7.518 7.8-23.649 5.459-23.649 0z" transform="translate(-371.75 -292.458)" fill="none"/></clipPath><linearGradient id="L" y1=".5" x2="1" y2=".5"><stop offset="0" stop-color="#5d7d91"/><stop offset="1" stop-color="#374b6b"/></linearGradient><linearGradient id="M" x1="39.544" y1="-20.49" x2="39.565" y2="-21.326"><stop offset="0" stop-color="#ddf5f5" stop-opacity=".4"/><stop offset="1" stop-color="#c6d9db" stop-opacity="0"/></linearGradient><clipPath id="N"><path d="M367.667 300.945c0-8.827-10.083-15-13.426 0 4.601 3.531 10.779 4.413 13.426 0z" transform="translate(-354.241 -291.863)" fill="none"/></clipPath><linearGradient id="O" x1="39.549" y1="-20.621" x2="39.571" y2="-21.457" xlink:href="#M"/><linearGradient id="P" x1=".53" y1=".214" x2=".474" y2=".955"><stop offset="0" stop-color="#cf5555"/><stop offset="1" stop-color="#a64444"/></linearGradient><linearGradient id="Q" x1=".56" y1=".079" x2=".44" y2=".943" xlink:href="#F"/><linearGradient id="R" x1="1.165" y1=".181" x2=".31" y2=".55" xlink:href="#H"/><linearGradient id="S" x1=".561" y1="-.428" x2=".472" y2="1.136"><stop offset="0" stop-color="#d19a87"/><stop offset="1" stop-color="#835f6f"/></linearGradient><linearGradient id="T" x1="0" y1=".5" x2="1" y2=".5" xlink:href="#S"/><linearGradient id="U" x1="1.042" y1=".367" x2=".053" y2=".691" xlink:href="#A"/><linearGradient id="V" x1=".973" y1=".361" x2=".031" y2=".614" xlink:href="#A"/><linearGradient id="W" x1=".99" y1=".223" x2=".053" y2=".701" xlink:href="#A"/><linearGradient id="X" x1=".81" y1=".105" x2=".163" y2=".714" xlink:href="#A"/><linearGradient id="Y" x1=".3" y1="-.065" x2=".537" y2=".782" xlink:href="#A"/><linearGradient id="Z" x1=".615" y1=".775" x2=".019" y2=".096" xlink:href="#B"/><linearGradient id="a" x1=".172" y1=".857" x2="1.167" y2=".064" xlink:href="#B"/><radialGradient id="b" cx=".375" cy=".347" r=".438" xlink:href="#C"/><linearGradient id="c" x1="-300.622" y1="575.63" x2="-300.443" y2="576.71" xlink:href="#D"/><linearGradient id="d" x1="-4373.251" y1="9693.571" x2="-4372.89" y2="9695.83" xlink:href="#D"/></defs><path d="M103.633 80.096l-13.195 33.465c-14.885 12.735-23.566 1.376-24.3-3.474-9.261 6.678-19.749-1.788-14.14-10.338-22.321 3.175-31.051-17.132-13.891-21.032-60.059 0-46.02-61.62 20.28-36.66 27.305 14.817 45.246 38.039 45.246 38.039z" fill="url(#A)"/><path d="M60.368 49.166c-25.375-7.892-45.124-12.817-53.971 2.125s19.235 28.2 38.735 22.743c-7.02-3.9-13.692-7.518-15.035-11.169 15.251 3.617 32.976 8.049 39.995 5.708s-9.724-19.407-9.724-19.407z" fill="url(#B)"/><g transform="translate(92.428 162.342)"><path d="M16.567 2.424c-6.683-6.22-13.049.817-15.078 6.9s-2.7 20.961 2.705 24.34c4.174 2.61 10.645 6.762 14.788 2.029s2.519-28.681-2.415-33.269z" fill="url(#C)"/><ellipse cx="1.807" cy="5.261" rx="1.807" ry="5.261" transform="matrix(.44857 -.893747 .893747 .44857 2.473 29.393)" fill="url(#D)"/></g><path d="M120.792 70.915c8.592-.637 46.8 60.84 39 79.561s-56.16 42.119-89.7 38.219c2.341-11.7 2.341-31.2 8.582-43.68a112.3 112.3 0 0 1 9.359-15.6c-3.005-23.226 11.7-56.941 32.759-58.5z" fill="url(#E)"/><path d="M130.934 91.974c-4.138-6.877-14.366 4.876-20.28 2.341-5.459-2.341-10.139-6.241-13.767 4.1-4.153 11.832 40.659 4.543 34.047-6.441z" fill="url(#F)"/><path d="M132.493 101.334c-4.676-8.5-16.283 3.941-23.4 2.341s-9.167-6.367-13.26 1.559c-6.966 13.489 44.128 9.678 36.66-3.9z" fill="url(#G)"/><path d="M106.752 135.655c-3.076-.512-2.4 5.288-7.019 7.02-6.241 2.339-35.88 3.12-40.56 3.12 5.459 9.36 40.56 16.38 49.14 11.7s3.12-21.06-1.561-21.84z" fill="url(#H)"/><path d="M116.895 141.896c-2.862-4.906-6.241-33.541 9.36-35.1 14.829-1.483 19.734 31.117 18.057 33.889s-21.96 10.57-27.417 1.211z" fill="url(#I)"/><path d="M87.253 137.996c7.019-24.961 5.459-26.521 17.939-15.6.78 4.68-2.339 16.181-3.9 17.059s-10.92 5.56-14.039-1.459z" fill="url(#J)"/><path d="M117.672 137.996c1.561-17.161 21.558-3.12 23.649 0-7.518 7.8-23.649 5.459-23.649 0zm-16.38-.3c0-8.827-10.083-15-13.426 0 4.601 3.531 10.779 4.413 13.426 0z" fill="#fff"/><g clip-path="url(#K)" transform="translate(117.672 129.627)"><circle cx="12.256" cy="6.161" r="5.786" fill="url(#L)"/><path d="M17.018 5.98c.074 1.926-1.019 3.708-2.771 4.513s-3.816.477-5.23-.833-1.9-3.343-1.231-5.151 2.362-3.035 4.288-3.108c2.629-.1 4.843 1.95 4.944 4.579z" fill="url(#M)"/><circle cx="7.917" cy="3.533" r="1.94" fill="#fff"/></g><path d="M141.322 137.996c-9.608-7.021-20.529-10.141-23.649 0 .779-10.141 7.799-17.166 23.649 0z" fill="#472c20"/><g clip-path="url(#N)" transform="translate(87.866 128.614)"><circle cx="9.302" cy="6.393" r="5.786" fill="url(#L)"/><path d="M14.065 6.209c.074 1.926-1.019 3.708-2.771 4.513s-3.816.477-5.23-.833-1.9-3.343-1.231-5.151S7.195 1.703 9.121 1.63c2.629-.1 4.843 1.95 4.944 4.579z" fill="url(#O)"/><circle cx="4.963" cy="3.765" r="1.94" fill="#fff"/></g><path d="M101.292 137.697c0-14.121-11.848-15.886-13.426 0 1.959-7.945 6.367-14.121 13.426 0z" fill="#472c20"/><path d="M103.634 167.636c-12.48 3.12-18.721-.78-18.721-.78-3.12-7.02 3.286-8.58 6.241-5.461s10.139 5.427 12.48 6.241z" fill="url(#P)"/><path d="M114.552 152.815c5.672 5.807 7.065 14.56 3.476 21.841 1.207-10.141-.974-17.812-3.476-21.841zm-10.14 12.48c3.9 2.341 2.339 7.02-3.12 6.241 3.9-.78 4.68-3.121 3.12-6.241z" fill="#db9a6a"/><path d="M153.553 145.014c2.851-6.414 23.732-9.479 25.906-2.009s-3.037 19.17-11.353 20.73-17.012-.141-18.123-4.751.449-6.949 3.57-13.97z" fill="url(#Q)"/><path d="M160.837 148.967c4.932 3.02 5.08 9.169-1.493 10.018 8.25 1.631 13.825-1.277 16.05-7.729s-11.179-4.581-14.557-2.289z" fill="url(#R)"/><path d="M90.836 129.627c-1.244 1.348-3.583 2.128-7.483 1.348 3.9 1.559 5.693 1.978 6.355.989.46-.735.839-1.519 1.128-2.337zm29.177 1.348c-3.086 1.672-7.02 2.339-9.361 1.559 2.623 1.416 5.628 1.962 8.581 1.561z" fill="#472c20"/><path d="M114.548 120.834c.972 2.69 9.361-22.619 21.061-9.359-10.796-17.095-23.024 3.917-21.061 9.359z" fill="url(#S)"/><path d="M105.193 122.395c-1.559 7.8-6.239-4.68-8.58-5.461-3.051-1.016-3.9 2.286-4.678 3.873 2.336-8.525 5.759-7.075 7.169-5.863s2.968 5.89 6.089 7.451z" fill="url(#T)"/><path d="M184.754 21.775c6.239-20.28-21.841-30.421-31.98-12.48-7.021-1.561-12.48 3.9-10.921 9.359-8.58-2.341-13.26 6.241-9.359 14.821 7.02 14.819 28.909 28.312 40.194 18.836s12.066-30.536 12.066-30.536z" fill="url(#U)"/><path d="M152.773 9.295c13.26 3.119 19.432 12.18 17.907 24.03m-28.827-14.67c7.02 0 22.621 7.8 25.741 22.621" fill="none" stroke="#835f6f" stroke-linecap="round" stroke-miterlimit="10" stroke-width=".912"/><path d="M162.451 50.667c2.8-30.453 33.223-42.933 37.123-20.312 7.8-3.12 13.26 10.139 5.459 14.039 7.021.781 9.36 8.58 1.559 11.7 3.12 4.68 2.739 15.733-9.16 12.156-1.958 3.767-8.779 13.568-18.92 10.846-10.139-3.103-16.061-28.429-16.061-28.429z" fill="url(#V)"/><g fill="none" stroke="#835f6f" stroke-linecap="round" stroke-miterlimit="10"><path d="M170.68 62.866c4.525-26.271 22.122-34.711 28.113-33.1" stroke-width=".912"/><path d="M205.033 44.394c-10.92-.78-25.808 7.851-34.353 22.256m35.913-10.555c-14.819-2.339-25.739 3.12-33.54 12.48" stroke-width=".916"/></g><path d="M173.982 107.912c20.762 2.446 41.971 1.222 31.051-15.158 37.44-3.9 12.114-46.963-18.9-17.241.364-9.2-13.077-13.178-19.318-5.378a118.09 118.09 0 0 0-10.173 14.936z" fill="url(#W)"/><path d="M137.952 84.174c-2.339 11.7 7.037 34.064 15.219 38.482-3.917 11.957-1.345 16.705 4.979 19.141s34.287 4.421 29.273-12.17c14.157-1.2 25.409-18.932 5.909-24.393 3.12-10.139 1.275-22.553-17.692-19.466.285-12.546-28.327-10.953-37.688-1.594z" fill="url(#X)"/><path d="M122.956 73.913c-.6 11.043 32.937 34.444 50.876 23.525s14.753-30.372-3.153-30.785c9.426-13.311-4.647-30.057-19.466-21.475-36.662-39-52.26-16.382-48.36-3.9-17.941-33.541-66.3-5.461-38.221 23.4-10.139.781-10.921 17.161 8.58 14.821 5.461 18.714 34.748 15.348 49.744-5.586z" fill="url(#Y)"/><path d="M119.977 62.064c-17.907-13.77-28.826-38.73-45.987-30.15S56.054 65.355 91.933 72.425c-3.9-4.581-6.409-10.306-5.936-12.148 13.43 7.235 28.489 3.077 33.98 1.787z" fill="url(#Z)"/><path d="M129.933 66.651c8.8-15.236 33.761-28.5 39.22-14.456s-17.16 16.38-23.4 17.161c5.461-4.681 6.241-6.241 6.241-6.241s-13.701-3.847-22.061 3.536z" fill="url(#a)"/><g transform="translate(144.688 159.223)"><path d="M5.512 2.792c7.71-7.177 15.052.941 17.393 7.962s3.119 24.18-3.12 28.078c-4.816 3.01-12.281 7.8-17.061 2.341S-.18 8.091 5.512 2.792z" fill="url(#b)"/><ellipse cx="10.619" cy="3.779" rx="10.619" ry="3.779" transform="matrix(.237059 -.971495 .971495 .237059 1.83 23.508)" fill="url(#c)"/><ellipse cx="5.261" cy="1.807" rx="5.261" ry="1.807" transform="matrix(.98 -.197 .197 .98 4.812 36.425)" fill="url(#d)"/></g></svg>
