<svg xmlns="http://www.w3.org/2000/svg" xmlns:xlink="http://www.w3.org/1999/xlink" viewBox="0 0 144.65 138.83"><defs><style>.cls-1{fill:none;}.cls-2{fill:url(#Безымянный_градиент_159);}.cls-3{fill:url(#Безымянный_градиент_159-2);}.cls-4{fill:url(#Новый_образец_градиента_копия_3);}.cls-5{fill:url(#Новый_образец_градиента_копия_3-2);}.cls-6{fill:url(#Безымянный_градиент_159-3);}.cls-7{fill:#871131;}.cls-8{fill:url(#Новый_образец_градиента_копия_3-3);}.cls-9{fill:url(#Новый_образец_градиента_копия_3-4);}.cls-10{fill:url(#Безымянный_градиент_159-4);}.cls-11{fill:url(#Новый_образец_градиента_копия_3-5);}.cls-12{fill:#fff;}.cls-13{fill:#283547;}.cls-14{clip-path:url(#clip-path);}.cls-15{fill:url(#Безымянный_градиент_353);}.cls-16{fill:url(#Безымянный_градиент_725);}.cls-17{fill:url(#Безымянный_градиент_353-2);}.cls-18{fill:url(#Безымянный_градиент_725-2);}.cls-19{fill:url(#Безымянный_градиент_885);}.cls-20{fill:url(#Безымянный_градиент_885-2);}.cls-21{fill:url(#Безымянный_градиент_159-5);}.cls-22{fill:url(#Безымянный_градиент_315);}.cls-23{fill:url(#Безымянный_градиент_1139);}.cls-24{fill:url(#Безымянный_градиент_333);}.cls-25{fill:url(#Безымянный_градиент_1139-2);}.cls-26{fill:url(#Безымянный_градиент_326);}.cls-27{fill:url(#Безымянный_градиент_1139-3);}.cls-28{fill:url(#Безымянный_градиент_160);}.cls-29{fill:url(#Безымянный_градиент_160-2);}.cls-30{fill:url(#Безымянный_градиент_762);}.cls-31{fill:url(#Безымянный_градиент_762-2);}.cls-32{fill:url(#Безымянный_градиент_201);}.cls-33{fill:url(#Безымянный_градиент_493);}</style><linearGradient id="Безымянный_градиент_159" x1="60.83" y1="40.32" x2="67.33" y2="130.35" gradientUnits="userSpaceOnUse"><stop offset="0.64" stop-color="#ffd7a5"/><stop offset="1" stop-color="#faa96c"/></linearGradient><linearGradient id="Безымянный_градиент_159-2" x1="31.9" y1="42.41" x2="38.4" y2="132.44" xlink:href="#Безымянный_градиент_159"/><linearGradient id="Новый_образец_градиента_копия_3" x1="45.14" y1="4.01" x2="94.84" y2="42.53" gradientUnits="userSpaceOnUse"><stop offset="0" stop-color="#ddf5f5"/><stop offset="1" stop-color="#c6d9db"/></linearGradient><linearGradient id="Новый_образец_градиента_копия_3-2" x1="96.32" y1="35.07" x2="113.83" y2="71.08" xlink:href="#Новый_образец_градиента_копия_3"/><linearGradient id="Безымянный_градиент_159-3" x1="75.19" y1="89.22" x2="75.52" y2="53.1" xlink:href="#Безымянный_градиент_159"/><linearGradient id="Новый_образец_градиента_копия_3-3" x1="27.62" y1="116.32" x2="35.32" y2="116.32" xlink:href="#Новый_образец_градиента_копия_3"/><linearGradient id="Новый_образец_градиента_копия_3-4" x1="36.49" y1="116.05" x2="43.09" y2="116.05" xlink:href="#Новый_образец_градиента_копия_3"/><linearGradient id="Безымянный_градиент_159-4" x1="29.81" y1="88.8" x2="30.14" y2="52.68" xlink:href="#Безымянный_градиент_159"/><linearGradient id="Новый_образец_градиента_копия_3-5" x1="38.67" y1="100.94" x2="38.5" y2="115.3" xlink:href="#Новый_образец_градиента_копия_3"/><clipPath id="clip-path"><path class="cls-1" d="M38.72,72c-3.91-9.79-15-4.57-17,5.23C25.67,92.94,40,85.75,38.72,72Z"/></clipPath><linearGradient id="Безымянный_градиент_353" x1="28.21" y1="77.67" x2="40.45" y2="77.67" gradientUnits="userSpaceOnUse"><stop offset="0" stop-color="#93a779"/><stop offset="1" stop-color="#375d49"/></linearGradient><linearGradient id="Безымянный_градиент_725" x1="204.53" y1="-33.17" x2="204.74" y2="-41.59" gradientTransform="translate(-168.73 123.42) rotate(-2.18)" gradientUnits="userSpaceOnUse"><stop offset="0" stop-color="#ddf5f5" stop-opacity="0.4"/><stop offset="1" stop-color="#c6d9db" stop-opacity="0"/></linearGradient><linearGradient id="Безымянный_градиент_353-2" x1="72.61" y1="77.67" x2="84.85" y2="77.67" xlink:href="#Безымянный_градиент_353"/><linearGradient id="Безымянный_градиент_725-2" x1="248.9" y1="-31.48" x2="249.12" y2="-39.9" xlink:href="#Безымянный_градиент_725"/><linearGradient id="Безымянный_градиент_885" x1="75.26" y1="40.26" x2="74.92" y2="69.49" gradientUnits="userSpaceOnUse"><stop offset="0" stop-color="#cfb191"/><stop offset="1" stop-color="#835f6f"/></linearGradient><linearGradient id="Безымянный_градиент_885-2" x1="28.95" y1="39.73" x2="28.62" y2="68.96" xlink:href="#Безымянный_градиент_885"/><linearGradient id="Безымянный_градиент_159-5" x1="137.49" y1="59.58" x2="116.49" y2="100.26" xlink:href="#Безымянный_градиент_159"/><linearGradient id="Безымянный_градиент_315" x1="142.57" y1="82.12" x2="126.7" y2="84.27" gradientUnits="userSpaceOnUse"><stop offset="0.19" stop-color="#fabb80"/><stop offset="1" stop-color="#faa16c"/></linearGradient><linearGradient id="Безымянный_градиент_1139" x1="44.2" y1="60.72" x2="43.67" y2="76.32" gradientUnits="userSpaceOnUse"><stop offset="0.22" stop-color="#938381"/><stop offset="1" stop-color="#1c1007"/></linearGradient><linearGradient id="Безымянный_градиент_333" x1="27.11" y1="61.66" x2="17.51" y2="91.26" gradientUnits="userSpaceOnUse"><stop offset="0.22" stop-color="#fff" stop-opacity="0.2"/><stop offset="0.66" stop-color="#fff" stop-opacity="0.3"/><stop offset="1" stop-color="#e4e9eb"/></linearGradient><linearGradient id="Безымянный_градиент_1139-2" x1="22.5" y1="59.78" x2="21.95" y2="76.01" xlink:href="#Безымянный_градиент_1139"/><linearGradient id="Безымянный_градиент_326" x1="6627.44" y1="221.51" x2="6616.38" y2="255.64" gradientTransform="matrix(-1, -0.05, -0.05, 1, 6693.76, 162.88)" gradientUnits="userSpaceOnUse"><stop offset="0" stop-color="#fff" stop-opacity="0.1"/><stop offset="0.72" stop-color="#f3f5f6" stop-opacity="0.3"/><stop offset="1" stop-color="#e4e9eb"/></linearGradient><linearGradient id="Безымянный_градиент_1139-3" x1="68.92" y1="61.68" x2="68.4" y2="76.88" xlink:href="#Безымянный_градиент_1139"/><linearGradient id="Безымянный_градиент_160" x1="52.65" y1="75.83" x2="60.65" y2="86.33" gradientTransform="translate(2.4 -1.62) rotate(1.68)" gradientUnits="userSpaceOnUse"><stop offset="0" stop-color="#fff" stop-opacity="0.2"/><stop offset="1" stop-color="#fff"/></linearGradient><linearGradient id="Безымянный_градиент_160-2" x1="10.65" y1="75.6" x2="16.73" y2="83.58" gradientTransform="translate(2.33 -0.36) rotate(1.68)" xlink:href="#Безымянный_градиент_160"/><linearGradient id="Безымянный_градиент_762" x1="43.87" y1="102.51" x2="43.87" y2="114.49" gradientUnits="userSpaceOnUse"><stop offset="0" stop-color="#c3a19b"/><stop offset="0.23" stop-color="#c0a597"/><stop offset="0.46" stop-color="#b7af8b"/><stop offset="0.69" stop-color="#a7c176"/><stop offset="0.92" stop-color="#92d95a"/><stop offset="1" stop-color="#89e34f"/></linearGradient><linearGradient id="Безымянный_градиент_762-2" x1="38.66" y1="318.5" x2="38.66" y2="324.43" gradientTransform="translate(36.61 -218.29) rotate(7.77)" xlink:href="#Безымянный_градиент_762"/><linearGradient id="Безымянный_градиент_201" x1="48.06" y1="68.94" x2="36.22" y2="105.45" gradientUnits="userSpaceOnUse"><stop offset="0.22" stop-color="#ffd7a5"/><stop offset="0.84" stop-color="#fa5763"/></linearGradient><radialGradient id="Безымянный_градиент_493" cx="46.65" cy="106.9" r="4.61" gradientUnits="userSpaceOnUse"><stop offset="0" stop-color="#fcffff" stop-opacity="0.4"/><stop offset="0.18" stop-color="#f8fef9" stop-opacity="0.42"/><stop offset="0.36" stop-color="#edfbe8" stop-opacity="0.48"/><stop offset="0.54" stop-color="#daf7cc" stop-opacity="0.58"/><stop offset="0.72" stop-color="#c0f0a3" stop-opacity="0.71"/><stop offset="0.9" stop-color="#9fe870" stop-opacity="0.89"/><stop offset="1" stop-color="#89e34f"/></radialGradient></defs><g id="Слой_2" data-name="Слой 2"><g id="Слой_2-2" data-name="Слой 2"><path class="cls-2" d="M61.58,13.92c-14.5,0-46.36,20.25-46.36,30s7.83,27.43,2,37.22S-1.76,100.12.2,111.87s25.47,26.78,47,17c17.63,3.92,52.24,12.41,75.75-37.22C142.59,50.2,107.94,13.92,61.58,13.92Z"/><path class="cls-3" d="M33.5,119.71c-12.3,1.76-20.24,7.84-16.32,13.06s32,11.1,41.14-1.31S38.07,119.06,33.5,119.71Z"/><path class="cls-4" d="M117.08,32.86C110.55,19.8,76.6-2.4,67.46.21S42.64,8.7,38.07,13.92s0,17,2.61,17.64c5.11,1.27,28.08-3.27,34.61-15.68,2.61.66,28.08,12.41,35.92,17.63Z"/><path class="cls-5" d="M111.21,33.51c-9.8,13.06-13.72,17-11.1,21.55s2.61,32.65-7.19,39.84c0,9.14,9.15,10.44,11.76,9.79s7.83-5.22,8.49-8.49-2-22.23,0-25.48,18.93-5.86,23.5-1.94C135.37,57,134.9,46,132.1,39.39,126.88,27,119.7,28.29,111.21,33.51Z"/><path class="cls-6" d="M68.76,51.15c-3.92.65-13.14,25.9-11.14,31.56s29.09,19.72,35.3,1.09c2-5.88-7.86-28.22-9.15-28.81S68.76,51.15,68.76,51.15Z"/><path class="cls-7" d="M24.36,113.83c-2,.44-3.27,6.53,10.45,7.19s16.32-5.23,14.36-5.88S33.5,111.87,24.36,113.83Z"/><path class="cls-8" d="M27.62,114.49a15.9,15.9,0,0,0,1.31,3.26c.65.65,5.56.44,6,0,.58-.65.41-3.26.41-3.26H27.62"/><path class="cls-9" d="M36.84,114.49s-.73,2.61-.07,3.26,5.22,0,5.87-.65.41-3,.41-3Z"/><path class="cls-10" d="M34.71,52.44c2.56,2.31,7.82,20,4.06,30.27s-15.7,7-18.21-.87,1.88-23.51,2.51-24.16S32.53,50.47,34.71,52.44Z"/><path class="cls-11" d="M54.84,100c4.78.13,13.92,10.58,13.92,10.58-4.57,3.26-11.07,4.53-12.39,4.22-1.33-1.92-2.63-4.22-2.63-4.22l.55,4.27c-8.38,2.26-29.93,1-33.85-.35,0-2,3.27-5.23,3.27-5.23L19,113.68s-9-3-10.61-5.65c5.18-6.68,12.85-9,14.74-8.8S54.84,100,54.84,100Z"/><path class="cls-12" d="M38.72,72c-3.91-9.79-15-4.57-17,5.23C25.67,92.94,40,85.75,38.72,72Z"/><path class="cls-13" d="M38.72,72c-9.14-7.83-16.32-1.3-17,5.23C21.09,62.25,38.06,62.9,38.72,72Z"/><g class="cls-14"><circle class="cls-15" cx="34.33" cy="77.67" r="6.12"/><path class="cls-16" d="M39.36,77.47a5,5,0,1,1-5.23-4.84A5,5,0,0,1,39.36,77.47Z"/><circle class="cls-12" cx="29.74" cy="74.89" r="2.05"/></g><path class="cls-12" d="M66.15,73.35C70.72,62.9,87.7,68.78,89,79.22,77.9,97.51,61.58,84.45,66.15,73.35Z"/><path class="cls-13" d="M65.4,76.48c1.4-18.8,22.3-11,23.61,2.74C81.82,65.51,68.76,66.82,65.4,76.48Z"/><circle class="cls-17" cx="78.73" cy="77.67" r="6.12"/><path class="cls-18" d="M83.77,77.47a5,5,0,1,1-5.23-4.84A5,5,0,0,1,83.77,77.47Z"/><circle class="cls-12" cx="74.14" cy="74.89" r="2.05"/><path class="cls-19" d="M64.84,55.72c1.4,1.21,19.59,4.57,20.9,2,2.13-4.26-15-9.15-17.63-9.15C66.65,48.53,62.75,53.9,64.84,55.72Z"/><path class="cls-20" d="M32.17,48.48c-1.25.28-12.44,8-10.56,11.25,1.44,2.52,14.53-4.06,14.52-6S34.81,47.88,32.17,48.48Z"/><path class="cls-21" d="M114.47,84.45c-6.53-9.14-4.36-15,2.39-17.64s23.09-2.33,26.68,6-1.64,24.68-13.4,26.64c-11.59,1.93-17-2-18.28-3.92S109.9,86.41,114.47,84.45Z"/><path class="cls-22" d="M119.7,79.38c10.74,2.3,5.37,10.56,0,11.8C142.71,94.43,143.48,69.41,119.7,79.38Z"/><path class="cls-23" d="M37.42,68.35c2.61-5.7,9.14-5.18,13.06-.52a10.69,10.69,0,0,0-.77,2.66c-3.8-3.69-8.37-5.4-11-.91C37.42,69.21,37.42,68.35,37.42,68.35Z"/><path class="cls-24" d="M7.38,69.46c1.43,9.45,1.23,19,5.33,21.56s18.8,1,22.16-2.69C39.18,83.61,38.71,68,38.71,68Z"/><path class="cls-25" d="M4.81,67.82c10.09-.09,29.87-.8,34.76-1,.63,0,1.12.41,1,.9A4.38,4.38,0,0,1,38.73,71c-1,.69-29.67,2-31.35,1A18.44,18.44,0,0,1,4,69.12C3.51,68.6,4,67.83,4.81,67.82Z"/><path class="cls-26" d="M85.66,71.59c-2.17,10.8-2.48,21.79-7.34,24.53S56.61,96.2,53,91.77c-4.7-5.67-3.28-23.67-3.28-23.67Z"/><path class="cls-27" d="M88.73,69.39c-11.6-.56-34.33-2.26-39.95-2.68a1.07,1.07,0,0,0-1.27,1,4.86,4.86,0,0,0,2,3.77c1.11.85,34,3.59,36,2.59a22.3,22.3,0,0,0,4.07-3.14C90.18,70.34,89.7,69.44,88.73,69.39Z"/><ellipse class="cls-28" cx="56.5" cy="80.89" rx="4.55" ry="6.16" transform="translate(-2.35 1.69) rotate(-1.68)"/><ellipse class="cls-29" cx="13.57" cy="79.44" rx="3.45" ry="4.68" transform="translate(-2.32 0.43) rotate(-1.68)"/><path class="cls-30" d="M49.31,104.81c-8.47,0-1.21,9.68-6.05,9.68s2.42-9.68-4.84-9.68C43.26,101.18,48.1,102.39,49.31,104.81Z"/><path class="cls-31" d="M37.73,105.64c-4-.55-3.15,3.23-6.49,2.78s-.72-4.93-5.72-5.93C28.46,100.86,37.25,104.21,37.73,105.64Z"/><path class="cls-32" d="M46.63,71.72c5,0,.66,15,2.62,18.29s12.4,8.49,3.91,13.06-31.34,4.57-32-5.23S31,90.66,31,90.66C32.27,84.13,38.15,71.72,46.63,71.72Z"/><circle class="cls-33" cx="47.89" cy="107.44" r="3.63"/></g></g></svg>