<svg xmlns="http://www.w3.org/2000/svg" xmlns:xlink="http://www.w3.org/1999/xlink" viewBox="0 0 109.45 124.37"><defs><style>.cls-1{fill:none;}.cls-2{fill:url(#Безымянный_градиент_159);}.cls-3{fill:#e66658;}.cls-4{fill:url(#Безымянный_градиент_1081);}.cls-5{fill:url(#Новый_образец_градиента_копия);}.cls-6{fill:url(#Новый_образец_градиента_копия-2);}.cls-7{fill:url(#Безымянный_градиент_159-2);}.cls-8{fill:url(#Безымянный_градиент_738);}.cls-9{fill:url(#Безымянный_градиент_159-3);}.cls-10{fill:url(#Безымянный_градиент_159-4);}.cls-11{fill:#fff;}.cls-12{fill:url(#Безымянный_градиент_54);}.cls-13{fill:url(#Безымянный_градиент_725);}.cls-14{fill:#774d37;}.cls-15{clip-path:url(#clip-path);}.cls-16{fill:url(#Безымянный_градиент_54-2);}.cls-17{fill:url(#Безымянный_градиент_725-2);}.cls-18{fill:url(#Безымянный_градиент_1081-2);}.cls-19{fill:url(#Безымянный_градиент_140);}.cls-20{fill:url(#Новый_образец_градиента_копия_7);}.cls-21{fill:url(#Безымянный_градиент_160);}.cls-22{fill:url(#Новый_образец_градиента_копия_7-2);}.cls-23{fill:url(#Безымянный_градиент_1081-3);}.cls-24{fill:url(#Безымянный_градиент_762);}.cls-25{fill:url(#Безымянный_градиент_762-2);}.cls-26{fill:url(#Безымянный_градиент_201);}.cls-27{fill:url(#Безымянный_градиент_493);}.cls-28{fill:url(#Безымянный_градиент_140-2);}.cls-29{fill:url(#Новый_образец_градиента_копия_7-3);}.cls-30{fill:url(#Безымянный_градиент_160-2);}.cls-31{fill:#c1845b;}</style><linearGradient id="Безымянный_градиент_159" x1="43.91" y1="-12.87" x2="44.47" y2="144.05" gradientUnits="userSpaceOnUse"><stop offset="0.64" stop-color="#ffd7a5"/><stop offset="1" stop-color="#faa96c"/></linearGradient><linearGradient id="Безымянный_градиент_1081" x1="39.32" y1="3.65" x2="39.51" y2="54.23" gradientUnits="userSpaceOnUse"><stop offset="0" stop-color="#9d6545"/><stop offset="1" stop-color="#674137"/></linearGradient><linearGradient id="Новый_образец_градиента_копия" x1="85.63" y1="1.59" x2="75.79" y2="27.93" gradientUnits="userSpaceOnUse"><stop offset="0" stop-color="#faa478"/><stop offset="1" stop-color="#f7694d"/></linearGradient><linearGradient id="Новый_образец_градиента_копия-2" x1="52.33" y1="25.98" x2="73.84" y2="58.32" xlink:href="#Новый_образец_градиента_копия"/><linearGradient id="Безымянный_градиент_159-2" x1="799.18" y1="817.89" x2="793.8" y2="841.05" gradientTransform="matrix(0.99, 0.14, -0.14, 0.99, -588.81, -846.45)" xlink:href="#Безымянный_градиент_159"/><linearGradient id="Безымянный_градиент_738" x1="809.39" y1="822.83" x2="797.11" y2="826.93" gradientTransform="matrix(0.99, 0.14, -0.14, 0.99, -588.81, -846.45)" gradientUnits="userSpaceOnUse"><stop offset="0.64" stop-color="#fabb80"/><stop offset="1" stop-color="#faa16c"/></linearGradient><linearGradient id="Безымянный_градиент_159-3" x1="52" y1="70.48" x2="51.9" y2="44.24" xlink:href="#Безымянный_градиент_159"/><linearGradient id="Безымянный_градиент_159-4" x1="25.66" y1="70.85" x2="25.58" y2="47.35" xlink:href="#Безымянный_градиент_159"/><linearGradient id="Безымянный_градиент_54" x1="47.83" y1="64.68" x2="58.99" y2="64.68" gradientUnits="userSpaceOnUse"><stop offset="0" stop-color="#bf6545"/><stop offset="1" stop-color="#776125"/></linearGradient><linearGradient id="Безымянный_градиент_725" x1="-129.47" y1="-43.58" x2="-129.28" y2="-51.26" gradientTransform="translate(184.51 107.7) rotate(-2.18)" gradientUnits="userSpaceOnUse"><stop offset="0" stop-color="#ddf5f5" stop-opacity="0.4"/><stop offset="1" stop-color="#c6d9db" stop-opacity="0"/></linearGradient><clipPath id="clip-path"><path class="cls-1" d="M30.51,67.21c.86-9.34-8.46-16.19-10.27,0C22.23,72.19,28.35,72.81,30.51,67.21Z"/></clipPath><linearGradient id="Безымянный_градиент_54-2" x1="22.35" y1="64.68" x2="32.19" y2="64.68" xlink:href="#Безымянный_градиент_54"/><linearGradient id="Безымянный_градиент_725-2" x1="-155.58" y1="-45.09" x2="-155.41" y2="-51.87" xlink:href="#Безымянный_градиент_725"/><linearGradient id="Безымянный_градиент_1081-2" x1="27.69" y1="42.94" x2="25.96" y2="58.08" xlink:href="#Безымянный_градиент_1081"/><linearGradient id="Безымянный_градиент_140" x1="17.21" y1="58.35" x2="17.29" y2="74.55" gradientUnits="userSpaceOnUse"><stop offset="0" stop-color="#fff" stop-opacity="0"/><stop offset="1" stop-color="#e4e9eb"/></linearGradient><linearGradient id="Новый_образец_градиента_копия_7" x1="18.32" y1="53.75" x2="14.23" y2="73.98" gradientUnits="userSpaceOnUse"><stop offset="0" stop-color="#cf5555"/><stop offset="1" stop-color="#a64444"/></linearGradient><linearGradient id="Безымянный_градиент_160" x1="11776.56" y1="3866.09" x2="11780.28" y2="3874.07" gradientTransform="matrix(-0.61, 0.18, 0.33, 0.32, 5863.14, -3251.56)" gradientUnits="userSpaceOnUse"><stop offset="0" stop-color="#fff" stop-opacity="0.2"/><stop offset="1" stop-color="#fff"/></linearGradient><linearGradient id="Новый_образец_градиента_копия_7-2" x1="35.42" y1="57.15" x2="35.56" y2="67.82" xlink:href="#Новый_образец_градиента_копия_7"/><linearGradient id="Безымянный_градиент_1081-3" x1="52.04" y1="42.68" x2="50.21" y2="58.69" xlink:href="#Безымянный_градиент_1081"/><linearGradient id="Безымянный_градиент_762" x1="1281.34" y1="183.12" x2="1281.34" y2="188.47" gradientTransform="translate(-1220.96 -271.63) rotate(7.77)" gradientUnits="userSpaceOnUse"><stop offset="0" stop-color="#c3a19b"/><stop offset="0.23" stop-color="#c0a597"/><stop offset="0.46" stop-color="#b7af8b"/><stop offset="0.69" stop-color="#a7c176"/><stop offset="0.92" stop-color="#92d95a"/><stop offset="1" stop-color="#89e34f"/></linearGradient><linearGradient id="Безымянный_градиент_762-2" x1="31.47" y1="81.62" x2="31.47" y2="91.06" gradientTransform="matrix(1, 0, 0, 1, 0, 0)" xlink:href="#Безымянный_градиент_762"/><linearGradient id="Безымянный_градиент_201" x1="29.91" y1="63.24" x2="26.02" y2="83.58" gradientUnits="userSpaceOnUse"><stop offset="0.22" stop-color="#ffd7a5"/><stop offset="0.84" stop-color="#fa5763"/></linearGradient><radialGradient id="Безымянный_градиент_493" cx="34.46" cy="84.45" r="3.62" gradientUnits="userSpaceOnUse"><stop offset="0" stop-color="#fcffff" stop-opacity="0.4"/><stop offset="0.18" stop-color="#f8fef9" stop-opacity="0.42"/><stop offset="0.36" stop-color="#edfbe8" stop-opacity="0.48"/><stop offset="0.54" stop-color="#daf7cc" stop-opacity="0.58"/><stop offset="0.72" stop-color="#c0f0a3" stop-opacity="0.71"/><stop offset="0.9" stop-color="#9fe870" stop-opacity="0.89"/><stop offset="1" stop-color="#89e34f"/></radialGradient><linearGradient id="Безымянный_градиент_140-2" x1="10968.01" y1="58.23" x2="10968.09" y2="75.74" gradientTransform="matrix(-1, 0, 0, 1, 11023.21, 0)" xlink:href="#Безымянный_градиент_140"/><linearGradient id="Новый_образец_градиента_копия_7-3" x1="10969.21" y1="53.27" x2="10964.79" y2="75.11" gradientTransform="matrix(-1, 0, 0, 1, 11023.21, 0)" xlink:href="#Новый_образец_градиента_копия_7"/><linearGradient id="Безымянный_градиент_160-2" x1="12228.61" y1="7084.04" x2="12232.33" y2="7092.02" gradientTransform="matrix(-0.61, 0.18, 0.33, 0.32, 5099.69, -4363.89)" xlink:href="#Безымянный_градиент_160"/></defs><g id="Слой_2" data-name="Слой 2"><g id="Слой_2-2" data-name="Слой 2"><path class="cls-2" d="M52.24,16.33c-8.49,1.31-32.65,23.51-32.65,23.51s-1.31,28.81,0,36.61C11.75,85.51-4.43,91.86,19,124c13.57.23,46.94,9.26,62.61-71.71C67.91,17.64,52.24,16.33,52.24,16.33Z"/><path class="cls-3" d="M29.38,14.37c-1.3.65-3.91,8.49-1.3,11.76s9.79-5.88,7.83-8.49S29.38,14.37,29.38,14.37Z"/><path class="cls-4" d="M65.3,24.17A61.52,61.52,0,0,1,19.59,41.8v6.14C6.53,41.8,15,35.27,41.79,13.07,54.85,15.68,65.3,24.17,65.3,24.17Z"/><path class="cls-5" d="M52.89,9.8C58.12,5.23,74.44-3.26,79,1.31s8.49,7.84,11.1,5.88,5.88-3.27,11.76.65c4.86,3.24,9.79,6.53,6.53,11.76S99.23,28.54,98,32.66,92.73,50.29,86.85,52.9,52.89,9.8,52.89,9.8Z"/><path class="cls-6" d="M27.43,24.82c-2-3.92-3.27-8.49,0-11.1s11.75-9.8,17-9.8c11.76,0,55.51,39.18,42.45,55.51-3.27,3.92-9.4,10.92-9.4,10.92.26-12.88-37.06-48.59-42.84-51.41C28.08,15,26.12,21.55,27.43,24.82Z"/><path class="cls-7" d="M72.46,77.73c3.3-5.23,21.89-5.25,22.84,1.54S90.22,95.59,82.77,95.89,68,93.61,67.58,89.45,68.85,83.45,72.46,77.73Z"/><path class="cls-8" d="M78.31,82.1c3.92,3.25,3.26,8.63-2.57,8.54,7,2.47,12.21.64,15-4.7S81.55,80.53,78.31,82.1Z"/><path class="cls-9" d="M43.42,68.15c-3.17-6.41-3.6-22.55,0-23.57s16,2.6,18,6.2,2.61,13-.65,18S47,75.43,43.42,68.15Z"/><path class="cls-10" d="M30.76,71.18c1.62-1.66,1.89-12.41,1.89-15.67-3.53-2.43-11.1-5.22-12.41-3.26s-2.61,16.32-.65,18.93S28.21,73.79,30.76,71.18Z"/><path class="cls-11" d="M44.4,67.92c-1.3-9.8,12.81-17,15.55,0C56.94,73.14,47.67,73.79,44.4,67.92Z"/><circle class="cls-12" cx="53.41" cy="64.68" r="5.58"/><path class="cls-13" d="M58,64.5a4.6,4.6,0,1,1-4.77-4.41A4.6,4.6,0,0,1,58,64.5Z"/><circle class="cls-11" cx="49.23" cy="62.15" r="1.87"/><path class="cls-14" d="M44.4,67.92C43.1,54.2,59.83,51.59,60,67.92,57.46,56.82,46.36,54.86,44.4,67.92Z"/><path class="cls-11" d="M30.51,67.21c.86-9.34-8.46-16.19-10.27,0C22.23,72.19,28.35,72.81,30.51,67.21Z"/><g class="cls-15"><circle class="cls-16" cx="27.27" cy="64.68" r="4.92"/><path class="cls-17" d="M31.32,64.53a4.05,4.05,0,1,1-4.2-3.9A4,4,0,0,1,31.32,64.53Z"/><circle class="cls-11" cx="23.58" cy="62.44" r="1.65"/></g><path class="cls-14" d="M30.51,67.21c-1.78-11-9-11-10.27,0C20.24,50.29,32.65,57.47,30.51,67.21Z"/><path class="cls-18" d="M32.65,52.25a5.6,5.6,0,0,1,0,4.57C26.77,58.12,20.9,49,19.59,54.2,20.9,45.72,24.16,54.86,32.65,52.25Z"/><path class="cls-19" d="M31.32,60.87C20.85,59,10.27,61.23,3,64c5,11.13,14.07,12.73,21.15,10.58S31.77,64.41,31.32,60.87Z"/><path class="cls-20" d="M32.51,59.12c-12-2.38-24.19.45-32.51,4C5.76,77.25,16.18,79.28,24.32,76.54S33,63.61,32.51,59.12ZM24.19,74.59C17.11,76.74,8.05,75.14,3,64c7.23-2.78,17.81-5,28.28-3.14C31.77,64.41,31.27,72.43,24.19,74.59Z"/><ellipse class="cls-21" cx="11.84" cy="65.12" rx="5.97" ry="1.88" transform="translate(-12.03 3.39) rotate(-10.83)"/><path class="cls-22" d="M32,59.43c2-1.31,6.55-.66,7.19-.33,0,1.31,0,1.59,0,1.59-3.93-.61-5.89-.61-7.19,0A.89.89,0,0,1,32,59.43Z"/><path class="cls-23" d="M41.79,42.45c-1.3,2-1.82,6.4-.91,6.79,3.13-.52,6.91-4.92,21.22,2.64-.13-2.53-2.19-6.82-17.78-9.43-1.14.65-1.85,2.88-1.85,2.88l.78-2.88Z"/><path class="cls-24" d="M27.6,84.62c-2.75,0-1,3.86-3.77,3.86s0-2.75-4.13-4.13C22.89,82.58,27.08,83.08,27.6,84.62Z"/><path class="cls-25" d="M36,84c-4.13,1.38.62,7.06-3.51,7.06-5.25,0,0-6.88-5.51-6.88C32.2,80.24,34.67,81.38,36,84Z"/><path class="cls-26" d="M37.22,62c2.07,0,6.55,18.53,1.64,21s-25.52,3.6-26.31-1.85S30,72.49,32,68.57,32.65,62,37.22,62Z"/><circle class="cls-27" cx="35.43" cy="84.88" r="2.86"/><path class="cls-28" d="M40,61c11.31-2,22.73.39,30.55,3.39C65.1,76.38,55.3,78.1,47.66,75.77S39.48,64.78,40,61Z"/><path class="cls-29" d="M47.53,77.89c8.78,3,20,.76,26.26-14.51-9-3.82-22.12-6.88-35.11-4.31C38.12,63.92,38.74,74.93,47.53,77.89ZM40,61c11.31-2,22.73.39,30.55,3.39C65.1,76.38,55.3,78.1,47.66,75.77S39.48,64.78,40,61Z"/><ellipse class="cls-30" cx="47.76" cy="63.81" rx="5.97" ry="1.88"/><path class="cls-31" d="M42.44,94c-12.4-3.27-21.54-4.57-26.77-2,2.61,5.87,3.27,7.83,2.61,11.1,1.31-1.31.66-9.8.66-9.8C27.43,92.08,35.91,94,42.44,94Z"/></g></g></svg>