<svg xmlns="http://www.w3.org/2000/svg" xmlns:xlink="http://www.w3.org/1999/xlink" width="154.302" height="122.75" ><defs><linearGradient id="A" x1=".962" y1="-.172" x2=".593" y2=".384"><stop offset="0" stop-color="#9d6545"/><stop offset="1" stop-color="#4d1f1d"/></linearGradient><linearGradient id="B" x1=".709" y1=".203" x2=".175" y2="1.036"><stop offset=".641" stop-color="#ffd7a5"/><stop offset="1" stop-color="#faa96c"/></linearGradient><linearGradient id="C" x1=".297" y1="-.104" x2=".767" y2=".888" xlink:href="#A"/><linearGradient id="D" x1=".518" y1="1.117" x2=".495" y2=".442" xlink:href="#B"/><linearGradient id="E" x1=".54" y1="1.166" x2=".49" y2=".338" xlink:href="#B"/><linearGradient id="F" x1="1.015" y1=".133" x2="-.228" y2=".871" xlink:href="#B"/><clipPath id="G"><path d="M1655.042 301.067c-3.875-13.176-10.851-13.952-12.138-2.5 1.287 5.602 5.938 8.702 12.138 2.5z" transform="translate(-1642.904 -290.54)" fill="none"/></clipPath><linearGradient id="H" y1=".5" x2="1" y2=".5"><stop offset="0" stop-color="#b57b8d"/><stop offset=".996" stop-color="#634b8d"/></linearGradient><linearGradient id="I" x1="39.633" y1="-11.938" x2="39.654" y2="-12.774"><stop offset="0" stop-color="#ddf5f5" stop-opacity=".4"/><stop offset="1" stop-color="#c6d9db" stop-opacity="0"/></linearGradient><linearGradient id="J" x1="1.082" y1="-.136" x2=".314" y2=".661" xlink:href="#B"/><linearGradient id="K" x1=".701" y1="-.187" x2=".479" y2=".793"><stop offset=".641" stop-color="#fabb80"/><stop offset="1" stop-color="#faa16c"/></linearGradient><linearGradient id="L" x1="36.658" y1="-10.844" x2="36.68" y2="-11.68" xlink:href="#I"/><linearGradient id="M" x1=".597" y1="-.042" x2=".391" y2="1.305"><stop offset="0" stop-color="#9d6545"/><stop offset="1" stop-color="#674137"/></linearGradient><linearGradient id="N" x1=".9" y1="-1.129" x2=".443" y2=".969" xlink:href="#M"/><linearGradient id="O" x1="-.031" y1=".378" x2=".829" y2=".736"><stop offset="0" stop-color="#edafa7"/><stop offset="1" stop-color="#c07171"/></linearGradient><linearGradient id="P" x1=".477" y1="-.31" x2=".614" y2="4.562"><stop offset="0" stop-color="#d993bf"/><stop offset="1" stop-color="#ed5b89"/></linearGradient><linearGradient id="Q" x1=".488" y1="-.249" x2=".539" y2="4.121" xlink:href="#P"/><linearGradient id="R" x1=".483" y1="-.593" x2=".537" y2="4.037" xlink:href="#P"/><linearGradient id="S" x1=".475" y1="-1.397" x2=".552" y2="4.5" xlink:href="#P"/><linearGradient id="T" x1=".478" y1="-.839" x2=".581" y2="5.499" xlink:href="#P"/><linearGradient id="U" x1=".471" y1="-1.5" x2=".551" y2="4.817" xlink:href="#P"/><linearGradient id="V" x1=".465" y1="-3.141" x2=".526" y2="2.668" xlink:href="#P"/><linearGradient id="W" y1="-3.516" x2=".533" y2="5.744" xlink:href="#P"/><linearGradient id="X" x1=".446" y1="-3.712" x2=".514" y2="1.997" xlink:href="#P"/><linearGradient id="Y" x1=".462" y1="-3.478" x2=".53" y2="3.644" xlink:href="#P"/><linearGradient id="Z" x1=".468" y1="-5.275" x2=".532" y2="6.295" xlink:href="#P"/><linearGradient id="a" x1=".451" y1="-2.778" x2=".524" y2="2.095" xlink:href="#P"/><linearGradient id="b" x1=".356" y1="-1.937" x2=".575" y2="1.766" xlink:href="#P"/><linearGradient id="c" x1=".449" y1="-3.532" x2=".522" y2="2.254" xlink:href="#P"/><linearGradient id="d" x1=".438" y1="-7.321" x2=".529" y2="4.252" xlink:href="#P"/><linearGradient id="e" x1=".479" y1="-3.289" x2=".536" y2="6.995" xlink:href="#P"/><linearGradient id="f" x1=".464" y1="-3.42" x2=".542" y2="4.995" xlink:href="#P"/><linearGradient id="g" x1=".461" y1="-4.76" x2=".529" y2="4.498" xlink:href="#P"/><linearGradient id="h" x1=".448" y1="-4.301" x2=".532" y2="3.414" xlink:href="#P"/><linearGradient id="i" x1=".476" y1="-8.326" x2=".526" y2="10.191" xlink:href="#P"/><linearGradient id="j" x1=".469" y1="-.292" x2=".652" y2="4.449" xlink:href="#P"/><linearGradient id="k" x1=".489" y1="-.2" x2=".54" y2="3.959" xlink:href="#P"/><linearGradient id="l" x1=".484" y1="-.499" x2=".538" y2="3.969" xlink:href="#P"/><linearGradient id="m" x1=".474" y1="-1.144" x2=".56" y2="4.274" xlink:href="#P"/><linearGradient id="n" x1=".48" y1="-1.107" x2=".567" y2="5.77" xlink:href="#P"/><linearGradient id="o" x1=".476" y1="-1.71" x2=".552" y2="4.61" xlink:href="#P"/><linearGradient id="p" x1=".466" y1="-2.796" x2=".528" y2="2.725" xlink:href="#P"/><linearGradient id="q" x1=".478" y1="-2.964" x2=".535" y2="5.674" xlink:href="#P"/><linearGradient id="r" x1=".448" y1="-3.626" x2=".514" y2="1.93" xlink:href="#P"/><linearGradient id="s" x1=".467" y1="-3.974" x2=".528" y2="4.326" xlink:href="#P"/><linearGradient id="t" x1=".471" y1="-6.819" x2=".531" y2="8.446" xlink:href="#P"/><linearGradient id="u" x1=".459" y1="-3.047" x2=".521" y2="2.325" xlink:href="#P"/><linearGradient id="v" x1=".412" y1="-1.986" x2=".545" y2="1.788" xlink:href="#P"/><linearGradient id="w" x1=".443" y1="-3.24" x2=".524" y2="2.05" xlink:href="#P"/><linearGradient id="x" x1=".435" y1="-6.481" x2=".529" y2="3.615" xlink:href="#P"/><linearGradient id="y" x1=".479" y1="-4.83" x2=".533" y2="8.815" xlink:href="#P"/><linearGradient id="z" x1=".459" y1="-3.148" x2=".542" y2="4.311" xlink:href="#P"/><linearGradient id="AA" x1=".458" y1="-4.158" x2=".529" y2="3.76" xlink:href="#P"/><linearGradient id="AB" x1=".442" y1="-3.983" x2=".532" y2="2.994" xlink:href="#P"/><linearGradient id="AC" x1=".476" y1="-12.416" x2=".524" y2="13.426" xlink:href="#P"/><linearGradient id="AD" x1=".489" y1="-.235" x2=".513" y2="1.37" xlink:href="#P"/><linearGradient id="AE" x1=".522" y1=".176" x2=".47" y2=".927"><stop offset="0" stop-color="#737d83"/><stop offset="1" stop-color="#2b292b"/></linearGradient><linearGradient id="AF" x1=".513" y1=".47" x2=".598" y2=".113" xlink:href="#AE"/></defs><path d="M105.122 29.31c-4.651-17.829 24.3-38.989 34.106-19.38 4.651 9.3.775 13.178 3.876 20.154s13.178 6.978 10.853 21.7-21.705 24.8-35.657 8.527-13.178-31.001-13.178-31.001z" fill="url(#A)"/><path d="M99.695 27.759c15.474 10.388 28.681 55.811-16.278 79.067s-57.362 15.5-61.237 10.852-30.5-27.21-4.009-43.061C13.784 45.24 43.109-10.224 99.695 27.759z" fill="url(#B)"/><path d="M112.098 44.039c6.976-19.38-10.853-46.51-110.072-36.434-7.752 17.054 8.015 37.208 25.712 36.434s52.579-22.479 61.88-10.852-14.729 16.278-5.427 42.633c1.551-9.3 17.054-19.379 20.93-7.752s-22.48 21.7-20.154 31.006 19.378.776 19.378.776c9.304-19.383 37.209-47.283 7.753-55.811z" fill="url(#C)"/><path d="M39.908 73.807c-2.245-2.952-.1-16.389 0-16.877s23.355-24.521 29.556-12.892 1.3 23.516-2.838 27.261-22.94 7.472-26.718 2.508z" fill="url(#D)"/><path d="M29.931 75.045c1.551-1.551 2.358-13.784 1.566-16.194s-8.047-14.18-12.17-10.233-3.842 19.066-2.044 21.584 7.997 9.494 12.648 4.843z" fill="url(#E)"/><path d="M88.068 77.37c-2.325-9.3 8.527-27.132 22.479-17.829S96.595 92.873 89.618 88.22s-1.55-10.85-1.55-10.85z" fill="url(#F)"/><path d="M30.706 70.393c-3.875-13.176-10.851-13.952-12.138-2.5 1.287 5.602 5.938 8.702 12.138 2.5z" fill="#fff"/><g clip-path="url(#G)" transform="translate(18.568 59.866)"><circle cx="9.03" cy="7.081" r="5.751" fill="url(#H)"/><path d="M13.762 6.901c.073 1.914-1.014 3.684-2.755 4.484s-3.792.473-5.197-.829-1.888-3.322-1.223-5.118 2.347-3.015 4.261-3.088c1.255-.048 2.478.404 3.4 1.258s1.466 2.039 1.513 3.294z" fill="url(#I)"/><circle cx="4.717" cy="4.469" r="1.928" fill="#fff"/></g><path d="M30.706 70.393c-3.1-19.378-12.649-13.537-12.138-2.5 1.023-5.071 5.162-13.778 12.138 2.5z" fill="#283547"/><path d="M91.17 73.495c6.2-2.325 10.076 3.1 6.976 6.976 10.853-7.751 10.853-13.178 7.751-16.278s-11.627-.776-14.727 9.302z" fill="url(#J)"/><path d="M34.582 64.967c-3.1 3.876-17.053 11.627-23.254 12.4 3.875 4.651 19.378 6.976 24.029 3.1s-.775-15.5-.775-15.5z" fill="url(#K)"/><path d="M41.393 71.692c.941-10.6 11.018-14.475 26.521-9.824-.775 5.425-3.433 14.999-26.521 9.824z" fill="#fff"/><circle cx="56.801" cy="65.075" r="6.224" fill="url(#H)"/><path d="M61.923 64.881c.107 2.829-2.099 5.209-4.928 5.317s-5.209-2.098-5.317-4.927 2.098-5.209 4.927-5.317a5.13 5.13 0 0 1 5.318 4.928z" fill="url(#L)"/><circle cx="52.134" cy="62.249" r="2.087" fill="#fff"/><path d="M41.558 71.169c1.551-16.278 18.6-17.829 26.356-9.3-10.077-2.323-20.929-4.653-26.356 9.3z" fill="#283547"/><path d="M39.233 53.34c-2.561 2.337-3.1 7.283 2.325 5.19s18.263-26.025 28.511-13.282c-5.085-9.397-13.008-8.188-30.836 8.092z" fill="url(#M)"/><path d="M31.482 54.891c-1.1-3.289-11.219-16.263-14.136-2.705 2.691-4.668 6.4-5.783 8.709 1.154 1.551 4.651 3.57 5.425 5.427 5.425.778.001.778-1.548 0-3.874z" fill="url(#N)"/><path d="M22.094 96.456c-8.279-8.28-3.79-13.663 3.187-9.787s17.35 10.6 21.078 10.34c-11.925 8.003-27.385 4.13-24.265-.553z" fill="url(#O)"/><path d="M96.106 58.936a1.09 1.09 0 0 1-1.044-.768L91.416 46.5c-.116-.373-.025-.779.239-1.067s.662-.412 1.044-.326.688.368.804.741l3.646 11.668c.18.577-.142 1.19-.718 1.37a1.13 1.13 0 0 1-.325.05z" fill="url(#P)"/><path d="M94.361 60.165c-1.215 0-4.4-1.132-14.124-4.92-.563-.219-.841-.853-.622-1.415s.853-.841 1.415-.622l10.238 3.835c-1.824-3.497-3.358-7.137-4.586-10.885-.186-.571.122-1.185.691-1.377s1.186.11 1.384.677c1.547 4.6 4.387 11.511 5.853 12.448 1.008.643.785 1.367.64 1.65a.84.84 0 0 1-.889.61zm-.854-.363h0z" fill="url(#Q)"/><path d="M87.555 64.148c-.945 0-2.378-.075-4.6-.245-5.815-.448-6.625-.923-6.893-1.079-.487-.319-.639-.963-.346-1.466s.929-.688 1.446-.422c.916.434 7.073.936 9.906 1.011l-.512-1.6c-.7-2.216-2.571-8.107-3.628-8.7-.548-.254-.786-.905-.532-1.453s.905-.786 1.453-.532c1.6.735 2.869 3.951 4.792 10.02.312.984.659 2.084.833 2.492l.662.478-.553.906c-.221.358-.375.59-2.028.59z" fill="url(#R)"/><path d="M87.457 68.353a1.09 1.09 0 0 1-.824-.373l-8.122-9.262c-.383-.456-.332-1.134.116-1.527s1.128-.355 1.529.085l8.124 9.262c.283.323.351.782.174 1.173s-.567.642-.997.642z" fill="url(#S)"/><path d="M104.738 60.219c-.382-.002-.735-.202-.933-.529s-.211-.733-.034-1.071c.5-.945 5.131-7.79 5.658-8.568.339-.5 1.019-.631 1.519-.292s.631 1.019.293 1.519l-5.533 8.359a1.1 1.1 0 0 1-.97.582z" fill="url(#T)"/><path d="M113.969 67.322a14.6 14.6 0 0 1-8.181-3.435l-.681-.56.4-.785c1.387-2.695 6.818-5.482 7.432-5.791.536-.248 1.172-.026 1.437.501s.064 1.171-.455 1.453a23.84 23.84 0 0 0-5.943 4.108 12.34 12.34 0 0 0 5.987 2.322c.391 0 .752.209.947.547s.195.756 0 1.094-.557.547-.947.547z" fill="url(#U)"/><path d="M81.015 89.067c-.565-.003-1.034-.435-1.084-.998s.337-1.07.892-1.172c1.078-.46 4.333-4.312 4.708-5.737a44.82 44.82 0 0 0-9.667-1.527c-.604-.007-1.089-.502-1.082-1.106s.502-1.089 1.106-1.082h.024a47.53 47.53 0 0 1 10.519 1.69 1.76 1.76 0 0 1 1.314 1.965c-.186 2.269-4.763 7.775-6.619 7.962-.038.003-.075.005-.111.005zm-.22-2.16zm.113-.022h0zm4.953-5.637h0z" fill="url(#V)"/><path d="M78.109 73.884c-.391 0-.752-.209-.947-.547s-.195-.756 0-1.094.557-.547.947-.547c2.005-.473 3.957-1.145 5.829-2.005-3.296-.614-6.642-.92-9.995-.914-.596.033-1.109-.418-1.152-1.013s.4-1.116.994-1.169c.105-.01 11.986-.046 12.979 2.359.185.47.121 1.001-.172 1.413-1.156 1.734-7.802 3.517-8.483 3.517zm6.8-3.849z" fill="url(#W)"/><path d="M100.115 96.499a1.08 1.08 0 0 1-.49-.117c-.54-.272-.757-.929-.485-1.469.267-1-1.1-5.854-2.067-7.615l-.718.814c-1.127 1.272-4.523 5.109-4.615 6.241.212.54-.035 1.152-.562 1.394s-1.152.031-1.423-.482c-.844-1.6.928-4.048 4.962-8.6l1.22-1.415a1.42 1.42 0 0 1 1.931-.335c1.74 1.093 4.121 9.2 3.226 10.985a1.1 1.1 0 0 1-.979.599zm-8.377-2.1z" fill="url(#X)"/><path d="M78.971 83.365c-.469.001-.886-.297-1.037-.741s-.003-.934.368-1.22l9.48-7.291c.308-.253.73-.318 1.1-.17s.63.486.679.882-.122.787-.445 1.02l-9.48 7.293a1.09 1.09 0 0 1-.665.226z" fill="url(#Y)"/><path d="M78.24 77.533c-.533.002-.99-.382-1.081-.907s.21-1.04.712-1.218l10.211-3.646c.563-.184 1.171.114 1.37.672s-.082 1.173-.635 1.388l-10.209 3.646c-.118.042-.243.064-.368.065z" fill="url(#Z)"/><path d="M84.198 93.197c-.415.001-.794-.233-.979-.604s-.145-.815.104-1.146l8.752-11.668c.232-.319.618-.488 1.01-.442s.729.298.882.662.099.781-.142 1.093L85.073 92.76a1.09 1.09 0 0 1-.875.437z" fill="url(#a)"/><path d="M95.744 94.303a.96.96 0 0 1-.1-.005c-.289-.026-.556-.166-.742-.389s-.276-.51-.249-.799l1.457-16.043c.055-.602.588-1.045 1.189-.99s1.045.588.99 1.19L96.832 93.31a1.1 1.1 0 0 1-1.088.993z" fill="url(#b)"/><path d="M106.679 93.575a1.09 1.09 0 0 1-.8-.352l-8.752-9.48c-.41-.444-.382-1.136.062-1.546s1.136-.382 1.546.062l8.752 9.48a1.1 1.1 0 0 1-.805 1.837z" fill="url(#c)"/><path d="M108.867 89.199a1.09 1.09 0 0 1-.531-.138l-6.562-3.646c-.353-.184-.579-.544-.589-.943s.196-.77.54-.972.769-.201 1.112.002l6.563 3.646c.437.241.655.748.53 1.231s-.562.82-1.061.819z" fill="url(#d)"/><path d="M102.305 68.78c-.53.002-.985-.377-1.079-.899s.199-1.036.696-1.219l11.668-4.377c.566-.212 1.196.076 1.408.642s-.076 1.196-.642 1.408L102.69 68.71c-.123.046-.254.07-.385.07z" fill="url(#e)"/><path d="M113.242 76.073c-.231 0-.456-.073-.642-.209l-8.021-5.834c-.471-.361-.568-1.031-.22-1.511s1.016-.595 1.505-.259l8.021 5.834c.383.279.543.773.396 1.224s-.567.756-1.04.756z" fill="url(#f)"/><path d="M112.513 82.636c-.181 0-.358-.045-.517-.131l-9.48-5.1c-.532-.286-.731-.95-.445-1.482s.95-.731 1.482-.445l9.48 5.105c.44.238.662.745.54 1.23s-.558.825-1.059.826z" fill="url(#g)"/><path d="M111.784 87.015c-.27.001-.532-.099-.732-.281l-7.293-6.563c-.293-.261-.424-.659-.343-1.043s.361-.695.735-.816.783-.032 1.073.233l7.293 6.563c.337.303.452.782.289 1.205s-.568.702-1.021.702z" fill="url(#h)"/><path d="M102.304 74.614c-.582-.001-1.061-.457-1.091-1.037s.4-1.084.978-1.145l13.855-1.457c.391-.044.775.124 1.007.442s.276.735.115 1.094-.502.603-.894.641l-13.855 1.457c-.038.004-.077.007-.115.006z" fill="url(#i)"/><path d="M92.204 59.191a1.11 1.11 0 0 0 .958-.9l2.1-12.054a1.1 1.1 0 0 0-.923-1.26c-.607-.108-1.187.294-1.3.9l-2.1 12.054a1.1 1.1 0 0 0 .923 1.26 1.21 1.21 0 0 0 .342 0z" fill="url(#j)"/><path d="M93.165 59.69c-.186-.259-.516-.947.424-1.721 1.367-1.125 3.3-8.352 4.244-13.123.128-.601.715-.988 1.318-.868a1.1 1.1 0 0 1 .9 1.28 70.04 70.04 0 0 1-3.167 11.4c2.564-1.277 6.381-3.277 9.918-5.184a1.15 1.15 0 0 1 1.532.426 1.08 1.08 0 0 1-.439 1.488c-9.4 5.064-12.493 6.619-13.734 6.782a.87.87 0 0 1-.996-.48zm1.806.008h0z" fill="url(#k)"/><path d="M101.657 63.204c.965-.128 2.419-.395 4.659-.863 5.875-1.229 6.637-1.81 6.888-2 .234-.175.387-.437.423-.727s-.047-.582-.231-.809a1.15 1.15 0 0 0-1.583-.186c-.873.553-7.09 1.881-9.972 2.339l.3-1.653c.41-2.291 1.5-8.379 2.494-9.106.25-.151.427-.397.492-.681s.01-.583-.15-.827a1.15 1.15 0 0 0-1.557-.335c-1.531.947-2.38 4.3-3.5 10.577l-.5 2.581-.609.565.691.822c.283.314.467.521 2.155.303z" fill="url(#l)"/><path d="M102.346 67.353a1.13 1.13 0 0 0 .788-.48l7-10.274c.165-.242.224-.54.164-.826s-.234-.536-.481-.691a1.15 1.15 0 0 0-1.563.31l-7 10.274c-.164.241-.223.539-.163.825s.234.535.481.69a1.15 1.15 0 0 0 .774.172z" fill="url(#m)"/><path d="M83.572 61.626a1.15 1.15 0 0 0 .5-.192c.242-.163.407-.418.457-.706s-.02-.583-.193-.819c-.638-.87-6.323-7.027-6.968-7.727a1.15 1.15 0 0 0-1.592-.083 1.07 1.07 0 0 0-.087 1.544l6.811 7.536a1.14 1.14 0 0 0 1.072.447z" fill="url(#n)"/><path d="M75.132 69.913c3.023-.665 5.771-2.238 7.875-4.509l.616-.647-.521-.722c-1.791-2.484-7.722-4.513-8.392-4.736-.583-.198-1.218.104-1.432.681a1.09 1.09 0 0 0 .7 1.389 24.91 24.91 0 0 1 6.637 3.267 12.84 12.84 0 0 1-5.788 3.108 1.1 1.1 0 0 0-.965 1.232 1.12 1.12 0 0 0 1.27.937z" fill="url(#o)"/><path d="M111.687 87.017c-1.92.066-7.359-4.77-7.865-6.993-.253-.879.213-1.805 1.069-2.126 3.377-1.412 6.898-2.45 10.5-3.095h.026a1.12 1.12 0 0 1 1.265.912 1.1 1.1 0 0 1-.936 1.253 47.11 47.11 0 0 0-9.656 2.817c.582 1.362 4.441 4.738 5.6 5.049a1.09 1.09 0 0 1 1.082 1.038 1.09 1.09 0 0 1-.976 1.138l-.109.007zm.038-2.179zm-.116-.007h0zm-5.849-4.916h.007z" fill="url(#p)"/><path d="M103.506 69.233c-.355-.362-.496-.883-.371-1.375.677-2.518 12.81-4.087 12.919-4.091.398-.04.786.141 1.012.471s.254.757.074 1.113-.541.587-.941.6a57 57 0 0 0-10.078 2.256 32.94 32.94 0 0 0 6.231 1.2 1.12 1.12 0 0 1 1.268.936 1.1 1.1 0 0 1-.964 1.232c-.695.089-7.729-.786-9.15-2.342zm1.668-.555z" fill="url(#q)"/><path d="M92.254 96.486c-1.161-1.643.141-10 1.765-11.321a1.5 1.5 0 0 1 2.018.073c.265.254.81.708 1.444 1.236 4.751 3.97 6.9 6.156 6.263 7.855-.225.573-.866.862-1.445.652-.535-.18-.843-.741-.708-1.289-.252-1.108-4.254-4.45-5.58-5.56l-.846-.708c-.742 1.874-1.462 6.867-1.05 7.824.169.238.233.535.178.822s-.224.539-.469.698a1.15 1.15 0 0 1-1.568-.283zm9.343-2.748z" fill="url(#r)"/><path d="M113.096 81.082c.344-.043.649-.242.827-.54.148-.252.188-.554.109-.835s-.269-.519-.526-.658l-10.692-5.946c-.538-.301-1.218-.122-1.539.405-.148.252-.188.554-.109.835s.269.519.526.658l10.693 5.946a1.15 1.15 0 0 0 .711.135z" fill="url(#s)"/><path d="M113.029 75.203c.467-.057.848-.401.952-.86a1.1 1.1 0 0 0-.87-1.3L102.18 70.81c-.601-.131-1.196.245-1.335.844-.06.288-.002.588.162.833s.419.413.708.467l10.929 2.235c.127.026.257.031.385.014z" fill="url(#t)"/><path d="M109.128 91.53a1.13 1.13 0 0 0 .638-.306 1.07 1.07 0 0 0 .01-1.546L99.22 79.299c-.444-.433-1.151-.437-1.6-.01a1.07 1.07 0 0 0-.01 1.546l10.556 10.379a1.15 1.15 0 0 0 .962.316z" fill="url(#u)"/><path d="M97.495 94.184c.034 0 .068-.01.1-.017a1.1 1.1 0 0 0 .846-1.311l-3.721-15.7c-.15-.597-.753-.963-1.352-.821-.287.06-.538.232-.697.479s-.212.546-.147.832l3.72 15.7c.141.558.681.92 1.251.838z" fill="url(#v)"/><path d="M86.229 94.934c.309-.039.588-.204.771-.456l7.615-10.575c.171-.237.238-.534.185-.821s-.22-.541-.463-.703a1.15 1.15 0 0 0-1.571.271l-7.613 10.575a1.07 1.07 0 0 0 .278 1.522c.234.159.518.226.798.187z" fill="url(#w)"/><path d="M83.387 90.899a1.13 1.13 0 0 0 .523-.208l6.192-4.5a1.07 1.07 0 0 0 .228-1.53 1.15 1.15 0 0 0-1.578-.221l-6.193 4.5c-.238.169-.397.429-.44.718s.034.583.213.814c.251.32.652.482 1.055.427z" fill="url(#x)"/><path d="M87.246 69.779c.46-.056.837-.391.947-.841a1.09 1.09 0 0 0-.85-1.309l-12.519-2.76c-.599-.14-1.199.227-1.348.824-.064.286-.009.586.15.832s.411.418.699.477l12.521 2.76a1.14 1.14 0 0 0 .4.017z" fill="url(#y)"/><path d="M77.095 78.483a1.13 1.13 0 0 0 .626-.294l7.378-6.864a1.07 1.07 0 0 0 .034-1.546 1.15 1.15 0 0 0-1.594-.032l-7.376 6.864a1.07 1.07 0 0 0-.034 1.546c.253.254.611.375.966.326z" fill="url(#z)"/><path d="M78.753 84.89c.184-.024.359-.093.51-.2l8.966-6.338a1.07 1.07 0 0 0 .249-1.527 1.15 1.15 0 0 0-1.574-.242l-8.968 6.338c-.24.166-.402.424-.449.712s.026.583.202.817c.25.327.656.496 1.064.44z" fill="url(#AA)"/><path d="M80.104 89.125c.274-.034.526-.168.708-.376l6.532-7.489a1.07 1.07 0 0 0-.133-1.541 1.15 1.15 0 0 0-1.588.128l-6.53 7.489a1.07 1.07 0 0 0 .131 1.541c.246.201.565.291.88.248z" fill="url(#AB)"/><path d="M88.059 75.561c.587-.068 1.013-.591.963-1.179s-.56-1.031-1.15-.998l-14.347.426c-.399.001-.765.218-.957.567s-.179.775.035 1.112.593.531.99.507l14.347-.426a.9.9 0 0 0 .119-.009z" fill="url(#AC)"/><ellipse cx="95.741" cy="71.697" rx="16.408" ry="21.036" fill="url(#AD)"/><ellipse cx="100.117" cy="68.051" rx="7.657" ry="11.668" fill="url(#AE)"/><path d="M61.523 6.258c19.071-22.9 43.333 21.684 43.333 58.876-3.646 5.105-6.811 2.239-6.687.39 0-24.025-19.136-74.365-33.175-58.767a11.47 11.47 0 0 1-3.471-.499z" fill="url(#AF)"/></svg>
