<svg xmlns="http://www.w3.org/2000/svg" xmlns:xlink="http://www.w3.org/1999/xlink" viewBox="0 0 187.3 169.85"><defs><style>.cls-1,.cls-30,.cls-32{fill:none;}.cls-2{fill:url(#Безымянный_градиент_963);}.cls-3{fill:url(#Безымянный_градиент_651);}.cls-4{fill:url(#Безымянный_градиент_1136);}.cls-5{fill:url(#Безымянный_градиент_469);}.cls-6{fill:url(#Безымянный_градиент_1148);}.cls-7{fill:url(#Безымянный_градиент_159);}.cls-8{fill:url(#Безымянный_градиент_159-2);}.cls-9{fill:url(#Безымянный_градиент_762);}.cls-10{fill:url(#Безымянный_градиент_762-2);}.cls-11{fill:url(#Безымянный_градиент_201);}.cls-12{fill:url(#Безымянный_градиент_493);}.cls-13{fill:url(#Безымянный_градиент_1148-2);}.cls-14{fill:url(#Безымянный_градиент_1148-3);}.cls-15{fill:#fff;}.cls-16{clip-path:url(#clip-path);}.cls-17{fill:url(#Новый_образец_градиента_копия_2);}.cls-18{fill:url(#Безымянный_градиент_725);}.cls-19{fill:#472c20;}.cls-20{clip-path:url(#clip-path-2);}.cls-21{fill:url(#Новый_образец_градиента_копия_2-2);}.cls-22{fill:url(#Безымянный_градиент_725-2);}.cls-23{fill:url(#Новый_образец_градиента_копия_7);}.cls-24{fill:#db9a6a;}.cls-25{fill:url(#Безымянный_градиент_159-3);}.cls-26{fill:url(#Безымянный_градиент_738);}.cls-27{fill:url(#Безымянный_градиент_622);}.cls-28{fill:url(#Безымянный_градиент_622-2);}.cls-29{fill:url(#Безымянный_градиент_963-2);}.cls-30,.cls-32{stroke:#835f6f;stroke-linecap:round;stroke-miterlimit:10;}.cls-30{stroke-width:1.3px;}.cls-31{fill:url(#Безымянный_градиент_963-3);}.cls-32{stroke-width:1.31px;}.cls-33{fill:url(#Безымянный_градиент_963-4);}.cls-34{fill:url(#Безымянный_градиент_963-5);}.cls-35{fill:url(#Безымянный_градиент_963-6);}.cls-36{fill:url(#Безымянный_градиент_651-2);}.cls-37{fill:url(#Безымянный_градиент_651-3);}.cls-38{fill:url(#Безымянный_градиент_1136-2);}.cls-39{fill:url(#Безымянный_градиент_469-2);}.cls-40{fill:url(#Безымянный_градиент_469-3);}</style><linearGradient id="Безымянный_градиент_963" x1="13.86" y1="65" x2="68.88" y2="65.16" gradientUnits="userSpaceOnUse"><stop offset="0" stop-color="#b5accf"/><stop offset="1" stop-color="#835f6f"/></linearGradient><linearGradient id="Безымянный_градиент_651" x1="39.97" y1="57.36" x2="9.22" y2="31.62" gradientUnits="userSpaceOnUse"><stop offset="0" stop-color="#ddf5f5" stop-opacity="0"/><stop offset="1" stop-color="#fff" stop-opacity="0.2"/></linearGradient><radialGradient id="Безымянный_градиент_1136" cx="84.26" cy="147.87" r="15.09" gradientUnits="userSpaceOnUse"><stop offset="0" stop-color="#e46da7"/><stop offset="0.2" stop-color="#dd6296"/><stop offset="0.58" stop-color="#ca446a"/><stop offset="0.89" stop-color="#b92a43"/></radialGradient><linearGradient id="Безымянный_градиент_469" x1="-1333.27" y1="809.05" x2="-1330.08" y2="815.89" gradientTransform="matrix(-0.18, 0.48, 0.1, 0.88, -235.15, 91.84)" gradientUnits="userSpaceOnUse"><stop offset="0" stop-color="#fff" stop-opacity="0"/><stop offset="1" stop-color="#fff" stop-opacity="0.6"/></linearGradient><linearGradient id="Безымянный_градиент_1148" x1="107.69" y1="71.31" x2="89.98" y2="178.61" gradientUnits="userSpaceOnUse"><stop offset="0.63" stop-color="#ffd7a5"/><stop offset="1" stop-color="#faa96c"/></linearGradient><linearGradient id="Безымянный_градиент_159" x1="95.64" y1="91.2" x2="95.47" y2="75.86" gradientUnits="userSpaceOnUse"><stop offset="0.64" stop-color="#ffd7a5"/><stop offset="1" stop-color="#faa96c"/></linearGradient><linearGradient id="Безымянный_градиент_159-2" x1="96.73" y1="98.6" x2="95.06" y2="83.6" xlink:href="#Безымянный_градиент_159"/><linearGradient id="Безымянный_градиент_762" x1="427.99" y1="302.06" x2="427.99" y2="305.46" gradientTransform="translate(-305.12 -226.05) rotate(7.77)" gradientUnits="userSpaceOnUse"><stop offset="0" stop-color="#c3a19b"/><stop offset="0.23" stop-color="#c0a597"/><stop offset="0.46" stop-color="#b7af8b"/><stop offset="0.69" stop-color="#a7c176"/><stop offset="0.92" stop-color="#92d95a"/><stop offset="1" stop-color="#89e34f"/></linearGradient><linearGradient id="Безымянный_градиент_762-2" x1="85.46" y1="130.29" x2="85.46" y2="138.59" gradientTransform="matrix(1, 0, 0, 1, 0, 0)" xlink:href="#Безымянный_градиент_762"/><linearGradient id="Безымянный_градиент_201" x1="78.64" y1="102.21" x2="69.3" y2="134.88" gradientUnits="userSpaceOnUse"><stop offset="0.22" stop-color="#ffd7a5"/><stop offset="0.84" stop-color="#fa5763"/></linearGradient><radialGradient id="Безымянный_градиент_493" cx="87.65" cy="133.18" r="3.62" gradientUnits="userSpaceOnUse"><stop offset="0" stop-color="#fcffff" stop-opacity="0.4"/><stop offset="0.18" stop-color="#f8fef9" stop-opacity="0.42"/><stop offset="0.36" stop-color="#edfbe8" stop-opacity="0.48"/><stop offset="0.54" stop-color="#daf7cc" stop-opacity="0.58"/><stop offset="0.72" stop-color="#c0f0a3" stop-opacity="0.71"/><stop offset="0.9" stop-color="#9fe870" stop-opacity="0.89"/><stop offset="1" stop-color="#89e34f"/></radialGradient><linearGradient id="Безымянный_градиент_1148-2" x1="108.63" y1="120.97" x2="108.13" y2="94.66" xlink:href="#Безымянный_градиент_1148"/><linearGradient id="Безымянный_градиент_1148-3" x1="80.82" y1="120.8" x2="80.42" y2="99.76" xlink:href="#Безымянный_градиент_1148"/><clipPath id="clip-path"><path class="cls-1" d="M98.51,115.53c1.31-14.37,18-2.62,19.8,0C112,122.06,98.51,120.1,98.51,115.53Z"/></clipPath><linearGradient id="Новый_образец_градиента_копия_2" x1="103.93" y1="113.68" x2="113.62" y2="113.68" gradientUnits="userSpaceOnUse"><stop offset="0" stop-color="#5d7d91"/><stop offset="1" stop-color="#374b6b"/></linearGradient><linearGradient id="Безымянный_градиент_725" x1="181.59" y1="7.15" x2="181.76" y2="0.48" gradientTransform="translate(-72.91 117.27) rotate(-2.18)" gradientUnits="userSpaceOnUse"><stop offset="0" stop-color="#ddf5f5" stop-opacity="0.4"/><stop offset="1" stop-color="#c6d9db" stop-opacity="0"/></linearGradient><clipPath id="clip-path-2"><path class="cls-1" d="M84.8,115.28c0-7.39-8.44-12.57-11.24,0C77.41,118.23,82.58,119,84.8,115.28Z"/></clipPath><linearGradient id="Новый_образец_градиента_копия_2-2" x1="76.5" y1="113.03" x2="86.19" y2="113.03" xlink:href="#Новый_образец_градиента_копия_2"/><linearGradient id="Безымянный_градиент_725-2" x1="154.2" y1="5.45" x2="154.38" y2="-1.21" xlink:href="#Безымянный_градиент_725"/><linearGradient id="Новый_образец_градиента_копия_7" x1="79.07" y1="135.44" x2="78.15" y2="141.02" gradientUnits="userSpaceOnUse"><stop offset="0" stop-color="#cf5555"/><stop offset="1" stop-color="#a64444"/></linearGradient><linearGradient id="Безымянный_градиент_159-3" x1="139.49" y1="117.76" x2="136.43" y2="136.32" xlink:href="#Безымянный_градиент_159"/><linearGradient id="Безымянный_градиент_738" x1="149.3" y1="124.83" x2="137.63" y2="128.72" gradientUnits="userSpaceOnUse"><stop offset="0.64" stop-color="#fabb80"/><stop offset="1" stop-color="#faa16c"/></linearGradient><linearGradient id="Безымянный_градиент_622" x1="105.71" y1="82.04" x2="104.13" y2="103.17" gradientUnits="userSpaceOnUse"><stop offset="0" stop-color="#d19a87"/><stop offset="1" stop-color="#835f6f"/></linearGradient><linearGradient id="Безымянный_градиент_622-2" x1="76.96" y1="100.03" x2="88.06" y2="100.03" xlink:href="#Безымянный_градиент_622"/><linearGradient id="Безымянный_градиент_963-2" x1="157.32" y1="17.03" x2="112.19" y2="32.08" xlink:href="#Безымянный_градиент_963"/><linearGradient id="Безымянный_градиент_963-3" x1="175.94" y1="34.09" x2="137.25" y2="46.98" xlink:href="#Безымянный_градиент_963"/><linearGradient id="Безымянный_градиент_963-4" x1="186.72" y1="62.67" x2="134.13" y2="80.2" xlink:href="#Безымянный_градиент_963"/><linearGradient id="Безымянный_градиент_963-5" x1="160.04" y1="70.12" x2="124.2" y2="104.13" xlink:href="#Безымянный_градиент_963"/><linearGradient id="Безымянный_градиент_963-6" x1="79.55" y1="15.35" x2="105.22" y2="69.87" xlink:href="#Безымянный_градиент_963"/><linearGradient id="Безымянный_градиент_651-2" x1="81.94" y1="52.66" x2="53.27" y2="28.65" xlink:href="#Безымянный_градиент_651"/><linearGradient id="Безымянный_градиент_651-3" x1="114.56" y1="55.3" x2="147.91" y2="39.96" xlink:href="#Безымянный_градиент_651"/><radialGradient id="Безымянный_градиент_1136-2" cx="128.86" cy="145.98" r="16" xlink:href="#Безымянный_градиент_1136"/><linearGradient id="Безымянный_градиент_469-2" x1="-486.43" y1="-1084.92" x2="-483.24" y2="-1078.09" gradientTransform="matrix(-1.05, 0.35, 0.58, 0.63, 244.08, 994.2)" xlink:href="#Безымянный_градиент_469"/><linearGradient id="Безымянный_градиент_469-3" x1="-11070.66" y1="7517.67" x2="-11067.48" y2="7524.51" gradientTransform="matrix(0.48, 0.18, 0.88, -0.1, -1123.9, 2893.66)" xlink:href="#Безымянный_градиент_469"/></defs><g id="Слой_2" data-name="Слой 2"><g id="Слой_2-2" data-name="Слой 2"><path class="cls-2" d="M86.76,67.05l-11.05,28C63.25,105.73,56,96.22,55.37,92.16c-7.75,5.59-16.53-1.49-11.83-8.65-18.69,2.65-26-14.35-11.63-17.61-50.28,0-38.53-51.59,17-30.69C71.74,47.61,86.76,67.05,86.76,67.05Z"/><path class="cls-3" d="M50.54,41.16C29.29,34.55,12.76,30.43,5.36,42.94s16.1,23.61,32.42,19c-5.87-3.26-11.46-6.29-12.58-9.35,12.76,3,27.6,6.74,33.48,4.78S50.54,41.16,50.54,41.16Z"/><path class="cls-4" d="M91.25,137.93c-5.6-5.2-10.93.69-12.62,5.78s-2.27,17.55,2.26,20.38c3.49,2.18,8.91,5.66,12.38,1.7S95.38,141.78,91.25,137.93Z"/><ellipse class="cls-5" cx="84.06" cy="161.14" rx="1.51" ry="4.4" transform="translate(-97.66 163.99) rotate(-63.35)"/><path class="cls-6" d="M101.12,59.37c7.2-.53,39.18,50.93,32.65,66.6s-47,35.27-75.09,32c2-9.79,2-26.12,7.18-36.57a94.41,94.41,0,0,1,7.84-13.06C71.18,88.9,83.49,60.67,101.12,59.37Z"/><path class="cls-7" d="M109.61,77c-3.46-5.76-12,4.08-17,2-4.58-2-8.49-5.23-11.53,3.43C77.64,92.3,115.15,86.19,109.61,77Z"/><path class="cls-8" d="M110.92,84.83c-3.92-7.11-13.63,3.3-19.59,2s-7.67-5.33-11.1,1.31C74.4,99.39,117.17,96.2,110.92,84.83Z"/><path class="cls-9" d="M82.46,132.59c-3.15-.42-1,1-4,2-2.62-.35-1.07-2.21-5-3C75.77,130.31,82.07,131.47,82.46,132.59Z"/><path class="cls-10" d="M89.46,131.59c-5,1,0,7-4,7-3.81,0-1-6-4-6C85.26,129.74,88.5,129.69,89.46,131.59Z"/><path class="cls-11" d="M89.84,113.32c-2.58-.43-2,4.43-5.88,5.88-5.22,2-30,2.61-33.95,2.61,4.57,7.84,33.95,13.71,41.14,9.8S93.76,114,89.84,113.32Z"/><circle class="cls-12" cx="88.63" cy="133.61" r="2.86"/><path class="cls-13" d="M97.86,118.79c-2.4-4.11-5.22-28.08,7.84-29.38,12.41-1.25,16.51,26.05,15.11,28.37S102.43,126.63,97.86,118.79Z"/><path class="cls-14" d="M73.05,115.53c5.87-20.9,4.57-22.21,15-13.06.66,3.91-2,13.54-3.26,14.28S75.66,121.4,73.05,115.53Z"/><path class="cls-15" d="M98.51,115.53c1.31-14.37,18-2.62,19.8,0C112,122.06,98.51,120.1,98.51,115.53Z"/><g class="cls-16"><circle class="cls-17" cx="108.77" cy="113.68" r="4.84"/><path class="cls-18" d="M112.76,113.53a4,4,0,1,1-4.14-3.84A4,4,0,0,1,112.76,113.53Z"/><circle class="cls-15" cx="105.14" cy="111.48" r="1.62"/></g><path class="cls-19" d="M118.31,115.53c-8-5.88-17.19-8.49-19.8,0C99.17,107,105,101.16,118.31,115.53Z"/><path class="cls-15" d="M84.8,115.28c0-7.39-8.44-12.57-11.24,0C77.41,118.23,82.58,119,84.8,115.28Z"/><g class="cls-20"><circle class="cls-21" cx="81.35" cy="113.03" r="4.84"/><path class="cls-22" d="M85.33,112.87A4,4,0,1,1,81.19,109,4,4,0,0,1,85.33,112.87Z"/><circle class="cls-15" cx="77.71" cy="110.83" r="1.62"/></g><path class="cls-19" d="M84.8,115.28c0-11.83-9.92-13.3-11.24,0C75.19,108.63,78.89,103.45,84.8,115.28Z"/><path class="cls-23" d="M86.76,140.34c-10.45,2.61-15.67-.65-15.67-.65-2.62-5.88,2.75-7.19,5.22-4.57S84.8,139.66,86.76,140.34Z"/><path class="cls-24" d="M95.9,127.93a16,16,0,0,1,2.91,18.29C99.82,137.73,98,131.31,95.9,127.93Z"/><path class="cls-24" d="M87.41,138.38c3.27,2,2,5.88-2.61,5.22C88.06,143,88.72,141,87.41,138.38Z"/><path class="cls-25" d="M128.55,121.4c2.39-5.37,19.87-7.93,21.69-1.68s-2.54,16.05-9.51,17.35-14.24-.11-15.17-4S125.94,127.28,128.55,121.4Z"/><path class="cls-26" d="M134.65,124.71c4.13,2.53,4.25,7.68-1.25,8.39,6.9,1.36,11.57-1.07,13.43-6.47S137.48,122.79,134.65,124.71Z"/><path class="cls-19" d="M76.05,108.52c-1,1.13-3,1.78-6.27,1.13,3.27,1.3,4.77,1.65,5.32.83A9.88,9.88,0,0,0,76.05,108.52Z"/><path class="cls-19" d="M100.47,109.65c-2.58,1.4-5.88,2-7.83,1.3a11.78,11.78,0,0,0,7.18,1.31Z"/><path class="cls-27" d="M95.9,101.16c.81,2.25,7.84-18.94,17.63-7.84C104.49,79,94.25,96.6,95.9,101.16Z"/><path class="cls-28" d="M88.06,102.47c-1.3,6.53-5.22-3.92-7.18-4.58-2.55-.85-3.26,1.92-3.92,3.25,2-7.14,4.83-5.93,6-4.91S85.45,101.16,88.06,102.47Z"/><path class="cls-29" d="M154.67,18.23c5.22-17-18.28-25.47-26.77-10.45-5.88-1.3-10.45,3.27-9.14,7.84-7.19-2-11.11,5.22-7.84,12.4,5.88,12.41,24.2,23.71,33.65,15.77S154.67,18.23,154.67,18.23Z"/><path class="cls-30" d="M127.9,7.78c11.1,2.61,16.27,10.2,15,20.12"/><path class="cls-30" d="M118.76,15.62c5.87,0,18.93,6.53,21.54,18.93"/><path class="cls-31" d="M136,42.42c2.35-25.5,27.81-35.94,31.08-17,6.53-2.61,11.1,8.49,4.57,11.76,5.87.65,7.83,7.18,1.3,9.79,2.62,3.92,2.3,13.17-7.67,10.18-1.63,3.15-7.35,11.36-15.83,9.08C141,63.62,136,42.42,136,42.42Z"/><path class="cls-30" d="M142.89,52.63c3.79-22,18.52-29.06,23.53-27.71"/><path class="cls-32" d="M171.65,37.17c-9.14-.66-21.61,6.57-28.76,18.63"/><path class="cls-32" d="M173,47c-12.4-2-21.55,2.61-28.07,10.45"/><path class="cls-33" d="M145.65,90.34c17.38,2,35.14,1,26-12.69,31.34-3.26,10.14-39.31-15.83-14.43.31-7.7-10.94-11-16.17-4.5a99.69,99.69,0,0,0-8.52,12.5Z"/><path class="cls-34" d="M115.49,70.47c-2,9.79,5.89,28.52,12.74,32.21-3.28,10-1.12,14,4.17,16s28.7,3.7,24.51-10.19c11.85-1,21.27-15.85,4.94-20.42,2.61-8.49,1.07-18.88-14.81-16.3C147.28,61.3,123.33,62.63,115.49,70.47Z"/><path class="cls-35" d="M102.94,61.88c-.51,9.24,27.57,28.83,42.59,19.69s12.35-25.43-2.64-25.77c7.89-11.15-3.89-25.16-16.3-18C95.9,5.17,82.84,24.11,86.11,34.55c-15-28.07-55.51-4.57-32,19.59-8.49.66-9.14,14.37,7.18,12.41C65.86,82.22,90.38,79.4,102.94,61.88Z"/><path class="cls-36" d="M100.44,52c-15-11.53-24.13-32.42-38.5-25.24s-15,28,15,33.91C73.7,56.8,71.6,52,72,50.46,83.24,56.52,95.84,53,100.44,52Z"/><path class="cls-37" d="M108.78,55.8C116.14,43,137,31.94,141.61,43.7S127.24,57.41,122,58.06c4.57-3.92,5.22-5.22,5.22-5.22S115.78,49.61,108.78,55.8Z"/><path class="cls-38" d="M125.74,135.63c6.46-6,12.61.79,14.56,6.67s2.62,20.24-2.61,23.51c-4,2.52-10.28,6.53-14.28,2S121,140.07,125.74,135.63Z"/><ellipse class="cls-39" cx="127.84" cy="145.09" rx="8.89" ry="3.16" transform="translate(-43.42 234.89) rotate(-76.29)"/><ellipse class="cls-40" cx="129.77" cy="164.4" rx="4.4" ry="1.51" transform="translate(-29.87 28.82) rotate(-11.37)"/></g></g></svg>