<svg xmlns="http://www.w3.org/2000/svg" xmlns:xlink="http://www.w3.org/1999/xlink" width="135.045" height="142.213" ><defs><linearGradient id="A" x1=".523" y1="-.015" x2=".453" y2="1.191"><stop offset="0" stop-color="#5d7d91"/><stop offset="1" stop-color="#374b6b"/></linearGradient><linearGradient id="B" x1=".57" y1=".115" x2=".181" y2="1.009"><stop offset="0" stop-color="#cfb191"/><stop offset="1" stop-color="#835f6f"/></linearGradient><linearGradient id="C" x1=".571" y1=".128" x2=".385" y2="1.147"><stop offset=".641" stop-color="#ffd7a5"/><stop offset="1" stop-color="#faa96c"/></linearGradient><linearGradient id="D" x1=".455" y1=".972" x2=".56" y2=".145"><stop offset=".352" stop-color="#ffd7a5"/><stop offset="1" stop-color="#faa96c"/></linearGradient><linearGradient id="E" x1=".416" y1="1.048" x2=".568" y2=".078"><stop offset=".489" stop-color="#ffd7a5"/><stop offset="1" stop-color="#faa96c"/></linearGradient><linearGradient id="F" x1=".523" y1=".092" x2=".43" y2=".943" xlink:href="#B"/><clipPath id="G"><path d="M964.477 304.045c-.821-7.386 4.925-14.773 22.98 1.641-4.104 3.283-17.234 6.567-22.98-1.641z" transform="translate(-964.402 -295.816)" fill="none"/></clipPath><linearGradient id="H" x1="0" y1=".5" x2="1" y2=".5" xlink:href="#B"/><linearGradient id="I" x1="42.407" y1="-17.792" x2="42.429" y2="-18.628"><stop offset="0" stop-color="#ddf5f5" stop-opacity=".4"/><stop offset="1" stop-color="#c6d9db" stop-opacity="0"/></linearGradient><clipPath id="J"><path d="M957.693 303.1c-.507-12.412-10.355-9.13-14.458-.1 5.744 5.744 11.681 4.307 14.458.1z" transform="translate(-943.235 -294.968)" fill="none"/></clipPath><linearGradient id="K" x1="45.837" y1="-19.485" x2="45.859" y2="-20.321" xlink:href="#I"/><linearGradient id="L" x1=".566" y1=".183" x2=".459" y2=".922" xlink:href="#B"/><linearGradient id="M" x1=".577" y1=".084" x2=".423" y2="1.071" xlink:href="#B"/><linearGradient id="N" x1=".454" y1=".09" x2=".585" y2="1.086"><stop offset="0" stop-color="#fff" stop-opacity="0"/><stop offset="1" stop-color="#e4e9eb"/></linearGradient><linearGradient id="O" x1=".564" y1=".19" x2=".363" y2="1.214" xlink:href="#C"/><linearGradient id="P" x1="1.165" y1=".181" x2=".31" y2=".55"><stop offset=".641" stop-color="#fabb80"/><stop offset="1" stop-color="#faa16c"/></linearGradient><linearGradient id="Q" x1=".899" y1="-.253" x2=".184" y2="1.032"><stop offset=".256" stop-color="#fff" stop-opacity="0"/><stop offset="1" stop-color="#e4e9eb"/></linearGradient><linearGradient id="R" x1=".514" y1="-.231" x2=".478" y2="1.162" xlink:href="#A"/><linearGradient id="S" x1=".515" y1="-.314" x2=".475" y2="1.342" xlink:href="#A"/><linearGradient id="T" x1=".639" y1="-.009" x2=".491" y2=".762"><stop offset=".345" stop-color="#fabb80"/><stop offset="1" stop-color="#faa16c"/></linearGradient><linearGradient id="U" x1=".542" y1=".148" x2=".488" y2="1.237" xlink:href="#A"/><linearGradient id="V" x1="-849.461" y1="-1748.336" x2="-848.908" y2="-1746.728"><stop offset="0" stop-color="#fff" stop-opacity=".2"/><stop offset="1" stop-color="#fff"/></linearGradient><linearGradient id="W" x1="-863.851" y1="-1733.158" x2="-863.297" y2="-1731.55" xlink:href="#V"/></defs><path d="M.685 69.922l26.148-7.432-2 2.58L.684 72.386z" fill="url(#A)"/><path d="M41.72 5.981c0-7.567-15.592.821-17.234 13.951s-2.462 37.751 1.643 36.11S41.72 12.545 41.72 5.981z" fill="url(#B)"/><path d="M33.511 10.9C31.049 63.424 2.326 91.327 1.505 103.637s17.234 24.619 17.234 24.619c-3.284 7.386 7.945 13.952 19.7 13.952 14.771 0 56.627-9.028 62.371-24.621s17.235-75.5 12.31-91.915C100.806 8.442 59.773 2.7 33.511 10.9z" fill="url(#C)"/><path d="M59.774 47.014c-5.492 2.353-9.028 29.544-6.566 34.467 17.235 9.85 27.083 5.745 28.724 1.643s4.1-15.594.821-19.7-17.234-18.871-22.979-16.41z" fill="url(#D)"/><path d="M38.437 46.193c4.7 2.005-2.986 27.535-4.366 30.591s-12.047 7.981-16.15-1.047c1.64-11.489 16.028-31.461 20.516-29.544z" fill="url(#E)"/><path d="M118.045 51.496c-4.1 5.364-17.234 18.394-23.8 16.1s11.489-45.694 4.1-52.739-27.083 12.883-49.24 9.051S24.31 9.361 28.5 4.372s74.769-7.291 92 1.907c2.464 26.056-2.455 45.217-2.455 45.217z" fill="url(#F)"/><path d="M54.848 76.558c-.821-7.386 4.925-14.773 22.98 1.641-4.104 3.283-17.234 6.567-22.98-1.641zm-21.65-1.541c-.507-12.412-10.355-9.13-14.458-.1 5.744 5.744 11.681 4.307 14.458.1z" fill="#fff"/><g clip-path="url(#G)" transform="translate(54.773 68.328)"><circle cx="11.349" cy="7.137" r="5.377" fill="url(#H)"/><path d="M15.774 6.968a4.43 4.43 0 0 1-7.435 3.419 4.43 4.43 0 0 1 2.84-7.675 4.43 4.43 0 0 1 4.595 4.256z" fill="url(#I)"/><circle cx="7.317" cy="4.695" r="1.803" fill="#fff"/></g><g clip-path="url(#J)" transform="translate(18.74 66.885)"><circle cx="10.827" cy="6.552" r="4.973" fill="url(#H)"/><path d="M14.917 6.395c.063 1.655-.877 3.185-2.382 3.877s-3.279.408-4.493-.717S6.41 6.682 6.985 5.129s2.03-2.607 3.685-2.67c2.26-.086 4.161 1.676 4.247 3.936z" fill="url(#K)"/><circle cx="7.097" cy="4.293" r="1.667" fill="#fff"/></g><path d="M77.829 78.196c-11.489-13.13-24.621-16.414-22.98-1.641 3.283-7.384 4.104-11.486 22.98 1.641zM18.74 74.918c7.386-13.952 15.784-9.644 14.458.1-2.654-9.23-7.893-9.128-14.458-.1z" fill="#283547"/><path d="M58.953 38.807c-2.959 0-2.717 12.671-2.717 12.671 9.283.46 26.424 15.464 27.7 13.707s-17.6-22.273-19.242-23.1a25.3 25.3 0 0 0-4.923 4.925l1.787-6.251s-1.785-1.952-2.605-1.952z" fill="url(#L)"/><path d="M41.718 42.002c.821 2.55-1.094 9.569-1.779 10.163-3.828-1.275-13.232 5.808-15.164 7.3 2.727-6.122 7.192-11.308 12.841-14.914a5.48 5.48 0 0 1 2.324 2.186c.084-1.299.084-2.601 0-3.9z" fill="url(#M)"/><path d="M89.789 74.845l26.148-7.432-2 2.58-24.149 7.316z" fill="url(#A)"/><path d="M49.321 72.907l.439 7.484a3.25 3.25 0 0 0 2.884 3.039l29.265 3.279c1.452.162 2.835-.665 3.379-2.021l3.24-8.078a3.25 3.25 0 0 0-2.751-4.45L52.83 69.477a3.25 3.25 0 0 0-3.509 3.43z" fill="url(#N)"/><path d="M107.267 72.936c3-6.748 24.97-9.972 27.258-2.113s-3.2 20.168-11.944 21.809-17.9-.148-19.068-5 .472-7.309 3.754-14.696z" fill="url(#O)"/><path d="M114.932 77.093c5.191 3.177 5.345 9.647-1.57 10.541 8.679 1.716 14.545-1.343 16.886-8.132s-11.757-4.819-15.316-2.409z" fill="url(#P)"/><path d="M33.869 68.266l-28.615-.65c-.928-.021-1.817.371-2.428 1.07s-.881 1.632-.737 2.549l1.2 7.6a3.13 3.13 0 0 0 3.093 2.642h26a3.13 3.13 0 0 0 3.068-2.506l1.418-6.952a3.13 3.13 0 0 0-2.999-3.753z" fill="url(#Q)"/><path d="M52.564 69.464l.269.012 32.947 2.683a3.25 3.25 0 0 1 2.751 4.45l-3.24 8.078a3.25 3.25 0 0 1-3.016 2.041c-.122 0-.243-.007-.364-.02l-29.265-3.279a3.25 3.25 0 0 1-2.884-3.039l-.439-7.484a3.25 3.25 0 0 1 3.24-3.442m0-2.051a5.3 5.3 0 0 0-5.288 5.613l.439 7.483c.148 2.578 2.134 4.673 4.7 4.959l29.265 3.277a5.29 5.29 0 0 0 5.51-3.294l3.241-8.079a5.3 5.3 0 0 0-4.491-7.257L53 67.435l-.436-.017z" fill="url(#R)"/><path d="M5.181 67.616h.073l28.615.65a3.13 3.13 0 0 1 3 3.757l-1.418 6.952a3.13 3.13 0 0 1-3.068 2.506h-26a3.13 3.13 0 0 1-3.093-2.642l-1.2-7.6a3.13 3.13 0 0 1 3.092-3.619m0-2.053c-1.515.001-2.954.665-3.939 1.818S-.171 70.062.065 71.559l1.2 7.6a5.16 5.16 0 0 0 5.121 4.375h26a5.2 5.2 0 0 0 5.078-4.149l1.418-6.954a5.18 5.18 0 0 0-4.961-6.217l-28.615-.65h-.121z" fill="url(#S)"/><path d="M44.998 67.531c4.186 0 0 13.13 3.284 19.7-9.028 9.028-25.442 4.925-25.442-3.282s12.31-5.745 15.593-8.207 1.645-8.211 6.565-8.211z" fill="url(#T)"/><path d="M37.616 73.276c1.641-2.463 8.207-2.463 10.669 0v1.743c-2.462-1.743-8.154-2.361-11.053 0 .451-.46.6-1.136.384-1.743z" fill="url(#U)"/><path d="M17.92 106.329c4.1-1.047 19.7 2.235 48.35-1.047-25.372 9.028-40.143 4.923-48.35 1.047z" fill="#c1845b"/><ellipse cx="4.014" cy="2.964" rx="4.014" ry="2.964" transform="matrix(.894 -.448 .448 .894 2.749 71.222)" fill="url(#V)"/><ellipse cx="4.014" cy="2.964" rx="4.014" ry="2.964" transform="matrix(.894 -.448 .448 .894 49.55 73.562)" fill="url(#W)"/></svg>
