<svg xmlns="http://www.w3.org/2000/svg" xmlns:xlink="http://www.w3.org/1999/xlink" viewBox="0 0 113.06 119.06"><defs><style>.cls-1{fill:none;}.cls-2{fill:url(#Новый_образец_градиента_копия_2);}.cls-3{fill:url(#Безымянный_градиент_885);}.cls-4{fill:url(#Безымянный_градиент_159);}.cls-5{fill:url(#Безымянный_градиент_159-2);}.cls-6{fill:url(#Безымянный_градиент_159-3);}.cls-7{fill:url(#Безымянный_градиент_885-2);}.cls-8{fill:#fff;}.cls-9{clip-path:url(#clip-path);}.cls-10{fill:url(#Безымянный_градиент_885-3);}.cls-11{fill:url(#Безымянный_градиент_725);}.cls-12{clip-path:url(#clip-path-2);}.cls-13{fill:url(#Безымянный_градиент_885-4);}.cls-14{fill:url(#Безымянный_градиент_725-2);}.cls-15{fill:#283547;}.cls-16{fill:url(#Безымянный_градиент_885-5);}.cls-17{fill:url(#Безымянный_градиент_885-6);}.cls-18{fill:url(#Новый_образец_градиента_копия_2-2);}.cls-19{fill:url(#Безымянный_градиент_129);}.cls-20{fill:url(#Безымянный_градиент_159-4);}.cls-21{fill:url(#Безымянный_градиент_738);}.cls-22{fill:url(#Безымянный_градиент_129-2);}.cls-23{fill:url(#Новый_образец_градиента_копия_2-3);}.cls-24{fill:url(#Новый_образец_градиента_копия_2-4);}.cls-25{fill:url(#Безымянный_градиент_762);}.cls-26{fill:url(#Безымянный_градиент_762-2);}.cls-27{fill:url(#Безымянный_градиент_201);}.cls-28{fill:url(#Безымянный_градиент_493);}.cls-29{fill:url(#Новый_образец_градиента_копия_2-5);}.cls-30{fill:#c1845b;}.cls-31{fill:url(#Безымянный_градиент_160);}.cls-32{fill:url(#Безымянный_градиент_160-2);}</style><linearGradient id="Новый_образец_градиента_копия_2" x1="12.01" y1="52.19" x2="10.49" y2="62.18" gradientUnits="userSpaceOnUse"><stop offset="0" stop-color="#5d7d91"/><stop offset="1" stop-color="#374b6b"/></linearGradient><linearGradient id="Безымянный_градиент_885" x1="28.24" y1="7.72" x2="22.19" y2="47.38" gradientUnits="userSpaceOnUse"><stop offset="0" stop-color="#cfb191"/><stop offset="1" stop-color="#835f6f"/></linearGradient><linearGradient id="Безымянный_градиент_159" x1="55.14" y1="20.51" x2="37.59" y2="135.66" gradientUnits="userSpaceOnUse"><stop offset="0.64" stop-color="#ffd7a5"/><stop offset="1" stop-color="#faa96c"/></linearGradient><linearGradient id="Безымянный_градиент_159-2" x1="56.05" y1="72.37" x2="58.86" y2="44.07" xlink:href="#Безымянный_градиент_159"/><linearGradient id="Безымянный_градиент_159-3" x1="22.67" y1="69.13" x2="25.47" y2="40.83" xlink:href="#Безымянный_градиент_159"/><linearGradient id="Безымянный_градиент_885-2" x1="63.8" y1="5.2" x2="56.42" y2="53.58" xlink:href="#Безымянный_градиент_885"/><clipPath id="clip-path"><path class="cls-1" d="M45.92,64.09c-.69-6.18,4.12-12.36,19.24,1.38C61.72,68.21,50.73,71,45.92,64.09Z"/></clipPath><linearGradient id="Безымянный_градиент_885-3" x1="50.85" y1="63.18" x2="59.86" y2="63.18" xlink:href="#Безымянный_градиент_885"/><linearGradient id="Безымянный_градиент_725" x1="96.34" y1="-51.61" x2="96.5" y2="-57.8" gradientTransform="translate(-38.91 121.96) rotate(-2.18)" gradientUnits="userSpaceOnUse"><stop offset="0" stop-color="#ddf5f5" stop-opacity="0.4"/><stop offset="1" stop-color="#c6d9db" stop-opacity="0"/></linearGradient><clipPath id="clip-path-2"><path class="cls-1" d="M27.79,62.8c-.42-10.39-8.67-7.64-12.1-.08C20.5,67.53,25.47,66.32,27.79,62.8Z"/></clipPath><linearGradient id="Безымянный_градиент_885-4" x1="20.59" y1="61.48" x2="28.92" y2="61.48" xlink:href="#Безымянный_градиент_885"/><linearGradient id="Безымянный_градиент_725-2" x1="65.83" y1="-54.74" x2="65.98" y2="-60.47" xlink:href="#Безымянный_градиент_725"/><linearGradient id="Безымянный_градиент_885-5" x1="60.24" y1="36.55" x2="57.74" y2="52.96" xlink:href="#Безымянный_градиент_885"/><linearGradient id="Безымянный_градиент_885-6" x1="29.02" y1="36.39" x2="26.82" y2="50.82" xlink:href="#Безымянный_градиент_885"/><linearGradient id="Новый_образец_градиента_копия_2-2" x1="86.61" y1="56.31" x2="85.08" y2="66.31" xlink:href="#Новый_образец_градиента_копия_2"/><linearGradient id="Безымянный_градиент_129" x1="56.28" y1="59.46" x2="60.61" y2="73.85" gradientUnits="userSpaceOnUse"><stop offset="0.5" stop-color="#fff" stop-opacity="0"/><stop offset="1" stop-color="#e4e9eb"/></linearGradient><linearGradient id="Безымянный_градиент_159-4" x1="101.42" y1="59.73" x2="96.04" y2="82.88" xlink:href="#Безымянный_градиент_159"/><linearGradient id="Безымянный_градиент_738" x1="111.63" y1="64.67" x2="99.35" y2="68.76" gradientUnits="userSpaceOnUse"><stop offset="0.64" stop-color="#fabb80"/><stop offset="1" stop-color="#faa16c"/></linearGradient><linearGradient id="Безымянный_градиент_129-2" x1="27.96" y1="53.67" x2="7.08" y2="68.58" xlink:href="#Безымянный_градиент_129"/><linearGradient id="Новый_образец_градиента_копия_2-3" x1="58.3" y1="52.31" x2="57.02" y2="77.22" xlink:href="#Новый_образец_градиента_копия_2"/><linearGradient id="Новый_образец_градиента_копия_2-4" x1="16.8" y1="50.16" x2="15.51" y2="75.07" xlink:href="#Новый_образец_градиента_копия_2"/><linearGradient id="Безымянный_градиент_762" x1="490.68" y1="263.82" x2="490.68" y2="268.72" gradientTransform="translate(-424.24 -253.21) rotate(7.77)" gradientUnits="userSpaceOnUse"><stop offset="0" stop-color="#c3a19b"/><stop offset="0.23" stop-color="#c0a597"/><stop offset="0.46" stop-color="#b7af8b"/><stop offset="0.69" stop-color="#a7c176"/><stop offset="0.92" stop-color="#92d95a"/><stop offset="1" stop-color="#89e34f"/></linearGradient><linearGradient id="Безымянный_градиент_762-2" x1="33.57" y1="73.7" x2="33.57" y2="85.52" gradientTransform="matrix(1, 0, 0, 1, 0, 0)" xlink:href="#Безымянный_градиент_762"/><linearGradient id="Безымянный_градиент_201" x1="32.73" y1="56.34" x2="29.57" y2="72.36" gradientUnits="userSpaceOnUse"><stop offset="0.22" stop-color="#ffd7a5"/><stop offset="0.84" stop-color="#fa5763"/></linearGradient><radialGradient id="Безымянный_градиент_493" cx="35.89" cy="76.71" r="3.62" gradientUnits="userSpaceOnUse"><stop offset="0" stop-color="#fcffff" stop-opacity="0.4"/><stop offset="0.18" stop-color="#f8fef9" stop-opacity="0.42"/><stop offset="0.36" stop-color="#edfbe8" stop-opacity="0.48"/><stop offset="0.54" stop-color="#daf7cc" stop-opacity="0.58"/><stop offset="0.72" stop-color="#c0f0a3" stop-opacity="0.71"/><stop offset="0.9" stop-color="#9fe870" stop-opacity="0.89"/><stop offset="1" stop-color="#89e34f"/></radialGradient><linearGradient id="Новый_образец_градиента_копия_2-5" x1="36.19" y1="60.24" x2="35.69" y2="63.52" xlink:href="#Новый_образец_градиента_копия_2"/><linearGradient id="Безымянный_градиент_160" x1="6048.59" y1="-6602.54" x2="6052.3" y2="-6594.56" gradientTransform="matrix(-0.34, 0.23, 0.19, 0.42, 3311.96, 1442.92)" gradientUnits="userSpaceOnUse"><stop offset="0" stop-color="#fff" stop-opacity="0.2"/><stop offset="1" stop-color="#fff"/></linearGradient><linearGradient id="Безымянный_градиент_160-2" x1="5991.06" y1="-6525.26" x2="5994.78" y2="-6517.28" gradientTransform="matrix(-0.34, 0.23, 0.19, 0.42, 3316.98, 1425.59)" xlink:href="#Безымянный_градиент_160"/></defs><g id="Слой_2" data-name="Слой 2"><g id="Слой_2-2" data-name="Слой 2"><polygon class="cls-2" points="0.57 58.54 22.46 52.31 20.79 54.47 0.57 60.6 0.57 58.54"/><path class="cls-3" d="M34.93,5c0-6.34-13.06.68-14.43,11.68s-2.06,31.6,1.37,30.23S34.93,10.5,34.93,5Z"/><path class="cls-4" d="M28.06,9.13C26,53.1,2,76.46,1.26,86.76s14.43,20.62,14.43,20.62c-2.75,6.18,6.65,11.68,16.49,11.68,12.36,0,47.4-7.56,52.21-20.62S98.82,35.24,94.7,21.5C84.39,7.07,50,2.26,28.06,9.13Z"/><path class="cls-5" d="M50,39.36c-4.6,2-7.56,24.73-5.5,28.85C59,76.46,67.22,73,68.59,69.59S72,56.53,69.28,53.1,54.85,37.3,50,39.36Z"/><path class="cls-6" d="M32.18,38.67c3.93,1.68-2.5,23-3.66,25.61S18.44,71,15,63.41C16.38,53.79,28.42,37.07,32.18,38.67Z"/><path class="cls-7" d="M98.82,43.11C95.39,47.6,84.39,58.51,78.9,56.59s9.62-38.26,3.43-44.16S59.66,23.22,41.11,20,20.35,7.83,23.86,3.66s62.59-6.11,77,1.59C102.94,27.07,98.82,43.11,98.82,43.11Z"/><path class="cls-8" d="M45.92,64.09c-.69-6.18,4.12-12.36,19.24,1.38C61.72,68.21,50.73,71,45.92,64.09Z"/><path class="cls-8" d="M27.79,62.8c-.42-10.39-8.67-7.64-12.1-.08C20.5,67.53,25.47,66.32,27.79,62.8Z"/><g class="cls-9"><circle class="cls-10" cx="55.36" cy="63.18" r="4.5"/><path class="cls-11" d="M59.06,63a3.71,3.71,0,1,1-3.85-3.57A3.71,3.71,0,0,1,59.06,63Z"/><circle class="cls-8" cx="51.98" cy="61.13" r="1.51"/></g><g class="cls-12"><circle class="cls-13" cx="24.75" cy="61.48" r="4.16"/><path class="cls-14" d="M28.18,61.35a3.43,3.43,0,1,1-3.56-3.3A3.43,3.43,0,0,1,28.18,61.35Z"/><circle class="cls-8" cx="21.63" cy="59.59" r="1.4"/></g><path class="cls-15" d="M65.16,65.47c-9.62-11-20.62-13.74-19.24-1.38C48.67,57.91,49.35,54.47,65.16,65.47Z"/><path class="cls-15" d="M15.69,62.72c6.18-11.68,13.21-8.08,12.1.08C25.57,55.08,21.18,55.16,15.69,62.72Z"/><path class="cls-16" d="M49.35,32.49c-2.47,0-2.27,10.61-2.27,10.61C54.85,43.48,69.2,56,70.27,54.57S55.54,35.92,54.16,35.24A21,21,0,0,0,50,39.36l1.5-5.23S50,32.49,49.35,32.49Z"/><path class="cls-17" d="M34.93,35.16c.68,2.14-.92,8-1.49,8.51-3.21-1.07-11.08,4.86-12.7,6.12A28.61,28.61,0,0,1,31.49,37.3a4.6,4.6,0,0,1,1.95,1.83,26.72,26.72,0,0,0,0-3.27Z"/><polygon class="cls-18" points="75.17 62.66 97.06 56.44 95.39 58.6 75.17 64.72 75.17 62.66"/><path class="cls-19" d="M41.29,61l.37,6.27a2.72,2.72,0,0,0,2.41,2.54l24.51,2.75A2.72,2.72,0,0,0,71.4,70.9l2.72-6.77a2.72,2.72,0,0,0-2.31-3.72L44.23,58.16A2.73,2.73,0,0,0,41.29,61Z"/><path class="cls-20" d="M89.8,61.06c2.51-5.65,20.91-8.35,22.82-1.77s-2.67,16.88-10,18.26-15-.12-16-4.19S87.05,67.24,89.8,61.06Z"/><path class="cls-21" d="M96.22,64.54c4.34,2.66,4.47,8.08-1.32,8.82,7.27,1.44,12.18-1.12,14.14-6.8S99.2,62.52,96.22,64.54Z"/><path class="cls-22" d="M28.35,57.15l-24-.54a2.61,2.61,0,0,0-2.65,3l1,6.36a2.62,2.62,0,0,0,2.59,2.21H27.11a2.62,2.62,0,0,0,2.57-2.09l1.18-5.83A2.61,2.61,0,0,0,28.35,57.15Z"/><path class="cls-23" d="M44,58.15h.23l27.58,2.25a2.72,2.72,0,0,1,2.31,3.72L71.4,70.9a2.71,2.71,0,0,1-2.52,1.71l-.3,0L44.07,69.84a2.72,2.72,0,0,1-2.41-2.54L41.29,61A2.73,2.73,0,0,1,44,58.15m0-1.71a4.43,4.43,0,0,0-4.42,4.7L40,67.4a4.42,4.42,0,0,0,3.93,4.15l24.5,2.75.5,0A4.42,4.42,0,0,0,73,71.54l2.71-6.77A4.43,4.43,0,0,0,72,58.7L44.37,56.45Z"/><path class="cls-24" d="M4.34,56.61H4.4l24,.54a2.61,2.61,0,0,1,2.51,3.14l-1.18,5.83a2.62,2.62,0,0,1-2.57,2.09H5.34A2.62,2.62,0,0,1,2.75,66l-1-6.36a2.62,2.62,0,0,1,2.59-3m0-1.72a4.34,4.34,0,0,0-4.29,5l1,6.37a4.31,4.31,0,0,0,4.28,3.66H27.11a4.35,4.35,0,0,0,4.25-3.47l1.19-5.82a4.34,4.34,0,0,0-4.16-5.21L4.44,54.89Z"/><path class="cls-25" d="M30.69,77.12c-3.15-.43-1.24,1.4-4.24,2.4-2.62-.36-1.06-4.22-5-5C23.76,73.23,30.31,76,30.69,77.12Z"/><path class="cls-26" d="M37.45,74.52c-5,1,0,11-4,11-3.81,0-.76-8.4-3.76-8.4C33.5,74.27,36.5,72.61,37.45,74.52Z"/><path class="cls-27" d="M37.67,56.53c3.51,0,0,11,2.75,16.49-7.56,7.56-21.3,4.13-21.3-2.74s10.31-4.81,13.06-6.87S33.55,56.53,37.67,56.53Z"/><circle class="cls-28" cx="36.86" cy="77.13" r="2.86"/><path class="cls-29" d="M31.49,61.34c1.37-2.06,6.87-2.06,8.93,0V62.8c-2.06-1.46-6.82-2-9.25,0A1.41,1.41,0,0,0,31.49,61.34Z"/><path class="cls-30" d="M15,89c3.44-.88,16.49,1.87,40.48-.88C34.24,95.7,21.87,92.26,15,89Z"/><ellipse class="cls-31" cx="6.42" cy="60.34" rx="3.36" ry="2.48" transform="translate(-26.33 9.25) rotate(-26.59)"/><ellipse class="cls-32" cx="45.6" cy="62.3" rx="3.36" ry="2.48" transform="translate(-23.06 27) rotate(-26.59)"/></g></g></svg>