<svg xmlns="http://www.w3.org/2000/svg" xmlns:xlink="http://www.w3.org/1999/xlink" viewBox="0 0 109.45 124.37"><defs><style>.cls-1{fill:none;}.cls-2{fill:url(#Безымянный_градиент_159);}.cls-3{fill:#283547;}.cls-4{fill:url(#Безымянный_градиент_1081);}.cls-5{fill:url(#Новый_образец_градиента_копия_2);}.cls-6{fill:url(#Новый_образец_градиента_копия_2-2);}.cls-7{fill:url(#Безымянный_градиент_159-2);}.cls-8{fill:url(#Безымянный_градиент_738);}.cls-9{fill:url(#Безымянный_градиент_159-3);}.cls-10{fill:url(#Безымянный_градиент_159-4);}.cls-11{fill:#fff;}.cls-12{fill:url(#Безымянный_градиент_54);}.cls-13{fill:url(#Безымянный_градиент_725);}.cls-14{fill:#774d37;}.cls-15{clip-path:url(#clip-path);}.cls-16{fill:url(#Безымянный_градиент_54-2);}.cls-17{fill:url(#Безымянный_градиент_725-2);}.cls-18{fill:url(#Безымянный_градиент_1081-2);}.cls-19{fill:url(#Безымянный_градиент_140);}.cls-20{fill:url(#Новый_образец_градиента_копия_7);}.cls-21{fill:url(#Безымянный_градиент_160);}.cls-22{fill:url(#Новый_образец_градиента_копия_7-2);}.cls-23{fill:url(#Безымянный_градиент_762);}.cls-24{fill:url(#Безымянный_градиент_762-2);}.cls-25{fill:url(#Безымянный_градиент_201);}.cls-26{fill:url(#Безымянный_градиент_493);}.cls-27{fill:url(#Безымянный_градиент_1081-3);}.cls-28{fill:url(#Безымянный_градиент_140-2);}.cls-29{fill:url(#Новый_образец_градиента_копия_7-3);}.cls-30{fill:url(#Безымянный_градиент_160-2);}.cls-31{fill:#c1845b;}.cls-32{fill:#81330d;}.cls-33{fill:url(#Безымянный_градиент_2491);}.cls-34{fill:url(#Безымянный_градиент_2491-2);}.cls-35{fill:url(#Безымянный_градиент_2491-3);}.cls-36{fill:url(#Безымянный_градиент_2491-4);}</style><linearGradient id="Безымянный_градиент_159" x1="43.91" y1="-12.87" x2="44.47" y2="144.05" gradientUnits="userSpaceOnUse"><stop offset="0.64" stop-color="#ffd7a5"/><stop offset="1" stop-color="#faa96c"/></linearGradient><linearGradient id="Безымянный_градиент_1081" x1="39.32" y1="3.65" x2="39.51" y2="54.23" gradientUnits="userSpaceOnUse"><stop offset="0" stop-color="#9d6545"/><stop offset="1" stop-color="#674137"/></linearGradient><linearGradient id="Новый_образец_градиента_копия_2" x1="85.63" y1="1.59" x2="75.79" y2="27.93" gradientUnits="userSpaceOnUse"><stop offset="0" stop-color="#5d7d91"/><stop offset="1" stop-color="#374b6b"/></linearGradient><linearGradient id="Новый_образец_градиента_копия_2-2" x1="52.33" y1="25.98" x2="73.84" y2="58.32" xlink:href="#Новый_образец_градиента_копия_2"/><linearGradient id="Безымянный_градиент_159-2" x1="793.28" y1="756.53" x2="787.9" y2="779.69" gradientTransform="matrix(0.99, 0.14, -0.14, 0.99, -591.82, -784.88)" xlink:href="#Безымянный_градиент_159"/><linearGradient id="Безымянный_градиент_738" x1="803.49" y1="761.47" x2="791.21" y2="765.57" gradientTransform="matrix(0.99, 0.14, -0.14, 0.99, -591.82, -784.88)" gradientUnits="userSpaceOnUse"><stop offset="0.64" stop-color="#fabb80"/><stop offset="1" stop-color="#faa16c"/></linearGradient><linearGradient id="Безымянный_градиент_159-3" x1="52" y1="70.48" x2="51.9" y2="44.24" xlink:href="#Безымянный_градиент_159"/><linearGradient id="Безымянный_градиент_159-4" x1="25.66" y1="70.85" x2="25.58" y2="47.35" xlink:href="#Безымянный_градиент_159"/><linearGradient id="Безымянный_градиент_54" x1="47.83" y1="64.68" x2="58.99" y2="64.68" gradientUnits="userSpaceOnUse"><stop offset="0" stop-color="#bf6545"/><stop offset="1" stop-color="#776125"/></linearGradient><linearGradient id="Безымянный_градиент_725" x1="-129.4" y1="-27.33" x2="-129.2" y2="-35.01" gradientTransform="translate(183.82 91.47) rotate(-2.18)" gradientUnits="userSpaceOnUse"><stop offset="0" stop-color="#ddf5f5" stop-opacity="0.4"/><stop offset="1" stop-color="#c6d9db" stop-opacity="0"/></linearGradient><clipPath id="clip-path"><path class="cls-1" d="M30.51,67.21c.86-9.34-8.46-16.19-10.27,0C22.23,72.19,28.35,72.81,30.51,67.21Z"/></clipPath><linearGradient id="Безымянный_градиент_54-2" x1="22.35" y1="64.68" x2="32.19" y2="64.68" xlink:href="#Безымянный_градиент_54"/><linearGradient id="Безымянный_градиент_725-2" x1="-155.51" y1="-28.85" x2="-155.34" y2="-35.62" xlink:href="#Безымянный_градиент_725"/><linearGradient id="Безымянный_градиент_1081-2" x1="27.69" y1="42.94" x2="25.96" y2="58.08" xlink:href="#Безымянный_градиент_1081"/><linearGradient id="Безымянный_градиент_140" x1="17.21" y1="58.35" x2="17.29" y2="74.55" gradientUnits="userSpaceOnUse"><stop offset="0" stop-color="#fff" stop-opacity="0"/><stop offset="1" stop-color="#e4e9eb"/></linearGradient><linearGradient id="Новый_образец_градиента_копия_7" x1="18.32" y1="53.75" x2="14.23" y2="73.98" gradientUnits="userSpaceOnUse"><stop offset="0" stop-color="#cf5555"/><stop offset="1" stop-color="#a64444"/></linearGradient><linearGradient id="Безымянный_градиент_160" x1="10910.03" y1="4337.59" x2="10913.75" y2="4345.57" gradientTransform="matrix(-0.61, 0.18, 0.33, 0.32, 5180.4, -3249.9)" gradientUnits="userSpaceOnUse"><stop offset="0" stop-color="#fff" stop-opacity="0.2"/><stop offset="1" stop-color="#fff"/></linearGradient><linearGradient id="Новый_образец_градиента_копия_7-2" x1="35.42" y1="57.15" x2="35.56" y2="67.82" xlink:href="#Новый_образец_градиента_копия_7"/><linearGradient id="Безымянный_градиент_762" x1="1276.44" y1="125.27" x2="1276.44" y2="130.62" gradientTransform="translate(-1223.52 -213.85) rotate(7.77)" gradientUnits="userSpaceOnUse"><stop offset="0" stop-color="#c3a19b"/><stop offset="0.23" stop-color="#c0a597"/><stop offset="0.46" stop-color="#b7af8b"/><stop offset="0.69" stop-color="#a7c176"/><stop offset="0.92" stop-color="#92d95a"/><stop offset="1" stop-color="#89e34f"/></linearGradient><linearGradient id="Безымянный_градиент_762-2" x1="31.88" y1="81.41" x2="31.88" y2="90.85" gradientTransform="matrix(1, 0, 0, 1, 0, 0)" xlink:href="#Безымянный_градиент_762"/><linearGradient id="Безымянный_градиент_201" x1="30.31" y1="63.03" x2="26.42" y2="83.38" gradientUnits="userSpaceOnUse"><stop offset="0.22" stop-color="#ffd7a5"/><stop offset="0.84" stop-color="#fa5763"/></linearGradient><radialGradient id="Безымянный_градиент_493" cx="34.87" cy="84.24" r="3.62" gradientUnits="userSpaceOnUse"><stop offset="0" stop-color="#fcffff" stop-opacity="0.4"/><stop offset="0.18" stop-color="#f8fef9" stop-opacity="0.42"/><stop offset="0.36" stop-color="#edfbe8" stop-opacity="0.48"/><stop offset="0.54" stop-color="#daf7cc" stop-opacity="0.58"/><stop offset="0.72" stop-color="#c0f0a3" stop-opacity="0.71"/><stop offset="0.9" stop-color="#9fe870" stop-opacity="0.89"/><stop offset="1" stop-color="#89e34f"/></radialGradient><linearGradient id="Безымянный_градиент_1081-3" x1="52.04" y1="42.68" x2="50.21" y2="58.69" xlink:href="#Безымянный_градиент_1081"/><linearGradient id="Безымянный_градиент_140-2" x1="10115.01" y1="58.23" x2="10115.09" y2="75.74" gradientTransform="matrix(-1, 0, 0, 1, 10170.21, 0)" xlink:href="#Безымянный_градиент_140"/><linearGradient id="Новый_образец_градиента_копия_7-3" x1="10116.21" y1="53.27" x2="10111.79" y2="75.11" gradientTransform="matrix(-1, 0, 0, 1, 10170.21, 0)" xlink:href="#Новый_образец_градиента_копия_7"/><linearGradient id="Безымянный_градиент_160-2" x1="11249" y1="7367.12" x2="11252.72" y2="7375.1" gradientTransform="matrix(-0.61, 0.18, 0.33, 0.32, 4411.23, -4281.89)" xlink:href="#Безымянный_градиент_160"/><linearGradient id="Безымянный_градиент_2491" x1="-30.93" y1="-1291.27" x2="-48.26" y2="-1271.09" gradientTransform="translate(-797.24 986.13) rotate(44.85)" gradientUnits="userSpaceOnUse"><stop offset="0" stop-color="#ffe5b3"/><stop offset="0.17" stop-color="#fbdc9f"/><stop offset="0.51" stop-color="#f0c46b"/><stop offset="1" stop-color="#df9f19"/></linearGradient><linearGradient id="Безымянный_градиент_2491-2" x1="612.08" y1="-358.37" x2="594.86" y2="-338.31" gradientTransform="translate(-549.53 -262.9) rotate(55.88)" xlink:href="#Безымянный_градиент_2491"/><linearGradient id="Безымянный_градиент_2491-3" x1="616.61" y1="-355.15" x2="599.74" y2="-335.51" gradientTransform="translate(-549.53 -262.9) rotate(55.88)" xlink:href="#Безымянный_градиент_2491"/><linearGradient id="Безымянный_градиент_2491-4" x1="-39.98" y1="-1299.04" x2="-57.31" y2="-1278.86" xlink:href="#Безымянный_градиент_2491"/></defs><g id="Слой_2" data-name="Слой 2"><g id="Слой_2-2" data-name="Слой 2"><path class="cls-2" d="M52.24,16.33c-8.49,1.31-32.65,23.51-32.65,23.51s-1.31,28.81,0,36.61C11.75,85.51-4.43,91.86,19,124c13.57.23,46.94,9.26,62.61-71.71C67.91,17.64,52.24,16.33,52.24,16.33Z"/><path class="cls-3" d="M29.38,14.37c-1.3.65-3.91,8.49-1.3,11.76s9.79-5.88,7.83-8.49S29.38,14.37,29.38,14.37Z"/><path class="cls-4" d="M65.3,24.17A61.52,61.52,0,0,1,19.59,41.8v6.14C6.53,41.8,15,35.27,41.79,13.07,54.85,15.68,65.3,24.17,65.3,24.17Z"/><path class="cls-5" d="M52.89,9.8C58.12,5.23,74.44-3.26,79,1.31s8.49,7.84,11.1,5.88,5.88-3.27,11.76.65c4.86,3.24,9.79,6.53,6.53,11.76S99.23,28.54,98,32.66,92.73,50.29,86.85,52.9,52.89,9.8,52.89,9.8Z"/><path class="cls-6" d="M27.43,24.82c-2-3.92-3.27-8.49,0-11.1s11.75-9.8,17-9.8c11.76,0,55.51,39.18,42.45,55.51-3.27,3.92-9.4,10.92-9.4,10.92.26-12.88-37.06-48.59-42.84-51.41C28.08,15,26.12,21.55,27.43,24.82Z"/><path class="cls-7" d="M72.46,77.73c3.3-5.23,21.89-5.25,22.84,1.54S90.22,95.59,82.77,95.89,68,93.61,67.58,89.45,68.85,83.45,72.46,77.73Z"/><path class="cls-8" d="M78.31,82.1c3.92,3.25,3.26,8.63-2.57,8.54,7,2.47,12.21.64,15-4.7S81.55,80.53,78.31,82.1Z"/><path class="cls-9" d="M43.42,68.15c-3.17-6.41-3.6-22.55,0-23.57s16,2.6,18,6.2,2.61,13-.65,18S47,75.43,43.42,68.15Z"/><path class="cls-10" d="M30.76,71.18c1.62-1.66,1.89-12.41,1.89-15.67-3.53-2.43-11.1-5.22-12.41-3.26s-2.61,16.32-.65,18.93S28.21,73.79,30.76,71.18Z"/><path class="cls-11" d="M44.4,67.92c-1.3-9.8,12.81-17,15.55,0C56.94,73.14,47.67,73.79,44.4,67.92Z"/><circle class="cls-12" cx="53.41" cy="64.68" r="5.58"/><path class="cls-13" d="M58,64.5a4.6,4.6,0,1,1-4.77-4.41A4.6,4.6,0,0,1,58,64.5Z"/><circle class="cls-11" cx="49.23" cy="62.15" r="1.87"/><path class="cls-14" d="M44.4,67.92C43.1,54.2,59.83,51.59,60,67.92,57.46,56.82,46.36,54.86,44.4,67.92Z"/><path class="cls-11" d="M30.51,67.21c.86-9.34-8.46-16.19-10.27,0C22.23,72.19,28.35,72.81,30.51,67.21Z"/><g class="cls-15"><circle class="cls-16" cx="27.27" cy="64.68" r="4.92"/><path class="cls-17" d="M31.32,64.53a4.05,4.05,0,1,1-4.2-3.9A4,4,0,0,1,31.32,64.53Z"/><circle class="cls-11" cx="23.58" cy="62.44" r="1.65"/></g><path class="cls-14" d="M30.51,67.21c-1.78-11-9-11-10.27,0C20.24,50.29,32.65,57.47,30.51,67.21Z"/><path class="cls-18" d="M32.65,52.25a5.6,5.6,0,0,1,0,4.57C26.77,58.12,20.9,49,19.59,54.2,20.9,45.72,24.16,54.86,32.65,52.25Z"/><path class="cls-19" d="M31.32,60.87C20.85,59,10.27,61.23,3,64c5,11.13,14.07,12.73,21.15,10.58S31.77,64.41,31.32,60.87Z"/><path class="cls-20" d="M32.51,59.12c-12-2.38-24.19.45-32.51,4C5.76,77.25,16.18,79.28,24.32,76.54S33,63.61,32.51,59.12ZM24.19,74.59C17.11,76.74,8.05,75.14,3,64c7.23-2.78,17.81-5,28.28-3.14C31.77,64.41,31.27,72.43,24.19,74.59Z"/><ellipse class="cls-21" cx="11.84" cy="65.12" rx="5.97" ry="1.88" transform="translate(-12.03 3.39) rotate(-10.83)"/><path class="cls-22" d="M32,59.43c2-1.31,6.55-.66,7.19-.33,0,1.31,0,1.59,0,1.59-3.93-.61-5.89-.61-7.19,0A.89.89,0,0,1,32,59.43Z"/><path class="cls-23" d="M28,84.41c-2.75,0-1,3.86-3.77,3.86s0-2.75-4.13-4.13C23.29,82.37,27.48,82.87,28,84.41Z"/><path class="cls-24" d="M36.39,83.79c-4.13,1.38.61,7.06-3.52,7.06-5.24,0,0-6.88-5.5-6.88C32.61,80,35.08,81.17,36.39,83.79Z"/><path class="cls-25" d="M37.63,61.83c2.06,0,6.54,18.53,1.64,21S13.74,86.45,13,81,30.44,72.28,32.4,68.36,33.06,61.83,37.63,61.83Z"/><circle class="cls-26" cx="35.84" cy="84.67" r="2.86"/><path class="cls-27" d="M41.79,42.45c-1.3,2-1.82,6.4-.91,6.79,3.13-.52,6.91-4.92,21.22,2.64-.13-2.53-2.19-6.82-17.78-9.43-1.14.65-1.85,2.88-1.85,2.88l.78-2.88Z"/><path class="cls-28" d="M40,61c11.31-2,22.73.39,30.55,3.39C65.1,76.38,55.3,78.1,47.66,75.77S39.48,64.78,40,61Z"/><path class="cls-29" d="M47.53,77.89c8.78,3,20,.76,26.26-14.51-9-3.82-22.12-6.88-35.11-4.31C38.12,63.92,38.74,74.93,47.53,77.89ZM40,61c11.31-2,22.73.39,30.55,3.39C65.1,76.38,55.3,78.1,47.66,75.77S39.48,64.78,40,61Z"/><ellipse class="cls-30" cx="47.76" cy="63.81" rx="5.97" ry="1.88"/><path class="cls-31" d="M42.44,94c-12.4-3.27-21.54-4.57-26.77-2,2.61,5.87,3.27,7.83,2.61,11.1,1.31-1.31.66-9.8.66-9.8C27.43,92.08,35.91,94,42.44,94Z"/><path class="cls-32" d="M77.05,51.77,75.54,51l.07-.18a1.47,1.47,0,0,0-.5-1.76,1.52,1.52,0,0,0-1.44-.25,2.2,2.2,0,0,0-1,.59,1.93,1.93,0,0,0-.61,1.54,1.56,1.56,0,0,0,.44,1,1.39,1.39,0,0,0,.74.47,1.15,1.15,0,0,0,.9-.18l-.89-1L73.3,51l.82-.69c0-.05.07-.05.12,0l2.05,2.4,0,.06c-.13.11-.24.22-.37.31a4.41,4.41,0,0,1-.85.52,2.93,2.93,0,0,1-2.44,0,3.62,3.62,0,0,1-1.33-1.06A3.69,3.69,0,0,1,70.52,51a3,3,0,0,1,.29-2,3.53,3.53,0,0,1,2-1.74,3,3,0,0,1,2.63.21,4.18,4.18,0,0,1,1.38,1.3,3,3,0,0,1,.56,1.61,3.09,3.09,0,0,1-.24,1.27Z"/><path class="cls-32" d="M64,38.9l2.31-2c.06,0,.09,0,.14,0,.5.6,1,1.18,1.51,1.78a3.09,3.09,0,0,1,.67,2.94,2.82,2.82,0,0,1-2,2.13,3.2,3.2,0,0,1-3.43-1L61.71,41c-.06-.06-.06-.09,0-.15l1.4-1.19L64,38.9Zm2.44.14-2.69,2.29a3.08,3.08,0,0,0,.76.77,1.59,1.59,0,0,0,.85.25,1.83,1.83,0,0,0,1.48-.78,1.61,1.61,0,0,0,.33-1.32,2.09,2.09,0,0,0-.44-.88Z"/><path class="cls-32" d="M68.86,45c0-.16.06-.31.08-.47a1,1,0,0,1,1.34-.8,1.89,1.89,0,0,1,1.07.83,1.6,1.6,0,0,1,.27.82,1,1,0,0,1-.92,1,2.16,2.16,0,0,1-.87-.15l-.1,0-.06.89.51-.17.38.91a2.69,2.69,0,0,1-1,.28l.08.65-1.09.27c0-.27,0-.51-.06-.76s0-.14-.14-.17a2.21,2.21,0,0,1-1.34-.91,2,2,0,0,1-.39-.85,1.29,1.29,0,0,1,.94-1.52,1.75,1.75,0,0,1,.88,0Zm-.22,2.13v0c0-.42.06-.84.08-1.27a.09.09,0,0,0,0,0,.76.76,0,0,0-.59,0,.59.59,0,0,0-.17.95A1.11,1.11,0,0,0,68.64,47.15ZM70,44.77a.63.63,0,0,0-.13.2c0,.15,0,.3-.07.45l.05,0,.26.08a.43.43,0,0,0,.46-.68A.4.4,0,0,0,70,44.77Z"/><polygon class="cls-32" points="76.33 44.95 70.79 38.35 75.6 31.78 76.13 36.51 84.16 33.22 79.52 40.55 84.08 41.88 76.33 44.95"/><path class="cls-33" d="M77.83,51.43l-1.51-.79c0-.07.05-.13.07-.19a1.47,1.47,0,0,0-.5-1.76,1.52,1.52,0,0,0-1.44-.25,2.29,2.29,0,0,0-1,.59,1.94,1.94,0,0,0-.61,1.54,1.56,1.56,0,0,0,.44,1A1.39,1.39,0,0,0,74,52a1.15,1.15,0,0,0,.9-.18L74,50.76l.06-.06L74.9,50S75,50,75,50l2,2.4,0,.06c-.13.11-.24.22-.37.31a4.19,4.19,0,0,1-.86.52,2.91,2.91,0,0,1-2.43,0,3.54,3.54,0,0,1-1.33-1.06,3.58,3.58,0,0,1-.82-1.61,3,3,0,0,1,.29-2,3.53,3.53,0,0,1,2-1.74,3,3,0,0,1,2.63.21,4.28,4.28,0,0,1,1.38,1.3,3,3,0,0,1,.56,1.62,3.07,3.07,0,0,1-.24,1.26A1,1,0,0,1,77.83,51.43Z"/><path class="cls-34" d="M64.81,38.56l2.31-2c.06-.05.09,0,.14,0,.5.59,1,1.17,1.51,1.77a3.13,3.13,0,0,1,.67,2.94,2.82,2.82,0,0,1-2,2.13,3.12,3.12,0,0,1-3-.55,3.68,3.68,0,0,1-.45-.43l-1.53-1.79c0-.06,0-.09,0-.15l1.4-1.19.92-.78Zm2.44.14L64.56,41a3.08,3.08,0,0,0,.76.77,1.59,1.59,0,0,0,.85.25,1.83,1.83,0,0,0,1.48-.78A1.61,1.61,0,0,0,68,39.91a2.09,2.09,0,0,0-.44-.88Z"/><path class="cls-35" d="M69.64,44.68c0-.16.06-.31.08-.47a1,1,0,0,1,1.34-.8,1.84,1.84,0,0,1,1.06.83,1.52,1.52,0,0,1,.28.82,1,1,0,0,1-.92,1,2.16,2.16,0,0,1-.87-.15l-.1,0-.06.89.51-.17.38.91a2.75,2.75,0,0,1-1,.28l.08.65-1.09.27c0-.26,0-.51-.06-.76s0-.14-.14-.17a2.21,2.21,0,0,1-1.34-.91,2,2,0,0,1-.39-.85,1.3,1.3,0,0,1,.94-1.52,1.75,1.75,0,0,1,.88.05Zm-.22,2.13v0c0-.42,0-.84.08-1.27a.09.09,0,0,0,0-.05.76.76,0,0,0-.59,0,.55.55,0,0,0-.34.59.58.58,0,0,0,.17.37A1.15,1.15,0,0,0,69.42,46.81Zm1.37-2.38a1.06,1.06,0,0,0-.12.2c0,.15,0,.3-.07.45s0,0,.05,0l.25.08a.46.46,0,0,0,.5-.18.44.44,0,0,0,0-.5A.4.4,0,0,0,70.79,44.43Z"/><polygon class="cls-36" points="77.11 44.61 71.57 38.01 76.38 31.45 76.91 36.17 84.93 32.88 80.3 40.21 84.86 41.54 77.11 44.61"/></g></g></svg>