<svg xmlns="http://www.w3.org/2000/svg" xmlns:xlink="http://www.w3.org/1999/xlink" width="123.767" height="124.145" ><defs><linearGradient id="A" x1=".594" y1=".039" x2=".31" y2="1.06"><stop offset=".641" stop-color="#ffd7a5"/><stop offset="1" stop-color="#faa96c"/></linearGradient><linearGradient id="B" x1=".658" y1="1.042" x2=".398" y2="-.025"><stop offset=".395" stop-color="#ffd7a5"/><stop offset="1" stop-color="#faa96c"/></linearGradient><clipPath id="C"><path d="M1132.706 257.9c-4.68-7.02-14.155-12.482-11.7-.781.118 3.117 6.241 6.237 11.7.781z" transform="translate(-1120.608 -250.299)" fill="none"/></clipPath><linearGradient id="D" y1=".5" x2="1" y2=".5"><stop offset="0" stop-color="#db8937"/><stop offset="1" stop-color="#973143"/></linearGradient><linearGradient id="E" x1="57.584" y1="-22.864" x2="57.605" y2="-23.7"><stop offset="0" stop-color="#ddf5f5" stop-opacity=".4"/><stop offset="1" stop-color="#c6d9db" stop-opacity="0"/></linearGradient><linearGradient id="F" x1=".634" y1=".062" x2=".445" y2="1.153"><stop offset=".345" stop-color="#fabb80"/><stop offset="1" stop-color="#faa16c"/></linearGradient><linearGradient id="G" x1=".449" y1="1.001" x2=".511" y2=".128"><stop offset=".341" stop-color="#ffd7a5"/><stop offset="1" stop-color="#faa96c"/></linearGradient><linearGradient id="H" x1="48.06" y1="-18.747" x2="48.082" y2="-19.582" xlink:href="#E"/><linearGradient id="I" x1=".004" y1="-.052" x2=".849" y2="1.214"><stop offset="0" stop-color="#c38951"/><stop offset="1" stop-color="#a73d2a"/></linearGradient><linearGradient id="J" x1=".703" y1="-.323" x2=".286" y2="1.291" xlink:href="#I"/><clipPath id="K"><path d="M1126.405 268.059c8.58.78 20.436-1.246 25.817-3.354-5.616 9.045-18.018 14.273-23.479 13.493-5.707-.816-3.12-4.68-2.338-10.139z" transform="translate(-1125.14 -264.705)" fill="none"/></clipPath><linearGradient id="L" x1=".341" y1="-.02" x2=".583" y2=".684" xlink:href="#I"/><linearGradient id="M" x1=".401" y1="-.092" x2=".554" y2=".845" xlink:href="#I"/><linearGradient id="N" x1="-50.505" y1="47.69" x2="-51.142" y2="49.103" xlink:href="#A"/><linearGradient id="O" x1="-79.156" y1="101.199" x2="-80.251" y2="101.738"><stop offset=".641" stop-color="#fabb80"/><stop offset="1" stop-color="#faa96c"/></linearGradient></defs><path d="M94.052 21.856c10.92 9.361 6.183 48.845 4.68 61.621-1.559 13.26-29.64 35.88-41.34 38.219s-23.4 4.68-22.621-1.559 4.68-33.541 3.12-39.78-31.2-27.3-9.36-46.019c9.361-6.237 65.521-12.482 65.521-12.482z" fill="url(#A)"/><path d="M42.571 60.081c2.034 4.069 4.68 14.821 2.341 16.38s-4.249 3.469-7.584 1.345-11.137-14.364-10.357-16.824 14.04-4.022 15.6-.901z" fill="url(#B)"/><path d="M47.25 74.905c-4.68-7.02-14.155-12.482-11.7-.781.118 3.117 6.241 6.237 11.7.781z" fill="#fff"/><g clip-path="url(#C)" transform="translate(35.152 67.303)"><circle cx="6.761" cy="5.894" r="3.977" fill="url(#D)"/><path d="M10.035 5.77c.069 1.808-1.341 3.329-3.148 3.398S3.557 7.828 3.488 6.02s1.34-3.33 3.147-3.399a3.28 3.28 0 0 1 3.4 3.149z" fill="url(#E)"/><circle cx="3.779" cy="4.088" r="1.334" fill="#fff"/></g><path d="M47.25 74.901c-8.58-7.8-12.48-8.582-11.7-.781-3.898-12.48 7.8-7.019 11.7.781z" fill="#945c38"/><path d="M55.051 85.821c-2.523 3.784-27.3 8.58-31.2 6.241 7.019-4.68 21.06-16.38 21.839-21.06s3.9-3.9 4.68-.781 6.242 13.261 4.681 15.6z" fill="url(#F)"/><path d="M55.33 58.172c-3.546 1.619-.577 17.078 1.912 19.633s21.989 1.776 24.33-3.686 4.68-12.48.78-14.819-22.843-3.036-27.022-1.128z" fill="url(#G)"/><path d="M55.832 74.121c12.48-14.819 23.549-6.239 24.645 0-4.83 6.24-18.401 5.461-24.645 0z" fill="#fff"/><circle cx="70.813" cy="72.368" r="4.774" fill="url(#D)"/><path d="M74.743 72.218a3.93 3.93 0 0 1-6.601 3.035 3.93 3.93 0 0 1 2.522-6.814c2.17-.083 3.996 1.609 4.079 3.779z" fill="url(#H)"/><circle cx="67.233" cy="70.2" r="1.601" fill="#fff"/><path d="M55.832 74.12c11.7-13.26 22.769-9.359 24.645 0-5.611-7.019-11.385-9.359-24.645 0z" fill="#945c38"/><path d="M49.591 51.501c0 4.1 3.279 9.014 7.376 9.834s21.848-.821 27.724 0c-.541-3.279-7.237-6.557-11.334-6.557s-18.85-1.638-18.85-1.638c-.819.417.82 4.515 1.639 5.126-1.639-1.237-4.916-1.849-6.555-6.765z" fill="url(#I)"/><path d="M43.35 56.181c0 4.5-.78 6.239-4.68 6.239s-9.526-3.143-11.782 1.939c-1.394-6.215 1.709-7.814 11.816-7.216 1.493.415 3.866 0 4.646-.962z" fill="url(#J)"/><path d="M44.132 95.182c8.58.78 20.436-1.246 25.817-3.354-5.616 9.045-18.018 14.273-23.479 13.493-5.707-.816-3.12-4.68-2.338-10.139z" fill="#871131"/><g clip-path="url(#K)" transform="translate(42.867 91.828)"><path d="M3.759 3.502a17.39 17.39 0 0 1 .625 5.313c5.461 0 14.821-2.341 20.28-4.68 3.9-4.68 3.284-5.328 3.284-5.328z" fill="#fff"/></g><path d="M97.172 16.401c0 4.68 0 8.58-5.461 10.141s-52.657 20.1-71.178 20.578c.4 3.3.38 10.018 4.189 15.389C8.162 49.852-2.352 43.547.452 35.901c8.58-23.4 75.661-39.78 82.68-35.1s14.04 11.699 14.04 15.6z" fill="url(#L)"/><path d="M92.668 22.824c7.448-12.846 24.784-7.982 31.023-5.643.781 13.261-4.68 29.641-7.8 33.541 6.241 4.68 8.638 8.556-.751 13.638-6.268 3.522-14.848 2.742-16.409-1.939-3.9 1.561-4.68 6.241-4.68 11.7a4.82 4.82 0 0 1-5.459-.78c-.781-17.16 8.58-22.238 8.58-22.238-7.799-8.181-9.788-18.737-4.504-28.279z" fill="url(#M)"/><path d="M95.679 70.405c.807-3.822 11.256-15.318 24.112-5.645 10.577 7.957-14.991 18.663-18.988 19.374s-7.25-3.659-5.124-13.729z" fill="url(#N)"/><path d="M100.125 71.058c6.539-.339 7.885 3.752 6.149 6.741 6.5.221 11.636-5.517 11.178-7.579-1.562-7.023-15.049-1.423-17.327.838z" fill="url(#O)"/></svg>
