<svg xmlns="http://www.w3.org/2000/svg" xmlns:xlink="http://www.w3.org/1999/xlink" viewBox="0 0 119.07 100.06"><defs><style>.cls-1{fill:none;}.cls-2{fill:url(#Безымянный_градиент_159);}.cls-3{fill:url(#Безымянный_градиент_1147);}.cls-4{fill:url(#Безымянный_градиент_1146);}.cls-5{fill:url(#Безымянный_градиент_762);}.cls-6{fill:url(#Безымянный_градиент_762-2);}.cls-7{fill:url(#Безымянный_градиент_201);}.cls-8{fill:url(#Безымянный_градиент_493);}.cls-9{fill:#fff;}.cls-10{fill:url(#Безымянный_градиент_73);}.cls-11{fill:url(#Безымянный_градиент_725);}.cls-12{clip-path:url(#clip-path);}.cls-13{fill:url(#Безымянный_градиент_73-2);}.cls-14{fill:url(#Безымянный_градиент_725-2);}.cls-15{fill:url(#Новый_образец_градиента_копия_2);}.cls-16{fill:url(#Новый_образец_градиента_копия_2-2);}.cls-17{fill:url(#Безымянный_градиент_344);}.cls-18{fill:url(#Безымянный_градиент_280);}.cls-19{fill:url(#Безымянный_градиент_280-2);}.cls-20{fill:url(#Безымянный_градиент_265);}.cls-21{fill:url(#Безымянный_градиент_253);}.cls-22{fill:url(#Безымянный_градиент_266);}.cls-23{fill:url(#Безымянный_градиент_266-2);}.cls-24{fill:url(#Новый_образец_градиента_копия_2-3);}.cls-25{fill:url(#Новый_образец_градиента_копия_2-4);}.cls-26{clip-path:url(#clip-path-2);}.cls-27{opacity:0.2;}</style><linearGradient id="Безымянный_градиент_159" x1="61.53" y1="44.25" x2="63.95" y2="100.92" gradientUnits="userSpaceOnUse"><stop offset="0.64" stop-color="#ffd7a5"/><stop offset="1" stop-color="#faa96c"/></linearGradient><linearGradient id="Безымянный_градиент_1147" x1="72.88" y1="73.39" x2="69.88" y2="53.06" gradientUnits="userSpaceOnUse"><stop offset="0.37" stop-color="#ffd7a5"/><stop offset="1" stop-color="#faa96c"/></linearGradient><linearGradient id="Безымянный_градиент_1146" x1="43.49" y1="78.02" x2="40.51" y2="57.8" gradientUnits="userSpaceOnUse"><stop offset="0.41" stop-color="#ffd7a5"/><stop offset="1" stop-color="#faa96c"/></linearGradient><linearGradient id="Безымянный_градиент_762" x1="748.27" y1="178.4" x2="748.27" y2="182.58" gradientTransform="translate(-670.2 -200.33) rotate(7.77)" gradientUnits="userSpaceOnUse"><stop offset="0" stop-color="#c3a19b"/><stop offset="0.23" stop-color="#c0a597"/><stop offset="0.46" stop-color="#b7af8b"/><stop offset="0.69" stop-color="#a7c176"/><stop offset="0.92" stop-color="#92d95a"/><stop offset="1" stop-color="#89e34f"/></linearGradient><linearGradient id="Безымянный_градиент_762-2" x1="52.23" y1="76.58" x2="52.23" y2="82.88" gradientTransform="matrix(1, 0, 0, 1, 0, 0)" xlink:href="#Безымянный_градиент_762"/><linearGradient id="Безымянный_градиент_201" x1="57.46" y1="68.95" x2="47.41" y2="79.08" gradientUnits="userSpaceOnUse"><stop offset="0.22" stop-color="#ffd7a5"/><stop offset="0.84" stop-color="#fa5763"/></linearGradient><radialGradient id="Безымянный_градиент_493" cx="54.7" cy="78.4" r="3.62" gradientUnits="userSpaceOnUse"><stop offset="0" stop-color="#fcffff" stop-opacity="0.4"/><stop offset="0.18" stop-color="#f8fef9" stop-opacity="0.42"/><stop offset="0.36" stop-color="#edfbe8" stop-opacity="0.48"/><stop offset="0.54" stop-color="#daf7cc" stop-opacity="0.58"/><stop offset="0.72" stop-color="#c0f0a3" stop-opacity="0.71"/><stop offset="0.9" stop-color="#9fe870" stop-opacity="0.89"/><stop offset="1" stop-color="#89e34f"/></radialGradient><linearGradient id="Безымянный_градиент_73" x1="69.65" y1="64.41" x2="77.8" y2="64.41" gradientUnits="userSpaceOnUse"><stop offset="0" stop-color="#93a779"/><stop offset="1" stop-color="#37a385"/></linearGradient><linearGradient id="Безымянный_градиент_725" x1="46.37" y1="-31.56" x2="46.52" y2="-37.6" gradientTransform="translate(28.64 101.17) rotate(-2.18)" gradientUnits="userSpaceOnUse"><stop offset="0" stop-color="#ddf5f5" stop-opacity="0.4"/><stop offset="1" stop-color="#c6d9db" stop-opacity="0"/></linearGradient><clipPath id="clip-path"><path class="cls-1" d="M49.23,69.15c-2.49-8-11-11.91-14.63-1.46C37,71.61,47.47,71.92,49.23,69.15Z"/></clipPath><linearGradient id="Безымянный_градиент_73-2" x1="39.9" y1="66.01" x2="47.52" y2="66.01" xlink:href="#Безымянный_градиент_73"/><linearGradient id="Безымянный_градиент_725-2" x1="16.32" y1="-31.33" x2="16.46" y2="-36.97" xlink:href="#Безымянный_градиент_725"/><linearGradient id="Новый_образец_градиента_копия_2" x1="61.92" y1="63.85" x2="81.43" y2="63.85" gradientUnits="userSpaceOnUse"><stop offset="0" stop-color="#5d7d91"/><stop offset="1" stop-color="#374b6b"/></linearGradient><linearGradient id="Новый_образец_градиента_копия_2-2" x1="34.6" y1="64.8" x2="49.23" y2="64.8" xlink:href="#Новый_образец_градиента_копия_2"/><linearGradient id="Безымянный_градиент_344" x1="49.56" y1="75.47" x2="54.39" y2="86.6" gradientUnits="userSpaceOnUse"><stop offset="0" stop-color="#e1a783"/><stop offset="1" stop-color="#c7816b"/></linearGradient><linearGradient id="Безымянный_градиент_280" x1="71.14" y1="38.63" x2="70.8" y2="60.94" gradientUnits="userSpaceOnUse"><stop offset="0" stop-color="#dfaf77"/><stop offset="1" stop-color="#d58f3d"/></linearGradient><linearGradient id="Безымянный_градиент_280-2" x1="40.94" y1="38.17" x2="40.61" y2="60.46" xlink:href="#Безымянный_градиент_280"/><linearGradient id="Безымянный_градиент_265" x1="75.41" y1="11.07" x2="29.89" y2="54.72" gradientUnits="userSpaceOnUse"><stop offset="0" stop-color="#e9c58f"/><stop offset="1" stop-color="#e59d51"/></linearGradient><linearGradient id="Безымянный_градиент_253" x1="99.69" y1="33.65" x2="101.71" y2="80.75" gradientUnits="userSpaceOnUse"><stop offset="0" stop-color="#dfaf77"/><stop offset="1" stop-color="#e59d51"/></linearGradient><linearGradient id="Безымянный_градиент_266" x1="73.91" y1="11.61" x2="23.67" y2="34.45" gradientUnits="userSpaceOnUse"><stop offset="0" stop-color="#fff" stop-opacity="0"/><stop offset="1" stop-color="#e4e9eb" stop-opacity="0.6"/></linearGradient><linearGradient id="Безымянный_градиент_266-2" x1="101.12" y1="30.56" x2="109.95" y2="82.78" xlink:href="#Безымянный_градиент_266"/><linearGradient id="Новый_образец_градиента_копия_2-3" x1="73.36" y1="-5.05" x2="71.69" y2="29.46" xlink:href="#Новый_образец_градиента_копия_2"/><linearGradient id="Новый_образец_градиента_копия_2-4" x1="68.71" y1="9.91" x2="72.76" y2="62.03" xlink:href="#Новый_образец_градиента_копия_2"/><clipPath id="clip-path-2"><path class="cls-1" d="M113.17,33.06c2.92-.27,1,4,.21,6.13s.36,3.24-4.22,5.42c-3.79,1.82-16,6.4-31.44-4.91s-40-9.55-48-8.05S29.12,19.51,32,19s34.58-2.25,50.31,6C93.73,31,102.3,34.06,113.17,33.06Z"/></clipPath></defs><g id="Слой_2" data-name="Слой 2"><g id="Слой_2-2" data-name="Слой 2"><path class="cls-2" d="M79.52,18.72c10.93,2.61,21.85,20.89,20,35.91S80.74,95.12,67.38,97.73,35.81,103.61,31,89.89s-.61-24.16-4.25-29.38S22.46,44.18,27.32,39,79.52,18.72,79.52,18.72Z"/><path class="cls-3" d="M60.7,69c-2-4.25-1.82-15,2.43-15s15.95-4.57,18,0S85,67.69,79.52,70.3,62.52,72.92,60.7,69Z"/><path class="cls-4" d="M33.39,68c-.93-5.5,0-10.78,3.64-10.78s9.41-.24,11.08,4.13,4.29,6.74.85,10.78S34,71.61,33.39,68Z"/><path class="cls-5" d="M50.6,78.63c-3.15-.43-.37,3.25-3.37,3.25-2.62-.35-.07-2.21-4-3C45.54,77.6,50.21,77.51,50.6,78.63Z"/><path class="cls-6" d="M56.23,77.88c-3,1,0,5-3,5-3.81,0-1-4-5-4C52,76,55.27,76,56.23,77.88Z"/><path class="cls-7" d="M54.73,64.54c3,0,4.25,11.76,1.82,13.72s-15,2.61-15.71,0,9.64-6.53,10.85-9.15S53.51,64.54,54.73,64.54Z"/><circle class="cls-8" cx="55.68" cy="78.83" r="2.86"/><path class="cls-9" d="M61.92,69c1.82-7.18,12.93-15,19.51-4.57C79.52,70.3,70.42,72.92,61.92,69Z"/><path class="cls-9" d="M49.23,69.15c-2.49-8-11-11.91-14.63-1.46C37,71.61,47.47,71.92,49.23,69.15Z"/><ellipse class="cls-10" cx="73.73" cy="64.41" rx="4.08" ry="4.38"/><path class="cls-11" d="M77.08,64.27A3.5,3.5,0,0,1,73.85,68a3.46,3.46,0,0,1-3.48-3.47A3.51,3.51,0,0,1,73.6,60.8,3.47,3.47,0,0,1,77.08,64.27Z"/><ellipse class="cls-9" cx="70.67" cy="62.42" rx="1.37" ry="1.47"/><g class="cls-12"><ellipse class="cls-13" cx="43.71" cy="66.01" rx="3.81" ry="4.1"/><path class="cls-14" d="M46.84,65.88a3.15,3.15,0,1,1-3.25-3.24A3.23,3.23,0,0,1,46.84,65.88Z"/><ellipse class="cls-9" cx="40.85" cy="64.15" rx="1.28" ry="1.37"/></g><path class="cls-15" d="M61.92,69c3-9.8,14.75-15,19.51-4.57C77.61,60.51,68,57.9,61.92,69Z"/><path class="cls-16" d="M49.23,69.15c-3.16-10.1-11.59-12.38-14.63-1.69C37,61.82,40.79,57.55,49.23,69.15Z"/><path class="cls-17" d="M65,83.36c-4.25,3.92-17.6,5.88-21.85,4.58-2.43-3.92.72-5.23,2.43-5.23C49.78,82.71,56.45,86.63,65,83.36Z"/><path class="cls-18" d="M59.48,52c-.6,1.38-1.9,7.63.87,7.44s13.71-6.72,14.92-6.72,7.87,1,7.87,1c-3-4.24-14.55-4.23-17-3.25a9.64,9.64,0,0,0-1.82,2.93V50.71Z"/><path class="cls-19" d="M47.35,52.67c.61,2,1.47,7.7-.48,7.12s-8.63-2.55-10.45-2.55-3.12,3.47-3.12,3.47c-.52-3.47.75-9.34,8.62-7.38a12,12,0,0,1,3.61,2.61,9.87,9.87,0,0,0-1.22-2.61Z"/><path class="cls-20" d="M96.52,21.33c0-12.41,1.82-17-7.89-18.28C44.92-2.83,36.42,37.65,0,48.76c9.11,17,22.27,21.58,28.53,22.2,1.21-13.06-9.11-17.63-1.21-27.43C30.42,39.68,89.84,48.76,96.52,21.33Z"/><path class="cls-21" d="M95.33,18.72c1.19-2,8.47-5.88,9.69-5.88s-3,20.9,1.82,26.77,20,13.35,7.28,24.16-17,19.59-31,15C88,74.88,95.3,66.39,94.7,48.1c-.25-7.29-4.51-16.59-4.51-16.59C88.63,29.17,90.5,22,95.33,18.72Z"/><path class="cls-22" d="M88.63,3.05c-4.25,2.61-13.41,11.58-14.9,17.54-13.91.17-33.06,4-40.34,9.23C46.13,10.23,78.91.43,88.63,3.05Z"/><path class="cls-23" d="M97.12,29.17c4.25,7.18,13.36,13.06,18.22,22.85-2.43,2.61-8.8,8.78-11.38,11.25.29-5.52.1-10.89-1.24-12.37.35,9.43-2.77,16.36-5.4,19.84.82-10,1.63-28.51-2-35.7C97.12,29.17,92.27,29.82,97.12,29.17Z"/><path class="cls-24" d="M30.33,29.88C40,.41,70.86-6.14,108,5.32c2.86,3.28-5.09,8.81-1.69,15.6s9.7,8.41,4.55,19.87C86.87,50.07,81.27,20.6,30.33,29.88Z"/><path class="cls-25" d="M113.17,33.06c2.92-.27,1,4,.21,6.13s.36,3.24-4.22,5.42c-3.79,1.82-16,6.4-31.44-4.91s-40-9.55-48-8.05S29.12,19.51,32,19s34.58-2.25,50.31,6C93.73,31,102.3,34.06,113.17,33.06Z"/><g class="cls-26"><g class="cls-27"><path d="M31.91,34.3a1.44,1.44,0,0,1-1.31-.82c-2.74-5.95,3.21-14.93,7.31-18.28a1.49,1.49,0,0,1,2,.15,1.32,1.32,0,0,1-.16,1.92c-3.9,3.2-8.51,10.85-6.55,15.11a1.35,1.35,0,0,1-.74,1.8A1.42,1.42,0,0,1,31.91,34.3Z"/></g><g class="cls-27"><path d="M40.37,34.12A1.43,1.43,0,0,1,39,33.2C37.14,28,42.66,17.73,44.31,15.46a1.47,1.47,0,0,1,2-.35,1.33,1.33,0,0,1,.36,1.9c-1.79,2.47-6.28,11.57-4.93,15.31a1.36,1.36,0,0,1-.89,1.73A1.53,1.53,0,0,1,40.37,34.12Z"/></g><g class="cls-27"><path d="M50.34,34.12a1.43,1.43,0,0,1-1.26-.71c-2.17-3.79,3-15.43,4-17.72A1.46,1.46,0,0,1,55,15a1.33,1.33,0,0,1,.73,1.79c-2.77,6-5.14,13.59-4.15,15.33A1.33,1.33,0,0,1,51,34,1.51,1.51,0,0,1,50.34,34.12Z"/></g><g class="cls-27"><path d="M62.28,36.2a1.6,1.6,0,0,1-.57-.11,1.36,1.36,0,0,1-.74-1.8c.59-1.27,3-11.2,4.42-17.16a1.44,1.44,0,0,1,1.71-1,1.37,1.37,0,0,1,1.08,1.63c-.38,1.61-3.7,15.74-4.59,17.67A1.43,1.43,0,0,1,62.28,36.2Z"/></g><g class="cls-27"><path d="M74,39.7a1.46,1.46,0,0,1-.85-.27,1.32,1.32,0,0,1-.29-1.91c2.57-3.27,3-14.1,3-18a1.39,1.39,0,0,1,1.41-1.38h0a1.39,1.39,0,0,1,1.43,1.34c0,1.53.09,15.06-3.52,19.67A1.47,1.47,0,0,1,74,39.7Z"/></g><g class="cls-27"><path d="M83.72,46.25a1.43,1.43,0,0,1-1.08-.48,1.31,1.31,0,0,1,.15-1.92C85.34,41.77,86.12,30.94,86,24.6a1.43,1.43,0,0,1,2.86,0c0,3,.08,17.85-4.22,21.36A1.47,1.47,0,0,1,83.72,46.25Z"/></g><g class="cls-27"><path d="M92.34,48.65a1.48,1.48,0,0,1-1-.43,1.33,1.33,0,0,1,.06-1.93c3.37-3,3.06-14,2.66-17.92a1.39,1.39,0,0,1,1.29-1.49,1.42,1.42,0,0,1,1.56,1.23C97,29.7,98.3,43.79,93.32,48.27A1.45,1.45,0,0,1,92.34,48.65Z"/></g><g class="cls-27"><path d="M101.6,49.8a1.42,1.42,0,0,1-1-.39,1.32,1.32,0,0,1,0-1.93c2.64-2.59,1.85-11.61.74-16.68a1.36,1.36,0,0,1,1.1-1.62,1.43,1.43,0,0,1,1.69,1.06c.33,1.48,3.08,14.66-1.47,19.14A1.46,1.46,0,0,1,101.6,49.8Z"/></g><g class="cls-27"><path d="M107.73,47.89a1.51,1.51,0,0,1-.65-.15,1.33,1.33,0,0,1-.61-1.84c2.4-4.44,2.13-15.06,2.12-15.17a1.43,1.43,0,0,1,2.86-.07c0,.46.29,11.43-2.44,16.49A1.46,1.46,0,0,1,107.73,47.89Z"/></g></g></g></g></svg>