<svg xmlns="http://www.w3.org/2000/svg" xmlns:xlink="http://www.w3.org/1999/xlink" width="308.257" height="294.405" ><defs><linearGradient id="A" x1="-.354" y1=".859" x2=".651" y2=".458"><stop offset="0" stop-color="#ddf5f5"/><stop offset="1" stop-color="#adb7c1"/></linearGradient><linearGradient id="B" x1=".521" y1=".695" x2=".585" y2="1.119"><stop offset=".641" stop-color="#ffd7a5"/><stop offset="1" stop-color="#faa96c"/></linearGradient><linearGradient id="C" x1=".446" y1="-.024" x2=".559" y2="1.055" xlink:href="#B"/><linearGradient id="D" x1=".511" y1=".989" x2=".473" y2="-.13"><stop offset=".341" stop-color="#ffd7a5"/><stop offset="1" stop-color="#faa96c"/></linearGradient><linearGradient id="E" x1=".517" y1="1.03" x2=".49" y2=".029"><stop offset=".363" stop-color="#ffd7a5"/><stop offset="1" stop-color="#faa96c"/></linearGradient><clipPath id="F"><path d="M121.954 379.794c5.656-27.824 29.9-21.916 43.362-2.98-4.486 17.921-38.876 18.448-43.362 2.98z" transform="translate(-121.954 -360.752)" fill="none"/></clipPath><linearGradient id="G" x1="-1.838" y1=".979" x2="-1.817" y2=".143"><stop offset="0" stop-color="#9c3f39"/><stop offset="1"/></linearGradient><clipPath id="H"><path d="M150.272 380.568c6.726-23.5 35.1-37.084 59.336-11.106-3.808 20.327-40.591 28.209-59.336 11.106z" transform="translate(-150.272 -355.357)" fill="none"/></clipPath><linearGradient id="I" x1="26.057" y1="-14.206" x2="26.079" y2="-15.041" xlink:href="#G"/><linearGradient id="J" x1=".435" y1=".117" x2=".478" y2=".513"><stop offset="0" stop-color="#ddf5f5"/><stop offset="1" stop-color="#c6d9db"/></linearGradient><linearGradient id="K" x1=".502" y1=".49" x2=".4" y2=".925"><stop offset="0" stop-color="#fff" stop-opacity="0"/><stop offset="1" stop-color="#e4e9eb"/></linearGradient><linearGradient id="L" x1=".52" y1="-.027" x2=".485" y2=".91"><stop offset="0" stop-color="#ba3434"/><stop offset=".465" stop-color="#a92f2f"/><stop offset=".888" stop-color="#962a2a"/></linearGradient><linearGradient id="M" x1=".408" y1=".183" x2=".632" y2=".956"><stop offset="0" stop-color="#fff" stop-opacity=".2"/><stop offset="1" stop-color="#fff"/></linearGradient><linearGradient id="N" x1=".563" y1="-.044" x2=".469" y2="1.103"><stop offset=".366" stop-color="#fac38f"/><stop offset=".827" stop-color="#faa96c"/></linearGradient><linearGradient id="O" x1="191.713" y1="-19.721" x2="191.68" y2="-18.785" xlink:href="#L"/><linearGradient id="P" x1=".451" y1=".018" x2=".486" y2=".701" xlink:href="#J"/><linearGradient id="Q" x1=".473" y1="-.09" x2=".504" y2=".66" xlink:href="#A"/><linearGradient id="R" x1=".396" y1="-.172" x2=".521" y2=".697" xlink:href="#A"/><linearGradient id="S" x1=".521" y1="-.219" x2=".486" y2=".875" xlink:href="#A"/><linearGradient id="T" x1=".39" y1="-.103" x2=".575" y2=".997" xlink:href="#A"/><linearGradient id="U" x1=".226" y1="-.059" x2=".724" y2=".919" xlink:href="#A"/><clipPath id="V"><path d="M158.047 397.207c12.5-1.388 19.445-1.388 34.723-6.945-31.943-16.666-19.818-6.554-41.519-4.153-5.126.555-9.87-2.792-8.481 13.877 0 .001 2.552-1.363 15.277-2.779z" transform="translate(-142.525 -380.875)" fill="none"/></clipPath></defs><path d="M38.382 122.404c25.165-2.649 35.762 14.571 18.542 35.762s-19.867 41.061-19.867 41.061c-45.035-2.649-38.412-41.061-15.9-47.684-1.32-19.867 5.303-25.167 17.225-29.139z" fill="url(#A)"/><path d="M145.205 90.845C86.633 104.852 36.972 135.41 36.972 210.539c0 29.285 26.742 64.938 68.76 59.846 19.1 1.273 105.687 21.646 143.886-35.653S264.899 79.384 145.205 90.845z" fill="url(#B)"/><path d="M119.397 224.478c-18.09 8.839-33.465 17.566-27.02 39.209s67.945 56.972 126.581-.606c17.765-15.879-72.877-51.641-99.561-38.603z" fill="url(#C)"/><path d="M87.658 150.8c8.712 5.053 18.075 48.278 2.795 61.013s-48.366 9.888-47.111-8.915c1.273-19.1 2.843-27.666 8.912-36.926s22.424-22.704 35.404-15.172z" fill="url(#D)"/><path d="M132.604 196.933c-3.953-18.227-16.684-48.788 2.416-58.976s59.739 4.32 64.938 16.554c21.649 50.934-44.3 79.752-67.354 42.422" fill="url(#E)"/><path d="M49.706 204.171c4.383-27.787 28.63-21.879 42.089-2.943-4.487 17.92-37.603 18.411-42.089 2.943z" fill="#fff"/><g clip-path="url(#F)" transform="translate(48.433 185.166)"><circle cx="31.511" cy="14.706" r="13.093" fill="#9c3f39"/><path d="M42.294 14.707a10.78 10.78 0 0 1-18.406 7.624 10.78 10.78 0 0 1 7.624-18.406c5.954.001 10.781 4.828 10.782 10.782z" fill="url(#G)" style="mix-blend-mode:screen"/><circle cx="20.765" cy="8.39" r="4.39" fill="#fff"/></g><path d="M49.706 204.171c.218-26.4 32.161-27.787 42.089-2.943-13.463-15.945-36.318-17.9-42.089 2.943z" fill="#472c20"/><path d="M134.272 194.023c6.726-23.5 35.1-35.693 59.336-11.106-3.808 20.327-40.591 28.208-59.336 11.106z" fill="#fff"/><g clip-path="url(#H)" transform="translate(134.272 168.812)"><circle cx="34.305" cy="14.309" r="15.576" fill="#9c3f39"/><path d="M47.121 13.82a12.83 12.83 0 0 1-21.537 9.897 12.83 12.83 0 0 1 8.237-22.225 12.83 12.83 0 0 1 13.3 12.328z" fill="url(#I)" style="mix-blend-mode:screen"/><circle cx="22.625" cy="7.236" r="5.223" fill="#fff"/></g><path d="M134.272 194.024c8.709-35.693 44.82-31.528 59.336-11.107-15.908-10.697-47.851-16.253-59.336 11.107z" fill="#472c20"/><path d="M92.114 156.511c-8.027-17.278-27.126-14.883-42.407 13.844 10.185-11.313 27.514-25.85 42.407-13.844z" fill="url(#J)"/><g transform="translate(21.067 164.584)"><ellipse cx="42.779" cy="37.446" rx="36.68" ry="31.962" fill="url(#K)"/><path d="M41.51 0C18.585 0 0 16.2 0 36.172s18.584 36.172 41.51 36.172 41.513-16.193 41.513-36.172S64.438 0 41.51 0zm1.27 69.406c-20.258 0-36.681-14.307-36.681-31.961S22.522 5.484 42.78 5.484s36.678 14.31 36.678 31.961S63.037 69.406 42.78 69.406z" fill="url(#L)"/><ellipse cx="16.496" cy="10.23" rx="16.496" ry="10.23" transform="matrix(.901667 -.432432 .432432 .901667 7.613 20.383)" fill="url(#M)"/></g><path d="M135.02 223.271c16.554 1.273 41.637 12.71 52.016 20.364-8.535-11.437-30.37-22.91-52.016-20.364zm-43.407 42.747c-2.367-9.076 1.364-25.644 5.153-33.365-7.078 7.869-11.488 22.743-5.153 33.365z" fill="#e36d4f"/><path d="M109.416 185.072c-5.374 25.526-24.183 30.9-21.494 48.363s42.243 5.59 48.363-4.029c9.402-14.777-18.809-21.494-26.869-44.334z" fill="url(#N)"/><g transform="translate(125.625 144.957)"><ellipse cx="41.364" cy="33.692" rx="41.364" ry="33.692" transform="matrix(.993493 -.113897 .113897 .993493 .612 11.045)" fill="url(#K)"/><path d="M.499 45.568c3.738 20.74 27.463 34.28 52.989 30.246s43.186-24.116 39.448-44.856S65.473-3.322 39.947.712-3.238 24.828.499 45.568zm4.207.694c-3.3-18.324 12.3-36.072 34.856-39.636s43.516 8.4 46.82 26.726-12.3 36.072-34.859 39.636S8.011 64.586 4.707 46.262z" fill="url(#O)"/><ellipse cx="18.339" cy="10.939" rx="18.339" ry="10.939" transform="matrix(.894 -.448 .448 .894 5.12 24.992)" fill="url(#M)"/></g><path d="M125.624 148.597c4.3-24.644 39.985-25.893 67.984-1.076-25.495-7.666-51.912-18.848-67.984 1.076z" fill="url(#P)"/><path d="M142.7 96.245c11.922-54.3-25.165-59.6-51.655-59.6C89.715-20.312 30.112.879 27.463 22.071c-10.6-7.945-36.641 3.9-24.141 24.735 9.327 35.907 116.857 64.01 139.378 49.439z" transform="matrix(.981627 -.190809 .190809 .981627 125.877 27.666)" fill="url(#Q)"/><path d="M112.556 41.607c-29.3-47.166-72.355-4.11-66.226 10.6-34.438-6.623-38.412 31.789-17.22 42.386 30.464 2.649 72.85 6.623 79.473-6.623 31.788 0 34.438-6.623 30.464-18.545 22.518-10.598 9.272-51.659-26.491-27.818z" fill="url(#R)"/><path d="M219.843 82.667c-26.49-11.922-30.464 18.545-14.571 30.464-13.243 35.762 13.586 50.064 35.932 47.548-5.635 22.789 26.323 46.5 44.865 18.678 37.087-15.893 18.545-38.409 9.273-38.409 25.165-33.116-21.191-50.334-35.762-38.412 5.298-19.869-15.896-37.086-39.737-19.869z" fill="url(#S)"/><path d="M189.379 66.774c-11.725-36.454-55.074-23.741-60.288-7.057-20.834-11.113-31.106 22.949-12.561 33.547 2.649 25.165 39.736 17.217 46.36 13.243-1.325 23.844 42.383 31.791 55.629 11.922 27.815 6.623 31.649-24.614 11.188-28.2 13.385-34.991-25.76-39.35-40.328-23.455z" fill="url(#T)"/><path d="M87.519 15.258c-26.49-33.113-51.655-3.974-52.98 9.273-41.17-12.907-51.658 56.954 2.649 41.061 7.569 23.81 68.679 2.977 72.85-26.49 31.94-2.476 9.718-55.256-22.519-23.844z" transform="matrix(.987688 .156434 -.156434 .987688 11.88 55.406)" fill="url(#U)"/><path d="M144.851 248.155c-12.378 2.26-16.636 1.167-34.167 9.362 33.046 14.397 20.237 5.154 41.727 1.238 5.077-.913 10.046 2.096 7.493-14.443 0-.001-2.451 1.539-15.052 3.843z" fill="#801320"/><g clip-path="url(#V)" transform="matrix(-.998 .07 -.07 -.998 161.64 263.499)" fill="#fff"><path d="M1.309 2.46l3.822 7.639c2.546 1.273 15.28 1.273 19.1-2.546a45.22 45.22 0 0 0-1.273-8.915zm26.084-4.146c-.615 1.6.658 5.42 1.931 6.693 2.546 0 3.819-1.273 5.662-3.983.7-2.386-2.683-4.944-2.683-4.944z"/></g></svg>
