<svg xmlns="http://www.w3.org/2000/svg" xmlns:xlink="http://www.w3.org/1999/xlink" viewBox="0 0 109.45 124.37"><defs><style>.cls-1{fill:none;}.cls-2{fill:url(#Безымянный_градиент_159);}.cls-3{fill:#e66658;}.cls-4{fill:url(#Безымянный_градиент_1081);}.cls-5{fill:url(#Новый_образец_градиента_копия);}.cls-6{fill:url(#Новый_образец_градиента_копия-2);}.cls-7{fill:url(#Безымянный_градиент_159-2);}.cls-8{fill:url(#Безымянный_градиент_738);}.cls-9{fill:url(#Безымянный_градиент_159-3);}.cls-10{fill:url(#Безымянный_градиент_159-4);}.cls-11{fill:url(#Безымянный_градиент_150);}.cls-12{fill:url(#Безымянный_градиент_150-2);}.cls-13{fill:url(#Безымянный_градиент_122);}.cls-14{fill:url(#Безымянный_градиент_54);}.cls-15{fill:url(#Безымянный_градиент_725);}.cls-16{fill:#fff;}.cls-17{fill:#774d37;}.cls-18{fill:url(#Безымянный_градиент_122-2);}.cls-19{clip-path:url(#clip-path);}.cls-20{fill:url(#Безымянный_градиент_54-2);}.cls-21{fill:url(#Безымянный_градиент_725-2);}.cls-22{fill:url(#Безымянный_градиент_1081-2);}.cls-23{fill:url(#Безымянный_градиент_140);}.cls-24{fill:url(#Новый_образец_градиента_копия_7);}.cls-25{fill:url(#Безымянный_градиент_160);}.cls-26{fill:url(#Безымянный_градиент_738-2);}.cls-27{fill:url(#Новый_образец_градиента_копия_7-2);}.cls-28{fill:url(#Безымянный_градиент_1081-3);}.cls-29{fill:url(#Безымянный_градиент_140-2);}.cls-30{fill:url(#Новый_образец_градиента_копия_7-3);}.cls-31{fill:url(#Безымянный_градиент_160-2);}.cls-32{fill:#c1845b;}</style><linearGradient id="Безымянный_градиент_159" x1="43.91" y1="-12.87" x2="44.47" y2="144.05" gradientUnits="userSpaceOnUse"><stop offset="0.64" stop-color="#ffd7a5"/><stop offset="1" stop-color="#faa96c"/></linearGradient><linearGradient id="Безымянный_градиент_1081" x1="39.32" y1="3.65" x2="39.51" y2="54.23" gradientUnits="userSpaceOnUse"><stop offset="0" stop-color="#9d6545"/><stop offset="1" stop-color="#674137"/></linearGradient><linearGradient id="Новый_образец_градиента_копия" x1="85.63" y1="1.59" x2="75.79" y2="27.93" gradientUnits="userSpaceOnUse"><stop offset="0" stop-color="#faa478"/><stop offset="1" stop-color="#f7694d"/></linearGradient><linearGradient id="Новый_образец_градиента_копия-2" x1="52.33" y1="25.98" x2="73.84" y2="58.32" xlink:href="#Новый_образец_градиента_копия"/><linearGradient id="Безымянный_градиент_159-2" x1="785.18" y1="650.71" x2="779.8" y2="673.87" gradientTransform="matrix(0.99, 0.14, -0.14, 0.99, -599.06, -678.99)" xlink:href="#Безымянный_градиент_159"/><linearGradient id="Безымянный_градиент_738" x1="795.39" y1="655.65" x2="783.11" y2="659.74" gradientTransform="matrix(0.99, 0.14, -0.14, 0.99, -599.06, -678.99)" gradientUnits="userSpaceOnUse"><stop offset="0.64" stop-color="#fabb80"/><stop offset="1" stop-color="#faa16c"/></linearGradient><linearGradient id="Безымянный_градиент_159-3" x1="52" y1="70.48" x2="51.9" y2="44.24" xlink:href="#Безымянный_градиент_159"/><linearGradient id="Безымянный_градиент_159-4" x1="25.66" y1="70.85" x2="25.58" y2="47.35" xlink:href="#Безымянный_градиент_159"/><radialGradient id="Безымянный_градиент_150" cx="26.56" cy="64.53" r="10.05" gradientUnits="userSpaceOnUse"><stop offset="0" stop-color="#f01749"/><stop offset="0.43" stop-color="#f01749" stop-opacity="0.54"/><stop offset="0.82" stop-color="#f01749" stop-opacity="0.15"/><stop offset="1" stop-color="#f01749" stop-opacity="0"/></radialGradient><radialGradient id="Безымянный_градиент_150-2" cx="52.48" cy="64.55" r="13.94" xlink:href="#Безымянный_градиент_150"/><radialGradient id="Безымянный_градиент_122" cx="52.13" cy="64.89" r="7.51" gradientUnits="userSpaceOnUse"><stop offset="0.41" stop-color="#fcffff"/><stop offset="0.48" stop-color="#fcfafb"/><stop offset="0.55" stop-color="#fbebef"/><stop offset="0.64" stop-color="#fad3dc"/><stop offset="0.72" stop-color="#f8b1c2"/><stop offset="0.82" stop-color="#f6859f"/><stop offset="0.91" stop-color="#f35176"/><stop offset="1" stop-color="#f01749"/></radialGradient><linearGradient id="Безымянный_градиент_54" x1="48.74" y1="64.2" x2="58.98" y2="64.2" gradientUnits="userSpaceOnUse"><stop offset="0" stop-color="#bf6545"/><stop offset="1" stop-color="#776125"/></linearGradient><linearGradient id="Безымянный_градиент_725" x1="-129.34" y1="-0.2" x2="-129.16" y2="-7.24" gradientTransform="translate(183.17 63.5) rotate(-2.18)" gradientUnits="userSpaceOnUse"><stop offset="0" stop-color="#ddf5f5" stop-opacity="0.4"/><stop offset="1" stop-color="#c6d9db" stop-opacity="0"/></linearGradient><radialGradient id="Безымянный_градиент_122-2" cx="25.4" cy="64.33" r="6.07" xlink:href="#Безымянный_градиент_122"/><clipPath id="clip-path"><path class="cls-1" d="M30.51,67.21c.86-9.34-8.46-16.19-10.27,0C22.23,72.19,28.35,72.81,30.51,67.21Z"/></clipPath><linearGradient id="Безымянный_градиент_54-2" x1="23.71" y1="63.96" x2="32.17" y2="63.96" xlink:href="#Безымянный_градиент_54"/><linearGradient id="Безымянный_градиент_725-2" x1="-155.22" y1="-2.12" x2="-155.07" y2="-7.94" xlink:href="#Безымянный_градиент_725"/><linearGradient id="Безымянный_градиент_1081-2" x1="27.69" y1="42.94" x2="25.96" y2="58.08" xlink:href="#Безымянный_градиент_1081"/><linearGradient id="Безымянный_градиент_140" x1="17.21" y1="65.35" x2="17.29" y2="81.55" gradientUnits="userSpaceOnUse"><stop offset="0" stop-color="#fff" stop-opacity="0"/><stop offset="1" stop-color="#e4e9eb"/></linearGradient><linearGradient id="Новый_образец_градиента_копия_7" x1="18.32" y1="60.75" x2="14.23" y2="80.98" gradientUnits="userSpaceOnUse"><stop offset="0" stop-color="#cf5555"/><stop offset="1" stop-color="#a64444"/></linearGradient><linearGradient id="Безымянный_градиент_160" x1="9450.25" y1="5182.51" x2="9453.96" y2="5190.49" gradientTransform="matrix(-0.61, 0.18, 0.33, 0.32, 4013.34, -3256.31)" gradientUnits="userSpaceOnUse"><stop offset="0" stop-color="#fff" stop-opacity="0.2"/><stop offset="1" stop-color="#fff"/></linearGradient><linearGradient id="Безымянный_градиент_738-2" x1="29.91" y1="63.24" x2="26.02" y2="83.58" gradientTransform="matrix(1, 0, 0, 1, 0, 0)" xlink:href="#Безымянный_градиент_738"/><linearGradient id="Новый_образец_градиента_копия_7-2" x1="35.42" y1="64.15" x2="35.56" y2="74.82" xlink:href="#Новый_образец_градиента_копия_7"/><linearGradient id="Безымянный_градиент_1081-3" x1="52.04" y1="42.68" x2="50.21" y2="58.69" xlink:href="#Безымянный_градиент_1081"/><linearGradient id="Безымянный_градиент_140-2" x1="8646.01" y1="65.23" x2="8646.09" y2="82.74" gradientTransform="matrix(-1, 0, 0, 1, 8701.21, 0)" xlink:href="#Безымянный_градиент_140"/><linearGradient id="Новый_образец_градиента_копия_7-3" x1="8647.21" y1="60.27" x2="8642.79" y2="82.11" gradientTransform="matrix(-1, 0, 0, 1, 8701.21, 0)" xlink:href="#Новый_образец_градиента_копия_7"/><linearGradient id="Безымянный_градиент_160-2" x1="9589.92" y1="7891.25" x2="9593.63" y2="7899.23" gradientTransform="matrix(-0.61, 0.18, 0.33, 0.32, 3230.34, -4150.36)" xlink:href="#Безымянный_градиент_160"/></defs><g id="Слой_2" data-name="Слой 2"><g id="Слой_2-2" data-name="Слой 2"><path class="cls-2" d="M52.24,16.33c-8.49,1.31-32.65,23.51-32.65,23.51s-1.31,28.81,0,36.61C11.75,85.51-4.43,91.86,19,124c13.57.23,46.94,9.26,62.61-71.71C67.91,17.64,52.24,16.33,52.24,16.33Z"/><path class="cls-3" d="M29.38,14.37c-1.3.65-3.91,8.49-1.3,11.76s9.79-5.88,7.83-8.49S29.38,14.37,29.38,14.37Z"/><path class="cls-4" d="M65.3,24.17A61.52,61.52,0,0,1,19.59,41.8v6.14C6.53,41.8,15,35.27,41.79,13.07,54.85,15.68,65.3,24.17,65.3,24.17Z"/><path class="cls-5" d="M52.89,9.8C58.12,5.23,74.44-3.26,79,1.31s8.49,7.84,11.1,5.88,5.88-3.27,11.76.65c4.86,3.24,9.79,6.53,6.53,11.76S99.23,28.54,98,32.66,92.73,50.29,86.85,52.9,52.89,9.8,52.89,9.8Z"/><path class="cls-6" d="M27.43,24.82c-2-3.92-3.27-8.49,0-11.1s11.75-9.8,17-9.8c11.76,0,55.51,39.18,42.45,55.51-3.27,3.92-9.4,10.92-9.4,10.92.26-12.88-37.06-48.59-42.84-51.41C28.08,15,26.12,21.55,27.43,24.82Z"/><path class="cls-7" d="M72.46,77.73c3.3-5.23,21.89-5.25,22.84,1.54S90.22,95.59,82.77,95.89,68,93.61,67.58,89.45,68.85,83.45,72.46,77.73Z"/><path class="cls-8" d="M78.31,82.1c3.92,3.25,3.26,8.63-2.57,8.54,7,2.47,12.21.64,15-4.7S81.55,80.53,78.31,82.1Z"/><path class="cls-9" d="M43.42,68.15c-3.17-6.41-3.6-22.55,0-23.57s16,2.6,18,6.2,2.61,13-.65,18S47,75.43,43.42,68.15Z"/><path class="cls-10" d="M30.76,71.18c1.62-1.66,1.89-12.41,1.89-15.67-3.53-2.43-11.1-5.22-12.41-3.26s-2.61,16.32-.65,18.93S28.21,73.79,30.76,71.18Z"/><circle class="cls-11" cx="26.56" cy="64.53" r="10.05"/><circle class="cls-12" cx="52.48" cy="64.55" r="13.94"/><path class="cls-13" d="M44.4,67.92c-1.3-9.8,12.81-17,15.55,0C56.94,73.14,47.67,73.79,44.4,67.92Z"/><circle class="cls-14" cx="53.86" cy="64.2" r="5.12"/><path class="cls-15" d="M58.07,64A4.21,4.21,0,1,1,53.7,60,4.21,4.21,0,0,1,58.07,64Z"/><circle class="cls-16" cx="50.02" cy="61.87" r="1.72"/><path class="cls-17" d="M44.4,67.92C43.1,54.2,59.83,51.59,60,67.92,57.46,56.82,46.36,54.86,44.4,67.92Z"/><path class="cls-18" d="M30.51,67.21c.86-9.34-8.46-16.19-10.27,0C22.23,72.19,28.35,72.81,30.51,67.21Z"/><g class="cls-19"><circle class="cls-20" cx="27.94" cy="63.96" r="4.23"/><path class="cls-21" d="M31.42,63.83a3.48,3.48,0,1,1-3.61-3.35A3.49,3.49,0,0,1,31.42,63.83Z"/><circle class="cls-16" cx="24.77" cy="62.04" r="1.42"/></g><path class="cls-17" d="M30.51,67.21c-1.78-11-9-11-10.27,0C20.24,50.29,32.65,57.47,30.51,67.21Z"/><path class="cls-22" d="M32.65,52.25a5.6,5.6,0,0,1,0,4.57C26.77,58.12,20.9,49,19.59,54.2,20.9,45.72,24.16,54.86,32.65,52.25Z"/><path class="cls-23" d="M31.32,67.87C20.85,66,10.27,68.23,3,71c5,11.13,14.07,12.73,21.15,10.58S31.77,71.41,31.32,67.87Z"/><path class="cls-24" d="M32.51,66.12c-12-2.38-24.19.45-32.51,4C5.76,84.25,16.18,86.28,24.32,83.54S33,70.61,32.51,66.12ZM24.19,81.59C17.11,83.74,8.05,82.14,3,71c7.23-2.78,17.81-5,28.28-3.14C31.77,71.41,31.27,79.43,24.19,81.59Z"/><ellipse class="cls-25" cx="11.84" cy="72.12" rx="5.97" ry="1.88" transform="translate(-13.34 3.51) rotate(-10.83)"/><path class="cls-26" d="M37.22,62c2.07,0,6.55,18.53,1.64,21s-25.52,3.6-26.31-1.85S30,72.49,32,68.57,32.65,62,37.22,62Z"/><path class="cls-27" d="M32,66.43c2-1.31,6.55-.66,7.19-.33,0,1.31,0,1.59,0,1.59-3.93-.61-5.89-.61-7.19,0A.89.89,0,0,1,32,66.43Z"/><path class="cls-28" d="M41.79,42.45c-1.3,2-1.82,6.4-.91,6.79,3.13-.52,6.91-4.92,21.22,2.64-.13-2.53-2.19-6.82-17.78-9.43-1.14.65-1.85,2.88-1.85,2.88l.78-2.88Z"/><path class="cls-29" d="M40,68c11.31-2,22.73.39,30.55,3.39C65.1,83.38,55.3,85.1,47.66,82.77S39.48,71.78,40,68Z"/><path class="cls-30" d="M47.53,84.89c8.78,3,20,.76,26.26-14.51-9-3.82-22.12-6.88-35.11-4.31C38.12,70.92,38.74,81.93,47.53,84.89ZM40,68c11.31-2,22.73.39,30.55,3.39C65.1,83.38,55.3,85.1,47.66,82.77S39.48,71.78,40,68Z"/><ellipse class="cls-31" cx="47.76" cy="70.81" rx="5.97" ry="1.88"/><path class="cls-32" d="M42.44,94c-12.4-3.27-21.54-4.57-26.77-2,2.61,5.87,3.27,7.83,2.61,11.1,1.31-1.31.66-9.8.66-9.8C27.43,92.08,35.91,94,42.44,94Z"/></g></g></svg>