<svg xmlns="http://www.w3.org/2000/svg" xmlns:xlink="http://www.w3.org/1999/xlink" viewBox="0 0 103.61 103.93"><defs><style>.cls-1{fill:none;}.cls-2{fill:url(#Безымянный_градиент_159);}.cls-3{fill:url(#Безымянный_градиент_159-2);}.cls-4{fill:url(#Безымянный_градиент_150);}.cls-5{fill:url(#Безымянный_градиент_122);}.cls-6{clip-path:url(#clip-path);}.cls-7{fill:url(#Безымянный_градиент_2776);}.cls-8{fill:url(#Безымянный_градиент_725);}.cls-9{fill:#fff;}.cls-10{fill:#945c38;}.cls-11{fill:url(#Безымянный_градиент_888);}.cls-12{fill:url(#Безымянный_градиент_159-3);}.cls-13{fill:url(#Безымянный_градиент_150-2);}.cls-14{fill:url(#Безымянный_градиент_122-2);}.cls-15{fill:url(#Безымянный_градиент_2776-2);}.cls-16{fill:url(#Безымянный_градиент_725-2);}.cls-17{fill:url(#Безымянный_градиент_1434);}.cls-18{fill:url(#Безымянный_градиент_1434-2);}.cls-19{fill:#871131;}.cls-20{clip-path:url(#clip-path-2);}.cls-21{fill:url(#Безымянный_градиент_1434-3);}.cls-22{fill:url(#Безымянный_градиент_1434-4);}.cls-23{fill:url(#Безымянный_градиент_159-4);}.cls-24{fill:url(#Новый_образец_градиента_копия_4);}</style><linearGradient id="Безымянный_градиент_159" x1="57.22" y1="21.67" x2="38.1" y2="109.03" gradientUnits="userSpaceOnUse"><stop offset="0.64" stop-color="#ffd7a5"/><stop offset="1" stop-color="#faa96c"/></linearGradient><linearGradient id="Безымянный_градиент_159-2" x1="32.95" y1="66.64" x2="28.84" y2="48.42" xlink:href="#Безымянный_градиент_159"/><radialGradient id="Безымянный_градиент_150" cx="33.55" cy="60.56" r="8.13" gradientUnits="userSpaceOnUse"><stop offset="0" stop-color="#f01749"/><stop offset="0.43" stop-color="#f01749" stop-opacity="0.54"/><stop offset="0.82" stop-color="#f01749" stop-opacity="0.15"/><stop offset="1" stop-color="#f01749" stop-opacity="0"/></radialGradient><radialGradient id="Безымянный_градиент_122" cx="34.49" cy="60.77" r="4.76" gradientUnits="userSpaceOnUse"><stop offset="0.41" stop-color="#fcffff"/><stop offset="0.48" stop-color="#fcfafb"/><stop offset="0.55" stop-color="#fbebef"/><stop offset="0.64" stop-color="#fad3dc"/><stop offset="0.72" stop-color="#f8b1c2"/><stop offset="0.82" stop-color="#f6859f"/><stop offset="0.91" stop-color="#f35176"/><stop offset="1" stop-color="#f01749"/></radialGradient><clipPath id="clip-path"><path class="cls-1" d="M39.56,62.7c-3.92-5.87-11.85-10.44-9.8-.65C29.86,64.66,35,67.28,39.56,62.7Z"/></clipPath><linearGradient id="Безымянный_градиент_2776" x1="31.76" y1="61.28" x2="38.42" y2="61.28" gradientUnits="userSpaceOnUse"><stop offset="0" stop-color="#db8937"/><stop offset="1" stop-color="#973143"/></linearGradient><linearGradient id="Безымянный_градиент_725" x1="44.85" y1="-35.66" x2="44.96" y2="-40.24" gradientTransform="translate(-8.33 101.25) rotate(-2.18)" gradientUnits="userSpaceOnUse"><stop offset="0" stop-color="#ddf5f5" stop-opacity="0.4"/><stop offset="1" stop-color="#c6d9db" stop-opacity="0"/></linearGradient><linearGradient id="Безымянный_градиент_888" x1="36.68" y1="57.97" x2="31.69" y2="80.78" gradientUnits="userSpaceOnUse"><stop offset="0.34" stop-color="#fabb80"/><stop offset="1" stop-color="#faa16c"/></linearGradient><linearGradient id="Безымянный_градиент_159-3" x1="56.5" y1="66.33" x2="58.11" y2="50.15" xlink:href="#Безымянный_градиент_159"/><radialGradient id="Безымянный_градиент_150-2" cx="57.83" cy="61.18" r="10.85" xlink:href="#Безымянный_градиент_150"/><radialGradient id="Безымянный_градиент_122-2" cx="57.06" cy="60.46" r="8.19" xlink:href="#Безымянный_градиент_122"/><linearGradient id="Безымянный_градиент_2776-2" x1="55.29" y1="60.58" x2="63.28" y2="60.58" xlink:href="#Безымянный_градиент_2776"/><linearGradient id="Безымянный_градиент_725-2" x1="69.04" y1="-34.91" x2="69.18" y2="-40.41" xlink:href="#Безымянный_градиент_725"/><linearGradient id="Безымянный_градиент_1434" x1="41.63" y1="42.68" x2="66.47" y2="53.35" gradientUnits="userSpaceOnUse"><stop offset="0" stop-color="#c38951"/><stop offset="1" stop-color="#a73d2a"/></linearGradient><linearGradient id="Безымянный_градиент_1434-2" x1="32.13" y1="44.82" x2="26.26" y2="55.87" xlink:href="#Безымянный_градиент_1434"/><clipPath id="clip-path-2"><path class="cls-1" d="M37,79.68c7.18.66,17.11-1,21.61-2.8-4.7,7.57-15.08,11.94-19.66,11.29C34.13,87.49,36.29,84.25,37,79.68Z"/></clipPath><linearGradient id="Безымянный_градиент_1434-3" x1="27.74" y1="-1.05" x2="47.41" y2="35.79" xlink:href="#Безымянный_градиент_1434"/><linearGradient id="Безымянный_градиент_1434-4" x1="85.95" y1="7.33" x2="90.46" y2="54.68" xlink:href="#Безымянный_градиент_1434"/><linearGradient id="Безымянный_градиент_159-4" x1="75.64" y1="653.83" x2="61.07" y2="681.3" gradientTransform="translate(120.07 -611.11) rotate(8.35)" xlink:href="#Безымянный_градиент_159"/><linearGradient id="Новый_образец_градиента_копия_4" x1="85.32" y1="663.65" x2="69.42" y2="668.62" gradientTransform="translate(120.07 -611.11) rotate(8.35)" gradientUnits="userSpaceOnUse"><stop offset="0.64" stop-color="#fabb80"/><stop offset="1" stop-color="#faa96c"/></linearGradient></defs><g id="Слой_2" data-name="Слой 2"><g id="Слой_2-2" data-name="Слой 2"><path class="cls-2" d="M78.74,18.3c9.14,7.84,5.17,40.89,3.92,51.59-1.31,11.1-24.82,30-34.61,32s-19.59,3.92-18.94-1.3S33,72.5,31.72,67.28,5.6,44.42,23.89,28.75C31.72,23.52,78.74,18.3,78.74,18.3Z"/><path class="cls-3" d="M35.64,50.3c1.7,3.4,3.92,12.4,2,13.71S34,66.92,31.25,65.14s-9.32-12-8.67-14.09S34.33,47.69,35.64,50.3Z"/><circle class="cls-4" cx="33.55" cy="60.56" r="8.13"/><path class="cls-5" d="M39.56,62.7c-3.92-5.87-11.85-10.44-9.8-.65C29.86,64.66,35,67.28,39.56,62.7Z"/><g class="cls-6"><circle class="cls-7" cx="35.09" cy="61.28" r="3.33"/><path class="cls-8" d="M37.83,61.17A2.74,2.74,0,1,1,35,58.54,2.74,2.74,0,0,1,37.83,61.17Z"/><circle class="cls-9" cx="32.59" cy="59.77" r="1.12"/></g><path class="cls-10" d="M39.56,62.7c-7.19-6.53-10.45-7.18-9.8-.65C26.5,51.6,36.29,56.17,39.56,62.7Z"/><path class="cls-11" d="M46.09,71.85C44,75,23.23,79,20,77.07c5.87-3.92,17.63-13.71,18.28-17.63s3.27-3.27,3.92-.65S47.39,69.89,46.09,71.85Z"/><path class="cls-12" d="M46.32,48.7c-3,1.36-.48,14.3,1.6,16.44s18.41,1.48,20.37-3.09,3.92-10.45.65-12.41S49.82,47.1,46.32,48.7Z"/><circle class="cls-13" cx="57.83" cy="61.18" r="10.85"/><path class="cls-14" d="M46.74,62.05c10.45-12.41,19.72-5.22,20.63,0C63.33,67.28,52,66.62,46.74,62.05Z"/><circle class="cls-15" cx="59.28" cy="60.58" r="4"/><path class="cls-16" d="M62.57,60.46a3.29,3.29,0,1,1-3.41-3.16A3.28,3.28,0,0,1,62.57,60.46Z"/><circle class="cls-9" cx="56.29" cy="58.77" r="1.34"/><path class="cls-10" d="M46.74,62.05c9.8-11.1,19.06-7.83,20.63,0C62.68,56.17,57.84,54.22,46.74,62.05Z"/><path class="cls-17" d="M41.52,43.11c0,3.44,2.74,7.55,6.17,8.24s18.29-.69,23.21,0c-.45-2.75-6.06-5.49-9.49-5.49s-15.78-1.37-15.78-1.37c-.68.35.69,3.78,1.38,4.29C45.63,47.74,42.89,47.23,41.52,43.11Z"/><path class="cls-18" d="M36.29,47c0,3.77-.65,5.23-3.92,5.23s-8-2.64-9.86,1.62c-1.17-5.2,1.43-6.54,9.89-6C33.65,48.19,35.64,47.84,36.29,47Z"/><path class="cls-19" d="M37,79.68c7.18.66,17.11-1,21.61-2.8-4.7,7.57-15.08,11.94-19.66,11.29C34.13,87.49,36.29,84.25,37,79.68Z"/><g class="cls-20"><path class="cls-9" d="M39,79.81a14.33,14.33,0,0,1,.53,4.44c4.57,0,12.4-2,17-3.91,3.26-3.92,2.74-4.46,2.74-4.46Z"/></g><path class="cls-21" d="M81.35,13.73c0,3.92,0,7.18-4.57,8.49S32.7,39,17.19,39.45c.33,2.76.32,8.38,3.51,12.88C6.83,41.73-2,36.46.38,30.05,7.56,10.47,63.72-3.25,69.6.67S81.35,10.47,81.35,13.73Z"/><path class="cls-22" d="M77.58,19.11c6.23-10.76,20.75-6.69,26-4.73.65,11.1-3.92,24.82-6.53,28.08,5.23,3.92,7.23,7.16-.63,11.42C91.14,56.83,84,56.17,82.66,52.26c-3.27,1.3-3.92,5.22-3.92,9.79a4,4,0,0,1-4.57-.65C73.51,47,81.35,42.78,81.35,42.78,74.82,35.93,73.15,27.1,77.58,19.11Z"/><path class="cls-23" d="M80.1,58.94c.68-3.2,9.42-12.82,20.19-4.72,8.85,6.66-12.55,15.62-15.9,16.22S78.32,67.37,80.1,58.94Z"/><path class="cls-24" d="M83.82,59.49c5.48-.29,6.6,3.14,5.15,5.64,5.44.19,9.74-4.62,9.36-6.34C97,52.91,85.73,57.59,83.82,59.49Z"/></g></g></svg>