<svg xmlns="http://www.w3.org/2000/svg" xmlns:xlink="http://www.w3.org/1999/xlink" width="172.786" height="165.837" ><defs><linearGradient id="A" x1=".473" y1=".224" x2=".524" y2=".986"><stop offset=".641" stop-color="#ffd7a5"/><stop offset="1" stop-color="#faa96c"/></linearGradient><linearGradient id="B" x1=".358" y1="-3.984" x2=".506" y2=".67" xlink:href="#A"/><linearGradient id="C" x1=".111" y1=".12" x2=".725" y2="1.269"><stop offset="0" stop-color="#ddf5f5"/><stop offset="1" stop-color="#c6d9db"/></linearGradient><linearGradient id="D" x1=".078" y1=".071" x2=".478" y2=".551" xlink:href="#C"/><linearGradient id="E" x1=".498" y1=".907" x2=".507" y2=".047" xlink:href="#A"/><linearGradient id="F" x1="0" y1=".5" x2="1" y2=".5" xlink:href="#C"/><linearGradient id="G" x1=".494" y1=".991" x2=".51" y2=".016" xlink:href="#A"/><linearGradient id="H" x1=".502" y1=".102" x2=".499" y2=".955" xlink:href="#C"/><clipPath id="I"><path d="M552.22 362.267c-4.671-11.7-17.931-5.459-20.272 6.239 4.68 18.721 21.841 10.141 20.272-6.239z" transform="translate(-531.948 -356.015)" fill="none"/></clipPath><linearGradient id="J" y1=".5" x2="1" y2=".5"><stop offset="0" stop-color="#93a779"/><stop offset="1" stop-color="#375d49"/></linearGradient><linearGradient id="K" x1="31.028" y1="-15.149" x2="31.049" y2="-15.984"><stop offset="0" stop-color="#ddf5f5" stop-opacity=".4"/><stop offset="1" stop-color="#c6d9db" stop-opacity="0"/></linearGradient><linearGradient id="L" x1="31.021" y1="-14.981" x2="31.042" y2="-15.817" xlink:href="#K"/><linearGradient id="M" x1=".508" y1="-.818" x2=".493" y2="2.072"><stop offset="0" stop-color="#cfb191"/><stop offset="1" stop-color="#835f6f"/></linearGradient><linearGradient id="N" x1=".513" y1="-.731" x2=".49" y2="1.729" xlink:href="#M"/><linearGradient id="O" x1=".79" y1="-.167" x2=".174" y2="1.008" xlink:href="#A"/><linearGradient id="P" x1="1.303" y1=".353" x2=".399" y2=".502"><stop offset=".188" stop-color="#fabb80"/><stop offset="1" stop-color="#faa16c"/></linearGradient><linearGradient id="Q" x1=".519" y1="-.555" x2=".479" y2="1.928"><stop offset=".224" stop-color="#938381"/><stop offset="1" stop-color="#1c1007"/></linearGradient><linearGradient id="R" x1=".629" y1="-.259" x2=".323" y2=".958"><stop offset=".224" stop-color="#fff" stop-opacity=".2"/><stop offset=".657" stop-color="#fff" stop-opacity=".302"/><stop offset="1" stop-color="#e4e9eb"/></linearGradient><linearGradient id="S" x1=".508" y1="-1.289" x2=".493" y2="1.676" xlink:href="#Q"/><linearGradient id="T" x1=".502" y1=".49" x2=".4" y2=".925"><stop offset="0" stop-color="#fff" stop-opacity="0"/><stop offset="1" stop-color="#e4e9eb"/></linearGradient><linearGradient id="U" x1=".506" y1="-.662" x2=".494" y2="1.343" xlink:href="#Q"/><linearGradient id="V" x1=".076" y1=".089" x2=".956" y2=".942"><stop offset="0" stop-color="#fff" stop-opacity=".2"/><stop offset="1" stop-color="#fff"/></linearGradient><linearGradient id="W" x1=".763" y1="-.081" x2=".427" y2=".983"><stop offset=".641" stop-color="#fabb80"/><stop offset="1" stop-color="#faa16c"/></linearGradient></defs><path d="M73.557 16.633c-17.32 0-55.381 24.18-55.381 35.88s9.361 32.76 2.341 44.46-22.621 22.619-20.28 36.66 30.419 31.98 56.16 20.28c21.06 4.68 62.4 14.819 90.48-44.46 23.444-49.495-17.94-92.82-73.32-92.82z" fill="url(#A)"/><path d="M40.018 142.993c-14.691 2.1-24.18 9.36-19.5 15.6s38.219 13.26 49.14-1.559-24.178-14.821-29.64-14.041z" fill="url(#B)"/><path d="M139.857 39.251c-7.8-15.6-48.36-42.119-59.279-39s-29.641 10.139-35.1 16.38 0 20.28 3.12 21.06c6.1 1.525 33.54-3.9 41.34-18.721 3.12.78 33.54 14.821 42.9 21.06z" fill="url(#C)"/><path d="M132.838 40.031c-11.7 15.6-16.38 20.282-13.261 25.741s3.12 39-8.58 47.581c0 10.919 10.921 12.48 14.041 11.7s9.36-6.241 10.139-10.141-2.339-26.553 0-30.436 22.621-7 28.08-2.324c-1.559-14.041-2.116-27.159-5.459-35.1-6.241-14.82-14.821-13.26-24.96-7.021z" fill="url(#D)"/><path d="M82.137 61.093c-4.68.78-15.7 30.937-13.309 37.7s34.748 23.562 42.169 1.3c2.341-7.019-9.388-33.7-10.934-34.4s-17.926-4.6-17.926-4.6z" fill="url(#E)"/><path d="M29.097 135.972c-2.412.518-3.9 7.8 12.48 8.58s19.5-6.239 17.16-7.019-18.72-3.9-29.64-1.561z" fill="#871131"/><path d="M32.997 136.752s1.008 3.349 1.559 3.9c.781.781 6.639.521 7.1 0 .7-.78.5-3.9.5-3.9h-9.16" fill="url(#F)"/><path d="M43.995 136.752s-.863 3.12-.082 3.9 6.239 0 7.019-.78.482-3.617.482-3.617l-7.419.497z" fill="url(#F)"/><path d="M41.463 62.638c3.052 2.761 9.339 23.932 4.845 36.153s-18.753 8.321-21.754-1.038 2.252-28.08 3-28.86 11.309-8.609 13.909-6.255z" fill="url(#G)"/><path d="M65.508 119.439c5.708.153 16.629 12.633 16.629 12.633-5.459 3.9-13.227 5.41-14.8 5.046-1.593-2.29-3.136-5.046-3.136-5.046l.647 5.1c-10.008 2.7-35.748 1.142-40.427-.419 0-2.339 3.9-6.239 3.9-6.239l-5.635 5.277s-10.7-3.544-12.671-6.752c6.19-7.972 15.35-10.789 17.607-10.509s37.886.909 37.886.909z" fill="url(#H)"/><path d="M46.249 86.052c-4.671-11.7-17.931-5.459-20.272 6.239 4.68 18.721 21.841 10.141 20.272-6.239z" fill="#fff"/><path d="M46.249 86.052c-10.91-9.359-19.492-1.559-20.272 6.239-.78-17.939 19.482-17.159 20.272-6.239z" fill="#283547"/><g clip-path="url(#I)" transform="translate(25.977 79.8)"><circle cx="15.025" cy="12.97" r="7.31" fill="url(#J)"/><path d="M21.04 12.742a6.02 6.02 0 0 1-12.031.456 6.02 6.02 0 0 1 10.109-4.644 6.02 6.02 0 0 1 1.923 4.188z" fill="url(#K)"/><circle cx="9.543" cy="9.65" r="2.451" fill="#fff"/></g><path d="M79.016 87.611c5.461-12.48 25.741-5.459 27.3 7.02-13.259 21.84-32.759 6.242-27.3-7.02z" fill="#fff"/><path d="M78.116 91.351c1.682-22.457 26.642-13.1 28.2 3.282-8.576-16.38-24.176-14.821-28.2-3.282z" fill="#283547"/><circle cx="94.042" cy="92.77" r="7.31" fill="url(#J)"/><path d="M100.059 92.542a6.02 6.02 0 0 1-12.031.457 6.02 6.02 0 0 1 10.107-4.645 6.02 6.02 0 0 1 1.924 4.188z" fill="url(#L)"/><circle cx="88.56" cy="89.45" r="2.451" fill="#fff"/><path d="M77.457 66.552c1.672 1.454 23.4 5.459 24.96 2.341 2.54-5.08-17.939-10.921-21.06-10.921-1.745 0-6.401 6.407-3.9 8.58z" fill="url(#M)"/><path d="M38.424 57.906c-1.491.337-14.858 9.508-12.606 13.443 1.719 3 17.349-4.855 17.333-7.165s-1.574-6.991-4.727-6.278z" fill="url(#N)"/><path d="M136.738 100.87c-7.8-10.921-5.211-17.965 2.853-21.073s27.583-2.773 31.865 7.2-1.958 29.473-16 31.813c-13.849 2.308-20.28-2.341-21.839-4.68s-2.34-10.918 3.121-13.26z" fill="url(#O)"/><path d="M142.977 94.818c12.831 2.749 6.414 12.614 0 14.1 27.491 3.881 28.409-26.008 0-14.1z" fill="url(#P)"/><g transform="translate(4.553 76.692)"><path d="M40.145 4.954c3.12-6.813 10.921-6.193 15.6-.618-.445 1.011-.752 2.078-.912 3.171-4.549-4.411-10.008-6.447-13.128-1.093-1.56-.44-1.56-1.46-1.56-1.46z" fill="url(#Q)"/><path d="M4.264 6.282C5.97 17.567 5.735 28.954 10.631 32.03s22.456 1.175 26.472-3.217c5.146-5.63 4.584-24.332 4.584-24.332z" fill="url(#R)"/><path d="M1.197 4.323c12.049-.112 35.674-.962 41.517-1.176.749-.027 1.335.487 1.253 1.079a5.21 5.21 0 0 1-2.262 3.827c-1.2.831-35.431 2.351-37.44 1.238A22.38 22.38 0 0 1 .259 5.873c-.617-.628-.063-1.54.938-1.55z" fill="url(#S)"/><path d="M97.773 8.83c-2.6 12.9-2.966 26.024-8.776 29.292s-25.925.092-30.3-5.19c-5.611-6.772-3.914-28.276-3.914-28.276z" fill="url(#T)"/><path d="M101.441 6.192c-13.867-.666-41.013-2.7-47.725-3.206-.363-.068-.737.023-1.028.251s-.47.568-.492.936a5.85 5.85 0 0 0 2.336 4.508c1.326 1.011 40.635 4.286 43.025 3.095 1.757-1.062 3.386-2.322 4.855-3.757.758-.695.181-1.771-.971-1.827z" fill="url(#U)"/><g fill="url(#V)"><ellipse cx="5.431" cy="7.355" rx="5.431" ry="7.355" transform="matrix(.99957 -.029317 .029317 .99957 57.296 12.736)"/><ellipse cx="4.125" cy="5.586" rx="4.125" ry="5.586" transform="matrix(.99957 -.029317 .029317 .99957 7.376 12.736)"/></g></g><path d="M55.617 86.053c5.939 0 .78 17.939 3.119 21.839s14.821 10.141 4.68 15.6-37.44 5.461-38.219-6.239 11.7-8.58 11.7-8.58c1.559-7.799 8.58-22.62 18.72-22.62z" fill="url(#W)"/></svg>
