<svg xmlns="http://www.w3.org/2000/svg" width="75.047" height="80.527" xmlns:v="https://vecta.io/nano"><defs><linearGradient id="A" x1=".5" x2=".5" y2="1"><stop offset="0" stop-color="#fb0"/><stop offset="1" stop-color="#ffba00"/></linearGradient><filter id="B" x="0" y="0" width="75.047" height="80.527" filterUnits="userSpaceOnUse"><feOffset dx="2" dy="2"/><feGaussianBlur result="A"/><feFlood flood-color="#0f426d" flood-opacity=".149"/><feComposite operator="in" in2="A"/><feComposite in="SourceGraphic"/></filter><filter id="C" x="39.094" y="37.068" width="24" height="24" filterUnits="userSpaceOnUse"><feOffset dx="-1" dy="-1"/><feGaussianBlur result="A"/><feFlood flood-opacity=".161"/><feComposite operator="in" in2="A"/><feComposite in="SourceGraphic"/></filter></defs><g transform="translate(-436.845 -19.892)"><g transform="translate(437.852 20.923)"><g transform="translate(-1.01 -1.03)" filter="url(#B)"><path d="M-595.994 123.424s2.178-26.135 28.313-29.4 44.647 23.957 42.469 39.2-17.423 37.024-39.2 37.024-32.671-33.525-31.582-46.824z" transform="translate(597.08 -92.72)" stroke="#fdfdff" stroke-width="2" fill="url(#A)"/></g><path d="M54.039 16.539c1.527.409-2.057-6.539-9.966-9.21s8.435 8.799 9.966 9.21zM.075 29.671S1.711 10.066 19.129 2.694l.3.053s-27.7 30.879-4.279 54.941 38.759 5.324 47.277-6.389 7.665-17.674 7.665-17.674l.908 2.16a18.92 18.92 0 0 1-.143 3.688c-2.176 15.242-17.422 37.021-39.2 37.021S-1.014 42.97.075 29.671z" fill="#fff"/><path d="M1.554 28.835S3.118 10.912 19.768 4.177l.286.047s-26.482 28.227-4.09 50.221 37.05 4.868 45.192-5.842 7.328-16.152 7.328-16.152l.868 1.973c.069 1.125.024 2.255-.136 3.371-2.081 13.934-16.655 33.841-37.473 33.841S.514 40.989 1.554 28.835z" fill="#f90"/><path d="M41.869 1.869c-19.027-4.157 0 16 10.207 17.264s16.507 20.792 8.568 22.3-16.254 27.343-8.568 25.326 16.507-17.261 17.263-27.847-8.44-32.884-27.47-37.043z" fill="#fcffb1" opacity=".5"/><path d="M12.331 14.769c0-1.778-6.252 4.131-6.825 13.479s6.825-11.7 6.825-13.479z" fill="#fddc59"/><path d="M5.326 51.193c1.049-4.233 13.559-5.599 25.375 6.699s-9.49 16.983-9.49 16.983S4.276 55.427 5.326 51.193z" fill="#fcffb1" opacity=".5"/></g><g transform="translate(-.03 -.04)"><path d="M455.584 70.735c-5.227 2.219 1.341 7.143 12.307 7.526s18.445-1.294 15.309-2.528-22.389-7.215-27.615-4.998z" fill="rgba(189,113,0,0.5)"/><path d="M460.925 33.146c7.978.17 19.484-.358 24.576 1s4.583 5.432 4.244 8.827-1.7 22.577 0 26.82-13.24 6.28-26.819 5.432-8.487-2.716-8.827-10.864-.133-20.35-.472-23.915-.678-7.47 7.298-7.3z" fill="#fff"/><path d="M493.13 49.94l-10.39-10.938c-1.863-1.991-4.847-2.447-7.22-1.103q-4.989 2.661-9.986 5.304-4.974 2.642-9.947 5.283c-2.496 1.268-3.794 4.085-3.137 6.806l.659 3.016 2.544 11.592c.281 1.322.982 2.518 1.999 3.408a6.4 6.4 0 0 0 2.305 1.143c2.496.741 5.185-.215 6.654-2.365a5.9 5.9 0 0 0 .97-4.251q-.134-.917-.228-1.84c-.277-1.782.626-3.54 2.238-4.352q4.421-2.453 8.932-4.744c1.557-.878 3.502-.656 4.821.55l1.468 1.273a5.8 5.8 0 0 0 4.044 1.501 5.89 5.89 0 0 0 4.367-1.886 4.18 4.18 0 0 0 1.338-1.655 6.66 6.66 0 0 0-1.43-6.743zm-26.482 4.976c.217.375.154.597-.222.797l-2.286 1.208c-.399.199-.501.413-.264.825l1.253 2.329c.187.334.122.536-.206.706l-2.128 1.13c-.356.196-.571.108-.751-.244l-1.233-2.339c-.181-.356-.386-.453-.741-.243l-1.142.606-.002-.004-1.245.661c-.361.203-.572.078-.745-.263l-1.103-2.076c-.2-.356-.122-.57.23-.752l2.339-1.236c.385-.193.453-.409.239-.786l-1.223-2.278c-.204-.364-.177-.601.221-.797l2.076-1.103c.387-.219.585-.111.772.269l1.229 2.342c.173.34.372.398.702.217l2.384-1.266c.343-.182.557-.157.742.223a33.45 33.45 0 0 0 1.107 2.071zm7.62-10.216c-.265-.933.166-1.924 1.029-2.366h0c.728-.38 1.613-.286 2.244.239a2.04 2.04 0 0 1 .635 2.196c-.04.126-.092.248-.154.364a2.06 2.06 0 0 1-.22.329c-.172.21-.385.383-.626.507h0c-.482.247-1.042.292-1.557.125-.125-.04-.246-.092-.361-.155s-.226-.138-.328-.222q-.077-.063-.148-.135c-.243-.247-.42-.55-.515-.882zm1.294 6.544h0c-.421.218-.905.283-1.368.182a2.08 2.08 0 0 1-.723-.306c-.282-.189-.513-.447-.67-.748-.064-.122-.115-.251-.153-.383-.055-.193-.081-.393-.078-.594a2.09 2.09 0 0 1 .045-.392 1.84 1.84 0 0 1 .05-.191c.059-.189.145-.368.255-.532.189-.282.447-.512.749-.668h0a2.03 2.03 0 0 1 .78-.222 2.07 2.07 0 0 1 1.471.464 2.02 2.02 0 0 1 .404.45q.055.084.105.18c.064.123.116.252.154.386a2.07 2.07 0 0 1 .072.395 2.04 2.04 0 0 1-1.094 1.978zm5.314 1.605c-.727.396-1.621.315-2.265-.206s-.911-1.378-.676-2.172.925-1.368 1.748-1.455 1.618.331 2.013 1.058c.54.992.173 2.234-.819 2.774zm2.546-7.825a1.97 1.97 0 0 1 .111.394 2.04 2.04 0 0 1-.019.789c-.071.323-.218.624-.429.878a2 2 0 0 1-.631.504h0a2.07 2.07 0 0 1-.388.15 2.04 2.04 0 0 1-2.363-1.038c-.124-.243-.197-.508-.216-.78-.008-.133-.003-.267.014-.399.04-.329.158-.643.342-.918q.055-.081.118-.159a1.98 1.98 0 0 1 .627-.504h0a2.03 2.03 0 0 1 1.368-.171q.096.021.19.052a2.15 2.15 0 0 1 .362.157 2.05 2.05 0 0 1 .61.509 2.02 2.02 0 0 1 .225.346 1.89 1.89 0 0 1 .079.188z" fill="#8baeff"/><g transform="translate(436.88 19.93)" filter="url(#C)"><g transform="translate(41.09 39.07)" fill="#ffba00"><path d="M11 20.5c-2.594 0-5.248-1.036-7.282-2.843C1.643 15.813.5 13.449.5 11c0-2.501 1.196-5.131 3.282-7.218S8.499.5 11 .5c2.449 0 4.813 1.143 6.657 3.218C19.464 5.752 20.5 8.406 20.5 11c0 5.238-4.262 9.5-9.5 9.5z"/><path d="M11 2C8.894 2 6.65 3.036 4.843 4.843S2 8.894 2 11c0 2.015.964 3.98 2.714 5.535C6.477 18.102 8.768 19 11 19a8.01 8.01 0 0 0 8-8c0-2.232-.898-4.523-2.465-6.286C14.98 2.964 13.015 2 11 2m0-3c6.075 0 11 5.925 11 12s-4.925 11-11 11-12-4.925-12-11S4.925-1 11-1z" fill="#fff"/></g></g><path d="M486.983 64.493c-.825 1.949 0 4.948 0 4.948s-3.505-.713-3 .674 3.251 4.635 4.466 4.635 4.232-3.248 4.532-4.635-2.325-.075-2.774-.674.108-3.738 0-4.948-2.399-1.949-3.224 0z" fill="#fff"/></g></g></svg>