<svg xmlns="http://www.w3.org/2000/svg" width="53.086" height="53.824" ><path d="M23.941 2.949c11.859 0 26.409 14.7 26.409 26.684S35.8 53.824 23.941 53.824 0 41.616 0 29.633 12.082 2.949 23.941 2.949zm12.887.09c1.062 3.434 9.876 5.15 13.486 14.163s4.354-2.039-1.805-8.154S35.766-.395 36.828 3.039zM33.768.075c-1.429.726-1.836 2.2.224 3.122s1.204-3.848-.224-3.122z" fill="#0f426d"/><path d="M17.284 31.098s-3.456 6.998-.437 10.157 8.206 2.244 10.422-1.134-.132-1.489-.132-1.489-4.855 2.797-5.456 2.283a26.69 26.69 0 0 1-2.919-4.453c-.054-.323-1.477-5.363-1.477-5.363z" fill="#cacaca"/><g fill="#fff"><path d="M20.876 24.88c-1.888 3.322-8.149 10.784-1.982 16.311s13.898-7.166 13.898-7.166-3.215-2.964-5.797 1.127c-1.316 2.09-2.115 3.003-3.466 2.448-.976-.373-2.605-2.088.913-6.341 7.179-8.678-1.678-9.702-3.566-6.38zm11.619-8.041c-.764-1.741-5.224-5.788-7.825-1.239s1.946 7.246 4.117 7.291 4.471-4.309 3.708-6.051z"/><path d="M27.961 14.434a3.78 3.78 0 0 1 4.663 3.076c.443 2.281-.961 3.768-3.242 4.211s-3.494-.657-3.937-2.939.234-3.904 2.517-4.348z"/></g><path d="M25.445 18.782l-.065-.384a1.7 1.7 0 0 1 1.249.422c1.985 1.393 1.615 1.627 3.744.015 1.766-1.34.311-3.575-.232-4.289a3.74 3.74 0 0 1 2.482 2.964c.449 2.281-.959 3.767-3.243 4.211-.483.105-.981.124-1.471.058-1.351-.214-2.129-1.266-2.465-2.995zm-4.266 19.202c-2.694-1.88-.003-5.234 2.605-9.51 1.854-3.05 1.524-4.631 1.179-5.293 2.297.384 3.815 2.832-.523 8.078-3.517 4.251-1.888 5.967-.912 6.335a2.03 2.03 0 0 0 .588.152c-.574.459-1.304.677-2.036.608a2.15 2.15 0 0 1-.901-.371z" fill="#ebebeb"/></svg>
