<svg xmlns="http://www.w3.org/2000/svg" width="75.047" height="80.527" ><defs><linearGradient id="A" x1=".5" x2=".5" y2="1"><stop offset="0" stop-color="#fb0"/><stop offset="1" stop-color="#ffba00"/></linearGradient><filter id="B" x="0" y="0" width="75.047" height="80.527" filterUnits="userSpaceOnUse"><feOffset dx="2" dy="2"/><feGaussianBlur result="A"/><feFlood flood-color="#0f426d" flood-opacity=".149"/><feComposite operator="in" in2="A"/><feComposite in="SourceGraphic"/></filter></defs><g transform="translate(-436.845 -19.892)"><g transform="translate(437.852 20.923)"><g transform="translate(-1.01 -1.03)" filter="url(#B)"><path d="M-595.994 123.424s2.178-26.135 28.313-29.4 44.647 23.957 42.469 39.2-17.423 37.024-39.2 37.024-32.671-33.525-31.582-46.824z" transform="translate(597.08 -92.72)" stroke="#fdfdff" stroke-width="2" fill="url(#A)"/></g><path d="M54.039 16.539c1.527.409-2.057-6.539-9.966-9.21s8.435 8.799 9.966 9.21zM.075 29.671S1.711 10.066 19.129 2.694l.3.053s-27.7 30.879-4.279 54.941 38.759 5.324 47.277-6.389 7.665-17.674 7.665-17.674l.908 2.16a18.92 18.92 0 0 1-.143 3.688c-2.176 15.242-17.422 37.021-39.2 37.021S-1.014 42.97.075 29.671z" fill="#fff"/><path d="M1.554 28.835S3.118 10.912 19.768 4.177l.286.047s-26.482 28.227-4.09 50.221 37.05 4.868 45.192-5.842 7.328-16.152 7.328-16.152l.868 1.973c.069 1.125.024 2.255-.136 3.371-2.081 13.934-16.655 33.841-37.473 33.841S.514 40.989 1.554 28.835z" fill="#f90"/><path d="M41.869 1.869c-19.027-4.157 0 16 10.207 17.264s16.507 20.792 8.568 22.3-16.254 27.343-8.568 25.326 16.507-17.261 17.263-27.847-8.44-32.884-27.47-37.043z" fill="#fcffb1" opacity=".5"/><path d="M12.331 14.769c0-1.778-6.252 4.131-6.825 13.479s6.825-11.7 6.825-13.479z" fill="#fddc59"/><path d="M5.326 51.193c1.049-4.233 13.559-5.599 25.375 6.699s-9.49 16.983-9.49 16.983S4.276 55.427 5.326 51.193z" fill="#fcffb1" opacity=".5"/></g><path d="M458.042 70.294c-3.797 2.596 1.921 6.287 10.505 5.382s14.202-3.272 11.608-4.026-18.317-3.955-22.113-1.356z" fill="rgba(189,113,0,0.5)"/><path d="M460.791 60.462s-5.294 10.718-.669 15.554 12.569 3.439 15.963-1.735-.201-2.286-.201-2.286-7.438 4.289-8.359 3.503c-1.714-2.119-3.212-4.404-4.471-6.82-.082-.495-2.263-8.215-2.263-8.215z" fill="#cacaca"/><g fill="#fff"><path d="M466.298 50.936c-2.889 5.086-12.484 16.517-3.036 24.979s21.286-10.976 21.286-10.976-4.924-4.544-8.879 1.726c-2.017 3.196-3.239 4.603-5.308 3.75-1.494-.571-3.989-3.198 1.398-9.711 10.997-13.287-2.57-14.856-5.461-9.767zm17.792-12.315c-1.169-2.67-8.001-8.87-11.986-1.898s2.981 11.103 6.306 11.167 6.849-6.599 5.68-9.269z"/><path d="M477.151 34.939a5.79 5.79 0 0 1 7.142 4.711c.679 3.495-1.471 5.771-4.966 6.45s-5.351-1.006-6.031-4.503.359-5.978 3.854-6.658z"/></g><path d="M473.302 41.594l-.099-.589a2.61 2.61 0 0 1 1.923.647c3.033 2.134 2.467 2.491 5.723.016 2.707-2.059.475-5.475-.35-6.563a5.73 5.73 0 0 1 3.8 4.539c.681 3.494-1.47 5.771-4.97 6.448a6.51 6.51 0 0 1-2.253.088c-2.066-.326-3.258-1.937-3.773-4.586zm-6.537 29.415c-4.126-2.881-.004-8.016 3.99-14.57 2.843-4.667 2.338-7.092 1.806-8.102 3.518.589 5.843 4.338-.801 12.372-5.385 6.512-2.891 9.139-1.399 9.71.287.122.591.201.902.233-.879.702-1.997 1.036-3.117.931a3.3 3.3 0 0 1-1.38-.573z" fill="#ebebeb"/></g></svg>
