<svg xmlns="http://www.w3.org/2000/svg" xmlns:xlink="http://www.w3.org/1999/xlink" width="75.047" height="80.527" xmlns:v="https://vecta.io/nano"><defs><linearGradient id="A" x1=".5" x2=".5" y2="1"><stop offset="0" stop-color="#fb0"/><stop offset="1" stop-color="#ffba00"/></linearGradient><filter id="B" x="0" y="0" width="75.047" height="80.527" filterUnits="userSpaceOnUse"><feOffset dx="2" dy="2"/><feGaussianBlur result="A"/><feFlood flood-color="#0f426d" flood-opacity=".149"/><feComposite operator="in" in2="A"/><feComposite in="SourceGraphic"/></filter><filter id="C" x="39.124" y="37.108" width="24" height="24" filterUnits="userSpaceOnUse"><feOffset dx="-1" dy="-1"/><feGaussianBlur result="A"/><feFlood flood-opacity=".161"/><feComposite operator="in" in2="A"/><feComposite in="SourceGraphic"/></filter><path id="D" d="M456.717 62.961c-.111-.676-.891-1.923 4.115-1.594l9.723.165s2.568.244 2.477 1.706-14.944.528-14.944.528-1.259-.127-1.371-.806z"/></defs><g transform="translate(-436.845 -19.892)"><g transform="translate(437.852 20.923)"><g transform="translate(-1.01 -1.03)" filter="url(#B)"><path d="M-595.994 123.424s2.178-26.135 28.313-29.4 44.647 23.957 42.469 39.2-17.423 37.024-39.2 37.024-32.671-33.525-31.582-46.824z" transform="translate(597.08 -92.72)" stroke="#fdfdff" stroke-width="2" fill="url(#A)"/></g><path d="M54.039 16.539c1.527.409-2.057-6.539-9.966-9.21s8.435 8.799 9.966 9.21zM.075 29.671S1.711 10.066 19.129 2.694l.3.053s-27.7 30.879-4.279 54.941 38.759 5.324 47.277-6.389 7.665-17.674 7.665-17.674l.908 2.16a18.92 18.92 0 0 1-.143 3.688c-2.176 15.242-17.422 37.021-39.2 37.021S-1.014 42.97.075 29.671z" fill="#fff"/><path d="M1.554 28.835S3.118 10.912 19.768 4.177l.286.047s-26.482 28.227-4.09 50.221 37.05 4.868 45.192-5.842 7.328-16.152 7.328-16.152l.868 1.973c.069 1.125.024 2.255-.136 3.371-2.081 13.934-16.655 33.841-37.473 33.841S.514 40.989 1.554 28.835z" fill="#f90"/><path d="M41.869 1.869c-19.027-4.157 0 16 10.207 17.264s16.507 20.792 8.568 22.3-16.254 27.343-8.568 25.326 16.507-17.261 17.263-27.847-8.44-32.884-27.47-37.043z" fill="#fcffb1" opacity=".5"/><path d="M12.331 14.769c0-1.778-6.252 4.131-6.825 13.479s6.825-11.7 6.825-13.479z" fill="#fddc59"/><path d="M5.326 51.193c1.049-4.233 13.559-5.599 25.375 6.699s-9.49 16.983-9.49 16.983S4.276 55.427 5.326 51.193z" fill="#fcffb1" opacity=".5"/></g><path d="M455.584 70.735c-5.227 2.219 1.341 7.143 12.307 7.526s18.445-1.294 15.309-2.528-22.389-7.215-27.615-4.998z" fill="rgba(189,113,0,0.5)"/><path d="M460.925 33.146c7.978.17 19.484-.358 24.576 1s4.583 5.432 4.244 8.827-1.7 22.577 0 26.82-13.24 6.28-26.819 5.432-8.487-2.716-8.827-10.864-.133-20.35-.472-23.915-.678-7.47 7.298-7.3z" fill="#fff"/><path d="M472.949 46.842c-.283 0-.566-.007-.847-.015-2.556-.086-5.103-.358-7.62-.813a75.08 75.08 0 0 1-10.717-2.766l-.14-2.8c-.34-3.564-.678-7.469 7.3-7.3 2.153.045 4.564.041 7.036.035 6.686-.014 13.822-.026 17.541.965 5.092 1.357 4.583 5.432 4.243 8.826l-.119 1.344a64.21 64.21 0 0 1-16.371 2.526z" fill="#ff5e00"/><path d="M473.255 46.844h-.307c-.338 0-.607-.008-.846-.015l-.633-.023V33.181c5.459.014 10.937.141 14.032.967 2.228.593 3.579 1.758 4.132 3.56.368 1.669.412 3.393.13 5.078l-.019.188-.118 1.345c-5.326 1.539-10.828 2.388-16.371 2.525z" fill="#0f426d"/><g fill="#b3c5f0"><path d="M456.809 51.542c-.205-.678-1.593-1.935 7.228-1.541s17.119.291 17.119.291 4.523.277 4.382 1.738-26.301.335-26.301.335-2.224-.144-2.428-.823zm-.054 5.774c-.15-.677-1.179-1.928 5.392-1.572s12.761.217 12.761.217 3.371.257 3.26 1.719-19.613.449-19.613.449-1.651-.134-1.8-.813z"/><use xlink:href="#D"/><use xlink:href="#D" y="5.556"/></g><g transform="translate(436.85 19.89)" filter="url(#C)"><g transform="translate(41.12 39.11)" fill="#ffba00"><path d="M11 20.5c-2.594 0-5.248-1.036-7.282-2.843C1.643 15.813.5 13.449.5 11c0-2.501 1.196-5.131 3.282-7.218S8.499.5 11 .5c2.449 0 4.813 1.143 6.657 3.218C19.464 5.752 20.5 8.406 20.5 11c0 5.238-4.262 9.5-9.5 9.5z"/><path d="M11 2C8.894 2 6.65 3.036 4.843 4.843S2 8.894 2 11c0 2.015.964 3.98 2.714 5.535C6.477 18.102 8.768 19 11 19a8.01 8.01 0 0 0 8-8c0-2.232-.898-4.523-2.465-6.286C14.98 2.964 13.015 2 11 2m0-3c6.075 0 11 5.925 11 12s-4.925 11-11 11-12-4.925-12-11S4.925-1 11-1z" fill="#fff"/></g></g><path d="M486.983 64.493c-.825 1.949 0 4.948 0 4.948s-3.505-.713-3 .674 3.251 4.635 4.466 4.635 4.232-3.248 4.532-4.635-2.325-.075-2.774-.674.108-3.738 0-4.948-2.399-1.949-3.224 0z" fill="#fff"/></g></svg>