<svg xmlns="http://www.w3.org/2000/svg" width="118" height="144" ><defs><clipPath id="A"><path fill="none" d="M0 0h118v144H0z"/></clipPath><linearGradient id="B" x1=".5" y1="1" x2=".5"><stop offset="0" stop-color="#6ea94a"/><stop offset="1" stop-color="#86d342"/></linearGradient><linearGradient id="C" x1=".209" y1=".554" x2="1.841" y2=".326"><stop offset="0" stop-color="#6ea94a"/><stop offset="1" stop-color="#43d342"/></linearGradient></defs><g clip-path="url(#A)" fill-rule="evenodd"><path d="M91.01 57.169c0 3.677 15.716 3.75 15.716 3.75s0 50.323-52.747 70.79L17.84 121.33 8.691 144H6.639l8.449-24.436S.001 98.54.001 75.096c0 0 9.149-19.21 19.819-29.879 0 0 10.067 31.38 15.257 31.38 5.166 0-7.628-35.105-7.628-35.105s12.263-18.8 47.437-26.928c0 0-2.487 13.5 0 15.993 2.51 2.516 8.183-21.218 8.183-21.218S102.454.001 118.001.001c0 0 .338 25.354-10.453 42.58-.002-.001-16.538 10.935-16.538 14.588z" fill="url(#B)"/><path d="M91.01 57.169c0 3.677 15.716 3.75 15.716 3.75s0 50.323-52.747 70.79L17.84 121.33S54.44 38.806 118 0c0 0 .338 25.354-10.453 42.58-.002 0-16.537 10.936-16.537 14.589z" fill="url(#C)"/></g></svg>
