<svg xmlns="http://www.w3.org/2000/svg" width="145" height="175" ><defs><linearGradient id="A" x1="-.201" y1=".941" x2="1.251" y2=".131"><stop offset="0" stop-color="#185905"/><stop offset="1" stop-color="#728e45"/></linearGradient></defs><path d="M33.492 175l3.339-25.826S14.297 135.954 0 102.774l11.336-17.221s11.383 19.635 21.854 19.635-6.374-33.575-6.374-33.575l25.557-39.1s6.762 47.044 13.591 47.044 3.187-57.4 3.187-57.4S102.477-.003 145-.003l-26.26 52.9s-27.955 19.374-27.955 31.8 46.075 7.6 46.075 7.6l-34.382 42.9s-33.326-3.933-35.394.2c-3.312 6.617 27.407 7.4 27.407 7.4L79.139 156.49s-12.6 2.327-40.184-6.332l.836 24.592z" fill-rule="evenodd" fill="url(#A)"/></svg>
