<svg xmlns="http://www.w3.org/2000/svg" width="119" height="271" ><defs><linearGradient id="A" x1=".5" y1="1" x2=".5"><stop offset="0" stop-color="#6ea94a"/><stop offset="1" stop-color="#86d342"/></linearGradient><linearGradient id="B" x1=".209" y1=".554" x2="1.841" y2=".326"><stop offset="0" stop-color="#6ea94a"/><stop offset="1" stop-color="#43d342"/></linearGradient></defs><g fill-rule="evenodd"><path d="M111.775 179.387s.8 26.914-11.6 39.332l-45.931 9.153 15.827 43.125h-6.523l-12.758-42.11S12.613 201.755.001 167.86l4.663-44.213s10.052 18.023 16.455 15.7-10.68-26.432-10.68-26.432l2.441-11.379s12.95 8.093 19.426 1.618c6.451-6.475-9.06-29.426-9.06-29.426S35.906 14.658 85.73-.008l12.613 54.939s-31.025 38.777-23.2 46.6 30.058-22.034 30.058-22.034 13.8 30.368 13.8 56c0 0-40.811 42.086-40.811 52.475s33.585-8.585 33.585-8.585z" fill="url(#A)"/><path d="M111.775 179.387s.8 26.914-11.6 39.332l-45.93 9.153S20.828 64.89 85.73-.003l12.613 54.939s-31.025 38.777-23.2 46.6 30.058-22.034 30.058-22.034 13.8 30.368 13.8 56c0 0-40.811 42.086-40.811 52.475s33.585-8.59 33.585-8.59z" fill="url(#B)"/></g></svg>
