<svg xmlns="http://www.w3.org/2000/svg" width="244" height="63.32" ><g fill="#00457c"><path d="M105.656 43.078h-18.2V18.462h17.868l.616 4.309H95.466v5.539h9.857v4.309h-9.857v6.153h10.854z" fill-rule="evenodd"/><path d="M59.302 51.178h1.06v1.107h.43a3.77 3.77 0 0 1 1.827.418c.503.267.914.679 1.18 1.182a3.62 3.62 0 0 1 .41 1.74 3.57 3.57 0 0 1-.458 1.817 2.97 2.97 0 0 1-1.254 1.2c-.588.278-1.232.415-1.882.4h-.252v1.385h-1.06v-1.385h-.286a4.1 4.1 0 0 1-1.879-.4 2.94 2.94 0 0 1-1.243-1.207 3.8 3.8 0 0 1-.034-3.522c.273-.504.687-.918 1.191-1.19.563-.295 1.192-.442 1.827-.426h.412zm0 2h-.349c-.652-.037-1.291.198-1.764.649a2.42 2.42 0 0 0-.644 1.777 2.5 2.5 0 0 0 .684 1.88 2.65 2.65 0 0 0 1.927.667h.146zm1.06 4.972h.155c.705.044 1.398-.199 1.922-.672a2.5 2.5 0 0 0 .687-1.874c.037-.655-.192-1.298-.636-1.782a2.37 2.37 0 0 0-1.773-.644h-.355zm9.802 2.146l-.2-.958h-.052a2.88 2.88 0 0 1-1.005.858 3.08 3.08 0 0 1-1.251.223 2.25 2.25 0 0 1-1.572-.515c-.397-.383-.607-.92-.573-1.471q0-2.043 3.268-2.14l1.146-.037v-.419a1.7 1.7 0 0 0-.344-1.17 1.39 1.39 0 0 0-1.091-.381c-.666.028-1.318.205-1.907.518l-.315-.781a4.8 4.8 0 0 1 1.094-.423c.389-.102.789-.154 1.191-.154a2.58 2.58 0 0 1 1.787.535 2.23 2.23 0 0 1 .573 1.717v4.6zm-2.308-.718a2.07 2.07 0 0 0 1.5-.524 1.93 1.93 0 0 0 .544-1.465v-.607l-1.022.043a3.72 3.72 0 0 0-1.756.378c-.357.222-.563.622-.538 1.041a1.06 1.06 0 0 0 .335.844 1.4 1.4 0 0 0 .931.289zm8.609.841a2.91 2.91 0 0 1-1.2-.243c-.366-.163-.681-.421-.914-.747h-.074a9.17 9.17 0 0 1 .074 1.119v2.772h-1.025v-9.762h.848l.143.921h.049a2.34 2.34 0 0 1 .916-.8 2.76 2.76 0 0 1 1.2-.246 2.49 2.49 0 0 1 2.071.916 4.03 4.03 0 0 1 .73 2.575c.058.918-.204 1.828-.742 2.575a2.5 2.5 0 0 1-2.076.918zm-.149-6.117a1.81 1.81 0 0 0-1.495.572c-.353.538-.519 1.178-.473 1.82v.24c-.063.71.103 1.422.473 2.031.384.43.946.657 1.521.612.548.019 1.067-.249 1.369-.707.363-.582.538-1.263.5-1.948a3.21 3.21 0 0 0-.5-1.934c-.317-.449-.84-.708-1.389-.687zm8.557 5.01l.192-.572.263-.724 1.827-4.446h1.3v6.726h-.9V54.73l-.123.358-.367.941-1.718 4.266h-.859l-1.741-4.292c-.173-.42-.323-.849-.45-1.285v5.565h-.911V53.57h1.249l1.767 4.274a15.1 15.1 0 0 1 .471 1.468zm9.972.984l-.2-.958h-.049a2.89 2.89 0 0 1-1.008.858 3.07 3.07 0 0 1-1.252.223 2.26 2.26 0 0 1-1.572-.515c-.397-.383-.607-.92-.573-1.471q0-2.043 3.268-2.14l1.146-.037v-.419c.033-.419-.088-.835-.341-1.17a1.4 1.4 0 0 0-1.094-.381c-.666.028-1.318.205-1.907.518l-.312-.781a4.83 4.83 0 0 1 1.091-.423c.389-.102.789-.154 1.191-.154a2.57 2.57 0 0 1 1.787.535c.426.465.634 1.089.573 1.717v4.6zm-2.308-.718c.55.032 1.09-.156 1.5-.524a1.93 1.93 0 0 0 .547-1.465v-.607l-1.022.043a3.73 3.73 0 0 0-1.758.378c-.357.222-.563.622-.538 1.041a1.06 1.06 0 0 0 .335.844 1.4 1.4 0 0 0 .936.29zm12.065 3.049h-1.022v-2.332h-5.559v-6.737h1.022v5.859h3.583v-5.859h1.025v5.859h.954zm4.476-2.208a3.11 3.11 0 0 1-2.363-.91c-.605-.698-.914-1.604-.859-2.526-.052-.927.232-1.841.8-2.575.53-.637 1.327-.991 2.156-.958a2.55 2.55 0 0 1 2 .833 3.19 3.19 0 0 1 .739 2.2v.647H106.9a2.67 2.67 0 0 0 .6 1.8c.42.425 1.003.648 1.6.612.742-.003 1.476-.158 2.156-.455v.91a5.42 5.42 0 0 1-1.025.338c-.381.066-.767.094-1.153.084zm-.286-6.131a1.68 1.68 0 0 0-1.3.529c-.347.412-.549.927-.573 1.465h3.525c.036-.528-.117-1.052-.43-1.479a1.52 1.52 0 0 0-1.217-.515zm10.293.961a1.28 1.28 0 0 1-.378 1 2.07 2.07 0 0 1-1.06.458v.054a2.19 2.19 0 0 1 1.257.506 1.43 1.43 0 0 1 .4 1.067 1.7 1.7 0 0 1-.693 1.453 3.4 3.4 0 0 1-2.022.509h-2.974v-6.738h2.961q2.509 0 2.509 1.691zm-1 .1a.73.73 0 0 0-.384-.7 2.49 2.49 0 0 0-1.146-.206h-1.92v1.9h1.718c.457.034.916-.046 1.335-.232a.83.83 0 0 0 .4-.761zm.192 2.921a.86.86 0 0 0-.415-.8 2.82 2.82 0 0 0-1.375-.249h-1.853v2.217h1.876q1.764 0 1.764-1.173zm7.623-3.839h-2.182v5.865h-1.031v-5.865h-2.165v-.873h5.378zm2.357-.873v4.271l-.043 1.107-.017.352 3.649-5.742h1.274v6.741h-.954v-4.12l.02-.813.029-.8-3.643 5.722h-1.274v-6.718zm7.743 0v2.458q0 1.182 1.349 1.182a3.36 3.36 0 0 0 1.071-.172 5.41 5.41 0 0 0 1.146-.572v-2.9h1.022v6.738h-1.022v-3.05a4.83 4.83 0 0 1-1.2.624c-.403.128-.824.19-1.246.183a2.24 2.24 0 0 1-1.581-.529c-.39-.371-.6-.893-.573-1.431v-2.531zm9.925 6.861a3.1 3.1 0 0 1-2.36-.91c-.605-.698-.914-1.604-.859-2.526-.052-.927.232-1.841.8-2.575.53-.637 1.327-.991 2.156-.958a2.55 2.55 0 0 1 2 .833 3.2 3.2 0 0 1 .736 2.2v.647h-4.632c-.026.653.188 1.293.6 1.8.421.424 1.004.647 1.6.612a5.43 5.43 0 0 0 2.154-.455v.91a5.4 5.4 0 0 1-1.022.338 5.91 5.91 0 0 1-1.173.084zm-.286-6.131c-.49-.023-.965.171-1.3.529-.347.412-.549.927-.573 1.465h3.528a2.23 2.23 0 0 0-.432-1.479 1.51 1.51 0 0 0-1.214-.515zm7.52 6.131c-.852.051-1.683-.278-2.268-.9a3.71 3.71 0 0 1-.8-2.549 3.82 3.82 0 0 1 .813-2.612 2.94 2.94 0 0 1 2.326-.921 4.66 4.66 0 0 1 .971.1c.264.051.521.133.765.246l-.315.858a5.1 5.1 0 0 0-.739-.223c-.232-.056-.469-.085-.707-.089q-2.053 0-2.056 2.618a3.13 3.13 0 0 0 .5 1.905c.355.453.911.701 1.486.664a4.57 4.57 0 0 0 1.718-.36v.924a3.71 3.71 0 0 1-1.693.338zm7.552-6.861h1.123l-2.913 3.25 3.15 3.488h-1.194l-3.079-3.413v3.413h-1.022v-6.738h1.022v3.276zm7.074 6.738l-.2-.958h-.046a2.91 2.91 0 0 1-1.005.858 3.1 3.1 0 0 1-1.254.223 2.26 2.26 0 0 1-1.572-.515c-.396-.383-.605-.921-.573-1.471q0-2.043 3.271-2.14l1.146-.037v-.419c.033-.419-.088-.835-.341-1.17a1.4 1.4 0 0 0-1.091-.381c-.667.028-1.32.205-1.91.518l-.312-.781a4.83 4.83 0 0 1 1.091-.423c.389-.102.789-.154 1.191-.154a2.57 2.57 0 0 1 1.787.535c.426.465.634 1.089.573 1.717v4.6zm-2.308-.718a2.08 2.08 0 0 0 1.5-.524 1.94 1.94 0 0 0 .544-1.465v-.607l-1.022.043a3.73 3.73 0 0 0-1.758.378c-.357.222-.563.622-.538 1.041a1.06 1.06 0 0 0 .335.844 1.41 1.41 0 0 0 .938.29zm5.824.718h-1.188l1.939-2.847a2.09 2.09 0 0 1-1.2-.667 1.87 1.87 0 0 1-.415-1.245 1.81 1.81 0 0 1 .621-1.453 2.58 2.58 0 0 1 1.735-.526h3v6.738h-1.02v-2.692h-1.718zm.129-4.746c0 .778.573 1.167 1.7 1.167h1.644v-2.289h-1.853q-1.491.015-1.491 1.122zm14.872-1.992h1.12l-2.913 3.25 3.15 3.488h-1.194l-3.079-3.413v3.413h-1.022v-6.738h1.02v3.276zm8.746 3.376c.056.932-.241 1.851-.831 2.575-.591.63-1.429.968-2.291.924a3.05 3.05 0 0 1-1.607-.423 2.81 2.81 0 0 1-1.083-1.219 4.23 4.23 0 0 1-.381-1.857 3.74 3.74 0 0 1 .825-2.575c.59-.63 1.429-.966 2.291-.918.853-.038 1.678.306 2.251.938a3.73 3.73 0 0 1 .826 2.555zm-5.138 0a3.2 3.2 0 0 0 .516 1.968c.39.429.942.674 1.522.674s1.132-.245 1.522-.674a3.16 3.16 0 0 0 .518-1.971 3.12 3.12 0 0 0-.518-1.951 1.82 1.82 0 0 0-1.535-.667c-.582-.04-1.147.205-1.515.658a3.13 3.13 0 0 0-.511 1.963zm10.493 2.378l.192-.572.263-.724 1.83-4.446h1.3v6.726h-.9V54.73l-.123.358-.358.941-1.741 4.266h-.859l-1.744-4.292a12.69 12.69 0 0 1-.45-1.285v5.565h-.911V53.57h1.251l1.764 4.274c.188.48.35.97.486 1.468zm7.098.984h-1.017v-6.738h5.662v6.738h-1.034v-5.854h-3.608zm10.767 0l-.2-.958h-.049a2.89 2.89 0 0 1-1.008.858 3.07 3.07 0 0 1-1.252.223 2.26 2.26 0 0 1-1.572-.515c-.397-.383-.607-.92-.573-1.471q0-2.043 3.268-2.14l1.146-.037v-.419c.033-.419-.088-.835-.341-1.17a1.4 1.4 0 0 0-1.094-.381c-.666.028-1.318.205-1.907.518l-.312-.781a4.83 4.83 0 0 1 1.091-.423c.389-.102.789-.154 1.191-.154a2.56 2.56 0 0 1 1.787.535c.426.465.634 1.089.573 1.717v4.6zm-2.308-.718a2.07 2.07 0 0 0 1.5-.524 1.93 1.93 0 0 0 .544-1.465v-.607l-1.019.043a3.73 3.73 0 0 0-1.758.378c-.357.222-.563.622-.538 1.041a1.06 1.06 0 0 0 .335.844 1.4 1.4 0 0 0 .936.29zm6.506-6.02v2.821h3.777v-2.821h1.02v6.738h-1.02v-3.038h-3.78v3.038h-1.022v-6.738zm8.243 0v4.271l-.043 1.119-.017.352 3.649-5.742h1.274v6.738h-.954v-4.12l.017-.813.031-.8-3.643 5.722h-1.274v-6.727zm7.683 6.738h-1.194l1.933-2.847a2.09 2.09 0 0 1-1.2-.667 1.87 1.87 0 0 1-.415-1.245 1.81 1.81 0 0 1 .621-1.453 2.58 2.58 0 0 1 1.735-.526h3.007v6.738h-1.02v-2.692h-1.711zm.129-4.746c0 .778.573 1.167 1.7 1.167h1.644v-2.289h-1.853q-1.491.015-1.491 1.122z"/><path d="M125.247 18.462h-10.8v24.6h8.019V34.59l1.9-.017 3.382-.152c5.848-.572 8.878-3.307 8.878-7.945-.001-4.99-3.257-8.014-11.379-8.014zm-1.956 12.64h-.839v-8.9h2.1c2.293.096 4.093 1.998 4.064 4.292-.004 3.038-2.567 4.608-5.325 4.608zm94.668 11.976l-9.871-12.809 10.47-11.807h-7.744l-9.488 10.323V18.462h-8.008v24.616h8.007V32.647l7.763 10.431zM73.483 30.018v-.192a5.8 5.8 0 0 0 5.052-5.636c0-4.005-3.689-5.722-9.141-5.722h-13.95v24.619h14.528c6.014 0 9.5-2.515 9.5-6.818-.003-4.12-3.205-5.919-5.989-6.251zM63.46 22.202h2.95c2.317 0 3.826 1.259 3.826 3.242 0 2.12-1.887 3.53-4.413 3.53H63.46zm3.21 17.192h-3.219v-7.35h3.021c2.431 0 4.37 1.322 4.37 3.53a3.87 3.87 0 0 1-4.181 3.819zm94.891-20.932l.69 4.312h-7.813v20.444h-8.368V22.774h-7.457l.659-4.312zm23.719 24.616h-18.2V18.462h17.865l.616 4.309H175.09v5.539h9.857v4.309h-9.857v6.153h10.854zM0 36.927c11.9 0 22.584-2.352 29.919-6.157 6.3 3.267 10.124 7.57 10.124 12.3 0 10.208-17.928 18.485-40.042 18.485z" fill-rule="evenodd"/></g><path d="M0,0C21.23.223,38.258,7.9,38.258,17.349c0,4.712-4.238,8.986-11.123,12.114C20,26.427,10.47,24.6,0,24.6Z" fill-rule="evenodd" fill="#0f426d" opacity=".5"/><path d="M241.214 37.193c-1.685 1.508-3.853 2.364-6.114 2.415-4.009 0-6.71-2.666-6.71-8.835 0-6.246 2.709-8.912 6.71-8.912a9.4 9.4 0 0 1 6 2.4l2.9-3.316a15.05 15.05 0 0 0-9.494-3.1c-8.64 0-14.732 5.05-14.732 12.932s6.091 12.917 14.732 12.917a14.9 14.9 0 0 0 9.342-2.958z" fill="#00457c" fill-rule="evenodd"/></svg>
