<svg xmlns="http://www.w3.org/2000/svg" viewBox="0 0 482.5 226.97" fill="#0f426d" xmlns:v="https://vecta.io/nano"><path d="M184.36 88.53c-.39-21.45-10-39.42-25.7-49.22C148 16.9 119.22 0 91.66 0 47.58 0 0 33.26 0 87c0 30.86 18.82 58 47.08 68.41v27.16a44.4 44.4 0 1 0 88.79 0l-.17-27.26c30.24-9.42 49.22-35.23 48.66-66.78zM14 87c0-45.1 40.3-73 77.66-73 16.22 0 33.34 7.36 44.64 18.2-16.37-.9-38.59 4.64-57.3 18.89-12.84 9.77-27.28 26.19-31.23 52-1 6.53-.67 37.14-.67 37.14A58.42 58.42 0 0 1 14 87zm107.79 57H61.06v-24.44a30.41 30.41 0 0 1 60.82 0zm-30.3 69a30.44 30.44 0 0 1-30.41-30.41V158h60.62v1.66h0l.14 22.93A30.44 30.44 0 0 1 91.47 213zm44.3-72.53l.1-20.9a44.37 44.37 0 0 0-65.08-39.29 68.39 68.39 0 0 1 16.64-18.06c19.13-14.57 44.21-18.91 56.47-14.59 16 5.64 26.1 21.41 26.46 41.15.42 23.59-12.94 43.16-34.61 51.68zm61.39 3.53q.69 17.09.7 32 .01 14.91-.7 32h21.48v-45.94h40.78q-.09-2.37-.09-7c0-2.53.06-6.19.17-11zm104.26 27.05L299 177l-14-33h-21.95q16.29 35.22 22.63 51.52a24.57 24.57 0 0 1-7.75 1.14 45 45 0 0 1-9.6-1.14 59.63 59.63 0 0 1 2.95 8.06q1.1 3.91 3 11.58 14.36.26 23.82-6.12a40.94 40.94 0 0 0 14.4-17q5.64-12.15 9.73-21.7 4.09-9.55 8.94-21.54l1.06-2.68.88-2.16h-21.37q-1.14 5.33-10.3 27.09zm76.26-26.95h-18.31v-.1h-21.67q.7 17.09.71 32 .01 14.91-.71 32h21.67v-15.55h18.31q12.07 0 18.94-3 6.87-3 9.6-8.46a29 29 0 0 0 2.76-13.2q0-11.28-6.87-17.48-6.87-6.2-24.43-6.21zm9.91 28.71q-1.46 1.5-5.11 2.07a77.25 77.25 0 0 1-11 .57h-12.11v-13.91h12.15a86 86 0 0 1 11.14.52q3.66.54 5 2a7.49 7.49 0 0 1-.09 8.76zM461.19 144q-1.15 5.28-10.3 27l-2.47 5.9-14-32.94h-21.93q16.29 35.22 22.63 51.52a24.52 24.52 0 0 1-7.75 1.14 45.11 45.11 0 0 1-9.6-1.14 57 57 0 0 1 3 8.06q1.11 3.91 2.95 11.58 14.35.26 23.82-6.12a40.86 40.86 0 0 0 14.4-17q5.64-12.15 9.73-21.7 4.09-9.55 8.94-21.54l1.06-2.68.88-2.16zM250.12 92.42a10.31 10.31 0 0 0-6.12-1.94 13.54 13.54 0 0 0-6.93 1.7 10.44 10.44 0 0 0-4.41 5.38L231.12 91H221q.32 9.77.31 20.42-.01 10.65-.31 20.42h11.9q0-2.62-.21-9-.21-6.61-.21-9.6a10.23 10.23 0 0 0 4.33 5.27 13.61 13.61 0 0 0 7 1.71 10 10 0 0 0 6.27-2.13 13.92 13.92 0 0 0 4.28-5.61 18.34 18.34 0 0 0 1.54-7.48 17.4 17.4 0 0 0-1.53-7.33 12.8 12.8 0 0 0-4.25-5.25zm-7.79 16.82a5.59 5.59 0 0 1-4 1.5 6.49 6.49 0 0 1-2.52-.55 5.53 5.53 0 0 1-2.26-1.79 4.88 4.88 0 0 1-.94-3.07q0-3.26 1.47-4.64a6.11 6.11 0 0 1 4.36-1.4 5.06 5.06 0 0 1 4 1.68 6.46 6.46 0 0 1 1.47 4.36 5.12 5.12 0 0 1-1.58 3.91zm49.26-8.32a11.63 11.63 0 0 0-1.18-5.3 9 9 0 0 0-3.49-3.75 10.36 10.36 0 0 0-5.46-1.39 9.55 9.55 0 0 0-5.64 1.75 10.6 10.6 0 0 0-3.76 5.44l.06-2.79-.06-16.16h-12.49q.42 7.56.42 20.47 0 12.91-.42 20.47h12.55q-.21-4.14-.21-12.7v.1a8.19 8.19 0 0 1 1.29-4.88 3.74 3.74 0 0 1 3.12-1.78 3.55 3.55 0 0 1 2.86 1.36 5.62 5.62 0 0 1 1.13 3.68q0 6.51-.32 14.22h11.82c-.18-2.8-.27-6.52-.27-11.18zm38.54 12.55a5.44 5.44 0 0 1-.42-2.52v-6.25q0-7.24-3.92-10.73-3.92-3.49-12-3.49a21.36 21.36 0 0 0-9.79 2.07 21.92 21.92 0 0 0-7.19 6.06 70.52 70.52 0 0 1 8 4.94q-4.72.74-7 2.67a6.69 6.69 0 0 0-2.26 5.36 7.49 7.49 0 0 0 2.65 6.25q2.65 2.1 7.9 2.1a12.39 12.39 0 0 0 7.43-2.1 13 13 0 0 0 4.44-6.41v1.31a8.61 8.61 0 0 0 1.47 5.18c1 1.34 3 2 6 2l3.28-.11 2.92-.37.21-4.93a2.51 2.51 0 0 1-1.72-1.03zm-19.95-12.86a11.62 11.62 0 0 1 4.72-.9 4.5 4.5 0 0 1 2.21.45 1.28 1.28 0 0 1 .78 1.08 1.37 1.37 0 0 1-.78 1.2 5.62 5.62 0 0 1-2.73.48 71.45 71.45 0 0 0-7.88.36 10.85 10.85 0 0 1 3.68-2.67zm7.77 6.66a6.55 6.55 0 0 1-3.26 3 12.15 12.15 0 0 1-5.3 1.13c-1.82 0-2.73-.51-2.73-1.52s1-1.61 2.94-2l1.89-.31 3.67-.66a12.23 12.23 0 0 0 2.79-1zm29.18-8.5L345.56 91l-5.3.16c-1.3 0-3 0-5.3-.16q.42 7.66.42 14.38 0 6.72-.38 14.28h12.5l-.21-8.29v-3.47.1a7.5 7.5 0 0 1 1.42-4.78 5.3 5.3 0 0 1 4.41-1.78 18.68 18.68 0 0 1 6.2 1.41L361 91.09a20.15 20.15 0 0 0-2.94-.21q-8.72-.04-10.93 7.89zm70.93 3.57c0-3.67-.9-6.57-2.68-8.69a9.14 9.14 0 0 0-7.4-3.17 10.23 10.23 0 0 0-6.46 2.2 12 12 0 0 0-4 5.93 9.47 9.47 0 0 0-9.92-8.13 9.61 9.61 0 0 0-6 2 11.57 11.57 0 0 0-3.83 6.27L376.11 91l-5.3.16c-1.3 0-3 0-5.3-.16q.42 7.66.42 14.38 0 6.72-.42 14.28h12.55q-.22-4.25-.22-7.82l.11-5.67a7.6 7.6 0 0 1 1.44-4.22 3.78 3.78 0 0 1 3.07-1.55 3.57 3.57 0 0 1 2.87 1.36 5.61 5.61 0 0 1 1.12 3.68q0 6.51-.31 14.22H398q-.26-3.87-.26-13.12A7.11 7.11 0 0 1 399 102a3.87 3.87 0 0 1 3.08-1.57 3.94 3.94 0 0 1 3.12 1.34 5.37 5.37 0 0 1 1.18 3.7q0 7.35-.42 14.22h12.23q-.11-2.67-.1-8.61zM457 113.47a5.44 5.44 0 0 1-.42-2.52v-6.25q0-7.24-3.91-10.73-3.91-3.49-12-3.49a21.36 21.36 0 0 0-9.82 2.07 21.92 21.92 0 0 0-7.19 6.06 70.52 70.52 0 0 1 8 4.94q-4.73.74-7 2.67a6.69 6.69 0 0 0-2.26 5.36 7.52 7.52 0 0 0 2.65 6.25q2.65 2.1 7.9 2.1a12.39 12.39 0 0 0 7.43-2.1 12.9 12.9 0 0 0 4.44-6.41v1.31a8.61 8.61 0 0 0 1.47 5.18c1 1.34 3 2 6 2l3.28-.11 2.92-.37.21-4.93a2.51 2.51 0 0 1-1.7-1.03zm-20-12.86a11.62 11.62 0 0 1 4.72-.9 4.5 4.5 0 0 1 2.21.45 1.29 1.29 0 0 1 .79 1.08 1.38 1.38 0 0 1-.79 1.2 5.62 5.62 0 0 1-2.73.48 71.45 71.45 0 0 0-7.88.36 10.85 10.85 0 0 1 3.68-2.67zm7.77 6.66a6.55 6.55 0 0 1-3.26 3 12.15 12.15 0 0 1-5.3 1.13c-1.82 0-2.73-.51-2.73-1.52s1-1.61 2.94-2l1.89-.31 3.68-.66a12.31 12.31 0 0 0 2.78-1z"/></svg>