<svg xmlns="http://www.w3.org/2000/svg" width="310.106" height="97.755" viewBox="0 0 310.106 97.755">
  <g id="Group_10724" data-name="Group 10724" transform="translate(-985 -484.287)">
    <path id="Path_83" data-name="Path 83" d="M349.677-243.225a17.251,17.251,0,0,0-12.716,5.594l-19.426,21.192a17.251,17.251,0,0,0-3.5,17.552l15.295,42.061a17.251,17.251,0,0,0,16.212,11.355H543.135a17.251,17.251,0,0,0,11.143-4.082l22.762-19.26a17.251,17.251,0,0,0,4.677-20.047L562.59-232.852a17.251,17.251,0,0,0-15.82-10.373Z" transform="translate(672 727.512)" fill="#c7d2ea"/>
    <path id="Path_84" data-name="Path 84" d="M834-231c0,2.369,25.391,19.476,27.51,20.536l5.761,2.88a6.255,6.255,0,0,0,8.606-3.272l2.934-7.335A6.255,6.255,0,0,1,886.6-221.8l10.1,3.367a2.8,2.8,0,0,1,.154,5.257l-8.758,3.5a6.256,6.256,0,0,0-3.847,4.78l-2.723,16.335a6.255,6.255,0,0,1-3.372,4.566l-16.643,8.321a6.255,6.255,0,0,0-3.458,5.595Z" transform="translate(396.493 719.07)" fill="#c7d2ea"/>
    <path id="Path_83-2" data-name="Path 83" d="M343-243.225a14.986,14.986,0,0,0-10.4,4.058l-15.888,15.373a11.47,11.47,0,0,0-2.859,12.732l12.51,30.512c2.028,4.945,7.327,8.237,13.26,8.237H501.226a15.227,15.227,0,0,0,9.114-2.961l18.617-13.971c4.754-3.568,6.309-9.478,3.825-14.543L517.137-235.7c-2.24-4.569-7.322-7.524-12.939-7.524Z" transform="translate(698.567 737.963)" fill="#fff"/>
    <path id="Path_5849" data-name="Path 5849" d="M18.6-.612q-.408-.476-.918-.986l-1.5-1.564q-.646-.714-1.19-1.36Q13.872-5.848,11.968-8.67l-1.53-2.176L7.072-7.956q.1,3.026.306,5.712A2.029,2.029,0,0,1,6.868-.7,2.065,2.065,0,0,1,5.423.034a2,2,0,0,1-1.53-.51A2.05,2.05,0,0,1,3.162-1.9q-.2-2.72-.34-5.848A2.028,2.028,0,0,1,2.788-9.69q-.1-3.842-.1-12.648a2.035,2.035,0,0,1,.612-1.5,2.035,2.035,0,0,1,1.5-.612,2.035,2.035,0,0,1,1.5.612,2.035,2.035,0,0,1,.612,1.5q0,6.6.034,8.942,4.25-3.74,10.472-10.2a2.082,2.082,0,0,1,1.479-.68,2.036,2.036,0,0,1,1.513.561,2.025,2.025,0,0,1,.68,1.462,2.068,2.068,0,0,1-.544,1.513q-4.114,4.216-6.97,6.97.714.952,1.9,2.72,1.8,2.618,2.788,3.808.544.646,1.19,1.326l1.394,1.462L22.066-3.2A1.394,1.394,0,0,1,22.389-1.9a3.356,3.356,0,0,1-.595,1.377,1.693,1.693,0,0,1-1.513.561A2.388,2.388,0,0,1,18.6-.612Zm7.99.1a1.978,1.978,0,0,1-1.5.595,2.066,2.066,0,0,1-1.5-.646A2.032,2.032,0,0,1,23-2.074a2.039,2.039,0,0,1,.663-1.5A47.473,47.473,0,0,0,28.22-8.7a73.547,73.547,0,0,1-4.182-6.12,2.029,2.029,0,0,1-.272-1.615,2.045,2.045,0,0,1,.952-1.326,2.069,2.069,0,0,1,1.615-.255,1.985,1.985,0,0,1,1.309.952l3.2,5q1.462-2.278,2.822-4.862A2.016,2.016,0,0,1,34.9-17.969a2.062,2.062,0,0,1,1.615.153,2.016,2.016,0,0,1,1.037,1.241A2.062,2.062,0,0,1,37.4-14.96a43.3,43.3,0,0,1-3.978,6.29Q35.36-5.984,37.4-3.434a2.035,2.035,0,0,1,.442,1.564A2.061,2.061,0,0,1,37.06-.442,2.035,2.035,0,0,1,35.5,0a2.061,2.061,0,0,1-1.428-.782L30.77-5.1A50.512,50.512,0,0,1,26.588-.51ZM46.614,0a10.877,10.877,0,0,1-3.5-1.224A8.834,8.834,0,0,1,40.46-3.74,8.024,8.024,0,0,1,39.3-6.919a10.533,10.533,0,0,1,.085-3.213,10.517,10.517,0,0,1,1.037-3.026,11,11,0,0,1,1.938-2.567,9.577,9.577,0,0,1,2.618-1.836,7.058,7.058,0,0,1,3.281-.646,8.189,8.189,0,0,1,3.621,1,8.275,8.275,0,0,1,3.57,3.536,6.188,6.188,0,0,1,.68,2.584l.068.986a6.372,6.372,0,0,0,.034.748,1.919,1.919,0,0,1-.153,1.156,1.868,1.868,0,0,1-.8.85,1.78,1.78,0,0,1-1.292.374,103.334,103.334,0,0,0-10.574-.068,3.868,3.868,0,0,0,1.8,2.346,6.231,6.231,0,0,0,2.023.7,4.287,4.287,0,0,0,1.989-.017,2.986,2.986,0,0,0,.816-.51l.714-.578a6.966,6.966,0,0,1,.85-.68,1.878,1.878,0,0,1,1.513-.306,2.016,2.016,0,0,1,1.309.867,1.9,1.9,0,0,1,.306,1.513,2.161,2.161,0,0,1-.85,1.326q-.2.136-.544.408l-.748.646a7.232,7.232,0,0,1-2.244,1.19A8.637,8.637,0,0,1,46.614,0ZM43.962-11.152q3.944-.136,8.058,0a1.522,1.522,0,0,0-.136-.612,4.591,4.591,0,0,0-1.9-1.87,3.821,3.821,0,0,0-3.332-.221,5.35,5.35,0,0,0-2.618,2.567Zm17.1,4.216a2.142,2.142,0,0,1-1.6-.663A2.187,2.187,0,0,1,58.82-9.18a2.187,2.187,0,0,1,.646-1.581,2.142,2.142,0,0,1,1.6-.663h6.018a2.142,2.142,0,0,1,1.6.663,2.187,2.187,0,0,1,.646,1.581A2.187,2.187,0,0,1,68.68-7.6a2.142,2.142,0,0,1-1.6.663ZM85.612-.68A73.426,73.426,0,0,1,79.9-7.48L77.486-5.27q.136,1.462.34,2.924a2.165,2.165,0,0,1-.408,1.581,1.983,1.983,0,0,1-1.394.816A2.105,2.105,0,0,1,74.443-.34a2.042,2.042,0,0,1-.833-1.394,80.6,80.6,0,0,1-.51-14.314,2.042,2.042,0,0,1,.68-1.479,2,2,0,0,1,1.53-.544,2.1,2.1,0,0,1,1.479.7,1.947,1.947,0,0,1,.527,1.53q-.1,2.754-.1,5.066l7.446-6.8a2.056,2.056,0,0,1,1.547-.561,2.061,2.061,0,0,1,1.462.714,2.032,2.032,0,0,1,.544,1.53,2.028,2.028,0,0,1-.7,1.445l-4.454,4.08a57.85,57.85,0,0,0,5.746,6.834,2.119,2.119,0,0,1,.527,1.547,2.061,2.061,0,0,1-.714,1.462,2.032,2.032,0,0,1-1.53.544A2.147,2.147,0,0,1,85.612-.68Zm7.616.17a1.978,1.978,0,0,1-1.5.595,2.066,2.066,0,0,1-1.5-.646,2.032,2.032,0,0,1-.6-1.513,2.039,2.039,0,0,1,.663-1.5A47.474,47.474,0,0,0,94.86-8.7a73.548,73.548,0,0,1-4.182-6.12,2.029,2.029,0,0,1-.272-1.615,2.045,2.045,0,0,1,.952-1.326,2.069,2.069,0,0,1,1.615-.255,1.985,1.985,0,0,1,1.309.952l3.2,5q1.462-2.278,2.822-4.862a2.016,2.016,0,0,1,1.241-1.037,2.062,2.062,0,0,1,1.615.153,2.017,2.017,0,0,1,1.037,1.241,2.062,2.062,0,0,1-.153,1.615,43.3,43.3,0,0,1-3.978,6.29Q102-5.984,104.04-3.434a2.035,2.035,0,0,1,.442,1.564A2.061,2.061,0,0,1,103.7-.442,2.035,2.035,0,0,1,102.136,0a2.061,2.061,0,0,1-1.428-.782L97.41-5.1A50.511,50.511,0,0,1,93.228-.51ZM113.254,0a10.877,10.877,0,0,1-3.5-1.224A8.834,8.834,0,0,1,107.1-3.74a8.025,8.025,0,0,1-1.156-3.179,10.533,10.533,0,0,1,.085-3.213,10.516,10.516,0,0,1,1.037-3.026A11,11,0,0,1,109-15.725a9.577,9.577,0,0,1,2.618-1.836,7.058,7.058,0,0,1,3.281-.646,8.189,8.189,0,0,1,3.621,1,8.275,8.275,0,0,1,3.57,3.536,6.188,6.188,0,0,1,.68,2.584l.068.986a6.372,6.372,0,0,0,.034.748,1.919,1.919,0,0,1-.153,1.156,1.868,1.868,0,0,1-.8.85,1.78,1.78,0,0,1-1.292.374,103.334,103.334,0,0,0-10.574-.068,3.868,3.868,0,0,0,1.8,2.346,6.231,6.231,0,0,0,2.023.7,4.287,4.287,0,0,0,1.989-.017,2.986,2.986,0,0,0,.816-.51L117.4-5.1a6.966,6.966,0,0,1,.85-.68,1.878,1.878,0,0,1,1.513-.306,2.016,2.016,0,0,1,1.309.867,1.9,1.9,0,0,1,.306,1.513,2.161,2.161,0,0,1-.85,1.326q-.2.136-.544.408l-.748.646a7.232,7.232,0,0,1-2.244,1.19A8.637,8.637,0,0,1,113.254,0ZM110.6-11.152q3.944-.136,8.058,0a1.522,1.522,0,0,0-.136-.612,4.59,4.59,0,0,0-1.9-1.87,3.821,3.821,0,0,0-3.332-.221,5.35,5.35,0,0,0-2.618,2.567Zm18.7,6.936a2.456,2.456,0,0,1,.748,1.8,2.456,2.456,0,0,1-.748,1.8,2.456,2.456,0,0,1-1.8.748,2.456,2.456,0,0,1-1.8-.748,2.456,2.456,0,0,1-.748-1.8,2.456,2.456,0,0,1,.748-1.8,2.456,2.456,0,0,1,1.8-.748A2.456,2.456,0,0,1,129.3-4.216Zm7.48,0a2.456,2.456,0,0,1,.748,1.8,2.456,2.456,0,0,1-.748,1.8,2.456,2.456,0,0,1-1.8.748,2.456,2.456,0,0,1-1.8-.748,2.456,2.456,0,0,1-.748-1.8,2.456,2.456,0,0,1,.748-1.8,2.456,2.456,0,0,1,1.8-.748A2.456,2.456,0,0,1,136.782-4.216Zm7.48,0a2.456,2.456,0,0,1,.748,1.8,2.456,2.456,0,0,1-.748,1.8,2.456,2.456,0,0,1-1.8.748,2.456,2.456,0,0,1-1.8-.748,2.456,2.456,0,0,1-.748-1.8,2.456,2.456,0,0,1,.748-1.8,2.456,2.456,0,0,1,1.8-.748A2.456,2.456,0,0,1,144.262-4.216Z" transform="translate(1049.1 540.286)" fill="#5e6e93"/>
  </g>
</svg>
