<svg xmlns="http://www.w3.org/2000/svg" width="66.757" height="70.658" ><path d="M5.703 70.111h49.656l-3.993-8.5-45.663 8.5" fill="#b3c5f0"/><g fill="#fff"><path d="M6.287 68.457L2.15 11.364h54.303l-4.43 52.376-45.735 4.717z"/><path d="M4.3 13.364l3.833 52.892 42.036-4.336 4.107-48.556H4.3m-4.3-4h58.629l-4.753 56.195-49.434 5.099L0 9.364z" fill="#ffba00"/></g><path d="M12.932 54.367v-2.37l22.937-1.316-.573 4.41zm0-13.408l31.526 2.049v3.685L13.719 47.82zm0-3.6v-2.374l32.763-1.316-.818 4.409zm-.713-13.412l32.763 2.047v3.686l-31.945 1.126z" fill="#b3c5f0"/><path d="M8.02 16.899l2.866 46.789 35.534-3.689 3.686-43.1z" fill="none" stroke="#ffba00"/><path d="M50.108 1.684c6.774 0 15.086 8.4 15.086 15.243s-8.312 13.819-15.086 13.819-13.676-6.974-13.676-13.819 6.9-15.243 13.676-15.243zm7.362.051c.607 1.962 5.641 2.942 7.7 8.09s2.487-1.165-1.031-4.657-7.276-5.393-6.669-3.433zM55.722.043c-.816.415-1.049 1.259.128 1.783s.688-2.198-.128-1.783z" fill="#0f426d"/><path d="M46.305 17.764s-1.975 3.997-.249 5.8c.83.808 1.977 1.204 3.128 1.079s2.187-.757 2.825-1.724c1.265-1.926-.075-.852-.075-.852s-2.774 1.598-3.117 1.304c-.639-.79-1.198-1.643-1.668-2.544-.031-.185-.844-3.064-.844-3.064z" fill="#cacaca"/><g fill="#fff"><path d="M48.358 14.212c-1.079 1.898-4.654 6.16-1.132 9.317s7.939-4.09 7.939-4.09a2.05 2.05 0 0 0-1.824-.543 2.06 2.06 0 0 0-1.488 1.187c-.752 1.191-1.208 1.715-1.979 1.403-.558-.213-1.488-1.193.519-3.621 4.103-4.966-.957-5.549-2.035-3.653zm6.637-4.593c-.436-.995-2.984-3.308-4.47-.708s1.112 4.139 2.351 4.165 2.555-2.462 2.119-3.457z"/><path d="M52.404 8.245a2.16 2.16 0 0 1 2.664 1.757c.253 1.304-.548 2.152-1.852 2.406s-1.996-.376-2.25-1.679.134-2.231 1.437-2.484z"/></g><path d="M50.968 10.729l-.037-.219c.261-.019.52.067.716.241 1.132.795.921.93 2.134.008 1.01-.77.178-2.044-.129-2.45.75.258 1.295.909 1.417 1.692a1.99 1.99 0 0 1-1.852 2.406 2.42 2.42 0 0 1-.84.033c-.771-.122-1.216-.723-1.408-1.711zm-2.437 10.97c-1.539-1.074-.001-2.99 1.488-5.434 1.06-1.741.87-2.646.673-3.022 1.312.22 2.18 1.618-.298 4.61-2.005 2.429-1.078 3.408-.522 3.621a1.16 1.16 0 0 0 .337.087 1.62 1.62 0 0 1-1.163.347 1.23 1.23 0 0 1-.516-.209z" fill="#ebebeb"/></svg>
