<svg xmlns="http://www.w3.org/2000/svg" xmlns:xlink="http://www.w3.org/1999/xlink" width="192.879" height="147.514" ><g transform="matrix(.981627 -.190809 .190809 .981627 1.001 38.321)"><path d="M173.847 107.538L0 111.238V3.958l171.656-9.2z" fill="#b3c5f0"/><path d="M170.936 102.722l-167.726 1.6L0 3.21 167.726 0z" fill="#fff"/><rect width="150.873" height="92.289" rx="12.905" fill="#0f426d" x="10.013" y="6.821"/><path d="M131.043 24.206c0-.507.306-.965.774-1.159s1.008-.087 1.367.272a1.25 1.25 0 0 1 .271 1.367c-.195.469-.652.774-1.159.773a1.25 1.25 0 0 1-1.253-1.254zm2.224 0c-.002-.535-.435-.968-.97-.971a.97.97 0 0 0-.966.968.97.97 0 0 0 .967.968.97.97 0 0 0 .969-.965zm-.345.685h-.323l-.3-.557h-.257v.557h-.289v-1.356h.677c.312 0 .526.056.526.415 0 .25-.128.353-.368.369zm-.481-.773c.155 0 .237-.033.237-.2 0-.136-.124-.161-.3-.161h-.342v.365zm-80.011-.913H42.099v.185c0 4.124-.186 6.215-.552 6.215h-.656v3.51h3.025v-.542c.009-.277.064-.365.4-.365h5.373c.33 0 .383.085.383.359v.547h3.026v-3.51h-.665zm-3.025 2.6v3.8h-4.682a13.98 13.98 0 0 0 .4-3.8zm11.227.909c-.042.075-.072.155-.09.239a.37.37 0 0 0-.056-.084l-3.111-3.664h-4.187l5.8 6.34c-.052.059-.115.06-.324.06h-3.071v2.6h2.937c2.487 0 2.969-.876 3.927-2.622l.339-.611 3.247-5.77h-3.418zm11.664-3.629c-5.72 0-5.884.393-5.884 4.628s.164 4.617 5.884 4.617c5.511 0 5.9-.3 5.9-4.617s-.389-4.628-5.9-4.628zm0 6.642c-2.858 0-2.858 0-2.858-2.013s0-2.026 2.871-2.026 2.858 0 2.858 2.026 0 2.012-2.871 2.012zm18.727-6.521H86.84l-3.019 3.031h-1.126v-3.031h-3.026v9h3.026v-3.369h1.127l3.357 3.369h4.385l-5.042-4.7zm6.481-.121c-5.72 0-5.884.393-5.884 4.628s.164 4.617 5.884 4.617c5.51 0 5.9-.3 5.9-4.617s-.39-4.628-5.9-4.628zm0 6.642c-2.859 0-2.859 0-2.859-2.013s0-2.026 2.871-2.026 2.858 0 2.858 2.026 0 2.012-2.87 2.012zm8.458-6.338c0 6.215 0 6.215-1.072 6.215h-.185v2.6h1.441c2.1 0 2.822-1.62 2.84-6.4h4.354v6.4h3.026v-9h-10.4zm23.381 6.216v-6.4H119.01v.185c0 4.124-.185 6.215-.552 6.215h-.655v3.51h3.025v-.542c.009-.277.065-.365.4-.365h5.373c.331 0 .383.085.383.359v.547h3.026v-3.51zm-3.026-3.8v3.8h-4.681a14.06 14.06 0 0 0 .4-3.8zM67.206 41.392v-3.851h8.049v6.448h.892v3.525h-1.751V45.59h-6.935v1.924h-1.762v-3.525h.544c.693-.678 1.046-1.631.963-2.597zm6.124-2.25h-4.268v2.644a3.56 3.56 0 0 1-.662 2.2h4.93zm3.96-1.6h8.221v1.519h-6.3v1.763h6.1v1.4h-6.1v1.844h6.3v1.52H77.29zm11.428 3.085h4.973v-3.085h1.926v8.049h-1.926v-3.363h-4.973v3.363h-1.927v-8.049h1.927zm10.058-3.085v3h3.514c1.9 0 2.911.475 2.911 2.528 0 2.03-.952 2.517-2.863 2.517h-5.486v-8.049zm0 6.448h3.329c1.032 0 1.171-.232 1.171-.939 0-.615-.1-.9-1.1-.9h-3.4z" fill="#fff"/><g fill="#0a1233"><use xlink:href="#B"/><use xlink:href="#C"/><use xlink:href="#D"/></g><g fill="#eeedf0"><use xlink:href="#B"/><use xlink:href="#C"/><use xlink:href="#D"/></g><g fill="#dfdfde"><path d="M101.945 87.552a2.59 2.59 0 0 1-2.455 2.474c-1.223-.188-2.126-1.24-2.126-2.477s.903-2.289 2.126-2.477a2.59 2.59 0 0 1 2.455 2.48z"/><use xlink:href="#D"/><use xlink:href="#B"/></g><g fill="#0a1233"><path d="M85.291 59.828c-21.365 0-41.506 17.58-41.506 38.945 0 .113 0 .225.006.337h83c.007-.113.007-.225.007-.337-.001-21.365-20.142-38.945-41.507-38.945z"/><use xlink:href="#E"/><use xlink:href="#F"/></g><g fill="#eeedf0"><path d="M99.915 89.965c-.739-1.059-1.573-2.048-2.492-2.955a17.76 17.76 0 0 0-12.132-5.354c-8.934 0-17.567 8.534-17.761 17.455h35.521a16.89 16.89 0 0 0-3.136-9.146z"/><use xlink:href="#E"/><use xlink:href="#F"/></g><path d="M114.896 82.386c-.331.606 1.6 1.212.768 1.868s-2.031-.875-2.031-.875-.993 1.868-1.649 1.812.881-2.53-.444-2.086-1.593-1.05-1.593-1.05a14.41 14.41 0 0 1 1.593-1.155c.831-.494.056-1.043.5-2.143s2.474 1.867 2.474 1.867 2.143-.38 2.417.225-1.704.931-2.035 1.537zM67.411 70.01s.3.787.106.975-.518-.931-.737-.419-.731.2-.731.2a5.44 5.44 0 0 1 .075-.781c.069-.375-.294-.294-.506-.713s1.205-.243 1.205-.243.45-.744.706-.668-.168.755-.081 1.011.781-.155.761.264-.798.374-.798.374zm36.459 4.693s.3.787.106.968-.518-.924-.737-.418-.731.2-.731.2a5.47 5.47 0 0 1 .075-.774c.069-.381-.293-.294-.506-.712s1.205-.25 1.205-.25.45-.737.706-.663-.175.756-.081 1.013.781-.156.761.263-.798.373-.798.373zm-17.124-8.161c.374-.86 1.244-.325 1.244-.325a9.3 9.3 0 0 1-.147 1.32c-.121.639.5.5.856 1.224s-2.055.4-2.055.4-.78 1.249-1.213 1.113.3-1.28.154-1.721-1.333.258-1.288-.454 1.364-.629 1.364-.629-.49-1.342-.164-1.646.868 1.582 1.249.718zM63.614 85.147c.855.388.305 1.25.305 1.25a9.2 9.2 0 0 1-1.317-.169c-.637-.131-.513.494-1.238.837s-.362-2.062-.362-2.062-1.237-.8-1.093-1.23 1.274.325 1.717.181-.237-1.336.475-1.281.606 1.375.606 1.375 1.35-.469 1.649-.137-1.596.845-.742 1.236zm-7.554 6.222c.388.176.144.563.144.563a3.75 3.75 0 0 1-.593-.069c-.287-.062-.231.219-.556.375s-.162-.931-.162-.931-.556-.356-.487-.55.568.15.768.081-.106-.6.213-.575.269.618.269.618.606-.212.743-.063-.719.377-.339.551zm54.17 2.605c-.007.362-.906-.25-.906-.25s-.563.343-.706.205.375-.456.4-.662-.58-.162-.418-.438.668.019.668.019.068-.638.262-.693.037.812.356.538.563.119.563.119a3.78 3.78 0 0 1-.319.5c-.182.231.1.299.1.662z" fill="#ffbc0f"/><path d="M95.156 99.11h-3.049a5.27 5.27 0 0 1 3.049 0zm-9.022-6.441c-.571 1.349-2.088 2.028-3.474 1.555s-2.172-1.938-1.799-3.355a2.79 2.79 0 1 1 5.273 1.8zm6.582-1.686c-.436-.453-.467-1.159-.072-1.648a1.26 1.26 0 0 1 1.609.369c.064.058.12.126.165.2a1.01 1.01 0 0 1-.799 1.58 1.01 1.01 0 0 1-.901-.499zm-11.105-3.237c-.162.494-.693.9-1.124.755-.444-.262-.627-.81-.431-1.286a.74.74 0 0 1 .068-.2.83.83 0 0 1 1.451-.114.83.83 0 0 1 .036.845zm-6.247 4.998c-.162.494-.693.9-1.124.756a1.04 1.04 0 0 1-.431-1.288c.014-.07.037-.137.069-.2.203-.411.699-.58 1.111-.38a.83.83 0 0 1 .42.478.82.82 0 0 1-.045.634z" fill="#dfdfde"/></g><defs ><path id="B" d="M100.965 96.766a2.79 2.79 0 0 1-4.84 1.077 2.79 2.79 0 0 1-.432-2.87c.572-1.345 2.085-2.021 3.468-1.55s2.17 1.929 1.804 3.343z"/><path id="C" d="M97.392 87.177a2.5 2.5 0 0 1 2.1-2.1 2.48 2.48 0 0 1 2.477 2.477 2.48 2.48 0 0 1-2.477 2.477 2.5 2.5 0 0 1-2.1-2.854z"/><path id="D" d="M104.476 91.9c-.676.237-1.423-.057-1.757-.691s-.152-1.416.426-1.839a1.43 1.43 0 0 1 1.93.6 1.43 1.43 0 0 1-.599 1.93z"/><path id="E" d="M82.357 88.502c-.443-.262-.627-.81-.431-1.286.013-.07.037-.137.069-.2a.83.83 0 0 1 1.108-.378.83.83 0 0 1 .378 1.109c-.158.493-.689.898-1.124.755z"/><path id="F" d="M88.909 88.914c-1.208.614-2.685.143-3.314-1.057s-.177-2.683 1.014-3.328a2.5 2.5 0 0 1 2.3 4.385z"/></defs></svg>
