<svg xmlns="http://www.w3.org/2000/svg" width="198.072" height="157.508" ><g transform="matrix(.966 -.259 .259 .966 1.358 50.062)"><path d="M173.847 107.538L0 111.238V3.958l171.656-9.2z" fill="#b3c5f0"/><path d="M170.936 102.722L3.21 105.932.001 3.21 167.727 0z" fill="#fff"/><rect width="150.873" height="92.289" rx="12.905" fill="#ffba00" x="10.014" y="6.821"/><path d="M131.044 24.206c0-.507.306-.965.774-1.159s1.008-.087 1.367.272.466.898.271 1.367-.652.774-1.159.773a1.25 1.25 0 0 1-1.253-1.254zm2.224 0c-.002-.535-.435-.968-.97-.971a.97.97 0 0 0-.966.968.97.97 0 0 0 .967.968.97.97 0 0 0 .969-.965zm-.345.685h-.323l-.3-.557h-.257v.557h-.289v-1.356h.677c.312 0 .527.056.527.415 0 .25-.128.353-.368.369zm-.481-.773c.155 0 .237-.033.237-.2 0-.136-.124-.161-.3-.161h-.342v.365z" fill="#232471"/><path d="M52.431 23.205H42.1v.185c0 4.124-.186 6.215-.552 6.215h-.656v3.51h3.025v-.542c.009-.277.064-.365.4-.365h5.373c.33 0 .383.085.383.359v.547h3.026v-3.51h-.665zm-3.025 2.6v3.8h-4.682a13.98 13.98 0 0 0 .4-3.8zm11.227.909c-.042.075-.072.155-.09.239a.37.37 0 0 0-.056-.084l-3.111-3.664h-4.187l5.8 6.34c-.052.059-.115.06-.324.06h-3.07v2.6h2.937c2.487 0 2.969-.876 3.927-2.622l.339-.611 3.247-5.77h-3.418zm11.664-3.629c-5.72 0-5.884.393-5.884 4.628s.164 4.617 5.884 4.617c5.511 0 5.9-.3 5.9-4.617s-.389-4.628-5.9-4.628zm0 6.642c-2.858 0-2.858 0-2.858-2.013s0-2.026 2.871-2.026 2.858 0 2.858 2.026 0 2.012-2.871 2.012zm18.727-6.521h-4.183l-3.019 3.031h-1.126v-3.031H79.67v9h3.026v-3.369h1.127l3.357 3.369h4.385l-5.042-4.7zm6.481-.121c-5.72 0-5.884.393-5.884 4.628s.164 4.617 5.884 4.617c5.51 0 5.9-.3 5.9-4.617s-.39-4.628-5.9-4.628zm0 6.642c-2.859 0-2.859 0-2.859-2.013s0-2.026 2.871-2.026 2.858 0 2.858 2.026 0 2.012-2.87 2.012zm8.458-6.338c0 6.215 0 6.215-1.072 6.215h-.185v2.6h1.441c2.1 0 2.822-1.62 2.84-6.4h4.354v6.4h3.026v-9h-10.4zm23.381 6.216v-6.4h-10.333v.185c0 4.124-.185 6.215-.552 6.215h-.655v3.51h3.025v-.542c.009-.277.065-.365.4-.365h5.373c.331 0 .383.085.383.359v.547h3.026v-3.51zm-3.026-3.8v3.8h-4.681a14.05 14.05 0 0 0 .4-3.8z" fill="#0f426d"/><path d="M126.689 99.17l-.007.342H44.253l-.006-.342c0-21.65 19.52-39.478 41.171-39.528v-.007c.018 0 .031.007.051.007s.031-.007.044-.007v.007a42.31 42.31 0 0 1 28.063 11.061A40.65 40.65 0 0 1 124.3 86.252a36.28 36.28 0 0 1 2.389 12.918z" fill="#ddf2f6"/><path d="M46.869 86.068a40.54 40.54 0 0 1 10.708-15.441 6.3 6.3 0 0 1 3.435 6.744 5.2 5.2 0 1 1-3.728 9.132c-1.24 1.682-3.234 2.639-5.322 2.552s-3.996-1.206-5.092-2.986zm77.555 0a40.53 40.53 0 0 0-10.709-15.441 6.3 6.3 0 0 0-3.435 6.744 5.2 5.2 0 1 0 3.729 9.132 6.29 6.29 0 0 0 10.414-.434z" fill="#fff"/><path d="M104.494 99.17l-.006.342H66.451l-.006-.342c0-9.8 9.214-19.025 19.025-19.025s19.024 9.22 19.024 19.025zM85.466 66.195a1.9 1.9 0 0 0-1.9 1.9v6.341a1.9 1.9 0 1 0 3.8 0v-6.341a1.9 1.9 0 0 0-1.9-1.9zm32.979 32.969a2.06 2.06 0 0 1-.032.342H108.33a2.06 2.06 0 0 1-.032-.342 1.9 1.9 0 0 1 1.9-1.9h6.341a1.91 1.91 0 0 1 1.906 1.9zm-55.807 0a2.06 2.06 0 0 1-.032.342H52.522a2.16 2.16 0 0 1-.031-.342 1.9 1.9 0 0 1 1.9-1.9h6.341a1.91 1.91 0 0 1 1.906 1.9zM104.3 83.029l4.484-4.484a1.9 1.9 0 0 0-.001-2.69c-.744-.742-1.948-.743-2.69 0l-4.484 4.484a1.9 1.9 0 0 0 .001 2.69c.744.742 1.948.743 2.69 0zm-39.462-7.176c-.743-.743-1.947-.743-2.69-.001s-.743 1.947-.001 2.69l4.485 4.484c.743.743 1.947.743 2.69.001s.743-1.947.001-2.69z" fill="#ffbc0f"/><path d="M67.207 41.392v-3.851h8.049v6.448h.892v3.525h-1.751V45.59h-6.935v1.924h-1.761v-3.525h.544a3.25 3.25 0 0 0 .962-2.597zm6.124-2.25h-4.268v2.644a3.57 3.57 0 0 1-.662 2.2h4.93zm3.96-1.6h8.221v1.519h-6.3v1.763h6.1v1.4h-6.1v1.844h6.3v1.52h-8.221zm11.428 3.085h4.973v-3.085h1.926v8.049h-1.926v-3.363h-4.973v3.363h-1.927v-8.049h1.927zm10.058-3.085v3h3.514c1.9 0 2.911.475 2.911 2.528 0 2.03-.952 2.517-2.863 2.517h-5.486v-8.049zm0 6.448h3.329c1.032 0 1.171-.232 1.171-.939 0-.615-.1-.9-1.1-.9h-3.4z" fill="#0f426d"/></g></svg>
