<svg xmlns="http://www.w3.org/2000/svg" xmlns:xlink="http://www.w3.org/1999/xlink" viewBox="0 0 159.51 118.73"><defs><style>.cls-1{fill:url(#Безымянный_градиент_217);}.cls-2{fill:url(#Безымянный_градиент_216);}.cls-3{clip-path:url(#clip-path);}.cls-4{fill:url(#Безымянный_градиент_217-3);}.cls-5{fill:url(#Безымянный_градиент_217-4);}.cls-6{fill:url(#Безымянный_градиент_217-5);}.cls-7{fill:url(#Новый_образец_градиента_копия);}.cls-8{fill:url(#Новый_образец_градиента_копия-2);}.cls-9{fill:url(#Новый_образец_градиента_копия-3);}.cls-10{fill:url(#Безымянный_градиент_1913);}.cls-11{fill:url(#Новый_образец_градиента_копия_3);}.cls-12{fill:url(#Новый_образец_градиента_копия_3-2);}.cls-13{fill:url(#Новый_образец_градиента_копия_3-3);}</style><linearGradient id="Безымянный_градиент_217" x1="23.4" y1="65.4" x2="133.41" y2="65.4" gradientTransform="matrix(0.94, 0.35, -0.35, 0.94, 34.04, -28.34)" gradientUnits="userSpaceOnUse"><stop offset="0" stop-color="#ddf5f5"/><stop offset="0" stop-color="#eef4f4"/><stop offset="1" stop-color="#c6d8df"/></linearGradient><radialGradient id="Безымянный_градиент_216" cx="50.75" cy="38.82" r="62.53" gradientTransform="matrix(0.94, 0.35, -0.35, 0.94, 34.04, -28.34)" xlink:href="#Безымянный_градиент_217"/><clipPath id="clip-path"><path class="cls-1" d="M48.88.29c3.2-1.2,17.89,4.27,25,9.3C91.29,12.5,107.09,21.37,125.24,24,135,23.4,146,27.5,146.87,28.42s-8.13,25-13.37,27.86c.94,8.71-3.95,17-6.44,17.31,1.13,8.19-3.38,41.14-5.46,45.14-10.23-1.41-52.71-14.84-53.5-18.72-4.18.83-13.8,0-14.34-3.08-3.62.7-25.42-.38-28.31-3.85,2.6-8.58,4.94-14.88,6.05-16.25C29.33,73,41.58,46.54,44.06,41.49,42.92,28.52,45.92,1.39,48.88.29Z"/></clipPath><linearGradient id="Безымянный_градиент_217-3" x1="60.7" y1="80.03" x2="131.7" y2="80.03" xlink:href="#Безымянный_градиент_217"/><linearGradient id="Безымянный_градиент_217-4" x1="42.71" y1="44.97" x2="123.94" y2="30.12" xlink:href="#Безымянный_градиент_217"/><linearGradient id="Безымянный_градиент_217-5" x1="46.06" y1="48.19" x2="42.79" y2="114.57" xlink:href="#Безымянный_градиент_217"/><linearGradient id="Новый_образец_градиента_копия" x1="-4.9" y1="67.8" x2="34.61" y2="71.59" gradientUnits="userSpaceOnUse"><stop offset="0" stop-color="#faa478"/><stop offset="1" stop-color="#f7694d"/></linearGradient><linearGradient id="Новый_образец_градиента_копия-2" x1="16.33" y1="114.81" x2="13.96" y2="80.02" xlink:href="#Новый_образец_градиента_копия"/><linearGradient id="Новый_образец_градиента_копия-3" x1="18.65" y1="97.09" x2="157.79" y2="42.2" xlink:href="#Новый_образец_градиента_копия"/><linearGradient id="Безымянный_градиент_1913" x1="74.43" y1="35.86" x2="95.73" y2="78.45" gradientUnits="userSpaceOnUse"><stop offset="0.32" stop-color="#ffa478"/><stop offset="1" stop-color="#f7694d"/></linearGradient><linearGradient id="Новый_образец_градиента_копия_3" x1="105.47" y1="49.84" x2="133.38" y2="49.84" gradientUnits="userSpaceOnUse"><stop offset="0" stop-color="#ddf5f5"/><stop offset="1" stop-color="#c6d9db"/></linearGradient><linearGradient id="Новый_образец_градиента_копия_3-2" x1="40.02" y1="78.76" x2="63.83" y2="78.76" xlink:href="#Новый_образец_градиента_копия_3"/><linearGradient id="Новый_образец_градиента_копия_3-3" x1="68.17" y1="-4.05" x2="76.93" y2="52.98" xlink:href="#Новый_образец_градиента_копия_3"/></defs><g id="Слой_2" data-name="Слой 2"><g id="Слой_2-2" data-name="Слой 2"><path class="cls-2" d="M48.88.29c5.17-1.66,19.46,4.86,25,9.3C92.92,11.31,113,24.76,125.24,24c10.09.17,20.77,3.55,21.63,4.47s-8.13,25-13.37,27.86c.94,8.71-3.95,17-6.44,17.31,1.13,8.19-3.38,41.14-5.46,45.14-10.23-1.41-52.71-14.84-53.5-18.72-4.18.83-13.8,0-14.34-3.08-3.62.7-25.42-.38-28.31-3.85,2.6-8.58,4.94-14.88,6.05-16.25C29.33,73,41.58,46.54,44.06,41.49,42.92,28.52,45.87,1.25,48.88.29Z"/><path class="cls-1" d="M48.88.29c3.2-1.2,17.89,4.27,25,9.3C91.29,12.5,107.09,21.37,125.24,24,135,23.4,146,27.5,146.87,28.42s-8.13,25-13.37,27.86c.94,8.71-3.95,17-6.44,17.31,1.13,8.19-3.38,41.14-5.46,45.14-10.23-1.41-52.71-14.84-53.5-18.72-4.18.83-13.8,0-14.34-3.08-3.62.7-25.42-.38-28.31-3.85,2.6-8.58,4.94-14.88,6.05-16.25C29.33,73,41.58,46.54,44.06,41.49,42.92,28.52,45.92,1.39,48.88.29Z"/><g class="cls-3"><path class="cls-4" d="M140.15,57.86c-10.51-2.42-45.43-6.46-58.88,13.61-27-2.89-28.76,27.51-27.83,31.44.07.31,1.43.44,3.64-.16,1.18-.32,14.23,5.72,13.4,4.12-3.49-6.68-8-20.26-3.14-26.85,6.55,0,30.28,10.08,46.24,29.76.9-10.42-12.5-27.35-23.85-32.17,21.22-4,37.52,21.13,37.52,21.13Z"/><path class="cls-5" d="M76.47,5.78c.64-.89-17.81,26.15-4.27,51.56,12.15-13.39,22.33-18,24.67-15.6s-5.1,12.32-2.12,13.34,29.71-21.87,33.1-31.36S76.47,5.78,76.47,5.78Z"/><path class="cls-6" d="M39,43.8c9-5,24.24,3.05,28.33,11.74C53.19,53.85,46,68.1,45.14,71.27s-11.08,5.9-15.93,5.3,9.42-31.73,9.42-31.73Z"/></g><path class="cls-7" d="M149.74,37.76c4.17,7,3.47,16.8,0,20.56C128.88,67.94,30.18,108,20.45,114.22,7.94,120.47-10.83,76,7.94,71.12S149.74,37.76,149.74,37.76Z"/><path class="cls-8" d="M22.05,102.55C16.28,105.88,1.68,89.89,9.33,82.94,19.06,82.24,24.35,96.45,22.05,102.55Z"/><path class="cls-9" d="M149.74,37.76c4.17,7,3.47,16.8,0,20.56C128.88,67.94,30.18,108,20.45,114.22c6.26-10.43-4.17-30.59-11.12-31.28C28.79,75.42,149.74,37.76,149.74,37.76Z"/><path class="cls-10" d="M136.7,15.52a30.36,30.36,0,0,1,22.77,31.27C101.08,78.07,36.44,101,26,103.79c1.39-15.29-7-31.28-18.07-32.67C39.22,64.87,111.15,35,136.7,15.52Z"/><path class="cls-11" d="M105.47,34a32.19,32.19,0,0,0,6.29-3.24C131,32.89,138.65,58.84,129.6,67.07c-2.82,1.16-4.5,1.9-4.5,1.9C131,52.36,123.07,34.33,105.47,34Z"/><path class="cls-12" d="M40,61.71c4,.06,25.42,17.73,16.48,36.16,3-1.36,6.14-2.62,6.14-2.62,3.69-15.79-1-28.65-16.89-35.6A47.47,47.47,0,0,1,40,61.71Z"/><path class="cls-13" d="M111.76,30.72S56.38-2.1,49.53.11,40,61.71,40,61.71l5.73-2.06S44.6,3.88,51.29,4.14,105.47,34,105.47,34Z"/></g></g></svg>