<svg xmlns="http://www.w3.org/2000/svg" xmlns:xlink="http://www.w3.org/1999/xlink" width="260.824" height="254.991" ><defs><linearGradient id="A" x1="113.193" y1="-10.384" x2="113.794" y2="-11.126"><stop offset="0" stop-color="#fff" stop-opacity="0"/><stop offset="1" stop-color="#e4e9eb"/></linearGradient><clipPath id="B"><path transform="matrix(.999861 -.01665 .01665 .999861 0 2.586)" fill="none" d="M0 0h155.319v99.958H0z"/></clipPath><linearGradient id="C" x1="113.193" y1="-10.384" x2="113.794" y2="-11.126"><stop offset="0" stop-color="#ddf5f5"/><stop offset="1" stop-color="#c6d9db"/></linearGradient><linearGradient id="D" x1="124.804" y1="701.51" x2="124.884" y2="702.044"><stop offset="0" stop-color="#faa478"/><stop offset="1" stop-color="#f7694d"/></linearGradient><linearGradient id="E" x1="343.563" y1="-17.892" x2="343.643" y2="-17.366" xlink:href="#D"/><radialGradient id="F" cx=".477" cy=".281" r=".725" gradientTransform="translate(0.006) scale(0.987 1)" xlink:href="#D"/><linearGradient id="G" x1=".467" y1=".23" x2=".545" y2=".811" xlink:href="#D"/><linearGradient id="H" x1=".495" y1=".418" x2=".518" y2=".946"><stop offset="0" stop-color="#fff" stop-opacity=".302"/><stop offset=".991" stop-color="#e4e9eb" stop-opacity=".8"/></linearGradient></defs><g transform="matrix(.996 .087 -.087 .996 20.469 0)"><g transform="translate(3.586 82.119)"><path d="M143.7 128.63c5.79-6.632 14.429-17.79 15.535-30.849L89.317 36.765C65.486 17.134 38.5 19.294 27.417 9.278l2.722-3.119L23.625 0 11.813 13.534 0 27.072l6.984 5.623 2.722-3.119c11.425 9.624 12.94 36.65 35.614 57.608s69.918 61.016 69.918 61.016c12.789-2.865 22.674-12.935 28.462-19.57z" fill="url(#A)"/><g transform="translate(9.17 51.948)" clip-path="url(#B)"><path d="M134.53 76.682c5.79-6.632 14.429-17.79 15.535-30.849L80.147-15.183C56.316-34.814 29.33-32.654 18.247-42.67l2.722-3.119-6.514-6.159L2.643-38.414-9.17-24.876l6.984 5.623 2.722-3.119c11.425 9.624 12.94 36.65 35.614 57.608s69.918 61.016 69.918 61.016c12.789-2.865 22.674-12.935 28.462-19.57z" fill="url(#C)"/></g><path d="M117.099 95.814c7.331 2.797 15.618 1.087 21.243-4.383.943-.9 1.955-1.794 3.025-2.677 2.491-2.084 5.174-3.928 8.012-5.507a15.1 15.1 0 0 0 7.905-11.4 29.39 29.39 0 0 0-7.077-22.838c-9.719-11.394-26.764-12.925-38.358-3.446-13.9 11.388-17.4 28.533-6.587 41.625a29.34 29.34 0 0 0 11.837 8.626z" fill="url(#D)"/><path d="M208.016 41.534c-7.792-.914-15.406 2.777-19.516 9.46-.694 1.1-1.455 2.216-2.276 3.334a51.84 51.84 0 0 1-6.418 7.306 15.1 15.1 0 0 0-4.868 12.995c1.076 8.258 5.605 15.672 12.461 20.4a27.53 27.53 0 0 0 38.033-6.066c10.684-14.449 9.867-31.927-3.822-41.967a29.34 29.34 0 0 0-13.594-5.462z" fill="url(#E)"/><path d="M155.99 78.72c8.696 3.318 18.528 1.289 25.2-5.2a67.68 67.68 0 0 1 3.592-3.177c2.958-2.474 6.142-4.663 9.511-6.539 5.138-2.721 8.636-7.765 9.382-13.531a34.88 34.88 0 0 0-8.4-27.1c-11.534-13.519-31.76-15.337-45.52-4.092-16.496 13.523-20.639 33.868-7.811 49.403 3.741 4.545 8.573 8.067 14.046 10.236z" fill="url(#F)"/><path d="M190.149 87.251a26.19 26.19 0 0 0-24.913-13.185l-5.244.179a67.24 67.24 0 0 1-12.586-1.113c-6.237-1.284-12.709.537-17.36 4.886a38.21 38.21 0 0 0-11.804 28.739c.316 19.457 16.126 35.094 35.586 35.194 23.36.1 41.047-14.2 41.047-36.264.01-6.446-1.616-12.79-4.726-18.436z" fill="url(#G)"/></g><path d="M147.818 13.426C130.191-8.608 99.849 3.117 99.849 3.117L0 107.485c12.319 23.647 34.22 48.284 43.8 60.6s70.1 67.812 76.111 66.757 49.809-5.165 62.128-13.377 48.642-47.066 56.669-66.593c13.133-31.952-25.191-59.327-90.89-141.446zm6.845 57.484c-12.319 15.056-62.959 0-65.18-21.2s17.168-45.387 31.154-39.14c42.619 19.045 46.344 45.284 34.025 60.34z" fill="url(#H)"/></g></svg>
