<svg xmlns="http://www.w3.org/2000/svg" xmlns:xlink="http://www.w3.org/1999/xlink" viewBox="0 0 159.51 122.41"><defs><style>.cls-1{fill:url(#Новый_образец_градиента_копия);}.cls-2{fill:url(#Новый_образец_градиента_копия-2);}.cls-3{fill:url(#Новый_образец_градиента_копия-3);}.cls-4{fill:url(#Безымянный_градиент_1913);}.cls-5{fill:url(#Новый_образец_градиента_копия_3);}.cls-6{fill:url(#Новый_образец_градиента_копия_3-2);}.cls-7{fill:url(#Новый_образец_градиента_копия_3-3);}.cls-8{fill:url(#Безымянный_градиент_2697);}.cls-9{fill:url(#Безымянный_градиент_3116);}.cls-10{fill:url(#Безымянный_градиент_2697-2);}.cls-11{fill:url(#Безымянный_градиент_2697-3);}.cls-12{fill:url(#Безымянный_градиент_925);}.cls-13{fill:url(#Безымянный_градиент_925-2);}</style><linearGradient id="Новый_образец_градиента_копия" x1="-4.9" y1="67.8" x2="34.61" y2="71.59" gradientUnits="userSpaceOnUse"><stop offset="0" stop-color="#faa478"/><stop offset="1" stop-color="#f7694d"/></linearGradient><linearGradient id="Новый_образец_градиента_копия-2" x1="16.33" y1="114.81" x2="13.96" y2="80.02" xlink:href="#Новый_образец_градиента_копия"/><linearGradient id="Новый_образец_градиента_копия-3" x1="18.65" y1="97.09" x2="157.79" y2="42.2" xlink:href="#Новый_образец_градиента_копия"/><linearGradient id="Безымянный_градиент_1913" x1="74.43" y1="35.86" x2="95.73" y2="78.45" gradientUnits="userSpaceOnUse"><stop offset="0.32" stop-color="#ffa478"/><stop offset="1" stop-color="#f7694d"/></linearGradient><linearGradient id="Новый_образец_градиента_копия_3" x1="105.47" y1="49.84" x2="133.38" y2="49.84" gradientUnits="userSpaceOnUse"><stop offset="0" stop-color="#ddf5f5"/><stop offset="1" stop-color="#c6d9db"/></linearGradient><linearGradient id="Новый_образец_градиента_копия_3-2" x1="40.02" y1="78.76" x2="63.83" y2="78.76" xlink:href="#Новый_образец_градиента_копия_3"/><linearGradient id="Новый_образец_градиента_копия_3-3" x1="68.17" y1="-4.05" x2="76.93" y2="52.98" xlink:href="#Новый_образец_градиента_копия_3"/><linearGradient id="Безымянный_градиент_2697" x1="48.35" y1="41" x2="61.92" y2="54.94" gradientUnits="userSpaceOnUse"><stop offset="0" stop-color="#cbe9e5"/><stop offset="1" stop-color="#4f5b6f"/></linearGradient><linearGradient id="Безымянный_градиент_3116" x1="33.38" y1="70.46" x2="69.92" y2="108.01" gradientUnits="userSpaceOnUse"><stop offset="0" stop-color="#fffff9"/><stop offset="1" stop-color="#a7b9bd"/></linearGradient><linearGradient id="Безымянный_градиент_2697-2" x1="74.39" y1="55.88" x2="61.63" y2="134.52" xlink:href="#Безымянный_градиент_2697"/><linearGradient id="Безымянный_градиент_2697-3" x1="37.36" y1="62.66" x2="72.75" y2="62.66" xlink:href="#Безымянный_градиент_2697"/><linearGradient id="Безымянный_градиент_925" x1="58.08" y1="43.62" x2="55.9" y2="1.8" gradientUnits="userSpaceOnUse"><stop offset="0.22" stop-color="#694538"/><stop offset="1" stop-color="#af6737"/></linearGradient><linearGradient id="Безымянный_градиент_925-2" x1="63.37" y1="37.81" x2="61.74" y2="6.47" xlink:href="#Безымянный_градиент_925"/></defs><g id="Слой_2" data-name="Слой 2"><g id="Слой_2-2" data-name="Слой 2"><path class="cls-1" d="M149.74,37.76c4.17,7,3.47,16.8,0,20.56C128.88,67.94,30.18,108,20.45,114.22,7.94,120.47-10.83,76,7.94,71.12S149.74,37.76,149.74,37.76Z"/><path class="cls-2" d="M22.05,102.55C16.28,105.88,1.68,89.89,9.33,82.94,19.06,82.24,24.35,96.45,22.05,102.55Z"/><path class="cls-3" d="M149.74,37.76c4.17,7,3.47,16.8,0,20.56C128.88,67.94,30.18,108,20.45,114.22c6.26-10.43-4.17-30.59-11.12-31.28C28.79,75.42,149.74,37.76,149.74,37.76Z"/><path class="cls-4" d="M136.7,15.52a30.36,30.36,0,0,1,22.77,31.27C101.08,78.07,36.44,101,26,103.79c1.39-15.29-7-31.28-18.07-32.67C39.22,64.87,111.15,35,136.7,15.52Z"/><path class="cls-5" d="M105.47,34a32.19,32.19,0,0,0,6.29-3.24C131,32.89,138.65,58.84,129.6,67.07c-2.82,1.16-4.5,1.9-4.5,1.9C131,52.36,123.07,34.33,105.47,34Z"/><path class="cls-6" d="M40,61.71c4,.06,25.42,17.73,16.48,36.16,3-1.36,6.14-2.62,6.14-2.62,3.69-15.79-1-28.65-16.89-35.6A47.47,47.47,0,0,1,40,61.71Z"/><path class="cls-7" d="M111.76,30.72S56.38-2.1,49.53.11,40,61.71,40,61.71l5.73-2.06S44.6,3.88,51.29,4.14,105.47,34,105.47,34Z"/><path class="cls-8" d="M55.13,38.24A9.73,9.73,0,1,0,64.86,48,9.72,9.72,0,0,0,55.13,38.24Zm0,16.46a6,6,0,1,1,6-6A6,6,0,0,1,55.13,54.7Z"/><path class="cls-9" d="M51.58,54.88C51,58.49,49.39,92,49,95.47c-.56,4.49-3.74,9-8.23,8.42-3.14-.39-9.35-2.81-11-6.73,1.87,0,4.27-.18,5.75-1.31-7.67-3.14-8.08-13.21-9.91-12.91-1.12.19-5.8,11.22-1.31,20a7.9,7.9,0,0,0,3-4.31,19.52,19.52,0,0,0,9,10.4c5,2.83,17,8.67,18.89,13.36V51C53.07,51,52.14,51.27,51.58,54.88Z"/><path class="cls-10" d="M58.69,54.88c.56,3.61,2.18,37.12,2.61,40.59.57,4.49,3.74,9,8.23,8.42,3.15-.39,9.36-2.81,11-6.73-1.87,0-4.26-.18-5.75-1.31,7.67-3.14,8.09-13.21,9.91-12.91,1.13.19,5.8,11.22,1.31,20a8,8,0,0,1-3-4.31,19.48,19.48,0,0,1-9,10.4c-5,2.83-17,8.67-18.89,13.36V51C57.19,51,58.12,51.27,58.69,54.88Z"/><path class="cls-11" d="M55.13,66.5c4.3,0,12.35,0,16.09-1.06a4.74,4.74,0,0,0,0-3.82c-2.06-.94-9.92-2.81-16.09-2.81s-14,1.87-16.08,2.81a4.69,4.69,0,0,0,0,3.82C42.79,66.49,50.83,66.5,55.13,66.5Z"/><path class="cls-12" d="M56.9,43c-1.12,1.16-2.63,3.26-4.81.57S43.38,12.8,43.38,5,68.69-.56,68.84,6.27s-7.83,0-12.4,0S47.69,4.93,48,9.54C48.6,21.29,52.79,43.15,56.9,43Z"/><path class="cls-13" d="M58.51,38.85S69.77,11.49,69,7.57,66.23,5,66.23,5c-2,13.06-10,33.33-10,33.33Z"/></g></g></svg>