<svg xmlns="http://www.w3.org/2000/svg" xmlns:xlink="http://www.w3.org/1999/xlink" width="190.534" height="137.152" ><defs><linearGradient id="A" x1="-.032" y1=".39" x2=".227" y2=".439"><stop offset="0" stop-color="#faa478"/><stop offset="1" stop-color="#f7694d"/></linearGradient><linearGradient id="B" x1=".594" y1="1.588" x2=".441" y2="-.144" xlink:href="#A"/><linearGradient id="C" x1=".065" y1=".776" x2="1.036" y2=".058" xlink:href="#A"/><linearGradient id="D" x1=".439" y1=".23" x2=".579" y2=".713"><stop offset=".316" stop-color="#ffa478"/><stop offset="1" stop-color="#f7694d"/></linearGradient><linearGradient id="E" y1=".5" x2="1" y2=".5"><stop offset="0" stop-color="#ddf5f5"/><stop offset="1" stop-color="#c6d9db"/></linearGradient><linearGradient id="F" x1=".392" y1="-.066" x2=".514" y2=".859" xlink:href="#E"/></defs><path d="M178.859 45.103c4.983 8.3 4.152 20.067 0 24.563-24.907 11.484-142.806 59.294-154.43 66.768-14.945 7.472-37.363-45.665-14.945-51.477s169.375-39.854 169.375-39.854z" fill="url(#A)"/><path d="M26.343 122.501c-6.9 3.968-24.332-15.129-15.2-23.431 11.625-.831 17.945 16.14 15.2 23.431z" fill="url(#B)"/><path d="M178.863 45.103c4.983 8.3 4.152 20.067 0 24.563-24.907 11.484-142.806 59.294-154.43 66.768 7.472-12.454-4.983-36.532-13.285-37.363 23.243-8.984 167.715-53.968 167.715-53.968z" fill="url(#C)"/><path d="M163.288 18.534c18.69 4.981 28.026 21.587 27.2 37.361-69.742 37.363-146.958 64.762-159.413 68.084 1.662-18.266-8.3-37.363-21.586-39.023 37.356-7.473 123.28-43.175 153.799-66.422z" fill="url(#D)"/><g fill="url(#E)"><path d="M125.984 40.561c2.641-1.004 5.16-2.302 7.512-3.868 22.946 2.6 32.12 33.591 21.3 43.417l-5.366 2.271c7.013-19.84-2.429-41.379-23.446-41.82z"/><path d="M47.8 73.714c4.734.066 30.361 21.172 19.686 43.19 3.554-1.626 7.341-3.126 7.341-3.126 4.4-18.859-1.248-34.221-20.176-42.523-2.23.961-4.518 1.783-6.851 2.459z"/></g><path d="M133.496 36.694S67.34-2.506 59.168.128 47.8 73.715 47.8 73.715l6.85-2.458S53.275 4.632 61.268 4.942s64.715 35.62 64.715 35.62z" fill="url(#F)"/></svg>
