<svg xmlns="http://www.w3.org/2000/svg" xmlns:xlink="http://www.w3.org/1999/xlink" viewBox="0 0 113.44 110.42"><defs><style>.cls-1{fill:none;}.cls-2{fill:url(#Новый_образец_градиента_копия);}.cls-3{fill:url(#Безымянный_градиент_140);}.cls-4{clip-path:url(#clip-path);}.cls-5{fill:url(#Новый_образец_градиента_копия_3);}.cls-6{fill:url(#Новый_образец_градиента_копия-2);}.cls-7{fill:url(#Новый_образец_градиента_копия-3);}.cls-8{fill:url(#Безымянный_градиент_272);}.cls-9{fill:url(#Безымянный_градиент_283);}</style><linearGradient id="Новый_образец_градиента_копия" x1="4001.75" y1="7900.44" x2="4003.93" y2="7914.96" gradientTransform="translate(8182.61 3618.87) rotate(140.45)" gradientUnits="userSpaceOnUse"><stop offset="0" stop-color="#faa478"/><stop offset="1" stop-color="#f7694d"/></linearGradient><linearGradient id="Безымянный_градиент_140" x1="3582.67" y1="-1331.09" x2="3627.71" y2="-1382.78" gradientTransform="translate(-1309.67 3671.23) rotate(-48.89)" gradientUnits="userSpaceOnUse"><stop offset="0" stop-color="#fff" stop-opacity="0"/><stop offset="1" stop-color="#e4e9eb"/></linearGradient><clipPath id="clip-path"><rect class="cls-1" x="6.38" y="63.64" width="73.02" height="47" transform="translate(-1.44 0.73) rotate(-0.95)"/></clipPath><linearGradient id="Новый_образец_градиента_копия_3" x1="3582.67" y1="-1331.09" x2="3627.71" y2="-1382.78" gradientTransform="translate(-1309.67 3671.23) rotate(-48.89)" gradientUnits="userSpaceOnUse"><stop offset="0" stop-color="#ddf5f5"/><stop offset="1" stop-color="#c6d9db"/></linearGradient><linearGradient id="Новый_образец_градиента_копия-2" x1="74.09" y1="80.31" x2="76.92" y2="99.18" gradientTransform="matrix(1, 0, 0, 1, 0, 0)" xlink:href="#Новый_образец_градиента_копия"/><linearGradient id="Новый_образец_градиента_копия-3" x1="4098.75" y1="-1339.58" x2="4100.93" y2="-1325.06" gradientTransform="matrix(0.59, -0.81, 0.81, 0.59, -1251.65, 4166.35)" xlink:href="#Новый_образец_градиента_копия"/><radialGradient id="Безымянный_градиент_272" cx="80.46" cy="53.16" r="23.39" gradientTransform="matrix(1, 0, 0, 1, 0, 0)" xlink:href="#Новый_образец_градиента_копия"/><linearGradient id="Безымянный_градиент_283" x1="56.16" y1="46.18" x2="58.79" y2="104.45" gradientUnits="userSpaceOnUse"><stop offset="0" stop-color="#fff" stop-opacity="0.3"/><stop offset="0.99" stop-color="#e4e9eb" stop-opacity="0.8"/></linearGradient></defs><g id="Слой_2" data-name="Слой 2"><g id="Слой_2-2" data-name="Слой 2"><path class="cls-2" d="M56.74,83.66a9.5,9.5,0,0,0,10-2.06c.44-.43.92-.85,1.42-1.26a24.81,24.81,0,0,1,3.77-2.59,7.08,7.08,0,0,0,3.71-5.36,13.82,13.82,0,0,0-3.32-10.74,13,13,0,0,0-18-1.62c-6.54,5.35-8.18,13.42-3.09,19.57A13.81,13.81,0,0,0,56.74,83.66Z"/><path class="cls-3" d="M69.25,99.09C72,96,76,90.72,76.55,84.58c0,0-21.67-19.46-32.87-28.68S19.79,47.68,14.58,43l1.28-1.47-3.07-2.89L7.24,45,1.68,51.34,5,54l1.28-1.47C11.62,57,12.33,69.75,23,79.6s32.88,28.69,32.88,28.69C61.88,106.94,66.53,102.21,69.25,99.09Z"/><g class="cls-4"><path class="cls-5" d="M69.25,99.09C72,96,76,90.72,76.55,84.58c0,0-21.67-19.46-32.87-28.68S19.79,47.68,14.58,43l1.28-1.47-3.07-2.89L7.24,45,1.68,51.34,5,54l1.28-1.47C11.62,57,12.33,69.75,23,79.6s32.88,28.69,32.88,28.69C61.88,106.94,66.53,102.21,69.25,99.09Z"/></g><path class="cls-6" d="M91.09,79.63a12.33,12.33,0,0,0-11.72-6.2c-.79.06-1.62.09-2.46.09A31.59,31.59,0,0,1,71,73a9.22,9.22,0,0,0-8.16,2.3A17.94,17.94,0,0,0,57.28,88.8,16.82,16.82,0,0,0,74,105.35c11,0,19.3-6.68,19.3-17A18,18,0,0,0,91.09,79.63Z"/><path class="cls-7" d="M99.49,58.14a9.48,9.48,0,0,0-9.18,4.44c-.33.52-.68,1.05-1.07,1.57a24.12,24.12,0,0,1-3,3.44,7.09,7.09,0,0,0-2.29,6.11,13.87,13.87,0,0,0,5.86,9.59,12.94,12.94,0,0,0,17.88-2.85c5-6.8,4.64-15-1.79-19.74A13.76,13.76,0,0,0,99.49,58.14Z"/><path class="cls-8" d="M75,75.62a11.25,11.25,0,0,0,11.86-2.45c.52-.5,1.09-1,1.68-1.49A29.19,29.19,0,0,1,93,68.61a8.41,8.41,0,0,0,4.41-6.36A16.36,16.36,0,0,0,93.5,49.51a15.36,15.36,0,0,0-21.4-1.93c-7.76,6.36-9.71,15.92-3.68,23.23A16.43,16.43,0,0,0,75,75.62Z"/><path class="cls-9" d="M69.5,6.31C61.21-4,46.94,1.47,46.94,1.47L0,50.54C5.79,61.65,16.09,73.24,20.59,79s33,31.88,35.79,31.38,23.41-2.43,29.21-6.29S108.45,82,112.23,72.81C118.4,57.79,100.39,44.92,69.5,6.31Zm3.22,27c-5.8,7.08-29.61,0-30.65-10S50.14,2,56.72,5C76.76,13.92,78.51,26.26,72.72,33.34Z"/></g></g></svg>