<svg xmlns="http://www.w3.org/2000/svg" width="204" height="143.051" ><defs><linearGradient id="A" x1=".5" y1="1" x2=".5"><stop offset="0" stop-color="#cbae99"/><stop offset="1" stop-color="#660d41"/></linearGradient></defs><ellipse cx="101.986" cy="136.025" rx="101.986" ry="7.025" fill="#c5d4f6"/><g fill-rule="evenodd"><path d="M195.14 8.019s-.339 6.26-1.634 16.687l-.461 3.654c-3.321 24.526-11.506 67.475-31.073 107.641l-104.478-.425-22.922-.089S14.585 93.519 9.855 24.44c-.075-1.1.018-2.216.036-3.334q.107-8.433.817-17.326S106.581-2.3 195.14 8.019z" fill="#e27d39"/><path d="M204 5.074l-5.274 20.376-5.681 2.909h-.018c-38.833-5.8-107.443-7.572-107.514-7.554-29.476 0-52.842 1.56-65.431 2.642-.285.018-2.007.177-2.54.23l-6.889.674c-.178.018-.319.036-.444.053s-.23.018-.355.036l-5.362-2.341L0 5.074S46.432 0 99.133 0C165.077 0 204 5.074 204 5.074z" fill="#ff8e06"/><path d="M198.727 25.45l-5.681 2.909C189.725 52.885 181.54 95.834 161.973 136l-104.478-.425c19.408-1.88 47.906-9.239 72.48-33.782 42.012-41.94 42.224-67.866 42.224-67.866L85.71 26.735l-75.5-2.332c-.123.018-5.717-2.3-5.717-2.3S102 17.887 193.507 24.709c1.734.125 3.462.493 5.22.741z" opacity=".5" fill="url(#A)" style="mix-blend-mode:multiply"/><path d="M0 5.074h204s-76.731-11.417-204 0z" fill="#4d2c59"/></g></svg>
