<svg xmlns="http://www.w3.org/2000/svg" width="75.047" height="80.527" ><defs><linearGradient id="A" x1=".5" x2=".5" y2="1"><stop offset="0" stop-color="#fb0"/><stop offset="1" stop-color="#ffba00"/></linearGradient><filter id="B" x="0" y="0" width="75.047" height="80.527" filterUnits="userSpaceOnUse"><feOffset dx="2" dy="2"/><feGaussianBlur result="A"/><feFlood flood-color="#0f426d" flood-opacity=".149"/><feComposite operator="in" in2="A"/><feComposite in="SourceGraphic"/></filter></defs><g transform="translate(-436.845 1.031)"><g transform="translate(437.852)"><g transform="translate(-1.01 -1.03)" filter="url(#B)"><path d="M-595.994 123.424s2.178-26.135 28.313-29.4 44.647 23.957 42.469 39.2-17.423 37.024-39.2 37.024-32.671-33.525-31.582-46.824z" transform="translate(597.08 -92.72)" stroke="#fdfdff" stroke-width="2" fill="url(#A)"/></g><path d="M54.039 16.539c1.527.409-2.057-6.539-9.966-9.21s8.435 8.799 9.966 9.21zM.075 29.671S1.711 10.066 19.129 2.694l.3.053s-27.7 30.879-4.279 54.941 38.759 5.324 47.277-6.389 7.665-17.674 7.665-17.674l.908 2.16a18.92 18.92 0 0 1-.143 3.688c-2.176 15.242-17.422 37.021-39.2 37.021S-1.014 42.97.075 29.671z" fill="#fff"/><path d="M1.554 28.835S3.118 10.912 19.768 4.177l.286.047s-26.482 28.227-4.09 50.221 37.05 4.868 45.192-5.842 7.328-16.152 7.328-16.152l.868 1.973c.069 1.125.024 2.255-.136 3.371-2.081 13.934-16.655 33.841-37.473 33.841S.514 40.989 1.554 28.835z" fill="#f90"/><path d="M41.869 1.869c-19.027-4.157 0 16 10.207 17.264s16.507 20.792 8.568 22.3-16.254 27.343-8.568 25.326 16.507-17.261 17.263-27.847-8.44-32.884-27.47-37.043z" fill="#fcffb1" opacity=".5"/><path d="M12.331 14.769c0-1.778-6.252 4.131-6.825 13.479s6.825-11.7 6.825-13.479z" fill="#fddc59"/><path d="M5.325 51.193c1.049-4.233 13.561-5.599 25.375 6.699s-9.49 16.983-9.49 16.983S4.276 55.426 5.325 51.193z" fill="#fcffb1" opacity=".5"/></g><path d="M506.37 46.189l-49.337 15.624-6.754-11.333z" fill="rgba(189,113,0,0.5)"/><path d="M454.998 22.642l45.188-7.61 6.183 32.345-48.042 7.61z" fill="#00ade2"/><path d="M456.121 33.548l-1.123-10.906 45.187-7.609 2.237 11.7c-4.986 2.578-13.565 6.465-22.039 7.711a60.22 60.22 0 0 1-8.707.6c-5.219-.031-10.425-.531-15.555-1.496z" fill="#0f426d"/><path d="M456.121 33.547l-1.125-10.907 22.546-3.8 4.137 15.387-1.295.211a60.41 60.41 0 0 1-8.709.595c-5.219-.027-10.425-.524-15.554-1.486z" fill="#ff5e00"/><path d="M458.33 55l-8.575-4.555-3.845-29.679 9.2 1.939z" fill="#1f77c9"/><path d="M500.233 15.033c-.455-.164-10.738-3.623-10.738-3.623l-43.537 9.424 9.5 2.043z" fill="#d2e9ff"/></g></svg>
