<svg xmlns="http://www.w3.org/2000/svg" width="98.5" height="98.824" ><path d="M44.235 5.414c21.912 0 48.8 26.993 48.8 48.994s-26.888 44.416-48.8 44.416S0 76.414 0 54.408 22.323 5.414 44.235 5.414zm24.225.166c1.962 6.3 18.247 9.456 24.918 26s8.044-3.743-3.336-14.973S66.496-.724 68.46 5.58zM62.806.138c-2.64 1.333-3.392 4.043.413 5.731s2.226-7.063-.413-5.731z" fill="#5fbe5f"/><path d="M28.556 52.578c-2.919 5.137 6.247 18.428 15.517 15.379s25.524-26.685 20.718-29.833-18.066 20.552-22.375 21.381c-7.131 2.154-10.944-12.064-13.86-6.927z" fill="#fff"/></svg>
