<svg xmlns="http://www.w3.org/2000/svg" width="67.96" height="63.282" ><path d="M12.824 51.793c14.694-.944-12.957 8.337-6.3 10.225s7.291 1.469 15.473 0 41.29-2.308 43.3-4.2-4.766-12.588-4.766-12.588-62.401 7.507-47.707 6.563z" fill="#f0d8b3"/><path d="M66.128 36.776l1.287 9.161a3.91 3.91 0 0 1-3.328 4.416c-53.673 7.543-3.537.367-53.234 7.351a3.91 3.91 0 0 1-4.416-3.328L5.103 44.88a6.49 6.49 0 0 1 1.56-5.215c1.704-1.908 2.482-4.47 2.126-7.003s-1.81-4.782-3.974-6.146a6.49 6.49 0 0 1-2.937-4.583L.544 12.439a3.91 3.91 0 0 1 3.328-4.416c49.952-7.02-.692.228 53.234-7.351a3.91 3.91 0 0 1 4.416 3.328l1.335 9.498c.239 1.84-.435 3.681-1.806 4.931a8.69 8.69 0 0 0 1.983 14.109c1.661.824 2.816 2.406 3.095 4.239z" fill="#ffba00"/><path d="M27.562 31.565s-3.28 6.647-.414 9.645a6.46 6.46 0 0 0 9.897-1.076c2.105-3.21-.125-1.417-.125-1.417s-4.612 2.659-5.185 2.171a25.35 25.35 0 0 1-2.773-4.229c-.052-.308-1.4-5.094-1.4-5.094z" fill="#cacaca"/><g fill="#fff"><path d="M30.975 25.659c-1.793 3.155-7.739 10.242-1.883 15.492s13.2-6.807 13.2-6.807-3.053-2.815-5.506 1.07c-1.251 1.981-2.009 2.852-3.292 2.325-.927-.355-2.474-1.983.867-6.022 6.82-8.237-1.593-9.213-3.386-6.058zm11.034-7.637c-.725-1.656-4.961-5.501-7.431-1.177s1.846 6.882 3.911 6.925 4.246-4.093 3.521-5.748z"/><path d="M37.704 15.739a3.59 3.59 0 0 1 4.429 2.921c.421 2.167-.912 3.578-3.08 3.999s-3.318-.623-3.739-2.788.222-3.711 2.39-4.132z"/></g><path d="M35.315 19.868l-.062-.365a1.62 1.62 0 0 1 1.191.401c1.877 1.322 1.529 1.544 3.549.01 1.675-1.278.295-3.396-.212-4.069 1.245.43 2.15 1.513 2.352 2.815.422 2.166-.911 3.579-3.079 3.999a4.02 4.02 0 0 1-1.397.055c-1.284-.204-2.023-1.202-2.342-2.845zm-4.052 18.237c-2.559-1.785-.002-4.971 2.474-9.034 1.764-2.898 1.448-4.398 1.121-5.025 2.182.365 3.624 2.691-.496 7.672-3.341 4.038-1.793 5.667-.868 6.021.178.076.367.125.559.144-.545.435-1.238.642-1.933.577a2.05 2.05 0 0 1-.857-.355z" fill="#ebebeb"/></svg>
