<svg xmlns="http://www.w3.org/2000/svg" xmlns:xlink="http://www.w3.org/1999/xlink" width="741.881" height="381.452" ><defs><linearGradient id="A" x1=".451" y1=".098" x2=".531" y2=".78"><stop offset="0" stop-color="#502f26"/><stop offset="1" stop-color="#3b221d"/></linearGradient><linearGradient id="B" x1=".497" y1=".088" x2=".506" y2=".781" xlink:href="#A"/><linearGradient id="C" x1=".39" x2=".474" y2=".782" xlink:href="#A"/><linearGradient id="D" x1=".471" y1=".099" x2=".497" y2=".781" xlink:href="#A"/><linearGradient id="E" x1=".5" y1=".075" x2=".503" y2=".775" xlink:href="#A"/><linearGradient id="F" x1=".498" y1=".09" x2=".508" y2=".774" xlink:href="#A"/><linearGradient id="G" x1=".5" y1=".104" x2=".509" y2=".781" xlink:href="#A"/><linearGradient id="H" x1=".494" y1=".096" x2=".499" y2=".782" xlink:href="#A"/><linearGradient id="I" x1=".499" y1=".133" x2=".501" y2=".758" xlink:href="#A"/><linearGradient id="J" x1=".492" y1=".092" x2=".506" y2=".786" xlink:href="#A"/><linearGradient id="K" x1=".494" y1=".089" x2=".504" y2=".787" xlink:href="#A"/><linearGradient id="L" x1=".496" y1=".086" x2=".503" y2=".789" xlink:href="#A"/><linearGradient id="M" x1=".497" y1=".113" x2=".502" y2=".775" xlink:href="#A"/><linearGradient id="N" x1=".49" y1=".102" x2=".508" y2=".777" xlink:href="#A"/><linearGradient id="O" x1="0" y1=".5" x2="1" y2=".5" xlink:href="#A"/><linearGradient id="P" y1=".5" x2="1" y2=".5"><stop offset="0" stop-color="#5d7d91"/><stop offset="1" stop-color="#374b6b"/></linearGradient><linearGradient id="Q" x1="39.544" y1="-20.49" x2="39.565" y2="-21.326"><stop offset="0" stop-color="#ddf5f5" stop-opacity=".4"/><stop offset="1" stop-color="#c6d9db" stop-opacity="0"/></linearGradient><linearGradient id="R" x1="39.549" y1="-20.621" x2="39.571" y2="-21.457" xlink:href="#Q"/><linearGradient id="S" x1=".499" y1="-.027" x2=".505" y2="1.006" xlink:href="#A"/><filter id="T" x="416.935" y="136.378" width="240.734" height="105.802" filterUnits="userSpaceOnUse"><feOffset dx="4" dy="4"/><feGaussianBlur result="A"/><feFlood flood-opacity=".161"/><feComposite operator="in" in2="A"/><feComposite in="SourceGraphic"/></filter><path id="U" d="M200.861 148.644l-1.569 5.547v.006a33.33 33.33 0 0 1-8.03 7.426l-4.156-11.629-9.1 9.123a29.43 29.43 0 0 1-2.724-11.277v-.056l1.356-5.309c.034 4.359.75 8.686 2.123 12.823l9.337-9.223 3.584 11.047a20.1 20.1 0 0 0 9.179-8.478z"/><path id="V" d="M215.801 140.619l-.272-.091.162-1.819.11 1.91z"/><path id="W" d="M186.754 103.391c-3.916 1.709-6.344.755-6.807-1.867a5.38 5.38 0 0 1 1.8-4.557c2.21-1.903 3.273-7.561 3.287-7.621a5.34 5.34 0 0 1 .029.608c-.025 3.102-1.047 6.114-2.914 8.592a2.96 2.96 0 0 0-.779 2.221c.109 1.938 1.954 3.479 5.384 2.624z"/><path id="X" d="M194.973 106.907c-.525 1.467-3.4 3.8-8.913 3.8-5.852 0-7.567-2.426-8.301-3.746l.206.037.449.085.888.147.829.114c2.267.278 4.552.386 6.835.323 2.908-.1 5.55-.457 8-.76z"/><path id="Y" d="M206.512 83.768l3.115.06c0 4.369-.925 12.7-5.408 13.086-2.932.255-4.671.358-6.016.358-2.695 0-3.62-.449-4.307-1.223-2.167-2.463-3.156-7.681-3.467-10.437a48.85 48.85 0 0 1 4.167-.871l.007-.037.01.031c3.933-.65 7.913-.974 11.899-.967z"/><path id="Z" d="M220.723 85.3c-.78.078-1.551.235-2.3.468l.175-.06a9.7 9.7 0 0 1 2.125-.408z"/><path id="a" d="M169.675 117.534l-.342-.352c-.007-.013-.017-.024-.029-.031l-.44-.505.811.888z"/><path id="b" d="M201.262 122.278l-.017 4.241a27.99 27.99 0 0 1-18.438 4.459l.025-6.107.168.035a11.11 11.11 0 0 0 .5.085 19.05 19.05 0 0 0 1.583.207l.395.031.479.031.707.023a32 32 0 0 0 14.598-3.005z"/><path id="c" d="M224.794 101.25a12.49 12.49 0 0 1-1 1.546c.367-.493.701-1.01 1-1.546z"/><path id="d" d="M148.183 232.655v.122l-.006-.008a.8.8 0 0 0 .006-.114z"/><path id="e" d="M385.724 297.729c.058 1.501-.795 2.888-2.159 3.516s-2.973.371-4.074-.649-1.48-2.604-.959-4.013 1.84-2.364 3.34-2.421c2.049-.078 3.773 1.519 3.852 3.568z"/></defs><g transform="translate(-1089.577 -1324.578)"><path d="M1125.73 1697.207v8.789s145.53.758 233.467-4.892 78.414-29.007 118.28-17.707 43.632 8.789 92.6 0 247.1-13.811 259.149-25.111-28.52-75.332-28.52-75.332z" fill="#f0d8b3"/><g transform="matrix(.992546 -.121869 .121869 .992546 1089.577 1410.646)"><path d="M706.238 97.906V22.619A22.61 22.61 0 0 0 683.619 0H362.775a21.272 21.272 0 0 1-21.265 20.316A21.272 21.272 0 0 1 320.245 0H22.619A22.609 22.609 0 0 0 0 22.619v76.042a50.312 50.312 0 0 1 0 92.913v76.041a22.609 22.609 0 0 0 22.619 22.619h297.626a21.287 21.287 0 0 1 42.53 0h320.844a22.61 22.61 0 0 0 22.619-22.619v-73.351a50.321 50.321 0 0 1 0-96.358zM341.51 264.114a5.8 5.8 0 1 1 5.8-5.8 5.8 5.8 0 0 1-5.8 5.8zm0-42.568a5.8 5.8 0 1 1 5.8-5.8 5.8 5.8 0 0 1-5.8 5.8zm0-42.568a5.8 5.8 0 1 1 5.8-5.8 5.8 5.8 0 0 1-5.8 5.8zm0-42.568a5.8 5.8 0 1 1 5.8-5.8 5.8 5.8 0 0 1-5.8 5.8zm0-42.568a5.8 5.8 0 1 1 5.8-5.8 5.8 5.8 0 0 1-5.8 5.801zm0-42.568a5.8 5.8 0 1 1 5.8-5.8 5.8 5.8 0 0 1-5.8 5.801z" fill="#ffba00"/><g transform="translate(25.153 29.325)"><path d="M169.128 179.441l.3-2.026-.266 2.037c-.012-.001-.024-.005-.034-.011z" fill="url(#A)"/><use xlink:href="#U" fill="url(#B)"/><use xlink:href="#V" fill="url(#C)"/><use xlink:href="#W" fill="url(#D)"/><use xlink:href="#X" fill="url(#E)"/><path d="M159.737 81.353l2.061-.085.425 2.531 1.994-.031a66.35 66.35 0 0 1 16.085 1.844c-.312 2.755-1.3 7.974-3.467 10.437-.681.774-1.606 1.223-4.3 1.223-1.344 0-3.083-.1-6.015-.358-1.411-.194-2.634-1.077-3.262-2.355.043 1.277.029 2.542-.031 3.777-5.218-3.698-4.764-15.201-4.739-15.774l.055-1.143z" fill="url(#F)"/><use xlink:href="#Y" fill="url(#G)"/><path d="M209.335 77.625q.485 2.026.941 3.692l-3.765-.085a63.52 63.52 0 0 0-17.913 2.25l-.559.176a13.03 13.03 0 0 0-5.743-.128l-.159-.048c-5.836-1.599-11.871-2.357-17.921-2.25a75.47 75.47 0 0 0-2.42.037l-.005-.023q.931-2.188 2.085-4.324c5.683-.959 13.784-4.134 20.282-13.776a154.87 154.87 0 0 0 12.281.3c3.656 5.273 7.992 10.041 12.896 14.179z" fill="url(#H)"/><use xlink:href="#Z" fill="url(#I)"/><use xlink:href="#a" fill="url(#J)"/><path d="M172.976 120.459a21.3 21.3 0 0 1-1.8-1.453l1.8 1.453z" fill="url(#K)"/><path d="M175.846 122.309l-.979-.565-.959-.621 1.938 1.186z" fill="url(#L)"/><use xlink:href="#b" fill="url(#M)"/><use xlink:href="#c" fill="url(#N)"/><path d="M222.88 52.699a48.47 48.47 0 0 0-4.477-6c1.66 1.869 3.158 3.876 4.477 6zm3.907 7.121h-.006c-.025-.062-.056-.122-.086-.184z" fill="#674434"/><path d="M286.874 113.057v10.166c.008 2.916-1.087 5.728-3.065 7.871a23.99 23.99 0 0 0-14.248.315c-2.169-2.171-3.381-5.117-3.369-8.186V87.826c0-1.618 2.074-2.392 3.691-2.392h.1c1.618 0 2.9.774 2.9 2.392v17.4a19.44 19.44 0 0 1 4.014-.358c5.595-.004 9.977 2.034 9.977 8.189z" fill="#ffd1c5"/><path d="M285.92 139.919c-9.259-1.478-15.092-.511-17.885.263l-.45-8.041a19.38 19.38 0 0 1 1.978-.729c4.607-1.547 9.575-1.657 14.246-.318.617.197 1.223.426 1.816.687z" fill="#759dc3"/><path d="M94.606 135.734c0-.973.846-6.112.846-6.112s-3.316-.888-4.8 5.658l-1.581 3.077-.579.135-.12.029-42.461 9.654S19.806 73.063 26.08 60.985s74.735-17 74.735-17 10.969 59.8 28.013 81.956c-11.063 4.807-22.557 8.551-34.329 11.18.069-.698.107-1.203.107-1.387z" fill="#fff"/><path d="M95.45 129.621l-.846 6.112c0 .184-.037.689-.1 1.387l-.937 9.411a21.15 21.15 0 0 0-10.575 6.485 106.96 106.96 0 0 1-10-10.918l15.378-3.578.12-.029.579-.135 1.58-3.075c1.485-6.548 4.801-5.66 4.801-5.66z" fill="#ffd1c5"/><path d="M98.43 151.745c-5.411.788-10.255 3.78-13.382 8.266l-3.138-5.601a12.55 12.55 0 0 1 1.081-1.393c2.797-3.169 6.479-5.427 10.572-6.484.334-.091.675-.17 1.021-.244z" fill="#759dc3"/><path d="M167.484 260.911h-.039l-3.134-2.09-12.227-8.184c.019-.02.019-.02.019-.039l12.209 8.185zm23.152-34.546q-.166 3.03-.3 6.169c-.39 8.626-.645 17.927-.75 27.963l-24.977-16.724q.191-7.032.473-13.508l.139-3.358z" fill="#30393f"/><g fill="#759dc3"><path d="M199.292 154.197a198.12 198.12 0 0 0-5.433 28.784 179.04 179.04 0 0 0-1.063 15.061c-.005.02-.007.041-.006.062-.857 8.4-1.595 17.791-2.154 28.261l-25.415.542c.5-10.677 1.163-20.226 1.922-28.743a485.6 485.6 0 0 1 2.018-18.71l.269-2.037.036-.238c1.704-11.272 3.938-21.595 5.816-29.338a29.44 29.44 0 0 0 2.719 11.277l9.105-9.123 4.156 11.629a33.32 33.32 0 0 0 8.03-7.427z"/><path d="M169.162 179.453c-.718 5.596-1.404 11.819-2.018 18.711.407-6.319 1.113-12.641 1.984-18.722l.3-2.026-.266 2.037zm21.474 46.912q-.166 3.03-.3 6.169a75.22 75.22 0 0 1-25.254-2.269l.14-3.358z"/><use xlink:href="#U" x="0.001"/></g><g fill="#dfecfe"><use xlink:href="#V" y="0.001"/><path d="M164.322 258.787v.031l-12.232-8.179-4.575-3.057v-.006c.006-.011.009-.024.007-.037l4.574 3.061zm4.409-119.986l-.007.018c-.1.116-.51.632-1.123 1.482a69.35 69.35 0 0 0-7.471 13.092l-.493 1.192.415.536 2.324 3.011-2.707 1.351-2.975 1.49 1.422 8.516a184.51 184.51 0 0 0 1.351 6.321c1.649 7.055 4.088 15.292 7.446 21.551l.231.809c-.76 8.511-1.42 18.06-1.92 28.737l-.14 3.357q-.284 6.478-.474 13.51l-10.739-7.189-5.688-3.808v-.122l1.023-36.359s-.8-3.68-1.472-7.925c-20.385 18.595-28.483 18.753-28.483 18.753-16.003-6.07-35.127-45.628-35.127-45.628a17.86 17.86 0 0 1 .925-1.484c3.126-4.486 7.97-7.478 13.381-8.266a13.81 13.81 0 0 1 1.818-.182 269.63 269.63 0 0 1 22.241 26.417l16.528-16.619c16.483-16.35 19.252-18.225 19.252-18.225l.037.05.061-.2 10.364-4.186z"/><use xlink:href="#d"/><path d="M169.431 177.416l-.269 2.037c-.718 5.596-1.404 11.819-2.018 18.711.407-6.319 1.113-12.641 1.984-18.722l.303-2.026z"/></g><use xlink:href="#U" x="0.001" fill="#5d87a3"/><g fill="#c7d5e5"><path d="M167.994 140.189c-2.737 5.238-6.63 14.392-6.63 14.392l4.458 4.764-5.57 2.537c.163 5.059.765 10.094 1.8 15.048 1.711 8.955 4.12 17.768 4.861 20.427-3.357-6.259-5.8-14.5-7.446-21.551a182.99 182.99 0 0 1-1.351-6.321c-.973-5.044-1.422-8.517-1.422-8.517l2.974-1.49 2.708-1.351-2.325-3.008-.414-.536.493-1.192a69.33 69.33 0 0 1 7.471-13.094c.614-.845 1.027-1.362 1.119-1.478l-.726 1.37zm46.942 16.934l-5.017 2.829 4.1 3.192s-4.035 8.185-11.016 19.272c-2.647 4.213-5.725 8.838-9.155 13.594l6.63-13.333c3.856-7.67 8.133-16.009 10.2-19.454l-4.786-3.314 6.612-3.833s2.344-10.011 3.024-15.547c.091.023.181.06.272.091a83.69 83.69 0 0 1-.864 16.503z"/><use xlink:href="#V" y="0.001"/><path d="M179.022 133.796l-.218.741-.79.565-.013.008-.006.012c-.363.873-.646 1.776-.845 2.7a20.68 20.68 0 0 0-.463 3.346l-.048 1.277v.031l-1.357 5.309v.056c-1.878 7.743-4.111 18.066-5.815 29.337l-.036.238-.3 2.026c-.875 6.082-1.585 12.403-1.985 18.722l-.231-.809c-.745-2.659-3.153-11.472-4.864-20.426a87.42 87.42 0 0 1-1.805-15.048l5.571-2.537-4.458-4.763s3.893-9.154 6.63-14.392l.73-1.37.012-.018.006-.005c.334-.59.638-1.084.9-1.455zm36.674 4.909v.006l-.163 1.819c-.678 5.536-3.024 15.547-3.024 15.547l-6.613 3.832 4.786 3.314c-2.068 3.444-6.344 11.784-10.2 19.454l-6.63 13.333-.979 1.345-.073.687c.146-5.218.522-10.261 1.063-15.061a198.3 198.3 0 0 1 5.433-28.782v-.006c.529-1.983 1.059-3.833 1.57-5.547v-.008c.272-.443.528-.894.771-1.343l.006-.019c1.288-2.405 2.335-4.931 3.127-7.542a48.09 48.09 0 0 0 .565-2.009c.4-1.544.562-2.511.562-2.511l-.29-.226c.182-.457.289-.689.289-.689l9.8 3.529a8.31 8.31 0 0 1 0 .877z"/></g><path d="M286.172 195.903s-9.752 22.479-59.943-14.323c-2.767 14.493-9.868 38.331-3.174 54.523a181.92 181.92 0 0 1 8.127 24.808h-41l-.6-.408.755-27.979.309-6.153c.542-10.468 1.277-19.868 2.148-28.268v-.058c.019-.232.058-.464.077-.7l.967-1.335c3.444-4.76 6.521-9.384 9.171-13.6 6.984-11.087 11.01-19.272 11.01-19.272l-4.1-3.193 5.011-2.825c.831-5.458 1.123-10.985.87-16.5-.039-1.143-.097-1.84-.118-1.917l10.971 4.121s4.334.406 18.42 13.39c5.515 5.069 12.54 12.089 21.363 21.789 0 0-.775-27.031-.349-37.131.629-.292 1.283-.527 1.954-.7 2.788-.753 8.611-1.721 17.879-.25.406.058.813.135 1.219.213 0 0 4.76 42.277-.967 55.768z" fill="#dfecfe"/><path d="M201.244 126.52l-.019 5.06-.006-.006a11.36 11.36 0 0 1-1.782 5.226h-.006c-3.535 5.486-10.955 7.14-10.955 7.14a11.4 11.4 0 0 1-5.062-7.128 19.07 19.07 0 0 1-.618-3.516l.01-2.318c6.478.706 12.998-.871 18.438-4.458z" fill="#ffd1c5"/><use xlink:href="#b" x="0.001" y="0.001" fill="#edaea2"/><path d="M205.893 135.212s-.164.967-.561 2.511l-.565 2.008c-.793 2.611-1.841 5.138-3.13 7.543v.019l-.772 1.343v.008a20.1 20.1 0 0 1-9.179 8.479l-3.587-11.049-9.337 9.224c-1.373-4.138-2.09-8.465-2.125-12.824v-.03a23.69 23.69 0 0 1 .048-1.277c.064-1.126.219-2.245.465-3.345a15.63 15.63 0 0 1 .846-2.7l.005-.012.013-.008.79-.565 3.942-2.799c-.01.52.007 1.04.051 1.558a19.03 19.03 0 0 0 .619 3.516 11.4 11.4 0 0 0 5.062 7.128s7.42-1.654 10.955-7.14h.004c1.015-1.569 1.628-3.364 1.784-5.226l.006.006 4.381 3.407z" fill="#89aece"/><g fill="#476c84"><path d="M167.445 260.91h-27.862l-29.294-20.355h26.721l10.507 7.024 4.566 3.057 12.228 8.185z"/><path d="M137.002 240.55h-27.75v-3.65l27.374 3.48.152.018z"/><path d="M110.289 240.555l29.294 20.355h-.059z"/></g><path d="M109.865 256.286v4.625H10.371l2.458-20.356-1.703 14.589h98.119v.019z" fill="#ddd9da"/><path d="M110.29 240.555l29.236 20.356h.058zm-.427-.309v.309h.427zm2.478 20.664h-2.477v-4.624z" fill="#bab9b9"/><g fill="#6189aa"><path d="M190.182 260.911h-22.7l-3.173-2.128-12.207-8.185-4.585-3.059-10.429-6.983-.465-.31v-30.107h11.551v22.638l5.689 3.812 10.738 7.179 24.98 16.737z"/><path d="M137.082 240.546h-.456v-.3z"/><use xlink:href="#d"/></g><g fill="#999"><path d="M139.526 260.91h-27.185l-2.477-4.625-.62-1.122v-.019H11.126l1.7-14.589h97.46z"/><path d="M110.299 240.546h-.438v-.3z"/></g><path fill="#8baccd" d="M0 210.135h136.626v30.415H0z"/><g transform="translate(136.079 29.849)"><path d="M50.59 95.434l-.707-.023-.479-.031-.395-.03-1.583-.208-.5-.085-.168-.034-1.169-.263-.658-.177-.7-.213-.51-.17-.472-.165-1.1-.431-1.365-.621-1-.523-1.939-1.186-.937-.663-1.8-1.454-.637-.589-.548-.549-.171-.176c-.017-.011-.031-.026-.042-.043l-.1-.117-.811-.888-.6-.712-.576-.747-.531-.755-.507-.786h0l-.368-.6-.425-.755-.7-1.432-.6-1.469-.271-.774q-.087-.29-.174-.581l-.173-.6c-.118-.395-.214-.795-.29-1.2l-.155-.774c-.015-.015-.022-.037-.019-.058l-.117-.736c0-.039-.019-.1-.019-.135l-.1-.793-.078-.793a.48.48 0 0 0-.019-.154l-.019-.774a26.15 26.15 0 0 1 .038-2.767l.058-.91c.9.638 1.957 1.019 3.057 1.1l6.25.367c1.204.045 2.408-.091 3.572-.403a5.73 5.73 0 0 0 2.747-1.7c2.535-2.9 3.56-8.087 3.968-10.931 1.685-.278 3.403-.278 5.088 0 .387 2.844 1.432 8.03 3.967 10.931 1.548 1.742 3.658 2.109 6.327 2.109.871 0 1.9-.039 2.96-.115 1.064-.059 2.187-.155 3.289-.252 5.65-.484 7.237-7.624 7.663-12.46 1.239 3.076 2.282 4.14 3.134 4.14 1.92-.003 2.867-5.252 2.867-5.252.1-.039.194-.077.31-.115l.173-.058c.04 0 .058-.021.078-.021a1.29 1.29 0 0 1 .135-.038 1.25 1.25 0 0 1 .136-.039c.04-.019.078-.019.136-.039.019 0 .057-.019.077-.019.03-.018.065-.025.1-.019.062-.025.127-.038.194-.04.015-.01.033-.014.051-.012h.058a3.79 3.79 0 0 1 .426-.078c.076-.022.153-.035.232-.038.043-.017.09-.024.136-.019.117-.019.231-.019.348-.038.214-.02.387-.02.483-.02 2.749-.1 6.618 1.045 5.786 8.533-.224 2.378-.868 4.697-1.9 6.85a15.2 15.2 0 0 1-11.835 2.71v.011c4.156.77 8.446-.213 11.852-2.716-.1.2-.2.4-.306.585a14.29 14.29 0 0 1-1 1.545c-.176.23-.352.449-.529.656-.268.312-.549.59-.821.86s-.567.5-.845.723a1.07 1.07 0 0 0-.128.1 9.97 9.97 0 0 1-.457.323l-.34.218a8.17 8.17 0 0 1-.467.273c-.044.025-.08.042-.122.068l-.421.213-.371.176c-.121.061-.242.1-.358.147a.5.5 0 0 0-.1.041l-.446.158-.219.074-.535.158a13.9 13.9 0 0 1-.693.151c-.17.037-.336.062-.481.085h-.019a7.53 7.53 0 0 1-.456.055c-.037.007-.066.007-.1.012l-.238.018h-.034c-.055.005-.1.005-.151.005a2.82 2.82 0 0 1-.315.008c-2.6 6.542-7.552 11.876-13.883 14.953-4.381 2.058-9.174 3.087-14.013 3.01-.193.004-.386.002-.581 0zm-3.8-10.98c1.075.437 2.226.654 3.386.638a8.69 8.69 0 0 0 7.294-3.541c1.015-1.341 1.669-2.919 1.9-4.585l-.464.1h-.019a.98.98 0 0 0-.232.039c-.088.024-.179.037-.271.039l-.561.059c-.7.1-1.412.173-2.147.251a8.35 8.35 0 0 1-.736.077c-1.3.136-2.632.251-4.044.29a46.07 46.07 0 0 1-4.005-.058l-.7-.058h-.02c-.018.02-.018.02-.039 0-.007.009-.018.015-.029.015s-.022-.005-.029-.015l-.659-.058c-.445-.04-.89-.1-1.353-.155-.28-.018-.559-.057-.833-.117-.29-.039-.6-.077-.89-.135-.155-.02-.29-.059-.445-.078-.069-.02-.141-.033-.213-.038a6.9 6.9 0 0 1-.677-.154c0 0 1.084 5.587 5.785 7.483zm-1.123-17.337c-1.3 1.143-1.97 2.842-1.8 4.565.465 2.613 2.884 3.561 6.812 1.858-3.424.852-5.282-.677-5.379-2.631-.072-.813.21-1.617.773-2.207 1.87-2.476 2.895-5.487 2.922-8.59 0-.207-.013-.414-.04-.619-.022.058-1.082 5.731-3.288 7.624z" fill="#ffd1c5" stroke="rgba(0,0,0,0)" stroke-miterlimit="10"/><g fill="#faa284"><use xlink:href="#W" x="-136.078" y="-29.849"/><use xlink:href="#X" x="-136.079" y="-29.849"/></g><path d="M112.7 113.854a42.681 42.681 0 0 1-3.7 12.5c-14.083-12.974-18.431-13.382-18.431-13.382l-10.956-4.112v-.006a8.31 8.31 0 0 0 .006-.877l-9.8-3.529-.287.689-4.381-3.407.019-5.06.019-4.241a28.208 28.208 0 0 0 13.877-14.962 2.983 2.983 0 0 0 .315-.008 1.369 1.369 0 0 0 .151-.006h.037l.238-.017c.03-.006.059-.006.1-.012a8.76 8.76 0 0 0 .456-.056h.017c.147-.023.311-.048.483-.085a15.1 15.1 0 0 0 .692-.151l.536-.159.219-.074c.144-.048.291-.1.444-.159a.484.484 0 0 1 .1-.041c.116-.05.237-.1.359-.147s.25-.116.371-.176l.42-.213c.042-.025.079-.042.122-.068a9.44 9.44 0 0 0 .468-.273l.341-.219c.153-.1.3-.207.456-.323a1.373 1.373 0 0 1 .127-.1c.278-.221.565-.462.846-.724s.553-.547.82-.859q.267-.31.53-.656a12.436 12.436 0 0 0 1-1.546l.307-.584a20.3 20.3 0 0 0 1.879-6.85c.84-7.48-3.028-8.637-5.787-8.541.063-.006.093-.006.093-.006a40.253 40.253 0 0 0-9.088-3.845l-1.197-.069-.724-.037q-.454-1.669-.941-3.692A72.876 72.876 0 0 1 60.359 33.6c-4.265.066-8.376-.05-12.281-.3a49.228 49.228 0 0 0 5.14-10.116 32.46 32.46 0 0 0 .556-1.521c-.074.116-.384.633-.919 1.441a73.313 73.313 0 0 1-8 9.959 52.664 52.664 0 0 1-15.683 11.6 34.465 34.465 0 0 1-8.353 2.637 23.1 23.1 0 0 0 6.977-.224q-1.158 2.136-2.084 4.324l.006.019a70.98 70.98 0 0 0-2.061.085l-1.194.066-.054 1.144c-.026.573-.479 12.076 4.738 15.773a22.8 22.8 0 0 1-.054.919 24.524 24.524 0 0 0-.048 2.761c.005.263.017.518.035.774a1.14 1.14 0 0 1 .014.163 16.24 16.24 0 0 0 .073.78l.1.8a1.075 1.075 0 0 0 .024.145c.03.244.073.482.109.718l.019.074a29.28 29.28 0 0 0 .153.772c.091.408.187.809.3 1.205.049.2.11.395.17.59l.182.582a9.44 9.44 0 0 0 .262.766q.274.757.607 1.478c.214.488.443.962.7 1.424.132.255.273.5.417.755l.361.6v.006c.159.267.33.536.512.791s.346.511.53.755l.576.747c.33.42.676.828 1.037 1.217a.084.084 0 0 1 .029.031 8.43 8.43 0 0 0 .444.468.139.139 0 0 0 .043.043c.018.023.037.048.059.074l.038.037a13.84 13.84 0 0 0 .622.613l.637.59a21.369 21.369 0 0 0 1.8 1.453c.3.226.619.451.937.664a25.21 25.21 0 0 0 .96.621 22.44 22.44 0 0 0 .978.565l1.005.523c.45.221.907.428 1.363.621.369.153.736.3 1.1.431a6.93 6.93 0 0 0 .47.165c.158.049.341.116.512.17a21.67 21.67 0 0 0 .7.213 19.42 19.42 0 0 0 .659.176 17.56 17.56 0 0 0 1.168.263l-.025 6.107-.012 2.318a15.282 15.282 0 0 1-.051-1.558l-3.941 2.8.218-.741-9.384 3.545c-.263.371-.567.865-.9 1.455l-.005.006-10.366 4.191-.06.2-.036-.05s-2.769 1.875-19.252 18.225c-14.491-17.731 30.384-20.992 10.456-48.03-21.375-29.016-3.25-28.919 7.494-54.133l.34-.815c.091-.219.176-.439.261-.658.1-.236.19-.474.281-.712l.287-.753.4-1.107.122-.348c.2-.559.389-1.13.572-1.714l.3-.95.314-1.07.31-1.1.3-1.126a60.24 60.24 0 0 0 .565-2.33c.066-.273.122-.547.182-.82l.4-1.929a41.988 41.988 0 0 1 1.215-4.853c7.518-23.5 28.079 6.118 28.079 6.118C64.683 4.811 74.5 8.071 82.2 16.709a1.4 1.4 0 0 1 .123.141 48.561 48.561 0 0 1 4.478 6l.669 1.093.621 1.047.625 1.107.6 1.12.656 1.271.638 1.294c.03.062.062.122.087.184h.006c6.32 13.345 8.771 29.13 4.33 35.159-15.742 21.351 20.639 27.536 17.667 48.729z" fill="url(#O)"/><g fill="#ffd1c5"><path d="M28.138 53.919a66.35 66.35 0 0 1 16.085 1.844c-.312 2.755-1.3 7.974-3.467 10.437-.681.774-1.606 1.223-4.3 1.223-1.344 0-3.083-.1-6.015-.358-1.411-.194-2.633-1.077-3.261-2.355a83.59 83.59 0 0 0-1.037-10.76l1.995-.031z"/><use xlink:href="#Y" x="-136.079" y="-29.849"/><path d="M70.433 51.383a63.52 63.52 0 0 0-17.913 2.25l-.559.176a13.03 13.03 0 0 0-5.743-.128l-.159-.048c-5.836-1.599-11.871-2.357-17.921-2.25a75.47 75.47 0 0 0-2.42.037l-.006-.023q.931-2.188 2.085-4.324c5.683-.959 13.784-4.134 20.282-13.776a154.87 154.87 0 0 0 12.281.3c3.657 5.274 7.994 10.041 12.9 14.179q.485 2.026.941 3.692c-1.255-.06-2.52-.085-3.768-.085z"/></g><g fill="#faa284"><use xlink:href="#Z" x="-136.078" y="-29.849"/><use xlink:href="#a" x="-136.079" y="-29.849"/><path d="M36.898 90.61a21.3 21.3 0 0 1-1.8-1.453l1.8 1.453zm2.87 1.85l-.979-.565-.959-.621 1.938 1.186z"/><use xlink:href="#c" x="-136.078" y="-29.849"/></g><path d="M36.038 71.639c-.039.188-.224.309-.412.269a.35.35 0 0 1-.27-.412c.039-.189.223-.309.411-.27.091.019.17.072.221.15s.068.172.049.262zm29.933.454c-.042.201-.238.33-.439.291a.38.38 0 0 1-.293-.439c.042-.202.239-.333.442-.293a.37.37 0 0 1 .29.441z" opacity=".9" fill="#ea7460"/><use xlink:href="#W" x="-136.078" y="-29.849" fill="#db7c65"/><path d="M33.912 88.019a.75.75 0 0 1-.07-.066l-.04-.037a.9.9 0 0 1-.06-.073l.17.176z" fill="#ef8d72"/><path d="M53.774 21.66l-.555 1.521a49.23 49.23 0 0 1-5.14 10.116c-6.5 9.642-14.6 12.817-20.282 13.778a23.1 23.1 0 0 1-6.977.224 34.47 34.47 0 0 0 8.353-2.639 52.67 52.67 0 0 0 15.683-11.6 73.27 73.27 0 0 0 8-9.959c.534-.808.844-1.325.918-1.441z" fill="#674434"/><g transform="matrix(.999 -.035 .035 .999 -328.441 -224.5)"><path d="M372.465 299.591c1.216-13.371 16.8-2.431 18.426 0-5.857 6.077-18.426 4.253-18.426 0zm-12.765-.234c0-6.877-7.856-11.691-10.461 0 3.587 2.751 8.401 3.438 10.461 0z" fill="#fff"/><circle cx="382.013" cy="297.87" r="4.508" fill="url(#P)"/><use xlink:href="#e" fill="url(#Q)"/><circle cx="378.633" cy="295.823" r="1.512" fill="#fff"/><path d="M390.891 299.59c-7.486-5.47-15.995-7.9-18.426 0 .607-7.901 6.077-13.368 18.426 0z" fill="#472c20"/><circle cx="356.488" cy="297.262" r="4.508" fill="url(#P)"/><use xlink:href="#e" x="-25.525" y="-0.608" fill="url(#R)"/><circle cx="353.108" cy="295.215" r="1.512" fill="#fff"/><path d="M362.11 299.357c0-11-11.356-12.378-12.869 0 1.873-6.189 6.102-11.002 12.869 0zm12.179-5.236c-2.4 1.3-5.47 1.822-7.294 1.215a10.97 10.97 0 0 0 6.686 1.216z" fill="#472c20"/></g><path d="M59.356 76.973a9.65 9.65 0 0 1-1.885 4.58c-1.697 2.308-4.424 3.63-7.287 3.535a8.69 8.69 0 0 1-3.4-.633c-4.703-1.892-5.773-7.482-5.773-7.482l.876.176-.207-.037c.735 1.32 2.45 3.748 8.3 3.748 5.51 0 8.388-2.336 8.913-3.8l.463-.087z" fill="#faa284"/><path d="M58.895 77.058c-.525 1.467-3.4 3.8-8.913 3.8-5.852 0-7.567-2.426-8.301-3.746l.206.037.449.085.888.147.829.114c2.267.278 4.552.386 6.835.323a54.52 54.52 0 0 0 8-.76z" fill="#c43131"/><path d="M58.895 77.058c-.525 1.467-3.4 3.8-8.913 3.8-5.852 0-7.567-2.426-8.301-3.746l.206.037.449.085.888.147.829.114c2.265.307 4.552.415 6.835.323 2.908-.1 5.55-.457 8-.76z" fill="#fff"/><path d="M43.414 49.372a26.09 26.09 0 0 0-12.993.495s-.039-.555 1.391-1.735c1.343-1.114 6.297-2.262 10.509-.459 0 0 2.183 1.212 1.093 1.699zm11.937-.132a26.1 26.1 0 0 1 12.987.664s.043-.553-1.371-1.757c-1.327-1.128-6.265-2.34-10.5-.592 0 0-2.198 1.182-1.116 1.685z" fill="#502f26"/><g fill="#302a28"><use xlink:href="#Z" x="-136.078" y="-29.849"/><path d="M58.514 54.85v.039h.02c-.001-.02-.001-.02-.02-.039zm-31.345 9.868c-1.703-2.883-2.149-7.74-2.149-10.739.368-.019.755-.019 1.122-.039-.135-.909-.29-1.741-.424-2.515l-2.071.077-1.18.078-.058 1.145c-.019.557-.484 12.07 4.739 15.766.059-1.238.078-2.496.021-3.773z"/></g><path d="M76.118 51.579l-1.2-.077-.712-.039-3.772-.077a63.56 63.56 0 0 0-17.916 2.245l-.562.174a12.91 12.91 0 0 0-5.747-.119l-.156-.058c-.27-.094-7.119-2.242-17.917-2.242-.793 0-1.605 0-2.418.039l.425 2.515 1.994-.019a67.01 67.01 0 0 1 16.081 1.838c-.31 2.767-1.3 7.972-3.464 10.448-.678.774-1.606 1.219-4.3 1.219-1.353 0-3.075-.116-6.017-.368a4.28 4.28 0 0 1-3.269-2.341c.057 1.277.039 2.535-.021 3.773a6.06 6.06 0 0 0 3.058 1.1c2.206.193 4.47.368 6.249.368a12.07 12.07 0 0 0 3.58-.406 5.74 5.74 0 0 0 2.748-1.7c2.535-2.9 3.56-8.088 3.967-10.932a15.63 15.63 0 0 1 5.089 0c.386 2.844 1.431 8.03 3.966 10.932 1.548 1.741 3.657 2.109 6.327 2.109a42 42 0 0 0 2.96-.116c1.064-.058 2.187-.155 3.289-.252 5.65-.484 7.237-7.624 7.663-12.461 1.238 3.076 2.283 4.141 3.134 4.141 1.916 0 2.864-5.244 2.864-5.244.1-.039.193-.077.31-.116l.173-.058c.027-.003.053-.009.078-.019a1.25 1.25 0 0 1 .136-.039c.044-.016.09-.029.136-.039.044-.016.089-.029.135-.039.02 0 .058-.019.078-.019.019-.019.058-.019.1-.019a.58.58 0 0 1 .194-.039c.016-.015.037-.022.058-.019h.058c.1-.037.204-.063.31-.077h.111a.97.97 0 0 1 .232-.039c.044-.018.091-.026.138-.021.116-.019.231-.019.348-.039.213-.019.386-.019.482-.019.025-.01.051-.016.078-.019a39.61 39.61 0 0 0-9.078-3.83zm-7.968 15.48c-2.941.252-4.683.368-6.017.368-2.709 0-3.619-.445-4.315-1.219-2.167-2.477-3.154-7.682-3.464-10.448.872-.213 2.284-.542 4.16-.871v-.04c.02.019.02.019.02.039 3.933-.655 7.913-.978 11.9-.967a83.86 83.86 0 0 1 3.115.058c0 4.373-.931 12.693-5.399 13.08z" fill="url(#S)"/></g><path d="M34.986 76.775s-4.654-8.581 4.218-11.635 55.847-10.326 55.847-10.326 7.062 31.211 13.206 46.2l6.882 16.468-55.547 14.5s-8.6 1.72-11.552-7.865-13.054-47.342-13.054-47.342z" fill="#8baeff"/><path d="M45.055 85.263c.008-5.846 4.256-9.737 10.596-9.674 4.476.045 8.644 1.498 12.682 3.223 10.013 4.27 19.115 9.96 26.466 18.117 2.795 3.1 4.43 6.693 3.31 11.046-1.335 5.196-6.544 7.646-11.667 7.678-4.845.028-9.158-1.95-13.408-3.968-6.262-3.082-12.173-6.83-17.631-11.179-1.803-1.392-3.263-3.117-4.92-4.626a23.53 23.53 0 0 1-1.557-1.516c-2.441-2.404-3.833-5.675-3.871-9.101zm30.555-.393c-5.999-3.236-12.155-6.289-18.993-6.941-6.674-.641-10.338 3.651-8.824 10.047.699 2.413 2.096 4.566 4.015 6.188a107.15 107.15 0 0 0 10.675 8.669 2.9 2.9 0 0 0 3.706.008 22.3 22.3 0 0 0 10.047-15.946c.083-.567.239-1.228-.225-1.725a1.52 1.52 0 0 0-.4-.3zm16.566 12.473c-3.626-3.638-7.634-6.873-11.956-9.649-1.288-.887-1.698-.518-1.97.845-1.317 6.561-4.377 12.048-10.131 15.704-1.625 1.027-1.16 1.629.123 2.305 2.534 1.338 5.015 2.802 7.64 3.921 3.661 1.568 7.363 3.028 11.508 2.781 5.576-.333 9.456-4.27 8.635-9.153-.391-2.21-1.419-4.259-2.956-5.894a11.36 11.36 0 0 0-.894-.858zm-38.02-16.007c-.187-1.395.95-1.238 1.695-1.262 2.919-.005 5.806.612 8.468 1.812 1.197.497 2.608.597 3.698 1.784a.92.92 0 0 1 .155 1.283 1.3 1.3 0 0 1-1.679.355c-1.592-.591-3.111-1.43-4.737-1.873-1.945-.485-3.921-.84-5.913-1.063-.559-.072-1.102-.047-1.423-.391-.153-.182-.246-.408-.265-.646zm26.462 9.802c.409-.368 1.076-.677 1.629-.078s.298 1.245.026 1.89c-.654.241-1.297.549-1.897-.05l-.038-.041c-.612-.657-.189-1.306.279-1.721zm3.575 4.293c-.351-.403-.604-1.051.086-1.585.562-.442.994-.107 1.495.073.15.558.45 1.122-.144 1.639a1.02 1.02 0 0 1-1.423-.111zm6.213 6.259a1.19 1.19 0 0 1 .118-1.802 1.28 1.28 0 0 1 1.85.179 1.3 1.3 0 0 1-.16 1.839 1.21 1.21 0 0 1-1.725-.121 1.36 1.36 0 0 1-.083-.096zm-3.102-4.812c.538-.687 1.183-.604 1.906-.19a1.32 1.32 0 0 1-.076 1.839 1.1 1.1 0 0 1-1.652-.002l-.048-.051c-.233-.192-.379-.469-.403-.77s.074-.599.273-.826z" fill="#fff"/><path d="M276.933 20.324a30.17 30.17 0 0 0-18.316 7.322c-9.508 7.917-13.224 18.878-15.513 30.456-.587 2.926-2.644 6.991.141 8.889 2.924 1.977 6.721-.312 8.717-1.123 18.377-8.704 26.745-22.764 28.879-41.154.379-3.266-.138-4.572-3.909-4.39zm-2.251 11.021c-3.624 14.658-10.08 22.817-24.32 29.913 3.717-7.525 8.282-12.851 12.491-18.403 1.059-1.422 2.301-2.704 3.284-4.17.468-.703 1.443-1.697.364-2.544-1.152-.892-2.191-.3-3.004.765q-5.897 7.664-11.842 15.321c-.57.736-1.188 1.454-1.961 2.407.54-11.461 9.473-24.108 19.546-27.968 1.844-.712 4.031-1.821 5.642-.716 2.065 1.422.237 3.603-.201 5.396zM50.304 182.541c-6.814-.861-10.456 1.985-11.296 8.826-.76 6.287 2.779 11.009 8.798 11.712a10.75 10.75 0 0 0 11.723-9.084c.762-5.822-3.164-10.697-9.226-11.454zm-2.221 16.15c-2.971-1.443-5.737-3.099-5.007-6.901.721-3.731 3.398-5.737 7.131-5.123 3.663.594 5.161 3.699 4.701 6.959-.5 3.475-3.318 4.973-6.824 5.065zM44.547 13.403C46.249.716 46.045-.444 34.708 5.478c-.178.086-.385.12-.563.194-11.269 4.902-11.313 4.958-1.585 12.329 3.036 2.287 6.407 6.617 9.74 5.195 3.303-1.402 1.375-6.883 2.247-9.792zm-4.691 2.92c-2.744 1.437-4.179-1.48-6.494-3.115a1.6 1.6 0 0 1-.11-2.569c2.457-1.957 4.731-3.156 6.875-1.837 2.066 1.245 1.287 6.705-.273 7.519z" fill="#dee8ff"/></g></g><g transform="translate(1089.58 1324.58)" filter="url(#T)"><path d="M6.142,49.96a5.863,5.863,0,0,1-4.374-1.815,6.179,6.179,0,0,1,0-8.655,5.863,5.863,0,0,1,4.374-1.815H22.614a5.863,5.863,0,0,1,4.374,1.815,6.179,6.179,0,0,1,0,8.655,5.863,5.863,0,0,1-4.374,1.815ZM80.962,69.5q-1.582-.093-4.374-.14t-5.072-.093q-2.28-.047-4.234-.047-2.606,0-7.724.186a44.16,44.16,0,0,1-12-.838Q41.04,66.9,39.178,61.779q-1.768-4.56,1.21-9.771,1.768-2.885,13.447-15.588T66.352,21.949a4.916,4.916,0,0,0,.279-3.164q-.931-4.374-5.3-4.374a9.21,9.21,0,0,0-4.513,1.21,8.8,8.8,0,0,0-3.4,3.257,8.639,8.639,0,0,0-.465,1.489,3.675,3.675,0,0,0-.14.558q-.047.279-.093.6a4.3,4.3,0,0,0-.047.6l-.465,2.42A6.869,6.869,0,0,1,49.182,28.6a5.911,5.911,0,0,1-4.886.744,6.631,6.631,0,0,1-4.048-3.024,6.351,6.351,0,0,1-.791-5.025,5.187,5.187,0,0,0,.279-1.3q.372-1.954.372-2.047a15.089,15.089,0,0,1,2.047-5.77,21.117,21.117,0,0,1,8.282-8.143A22.417,22.417,0,0,1,61.42,1.1,18.927,18.927,0,0,1,72.773,4.966,17.8,17.8,0,0,1,79.38,15.714a18.491,18.491,0,0,1-1.21,12q-2.047,4.095-20.287,24.2L55,54.613A10.378,10.378,0,0,0,53.7,56.2a37.6,37.6,0,0,0,5.3,0q5.491-.186,8.282-.186.093,0,13.866.279a6.6,6.6,0,0,1,6.375,6.747,6.262,6.262,0,0,1-2,4.606A6.4,6.4,0,0,1,80.962,69.5Zm33.781-.279a23.769,23.769,0,0,1-9.771-3.49,22.3,22.3,0,0,1-6.886-6.84,39.611,39.611,0,0,1-4.141-8.655,41.928,41.928,0,0,1-2-9.4A51.765,51.765,0,0,1,94.084,21.2a33.439,33.439,0,0,1,9.4-15.448,20.641,20.641,0,0,1,5.025-2.978,6.6,6.6,0,0,0,1.3-.465,16.413,16.413,0,0,0,1.768-.838,6.178,6.178,0,0,1,4.095-.6,7.06,7.06,0,0,1,3.629,2q1.489.186,2.14.279a29.568,29.568,0,0,1,8.468,2.7q7.166,4.188,9.771,17.03a73.839,73.839,0,0,1,1.489,16.006,37.6,37.6,0,0,1-5.863,20.473,22.285,22.285,0,0,1-8.655,7.817A19.1,19.1,0,0,1,114.743,69.224Zm1.489-13.68q5.025.558,8.189-4a24.364,24.364,0,0,0,3.35-12.842,61.644,61.644,0,0,0-1.117-12.935,25.031,25.031,0,0,0-1.163-4.234,15.285,15.285,0,0,0-1.21-2.606,2.791,2.791,0,0,0-.884-.977,13.724,13.724,0,0,0-3.909-1.117,6.264,6.264,0,0,1-1.024-.093q-.558-.093-1.21-.186a7.694,7.694,0,0,0-1.024-.093q-1.768-.372-3.257-.744a4.6,4.6,0,0,0-.931.651q-3.35,2.978-5.4,9.492a35.908,35.908,0,0,0-1.489,13.68q.744,7.073,3.629,11.26A10.327,10.327,0,0,0,116.232,55.544Zm62.443,11.539a6.392,6.392,0,0,1-3.862,3.211,6.493,6.493,0,0,1-7.677-9.166L198.4,3.523A6.06,6.06,0,0,1,202.173.313a6.474,6.474,0,0,1,4.979.419A6.06,6.06,0,0,1,210.362,4.5a6.474,6.474,0,0,1-.419,4.979ZM167.508,24a5.284,5.284,0,0,0,2.326-2,8.728,8.728,0,0,0,1.582-3.769,5.084,5.084,0,0,0-.186-2.513,2.222,2.222,0,0,0-1.4-.744l-.744.186q-.372.093-.931.279-.651.465-1.675,1.117l-1.675,1.117-.931.651q-1.117,1.954.558,4.281Q165.833,24.555,167.508,24ZM171.6,36.28a14.343,14.343,0,0,1-10.05-.093,17.687,17.687,0,0,1-7.724-6.049,18.744,18.744,0,0,1-2.652-5.491,16.239,16.239,0,0,1-.512-6.421,14.754,14.754,0,0,1,2.047-6.421,15.823,15.823,0,0,1,4.839-4.932l.744-.465a6.234,6.234,0,0,1,4.56-3.071q.372-.093,1.21-.279,1.861-.465,1.954-.465a13.46,13.46,0,0,1,6.421-.279,14.411,14.411,0,0,1,10.144,7.166,16.2,16.2,0,0,1,1.582,10.795A22.917,22.917,0,0,1,180.025,30,16.5,16.5,0,0,1,171.6,36.28Zm39.83,20.008a4.08,4.08,0,0,0,1.954-.744,7.422,7.422,0,0,0,2.14-2.047q1.117-1.675.186-2.7a4.14,4.14,0,0,0-1.4-.651L209.2,48.471a4.089,4.089,0,0,0-1.954,3.211,4.2,4.2,0,0,0,1.21,3.257A4.034,4.034,0,0,0,211.433,56.288Zm.186,13.028a18.456,18.456,0,0,1-8.189-1.768,14.619,14.619,0,0,1-5.63-4.56,17.738,17.738,0,0,1-2.838-6.421,18.653,18.653,0,0,1-.279-7.166,17.943,17.943,0,0,1,2.606-6.793A15.439,15.439,0,0,1,207.8,35.35l1.768-.372q.651-.093,1.024-.186a6.076,6.076,0,0,1,4.188.186,6.426,6.426,0,0,1,3.164,2.7l.372.186a15.273,15.273,0,0,1,7.073,4.188,14.274,14.274,0,0,1,3.35,6.514,15.436,15.436,0,0,1,.093,6.514,17.392,17.392,0,0,1-2.513,5.584,20.037,20.037,0,0,1-6.421,6.049A15.7,15.7,0,0,1,211.619,69.317Z" transform="matrix(.990268 -.139173 .139173 .990268 416.94 168.27)" fill="#fff"/></g><path d="M1544.477 1463.843c-.606-2.944-1.038-5.922-1.294-8.917q-.843-8.613-.91-9.093l-.742-5.282a2.14 2.14 0 0 1 .213-1.09 5.91 5.91 0 0 1 3.544-2.946 5.87 5.87 0 0 1 1.257-.344q.675-.135 1.715-.281 2.035-.326 4.795-.714 2.8-.394 4.847-.641 1.08-.152 1.726-.202c.447-.061.899-.069 1.348-.022 1.527.029 2.956.762 3.87 1.986.195.335.329.702.393 1.085q.09.355.21.909.18.995.416 2.675.399 2.841 1.04 7.687.495 3.806 1.427 11.591a2.19 2.19 0 0 1-.453 1.716 2.22 2.22 0 0 1-1.551.87 2.26 2.26 0 0 1-1.718-.472c-.493-.372-.803-.938-.851-1.554q-.925-7.747-1.421-11.551-.635-4.806-1.029-7.608-.27-1.635-.4-2.555l-.062-.155q-.125-.023-.292-.041l-.08.011a1.24 1.24 0 0 1-.163.003c-.081-.002-.162.003-.242.014q-.606.045-1.646.191-1.966.236-4.727.624-2.681.377-4.675.697-.995.18-1.635.27c-.075.033-.154.058-.234.073l-.159.022a4.5 4.5 0 0 0-.733.305l.575 4.088q.152 1.08.938 9.293c.227 2.794.631 5.57 1.209 8.313a2.22 2.22 0 0 1-.303 1.759 2.26 2.26 0 0 1-1.448 1.019 2.19 2.19 0 0 1-1.736-.306c-.518-.318-.885-.833-1.017-1.427zm31.153-4.782q-.304-2.161-.728-5.039-.425-2.878-.779-5.398-.354-2.52-.879-5.384-.525-2.864-1.085-5.397c-.502-.326-.864-.828-1.014-1.408-.252-.812-.05-1.697.531-2.318a2.39 2.39 0 0 1 1.808-1.647c.568-.138 1.166-.08 1.697.165q1.721-.528 2.945-.818 1.224-.29 3.034-.613c1.148-.207 2.316-.275 3.481-.203a13.12 13.12 0 0 1 3.164.595 9.59 9.59 0 0 1 3.652 2.322c1.06 1.039 1.901 2.281 2.471 3.652.561 1.388.69 2.913.37 4.375a8.28 8.28 0 0 1-2.435 4.3q-2.4 2.377-7.2 3.052-1.48.208-3.548.297-.325.005-1.748.044l1.226 8.722a2.27 2.27 0 0 1-.455 1.839 2.5 2.5 0 0 1-1.654 1.008 2.36 2.36 0 0 1-1.862-.472 2.45 2.45 0 0 1-.991-1.678zm8.369-14.767a7.8 7.8 0 0 0 4.34-1.63 3.3 3.3 0 0 0 .982-2.158c.05-.871-.214-1.732-.745-2.425-.592-.802-1.426-1.393-2.379-1.685a7.05 7.05 0 0 0-2.804-.36 15.57 15.57 0 0 0-2.823.377q-1.224.294-3.339.918.706 3.287 1.349 7.277.286 0 1.077-.029.792-.029 1.277-.057a28.56 28.56 0 0 0 3.063-.227zm30.406 11.682c-1.89.572-3.874.76-5.838.555a11.6 11.6 0 0 1-4.881-1.637 14.4 14.4 0 0 1-5.997-7.539 20.08 20.08 0 0 1-.875-3.613c-.163-1.267-.158-2.551.014-3.817a17.98 17.98 0 0 1 .952-3.971c.485-1.306 1.157-2.535 1.995-3.648a15.24 15.24 0 0 1 3.113-3.109 2.36 2.36 0 0 1 .913-1.071 2.69 2.69 0 0 1 1.408-.438l.651-.01q.234-.073.544-.199.31-.125.483-.191l.286-.122a2.4 2.4 0 0 1 2.707.395c.508-.034 1.018-.009 1.52.072.902.112 1.768.423 2.535.909a34.39 34.39 0 0 1 3.105 2.296 20.72 20.72 0 0 1 3.645 3.609c.995 1.352 1.764 2.856 2.278 4.453a13.7 13.7 0 0 1 .607 5.036c-.097 1.732-.471 3.437-1.108 5.051-.662 1.641-1.702 3.102-3.036 4.264a12.83 12.83 0 0 1-5.018 2.723zm-1.417-4.86a7.12 7.12 0 0 0 3.491-2.164 8.03 8.03 0 0 0 1.868-3.546c.307-1.391.313-2.832.018-4.226a9 9 0 0 0-1.746-3.712 15.71 15.71 0 0 0-2.794-2.749q-2.483-2.019-3.149-2.089c-.543-.057-1.09-.062-1.634-.015l-2.189.106c-.334.144-.65.324-.945.537a9.7 9.7 0 0 0-3.807 5.717 10.74 10.74 0 0 0 .322 6.646c.674 2.089 2.082 3.864 3.964 4.994 2.03 1.094 4.429 1.275 6.601.5zm30.276.886c-.497.125-1.022.077-1.489-.137a2.54 2.54 0 0 1-1.16-.999l-8.14-13.221q.946 6.15 2.113 13.003c.13.66-.017 1.345-.407 1.893a2.36 2.36 0 0 1-1.628 1.03 2.52 2.52 0 0 1-1.896-.427 2.29 2.29 0 0 1-1.005-1.634q-2.312-13.261-3.688-23.92a2.44 2.44 0 0 1 .195-1.373c.185-.426.496-.785.89-1.029.531-.398 1.203-.559 1.856-.445a2.58 2.58 0 0 1 1.651.972l2.478 3.405q.514.784 1.247 1.906l1.104 1.763 1.212 1.95 1.11 1.802q.318.527 1.178 1.996.86 1.47 1.07 1.808.211.338 1.15 1.94.939 1.602 1.053 1.831l2.142-7.4q2.937-10.164 3.566-12.659a3.68 3.68 0 0 1 .271-.69c.266-.846.975-1.479 1.846-1.647.646-.149 1.324-.031 1.882.327.58.343.987.916 1.119 1.577q.47 2.178.916 4.196.44 2.261.714 3.775.274 1.515.704 4.43.43 2.918.574 3.795.144.878.582 4.141.438 3.264.489 3.624c.193 1.37-.762 2.637-2.132 2.829s-2.637-.762-2.829-2.132q-1.496-10.642-1.947-13.272l-.945 3.152q-2.441 8.176-3.587 11.928c-.111.525-.397.997-.812 1.338a2.34 2.34 0 0 1-1.45.57zm33.517-4.792c-1.89.572-3.874.76-5.838.555a11.6 11.6 0 0 1-4.881-1.637 14.4 14.4 0 0 1-5.997-7.539 20.08 20.08 0 0 1-.875-3.613c-.163-1.267-.158-2.551.014-3.817a17.98 17.98 0 0 1 .952-3.971c.486-1.306 1.159-2.534 1.997-3.646a15.24 15.24 0 0 1 3.113-3.109 2.36 2.36 0 0 1 .911-1.073 2.69 2.69 0 0 1 1.407-.442l.651-.01q.234-.073.544-.199.31-.125.484-.187l.286-.122a2.4 2.4 0 0 1 2.707.395c.508-.034 1.018-.009 1.52.072.902.112 1.768.423 2.535.909a34.39 34.39 0 0 1 3.097 2.298 20.72 20.72 0 0 1 3.656 3.606c.995 1.352 1.764 2.856 2.278 4.453a13.7 13.7 0 0 1 .607 5.036c-.097 1.732-.471 3.437-1.108 5.051-.662 1.641-1.702 3.102-3.036 4.264a12.83 12.83 0 0 1-5.023 2.724zm-1.417-4.86a7.12 7.12 0 0 0 3.491-2.164 8.03 8.03 0 0 0 1.868-3.546c.307-1.391.313-2.832.018-4.226a9 9 0 0 0-1.746-3.712 15.71 15.71 0 0 0-2.794-2.749q-2.487-2.017-3.149-2.087c-.543-.057-1.09-.062-1.634-.015l-2.189.106c-.334.144-.65.324-.945.537a9.7 9.7 0 0 0-3.807 5.717 10.74 10.74 0 0 0 .322 6.646c.675 2.089 2.083 3.862 3.965 4.992 2.03 1.093 4.428 1.275 6.599.5z" fill="#fff"/></g></svg>
