<svg xmlns="http://www.w3.org/2000/svg" xmlns:xlink="http://www.w3.org/1999/xlink" width="267.801" height="217.327" ><defs><linearGradient id="A" x1=".5" x2=".5" y2="1"><stop offset="0" stop-color="#dee8ff"/><stop offset="1" stop-color="#fff"/></linearGradient><path id="B" d="M830.042 545.396c-5.78-.02-8.53 2.73-8.53 8.53.01 5.33 3.45 8.91 8.55 8.88 4.826-.096 8.725-3.965 8.86-8.79.04-4.94-3.74-8.61-8.88-8.62zm-.2 13.72c-2.63-.9-5.11-2-4.89-5.25.22-3.19 2.25-5.14 5.43-5.01 3.12.12 4.69 2.56 4.64 5.33-.06 2.95-2.26 4.49-5.18 4.93z"/><path id="C" d="M138.525 192.714a2.64 2.64 0 0 1-1.255-.319l-2.94-1.569c-.241-.128-.512-.196-.784-.196s-.543.068-.785.196l-2.94 1.569c-.397.212-.819.319-1.255.319a2.69 2.69 0 0 1-2.653-3.187l.562-3.322c.095-.561-.088-1.132-.489-1.529l-2.378-2.353c-.742-.734-1-1.809-.674-2.805.322-.983 1.152-1.687 2.166-1.837l3.288-.484c.55-.082 1.026-.433 1.273-.941l1.47-3.022a2.67 2.67 0 0 1 4.829 0l1.47 3.022c.247.507.723.859 1.274.94l3.287.484c1.014.15 1.844.854 2.167 1.837.327.996.068 2.071-.674 2.805l-2.379 2.353c-.401.396-.583.968-.489 1.529l.562 3.322a2.69 2.69 0 0 1-2.652 3.187z"/><path id="D" d="M133.544 172.214a2.16 2.16 0 0 0-1.965 1.24l-1.47 3.022c-.319.656-.936 1.11-1.65 1.216l-3.288.484c-1.797.265-2.515 2.505-1.214 3.792l2.378 2.353c.516.51.752 1.246.63 1.967l-.562 3.322c-.307 1.816 1.573 3.2 3.179 2.344l2.94-1.569c.639-.34 1.401-.34 2.04 0l2.94 1.569c1.606.858 3.486-.527 3.179-2.344l-.562-3.322c-.122-.721.114-1.457.63-1.967l2.379-2.353c1.301-1.287.583-3.527-1.214-3.792l-3.287-.484c-.714-.106-1.331-.561-1.65-1.216l-1.47-3.022a2.16 2.16 0 0 0-1.965-1.24m0-1c1.226 0 2.323.691 2.864 1.802l1.47 3.022c.175.359.51.607.897.665l3.286.484c1.203.177 2.187 1.011 2.569 2.176.386 1.178.081 2.448-.797 3.316l-2.379 2.353c-.285.282-.415.689-.347 1.09l.562 3.321c.16.947-.099 1.905-.711 2.628s-1.501 1.143-2.435 1.143a3.14 3.14 0 0 1-1.491-.378l-2.94-1.569c-.169-.09-.359-.137-.549-.137s-.38.048-.549.137l-2.94 1.569c-.47.251-.972.378-1.49.378a3.19 3.19 0 0 1-2.435-1.143c-.611-.723-.87-1.681-.71-2.627l.562-3.322a1.24 1.24 0 0 0-.347-1.089l-2.378-2.353c-.878-.868-1.183-2.139-.797-3.316a3.18 3.18 0 0 1 2.568-2.176l3.288-.484c.386-.057.722-.306.897-.665l1.47-3.022c.54-1.111 1.638-1.802 2.864-1.802z"/><path id="E" d="M135.268 174.964l1.29 2.5a1.92 1.92 0 0 0 1.448 1l2.884.4c.71.068 1.314.546 1.544 1.222s.043 1.423-.478 1.91l-2.416 1.943c-.45.412-.658 1.024-.553 1.625l.822 2.743c.096.71-.213 1.414-.802 1.823s-1.357.452-1.988.113l-2.58-1.3a2 2 0 0 0-1.789 0l-2.58 1.3c-.631.339-1.399.295-1.988-.113s-.898-1.113-.802-1.823l.492-2.743c.105-.6-.103-1.213-.552-1.625l-2.088-1.943c-.521-.487-.708-1.235-.478-1.91s.834-1.153 1.544-1.222l3.214-.4a1.92 1.92 0 0 0 1.448-1l.961-2.5c.344-.63 1.005-1.022 1.724-1.022s1.379.392 1.724 1.022z"/><path id="F" d="M135.248 174.936c-.351-.621-1.011-1.003-1.724-.998s-1.367.396-1.709 1.022l-.961 2.5a1.92 1.92 0 0 1-1.448 1l-3.214.4c-.71.069-1.313.547-1.543 1.222s-.043 1.422.477 1.909l2.088 1.943c.449.412.658 1.025.552 1.625l-.492 2.743a1.77 1.77 0 0 0 .693 1.743 5.02 5.02 0 0 1 .227-3.263c.987-2.5.987-4.171-.822-5s-1.809-2.335 1.151-2.5 3.618-.667 3.947-3.5c.227-1.928 1.733-1.705 2.778-.846z"/></defs><g transform="translate(-634.634 -345.479)"><path d="M763.476 382.343c39.406 0 87.754 48.348 87.754 87.754s-48.348 79.553-87.754 79.553-79.553-40.147-79.553-79.553 40.146-87.754 79.553-87.754zm42.823.298c3.529 11.292 32.816 16.937 44.813 46.577s14.467-6.7-6-26.817-42.345-31.051-38.813-19.76zm-10.17-9.746c-4.747 2.388-6.1 7.241.743 10.266s4.004-12.654-.743-10.266z" fill="#8baeff"/><g fill="url(#A)"><path d="M21.363,24.492a8,8,0,0,1,15.275,0L54.763,82.618A8,8,0,0,1,47.125,93H10.875A8,8,0,0,1,3.237,82.618Z" transform="matrix(.731354 .681998 -.681998 .731354 735.893 454.081)" opacity=".5"/><path d="M21.248,30.392c2.048-8.03,13.455-8.03,15.5,0l18.7,73.328A8,8,0,0,1,47.7,113.7H10.3a8,8,0,0,1-7.752-9.977Z" transform="matrix(.390731 -.920505 .920505 .390731 748.05 493.335)" opacity=".5"/><path d="M15.546,25.782a4,4,0,0,1,7.908,0l14.84,96.766a4,4,0,0,1-3.954,4.606H4.66a4,4,0,0,1-3.954-4.606Z" transform="matrix(.225 .974 -.974 .225 758.53 451.21)" opacity=".5"/><path d="M15.536,29.189a4,4,0,0,1,7.927,0l14.92,109.874A4,4,0,0,1,34.42,143.6H4.58a4,4,0,0,1-3.964-4.538Z" transform="matrix(-.190809 -.981627 .981627 -.190809 761.473 477.271)" opacity=".5"/></g><path d="M800.608 449.422a1 1 0 0 1-1-1.732l91.505-59.046a1 1 0 0 1 1.408.342l5.383 9.324a1 1 0 0 1-.408 1.391zm-55.067 13.798a1 1 0 1 1 0 2l-88.936 5.365a1 1 0 0 1-1.06-1v-10.738a1 1 0 0 1 1.06-1z" opacity=".5" fill="#fff"/><use xlink:href="#B" fill="#ffba00"/><path d="M655.104 480.046c.12-10.77-.17-11.72-9.03-5.61-.14.09-.31.14-.45.22-8.91 5.25-8.94 5.3-.06 10.46 2.77 1.6 6.03 4.87 8.67 3.34 2.61-1.51.44-5.89.87-8.41zm-3.62 2.92c-2.144 1.482-3.642-.808-5.743-1.937-.379-.194-.644-.557-.714-.978s.063-.849.359-1.156c1.85-1.887 3.628-3.121 5.558-2.239 1.85.83 1.76 5.47.54 6.31z" fill="#b3c5f0"/><path d="M654.848 385.581c10.749.683 11.713.444 6.075-8.724-.083-.145-.124-.317-.196-.461-4.776-9.173-4.825-9.205-10.443-.607-1.743 2.682-5.179 5.767-3.789 8.483 1.371 2.685 5.859.748 8.353 1.309zm-2.727-3.768c-1.368-2.219.998-3.595 2.235-5.634.214-.369.59-.614 1.014-.662s.845.108 1.136.419c1.788 1.946 2.927 3.786 1.945 5.668-.926 1.804-5.555 1.471-6.33.209z" fill="#ffba00"/><g fill="#b3c5f0"><path d="M883.422 361.954l-2.664-.407c-1.881-.118-2.198-1.029-2.002-2.811.947-8.792.893-8.794-7.67-10.157l-2.666-.43c-4.592-.719-5.988.295-6.77 4.939a22.39 22.39 0 0 0-.407 2.664c-.08 1.989-.927 2.789-2.944 2.246a25.62 25.62 0 0 0-3.039-.505c-4.428-.67-5.457.058-6.297 4.47-.212 1.139-.362 2.287-.543 3.431-1.351 8.533-1.359 8.579 7.064 10.476 1.645.37 2.362.779 2.18 2.722-.821 8.836-.751 8.839 8.006 10.178l2.281.353c4.795.72 5.984-.123 6.808-4.832.9-5.141.9-5.141 6.113-4.347 4.564.7 5.752-.144 6.525-4.626l.543-3.431.483-3.05c.789-5.201.172-6.049-5.003-6.883zm1.216 7.077a11.42 11.42 0 0 0-.256 1.523c-.88 5.559-.88 5.559-6.584 4.655-5.391-.854-5.439-.815-6.34 4.742a6.44 6.44 0 0 0-.173 1.145c.026 3.639-1.416 5.142-5.153 3.812-1.486-.404-3.002-.683-4.534-.836.233-1.871.56-3.733.685-5.606.122-1.756 1.464-3.717-.688-5.182-2.436-1.691-5.383-1.399-8.1-1.963-1.605-.332-2.295-.91-1.771-2.539.032-.125.052-.253.06-.381.884-7.106.915-7.257 7.904-5.979 3.246.6 4.334-.517 4.814-3.545 1.211-7.594 1.944-7.931 9.451-5.679 1.16.348 1.884.736 1.555 2.076a11.45 11.45 0 0 0-.172 1.137c-1.053 8.08-1.063 8.141 7.143 9.683 1.88.355 2.84.906 2.159 2.94z"/><use xlink:href="#B" x="-110" y="-190"/></g></g><path d="M160.639 167.075a45.41 45.41 0 0 0-86.38 0c28.529 8.686 57.34 8.109 86.38 0z" fill="#ffba00"/><path d="M130.079 81.994c-.007.181-.713 18.4-3.068 40.515-2.466 23.133-2.143 20.487-3.625 27.027 2.219 1.284 4.956 1.284 7.175 0 1.777-8.03 1.08-4.405 3.411-26.285 2.383-22.366 3.1-40.809 3.1-40.993z" fill="#825729"/><path d="M185.628 95.118l-.353-.471c-4.555-5.948-14.073-12.03-24.979-15.417l2.177-.236-2.326-9.867 4.941 9.583 7.445-.807-1.923-8.158 4.085 7.924 9.386-1.017q-.194-.38-.407-.754l-.01-.018h0c-4.155-7.322-13.207-12.758-23.73-13.38a31.45 31.45 0 0 0-10.62 1.142l3.348-3.758-5.522-1.9 6.811.457 4.086-4.584-3.45-1.189 4.254.285 4.8-5.388a11.05 11.05 0 0 0-.434.03l-.351.035h-.04 0c-5.433.611-13.052 4.7-19.816 11.068a47.37 47.37 0 0 0-8.11 9.825 53.25 53.25 0 0 0-8.485-18.4c-6.342-9.067-13.968-14.852-19.629-15.545a9.01 9.01 0 0 0-.443-.046l4.268 7.472 4.508-.335-3.792 1.588 3.632 6.357 7.216-.537-6.071 2.541 4.538 7.942 1.525-.112-1.283.537.187.326c-5.538-3.406-11.604-5.867-17.95-7.281-14.327-3.308-27.831-1.393-35.19 4.173h0l-.008.006-.14.108-.6.48 12.4 4.478 7.411-6.177-4.555 7.208 9.835 3.551 8.963-7.471-5.508 8.718 11.609 4.191 3.435-2.865-2.111 3.342 3.541 1.279c-5.278.173-10.526.854-15.673 2.034-13.986 3.142-25.538 9.139-30.4 15.146a16.23 16.23 0 0 0-.363.461l10.808-1.526 2.966-5.162-1.152 4.907 9.2-1.3 4.749-8.263-1.845 7.855 11.495-1.619 1-1.746-.39 1.659 17.244-2.42c-3.909 2.328-7.317 5.408-10.027 9.062-4.946 6.593-6.737 13.629-5.2 18.355h0l.02.056a4.69 4.69 0 0 0 .1.281c.046.127.094.253.147.376l4.571-4.79-2.143-3.6 2.91 2.8 3.888-4.075-3.429-5.771 4.656 4.485 4.859-5.091-.725-1.219.984.948 13.1-13.726-.064.194c-.01.031-.018.063-.027.094q-.045.157-.081.318l-.023.1c-.027.134-.051.269-.069.407 0 .024-.005.049-.008.073-.014.118-.025.238-.032.359 0 .039 0 .078-.006.118a7.13 7.13 0 0 0-.006.44l3.131.648 12.066 12.8.385-1.675-.093 1.987 5.492 5.825 1.826-7.93-.439 9.4 4.4 4.663 1.141-4.952-.275 5.872 5.167 5.482c-.006-.2-.017-.4-.029-.605l-.029-.4c0-.034 0-.068-.007-.1h0c-.585-7.3-4.5-16.9-10.612-24.862q-.75-.978-1.51-1.879l3.367.7-.547-1.63 1.021 1.729 8.869 1.836-2.593-7.717 4.834 8.181 7.1 1.469-1.619-4.82 3.019 5.11zm-33.835-18.846l.548 1.064-.31-.05z" fill="#239323"/><path d="M143.913 84.248c-1.436-2.288-4.058-3.229-5.856-2.1a3.33 3.33 0 0 0-1.437 2.084c-.486-1.636-1.966-2.776-3.672-2.828a3.27 3.27 0 0 0-2.061.886c-.218-.281-.483-.523-.783-.714-1.8-1.131-4.42-.2-5.86 2.092s-1.15 5.056.647 6.188c.256.161.535.283.827.362a4.05 4.05 0 0 0 2.344 4.333 3.79 3.79 0 0 0 3.939-1.207 3.07 3.07 0 0 0 2.691-.1c.857 1.408 2.505 2.128 4.121 1.8 1.705-.635 2.776-2.33 2.618-4.142a3.2 3.2 0 0 0 1.827-.475c1.798-1.121 2.092-3.891.655-6.179z" fill="#5a3a19"/><path d="M107.184 116.308c-2.644-24.828-3.438-45.281-3.446-45.485l-7.856.3c.008.206.811 20.913 3.485 46.021 2.618 24.565 1.89 23.38 3.886 32.4 2.978 1.31 5.691 1.439 8.055 0-1.663-7.35-1.356-7.264-4.124-33.236z" fill="#ad702f"/><path d="M150.052 77.612l-.026-.031h0c-3.83-4.43-12.4-8.8-22.716-11.122-7.263-1.632-14.025-1.939-19.1-1.117l14.033-5.066-1.836-2.906 2.987 2.491 10.094-3.645-4.789-7.58 7.793 6.5 8.553-3.088-3.96-6.267 6.443 5.37 10.781-3.893c-.176-.148-.359-.293-.545-.436l-.086-.067-.018-.013h0c-6.4-4.84-18.14-6.5-30.6-3.629a51.71 51.71 0 0 0-14.494 5.654l1.516-2.653-1.442-.6 1.714.126 5.093-8.916-6.816-2.852 8.1.6 4.077-7.136-4.256-1.781 5.059.374 4.792-8.388c-.161.012-.325.03-.49.051-6.356.773-14.923 7.269-22.045 17.453a59.78 59.78 0 0 0-9.526 20.659c-2.525-4.069-5.587-7.779-9.105-11.028-7.787-7.335-16.584-11.974-22.71-12.472q-.234-.02-.463-.032l5.391 6.05 4.776-.321-3.872 1.335 4.585 5.146 7.649-.513-6.2 2.138 3.37 3.782c-3.866-1.189-7.904-1.717-11.946-1.562-11.826.413-21.908 6.274-26.447 14.384h0l-.007.013-.078.143a20.28 20.28 0 0 0-.369.7l10.576 1.4 4.45-8.787-2.015 9.109 6.555.865c-7.935 3.461-14.157 8.468-17.072 13.567a12.97 12.97 0 0 0-.283.51l8.707-1.456 2.221-5.635-.759 5.391 7.409-1.239 3.555-9.021-1.217 8.63 9.256-1.548.751-1.907-.257 1.824 6.039-1.01a53.32 53.32 0 0 0-5.456 6.13c-6.857 8.944-11.255 19.713-11.912 27.912h0c0 .029 0 .058-.006.088l-.036.5-.032.662 5.8-6.154-.307-6.594 1.28 5.561 4.934-5.235-.492-10.555 2.05 8.9 6.166-6.541-.1-2.231.434 1.882 16.4-17.4.43.06 14.584 15.285 1.105-1.064-.814 1.368 5.455 5.717 5.228-5.036-3.85 6.48 4.366 4.575 3.265-3.145-2.4 4.047 5.131 5.377c.058-.137.112-.277.163-.419a7.67 7.67 0 0 0 .109-.314c.008-.023.016-.045.023-.068h0c1.73-5.305-.28-13.2-5.832-20.607-2.974-4.007-6.693-7.402-10.953-10l7.161 1.008-.295-1.256.759 1.321 8.7 1.225-1.4-5.944 3.594 6.253 6.961.98-.872-3.712 2.244 3.905 8.182 1.152c-.092-.123-.189-.245-.29-.367-.094-.102-.175-.202-.257-.294zM69.693 55.656l-1.852 8.375q-1.478.468-2.9 1.007z" fill="#2fc62f"/><path d="M110.292 72.702c-1.617-2.566-4.561-3.618-6.579-2.348-.337.214-.634.485-.879.8a3.67 3.67 0 0 0-2.315-1c-1.915.059-3.576 1.339-4.122 3.175-.209-.962-.788-1.802-1.612-2.34-2.02-1.268-4.964-.212-6.576 2.357s-1.284 5.679.735 6.947a3.59 3.59 0 0 0 2.048.533c-.01 2.227 1.123 4.144 2.943 4.648 1.815.368 3.666-.442 4.627-2.025.936.499 2.05.54 3.02.109a4.26 4.26 0 0 0 4.423 1.355c1.793-.624 2.8-2.628 2.635-4.865a3.44 3.44 0 0 0 .925-.406c2.018-1.263 2.343-4.374.727-6.94z" fill="#5b3c20"/><g fill="#ab1212"><path d="M182.891 93.449l-.017.027-.433-.817z"/><path d="M182.442 92.66l-.924-.025.017-.027z"/></g><path d="M204.45 134.15l-17.447-20.335-2.442-2.846-6.17-3.83-2.888-1.793-1.355-.842-2.887-1.793-6.17-3.831-3.633-.926-25.963-6.621-10.122-1.982.575 1.413 5.947 14.648 18.5 16.055 9.541 5.924 1.357.842 9.541 5.926 5.744 2.4.22.092h0l.479.2 1.184.494h0l.533.225.972.407.447.187.076.032.758.317.12.05.68.286.674.281.89.374.044.019 2.982 1.247.153.065.1.04.4.17h0l2.529 1.058.132.055.122.05.4.168.561.235 2.388 1 15.765-1.163 1.523-.113z" fill="#b3c5f0"/><path d="M175.506 105.346l-4.051 6.523-10.16 16.364-14.768 23.781-.865 1.39h0l-1.833 2.955-.181.29-1.327 2.138-.1.155-.181.29-.22.355-.368.592h0l-.061.1h0l-.174.284-.823 1.323-.367.594-.554.89-.124.2-.055.088-.321.519-.466.75-.178.288-.254.407-.2.332-.181.288-.042.067-.277.449-.01.017-.5.8-.219.353-5.166 8.318h-1.877l5.229-8.421.359-.58.38-.609.227-.365.229-.37.118-.189.178-.288h0l.279-.449.256-.409.718-1.159.17-.275.181-.288.034-.055.036-.059.7-1.128.164-.265.168-.271.92-1.483.147-.233h0l.4-.645.063-.1.115-.189 1.424-2.293.107-.17h0l.073-.118.79-1.271h0l16.872-27.171 10.162-16.364 4.051-6.523zm11.491-18.508l-4.106 6.611-.017.027-.433-.817-.924-.025.017-.027 4.106-6.611a.8.8 0 0 1 1.357.842z" fill="#586d9c"/><path d="M210.715 142.34l-1.523.113c-4.6-5.487-11.483-11.828-19.965-18.317-4-3.064-8.365-6.162-13.012-9.219q-2.334-1.531-4.763-3.051l-.676-.422-.678-.42q-2.435-1.5-4.849-2.913c-4.8-2.81-9.509-5.347-14.031-7.577-9.578-4.725-18.312-8.083-25.27-9.774l-.575-1.413 10.122 1.982 25.963 6.621 3.633.926 6.17 3.831 2.887 1.793 1.355.842 2.888 1.793 6.17 3.83 2.442 2.846 17.447 20.335z" opacity=".2"/><g fill="#fff5a6"><path d="M182.891 93.45l-.017.027-.433-.817z"/><path d="M182.442 92.66l-.924-.025.017-.027z"/></g><path d="M210.715 142.34l-6.265-8.192-17.447-20.335-2.442-2.846-6.17-3.83-2.888-1.793-1.355-.842-2.888-1.793-6.17-3.831-3.633-.926-25.963-6.621-10.122-1.982 56.162 3.257-.017.027.924.025.433.817.017-.027z" fill="#fff"/><path d="M157.741 150.326h0l-.321-1.9 14.689-10.818-1.757-2.385h-1.026l-35.574 26.2-21.947-7.5h-1.025l-.958 2.8 20.7 7.076-13.668 10.067 1.757 2.385h1.026l15-11.047 1.688.577h0l30.631 10.469h1.026l.958-2.8-7.743-2.646zm-19.877 12.5l17.616-12.974 3.4 20.158z" fill="#efefef"/><path d="M193.17 136.563h-23.839c-.606 0-1.129.423-1.257 1.015h0c-.019.089-.029.18-.029.271a1.3 1.3 0 0 0 .013.175l.006.042a1.28 1.28 0 0 0 .1.323l.017.036c.024.05.052.099.083.145h0 0c-2.265 3.949-11.051 18.588-20.194 24.918a37.16 37.16 0 0 1-2.251-1.225c-2.81-1.666-5.428-3.636-7.807-5.875.167-.397.124-.852-.114-1.211s-.641-.575-1.072-.575h-23.839c-.711 0-1.287.576-1.287 1.287s.576 1.287 1.287 1.287h.356l.006.006q.251.24.563.526l.045.041.283.256.047.042q.166.148.345.305l.054.046.31.268.1.084.38.319.014.012.409.335.128.1.336.268.119.094q.221.174.454.351l.121.091q.184.14.375.282l.156.115q.231.17.471.343l.058.042.514.362.166.114q.214.147.435.3l.141.095q.283.189.576.377l.138.088q.238.152.482.3l.176.109.631.38c4.743 2.952 10.192 4.575 15.777 4.7.2 0 .405 0 .607-.011l.245-.009.3-.017q.355-.021.708-.053h0l.4.03.654.038.223.007.823.016h.256.14.017c.424-.011.941-.039 1.511-.079h0a25.43 25.43 0 0 0 1.026.063h0c.342.014.682.022 1.022.022h.2c.474-.006 1.107-.032 1.823-.074q.487.038.972.056h.006q.487.019.972.019h.183.074.126.1.112l.131-.007h.1l.155-.009.086-.005.179-.012h.068l.21-.015h.042l.247-.02q.238.02.475.036l.617.035.262.009.806.016h.268.192.049.234.025l1.651-.044h.016l.741.036c.267.01.533.015.8.015h.208.072l.16-.006h.1l.159-.009.109-.007.168-.011.116-.008.183-.015.117-.009.214-.019.1-.009h.016c.756.067 1.508.1 2.255.1a23.89 23.89 0 0 0 5.658-.671c11.455-2.786 23.676-23.241 26.453-28.128h.066c.697-.019 1.251-.59 1.251-1.287s-.555-1.267-1.251-1.287z" fill="#c42600"/><path d="M182.605 150.326h0l-.321-1.9 14.688-10.818-1.757-2.385h-1.026l-35.574 26.2-21.947-7.5h-1.026l-.958 2.8 20.7 7.076-13.668 10.067 1.757 2.385h1.026l15-11.047 1.688.577h0l30.631 10.469h1.025l.958-2.8-7.743-2.646zm-19.877 12.5l17.616-12.974 3.4 20.158z" fill="#efefef"/><g fill="#ffd500"><path d="M93.741 192.715a2.7 2.7 0 0 1-1.268-.318l-2.983-1.569a1.73 1.73 0 0 0-.802-.198c-.278 0-.556.068-.802.198l-2.983 1.569a2.7 2.7 0 0 1-1.268.318c-.803 0-1.565-.357-2.09-.98a2.67 2.67 0 0 1-.593-2.208l.57-3.322c.096-.559-.089-1.129-.496-1.525l-2.413-2.352c-.748-.729-1.012-1.798-.689-2.791s1.165-1.703 2.198-1.853l3.335-.485c.562-.082 1.047-.434 1.298-.943l1.492-3.022c.462-.936 1.398-1.518 2.442-1.518s1.98.581 2.442 1.517l1.492 3.023c.251.509.736.861 1.298.943l3.335.485c1.033.15 1.875.86 2.198 1.853s.059 2.063-.689 2.791l-2.413 2.353c-.406.396-.592.966-.496 1.525l.57 3.322a2.67 2.67 0 0 1-.594 2.208c-.525.623-1.287.981-2.09.981z"/><path d="M88.688 172.215c-.793 0-1.586.413-1.993 1.239l-1.492 3.022c-.324.656-.95 1.111-1.674 1.216l-3.335.485c-1.823.265-2.552 2.506-1.232 3.792l2.413 2.353c.524.511.763 1.247.639 1.968l-.57 3.322c-.312 1.817 1.594 3.201 3.226 2.344l2.983-1.569a2.23 2.23 0 0 1 2.069 0l2.983 1.569c1.63.858 3.537-.527 3.226-2.344l-.57-3.322c-.124-.721.115-1.457.639-1.968l2.414-2.353c1.319-1.286.591-3.527-1.232-3.792l-3.335-.485c-.724-.105-1.35-.56-1.674-1.216l-1.491-3.022c-.408-.826-1.201-1.239-1.993-1.239m0-1c1.236 0 2.343.688 2.89 1.796l1.491 3.022c.178.361.523.611.921.669l3.335.485a3.2 3.2 0 0 1 1.786 5.497l-2.414 2.352c-.288.281-.42.686-.352 1.083l.57 3.322c.161.94-.096 1.893-.704 2.615a3.23 3.23 0 0 1-2.472 1.158c-.522 0-1.027-.126-1.5-.375l-2.983-1.569a1.23 1.23 0 0 0-1.138 0l-2.983 1.568c-.474.249-.978.375-1.5.375a3.23 3.23 0 0 1-2.472-1.158c-.609-.722-.865-1.675-.704-2.615l.57-3.322c.068-.396-.064-.802-.352-1.083l-2.413-2.352a3.2 3.2 0 0 1 1.786-5.497l3.335-.485c.399-.058.743-.308.921-.669l1.492-3.023c.547-1.108 1.654-1.796 2.89-1.796z" fill="#fff"/></g><path d="M90.437 174.964l1.309 2.5c.3.55.847.923 1.469 1l2.927.4a1.81 1.81 0 0 1 1.081 3.131l-2.451 1.943a1.77 1.77 0 0 0-.561 1.625l.833 2.743a1.93 1.93 0 0 1-2.83 1.936l-2.617-1.3a2.06 2.06 0 0 0-1.815 0l-2.618 1.3a1.93 1.93 0 0 1-2.83-1.936l.5-2.743a1.77 1.77 0 0 0-.561-1.625l-2.117-1.943a1.81 1.81 0 0 1 1.081-3.131l3.26-.4c.622-.077 1.169-.449 1.469-1l.975-2.5c.356-.631 1.024-1.021 1.748-1.021s1.392.39 1.748 1.021z" fill="#ffb300"/><path d="M88.688 173.608a2.39 2.39 0 0 1 1.164.3c.375.208.681.521.881.9l1.309 2.5a1.61 1.61 0 0 0 1.218.829l2.926.4a2.23 2.23 0 0 1 1.865 1.531c.116.368.127.76.033 1.134a2.14 2.14 0 0 1-.636 1.044l-.009.008-.01.008-2.441 1.935a1.44 1.44 0 0 0-.453 1.294l.833 2.742v.019c.115.609-.051 1.238-.453 1.711-.217.258-.488.466-.794.609a2.36 2.36 0 0 1-2.06-.026l-2.617-1.3c-.479-.235-1.041-.235-1.52 0l-2.617 1.3a2.36 2.36 0 0 1-2.06.026 2.32 2.32 0 0 1-.794-.609c-.401-.473-.568-1.102-.453-1.711l.5-2.743a1.44 1.44 0 0 0-.458-1.319l-2.118-1.943a2.14 2.14 0 0 1-.636-1.044c-.095-.374-.083-.766.033-1.134a2.23 2.23 0 0 1 1.864-1.531h0l3.258-.4c.509-.063.958-.365 1.208-.813l.975-2.495.009-.016a2.2 2.2 0 0 1 .881-.9 2.39 2.39 0 0 1 1.172-.306zm8.317 8.135a1.41 1.41 0 0 0 .409-1.479 1.57 1.57 0 0 0-1.318-1.069l-2.927-.4a2.28 2.28 0 0 1-1.719-1.18l-1.309-2.5c-.296-.52-.847-.842-1.445-.845s-1.153.313-1.455.829l-.975 2.495-.009.016a2.28 2.28 0 0 1-1.719 1.18h0l-3.258.4a1.57 1.57 0 0 0-1.316 1.068 1.41 1.41 0 0 0 .417 1.486l2.118 1.943a2.1 2.1 0 0 1 .664 1.93l-.5 2.743a1.4 1.4 0 0 0 .308 1.164 1.69 1.69 0 0 0 2.046.413l2.617-1.3a2.39 2.39 0 0 1 2.112 0l2.617 1.3a1.69 1.69 0 0 0 2.046-.413 1.4 1.4 0 0 0 .312-1.146l-.833-2.742v-.019a2.1 2.1 0 0 1 .664-1.93l.009-.008.009-.008z" fill="#fff"/><path d="M92.194 179.504c-2.286-.326-1.633-4.734-3.265-4.408-.437.087-.84.176-.916.762s.681 3.693 2.5 3.952c2.1.3 3.448.15 3.6 1.05a.67.67 0 0 1-.45.6s-2.72 1.491-2.887 3.826a4.43 4.43 0 0 0 .7 3.245c.826.515 1.474.914 1.851.443.653-.816-.326-2.285-.816-4.081s3.116-3.592 3.116-3.592a.73.73 0 0 0 .49-.653c-.168-.981-1.637-.817-3.923-1.144z" fill="#ffe97a"/><path d="M90.272 175.247c-.342-.605-.985-.977-1.68-.972s-1.332.386-1.665.996l-.936 2.43a1.87 1.87 0 0 1-1.41.978l-3.131.39c-.691.067-1.279.532-1.503 1.189s-.042 1.385.465 1.86l2.033 1.891c.438.401.642.997.539 1.582l-.48 2.671c-.119.649.144 1.31.676 1.7-.283-1.054-.205-2.172.221-3.176.961-2.436.961-4.061-.8-4.873s-1.762-2.274 1.122-2.436 3.524-.65 3.844-3.411c.216-1.875 1.683-1.658 2.705-.819z" fill="#ffe41f"/><g fill="#ffd500"><use xlink:href="#C"/><use xlink:href="#D" fill="#fff"/></g><use xlink:href="#E" fill="#fff"/><use xlink:href="#F" fill="#dedede"/><g fill="#ffd500"><use xlink:href="#C" x="-22.503"/><use xlink:href="#D" x="-22.503" fill="#fff"/></g><use xlink:href="#E" x="-22.503" fill="#fff"/><use xlink:href="#F" x="-22.503" fill="#dedede"/><g fill="#ffd500"><use xlink:href="#C" x="22.502"/><use xlink:href="#D" x="22.502" fill="#fff"/></g><use xlink:href="#E" x="22.502" fill="#fff"/><use xlink:href="#F" x="22.502" fill="#dedede"/><g fill="#ffd500"><use xlink:href="#C" x="45.004"/><use xlink:href="#D" x="45.004" fill="#fff"/></g><use xlink:href="#E" x="45.004" fill="#fff"/><use xlink:href="#F" x="45.004" fill="#dedede"/></svg>
