<svg xmlns="http://www.w3.org/2000/svg" xmlns:xlink="http://www.w3.org/1999/xlink" width="267.801" height="217.327" ><defs><linearGradient id="A" x1=".5" x2=".5" y2="1"><stop offset="0" stop-color="#dee8ff"/><stop offset="1" stop-color="#fff"/></linearGradient><path id="B" d="M830.042 545.396c-5.78-.02-8.53 2.73-8.53 8.53.01 5.33 3.45 8.91 8.55 8.88 4.826-.096 8.725-3.965 8.86-8.79.04-4.94-3.74-8.61-8.88-8.62zm-.2 13.72c-2.63-.9-5.11-2-4.89-5.25.22-3.19 2.25-5.14 5.43-5.01 3.12.12 4.69 2.56 4.64 5.33-.06 2.95-2.26 4.49-5.18 4.93z"/><path id="C" d="M93.741 192.715a2.7 2.7 0 0 1-1.268-.318l-2.983-1.569a1.73 1.73 0 0 0-.802-.198c-.278 0-.556.068-.802.198l-2.983 1.569a2.7 2.7 0 0 1-1.268.318c-.803 0-1.565-.357-2.09-.98a2.67 2.67 0 0 1-.593-2.208l.57-3.322c.096-.559-.089-1.129-.496-1.525l-2.413-2.352c-.748-.729-1.012-1.798-.689-2.791s1.165-1.703 2.198-1.853l3.335-.485c.562-.082 1.047-.434 1.298-.943l1.492-3.022c.462-.936 1.398-1.518 2.442-1.518s1.98.581 2.442 1.517l1.492 3.023c.251.509.736.861 1.298.943l3.335.485c1.033.15 1.875.86 2.198 1.853s.059 2.063-.689 2.791l-2.413 2.353c-.406.396-.592.966-.496 1.525l.57 3.322a2.67 2.67 0 0 1-.594 2.208c-.525.623-1.287.981-2.09.981z"/><path id="D" d="M88.688 172.215c-.793 0-1.586.413-1.993 1.239l-1.492 3.022c-.324.656-.95 1.111-1.674 1.216l-3.335.485c-1.823.265-2.552 2.506-1.232 3.792l2.413 2.353c.524.511.763 1.247.639 1.968l-.57 3.322c-.312 1.817 1.594 3.201 3.226 2.344l2.983-1.569a2.23 2.23 0 0 1 2.069 0l2.983 1.569c1.63.858 3.537-.527 3.226-2.344l-.57-3.322c-.124-.721.115-1.457.639-1.968l2.414-2.353c1.319-1.286.591-3.527-1.232-3.792l-3.335-.485c-.724-.105-1.35-.56-1.674-1.216l-1.491-3.022c-.408-.826-1.201-1.239-1.993-1.239m0-1c1.236 0 2.343.688 2.89 1.796l1.491 3.022c.178.361.523.611.921.669l3.335.485a3.2 3.2 0 0 1 1.786 5.497l-2.414 2.352c-.288.281-.42.686-.352 1.083l.57 3.322c.161.94-.096 1.893-.704 2.615a3.23 3.23 0 0 1-2.472 1.158c-.522 0-1.027-.126-1.5-.375l-2.983-1.569a1.23 1.23 0 0 0-1.138 0l-2.983 1.568c-.474.249-.978.375-1.5.375a3.23 3.23 0 0 1-2.472-1.158c-.609-.722-.865-1.675-.704-2.615l.57-3.322c.068-.396-.064-.802-.352-1.083l-2.413-2.352a3.2 3.2 0 0 1 1.786-5.497l3.335-.485c.399-.058.743-.308.921-.669l1.492-3.023c.547-1.108 1.654-1.796 2.89-1.796z"/><path id="E" d="M90.437 174.964l1.309 2.5c.3.55.847.923 1.469 1l2.927.4a1.81 1.81 0 0 1 1.081 3.131l-2.451 1.943a1.77 1.77 0 0 0-.561 1.625l.833 2.743a1.93 1.93 0 0 1-2.83 1.936l-2.617-1.3a2.06 2.06 0 0 0-1.815 0l-2.618 1.3a1.93 1.93 0 0 1-2.83-1.936l.5-2.743a1.77 1.77 0 0 0-.561-1.625l-2.117-1.943a1.81 1.81 0 0 1 1.081-3.131l3.26-.4c.622-.077 1.169-.449 1.469-1l.975-2.5c.356-.631 1.024-1.021 1.748-1.021s1.392.39 1.748 1.021z"/><path id="F" d="M88.688 173.608a2.39 2.39 0 0 1 1.164.3c.375.208.681.521.881.9l1.309 2.5a1.61 1.61 0 0 0 1.218.829l2.926.4a2.23 2.23 0 0 1 1.865 1.531c.116.368.127.76.033 1.134a2.14 2.14 0 0 1-.636 1.044l-.009.008-.01.008-2.441 1.935a1.44 1.44 0 0 0-.453 1.294l.833 2.742v.019c.115.609-.051 1.238-.453 1.711-.217.258-.488.466-.794.609a2.36 2.36 0 0 1-2.06-.026l-2.617-1.3c-.479-.235-1.041-.235-1.52 0l-2.617 1.3a2.36 2.36 0 0 1-2.06.026 2.32 2.32 0 0 1-.794-.609c-.401-.473-.568-1.102-.453-1.711l.5-2.743a1.44 1.44 0 0 0-.458-1.319l-2.118-1.943a2.14 2.14 0 0 1-.636-1.044c-.095-.374-.083-.766.033-1.134a2.23 2.23 0 0 1 1.864-1.531h0l3.258-.4c.509-.063.958-.365 1.208-.813l.975-2.495.009-.016a2.2 2.2 0 0 1 .881-.9 2.39 2.39 0 0 1 1.172-.306zm8.317 8.135a1.41 1.41 0 0 0 .409-1.479 1.57 1.57 0 0 0-1.318-1.069l-2.927-.4a2.28 2.28 0 0 1-1.719-1.18l-1.309-2.5c-.296-.52-.847-.842-1.445-.845s-1.153.313-1.455.829l-.975 2.495-.009.016a2.28 2.28 0 0 1-1.719 1.18h0l-3.258.4a1.57 1.57 0 0 0-1.316 1.068 1.41 1.41 0 0 0 .417 1.486l2.118 1.943a2.1 2.1 0 0 1 .664 1.93l-.5 2.743a1.4 1.4 0 0 0 .308 1.164 1.69 1.69 0 0 0 2.046.413l2.617-1.3a2.39 2.39 0 0 1 2.112 0l2.617 1.3a1.69 1.69 0 0 0 2.046-.413 1.4 1.4 0 0 0 .312-1.146l-.833-2.742v-.019a2.1 2.1 0 0 1 .664-1.93l.009-.008.009-.008z"/><path id="G" d="M92.194 179.504c-2.286-.326-1.633-4.734-3.265-4.408-.437.087-.84.176-.916.762s.681 3.693 2.5 3.952c2.1.3 3.448.15 3.6 1.05a.67.67 0 0 1-.45.6s-2.72 1.491-2.887 3.826a4.43 4.43 0 0 0 .7 3.245c.826.515 1.474.914 1.851.443.653-.816-.326-2.285-.816-4.081s3.116-3.592 3.116-3.592a.73.73 0 0 0 .49-.653c-.168-.981-1.637-.817-3.923-1.144z"/><path id="H" d="M90.272 175.247c-.342-.605-.985-.977-1.68-.972s-1.332.386-1.665.996l-.936 2.43a1.87 1.87 0 0 1-1.41.978l-3.131.39c-.691.067-1.279.532-1.503 1.189s-.042 1.385.465 1.86l2.033 1.891c.438.401.642.997.539 1.582l-.48 2.671c-.119.649.144 1.31.676 1.7-.283-1.054-.205-2.172.221-3.176.961-2.436.961-4.061-.8-4.873s-1.762-2.274 1.122-2.436 3.524-.65 3.844-3.411c.216-1.875 1.683-1.658 2.705-.819z"/><path id="I" d="M161.027 192.714a2.64 2.64 0 0 1-1.255-.319l-2.94-1.569c-.241-.128-.512-.196-.784-.196s-.543.068-.785.196l-2.94 1.569c-.397.212-.819.319-1.255.319a2.69 2.69 0 0 1-2.653-3.187l.562-3.322c.095-.561-.088-1.132-.489-1.529l-2.378-2.353c-.742-.734-1-1.809-.674-2.805.322-.983 1.152-1.687 2.166-1.837l3.288-.484c.55-.082 1.026-.433 1.273-.941l1.47-3.022a2.67 2.67 0 0 1 4.829 0l1.47 3.022c.247.507.723.859 1.274.94l3.287.484c1.014.15 1.844.854 2.167 1.837.327.996.068 2.071-.674 2.805l-2.379 2.353c-.401.396-.583.968-.489 1.529l.562 3.322a2.69 2.69 0 0 1-2.652 3.187z"/><path id="J" d="M156.046 172.214a2.16 2.16 0 0 0-1.965 1.24l-1.47 3.022c-.319.656-.936 1.11-1.65 1.216l-3.288.484c-1.797.265-2.515 2.505-1.214 3.792l2.378 2.353c.516.51.752 1.246.63 1.967l-.562 3.322c-.307 1.816 1.573 3.2 3.179 2.344l2.94-1.569c.639-.34 1.401-.34 2.04 0l2.94 1.569c1.606.858 3.486-.527 3.179-2.344l-.562-3.322c-.122-.721.114-1.457.63-1.967l2.379-2.353c1.301-1.287.583-3.527-1.214-3.792l-3.287-.484c-.714-.106-1.331-.561-1.65-1.216l-1.47-3.022a2.16 2.16 0 0 0-1.965-1.24m0-1c1.226 0 2.323.691 2.864 1.802l1.47 3.022c.175.359.51.607.897.665l3.286.484c1.203.177 2.187 1.011 2.569 2.176.386 1.178.081 2.448-.797 3.316l-2.379 2.353c-.285.282-.415.689-.347 1.09l.562 3.321c.16.947-.099 1.905-.711 2.628s-1.501 1.143-2.435 1.143a3.14 3.14 0 0 1-1.491-.378l-2.94-1.569c-.169-.09-.359-.137-.549-.137s-.38.048-.549.137l-2.94 1.569c-.47.251-.972.378-1.49.378a3.19 3.19 0 0 1-2.435-1.143c-.611-.723-.87-1.681-.71-2.627l.562-3.322a1.24 1.24 0 0 0-.347-1.089l-2.378-2.353c-.878-.868-1.183-2.139-.797-3.316a3.18 3.18 0 0 1 2.568-2.176l3.288-.484c.386-.057.722-.306.897-.665l1.47-3.022c.54-1.111 1.638-1.802 2.864-1.802z"/><path id="K" d="M157.77 174.964l1.29 2.5a1.92 1.92 0 0 0 1.448 1l2.884.4c.71.068 1.314.546 1.544 1.222s.043 1.423-.478 1.91l-2.416 1.943c-.45.412-.658 1.024-.553 1.625l.822 2.743c.096.71-.213 1.414-.802 1.823s-1.357.452-1.988.113l-2.58-1.3a2 2 0 0 0-1.789 0l-2.58 1.3c-.631.339-1.399.295-1.988-.113s-.898-1.113-.802-1.823l.492-2.743c.105-.6-.103-1.213-.552-1.625l-2.088-1.943c-.521-.487-.708-1.235-.478-1.91s.834-1.153 1.544-1.222l3.214-.4a1.92 1.92 0 0 0 1.448-1l.961-2.5c.344-.63 1.005-1.022 1.724-1.022s1.379.392 1.724 1.022z"/><path id="L" d="M157.75 174.936c-.351-.621-1.011-1.003-1.724-.998s-1.367.396-1.709 1.022l-.961 2.5a1.92 1.92 0 0 1-1.448 1l-3.214.4c-.71.069-1.313.547-1.543 1.222s-.043 1.422.477 1.909l2.088 1.943c.449.412.658 1.025.552 1.625l-.492 2.743a1.77 1.77 0 0 0 .693 1.743 5.02 5.02 0 0 1 .227-3.263c.987-2.5.987-4.171-.822-5s-1.809-2.335 1.151-2.5 3.618-.667 3.947-3.5c.227-1.928 1.733-1.705 2.778-.846z"/><path id="M" d="M3.154 10.924a.3.3 0 0 0-.3.3v4.4a.3.3 0 0 0 .461.305.3.3 0 0 0 .129-.305v-4.4a.3.3 0 0 0-.29-.3z"/><path id="N" d="M4.275 10.924a.3.3 0 0 0-.295.3v4.4c0 .105.056.203.147.255s.204.053.295 0 .148-.15.147-.255v-4.4a.3.3 0 0 0-.295-.3z"/><path id="O" d="M6.518 10.924a.3.3 0 0 0-.3.3v4.4c0 .105.056.203.147.255s.204.053.295 0 .148-.15.147-.255v-4.4a.3.3 0 0 0-.29-.3z"/><path id="P" d="M145.24 76.624c0 1.52-1.57 2.75-3.5 2.75a4.09 4.09 0 0 1-2.43-.77l2.6-.45a1.5 1.5 0 1 0-.51-2.96l-2.95.51a3.52 3.52 0 0 1 3.29-1.83c1.93 0 3.5 1.23 3.5 2.75z"/><path id="Q" d="M1.512 1.94a.41.41 0 0 0-.407.407v5.872c0 .145.077.279.203.352s.281.073.407 0 .203-.207.203-.352V2.347a.41.41 0 0 0-.406-.407z"/><path id="R" d="M3.137 1.94a.41.41 0 0 0-.406.407v5.872c0 .145.077.279.203.352s.281.073.407 0 .203-.207.203-.352V2.347a.41.41 0 0 0-.407-.407z"/><path id="S" d="M4.763 1.94a.41.41 0 0 0-.407.407v5.872c-.007.15.068.292.197.369s.29.077.419 0 .205-.219.197-.369V2.347a.41.41 0 0 0-.406-.407z"/><path id="T" d="M9.64 1.94c-.224.001-.406.183-.406.407v5.872c0 .145.077.279.203.352s.281.073.407 0 .203-.207.203-.352V2.347a.41.41 0 0 0-.407-.407z"/></defs><g transform="translate(-634.634 -345.479)"><path d="M763.476 382.343c39.406 0 87.754 48.348 87.754 87.754s-48.348 79.553-87.754 79.553-79.553-40.147-79.553-79.553 40.146-87.754 79.553-87.754zm42.823.298c3.529 11.292 32.816 16.937 44.813 46.577s14.467-6.7-6-26.817-42.345-31.051-38.813-19.76zm-10.17-9.746c-4.747 2.388-6.1 7.241.743 10.266s4.004-12.654-.743-10.266z" fill="#8baeff"/><g fill="url(#A)"><path d="M21.363,24.492a8,8,0,0,1,15.275,0L54.763,82.618A8,8,0,0,1,47.125,93H10.875A8,8,0,0,1,3.237,82.618Z" transform="matrix(.731354 .681998 -.681998 .731354 735.893 454.081)" opacity=".5"/><path d="M21.248,30.392c2.048-8.03,13.455-8.03,15.5,0l18.7,73.328A8,8,0,0,1,47.7,113.7H10.3a8,8,0,0,1-7.752-9.977Z" transform="matrix(.390731 -.920505 .920505 .390731 748.05 493.335)" opacity=".5"/><path d="M15.546,25.782a4,4,0,0,1,7.908,0l14.84,96.766a4,4,0,0,1-3.954,4.606H4.66a4,4,0,0,1-3.954-4.606Z" transform="matrix(.225 .974 -.974 .225 758.53 451.21)" opacity=".5"/><path d="M15.563 22.01a4 4 0 0 1 7.875 0l14.72 82.29a4 4 0 0 1-3.937 4.7H4.779a4 4 0 0 1-3.937-4.7z" transform="matrix(-.190809 -.981627 .981627 -.190809 795.438 470.669)" opacity=".5"/></g><path d="M800.608 449.422a1 1 0 0 1-1-1.732l91.505-59.046a1 1 0 0 1 1.408.342l5.383 9.324a1 1 0 0 1-.408 1.391zm-55.067 13.798a1 1 0 1 1 0 2l-88.936 5.365a1 1 0 0 1-1.06-1v-10.738a1 1 0 0 1 1.06-1z" opacity=".5" fill="#fff"/><use xlink:href="#B" fill="#ffba00"/><path d="M655.104 480.046c.12-10.77-.17-11.72-9.03-5.61-.14.09-.31.14-.45.22-8.91 5.25-8.94 5.3-.06 10.46 2.77 1.6 6.03 4.87 8.67 3.34 2.61-1.51.44-5.89.87-8.41zm-3.62 2.92c-2.144 1.482-3.642-.808-5.743-1.937-.379-.194-.644-.557-.714-.978s.063-.849.359-1.156c1.85-1.887 3.628-3.121 5.558-2.239 1.85.83 1.76 5.47.54 6.31z" fill="#b3c5f0"/><path d="M654.848 385.581c10.749.683 11.713.444 6.075-8.724-.083-.145-.124-.317-.196-.461-4.776-9.173-4.825-9.205-10.443-.607-1.743 2.682-5.179 5.767-3.789 8.483 1.371 2.685 5.859.748 8.353 1.309zm-2.727-3.768c-1.368-2.219.998-3.595 2.235-5.634.214-.369.59-.614 1.014-.662s.845.108 1.136.419c1.788 1.946 2.927 3.786 1.945 5.668-.926 1.804-5.555 1.471-6.33.209z" fill="#ffba00"/><g fill="#b3c5f0"><path d="M883.422 361.954l-2.664-.407c-1.881-.118-2.198-1.029-2.002-2.811.947-8.792.893-8.794-7.67-10.157l-2.666-.43c-4.592-.719-5.988.295-6.77 4.939a22.39 22.39 0 0 0-.407 2.664c-.08 1.989-.927 2.789-2.944 2.246a25.62 25.62 0 0 0-3.039-.505c-4.428-.67-5.457.058-6.297 4.47-.212 1.139-.362 2.287-.543 3.431-1.351 8.533-1.359 8.579 7.064 10.476 1.645.37 2.362.779 2.18 2.722-.821 8.836-.751 8.839 8.006 10.178l2.281.353c4.795.72 5.984-.123 6.808-4.832.9-5.141.9-5.141 6.113-4.347 4.564.7 5.752-.144 6.525-4.626l.543-3.431.483-3.05c.789-5.201.172-6.049-5.003-6.883zm1.216 7.077a11.42 11.42 0 0 0-.256 1.523c-.88 5.559-.88 5.559-6.584 4.655-5.391-.854-5.439-.815-6.34 4.742a6.44 6.44 0 0 0-.173 1.145c.026 3.639-1.416 5.142-5.153 3.812-1.486-.404-3.002-.683-4.534-.836.233-1.871.56-3.733.685-5.606.122-1.756 1.464-3.717-.688-5.182-2.436-1.691-5.383-1.399-8.1-1.963-1.605-.332-2.295-.91-1.771-2.539.032-.125.052-.253.06-.381.884-7.106.915-7.257 7.904-5.979 3.246.6 4.334-.517 4.814-3.545 1.211-7.594 1.944-7.931 9.451-5.679 1.16.348 1.884.736 1.555 2.076a11.45 11.45 0 0 0-.172 1.137c-1.053 8.08-1.063 8.141 7.143 9.683 1.88.355 2.84.906 2.159 2.94z"/><use xlink:href="#B" x="-110" y="-190"/></g></g><g fill="#ffd500"><use xlink:href="#C"/><use xlink:href="#D" fill="#fff"/></g><use xlink:href="#E" fill="#ffb300"/><use xlink:href="#F" fill="#fff"/><use xlink:href="#G" fill="#ffe97a"/><use xlink:href="#H" fill="#ffe41f"/><g fill="#ffd500"><use xlink:href="#C" x="45.005"/><use xlink:href="#D" x="45.005" fill="#fff"/></g><use xlink:href="#E" x="45.005" fill="#ffb300"/><use xlink:href="#F" x="45.005" fill="#fff"/><use xlink:href="#G" x="45.005" fill="#ffe97a"/><use xlink:href="#H" x="45.005" fill="#ffe41f"/><g fill="#ffd500"><use xlink:href="#C" x="22.502"/><use xlink:href="#D" x="22.502" fill="#fff"/></g><use xlink:href="#E" x="22.502" fill="#ffb300"/><use xlink:href="#F" x="22.502" fill="#fff"/><use xlink:href="#G" x="22.502" fill="#ffe97a"/><use xlink:href="#H" x="22.502" fill="#ffe41f"/><g fill="#ffd500"><use xlink:href="#I"/><use xlink:href="#J" fill="#fff"/></g><use xlink:href="#K" fill="#fff"/><use xlink:href="#L" fill="#dedede"/><g fill="#ffd500"><use xlink:href="#I" x="22.502"/><use xlink:href="#J" x="22.502" fill="#fff"/></g><use xlink:href="#K" x="22.502" fill="#fff"/><use xlink:href="#L" x="22.502" fill="#dedede"/><g transform="matrix(.891 -.454 .454 .891 44.691 104.953)"><path d="M15.059 21.804a.7.7 0 0 1-.706-.626v-1.1h.286c.345 0 .627-.007.627-.351s-.282-1.016-.627-1.016H3.11c-.344 0-.627.67-.627 1.016s.282.351.627.351h.307v1.18c-.038.314-.307.548-.623.543C1.281 21.8.043 23.003 0 24.515v29.157a2.63 2.63 0 0 0 2.692 2.629h12.281c.733.018 1.442-.26 1.969-.77s.826-1.21.831-1.943V24.436a2.7 2.7 0 0 0-2.714-2.632z" fill="#f3f9ff"/><path d="M14.638 18.57H3.11c-.344 0-.627.651-.627 1s.282.331.627.331h.122v1.364a.5.5 0 0 1-.109.3H14.67c-.094-.104-.148-.239-.152-.379v-1.281h.122c.345 0 .627.013.627-.331s-.283-1.004-.629-1.004z" fill="#a6c8ef" opacity=".22"/><g fill="#f3f9ff"><path d="M14.662 9.502l-.975-.508a1.12 1.12 0 0 1-.56-.686l-2.142-7.5a1.12 1.12 0 0 0-1.077-.813H7.59a1.12 1.12 0 0 0-1.078.814l-2.15 7.56a1.12 1.12 0 0 1-.522.667l-.793.452c-.349.2-.564.571-.564.973v6.743h12.782V10.49a1.12 1.12 0 0 0-.603-.988z"/><path d="M15.537 16.664H2.212a.69.69 0 0 0-.689.689v1.128a.69.69 0 0 0 .689.69h13.325a.69.69 0 0 0 .69-.69v-1.128a.69.69 0 0 0-.69-.689z"/></g><path d="M12.226 28.284H0v19.82h12.226c.741 0 .759-.4.759-1.143V29.794c.001-.741-.018-1.51-.759-1.51z" fill="#0f426d"/><path d="M4.781 22.668H3.514c-1.377 0-2.493 1.116-2.493 2.493v2.033a.5.5 0 1 0 1 0v-2.033a1.49 1.49 0 0 1 1.49-1.49h1.267a.5.5 0 1 0 0-1z" fill="#fff"/><g fill="#f3f9ff"><circle cx="8.875" cy="33.146" r="2.397"/><path d="M3.329 32.384H0v2.734h3.329c.913 0 1.66-.454 1.66-1.367s-.747-1.367-1.66-1.367zm.871 5.468H0v9.568h4.2c.6 0 .588-1.042.588-1.64v-7.228c-.004-.595.005-.7-.588-.7z"/></g><g fill="#dce7ef"><use xlink:href="#M"/><use xlink:href="#N"/><use xlink:href="#N" x="1.121"/><use xlink:href="#O"/><use xlink:href="#M" x="4.484"/><use xlink:href="#N" x="4.485"/><use xlink:href="#N" x="5.606"/><use xlink:href="#O" x="4.483"/></g></g><path d="M101.18 83.584a9.33 9.33 0 0 0-2.8 4.41l-13.93 48.21c-4.238-5.46-7.552-11.578-9.81-18.11l12.6-43.81zm87.86 23.58l-17.72 46.28s-27.73 12.62-57.77 3.38a56.92 56.92 0 0 1-25.27-16.06l.22-.84c.147-.489.094-1.017-.148-1.467a1.93 1.93 0 0 0-1.142-.933h-.02l14.07-48.7c.42-1.421 1.313-2.655 2.53-3.5l28.62 19.08z" fill="#0f426d"/><g fill="#ffba00"><path d="M88.5 139.924l-.22.84-.33 1.28s-.02.01-.07.03c-.082.019-.166.032-.25.04-.364.023-.729.009-1.09-.04l-.88-.13-.55-.12-.72-.17c-2.9-.74-3.31-1.36-3.31-1.36l.55-2.13a1.92 1.92 0 0 1 2.29-1.49l.37.09.6.16.15.04 1.19.3.96.26h.02c.489.147.9.483 1.142.933s.295.978.148 1.467z"/><path d="M87.95 142.044v.01a3.05 3.05 0 0 1-1.41.02c.465.107.95.097 1.41-.03z"/></g><path d="M87.15 158.574a20.17 20.17 0 0 1-13.3-3.41c1.554-5.329 3.998-10.357 7.23-14.87 0 0 .41.62 3.31 1.36.26.07.5.12.72.17.2.05.38.08.55.12.34.06.63.1.88.13.465.107.95.097 1.41-.03v.01a42.3 42.3 0 0 1-.8 16.52z" fill="#ffa114"/><g fill="#1478cb"><path d="M227.15 109.024l-38.11-1.86-56.63-2.76-28.62-19.08c.761-.525 1.628-.877 2.54-1.03l16.67-2.88 16.31-2.81a4.09 4.09 0 0 0 2.43.77c1.93 0 3.5-1.23 3.5-2.75s-1.57-2.75-3.5-2.75a3.52 3.52 0 0 0-3.29 1.83l-22.39 3.86-10.24 1.77a9.32 9.32 0 0 0-4.64 2.25l-13.94-9.3-31.09-20.72 90.13 4.62z"/><use xlink:href="#P"/></g><use xlink:href="#P" fill="#0f426d"/><path d="M141.91 78.154l-2.6.45-16.31 2.81-16.67 2.88c-.912.153-1.779.505-2.54 1.03-1.217.845-2.11 2.079-2.53 3.5l-14.07 48.7-.96-.26-1.19-.3-.15-.04-.6-.16.16-.56 13.93-48.21a9.5 9.5 0 0 1 7.44-6.66l10.24-1.77 22.39-3.86 2.95-.51a1.5 1.5 0 1 1 .51 2.96z" fill="#ffba00"/><g transform="matrix(.682201 .730925 -.730925 .682201 -566.970826 -860.542288)"><path d="M1234.643 152.509c.004 1.399 1.137 2.531 2.536 2.535h16.339c1.399-.004 2.532-1.136 2.536-2.535V123.35h-21.41z" fill="#5fbe5f"/><path fill="#bcf5bc" d="M1234.644 123.351h21.41v2.709h-21.41z"/><rect width="23.538" height="5.933" rx="1.882" fill="#8ed28e" x="1233.569" y="118.191"/><path d="M1239.63 137.504v4.428a1.38 1.38 0 0 0 1.376 1.376h15.068v-7.18h-15.066a1.38 1.38 0 0 0-1.378 1.376z" fill="#ffba00"/></g><g transform="matrix(.87462 -.48481 .48481 .87462 157.332 76.428)"><rect width="22.914" height="8.274" rx="2.479" fill="#e7eff7" x="1.513"/><rect width="18.89" height="6.674" rx="3.337" fill="#869dbf" x="3.525" y="39.264"/><path d="M23.068 8.349h-20.2A1.06 1.06 0 0 0 1.809 9.43l.66 33.594a1.06 1.06 0 0 0 1.059 1.038h18.877a1.06 1.06 0 0 0 1.059-1.038l.659-33.594a1.06 1.06 0 0 0-1.055-1.081z" fill="#b3c5f0"/><path d="M23.068 8.349h-20.2A1.06 1.06 0 0 0 1.809 9.43l.048 2.432h22.219l.047-2.432a1.06 1.06 0 0 0-1.055-1.081z" opacity=".09"/><path d="M23.976 14.988H1.965a.27.27 0 0 0-.271.277l.435 22.172c.003.148.123.266.271.267h21.141a.27.27 0 0 0 .271-.267l.435-22.172c.001-.073-.027-.143-.078-.195s-.121-.082-.193-.082z" fill="#5fbe5f"/><rect width="25.94" height="9.367" rx="2.479" fill="#f3f9ff" y=".624"/><g fill="#fff"><path d="M5.015 13.043h-.021c-.559.018-.998.486-.981 1.046l.392 12.344a1.01 1.01 0 0 0 1.1.978h.021c.535-.048.94-.505.924-1.042l-.392-12.343c-.017-.559-.484-.999-1.043-.983zm.438 16.017h-.021c-.53.054-.928.509-.91 1.042l.155 4.87c.009.275.13.534.334.719s.474.278.749.26h.021c.545-.037.962-.499.944-1.045l-.155-4.87c-.01-.281-.135-.545-.347-.73s-.49-.274-.77-.246zm.314 8.537h-.02c-.548.033-.971.495-.954 1.044l.04 1.272a1.01 1.01 0 0 0 .32.707 1.02 1.02 0 0 0 .726.274h.02c.56-.018.999-.486.982-1.046l-.041-1.273a1.01 1.01 0 0 0-1.073-.978z" opacity=".62"/><path d="M11.419 20.299v1a2.6 2.6 0 0 0 2.722 2.643h9.933l.13-6.835H14.141c-1.546-.008-2.722 1.643-2.722 3.192z"/></g><g fill="#e7eff7"><use xlink:href="#Q"/><use xlink:href="#R"/><use xlink:href="#S"/><use xlink:href="#S" x="1.626"/><path d="M8.015 1.94a.41.41 0 0 0-.407.407v5.872c0 .145.077.279.203.352s.281.073.407 0 .203-.207.203-.352V2.347c0-.224-.182-.406-.406-.407z"/><use xlink:href="#T"/><use xlink:href="#T" x="1.626"/><use xlink:href="#S" x="8.13"/><use xlink:href="#Q" x="13.007"/><use xlink:href="#Q" x="14.633"/><use xlink:href="#T" x="8.127"/><path d="M19.396 1.94a.41.41 0 0 0-.407.407v5.872c.011.217.19.387.407.387s.396-.17.407-.387V2.347a.41.41 0 0 0-.406-.407z"/><use xlink:href="#Q" x="19.51"/><use xlink:href="#R" x="19.51"/><use xlink:href="#R" x="21.136"/></g></g><path d="M60.602 78.193a8.5 8.5 0 0 0 14.291 8.922zm.886-1.503l14.367 8.968a8.5 8.5 0 0 0-14.367-8.968z" fill="#fff"/><path d="M-588.591 4663.551c-.915 1.995-.206 4.358 1.655 5.521s4.296.759 5.686-.938zm.455-.772l7.379 4.606c1.057-2.021.379-4.515-1.555-5.723s-4.473-.72-5.824 1.117z" transform="matrix(.5 -.866025 .866025 .5 -3665.231 -2729.319)" fill="#fff"/></svg>
