<svg xmlns="http://www.w3.org/2000/svg" xmlns:xlink="http://www.w3.org/1999/xlink" width="267.801" height="217.327" ><defs><linearGradient id="A" x1=".5" x2=".5" y2="1"><stop offset="0" stop-color="#dee8ff"/><stop offset="1" stop-color="#fff"/></linearGradient><path id="B" d="M830.042 545.396c-5.78-.02-8.53 2.73-8.53 8.53.01 5.33 3.45 8.91 8.55 8.88 4.826-.096 8.725-3.965 8.86-8.79.04-4.94-3.74-8.61-8.88-8.62zm-.2 13.72c-2.63-.9-5.11-2-4.89-5.25.22-3.19 2.25-5.14 5.43-5.01 3.12.12 4.69 2.56 4.64 5.33-.06 2.95-2.26 4.49-5.18 4.93z"/><path id="C" d="M159.114 85.386c-2.9 4.46-10.375 13.494-23.319 13.494-12.89 0-19.178-9.2-21.517-13.8a42.57 42.57 0 0 0 18.3 6.464c12.531 1.53 20.953-1.27 26.536-6.158z"/><path id="D" d="M161.038 110.587l-.4 1c-.631 1.409-1.466 2.718-2.477 3.885-.596-.274-1.293-.208-1.828.172 0 0-1.676 2.934-3.772 2.1-.096-.037-.19-.079-.281-.126a10.91 10.91 0 0 1-1.043-.562l-.406-.239-.872-.529a11.79 11.79 0 0 0-3.073-1.437c-2.016-2.72-4.456-7.905-.192-13.875.046-.063.087-.125.133-.185l.5-.683a33.54 33.54 0 0 1 5.483-6.137 13.14 13.14 0 0 1 .729-.549c1.354-.931 1.958-.83 1.958-.83a24.81 24.81 0 0 1 4.7 6.875c.143.306.277.62.4.943 1.377 3.226 1.534 6.844.441 10.177z"/><path id="E" d="M139.01 77.045c-2.029 2.532-6.078 2.025-6.586 0 0 0-.356-4.095 3.115-4.582s5.495 2.05 3.471 4.582z"/><path id="F" d="M110.965 54.572c.612 1.232-1.58 3.3-3.533 4.829 0-.629-.159-1.048-.562-1.182a11.42 11.42 0 0 1-3.236-2.39c1.998-3.262 4.234-6.373 6.69-9.306.647.644 1.341 1.24 2.075 1.782a22.71 22.71 0 0 0-2.222 2.024c-1.463 1.724.788 4.243.788 4.243z"/><path id="G" d="M93.741 192.715a2.7 2.7 0 0 1-1.268-.318l-2.983-1.569a1.73 1.73 0 0 0-.802-.198c-.278 0-.556.068-.802.198l-2.983 1.569a2.7 2.7 0 0 1-1.268.318c-.803 0-1.565-.357-2.09-.98a2.67 2.67 0 0 1-.593-2.208l.57-3.322c.096-.559-.089-1.129-.496-1.525l-2.413-2.352c-.748-.729-1.012-1.798-.689-2.791s1.165-1.703 2.198-1.853l3.335-.485c.562-.082 1.047-.434 1.298-.943l1.492-3.022c.462-.936 1.398-1.518 2.442-1.518s1.98.581 2.442 1.517l1.492 3.023c.251.509.736.861 1.298.943l3.335.485c1.033.15 1.875.86 2.198 1.853s.059 2.063-.689 2.791l-2.413 2.353c-.406.396-.592.966-.496 1.525l.57 3.322a2.67 2.67 0 0 1-.594 2.208c-.525.623-1.287.981-2.09.981z"/><path id="H" d="M88.688 172.215c-.793 0-1.586.413-1.993 1.239l-1.492 3.022c-.324.656-.95 1.111-1.674 1.216l-3.335.485c-1.823.265-2.552 2.506-1.232 3.792l2.413 2.353c.524.511.763 1.247.639 1.968l-.57 3.322c-.312 1.817 1.594 3.201 3.226 2.344l2.983-1.569a2.23 2.23 0 0 1 2.069 0l2.983 1.569c1.63.858 3.537-.527 3.226-2.344l-.57-3.322c-.124-.721.115-1.457.639-1.968l2.414-2.353c1.319-1.286.591-3.527-1.232-3.792l-3.335-.485c-.724-.105-1.35-.56-1.674-1.216l-1.491-3.022c-.408-.826-1.201-1.239-1.993-1.239m0-1c1.236 0 2.343.688 2.89 1.796l1.491 3.022c.178.361.523.611.921.669l3.335.485a3.2 3.2 0 0 1 1.786 5.497l-2.414 2.352c-.288.281-.42.686-.352 1.083l.57 3.322c.161.94-.096 1.893-.704 2.615a3.23 3.23 0 0 1-2.472 1.158c-.522 0-1.027-.126-1.5-.375l-2.983-1.569a1.23 1.23 0 0 0-1.138 0l-2.983 1.568c-.474.249-.978.375-1.5.375a3.23 3.23 0 0 1-2.472-1.158c-.609-.722-.865-1.675-.704-2.615l.57-3.322c.068-.396-.064-.802-.352-1.083l-2.413-2.352a3.2 3.2 0 0 1 1.786-5.497l3.335-.485c.399-.058.743-.308.921-.669l1.492-3.023c.547-1.108 1.654-1.796 2.89-1.796z"/><path id="I" d="M90.437 174.964l1.309 2.5c.3.55.847.923 1.469 1l2.927.4a1.81 1.81 0 0 1 1.081 3.131l-2.451 1.943a1.77 1.77 0 0 0-.561 1.625l.833 2.743a1.93 1.93 0 0 1-2.83 1.936l-2.617-1.3a2.06 2.06 0 0 0-1.815 0l-2.618 1.3a1.93 1.93 0 0 1-2.83-1.936l.5-2.743a1.77 1.77 0 0 0-.561-1.625l-2.117-1.943a1.81 1.81 0 0 1 1.081-3.131l3.26-.4c.622-.077 1.169-.449 1.469-1l.975-2.5c.356-.631 1.024-1.021 1.748-1.021s1.392.39 1.748 1.021z"/><path id="J" d="M88.688 173.608a2.39 2.39 0 0 1 1.164.3c.375.208.681.521.881.9l1.309 2.5a1.61 1.61 0 0 0 1.218.829l2.926.4a2.23 2.23 0 0 1 1.865 1.531c.116.368.127.76.033 1.134a2.14 2.14 0 0 1-.636 1.044l-.009.008-.01.008-2.441 1.935a1.44 1.44 0 0 0-.453 1.294l.833 2.742v.019c.115.609-.051 1.238-.453 1.711-.217.258-.488.466-.794.609a2.36 2.36 0 0 1-2.06-.026l-2.617-1.3c-.479-.235-1.041-.235-1.52 0l-2.617 1.3a2.36 2.36 0 0 1-2.06.026 2.32 2.32 0 0 1-.794-.609c-.401-.473-.568-1.102-.453-1.711l.5-2.743a1.44 1.44 0 0 0-.458-1.319l-2.118-1.943a2.14 2.14 0 0 1-.636-1.044c-.095-.374-.083-.766.033-1.134a2.23 2.23 0 0 1 1.864-1.531h0l3.258-.4c.509-.063.958-.365 1.208-.813l.975-2.495.009-.016a2.2 2.2 0 0 1 .881-.9 2.39 2.39 0 0 1 1.172-.306zm8.317 8.135a1.41 1.41 0 0 0 .409-1.479 1.57 1.57 0 0 0-1.318-1.069l-2.927-.4a2.28 2.28 0 0 1-1.719-1.18l-1.309-2.5c-.296-.52-.847-.842-1.445-.845s-1.153.313-1.455.829l-.975 2.495-.009.016a2.28 2.28 0 0 1-1.719 1.18h0l-3.258.4a1.57 1.57 0 0 0-1.316 1.068 1.41 1.41 0 0 0 .417 1.486l2.118 1.943a2.1 2.1 0 0 1 .664 1.93l-.5 2.743a1.4 1.4 0 0 0 .308 1.164 1.69 1.69 0 0 0 2.046.413l2.617-1.3a2.39 2.39 0 0 1 2.112 0l2.617 1.3a1.69 1.69 0 0 0 2.046-.413 1.4 1.4 0 0 0 .312-1.146l-.833-2.742v-.019a2.1 2.1 0 0 1 .664-1.93l.009-.008.009-.008z"/><path id="K" d="M92.194 179.504c-2.286-.326-1.633-4.734-3.265-4.408-.437.087-.84.176-.916.762s.681 3.693 2.5 3.952c2.1.3 3.448.15 3.6 1.05a.67.67 0 0 1-.45.6s-2.72 1.491-2.887 3.826a4.43 4.43 0 0 0 .7 3.245c.826.515 1.474.914 1.851.443.653-.816-.326-2.285-.816-4.081s3.116-3.592 3.116-3.592a.73.73 0 0 0 .49-.653c-.168-.981-1.637-.817-3.923-1.144z"/><path id="L" d="M90.272 175.247c-.342-.605-.985-.977-1.68-.972s-1.332.386-1.665.996l-.936 2.43a1.87 1.87 0 0 1-1.41.978l-3.131.39c-.691.067-1.279.532-1.503 1.189s-.042 1.385.465 1.86l2.033 1.891c.438.401.642.997.539 1.582l-.48 2.671c-.119.649.144 1.31.676 1.7-.283-1.054-.205-2.172.221-3.176.961-2.436.961-4.061-.8-4.873s-1.762-2.274 1.122-2.436 3.524-.65 3.844-3.411c.216-1.875 1.683-1.658 2.705-.819z"/><path id="M" d="M138.525 192.714a2.64 2.64 0 0 1-1.255-.319l-2.94-1.569c-.241-.128-.512-.196-.784-.196s-.543.068-.785.196l-2.94 1.569c-.397.212-.819.319-1.255.319a2.69 2.69 0 0 1-2.653-3.187l.562-3.322c.095-.561-.088-1.132-.489-1.529l-2.378-2.353c-.742-.734-1-1.809-.674-2.805.322-.983 1.152-1.687 2.166-1.837l3.288-.484c.55-.082 1.026-.433 1.273-.941l1.47-3.022a2.67 2.67 0 0 1 4.829 0l1.47 3.022c.247.507.723.859 1.274.94l3.287.484c1.014.15 1.844.854 2.167 1.837.327.996.068 2.071-.674 2.805l-2.379 2.353c-.401.396-.583.968-.489 1.529l.562 3.322a2.69 2.69 0 0 1-2.652 3.187z"/><path id="N" d="M133.544 172.214a2.16 2.16 0 0 0-1.965 1.24l-1.47 3.022c-.319.656-.936 1.11-1.65 1.216l-3.288.484c-1.797.265-2.515 2.505-1.214 3.792l2.378 2.353c.516.51.752 1.246.63 1.967l-.562 3.322c-.307 1.816 1.573 3.2 3.179 2.344l2.94-1.569c.639-.34 1.401-.34 2.04 0l2.94 1.569c1.606.858 3.486-.527 3.179-2.344l-.562-3.322c-.122-.721.114-1.457.63-1.967l2.379-2.353c1.301-1.287.583-3.527-1.214-3.792l-3.287-.484c-.714-.106-1.331-.561-1.65-1.216l-1.47-3.022a2.16 2.16 0 0 0-1.965-1.24m0-1c1.226 0 2.323.691 2.864 1.802l1.47 3.022c.175.359.51.607.897.665l3.286.484c1.203.177 2.187 1.011 2.569 2.176.386 1.178.081 2.448-.797 3.316l-2.379 2.353c-.285.282-.415.689-.347 1.09l.562 3.321c.16.947-.099 1.905-.711 2.628s-1.501 1.143-2.435 1.143a3.14 3.14 0 0 1-1.491-.378l-2.94-1.569c-.169-.09-.359-.137-.549-.137s-.38.048-.549.137l-2.94 1.569c-.47.251-.972.378-1.49.378a3.19 3.19 0 0 1-2.435-1.143c-.611-.723-.87-1.681-.71-2.627l.562-3.322a1.24 1.24 0 0 0-.347-1.089l-2.378-2.353c-.878-.868-1.183-2.139-.797-3.316a3.18 3.18 0 0 1 2.568-2.176l3.288-.484c.386-.057.722-.306.897-.665l1.47-3.022c.54-1.111 1.638-1.802 2.864-1.802z"/><path id="O" d="M135.268 174.964l1.29 2.5a1.92 1.92 0 0 0 1.448 1l2.884.4c.71.068 1.314.546 1.544 1.222s.043 1.423-.478 1.91l-2.416 1.943c-.45.412-.658 1.024-.553 1.625l.822 2.743c.096.71-.213 1.414-.802 1.823s-1.357.452-1.988.113l-2.58-1.3a2 2 0 0 0-1.789 0l-2.58 1.3c-.631.339-1.399.295-1.988-.113s-.898-1.113-.802-1.823l.492-2.743c.105-.6-.103-1.213-.552-1.625l-2.088-1.943c-.521-.487-.708-1.235-.478-1.91s.834-1.153 1.544-1.222l3.214-.4a1.92 1.92 0 0 0 1.448-1l.961-2.5c.344-.63 1.005-1.022 1.724-1.022s1.379.392 1.724 1.022z"/><path id="P" d="M135.248 174.936c-.351-.621-1.011-1.003-1.724-.998s-1.367.396-1.709 1.022l-.961 2.5a1.92 1.92 0 0 1-1.448 1l-3.214.4c-.71.069-1.313.547-1.543 1.222s-.043 1.422.477 1.909l2.088 1.943c.449.412.658 1.025.552 1.625l-.492 2.743a1.77 1.77 0 0 0 .693 1.743 5.02 5.02 0 0 1 .227-3.263c.987-2.5.987-4.171-.822-5s-1.809-2.335 1.151-2.5 3.618-.667 3.947-3.5c.227-1.928 1.733-1.705 2.778-.846z"/></defs><g transform="translate(-634.634 -345.479)"><path d="M763.476 382.343c39.406 0 87.754 48.348 87.754 87.754s-48.348 79.553-87.754 79.553-79.553-40.147-79.553-79.553 40.146-87.754 79.553-87.754zm42.823.298c3.529 11.292 32.816 16.937 44.813 46.577s14.467-6.7-6-26.817-42.345-31.051-38.813-19.76zm-10.17-9.746c-4.747 2.388-6.1 7.241.743 10.266s4.004-12.654-.743-10.266z" fill="#8baeff"/><g fill="url(#A)"><path d="M21.363,24.492a8,8,0,0,1,15.275,0L54.763,82.618A8,8,0,0,1,47.125,93H10.875A8,8,0,0,1,3.237,82.618Z" transform="matrix(.731354 .681998 -.681998 .731354 735.893 454.081)" opacity=".5"/><path d="M21.248,30.392c2.048-8.03,13.455-8.03,15.5,0l18.7,73.328A8,8,0,0,1,47.7,113.7H10.3a8,8,0,0,1-7.752-9.977Z" transform="matrix(.390731 -.920505 .920505 .390731 748.05 493.335)" opacity=".5"/><path d="M15.546,25.782a4,4,0,0,1,7.908,0l14.84,96.766a4,4,0,0,1-3.954,4.606H4.66a4,4,0,0,1-3.954-4.606Z" transform="matrix(.225 .974 -.974 .225 758.53 451.21)" opacity=".5"/><path d="M15.563 22.01a4 4 0 0 1 7.875 0l14.72 82.29a4 4 0 0 1-3.937 4.7H4.779a4 4 0 0 1-3.937-4.7z" transform="matrix(-.190809 -.981627 .981627 -.190809 795.438 470.669)" opacity=".5"/></g><path d="M800.608 449.422a1 1 0 0 1-1-1.732l91.505-59.046a1 1 0 0 1 1.408.342l5.383 9.324a1 1 0 0 1-.408 1.391zm-55.067 13.798a1 1 0 1 1 0 2l-88.936 5.365a1 1 0 0 1-1.06-1v-10.738a1 1 0 0 1 1.06-1z" opacity=".5" fill="#fff"/><use xlink:href="#B" fill="#ffba00"/><path d="M655.104 480.046c.12-10.77-.17-11.72-9.03-5.61-.14.09-.31.14-.45.22-8.91 5.25-8.94 5.3-.06 10.46 2.77 1.6 6.03 4.87 8.67 3.34 2.61-1.51.44-5.89.87-8.41zm-3.62 2.92c-2.144 1.482-3.642-.808-5.743-1.937-.379-.194-.644-.557-.714-.978s.063-.849.359-1.156c1.85-1.887 3.628-3.121 5.558-2.239 1.85.83 1.76 5.47.54 6.31z" fill="#b3c5f0"/><path d="M654.848 385.581c10.749.683 11.713.444 6.075-8.724-.083-.145-.124-.317-.196-.461-4.776-9.173-4.825-9.205-10.443-.607-1.743 2.682-5.179 5.767-3.789 8.483 1.371 2.685 5.859.748 8.353 1.309zm-2.727-3.768c-1.368-2.219.998-3.595 2.235-5.634.214-.369.59-.614 1.014-.662s.845.108 1.136.419c1.788 1.946 2.927 3.786 1.945 5.668-.926 1.804-5.555 1.471-6.33.209z" fill="#ffba00"/><g fill="#b3c5f0"><path d="M883.422 361.954l-2.664-.407c-1.881-.118-2.198-1.029-2.002-2.811.947-8.792.893-8.794-7.67-10.157l-2.666-.43c-4.592-.719-5.988.295-6.77 4.939a22.39 22.39 0 0 0-.407 2.664c-.08 1.989-.927 2.789-2.944 2.246a25.62 25.62 0 0 0-3.039-.505c-4.428-.67-5.457.058-6.297 4.47-.212 1.139-.362 2.287-.543 3.431-1.351 8.533-1.359 8.579 7.064 10.476 1.645.37 2.362.779 2.18 2.722-.821 8.836-.751 8.839 8.006 10.178l2.281.353c4.795.72 5.984-.123 6.808-4.832.9-5.141.9-5.141 6.113-4.347 4.564.7 5.752-.144 6.525-4.626l.543-3.431.483-3.05c.789-5.201.172-6.049-5.003-6.883zm1.216 7.077a11.42 11.42 0 0 0-.256 1.523c-.88 5.559-.88 5.559-6.584 4.655-5.391-.854-5.439-.815-6.34 4.742a6.44 6.44 0 0 0-.173 1.145c.026 3.639-1.416 5.142-5.153 3.812-1.486-.404-3.002-.683-4.534-.836.233-1.871.56-3.733.685-5.606.122-1.756 1.464-3.717-.688-5.182-2.436-1.691-5.383-1.399-8.1-1.963-1.605-.332-2.295-.91-1.771-2.539.032-.125.052-.253.06-.381.884-7.106.915-7.257 7.904-5.979 3.246.6 4.334-.517 4.814-3.545 1.211-7.594 1.944-7.931 9.451-5.679 1.16.348 1.884.736 1.555 2.076a11.45 11.45 0 0 0-.172 1.137c-1.053 8.08-1.063 8.141 7.143 9.683 1.88.355 2.84.906 2.159 2.94z"/><use xlink:href="#B" x="-110" y="-190"/></g></g><path d="M132.962 167.993c-1.379 2.385-7.177 11.356-15.191 9.227-3.207-.851-4.033-2.826-3.744-5.043.248 1.333 1.308 2.44 3.744 2.993 7.293 1.657 12.747-4.548 14.713-7.218.159.02.319.03.478.041z" fill="#002b5e"/><path d="M132.482 167.951c-1.966 2.67-7.42 8.875-14.713 7.218-2.435-.553-3.5-1.66-3.743-2.993-.528-2.917 2.859-6.9 4.335-8.479.017.017.035.032.054.046.441.363.922.674 1.434.927 3.987 1.822 8.263 2.933 12.633 3.281z" fill="#00408a"/><path d="M156.753 175.17c-5.6 4-17.3 2.276-20.183-6.992q1.552.026 3.085-.038h0c2.8 7.529 12.583 8.87 17.324 5.483a3.3 3.3 0 0 0 1.455-2.079 3.55 3.55 0 0 1-1.681 3.626z" fill="#002b5e"/><path d="M158.439 171.545a3.3 3.3 0 0 1-1.455 2.079c-4.741 3.387-14.524 2.045-17.324-5.483a47.23 47.23 0 0 0 9.457-1.333 7.04 7.04 0 0 0 3.588-2.637l.332-.432c1.423 1.071 5.971 4.754 5.402 7.806z" fill="#00408a"/><path d="M161.405 136.534c-.5 3.433-3.144 20.112-8.371 27.2l-.331.432a7.04 7.04 0 0 1-3.588 2.637c-3.099.763-6.268 1.21-9.457 1.333h0q-1.534.064-3.085.038c-.294 0-.591-.009-.885-.021-1.484-7.4-2.213-21.219-2.372-24.568 8.6.591 16.075-.21 19.248-1.115 2.197-.625 5.513-2.696 8.841-5.936zm-28.307 31.472a.78.78 0 0 1-.138-.013l-.478-.042c-4.371-.349-8.647-1.459-12.635-3.282a7.5 7.5 0 0 1-1.433-.926.51.51 0 0 1-.055-.046c-6.493-5.265-13.057-23.583-15.329-30.395 7.4 6.33 18.07 9.117 27.75 10.073.117 2.545.737 15.116 2.083 23.3q.05.3.1.591l.012.063c.025.168.055.323.088.482h0c.01.071.023.132.035.195z" fill="#25a9e1"/><g fill="#fff"><path d="M132.424 77.045s-.356-4.095 3.115-4.582 5.5 2.05 3.471 4.582-6.078 2.021-6.586 0zm-16.975 15.186a.84.84 0 0 1-.792.872h-.1c-.687 0-4.493-.222-7.876-4.909a20.43 20.43 0 0 1-1.757-2.989c-.05-.096-.078-.202-.084-.31l.356-.327.625-.554a.84.84 0 0 1 .612.461c3.4 7.021 7.964 6.95 8.157 6.95a.83.83 0 0 1 .859.806z"/><use xlink:href="#C"/><use xlink:href="#D"/></g><use xlink:href="#D" y="0.001" fill="#5db051"/><use xlink:href="#C" x="-0.001" fill="#8b8b8b"/><g fill="#fde5c7"><path d="M158.312 71.235c-.586 0-1.17-.048-1.748-.143-5.496-1.059-9.573-5.712-9.9-11.3a6.82 6.82 0 0 1-1.48.171c-1.228.006-2.426-.387-3.412-1.119a12.61 12.61 0 0 1-1.329 2.963c-.86 1.41-1.974 2.649-3.287 3.651-2.136 1.671-4.766 2.588-7.478 2.607-.63 0-1.26-.051-1.882-.151a12.51 12.51 0 0 1-8.22-5.315 12.89 12.89 0 0 1-2.268-9.339 11.62 11.62 0 0 1 .5-1.983c-1.926-.747-3.745-1.746-5.408-2.972a22.7 22.7 0 0 0-2.222 2.025c-1.463 1.723.788 4.242.788 4.242.612 1.233-1.58 3.3-3.534 4.829-.021 2.746-3.345 9.469-4.661 13.276 1.73 3.212 3.978 6.118 6.652 8.6 1.505 1.407 3.129 2.68 4.854 3.807a42.58 42.58 0 0 0 18.3 6.464c12.529 1.525 20.954-1.274 26.538-6.162a23.97 23.97 0 0 0 2.415-2.436c4.536-5.261 6.636-12.118 7.411-18.595-1.94 4.134-6.063 6.803-10.629 6.88zm-19.3 5.81c-2.029 2.532-6.079 2.024-6.585 0 0 0-.356-4.095 3.115-4.582s5.492 2.051 3.467 4.582z"/><use xlink:href="#E"/><path d="M140.602 55.444a10.12 10.12 0 0 1-.13 1.593v.033c-.315 1.807-1.076 3.508-2.213 4.947l-.608.717h0c-.461.506-.967.97-1.51 1.387a11.31 11.31 0 0 1-2.305 1.375l-.96.364h0c-1.544.521-3.192.657-4.8.395-2.902-.507-5.473-2.176-7.118-4.62-1.684-2.345-2.396-5.25-1.987-8.107.501-2.825 2.05-5.357 4.338-7.088 1.846-1.447 4.119-2.243 6.464-2.264.538-.001 1.075.043 1.606.13a10.83 10.83 0 0 1 7.118 4.62c1.348 1.908 2.082 4.182 2.105 6.518z"/><use xlink:href="#F"/><path d="M169.157 54.95a12.07 12.07 0 0 0-9.008-7.4c-1.561-.253-3.158-.165-4.682.256h0a4.63 4.63 0 0 1-1.744.629 12.1 12.1 0 0 0-6.933 9 9.63 9.63 0 0 0-.08.608 4.1 4.1 0 0 1-4.522-1.1c.358-3.176-.469-6.372-2.323-8.975-1.904-2.815-4.872-4.734-8.22-5.315-3.326-.518-6.717.372-9.36 2.457a13.31 13.31 0 0 0-3.823 4.628c-1.714-.634-3.338-1.491-4.829-2.549a16.96 16.96 0 0 1-2.234-1.891h0l2.448-2.565c6.589-6.417 14.914-10.769 24.048-6.728 8.4 3.714 12.232 3.232 13.77 1.232a27.48 27.48 0 0 0 4.238 6.334 18.37 18.37 0 0 0 3.425 2.951h0a14.97 14.97 0 0 0 6.979 2.465c.691.063 1.354.1 1.987.117a40.62 40.62 0 0 1 .863 5.846zm-.886 5.99c-.88 5.378-6.22 9.348-11.439 8.5a9.52 9.52 0 0 1-2.607-.83 9.89 9.89 0 0 1-1.014-.57 10.5 10.5 0 0 1-2.239-1.937h0a8.86 8.86 0 0 1-.474-.583h0c-1.461-1.89-2.225-4.227-2.163-6.615a5 5 0 0 1 .021-.44 9.08 9.08 0 0 1 .092-.75c.871-4.885 5.055-8.484 10.015-8.615a8.61 8.61 0 0 1 1.425.118 10.47 10.47 0 0 1 8.383 11.722z"/></g><path d="M138.254 62.017c-.188.247-.39.482-.608.716h0a11.5 11.5 0 0 1-1.509 1.388c-.711.548-1.485 1.01-2.305 1.375l-.96.364h0c-1.719-.759-2.595-3.081-1.979-5.449.671-2.578 2.846-4.243 4.862-3.718 1.933.507 3.018 2.854 2.499 5.324zm19.636 2.808a4.85 4.85 0 0 1-3.664 3.781c-.349-.17-.688-.36-1.015-.57a10.51 10.51 0 0 1-2.238-1.937h0l-.474-.583h0a5.8 5.8 0 0 1 .1-2.578c.67-2.578 2.846-4.242 4.862-3.718s3.1 3.031 2.429 5.605z" fill="#fff"/><path d="M153.718 48.436a4.64 4.64 0 0 0 1.744-.629 11.7 11.7 0 0 0-1.744.629z"/><path d="M169.156 54.953h0a12.07 12.07 0 0 0-9.008-7.4c-1.561-.253-3.158-.166-4.682.256h0c-.533.325-1.126.539-1.744.629a12.1 12.1 0 0 0-6.933 9l-.08.608a4.1 4.1 0 0 1-4.522-1.1c.358-3.176-.469-6.372-2.323-8.975a12.51 12.51 0 0 0-8.22-5.315c-3.326-.518-6.717.372-9.36 2.457a13.3 13.3 0 0 0-3.823 4.628c-1.715-.634-3.338-1.491-4.829-2.549a16.9 16.9 0 0 1-2.234-1.891 43.93 43.93 0 0 0-1.069 1.224c.647.643 1.341 1.239 2.075 1.781 1.663 1.226 3.481 2.225 5.407 2.972-.224.645-.392 1.309-.5 1.983-.477 3.289.335 6.635 2.267 9.339a12.51 12.51 0 0 0 8.221 5.315 11.91 11.91 0 0 0 1.882.151 12.28 12.28 0 0 0 7.479-2.607 13.3 13.3 0 0 0 3.286-3.651 12.56 12.56 0 0 0 1.329-2.963 5.68 5.68 0 0 0 3.412 1.119c.498-.003.994-.061 1.48-.172a12.24 12.24 0 0 0 9.9 11.3 10.7 10.7 0 0 0 1.749.143c4.564-.078 8.686-2.746 10.626-6.878h0a11.7 11.7 0 0 0 .981-3.144c.336-2.117.071-4.287-.767-6.26zm-28.684 2.083v.034a11.03 11.03 0 0 1-2.213 4.946c-.189.248-.39.482-.608.717h0c-.461.506-.966.97-1.509 1.387a11.3 11.3 0 0 1-2.306 1.375 10.21 10.21 0 0 1-.96.365h0a9.98 9.98 0 0 1-4.8.394 10.83 10.83 0 0 1-7.117-4.619c-1.684-2.345-2.396-5.25-1.987-8.107.501-2.825 2.051-5.357 4.339-7.088 1.846-1.448 4.118-2.244 6.464-2.264a9.84 9.84 0 0 1 1.6.13c2.902.507 5.473 2.175 7.118 4.619 1.351 1.906 2.09 4.178 2.117 6.514a10.06 10.06 0 0 1-.138 1.597zm27.8 3.9c-.88 5.378-6.221 9.348-11.439 8.5-.904-.15-1.783-.429-2.607-.83a9.9 9.9 0 0 1-1.015-.57c-.834-.537-1.587-1.189-2.238-1.937h0a8.55 8.55 0 0 1-.474-.583h0a10.38 10.38 0 0 1-2.163-6.615 5.4 5.4 0 0 1 .021-.44 9.08 9.08 0 0 1 .092-.75 10.45 10.45 0 0 1 10.014-8.614 8.6 8.6 0 0 1 1.425.117c5.468 1.057 9.152 6.209 8.384 11.725z"/><path d="M171.567 100.59a48.73 48.73 0 0 0-9.863-17.434l-.176-.205a24.12 24.12 0 0 1-2.415 2.435c-2.9 4.46-10.375 13.494-23.319 13.494-12.89 0-19.178-9.2-21.517-13.8a35.75 35.75 0 0 1-4.854-3.806 34.22 34.22 0 0 0-3.613 2.742c.267.045.495.217.612.461 3.4 7.021 7.964 6.95 8.157 6.95a.84.84 0 0 1 .874.799.84.84 0 0 1-.799.874h-.1c-.687 0-4.494-.222-7.876-4.909a20.57 20.57 0 0 1-1.757-2.989.77.77 0 0 1-.084-.31.85.85 0 0 1 .231-.637c-1.581-4.008-2.993-8.149-2.8-9.7.109-.645.28-1.278.512-1.89 1.316-3.807 4.64-10.53 4.661-13.276 0-.628-.159-1.048-.562-1.182-1.212-.598-2.307-1.407-3.236-2.389l-1.3 2.171c-1.3 2.23-2.255 4.087-2.825 5.24-.4.8-.6 1.266-.6 1.266a36.89 36.89 0 0 1-1.156-12.877q.056-.8.15-1.635c.021-.218.046-.436.075-.658l-.649 1.228a35.1 35.1 0 0 0-7.222 10.588c-2.516 6.288-7.126 12.156-5.03 26.828.804 6.379 3.907 12.245 8.727 16.5a36.21 36.21 0 0 0 .914 15.773 25.64 25.64 0 0 0 8.317 13.045c7.4 6.33 18.07 9.117 27.75 10.073.855.088 1.7.155 2.531.214 8.6.591 16.076-.209 19.249-1.115 2.2-.629 5.517-2.7 8.845-5.94 3.2-3.119 5.862-6.746 7.877-10.735a16.44 16.44 0 0 0 6.753-8.895c2.711-8.762-1.774-14.04-4.482-16.299zm-9.825 16.683c-.2.1-.411.193-.625.29a.83.83 0 0 1-.339.076.84.84 0 0 1-.768-.5.77.77 0 0 1-.067-.268c-.846.251-1.211.637-.675 1.71 1.677 3.354-2.1 11.318-2.1 11.318s-10.9-1.677-12.156-2.935.419-2.515.419-2.515a6.1 6.1 0 0 1-2.1-3.353c-.177-.5-.143-1.051.094-1.525s.657-.832 1.163-.991c-.734-1.061-.554-2.505.419-3.353a1.88 1.88 0 0 1 1.869-.377c-2.017-2.721-4.456-7.906-.193-13.875.046-.062.088-.125.134-.184l.5-.684c1.568-2.263 3.41-4.324 5.482-6.136a12.21 12.21 0 0 1 .73-.549c1.354-.931 1.957-.83 1.957-.83a24.82 24.82 0 0 1 4.7 6.875c.142.306.276.62.4.943a14.45 14.45 0 0 1 .441 10.178c-.118.332-.252.667-.4 1-.631 1.41-1.466 2.719-2.478 3.886a10.21 10.21 0 0 1 1.941.826.84.84 0 0 1 .331-.268c7.135-3.169 7.219-7.734 7.219-7.927.003-.46.374-.833.834-.838h0c.094.001.188.016.277.047a.84.84 0 0 1 .562.775c.019.23.011 5.538-7.571 9.184z" fill="#fff"/><path d="M159.268 118.581c1.676 3.354-2.1 11.317-2.1 11.317s-10.9-1.676-12.156-2.934.419-2.516.419-2.516c-1.053-.853-1.792-2.033-2.1-3.353-.177-.5-.143-1.05.095-1.525s.657-.832 1.163-.99c-.734-1.062-.554-2.506.419-3.354a1.88 1.88 0 0 1 1.87-.377c1.088.328 2.124.813 3.073 1.438l.872.529a12.92 12.92 0 0 0 .406.239 10.91 10.91 0 0 0 1.043.562c.1.05.189.088.281.126 2.1.838 3.772-2.1 3.772-2.1.535-.38 1.232-.446 1.828-.172a10.15 10.15 0 0 1 1.94.826c-.123.163-.179.367-.159.57-.838.255-1.201.641-.666 1.714z" fill="#fdd29d"/><path d="M148.328 58.894l.021-.44c.033.146.026.298-.021.44z"/><use xlink:href="#E" fill="#bf5d5a"/><path d="M123.349 39.043a14.6 14.6 0 0 1 5.223-2.624c1.913-.51 3.942-.355 5.756.438a3.76 3.76 0 0 1 2.324 2.69 1.14 1.14 0 0 1-.146.807c-.196.229-.469.378-.768.418-1.9.4-3.749-.793-5.668-1.117a2.7 2.7 0 0 0-1-.018c-.497.15-.961.393-1.368.715-1.023.676-3.1 1.92-4.393 1.55-1.598-.456-.951-2.115.04-2.859z" fill="#967953"/><g fill="#fac785"><use xlink:href="#F" x="0.001"/><path d="M113.628 47.19c-.798-.564-1.545-1.197-2.234-1.89h0l2.448-2.565c.488.294.876.728 1.114 1.245.512 1.018-.246 2.133-1.328 3.21z"/></g><path d="M159.323 46.519c-1.371.109-2.694.551-3.856 1.287h0a4.64 4.64 0 0 1-1.744.629c-.403.064-.799-.149-.968-.52-.323-.7.591-2.582 1.022-3.119a3.69 3.69 0 0 1 1.534-1.015q.289-.119.591-.213a18.33 18.33 0 0 0 3.421 2.951z" fill="#967953"/><path d="M106.67 88.186a19.69 19.69 0 0 1-1.756-2.976c-.05-.096-.079-.202-.084-.311-.015-.235.068-.466.23-.637l.126.31 1.484 3.614z" fill="#fff"/><path d="M151.661 37.235c-1.539 2-5.375 2.481-13.77-1.232-9.134-4.041-17.459.311-24.048 6.728-.842.826-1.66 1.685-2.448 2.565h0a43.93 43.93 0 0 0-1.069 1.224c-2.456 2.933-4.692 6.044-6.69 9.306l-1.3 2.171c-1.3 2.23-2.255 4.087-2.825 5.24-.4.8-.6 1.266-.6 1.266a36.9 36.9 0 0 1-1.157-12.877q.056-.8.15-1.635c.021-.218.046-.436.075-.658a44.83 44.83 0 0 1 6.2-17.719c-7.382-4.708-8.82-14.076-4.011-9.868 2.314 2.025 6.179 2.2 10.244 1.568q1.283-1.415 2.75-2.825c15.887-15.275 29.325-2.272 35.446 5.9-.055.067-.1.138-.156.206-.092.113-.176.23-.26.348.698 3.568 1.864 7.029 3.469 10.292z" fill="#c57612"/><path d="M182.545 40.776s-1.484 8.673-14.252 8.325l-1.987-.118a14.98 14.98 0 0 1-6.979-2.465h0a18.33 18.33 0 0 1-3.424-2.951c-1.7-1.904-3.127-4.036-4.238-6.334a41.29 41.29 0 0 1-3.471-10.287 7.67 7.67 0 0 1 .26-.348l.156-.206c13.24-17.276 33.935 14.384 33.935 14.384z" fill="#a15c04"/><path d="M135.685 168.157q-1.295-.037-2.586-.15l-.033-.189h0l-.088-.482-.013-.063q-.05-.289-.1-.591c-1.345-8.187-1.965-20.758-2.083-23.3.855.088 1.7.155 2.532.214.158 3.342.888 17.158 2.371 24.561z" fill="#0071bc"/><path d="M161.739 117.273l-.624.289a.83.83 0 0 1-.34.075.84.84 0 0 1-.768-.5.77.77 0 0 1-.066-.268.81.81 0 0 1 .159-.57.85.85 0 0 1 .331-.269c7.134-3.169 7.219-7.733 7.219-7.926a.84.84 0 0 1 .834-.838h0c.094 0 .187.016.276.046a.84.84 0 0 1 .562.775c.011.232.003 5.543-7.583 9.186zm-46.291-25.042a.84.84 0 0 1-.792.872h-.1c-.687 0-4.493-.222-7.876-4.909a20.57 20.57 0 0 1-1.756-2.989.76.76 0 0 1-.084-.311.85.85 0 0 1 .23-.637.75.75 0 0 1 .238-.171.84.84 0 0 1 1.124.39c3.4 7.021 7.964 6.95 8.157 6.95a.83.83 0 0 1 .859.805z" fill="#25a9e1"/><path d="M150.83 116.816l-.872-.528c-.4-5.86-1.471-13.665-3.131-15.5l.5-.683c2.405 2.473 3.28 13.273 3.503 16.711zm10.208-6.227l-.4 1c-2.373.747-6.175 2.26-8 4.725l-.361 1.3a10.92 10.92 0 0 1-1.044-.562 7.2 7.2 0 0 1 .356-.684c.721-4.531 2.473-16.872 1.215-22.4a13.58 13.58 0 0 1 .73-.55c1.182 4.5.226 13.678-.583 19.529 2.027-4.692 4.451-9.203 7.244-13.484a14.16 14.16 0 0 1 .4.942c-2.865 4.423-5.309 9.105-7.3 13.984a21.41 21.41 0 0 1 7.743-3.8z" fill="#7be86b"/><path d="M135.79 58.387c-.318-.081-.649-.094-.972-.038.492.476.687 1.18.511 1.841s-.697 1.174-1.36 1.342-1.365-.038-1.834-.536l-.071.237c-.5 1.928.285 3.81 1.765 4.268.821-.365 1.595-.827 2.306-1.375a11.53 11.53 0 0 0 1.509-1.388h0l.012-.046c.516-1.979-.319-3.905-1.866-4.305zm19.497 6.119c-.759.003-1.446-.45-1.742-1.149s-.143-1.508.388-2.051a3.28 3.28 0 0 0-2.96 2.689 4.03 4.03 0 0 0 0 2.1h0c.651.748 1.405 1.399 2.238 1.936a3.3 3.3 0 0 0 2.922-2.691 4.24 4.24 0 0 0 .136-1.121 1.87 1.87 0 0 1-.982.287z" fill="#00408a"/><path d="M104.994 176.224c7.922 7.631 33.535-13.786 28.175-36.245-4.306-4.315-41.163 8.606-28.175 36.245z" fill="#1b9a1b"/><path d="M90.744 122.298s21.906 13.025 22.5 45.587" fill="none" stroke="#34632d" stroke-miterlimit="10" stroke-width="2"/><path d="M94.475 121.184s15.87 14.02 10.623 16.825-4.909-7.7-14.995-13.5-1.516-10.179 4.372-3.325z" fill="#87773e"/><path d="M113.241 178.543c9.262-5.935-5.625-35.819-28.714-35.819-5.196 3.187-1.184 42.035 28.714 35.819z" fill="#5fbe5f"/><g fill="#ffd500"><use xlink:href="#G"/><use xlink:href="#H" fill="#fff"/></g><use xlink:href="#I" fill="#ffb300"/><use xlink:href="#J" fill="#fff"/><use xlink:href="#K" fill="#ffe97a"/><use xlink:href="#L" fill="#ffe41f"/><g fill="#ffd500"><use xlink:href="#M"/><use xlink:href="#N" fill="#fff"/></g><use xlink:href="#O" fill="#fff"/><use xlink:href="#P" fill="#dedede"/><g fill="#ffd500"><use xlink:href="#G" x="22.502"/><use xlink:href="#H" x="22.502" fill="#fff"/></g><use xlink:href="#I" x="22.502" fill="#ffb300"/><use xlink:href="#J" x="22.502" fill="#fff"/><use xlink:href="#K" x="22.502" fill="#ffe97a"/><use xlink:href="#L" x="22.502" fill="#ffe41f"/><g fill="#ffd500"><use xlink:href="#M" x="22.502"/><use xlink:href="#N" x="22.502" fill="#fff"/></g><use xlink:href="#O" x="22.502" fill="#fff"/><use xlink:href="#P" x="22.502" fill="#dedede"/><g fill="#ffd500"><use xlink:href="#M" x="45.004"/><use xlink:href="#N" x="45.004" fill="#fff"/></g><use xlink:href="#O" x="45.004" fill="#fff"/><use xlink:href="#P" x="45.004" fill="#dedede"/></svg>
