<svg xmlns="http://www.w3.org/2000/svg" xmlns:xlink="http://www.w3.org/1999/xlink" width="267.801" height="220.327" ><style><![CDATA[.B{fill:#fff}.C{opacity:.5}.D{fill:#f8d008}.E{fill:#ffd500}.F{fill:#ffb300}.G{fill:#ffe97a}.H{fill:#ffe41f}.I{fill:#b3c5f0}.J{stroke-linecap:round}.K{stroke-miterlimit:10}]]></style><defs><linearGradient id="A" x1=".5" x2=".5" y2="1"><stop offset="0" stop-color="#dee8ff"/><stop offset="1" stop-color="#fff"/></linearGradient><path id="B" d="M830.042 545.396c-5.78-.02-8.53 2.73-8.53 8.53.01 5.33 3.45 8.91 8.55 8.88 4.826-.096 8.725-3.965 8.86-8.79.04-4.94-3.74-8.61-8.88-8.62zm-.2 13.72c-2.63-.9-5.11-2-4.89-5.25.22-3.19 2.25-5.14 5.43-5.01 3.12.12 4.69 2.56 4.64 5.33-.06 2.95-2.26 4.49-5.18 4.93z"/><path id="C" d="M93.741 195.715a2.7 2.7 0 0 1-1.268-.318l-2.983-1.569a1.73 1.73 0 0 0-.802-.198c-.278 0-.556.068-.802.198l-2.983 1.569a2.7 2.7 0 0 1-1.268.318c-.803 0-1.565-.357-2.09-.98a2.67 2.67 0 0 1-.593-2.208l.57-3.322c.096-.559-.089-1.129-.496-1.525l-2.413-2.352c-.748-.729-1.012-1.798-.689-2.791s1.165-1.703 2.198-1.853l3.335-.485c.562-.082 1.047-.434 1.298-.943l1.492-3.022c.462-.936 1.398-1.518 2.442-1.518s1.98.581 2.442 1.517l1.492 3.023c.251.509.736.861 1.298.943l3.335.485c1.033.15 1.875.86 2.198 1.853s.059 2.063-.689 2.791l-2.413 2.353c-.406.396-.592.966-.496 1.525l.57 3.322a2.67 2.67 0 0 1-.594 2.208c-.525.623-1.287.981-2.09.981z"/><path id="D" d="M88.688 175.215c-.793 0-1.586.413-1.993 1.239l-1.492 3.022c-.324.656-.95 1.111-1.674 1.216l-3.335.485c-1.823.265-2.552 2.506-1.232 3.792l2.413 2.353c.524.511.763 1.247.639 1.968l-.57 3.322c-.312 1.817 1.594 3.201 3.226 2.344l2.983-1.569a2.23 2.23 0 0 1 2.069 0l2.983 1.569c1.63.858 3.537-.527 3.226-2.344l-.57-3.322c-.124-.721.115-1.457.639-1.968l2.414-2.353c1.319-1.286.591-3.527-1.232-3.792l-3.335-.485c-.724-.105-1.35-.56-1.674-1.216l-1.491-3.022c-.408-.826-1.201-1.239-1.993-1.239m0-1c1.236 0 2.343.688 2.89 1.796l1.491 3.022c.178.361.523.611.921.669l3.335.485a3.2 3.2 0 0 1 1.786 5.497l-2.414 2.352c-.288.281-.42.686-.352 1.083l.57 3.322c.161.94-.096 1.893-.704 2.615a3.23 3.23 0 0 1-2.472 1.158c-.522 0-1.027-.126-1.5-.375l-2.983-1.569a1.23 1.23 0 0 0-1.138 0l-2.983 1.568c-.474.249-.978.375-1.5.375a3.23 3.23 0 0 1-2.472-1.158c-.609-.722-.865-1.675-.704-2.615l.57-3.322c.068-.396-.064-.802-.352-1.083l-2.413-2.352a3.2 3.2 0 0 1 1.786-5.497l3.335-.485c.399-.058.743-.308.921-.669l1.492-3.023c.547-1.108 1.654-1.796 2.89-1.796z"/><path id="E" d="M90.437 177.964l1.309 2.5c.3.55.847.923 1.469 1l2.927.4a1.81 1.81 0 0 1 1.081 3.131l-2.451 1.943a1.77 1.77 0 0 0-.561 1.625l.833 2.743a1.93 1.93 0 0 1-2.83 1.936l-2.617-1.3a2.06 2.06 0 0 0-1.815 0l-2.618 1.3a1.93 1.93 0 0 1-2.83-1.936l.5-2.743a1.77 1.77 0 0 0-.561-1.625l-2.117-1.943a1.81 1.81 0 0 1 1.081-3.131l3.26-.4c.622-.077 1.169-.449 1.469-1l.975-2.5c.356-.631 1.024-1.021 1.748-1.021s1.392.39 1.748 1.021z"/><path id="F" d="M88.688 176.608a2.39 2.39 0 0 1 1.164.3c.375.208.681.521.881.9l1.309 2.5a1.61 1.61 0 0 0 1.218.829l2.926.4a2.23 2.23 0 0 1 1.865 1.531c.116.368.127.76.033 1.134a2.14 2.14 0 0 1-.636 1.044l-.009.008-.01.008-2.441 1.935a1.44 1.44 0 0 0-.453 1.294l.833 2.742v.019c.115.609-.051 1.238-.453 1.711-.217.258-.488.466-.794.609a2.36 2.36 0 0 1-2.06-.026l-2.617-1.3c-.479-.235-1.041-.235-1.52 0l-2.617 1.3a2.36 2.36 0 0 1-2.06.026 2.32 2.32 0 0 1-.794-.609c-.401-.473-.568-1.102-.453-1.711l.5-2.743a1.44 1.44 0 0 0-.458-1.319l-2.118-1.943a2.14 2.14 0 0 1-.636-1.044c-.095-.374-.083-.766.033-1.134a2.23 2.23 0 0 1 1.864-1.531h0l3.258-.4c.509-.063.958-.365 1.208-.813l.975-2.495.009-.016a2.2 2.2 0 0 1 .881-.9 2.39 2.39 0 0 1 1.172-.306zm8.317 8.135a1.41 1.41 0 0 0 .409-1.479 1.57 1.57 0 0 0-1.318-1.069l-2.927-.4a2.28 2.28 0 0 1-1.719-1.18l-1.309-2.5c-.296-.52-.847-.842-1.445-.845s-1.153.313-1.455.829l-.975 2.495-.009.016a2.28 2.28 0 0 1-1.719 1.18h0l-3.258.4a1.57 1.57 0 0 0-1.316 1.068 1.41 1.41 0 0 0 .417 1.486l2.118 1.943a2.1 2.1 0 0 1 .664 1.93l-.5 2.743a1.4 1.4 0 0 0 .308 1.164 1.69 1.69 0 0 0 2.046.413l2.617-1.3a2.39 2.39 0 0 1 2.112 0l2.617 1.3a1.69 1.69 0 0 0 2.046-.413 1.4 1.4 0 0 0 .312-1.146l-.833-2.742v-.019a2.1 2.1 0 0 1 .664-1.93l.009-.008.009-.008z"/><path id="G" d="M92.194 182.504c-2.286-.326-1.633-4.734-3.265-4.408-.437.087-.84.176-.916.762s.681 3.693 2.5 3.952c2.1.3 3.448.15 3.6 1.05a.67.67 0 0 1-.45.6s-2.72 1.491-2.887 3.826a4.43 4.43 0 0 0 .7 3.245c.826.515 1.474.914 1.851.443.653-.816-.326-2.285-.816-4.081s3.116-3.592 3.116-3.592a.73.73 0 0 0 .49-.653c-.168-.981-1.637-.817-3.923-1.144z"/><path id="H" d="M90.272 178.247c-.342-.605-.985-.977-1.68-.972s-1.332.386-1.665.996l-.936 2.43a1.87 1.87 0 0 1-1.41.978l-3.131.39c-.691.067-1.279.532-1.503 1.189s-.042 1.385.465 1.86l2.033 1.891c.438.401.642.997.539 1.582l-.48 2.671c-.119.649.144 1.31.676 1.7-.283-1.054-.205-2.172.221-3.176.961-2.436.961-4.061-.8-4.873s-1.762-2.274 1.122-2.436 3.524-.65 3.844-3.411c.216-1.875 1.683-1.658 2.705-.819z"/></defs><g transform="translate(-634.634 -342.479)"><path d="M763.476 382.343c39.406 0 87.754 48.348 87.754 87.754s-48.348 79.553-87.754 79.553-79.553-40.147-79.553-79.553 40.146-87.754 79.553-87.754zm42.823.298c3.529 11.292 32.816 16.937 44.813 46.577s14.467-6.7-6-26.817-42.345-31.051-38.813-19.76zm-10.17-9.746c-4.747 2.388-6.1 7.241.743 10.266s4.004-12.654-.743-10.266z" fill="#8baeff"/><g fill="url(#A)"><path d="M21.363,24.492a8,8,0,0,1,15.275,0L54.763,82.618A8,8,0,0,1,47.125,93H10.875A8,8,0,0,1,3.237,82.618Z" transform="matrix(.731354 .681998 -.681998 .731354 735.893 454.081)" class="C"/><path d="M21.248,30.392c2.048-8.03,13.455-8.03,15.5,0l18.7,73.328A8,8,0,0,1,47.7,113.7H10.3a8,8,0,0,1-7.752-9.977Z" transform="matrix(.390731 -.920505 .920505 .390731 748.05 493.335)" class="C"/><path d="M15.546,25.782a4,4,0,0,1,7.908,0l14.84,96.766a4,4,0,0,1-3.954,4.606H4.66a4,4,0,0,1-3.954-4.606Z" transform="matrix(.225 .974 -.974 .225 758.53 451.21)" class="C"/><path d="M15.563 22.01a4 4 0 0 1 7.875 0l14.72 82.29a4 4 0 0 1-3.937 4.7H4.779a4 4 0 0 1-3.937-4.7z" transform="matrix(-.190809 -.981627 .981627 -.190809 795.438 470.669)" class="C"/></g><path d="M800.608 449.422a1 1 0 0 1-1-1.732l91.505-59.046a1 1 0 0 1 1.408.342l5.383 9.324a1 1 0 0 1-.408 1.391zm-55.067 13.798a1 1 0 1 1 0 2l-88.936 5.365a1 1 0 0 1-1.06-1v-10.738a1 1 0 0 1 1.06-1z" class="C B"/><use xlink:href="#B" fill="#ffba00"/><path d="M655.104 480.046c.12-10.77-.17-11.72-9.03-5.61-.14.09-.31.14-.45.22-8.91 5.25-8.94 5.3-.06 10.46 2.77 1.6 6.03 4.87 8.67 3.34 2.61-1.51.44-5.89.87-8.41zm-3.62 2.92c-2.144 1.482-3.642-.808-5.743-1.937-.379-.194-.644-.557-.714-.978s.063-.849.359-1.156c1.85-1.887 3.628-3.121 5.558-2.239 1.85.83 1.76 5.47.54 6.31z" class="I"/><path d="M654.848 385.581c10.749.683 11.713.444 6.075-8.724-.083-.145-.124-.317-.196-.461-4.776-9.173-4.825-9.205-10.443-.607-1.743 2.682-5.179 5.767-3.789 8.483 1.371 2.685 5.859.748 8.353 1.309zm-2.727-3.768c-1.368-2.219.998-3.595 2.235-5.634.214-.369.59-.614 1.014-.662s.845.108 1.136.419c1.788 1.946 2.927 3.786 1.945 5.668-.926 1.804-5.555 1.471-6.33.209z" fill="#ffba00"/><g class="I"><path d="M883.422 361.954l-2.664-.407c-1.881-.118-2.198-1.029-2.002-2.811.947-8.792.893-8.794-7.67-10.157l-2.666-.43c-4.592-.719-5.988.295-6.77 4.939a22.39 22.39 0 0 0-.407 2.664c-.08 1.989-.927 2.789-2.944 2.246a25.62 25.62 0 0 0-3.039-.505c-4.428-.67-5.457.058-6.297 4.47-.212 1.139-.362 2.287-.543 3.431-1.351 8.533-1.359 8.579 7.064 10.476 1.645.37 2.362.779 2.18 2.722-.821 8.836-.751 8.839 8.006 10.178l2.281.353c4.795.72 5.984-.123 6.808-4.832.9-5.141.9-5.141 6.113-4.347 4.564.7 5.752-.144 6.525-4.626l.543-3.431.483-3.05c.789-5.201.172-6.049-5.003-6.883zm1.216 7.077a11.42 11.42 0 0 0-.256 1.523c-.88 5.559-.88 5.559-6.584 4.655-5.391-.854-5.439-.815-6.34 4.742a6.44 6.44 0 0 0-.173 1.145c.026 3.639-1.416 5.142-5.153 3.812-1.486-.404-3.002-.683-4.534-.836.233-1.871.56-3.733.685-5.606.122-1.756 1.464-3.717-.688-5.182-2.436-1.691-5.383-1.399-8.1-1.963-1.605-.332-2.295-.91-1.771-2.539.032-.125.052-.253.06-.381.884-7.106.915-7.257 7.904-5.979 3.246.6 4.334-.517 4.814-3.545 1.211-7.594 1.944-7.931 9.451-5.679 1.16.348 1.884.736 1.555 2.076a11.45 11.45 0 0 0-.172 1.137c-1.053 8.08-1.063 8.141 7.143 9.683 1.88.355 2.84.906 2.159 2.94z"/><use xlink:href="#B" x="-110" y="-190"/></g></g><path d="M128.195 166.868c-15.8 0-31.754-8.082-43.723-20.115 4.634-19.1 16.333-44.915 45.725-44.915 28.809 0 41.1 24.806 46.282 43.776-13.777 12.657-31.989 21.254-48.284 21.254zm1.8-80.022c-34.938 0-50.05 25.125-56.571 45.791a67.23 67.23 0 0 1-3.871-7.42c8.149-21.284 25.14-44.761 60.442-44.761 35.948 0 53.424 24.365 61.852 45.944a67.66 67.66 0 0 1-4.119 6.546c-6.944-20.736-22.61-46.101-57.738-46.101z" stroke="rgba(0,0,0,0)" class="B C"/><path d="M62.588 112.397a18.52 18.52 0 0 1-18.519 18.52c-10.228 0-19.625-8.292-19.625-18.52s9.4-19.625 19.625-19.625 18.519 9.4 18.519 19.625z" class="D"/><path d="M34.276 106.807c-2.257 4.923-.508 10.757 4.085 13.627s10.605 1.875 14.037-2.315zm1.123-1.906l18.218 11.372c2.607-4.989.934-11.144-3.84-14.127s-11.041-1.778-14.378 2.755z" class="B"/><g fill="none" stroke="#8baeff" class="J"><path d="M182.992 111.599l-9.5.245m-89.987-.245l-8.592.245m54.736-51.185l-.245-10.695" stroke-width="4"/><path d="M94.901 72.995l-6.43-4.04m79.53 7.525l6.47-4.069" stroke-width="3.999"/></g><path d="M83.714 50.516c0 10.228-9.4 18.519-19.625 18.519A18.52 18.52 0 0 1 45.57 50.516c0-10.229 8.291-19.625 18.519-19.625s19.625 9.4 19.625 19.625z" class="D"/><path d="M68.404 52.458l4.5-4.5a5.8 5.8 0 0 0 0-8.209c-2.267-2.267-5.942-2.267-8.209 0l-4.5 4.5zm-9.382-7.036l-4.5 4.5a5.81 5.81 0 0 0 0 8.209 5.8 5.8 0 0 0 8.209 0l4.5-4.5z" class="B"/><path d="M145.526 19.625a18.52 18.52 0 0 1-18.519 18.519c-10.228 0-19.625-8.29-19.625-18.519S116.782 0 127.007 0s18.519 9.4 18.519 19.625z" class="D"/><path d="M137.115 27.244l-15.985 4.417-5.6-20.248 15.691-5.483z" class="B"/><path d="M120.762 22.014l2.061 7.459 12.255-3.386-1.914-6.927z" fill="#e0e1e2"/><path d="M214.163 55.127c0 10.228-9.4 18.519-19.625 18.519a18.52 18.52 0 0 1-18.519-18.519c0-10.229 8.291-19.625 18.519-19.625s19.625 9.4 19.625 19.625z" class="D"/><path d="M202.555 57.891a8.02 8.02 0 0 1-8.016 8.015 8.02 8.02 0 0 1-8.016-8.015c0-4.427 8.016-13.544 8.016-13.544s8.016 9.118 8.016 13.544z" class="B"/><path d="M233.235 112.398a18.52 18.52 0 0 1-18.519 18.519c-10.228 0-19.625-8.291-19.625-18.519s9.4-19.625 19.625-19.625 18.519 9.4 18.519 19.625z" class="D"/><path d="M219.158 106.538l4.5 4.5c2.267 2.267 2.267 5.942 0 8.209a5.8 5.8 0 0 1-8.209 0l-4.5-4.5zm-9.382 7.036l-4.495-4.5a5.8 5.8 0 0 1 0-8.209 5.81 5.81 0 0 1 8.209 0l4.5 4.5z" class="B"/><path d="M171.237 158.541c0 9.044-11.907 16.688-28.261 19.177q-.793.12-1.6.224a77.59 77.59 0 0 1-9.938.63c-21.979 0-39.8-8.969-39.8-20.032 0-5.521 4.436-10.521 11.613-14.142 3.555 5.732 10.572 10.181 19.217 12.075q1.623.356 3.32.59a44.7 44.7 0 0 0 6.047.409c12.639 0 23.517-5.238 28.386-12.762 6.823 3.596 11.016 8.468 11.016 13.831z" fill="#0f426d"/><g class="B"><path d="M117.571 116.609l-.091.187-.243-.064.334-.123z"/><path d="M117.571 116.609l-.091.187-.243-.064.334-.123z"/></g><path d="M142.976 177.718l-1.6.224a31.72 31.72 0 0 0-19.073-20.694l-6.888-3.247 7.059 2.473.3-.764.125.051q1.518.6 2.893 1.3a33.21 33.21 0 0 1 17.16 20.568c.011.033.016.063.024.089z" class="I"/><path d="M143.31 105.17h0a9.35 9.35 0 0 0-.558-2.209q-1.3-.2-2.765-.5c-3.446-.582-6.553-2.423-8.718-5.166a19.85 19.85 0 0 1-5.438 3.029c-2.222.828-4.215 1.49-6 1.982l-.577 6.776a18 18 0 0 0 3.9-.745c6.41-1.87 9.081 1.068 9.081 1.068 3.472-2.4 5.075-2.137 8.547-.267a6.85 6.85 0 0 0 1.977.689 10.18 10.18 0 0 0 .449-1.635v-.005c.193-.994.227-2.012.102-3.017z" fill="#fde5c7"/><path d="M153.609 101.842c-2.038 1.485-5.261 1.92-10.288 1.2l-.566-.085q-1.3-.2-2.764-.5c-3.446-.581-6.553-2.422-8.718-5.165a18.48 18.48 0 0 0 3.323-3.4c6.8-8.99 4.66-22.438 4.359-24.115 3.977.719 17.409 4.025 17.863 15.852.308 8.122.254 13.688-3.209 16.213z" fill="#2195c7"/><path d="M134.592 93.89a18.48 18.48 0 0 1-3.323 3.4c-1.642 1.289-3.477 2.311-5.438 3.029l-6 1.982-.409.107c-4.4 1.17-7.513 1.269-9.714.288-3.915-1.736-4.949-6.875-5.245-15.464-.8-13.889 14.957-17.628 19.764-17.9 4.273-.8 14.69.267 14.69.267l.032.174c.303 1.679 2.446 15.127-4.357 24.117z" fill="#25a9e1"/><path d="M128.235 103.788c-1.87 2.4-5.342 1.335-5.342 1.335m17.628.531c-3.205.267-5.609-2.4-5.609-2.4" fill="none" stroke="#bf9969" stroke-width="2" class="J K"/><path d="M119.832 102.298l-.577 6.776-.238.011c-2.89.12-3.6-1.023-3.6-1.023s.142 4.658 3.293 6.688a11.79 11.79 0 0 0-1.138 1.859l-.334.123c-7.6-2.073-7.721-10.972-7.527-14.038 2.2.98 5.313.881 9.714-.288l.407-.108z" fill="#c5c4c7"/><path d="M143.115 109.875l-.35-.056c-.69-.127-1.357-.359-1.977-.689-3.472-1.87-5.074-2.137-8.547.267 0 0-2.671-2.938-9.081-1.068-1.27.391-2.58.641-3.905.745l-.238.011c-2.89.12-3.6-1.023-3.6-1.023s.142 4.658 3.293 6.688c.271.175.557.325.855.449a5.88 5.88 0 0 0 1.338.382c.517.085 1.042.115 1.565.091.412-.018.822-.062 1.229-.131l6.346-1.3h0c2-.537 2.2-.839 2.2-.839.485.325.997.607 1.531.844h0c2.184 1.033 4.626 1.39 7.014 1.025l.39-.077h0a7.62 7.62 0 0 0 1.1-.331l.283-.112h0a11.24 11.24 0 0 0 3.531-2.468c.941-.943 1.758-2.001 2.433-3.149a11.26 11.26 0 0 1-5.41.741z" class="B"/><g fill="#c5c4c7"><path d="M153.601 101.841c-.059 9.6-4.6 13.066-6.159 13.969a21.79 21.79 0 0 0-1.349-3.528c.941-.943 1.759-2.001 2.434-3.149a11.26 11.26 0 0 1-5.417.742c-.115-.016-.232-.035-.35-.056.195-.532.345-1.078.449-1.635v-.005c.191-.992.225-2.008.1-3.01h0c-.095-.756-.283-1.498-.558-2.209l.566.085c5.027.716 8.251.281 10.284-1.204z"/><path d="M137.85 132.1c-7.479 3.2-4.541 6.677-5.876 3.739s-3.205-1.6-11.485-8.28c-4.776-3.852-4.308-7.967-3.01-10.764l.091-.187a11.8 11.8 0 0 1 1.138-1.859 5.34 5.34 0 0 0 .854.449c.429.18.878.308 1.338.382a7.54 7.54 0 0 0 1.565.091 9.87 9.87 0 0 0 1.229-.131c3.1-.518 5.083-.954 6.346-1.3h0c2-.537 2.2-.839 2.2-.839a10.13 10.13 0 0 0 1.53.844h0c2.184 1.033 4.626 1.39 7.014 1.025.131-.021.259-.048.39-.077h0a7.62 7.62 0 0 0 1.1-.331c.1-.035.189-.075.283-.112h0c1.325-.587 2.524-1.425 3.531-2.468.551 1.135 1.002 2.315 1.349 3.528a15.12 15.12 0 0 1 .342 1.448h0c1.48 7.753-3.772 12.203-9.929 14.842z"/></g><path d="M162.956 135.839a16.2 16.2 0 0 1-2.729 8.873c-4.869 7.524-15.748 12.762-28.386 12.762-12.812 0-23.813-5.382-28.584-13.074a16.12 16.12 0 0 1-2.532-8.56c0-8.28 6.688-15.472 16.511-19.107a3.76 3.76 0 0 0 .243.064c-1.3 2.8-1.766 6.912 3.01 10.764 8.28 6.677 10.149 5.342 11.485 8.28s-1.6-.534 5.875-3.739c6.157-2.639 11.41-7.089 9.938-14.839 9.085 3.772 15.169 10.681 15.169 18.576z" class="B"/><g fill="none" stroke-width="2" stroke="#25a9e1" class="J K"><path d="M125.207 148.258c-11.271-2.6-7.922-11.618-7.922-11.618m16.052 7.775v-.029s-8.827-1.528-10.852 12.07c0 .008 0 .013-.005.021"/><path d="M147.357 136.715s3.349 9.019-7.922 11.618m-7.06 9.138v-13.01a4.45 4.45 0 0 1 .958-.045c1.381.062 4 .652 6.1 3.918a20.33 20.33 0 0 1 2.687 7.93"/></g><path d="M136.739 80.551h-2.628v-2.628c0-.909-.736-1.645-1.645-1.645h-2.052c-.909 0-1.645.736-1.645 1.645v2.628h-2.628c-.909 0-1.645.736-1.646 1.645v2.051c0 .437.173.855.482 1.164s.727.482 1.164.482h2.628v2.628c0 .909.736 1.645 1.645 1.646h2.052c.436 0 .855-.173 1.164-.482s.482-.727.481-1.164v-2.628h2.628c.436 0 .855-.173 1.164-.482s.482-.727.481-1.164v-2.051c0-.909-.736-1.645-1.645-1.645z" class="B"/><g class="E"><use xlink:href="#C"/><use xlink:href="#D" class="B"/></g><use xlink:href="#E" class="F"/><use xlink:href="#F" class="B"/><use xlink:href="#G" class="G"/><use xlink:href="#H" class="H"/><g class="E"><use xlink:href="#C" x="45.005"/><use xlink:href="#D" x="45.005" class="B"/></g><use xlink:href="#E" x="45.005" class="F"/><use xlink:href="#F" x="45.005" class="B"/><use xlink:href="#G" x="45.005" class="G"/><use xlink:href="#H" x="45.005" class="H"/><g class="E"><use xlink:href="#C" x="22.502"/><use xlink:href="#D" x="22.502" class="B"/></g><use xlink:href="#E" x="22.502" class="F"/><use xlink:href="#F" x="22.502" class="B"/><use xlink:href="#G" x="22.502" class="G"/><use xlink:href="#H" x="22.502" class="H"/><g class="E"><use xlink:href="#C" x="67.507"/><use xlink:href="#D" x="67.507" class="B"/></g><use xlink:href="#E" x="67.507" class="F"/><use xlink:href="#F" x="67.507" class="B"/><use xlink:href="#G" x="67.507" class="G"/><use xlink:href="#H" x="67.507" class="H"/><g class="E"><use xlink:href="#C" x="90.009"/><use xlink:href="#D" x="90.009" class="B"/></g><use xlink:href="#E" x="90.009" class="F"/><use xlink:href="#F" x="90.009" class="B"/><use xlink:href="#G" x="90.009" class="G"/><use xlink:href="#H" x="90.009" class="H"/></svg>
