<svg xmlns="http://www.w3.org/2000/svg" xmlns:xlink="http://www.w3.org/1999/xlink" width="267.801" height="217.327" ><style><![CDATA[.B{fill:#fff}.C{opacity:.5}.D{fill:#ffd500}.E{fill:#ffb300}.F{fill:#ffe97a}.G{fill:#ffe41f}]]></style><defs><linearGradient id="A" x1=".5" x2=".5" y2="1"><stop offset="0" stop-color="#dee8ff"/><stop offset="1" stop-color="#fff"/></linearGradient><path id="B" d="M830.042 545.396c-5.78-.02-8.53 2.73-8.53 8.53.01 5.33 3.45 8.91 8.55 8.88 4.826-.096 8.725-3.965 8.86-8.79.04-4.94-3.74-8.61-8.88-8.62zm-.2 13.72c-2.63-.9-5.11-2-4.89-5.25.22-3.19 2.25-5.14 5.43-5.01 3.12.12 4.69 2.56 4.64 5.33-.06 2.95-2.26 4.49-5.18 4.93z"/><path id="C" d="M-600.739 4047.246h0a8.78 8.78 0 0 1 8.778 8.778v10.729h0-17.556 0v-10.729a8.78 8.78 0 0 1 8.778-8.778z"/><path id="D" d="M-600.739 4086.26h0a8.78 8.78 0 0 1-8.778-8.778v-10.729h0 17.556 0v10.729a8.78 8.78 0 0 1-8.778 8.778z"/><path id="E" d="M93.741 192.715a2.7 2.7 0 0 1-1.268-.318l-2.983-1.569a1.73 1.73 0 0 0-.802-.198c-.278 0-.556.068-.802.198l-2.983 1.569a2.7 2.7 0 0 1-1.268.318c-.803 0-1.565-.357-2.09-.98a2.67 2.67 0 0 1-.593-2.208l.57-3.322c.096-.559-.089-1.129-.496-1.525l-2.413-2.352c-.748-.729-1.012-1.798-.689-2.791s1.165-1.703 2.198-1.853l3.335-.485c.562-.082 1.047-.434 1.298-.943l1.492-3.022c.462-.936 1.398-1.518 2.442-1.518s1.98.581 2.442 1.517l1.492 3.023c.251.509.736.861 1.298.943l3.335.485c1.033.15 1.875.86 2.198 1.853s.059 2.063-.689 2.791l-2.413 2.353c-.406.396-.592.966-.496 1.525l.57 3.322a2.67 2.67 0 0 1-.594 2.208c-.525.623-1.287.981-2.09.981z"/><path id="F" d="M88.688 172.215c-.793 0-1.586.413-1.993 1.239l-1.492 3.022c-.324.656-.95 1.111-1.674 1.216l-3.335.485c-1.823.265-2.552 2.506-1.232 3.792l2.413 2.353c.524.511.763 1.247.639 1.968l-.57 3.322c-.312 1.817 1.594 3.201 3.226 2.344l2.983-1.569a2.23 2.23 0 0 1 2.069 0l2.983 1.569c1.63.858 3.537-.527 3.226-2.344l-.57-3.322c-.124-.721.115-1.457.639-1.968l2.414-2.353c1.319-1.286.591-3.527-1.232-3.792l-3.335-.485c-.724-.105-1.35-.56-1.674-1.216l-1.491-3.022c-.408-.826-1.201-1.239-1.993-1.239m0-1c1.236 0 2.343.688 2.89 1.796l1.491 3.022c.178.361.523.611.921.669l3.335.485a3.2 3.2 0 0 1 1.786 5.497l-2.414 2.352c-.288.281-.42.686-.352 1.083l.57 3.322c.161.94-.096 1.893-.704 2.615a3.23 3.23 0 0 1-2.472 1.158c-.522 0-1.027-.126-1.5-.375l-2.983-1.569a1.23 1.23 0 0 0-1.138 0l-2.983 1.568c-.474.249-.978.375-1.5.375a3.23 3.23 0 0 1-2.472-1.158c-.609-.722-.865-1.675-.704-2.615l.57-3.322c.068-.396-.064-.802-.352-1.083l-2.413-2.352a3.2 3.2 0 0 1 1.786-5.497l3.335-.485c.399-.058.743-.308.921-.669l1.492-3.023c.547-1.108 1.654-1.796 2.89-1.796z"/><path id="G" d="M90.437 174.964l1.309 2.5c.3.55.847.923 1.469 1l2.927.4a1.81 1.81 0 0 1 1.081 3.131l-2.451 1.943a1.77 1.77 0 0 0-.561 1.625l.833 2.743a1.93 1.93 0 0 1-2.83 1.936l-2.617-1.3a2.06 2.06 0 0 0-1.815 0l-2.618 1.3a1.93 1.93 0 0 1-2.83-1.936l.5-2.743a1.77 1.77 0 0 0-.561-1.625l-2.117-1.943a1.81 1.81 0 0 1 1.081-3.131l3.26-.4c.622-.077 1.169-.449 1.469-1l.975-2.5c.356-.631 1.024-1.021 1.748-1.021s1.392.39 1.748 1.021z"/><path id="H" d="M88.688 173.608a2.39 2.39 0 0 1 1.164.3c.375.208.681.521.881.9l1.309 2.5a1.61 1.61 0 0 0 1.218.829l2.926.4a2.23 2.23 0 0 1 1.865 1.531c.116.368.127.76.033 1.134a2.14 2.14 0 0 1-.636 1.044l-.009.008-.01.008-2.441 1.935a1.44 1.44 0 0 0-.453 1.294l.833 2.742v.019c.115.609-.051 1.238-.453 1.711-.217.258-.488.466-.794.609a2.36 2.36 0 0 1-2.06-.026l-2.617-1.3c-.479-.235-1.041-.235-1.52 0l-2.617 1.3a2.36 2.36 0 0 1-2.06.026 2.32 2.32 0 0 1-.794-.609c-.401-.473-.568-1.102-.453-1.711l.5-2.743a1.44 1.44 0 0 0-.458-1.319l-2.118-1.943a2.14 2.14 0 0 1-.636-1.044c-.095-.374-.083-.766.033-1.134a2.23 2.23 0 0 1 1.864-1.531h0l3.258-.4c.509-.063.958-.365 1.208-.813l.975-2.495.009-.016a2.2 2.2 0 0 1 .881-.9 2.39 2.39 0 0 1 1.172-.306zm8.317 8.135a1.41 1.41 0 0 0 .409-1.479 1.57 1.57 0 0 0-1.318-1.069l-2.927-.4a2.28 2.28 0 0 1-1.719-1.18l-1.309-2.5c-.296-.52-.847-.842-1.445-.845s-1.153.313-1.455.829l-.975 2.495-.009.016a2.28 2.28 0 0 1-1.719 1.18h0l-3.258.4a1.57 1.57 0 0 0-1.316 1.068 1.41 1.41 0 0 0 .417 1.486l2.118 1.943a2.1 2.1 0 0 1 .664 1.93l-.5 2.743a1.4 1.4 0 0 0 .308 1.164 1.69 1.69 0 0 0 2.046.413l2.617-1.3a2.39 2.39 0 0 1 2.112 0l2.617 1.3a1.69 1.69 0 0 0 2.046-.413 1.4 1.4 0 0 0 .312-1.146l-.833-2.742v-.019a2.1 2.1 0 0 1 .664-1.93l.009-.008.009-.008z"/><path id="I" d="M92.194 179.504c-2.286-.326-1.633-4.734-3.265-4.408-.437.087-.84.176-.916.762s.681 3.693 2.5 3.952c2.1.3 3.448.15 3.6 1.05a.67.67 0 0 1-.45.6s-2.72 1.491-2.887 3.826a4.43 4.43 0 0 0 .7 3.245c.826.515 1.474.914 1.851.443.653-.816-.326-2.285-.816-4.081s3.116-3.592 3.116-3.592a.73.73 0 0 0 .49-.653c-.168-.981-1.637-.817-3.923-1.144z"/><path id="J" d="M90.272 175.247c-.342-.605-.985-.977-1.68-.972s-1.332.386-1.665.996l-.936 2.43a1.87 1.87 0 0 1-1.41.978l-3.131.39c-.691.067-1.279.532-1.503 1.189s-.042 1.385.465 1.86l2.033 1.891c.438.401.642.997.539 1.582l-.48 2.671c-.119.649.144 1.31.676 1.7-.283-1.054-.205-2.172.221-3.176.961-2.436.961-4.061-.8-4.873s-1.762-2.274 1.122-2.436 3.524-.65 3.844-3.411c.216-1.875 1.683-1.658 2.705-.819z"/></defs><g transform="translate(-634.634 -345.479)"><path d="M763.476 382.343c39.406 0 87.754 48.348 87.754 87.754s-48.348 79.553-87.754 79.553-79.553-40.147-79.553-79.553 40.146-87.754 79.553-87.754zm42.823.298c3.529 11.292 32.816 16.937 44.813 46.577s14.467-6.7-6-26.817-42.345-31.051-38.813-19.76zm-10.17-9.746c-4.747 2.388-6.1 7.241.743 10.266s4.004-12.654-.743-10.266z" fill="#8baeff"/><g fill="url(#A)"><path d="M21.363,24.492a8,8,0,0,1,15.275,0L54.763,82.618A8,8,0,0,1,47.125,93H10.875A8,8,0,0,1,3.237,82.618Z" transform="matrix(.731354 .681998 -.681998 .731354 735.893 454.081)" class="C"/><path d="M21.248,30.392c2.048-8.03,13.455-8.03,15.5,0l18.7,73.328A8,8,0,0,1,47.7,113.7H10.3a8,8,0,0,1-7.752-9.977Z" transform="matrix(.390731 -.920505 .920505 .390731 748.05 493.335)" class="C"/><path d="M15.546,25.782a4,4,0,0,1,7.908,0l14.84,96.766a4,4,0,0,1-3.954,4.606H4.66a4,4,0,0,1-3.954-4.606Z" transform="matrix(.225 .974 -.974 .225 758.53 451.21)" class="C"/><path d="M15.563 22.01a4 4 0 0 1 7.875 0l14.72 82.29a4 4 0 0 1-3.937 4.7H4.779a4 4 0 0 1-3.937-4.7z" transform="matrix(-.190809 -.981627 .981627 -.190809 795.438 470.669)" class="C"/></g><path d="M800.608 449.422a1 1 0 0 1-1-1.732l91.505-59.046a1 1 0 0 1 1.408.342l5.383 9.324a1 1 0 0 1-.408 1.391zm-55.067 13.798a1 1 0 1 1 0 2l-88.936 5.365a1 1 0 0 1-1.06-1v-10.738a1 1 0 0 1 1.06-1z" class="C B"/><use xlink:href="#B" fill="#ffba00"/><path d="M655.104 480.046c.12-10.77-.17-11.72-9.03-5.61-.14.09-.31.14-.45.22-8.91 5.25-8.94 5.3-.06 10.46 2.77 1.6 6.03 4.87 8.67 3.34 2.61-1.51.44-5.89.87-8.41zm-3.62 2.92c-2.144 1.482-3.642-.808-5.743-1.937-.379-.194-.644-.557-.714-.978s.063-.849.359-1.156c1.85-1.887 3.628-3.121 5.558-2.239 1.85.83 1.76 5.47.54 6.31z" fill="#b3c5f0"/><path d="M654.848 385.581c10.749.683 11.713.444 6.075-8.724-.083-.145-.124-.317-.196-.461-4.776-9.173-4.825-9.205-10.443-.607-1.743 2.682-5.179 5.767-3.789 8.483 1.371 2.685 5.859.748 8.353 1.309zm-2.727-3.768c-1.368-2.219.998-3.595 2.235-5.634.214-.369.59-.614 1.014-.662s.845.108 1.136.419c1.788 1.946 2.927 3.786 1.945 5.668-.926 1.804-5.555 1.471-6.33.209z" fill="#ffba00"/><g fill="#b3c5f0"><path d="M883.422 361.954l-2.664-.407c-1.881-.118-2.198-1.029-2.002-2.811.947-8.792.893-8.794-7.67-10.157l-2.666-.43c-4.592-.719-5.988.295-6.77 4.939a22.39 22.39 0 0 0-.407 2.664c-.08 1.989-.927 2.789-2.944 2.246a25.62 25.62 0 0 0-3.039-.505c-4.428-.67-5.457.058-6.297 4.47-.212 1.139-.362 2.287-.543 3.431-1.351 8.533-1.359 8.579 7.064 10.476 1.645.37 2.362.779 2.18 2.722-.821 8.836-.751 8.839 8.006 10.178l2.281.353c4.795.72 5.984-.123 6.808-4.832.9-5.141.9-5.141 6.113-4.347 4.564.7 5.752-.144 6.525-4.626l.543-3.431.483-3.05c.789-5.201.172-6.049-5.003-6.883zm1.216 7.077a11.42 11.42 0 0 0-.256 1.523c-.88 5.559-.88 5.559-6.584 4.655-5.391-.854-5.439-.815-6.34 4.742a6.44 6.44 0 0 0-.173 1.145c.026 3.639-1.416 5.142-5.153 3.812-1.486-.404-3.002-.683-4.534-.836.233-1.871.56-3.733.685-5.606.122-1.756 1.464-3.717-.688-5.182-2.436-1.691-5.383-1.399-8.1-1.963-1.605-.332-2.295-.91-1.771-2.539.032-.125.052-.253.06-.381.884-7.106.915-7.257 7.904-5.979 3.246.6 4.334-.517 4.814-3.545 1.211-7.594 1.944-7.931 9.451-5.679 1.16.348 1.884.736 1.555 2.076a11.45 11.45 0 0 0-.172 1.137c-1.053 8.08-1.063 8.141 7.143 9.683 1.88.355 2.84.906 2.159 2.94z"/><use xlink:href="#B" x="-110" y="-190"/></g></g><g transform="matrix(.719 .695 -.695 .719 170.05 35.071)" fill="#f8d008"><path d="M36.275 44.71c-.264 0-.529-.035-.785-.105L23 41.226l-12.49 3.379c-.257.069-.521.105-.785.105-1.605 0-2.921-1.257-2.995-2.862l-.588-12.674-7.096-10.581a2.98 2.98 0 0 1-.363-2.595 2.98 2.98 0 0 1 1.814-1.89l12.095-4.471 8.079-9.944a2.99 2.99 0 0 1 4.657 0l8.079 9.944 12.095 4.471a2.98 2.98 0 0 1 1.451 4.485l-7.096 10.581-.588 12.674c-.074 1.605-1.39 2.861-2.995 2.862z"/><path d="M23 .586c-.288 0-.576.123-.776.369l-8.251 10.156a1 1 0 0 1-.429.307L1.191 15.984a1 1 0 0 0-.484 1.495l7.251 10.813a1 1 0 0 1 .168.511l.601 12.953a1 1 0 0 0 1.26.919l12.751-3.45a1 1 0 0 1 .522 0l12.751 3.45a1 1 0 0 0 1.26-.919l.601-12.953a1 1 0 0 1 .168-.511l7.251-10.813a1 1 0 0 0-.484-1.495l-12.352-4.566a1 1 0 0 1-.429-.307L23.776.955c-.2-.246-.488-.369-.776-.369m0-4a4.98 4.98 0 0 1 3.881 1.847l7.733 9.519 11.582 4.281a4.97 4.97 0 0 1 3.024 3.15 4.97 4.97 0 0 1-.604 4.324L41.83 29.824l-.562 12.117c-.124 2.674-2.317 4.769-4.993 4.769a5.01 5.01 0 0 1-1.307-.174L23 43.298l-11.968 3.238a5.01 5.01 0 0 1-1.308.174c-2.676 0-4.869-2.095-4.993-4.769L4.17 29.824-2.615 19.707a4.97 4.97 0 0 1-.604-4.324 4.97 4.97 0 0 1 3.024-3.15l11.582-4.281 7.733-9.519A4.98 4.98 0 0 1 23-3.414z" class="B"/></g><path d="M207.14 101.887l-45.232 81.554-51.249-25.913-4.962-2.508-64.407-32.574-6.147-22.719 24.761-46.369 16.941-5.339 11.733-3.7 106.418 51.667z" fill="#5fbe5f"/><path d="M194.996 95.987l-84.336 61.542-4.962-2.508-28.852-107 11.733-3.7z" fill="#3ba13b"/><path d="M89.263 49.803l111.023 56.2 2.056-2.741L89.948 47.747zm-46.602 69.218l118.562 60.994 2.741-4.8-119.247-58.25z" fill="#dee8ff"/><circle cx="72.301" cy="86.521" r="10.965" fill="#3ba13b"/><circle cx="72.302" cy="86.522" r="8.567" fill="#207e20"/><g transform="matrix(.883 .469 -.469 .883 2547.567 -3204.765)"><rect width="21" height="42.954" rx="10.5" x="-611.239" y="4045.276" class="B"/><use xlink:href="#C" fill="#e8ab07"/><use xlink:href="#D" fill="#fd0"/></g><g transform="matrix(.891 .454 -.454 .891 2526.388 -3227.838)"><rect width="21" height="42.954" rx="10.5" x="-611.239" y="4045.276" class="B"/><use xlink:href="#C" fill="#e8ab07"/><use xlink:href="#D" fill="#fd0"/></g><g class="D"><use xlink:href="#E"/><use xlink:href="#F" class="B"/></g><use xlink:href="#G" class="E"/><use xlink:href="#H" class="B"/><use xlink:href="#I" class="F"/><use xlink:href="#J" class="G"/><g class="D"><use xlink:href="#E" x="45.005"/><use xlink:href="#F" x="45.005" class="B"/></g><use xlink:href="#G" x="45.005" class="E"/><use xlink:href="#H" x="45.005" class="B"/><use xlink:href="#I" x="45.005" class="F"/><use xlink:href="#J" x="45.005" class="G"/><g class="D"><use xlink:href="#E" x="22.502"/><use xlink:href="#F" x="22.502" class="B"/></g><use xlink:href="#G" x="22.502" class="E"/><use xlink:href="#H" x="22.502" class="B"/><use xlink:href="#I" x="22.502" class="F"/><use xlink:href="#J" x="22.502" class="G"/><g class="D"><use xlink:href="#E" x="67.507"/><use xlink:href="#F" x="67.507" class="B"/></g><use xlink:href="#G" x="67.507" class="E"/><use xlink:href="#H" x="67.507" class="B"/><use xlink:href="#I" x="67.507" class="F"/><use xlink:href="#J" x="67.507" class="G"/><g class="D"><path d="M183.529 192.714a2.64 2.64 0 0 1-1.255-.319l-2.94-1.569c-.241-.128-.512-.196-.784-.196s-.543.068-.785.196l-2.94 1.569c-.397.212-.819.319-1.255.319a2.69 2.69 0 0 1-2.653-3.187l.562-3.322c.095-.561-.088-1.132-.489-1.529l-2.378-2.353c-.742-.734-1-1.809-.674-2.805.322-.983 1.152-1.687 2.166-1.837l3.288-.484c.55-.082 1.026-.433 1.273-.941l1.47-3.022a2.67 2.67 0 0 1 4.829 0l1.47 3.022c.247.507.723.859 1.274.94l3.287.484c1.014.15 1.844.854 2.167 1.837.327.996.068 2.071-.674 2.805l-2.379 2.353c-.401.396-.583.968-.489 1.529l.562 3.322a2.69 2.69 0 0 1-2.652 3.187z"/><path d="M178.548 172.214a2.16 2.16 0 0 0-1.965 1.24l-1.47 3.022c-.319.656-.936 1.11-1.65 1.216l-3.288.484c-1.797.265-2.515 2.505-1.214 3.792l2.378 2.353c.516.51.752 1.246.63 1.967l-.562 3.322c-.307 1.816 1.573 3.2 3.179 2.344l2.94-1.569c.639-.34 1.401-.34 2.04 0l2.94 1.569c1.606.858 3.486-.527 3.179-2.344l-.562-3.322c-.122-.721.114-1.457.63-1.967l2.379-2.353c1.301-1.287.583-3.527-1.214-3.792l-3.287-.484c-.714-.106-1.331-.561-1.65-1.216l-1.47-3.022a2.16 2.16 0 0 0-1.965-1.24m0-1c1.226 0 2.323.691 2.864 1.802l1.47 3.022c.175.359.51.607.897.665l3.286.484c1.203.177 2.187 1.011 2.569 2.176.386 1.178.081 2.448-.797 3.316l-2.379 2.353c-.285.282-.415.689-.347 1.09l.562 3.321c.16.947-.099 1.905-.711 2.628s-1.501 1.143-2.435 1.143a3.14 3.14 0 0 1-1.491-.378l-2.94-1.569c-.169-.09-.359-.137-.549-.137s-.38.048-.549.137l-2.94 1.569c-.47.251-.972.378-1.49.378a3.19 3.19 0 0 1-2.435-1.143c-.611-.723-.87-1.681-.71-2.627l.562-3.322a1.24 1.24 0 0 0-.347-1.089l-2.378-2.353c-.878-.868-1.183-2.139-.797-3.316a3.18 3.18 0 0 1 2.568-2.176l3.288-.484c.386-.057.722-.306.897-.665l1.47-3.022c.54-1.111 1.638-1.802 2.864-1.802z" class="B"/></g><path d="M180.272 174.964l1.29 2.5a1.92 1.92 0 0 0 1.448 1l2.884.4c.71.068 1.314.546 1.544 1.222s.043 1.423-.478 1.91l-2.416 1.943c-.45.412-.658 1.024-.553 1.625l.822 2.743c.096.71-.213 1.414-.802 1.823s-1.357.452-1.988.113l-2.58-1.3a2 2 0 0 0-1.789 0l-2.58 1.3c-.631.339-1.399.295-1.988-.113s-.898-1.113-.802-1.823l.492-2.743c.105-.6-.103-1.213-.552-1.625l-2.088-1.943c-.521-.487-.708-1.235-.478-1.91s.834-1.153 1.544-1.222l3.214-.4a1.92 1.92 0 0 0 1.448-1l.961-2.5c.344-.63 1.005-1.022 1.724-1.022s1.379.392 1.724 1.022z" class="B"/><path d="M180.252 174.936c-.351-.621-1.011-1.003-1.724-.998s-1.367.396-1.709 1.022l-.961 2.5a1.92 1.92 0 0 1-1.448 1l-3.214.4c-.71.069-1.313.547-1.543 1.222s-.043 1.422.477 1.909l2.088 1.943c.449.412.658 1.025.552 1.625l-.492 2.743a1.77 1.77 0 0 0 .693 1.743 5.02 5.02 0 0 1 .227-3.263c.987-2.5.987-4.171-.822-5s-1.809-2.335 1.151-2.5 3.618-.667 3.947-3.5c.227-1.928 1.733-1.705 2.778-.846z" fill="#dedede"/></svg>
