<svg xmlns="http://www.w3.org/2000/svg" width="75.522" height="77.095" ><defs><filter id="A" x="8" y="7.816" width="59.522" height="61.095" filterUnits="userSpaceOnUse"><feOffset dy="6"/><feGaussianBlur result="A"/><feFlood flood-color="#f80"/><feComposite operator="in" in2="A"/><feComposite in="SourceGraphic"/></filter></defs><g transform="translate(-.5 -.184)"><rect width="75.522" height="77.095" rx="37.761" fill="#ffba00" opacity=".3" x=".5" y=".184"/><g transform="translate(.5 .18)" filter="url(#A)"><rect width="59.522" height="55.095" rx="27.548" transform="translate(8 7.82)" fill="#ffba00"/></g><g fill="#fff"><path d="M38.724 57.277c-3.724 0-7.328-1.129-10.713-3.356-2.801-1.843-5.513-4.483-8.062-7.847-3.122-4.121-2.418-7.09-1.721-8.493 1.045-2.103 3.399-3.462 5.996-3.462.417 0 .836.036 1.244.106 2.2.382 3.256 2.727 4.374 5.21 1.606 3.567 3.426 7.61 8.796 7.61a12.6 12.6 0 0 0 1.435-.086c4.753-.583 7.91-1.988 9.651-4.295 1.539-2.038 1.83-4.606 1.916-7.076.113-3.23-2.841-5.795-5.935-7.032-.299 1.051-.606 1.97-.902 2.698-.542 1.333-1.029 2.017-1.625 2.286-.229.104-.491.156-.778.156-1.232 0-2.899-.977-4.08-1.797-1.601-1.111-3.186-2.555-4.347-3.964-1.783-2.163-2.555-4.183-2.233-5.843.511-2.627 3.764-4.673 5.658-5.659 2.651-1.38 5.679-2.308 7.535-2.308.837 0 1.444.184 1.855.563.506.466.737 1.307.749 2.728.007.831-.059 1.843-.199 3.015.213.063.523.136.877.218 1.764.413 5.047 1.181 7.786 3.484 3.353 2.821 4.949 7.091 4.741 12.692-.247 6.666-2.19 11.529-5.94 14.867-1.605 1.429-3.518 2.563-5.847 3.467-1.904.739-4.118 1.329-6.768 1.805a19.7 19.7 0 0 1-3.463.314z"/><path d="M38.724 56.277c1.062 0 2.158-.096 3.287-.298 9.207-1.651 17.221-5.376 17.732-19.191s-10.496-14.685-12.79-15.431c-.235-.076-.473-.148-.715-.215.392-2.82.449-5.188-.128-5.719-1.561-1.438-12.553 2.557-13.389 6.859s8.227 11.167 10.044 10.345c.678-.306 1.532-2.574 2.256-5.374 4.022 1.237 7.755 4.413 7.617 8.368-.184 5.31-1.312 10.965-12.449 12.33a13.54 13.54 0 0 1-1.553.093c-9.842 0-9.026-12.086-13.341-12.835-4.531-.784-9.643 3.537-4.55 10.26 4.469 5.899 10.377 10.807 17.977 10.807m0 2c-7.156 0-13.741-3.903-19.572-11.599-3.448-4.551-2.62-7.932-1.82-9.542 1.213-2.44 3.918-4.017 6.891-4.017a8.32 8.32 0 0 1 1.415.121c1.318.229 2.417 1.011 3.36 2.392.667.976 1.195 2.15 1.755 3.394 1.909 4.241 3.489 7.021 7.884 7.021a11.58 11.58 0 0 0 1.316-.079c9.589-1.177 10.513-5.412 10.686-10.413.057-1.618-.88-2.923-1.676-3.732-.719-.732-1.62-1.375-2.63-1.888-.203.635-.406 1.207-.606 1.697-.648 1.592-1.288 2.436-2.14 2.821a2.87 2.87 0 0 1-1.189.245c-1.197 0-2.761-.665-4.651-1.975-1.698-1.178-3.314-2.652-4.548-4.149-2.008-2.435-2.83-4.679-2.443-6.67.561-2.887 3.669-5.05 6.178-6.355 2.824-1.471 5.963-2.421 7.997-2.421 1.1 0 1.928.271 2.533.828.736.678 1.057 1.711 1.072 3.455.006.655-.032 1.413-.112 2.264 1.863.436 5.298 1.239 8.219 3.697 3.601 3.03 5.316 7.57 5.097 13.495-.131 3.546-.752 6.672-1.845 9.291-1.032 2.474-2.523 4.588-4.43 6.286-1.696 1.51-3.708 2.704-6.15 3.652-1.964.762-4.239 1.37-6.954 1.856a20.67 20.67 0 0 1-3.64.33z" fill="#f80"/></g><path d="M20.747 45.47c-5.093-6.722.02-11.045 4.551-10.259.477.088.919.311 1.274.641-1.719.535-6.76 2.575-3.983 7.5 3.319 5.884 10.562 12.373 20.519 10.637s13.051-4.9 14.485-13.5a29.33 29.33 0 0 1 2.016-7.179 21.79 21.79 0 0 1 .134 3.482c-.512 13.815-8.525 17.54-17.733 19.191a18.59 18.59 0 0 1-3.287.3c-7.599-.006-13.507-4.914-17.976-10.813zm18.742-13.996a33.09 33.09 0 0 0 2.749-3.893c.981-1.8 1.707-1.55 2.994-.261l-.209-.066c-.724 2.8-1.578 5.068-2.256 5.374a.89.89 0 0 1-.366.068 6.63 6.63 0 0 1-2.912-1.222z" fill="#dee8ff"/></g></svg>
