<svg xmlns="http://www.w3.org/2000/svg" width="180" height="80" ><defs><filter id="A" x="27.52" y="26.606" width="25.96" height="25.097" filterUnits="userSpaceOnUse"><feOffset dx="1" dy="1"/><feGaussianBlur result="A"/><feFlood flood-color="#215d21"/><feComposite operator="in" in2="A"/><feComposite in="SourceGraphic"/></filter></defs><g transform="translate(-1669 -31)"><g fill="#5fbe5f" stroke="#86df86"><rect width="160" height="60" rx="30" stroke="none" x="1679" y="41"/><rect x="1674" y="36" width="170" height="70" rx="35" fill="none" stroke-width="10"/></g><rect width="36" height="36" rx="18" fill="#448b44" x="1691" y="53"/><g transform="translate(1669 31)" filter="url(#A)"><g transform="translate(29 28)" fill="#ffd500"><path d="M16.858 21.703c-.18 0-.36-.024-.534-.073L11 20.159 5.676 21.63c-.175.048-.354.073-.534.073-1.071 0-1.948-.839-1.996-1.91l-.252-5.543L-.15 9.614a1.99 1.99 0 0 1-.23-1.716A1.99 1.99 0 0 1 .815 6.645l5.174-1.953L9.435.361a1.99 1.99 0 0 1 3.13 0l3.446 4.331 5.174 1.953a1.99 1.99 0 0 1 1.196 1.253 1.99 1.99 0 0 1-.23 1.716l-3.045 4.636-.252 5.543c-.049 1.071-.925 1.91-1.996 1.91z"/><path d="M11 .606c-.291 0-.582.126-.783.377L6.772 5.315a1 1 0 0 1-.429.313L1.168 7.58a1 1 0 0 0-.483 1.485l3.045 4.636a1 1 0 0 1 .163.504l.252 5.543a1 1 0 0 0 1.265.919l5.324-1.471a1 1 0 0 1 .533 0l5.324 1.471a1 1 0 0 0 1.265-.919l.252-5.543a1 1 0 0 1 .163-.504l3.045-4.636a1 1 0 0 0-.483-1.485l-5.174-1.953a1 1 0 0 1-.429-.313L11.783.984c-.2-.252-.491-.377-.783-.377m0-2c.919 0 1.775.413 2.348 1.132l3.274 4.115 4.916 1.856c.857.323 1.51 1.008 1.794 1.879s.157 1.809-.345 2.575l-2.894 4.406-.239 5.269c-.073 1.606-1.389 2.864-2.995 2.864-.27 0-.539-.037-.801-.109L11 21.197l-5.057 1.397c-.261.072-.531.109-.801.109-1.607 0-2.922-1.258-2.995-2.864l-.239-5.269-2.894-4.406c-.503-.765-.629-1.704-.345-2.575S-.395 6.033.462 5.709l4.916-1.856L8.652-.262c.572-.72 1.428-1.132 2.348-1.132z" fill="#fff4b9"/></g></g></g></svg>
