<svg xmlns="http://www.w3.org/2000/svg" width="118.585" height="125.12" ><defs><linearGradient id="A" x1=".5" x2=".5" y2="1"><stop offset="0" stop-color="#fd0"/><stop offset="1" stop-color="#ffba00"/></linearGradient><filter id="B" x="19.765" y="0" width="75.047" height="80.527" filterUnits="userSpaceOnUse"><feOffset dx="2" dy="2"/><feGaussianBlur result="A"/><feFlood flood-color="#0f426d" flood-opacity=".149"/><feComposite operator="in" in2="A"/><feComposite in="SourceGraphic"/></filter><filter id="C" x="0" y="93.724" width="118.585" height="31.396" filterUnits="userSpaceOnUse"><feOffset dx="3" dy="3"/><feGaussianBlur result="A"/><feFlood flood-opacity=".161"/><feComposite operator="in" in2="A"/><feComposite in="SourceGraphic"/></filter></defs><g transform="translate(-350.229 -1081.969)"><g transform="translate(371 1083)"><g transform="translate(-20.77 -1.03)" filter="url(#B)"><path d="M-595.994 123.424s2.178-26.135 28.313-29.4 44.647 23.957 42.469 39.2-17.423 37.024-39.2 37.024-32.671-33.525-31.582-46.824z" transform="translate(616.84 -92.72)" stroke="#fdfdff" stroke-width="2" fill="url(#A)"/></g><g fill="#fcffb1"><path d="M41.869 1.869c-19.027-4.157 0 16 10.207 17.264s16.507 20.792 8.568 22.3-16.254 27.343-8.568 25.326 16.507-17.261 17.263-27.847-8.44-32.884-27.47-37.043z" opacity=".5"/><path d="M54.039 16.539c1.527.409-2.057-6.539-9.966-9.21s8.435 8.799 9.966 9.21z"/></g><path d="M.075 29.671S1.711 10.066 19.129 2.694l.3.053s-27.7 30.879-4.279 54.941 38.759 5.324 47.277-6.389 7.665-17.674 7.665-17.674l.908 2.16a18.92 18.92 0 0 1-.143 3.688c-2.176 15.242-17.422 37.021-39.2 37.021S-1.014 42.97.075 29.671z" fill="#fff"/><path d="M1.554 28.835S3.118 10.912 19.768 4.177l.286.047s-26.482 28.227-4.09 50.221 37.05 4.868 45.192-5.842 7.328-16.152 7.328-16.152l.868 1.973c.069 1.125.024 2.255-.136 3.371-2.081 13.934-16.655 33.841-37.473 33.841S.514 40.989 1.554 28.835z" fill="#f90"/><g fill="#fcffb1"><path d="M12.331 14.769c0-1.778-6.252 4.131-6.825 13.479s6.825-11.7 6.825-13.479z"/><path d="M5.326 51.193c1.049-4.233 13.559-5.599 25.375 6.699s-9.49 16.983-9.49 16.983S4.276 55.427 5.326 51.193z" opacity=".5"/></g></g><g transform="matrix(.848 .53 -.53 .848 1618.421 -7425.114)" fill="#fff"><path d="M3506.215 7905.342a5.78 5.78 0 0 1-.524-.023c-1.744-.153-3.286-1.258-5.063-2.869-.611-.553-4.746-5.122-7.828-9.567-1.005-1.45-1.917-2.878-2.695-4.156a22.58 22.58 0 0 1-2.275 3.993c-.328.461-1.323 1.865-2.892 1.865-.583 0-2.014-.219-2.693-2.251-.789-2.361-.432-6.825.114-9.93.355-2.022.847-3.885 1.423-5.386.75-1.957 1.623-3.29 2.667-4.075 1.261-.949 3.112-1.431 5.5-1.431 2.532 0 5.688.552 8.659 1.513 1.801.583 5.016 1.808 6.321 3.463.821 1.041.747 2.013.63 2.5-.161.668-.637 1.595-1.988 2.225-.623.291-1.411.51-2.41.673-1.168.19-2.52.286-3.899.355l2.678 3.569c2.207 2.999 4.214 5.866 5.651 8.072 2.5 3.835 3.098 5.339 3.252 6.519.141 1.068-.078 2.087-.633 2.947-.491.761-1.226 1.349-2.07 1.656-.611.224-1.258.337-1.923.337z"/><path d="M3506.215 7903.342c.432 0 .848-.073 1.238-.216.821-.299 1.575-1.178 1.404-2.463-.099-.762-.526-1.976-2.945-5.688l-5.586-7.978-5.022-6.574c4.124-.249 9.879-.122 10.309-1.901.585-2.434-13.85-7.074-17.962-3.979s-5.47 22.686-1.452 17.021c2.246-3.167 2.869-5.751 3.458-7.613 1.182 2.168 2.869 5.025 4.787 7.793 3.066 4.423 7.131 8.866 7.527 9.225 1.751 1.587 2.88 2.27 3.897 2.358.116.011.232.016.347.016m0 4a7.8 7.8 0 0 1-.704-.032c-2.434-.216-4.431-1.751-6.226-3.378-.666-.602-4.904-5.258-8.129-9.91l-.902-1.331a26.12 26.12 0 0 1-.793 1.186c-1.275 1.797-2.797 2.708-4.523 2.708-1.332 0-2.563-.566-3.464-1.594-.489-.558-.857-1.219-1.126-2.023-1.14-3.415-.257-9.214.041-10.91.377-2.146.905-4.137 1.525-5.755.889-2.318 1.979-3.94 3.333-4.958 1.615-1.215 3.87-1.832 6.701-1.832 2.733 0 6.113.587 9.275 1.61 3.583 1.16 6.031 2.549 7.276 4.127.995 1.263 1.352 2.757 1.003 4.206-.217.899-.906 2.553-3.088 3.57-.792.369-1.751.642-2.934.834l-.447.067.515.697c2.229 3.029 4.259 5.929 5.716 8.167 2.716 4.167 3.363 5.852 3.559 7.348.393 2.97-1.252 5.743-4 6.745-.83.303-1.708.458-2.608.458z" fill="#f80"/></g><g transform="translate(350.23 1081.97)" filter="url(#C)"><g transform="translate(56.77 118.03)" fill="#0f426d"><path d="M53.101 2.089c-.177 0-.358-.012-.537-.037-.985-.135-1.832-.616-2.452-1.39l-.013-.016-.013-.016-3.618-4.719L42.552.681l-.008.01-.008.01c-.628.745-1.484 1.2-2.477 1.315l-.038.004-.038.003-.313.012a3.77 3.77 0 0 1-2.378-.837 3.62 3.62 0 0 1-1.371-2.529 3.63 3.63 0 0 1 .861-2.75l5.047-6.122-2.213-3.046c-.021.756-.165 1.52-.432 2.287-.496 1.425-1.431 2.657-2.779 3.662-1.597 1.192-3.761 1.796-6.431 1.796-.496 0-1.055-.022-1.668-.065v3.857A3.55 3.55 0 0 1 27.23.952c-.712.712-1.613 1.098-2.607 1.117h-.077A3.62 3.62 0 0 1 21.938.98c-.348-.348-.618-.743-.803-1.172-.182.415-.443.795-.779 1.13-.713.713-1.628 1.09-2.646 1.09-2.946 0-6.778-.047-11.392-.14-1.019-.006-1.932-.394-2.641-1.123S2.605-.893 2.634-1.914c.002-.168.013-.333.035-.496l-.208-1.906c-.3 1.083-.833 2.086-1.587 2.984C.065-.369-.922.408-2.06.977l-.038.019-.039.017c-.65.292-1.351.529-2.083.707-.742.18-1.553.288-2.41.321a39.89 39.89 0 0 1-1.502.033c-.147 0-.288-.001-.42-.004-.502-.01-1.152-.039-1.932-.087l-1.385-.096a3.27 3.27 0 0 1-1.006-.196 3.66 3.66 0 0 1-1.96-1.067 3.89 3.89 0 0 1-.124-.134A3.75 3.75 0 0 1-16.46 1.7c-.482.215-.985.325-1.494.325a3.68 3.68 0 0 1-1.422-.29C-20.3 1.349-20.996.669-21.39-.234h0l-1.319-3.012-.178.008-.016.001h-.016l-.959.027-.755.054-.459.034a6.05 6.05 0 0 1-.654.026h-.351l-.339.012a9.42 9.42 0 0 1-.374.009c-.14 0-.257-.005-.365-.015a4.48 4.48 0 0 0-.106-.003c-.387.896-.731 1.777-1.028 2.63l-.008.023-.008.023a3.71 3.71 0 0 1-1.906 2.082 3.69 3.69 0 0 1-1.603.369c-.417 0-.836-.072-1.246-.214-.753-.261-1.37-.721-1.812-1.345-.123.173-.261.337-.416.491-.713.713-1.628 1.09-2.646 1.09s-1.933-.377-2.646-1.09-1.09-1.628-1.09-2.646l.029-5.12-2.625-.02-2.551-.02.184 4.933a3.58 3.58 0 0 1-.96 2.73c-.679.737-1.569 1.158-2.574 1.216-.076.004-.153.007-.229.007-.94 0-1.805-.339-2.501-.98a3.67 3.67 0 0 1-1.203-2.591c-.092-1.634-.195-4.448-.305-8.364-.041-.24-.061-.482-.061-.722a5.15 5.15 0 0 1 .025-.508l-.299-6.993c-.076-1.019.238-1.963.907-2.731a3.65 3.65 0 0 1 2.596-1.27 4.05 4.05 0 0 1 .232-.007 3.71 3.71 0 0 1 2.471.93c.772.673 1.206 1.568 1.256 2.59.084 1.095.163 2.522.236 4.26l2.797.021 2.818.021.235-4.428c.047-1.028.481-1.929 1.257-2.605a3.71 3.71 0 0 1 2.471-.93c.077 0 .155.002.232.007a3.65 3.65 0 0 1 2.596 1.27c.668.766.982 1.707.908 2.723-.238 3.877-.386 8.03-.444 12.388l.297-.717.002-.004.002-.004 1.904-4.536 1.567-3.749.003-.008.004-.008a41.38 41.38 0 0 0 .651-1.662l.522-1.431.017-.051.02-.05c.272-.692.504-1.216.709-1.603l.001-.003.001-.003c.229-.429.479-.784.765-1.082.983-1.127 2.117-1.366 2.901-1.366a4.12 4.12 0 0 1 .825.086l.005.001.005.001c.715.15 1.356.487 1.905.999l.025.024.024.024a4.2 4.2 0 0 1 .573.72 8.03 8.03 0 0 1 .464.818c.22.42.457.956.725 1.635l.005.012.005.012.924 2.436.004.01.004.011 3.359 8.785c-.068-3.743-.063-7.578.015-11.452.005-.861.292-1.663.83-2.321.522-.638 1.209-1.067 1.993-1.247a2.53 2.53 0 0 1 .433-.078l.701-.117c.742-.153 1.014-.194 1.201-.209.034-.003.207-.023.866-.124.675-.103 1.126-.149 1.464-.149.137 0 .424-.005 1.018-.027a11.81 11.81 0 0 1 .435-.008c.464 0 .863.031 1.219.093l.022.004.022.004 1.12.224.026.005.025.006c.51.116 1.007.27 1.475.457l.039.016.039.017a9.4 9.4 0 0 1 1.325.729c1.383.864 2.407 1.949 3.045 3.224a6.53 6.53 0 0 1 .575 1.654l.015-1.714c-.035-.227-.053-.46-.053-.697 0-1 .382-1.91 1.104-2.632.705-.705 1.599-1.077 2.586-1.077a3.92 3.92 0 0 1 .116.002l11.606.028c1.018 0 1.933.377 2.646 1.09a3.75 3.75 0 0 1 .65.866c.107-.15.227-.293.358-.429.632-.988 1.616-1.582 2.806-1.687.117-.01.234-.016.35-.016a3.74 3.74 0 0 1 1.271.219 33.21 33.21 0 0 1 1.61-.202 36.81 36.81 0 0 1 2.269-.134c.149-.005.298-.007.445-.007.844 0 1.665.082 2.44.245.913.192 1.78.485 2.577.872l.018.009.018.009A8.44 8.44 0 0 1 37-19.447c.249-.838.772-1.533 1.528-2.025a3.67 3.67 0 0 1 2.032-.613c.249 0 .503.025.754.076.968.194 1.773.713 2.33 1.503l2.958 4.119a82.88 82.88 0 0 0 2.82-4.168l.026-.041.028-.039a3.74 3.74 0 0 1 2.323-1.522c.279-.06.561-.091.836-.091.687 0 1.339.183 1.936.544.874.529 1.453 1.34 1.674 2.346.211.961.059 1.917-.441 2.763l-.025.042-.027.041a134.33 134.33 0 0 1-4.505 6.392L56.06-3.85l.007.009.007.009a3.63 3.63 0 0 1 .703 2.737 3.6 3.6 0 0 1-1.472 2.457 3.71 3.71 0 0 1-2.204.726zM9.882-5.522l7.828.078c1.018 0 1.933.377 2.646 1.09.179.179.336.37.472.573l-.008-1.413-.014-3.794a89.53 89.53 0 0 0-.082-3.697l-.172-3.1c-.067-.1-.129-.202-.186-.308a3.83 3.83 0 0 1-.429.51c-.713.713-1.628 1.09-2.646 1.09H9.417l.005.412 7.025-.099c.044-.002.088-.002.132-.002a3.63 3.63 0 0 1 2.534 1.026 3.65 3.65 0 0 1 1.17 2.631c.02 1.003-.339 1.923-1.038 2.661-.711.75-1.629 1.15-2.657 1.156l-6.798.113.091 1.073zm-18.447.226l.542.006a24.43 24.43 0 0 0 .79-.013c1.058-.034 1.628-.198 1.922-.333.583-.297.658-.568.687-.691.002-.01.003-.018.004-.023a.98.98 0 0 0-.212-.236l-.05-.044-.047-.047a2.47 2.47 0 0 0-.147-.137c-.258-.033-.353-.034-.357-.034-.075 0-.297.003-.935.027l-1.233.029c-.071.005-.142.007-.212.007a3.15 3.15 0 0 1-.563-.051l-.222.002.032 1.538zm9.521-5.951a8.05 8.05 0 0 1 1.116 1.756 117.32 117.32 0 0 1-.141-4.203 6.17 6.17 0 0 1-.09.413c-.179.703-.475 1.382-.885 2.035zm27.246-1.873a17.44 17.44 0 0 0 1.8.116c1.414 0 1.875-.262 1.943-.305.073-.058.099-.104.119-.197.009-.041.032-.148-.096-.391-.07-.133-.207-.332-.593-.525l-.025-.013-.025-.013c-.281-.151-.659-.248-1.122-.289a10.8 10.8 0 0 0-.946-.045 6.9 6.9 0 0 0-.659.029l-.464.05.067 1.583zm-36.836-1.719l-.008.624.344-.005c.115-.005.35-.021.824-.064.326-.03.601-.069.818-.116.162-.036.331-.09.5-.163.073-.035.14-.069.202-.102-.362-.137-.817-.21-1.359-.22l-.218-.002a13.06 13.06 0 0 0-1.102.047z"/><path d="M53.101.089c.372 0 .713-.114 1.023-.341.383-.28.607-.653.672-1.12a1.64 1.64 0 0 0-.322-1.26l-5.74-7.476 5.348-7.504c.243-.411.313-.849.21-1.316a1.59 1.59 0 0 0-.756-1.064c-.401-.243-.84-.313-1.316-.21s-.845.341-1.106.714l-4.536 6.496-4.564-6.356c-.261-.373-.625-.607-1.092-.7a1.69 1.69 0 0 0-1.302.252c-.401.261-.649.621-.742 1.078s-.009.891.252 1.302l5.236 7.28L38.318-2.8c-.317.373-.453.798-.406 1.274s.257.863.63 1.162.803.429 1.288.392c.485-.056.877-.261 1.176-.616l5.516-6.72 5.152 6.72a1.74 1.74 0 0 0 1.162.658 1.95 1.95 0 0 0 .265.019M-8.131.074l1.425-.031c.728-.028 1.4-.117 2.016-.266s1.195-.345 1.736-.588A7.12 7.12 0 0 0-.658-2.618a5.85 5.85 0 0 0 1.26-2.506c.243-.971.205-1.951-.112-2.94-.317-.952-.887-1.811-1.708-2.576l-.532-.42c.859-.859 1.409-1.764 1.652-2.716s.126-1.904-.35-2.856-1.255-1.764-2.338-2.436c-.336-.224-.691-.42-1.064-.588-.373-.149-.765-.271-1.176-.364l-1.12-.224c-.317-.056-.728-.075-1.232-.056l-1.092.028c-.224 0-.611.042-1.162.126l-1.008.14c-.121.009-.453.07-.994.182l-.84.14a.53.53 0 0 0-.168.028c-.373.075-.686.266-.938.574a1.65 1.65 0 0 0-.378 1.078c-.112 5.544-.075 10.929.112 16.156a1.5 1.5 0 0 0 .448 1.078 1.65 1.65 0 0 0 1.064.518 1.3 1.3 0 0 0 .588.14c.168.019.63.051 1.386.098s1.372.075 1.848.084l.381.003m-2.495-8.949c.075 0 .467.009 1.176.028s1.129.019 1.26 0a1.17 1.17 0 0 0 .504.056A35.84 35.84 0 0 0-6.44-8.82l1.008-.028c.159 0 .378.019.658.056s.509.112.686.224a3.42 3.42 0 0 1 .574.476c.747.653 1.027 1.391.84 2.212-.205.877-.793 1.559-1.764 2.044-.672.317-1.582.495-2.73.532s-2.263 0-3.346-.112l-.112-5.46m3.094-8.01l.252.002c1.092.019 1.993.243 2.702.672.933.579 1.325 1.111 1.176 1.596-.056.317-.252.644-.588.98s-.784.635-1.344.896c-.299.131-.597.229-.896.294s-.653.117-1.064.154l-.91.07a24.74 24.74 0 0 1-1.218 0l-1.232-.014.056-4.34c1.034-.207 2.056-.31 3.066-.31M24.547.07h.037c.476-.009.887-.187 1.232-.532a1.57 1.57 0 0 0 .49-1.218v-6.104l1.204.14c.952.093 1.773.14 2.464.14 2.24 0 3.985-.467 5.236-1.4 1.027-.765 1.722-1.671 2.086-2.716s.42-2.058.168-3.038-.7-1.895-1.344-2.744-1.405-1.498-2.282-1.946a9.09 9.09 0 0 0-2.114-.714 10.08 10.08 0 0 0-2.408-.196c-.849.028-1.563.07-2.142.126s-1.279.149-2.1.28a1.79 1.79 0 0 0-1.148-.28c-.635.056-1.101.373-1.4.952-.467.392-.663.905-.588 1.54.056.429.243.784.56 1.064.093 1.195.168 2.464.224 3.808a91.1 91.1 0 0 1 .084 3.78l.014 3.78.014 3.528a1.7 1.7 0 0 0 .518 1.246c.336.336.734.504 1.195.504m4.711-16.853c.351 0 .725.018 1.122.053.737.065 1.367.238 1.89.518.672.336 1.162.798 1.47 1.386s.401 1.167.28 1.736a2.29 2.29 0 0 1-.882 1.386c-.635.467-1.68.7-3.136.7-.579 0-1.288-.047-2.128-.14l-.882-.084-.742-.084c-.037-1.867-.112-3.575-.224-5.124 1.008-.149 1.801-.252 2.38-.308.267-.026.551-.039.852-.039M-37.954.056c.485 0 .896-.168 1.232-.504s.504-.747.504-1.232c0-5.973.159-11.545.476-16.716a1.67 1.67 0 0 0-.42-1.274c-.317-.364-.719-.56-1.204-.588s-.91.117-1.274.434-.555.719-.574 1.204c-.131 2.035-.233 4.144-.308 6.328-1.064 0-2.651-.009-4.76-.028l-4.704-.028-.308-6.132c-.019-.485-.21-.887-.574-1.204s-.789-.462-1.274-.434-.887.224-1.204.588a1.67 1.67 0 0 0-.42 1.274c.112 1.624.215 4.032.308 7.224-.019.131-.028.271-.028.42 0 .168.019.336.056.504l.308 8.484a1.68 1.68 0 0 0 .56 1.218c.355.327.775.476 1.26.448a1.73 1.73 0 0 0 1.218-.574 1.6 1.6 0 0 0 .434-1.26l-.252-7.056 4.634.028 4.634.028-.056 7.112c0 .485.168.896.504 1.232s.747.504 1.232.504m6.12-.022a1.7 1.7 0 0 0 .74-.174c.429-.205.728-.532.896-.98.448-1.288.989-2.613 1.624-3.976h.896c.373 0 .602.005.686.014s.243.009.476 0l.406-.014h.364c.205 0 .35-.005.434-.014s.266-.023.546-.042l.784-.056 1.008-.028a41.4 41.4 0 0 0 1.372-.084h.168l1.876 4.284c.187.429.504.737.952.924a1.61 1.61 0 0 0 1.33-.014c.439-.196.761-.541.966-1.036s.187-.919-.056-1.274c-1.101-2.352-2.716-6.431-4.844-12.236l-.924-2.436c-.243-.616-.457-1.101-.644-1.456-.131-.261-.252-.476-.364-.644a2.2 2.2 0 0 0-.308-.392 1.97 1.97 0 0 0-.952-.504c-.728-.149-1.344.075-1.848.672-.168.168-.327.392-.476.672-.168.317-.373.784-.616 1.4a59.62 59.62 0 0 1-.546 1.498c-.289.775-.518 1.358-.686 1.75l-1.568 3.752-1.904 4.536-1.456 3.528c-.149.467-.121.915.084 1.344a1.66 1.66 0 0 0 .994.882c.199.069.396.104.59.104m7.068-14.258l.252.784 1.764 4.676-4.368.196 1.792-4.2.56-1.456M17.71.028c.485 0 .896-.168 1.232-.504s.504-.747.504-1.232-.168-.896-.504-1.232-.747-.504-1.232-.504c-2.669 0-5.889-.037-9.66-.112l-.42-5.04c1.885.019 4.863-.019 8.932-.112a1.63 1.63 0 0 0 1.232-.532 1.7 1.7 0 0 0 .49-1.246c-.009-.476-.191-.882-.546-1.218s-.765-.495-1.232-.476l-9.044.084-.056-4.396h9.884c.485 0 .896-.168 1.232-.504s.504-.747.504-1.232-.168-.896-.504-1.232-.747-.504-1.232-.504c-5.693 0-9.576-.009-11.648-.028-.485-.019-.901.145-1.246.49s-.518.751-.518 1.218c0 .187.019.364.056.532-.093 5.357.159 10.491.756 15.4-.037.149-.056.308-.056.476-.019.485.14.901.476 1.246a1.65 1.65 0 0 0 1.232.518l11.368.14m35.391 4.061h0a5.97 5.97 0 0 1-.809-.056 5.7 5.7 0 0 1-3.741-2.122l-.051-.065-2.085-2.719-2.349 2.862a5.7 5.7 0 0 1-3.777 2.013l-.076.009-.076.006c-.155.012-.312.018-.466.018a5.75 5.75 0 0 1-3.627-1.275c-1.211-.969-1.961-2.352-2.112-3.895-.102-1.041.079-2.064.517-2.986-1.241.383-2.625.589-4.142.615v1.77c.034 1.542-.554 2.995-1.661 4.103a5.77 5.77 0 0 1-3.982 1.703l-.116.001c-1.25 0-2.442-.406-3.428-1.156-.979.723-2.162 1.114-3.408 1.114-2.956 0-6.797-.047-11.419-.14a5.67 5.67 0 0 1-4.048-1.728 5.73 5.73 0 0 1-.861-1.138 11.19 11.19 0 0 1-2.547 1.744l-.076.038-.077.035a14.04 14.04 0 0 1-2.43.825c-.871.211-1.815.338-2.805.376a41.82 41.82 0 0 1-1.579.034 23.67 23.67 0 0 1-.459-.004c-.537-.011-1.197-.04-2.016-.091L-12 3.882c-.48-.023-.95-.109-1.403-.259-.507-.11-.99-.288-1.443-.53a5.86 5.86 0 0 1-.798.433 5.63 5.63 0 0 1-2.309.499 5.67 5.67 0 0 1-2.191-.444C-21.536 3-22.63 1.929-23.225.562l-.77-1.758-.505.035-.385.028a7.87 7.87 0 0 1-.861.037h-.196a34.72 34.72 0 0 0-.478 1.29l-.033.09a5.75 5.75 0 0 1-2.915 3.184c-.784.375-1.614.565-2.466.565h0a5.79 5.79 0 0 1-1.901-.325c-.404-.14-.786-.322-1.141-.54-.91.578-1.969.887-3.078.887a5.7 5.7 0 0 1-4.06-1.676 5.7 5.7 0 0 1-1.676-4.06l.011-3.135-.625-.006-.462-.004.111 2.807a5.61 5.61 0 0 1-1.486 4.195c-1.023 1.111-2.419 1.77-3.93 1.857a5.99 5.99 0 0 1-.344.01c-1.451 0-2.784-.522-3.856-1.509-1.12-1.032-1.774-2.437-1.845-3.959-.094-1.659-.193-4.371-.303-8.284-.044-.301-.066-.604-.066-.905 0-.191.007-.38.022-.566l-.292-6.794a5.69 5.69 0 0 1 1.395-4.186c1.02-1.17 2.436-1.863 3.989-1.953.115-.007.232-.01.347-.01 1.409 0 2.718.492 3.786 1.422 1.168 1.018 1.853 2.424 1.938 3.969l.149 2.402.906.008.893.008.146-2.527c.077-1.557.764-2.975 1.94-4 1.067-.93 2.376-1.422 3.786-1.422a6.05 6.05 0 0 1 .347.01c1.552.09 2.969.783 3.989 1.953a5.69 5.69 0 0 1 1.396 4.17l-.08 1.387.196-.52.498-1.363.034-.102.039-.1c.304-.772.559-1.346.802-1.805l.006-.011c.303-.568.656-1.067 1.051-1.488 1.153-1.303 2.702-2.018 4.379-2.018a6.12 6.12 0 0 1 1.227.126l.02.004c1.062.223 2.05.74 2.857 1.494l.099.096c.311.311.593.664.839 1.049a9.99 9.99 0 0 1 .564.991c.251.482.515 1.076.806 1.815l.018.047.424 1.118.012-.646c.011-1.318.454-2.548 1.282-3.56a5.57 5.57 0 0 1 3.058-1.922c.214-.056.431-.096.65-.12l.601-.1c.784-.161 1.107-.21 1.371-.233a29.41 29.41 0 0 0 .761-.11c.789-.12 1.317-.172 1.765-.172a28.9 28.9 0 0 0 .944-.025 13.77 13.77 0 0 1 .508-.01 8.97 8.97 0 0 1 1.567.124l.089.017 1.222.246c.612.139 1.21.324 1.775.551l.079.031.077.035a11.41 11.41 0 0 1 1.586.871A11.6 11.6 0 0 1 .8-21.386c.219-.336.476-.653.768-.945 1.072-1.072 2.493-1.663 4-1.663l.153.002 11.569.027a5.71 5.71 0 0 1 3.271 1.016c.849-.661 1.879-1.068 3.013-1.168.657-.059 1.315-.006 1.945.154a31.86 31.86 0 0 1 1.269-.151 38.24 38.24 0 0 1 2.395-.142 15.6 15.6 0 0 1 .511-.008 13.91 13.91 0 0 1 2.851.288c1.073.225 2.095.572 3.04 1.031l.071.036c.297.152.586.318.867.497a5.81 5.81 0 0 1 .913-.735c.941-.613 2.021-.937 3.123-.937a5.86 5.86 0 0 1 1.146.115c1.455.291 2.72 1.108 3.565 2.302l1.305 1.818 1.153-1.771.051-.081.055-.079c.845-1.207 2.069-2.013 3.54-2.33a5.98 5.98 0 0 1 1.258-.136c1.043 0 2.07.288 2.971.833 1.335.807 2.256 2.095 2.593 3.627a5.72 5.72 0 0 1-.673 4.21l-.05.084-.054.082c-1.104 1.676-2.334 3.441-3.672 5.269l3.923 5.11a5.67 5.67 0 0 1 1.083 4.215 5.63 5.63 0 0 1-2.271 3.794 5.7 5.7 0 0 1-3.385 1.112z" fill="#fff"/></g></g></g></svg>
