<svg xmlns="http://www.w3.org/2000/svg" width="75.522" height="77.095" ><defs><filter id="A" x="8" y="8" width="59.522" height="61.095" filterUnits="userSpaceOnUse"><feOffset dy="6"/><feGaussianBlur result="A"/><feFlood flood-color="#547bd6"/><feComposite operator="in" in2="A"/><feComposite in="SourceGraphic"/></filter></defs><g transform="translate(-.5)"><rect width="75.522" height="77.095" rx="37.761" fill="#8baeff" opacity=".3" x=".5"/><g transform="translate(.5)" filter="url(#A)"><rect width="59.522" height="55.095" rx="27.548" transform="translate(8 8)" fill="#8baeff"/></g><g fill="#fff"><path d="M44.321 52.164a6.73 6.73 0 0 1-6.677-5.74l-9.324-7.531c-.403.08-.825.12-1.26.12-2.934 0-4.983-1.815-4.983-4.415a4.99 4.99 0 0 1 4.983-4.983 4.98 4.98 0 0 1 2.109.467l8.399-4.412c.007-3.718 3.034-6.74 6.753-6.74s6.754 3.03 6.754 6.754c0 1.821-.712 3.355-2.06 4.437-1.201.964-2.868 1.494-4.694 1.494-1.665 0-3.181-.435-4.347-1.237l-7.931 4.166v.053l-.024.485 7.452 6.019c1.213-1.042 2.926-1.624 4.849-1.624 1.827 0 3.494.531 4.694 1.494 1.348 1.081 2.06 2.616 2.06 4.438 0 3.724-3.03 6.753-6.754 6.753z"/><path d="M44.321 51.164c3.178 0 5.754-2.576 5.754-5.753s-2.576-4.932-5.754-4.932c-1.985 0-3.736.685-4.77 1.973l-8.616-6.959c.071-.277.108-.576.108-.895a4.02 4.02 0 0 0-.05-.632l9.084-4.772c1.052.931 2.563 1.421 4.242 1.421 3.178 0 5.754-1.754 5.754-4.931s-2.576-5.754-5.754-5.754-5.753 2.576-5.753 5.754c0 .197.01.389.029.575l-9.434 4.956a3.97 3.97 0 0 0-2.104-.6c-2.2 0-3.983 1.783-3.983 3.983s1.784 3.415 3.983 3.415c.532 0 1.039-.071 1.503-.209l10.025 8.098c.25 2.947 2.72 5.262 5.732 5.262m0 2a7.73 7.73 0 0 1-7.596-6.197l-8.686-7.016a7.68 7.68 0 0 1-.979.062c-1.561 0-3.006-.469-4.068-1.322-1.235-.991-1.915-2.444-1.915-4.092a5.99 5.99 0 0 1 8.042-5.619l7.475-3.927c.322-3.981 3.665-7.123 7.728-7.123 4.275 0 7.754 3.478 7.754 7.754 0 2.104-.864 3.957-2.434 5.217-1.377 1.106-3.267 1.715-5.32 1.715-1.631 0-3.144-.379-4.389-1.085l-6.495 3.412 6.057 4.892c1.317-.876 2.993-1.356 4.827-1.356 2.053 0 3.943.609 5.32 1.715 1.569 1.26 2.434 3.112 2.434 5.217 0 4.275-3.479 7.753-7.754 7.753z" fill="#5a7fd3"/></g></g></svg>
