<svg xmlns="http://www.w3.org/2000/svg" xmlns:xlink="http://www.w3.org/1999/xlink" width="270.343" height="270.395" ><path d="M97 11.824c48.049 0 107 58.951 107 107s-58.951 97-107 97-97-48.951-97-97 48.951-107 97-107zm52.215.363c4.3 13.768 40.013 20.651 54.641 56.792s17.64-8.175-7.314-32.7-51.63-37.855-47.327-24.092zM136.814.307c-5.788 2.911-7.438 8.829.906 12.517s4.882-15.432-.906-12.517z" transform="matrix(-1 0 0 -1 215.086 270.394)" fill="#dee8ff"/><g transform="matrix(.945519 -.325568 .325568 .945519 -3931.541 -635.817)"><g fill="#004f9d"><path d="M3738.992 1990.826l-2.617 39.046-1.183 17.624-119.259-3.38-1.27-50.195c8.831 4 26.782 9.879 56.071 9.879l1.931-.01a183.52 183.52 0 0 0 66.327-12.964z"/><use xlink:href="#B"/></g><use xlink:href="#B" fill="#ec9f29"/><path d="M3740.985 1966.38l-1.994 24.446a183.52 183.52 0 0 1-66.326 12.964v-39.085z" fill="#02113a"/><circle cx="3672.5" cy="2007.496" r="20.5" fill="#fff"/><path d="M3691.012 2007.692c.001 4.859-1.929 9.519-5.365 12.954s-8.096 5.365-12.954 5.364c-.285 0-.574 0-.855-.019a18.32 18.32 0 0 1 .719-36.613h.135c4.858-.002 9.518 1.927 12.954 5.362s5.366 8.094 5.366 12.952z" fill="#053161"/><path d="M3672.558 1989.378l-.719 36.613a18.32 18.32 0 0 1 .719-36.613z" fill="#23c0d9"/><path d="M3685.763 2007.692c.001 3.466-1.376 6.791-3.827 9.242s-5.776 3.828-9.242 3.827c-.2 0-.41 0-.609-.014a13.07 13.07 0 0 1 .513-26.122h.1c3.465 0 6.789 1.377 9.239 3.828s3.827 5.774 3.826 9.239z" fill="#f9f7e8"/><path d="M3672.598 1994.626l-.513 26.122a13.07 13.07 0 0 1 .513-26.122z" fill="#ea961d"/><rect width="10" height="11" rx="5" fill="#ece300" x="3661" y="2029.996"/><rect width="10" height="11" rx="5" fill="#00aee3" x="3673" y="2029.996"/><path d="M3740.983 1966.381l-16.856-5.8-120.252.966 10.125 6.286z" fill="#0a87dd"/><path d="M3616.174,2044.357l-9.312-6.725-2.429-76.361,9.568,6.558Z" fill="#0070cc"/></g><path d="M39.141 127.904a337.29 337.29 0 0 1 9.571-40.508l37.378-50.54s9.269-3.111 23.577-6.973l-25.858 3.752S48.623 71.336 44.91 82.029c-2.091 6.014-4.265 27.888-5.769 45.876zM92.124 85.32l12.114 4.278c-.385.341-.479 2.287 1.567 9.962 3.365 12.63 18.662 11.462 18.662 11.462s.77-22.376-5.627-29.13c-4.108-4.34-17.6-11.958-26.729-16.853a93.63 93.63 0 0 0-5.316 12.762c-3.241 10.482-3.076 22.272-3.076 22.272l.463.686 5.852.174a57.23 57.23 0 0 0-.448 7.341c3.644 4.997 7.659 9.713 12.011 14.109a26.52 26.52 0 0 0 3.439-.447l-1.168-20.383c-.315-8.227-11.453-16.035-11.742-16.233z" fill="#e7ab79"/><path d="M120.154 258.465h0c-40.783-1.322-69.629-31.2-77.5-40.326-2.9-11.65-5.151-21.761-6.684-30.051a133.23 133.23 0 0 1-1.592-30.162 251.69 251.69 0 0 1 3.477-30.4c-.002-.009-.002-.017 0-.026 2.369-13.691 5.564-27.211 9.567-40.5l37.361-50.514c.088-.03 9.435-3.153 23.566-6.966h.021l1.44-.388.49-.131.455-.121c4.622-1.181 9.378-1.76 14.148-1.722 5.97-.007 11.917.741 17.7 2.225.332 1.177.424 2.408.271 3.621a10.96 10.96 0 0 1-1.083 3.649c-.79 1.551-1.861 2.941-3.16 4.1-2.17 1.777-4.772 2.947-7.541 3.39a40.47 40.47 0 0 1-8.187.757c-2.577 0-4.458-.2-4.536-.205l-20.892 7.607c-.033.055-3.393 5.7-6.664 12.34-2.089 4.112-3.865 8.377-5.313 12.756-3.2 10.354-3.077 22.142-3.075 22.26l.463.686c.965 1.4 2.949 4.244 5.4 7.51 3.645 4.991 7.656 9.704 12 14.1 3.267 3.127 5.81 4.713 7.558 4.713h.152c.889-.046 1.852-.066 3.124-.066l1.637.007h.289l2.042.01a76.75 76.75 0 0 0 24.238-3.795c7.83-2.4 12.542-4.252 16.7-5.885a101.73 101.73 0 0 1 14.049-4.668c2.128-.579 4.317-.903 6.522-.967 2.5 0 3.676.666 4.223 1.225.351.331.565.78.6 1.261l-.934 1.984c-2.444 5.243-2.444 5.243-12.017 12.157l-.037.027-4.672 3.384c-10.756 7.83-14.868 11.316-22.334 17.646l-.12.1-13.58 11.383a163 163 0 0 0-22.831 23.609c-5.462 6.862-8.632 11.852-8.664 11.9l23.92 62.481z" fill="#ffc498" stroke="rgba(0,0,0,0)" stroke-miterlimit="10"/><defs ><path id="B" d="M3740.985 1966.38l-1.994 24.446a183.52 183.52 0 0 1-66.326 12.964l-1.931.01c-29.288 0-47.24-5.876-56.071-9.879l-.662-26.092 58.664-3.124z"/></defs></svg>
