<svg xmlns="http://www.w3.org/2000/svg" width="215.086" height="215.824" ><path d="M97 11.823c48.049 0 107 58.951 107 107s-58.951 97-107 97-97-48.951-97-97 48.951-107 97-107zm52.215.364c4.3 13.768 40.013 20.651 54.641 56.792s17.64-8.175-7.314-32.7-51.63-37.855-47.327-24.092zM136.814.307c-5.788 2.911-7.438 8.829.906 12.517s4.882-15.432-.906-12.517z" fill="#dee8ff"/><path d="M154.873 82.222c2.253 4.959 2.277 8.182 1.155 9.116-.913.77-2.588.012-4.431-2.564-4.1-5.734-7.782-13.515-5.324-14.743.207-.026.416-.026.623 0 1.371.123 4.799 1.196 7.977 8.191z" fill="#fff"/><path d="M151.597 88.774c1.843 2.576 3.518 3.333 4.432 2.563l.094.185-5.734 5.553-2.44 2.363a163.16 163.16 0 0 1-11.509-23.164l3.014-.782h0l7.224-1.872.213.406c-.207-.026-.416-.026-.623 0-2.452 1.233 1.234 9.014 5.329 14.748z" fill="#b3c5f0"/><path d="M156.102 72.803c22.115 41.773 21.3 61.841 11.467 52.012-2.232-2.232-4.591-4.78-7.015-7.667h0c-4.652-5.565-8.865-11.483-12.6-17.7l2.441-2.363 5.733-5.553-.094-.184c1.122-.934 1.1-4.157-1.155-9.116-3.178-6.995-6.606-8.068-7.978-8.2l-.213-.405-7.224 1.872h0l-3.014.782-.405-1.016a213.71 213.71 0 0 1-7.576-21.476v-.008c-2.109-7.806-1.77-11.512.2-13.736-.006-.006 5.318-9.016 27.433 32.758z" fill="#f8d008"/><g fill="#fff"><path d="M155.692 67.072c15.563 24.163 24.163 64.3 18.839 67.165-1.63.876-4.022.909-7.126-.582-7.048-3.379-17.733-14.6-31.371-41.6-12.958-25.646-14.526-42.572-14.093-51.131h0c.072-2.075.357-4.138.852-6.155a7.26 7.26 0 0 1 .111-.373c.008-.024.012-.041.016-.057.002-.009.004-.017.008-.025 11.059-4.513 17.202 8.592 32.764 32.758zm11.877 57.745c9.829 9.829 10.648-10.239-11.467-52.012s-27.439-32.764-27.439-32.764c-1.974 2.224-2.314 5.93-.2 13.736v.008a213.71 213.71 0 0 0 7.576 21.477l.405 1.015c3.217 8.014 7.066 15.759 11.509 23.164a140.1 140.1 0 0 0 12.6 17.7h0c2.425 2.894 4.788 5.441 7.016 7.673z"/><path d="M136.035 92.05c13.638 27 24.323 38.219 31.363 41.6-6.315-1.982-27.935-8.3-44.877-7.6a72.86 72.86 0 0 0-29.774 7.982c-4.222-2.805-11.328-8.334-14.662-15.559-3.37-7.306-3.08-16.345-2.568-21.3q.811-.51 1.8-1.159s.012-.008.017-.012l1.572-.872-.139-.082c3.563-2.4 8.58-5.954 15.5-11.18 17.2-13 27.271-44.919 28.533-49.1a30.23 30.23 0 0 0-.852 6.156h0c-.44 8.555 1.129 25.482 14.087 51.126z"/></g><path d="M39.587 140.582c2.913 4.274 6.33 8.182 10.177 11.639-4.062 1.172-12.274 1.757-18.778-9.182-6.638-11.164-1.048-19.437 2.355-23.021-.377 7.373 1.833 14.646 6.246 20.564z" fill="#b3c5f0"/><path d="M81.565 133.829c2.458 1.638 2.458 2.048 2.458 2.048l-27.439 13.515s-3.277-1.638-4.1-3.276a18.1 18.1 0 0 1-1.229-3.277l26.62-13.105c.894 1.634 2.157 3.037 3.69 4.095zm-11.466-15.977a33.6 33.6 0 0 0 1.638 4.5c.564 1.039 1.418 1.893 2.457 2.457l-27.849 13.924a42.76 42.76 0 0 1-2.523-4.517 9.72 9.72 0 0 1-1.163-3.264zm-2.048-10.234a33.35 33.35 0 0 1 .41 4.1l-27.439 13.515-.819-4.1a10.37 10.37 0 0 1 .41-4.505l27.849-13.105s-.821 1.224-.411 4.095z" fill="#ffba00"/><path d="M42.659 130.957c.189 1.149.583 2.254 1.163 3.264a42.81 42.81 0 0 0 2.523 4.517l27.849-13.925a6.12 6.12 0 0 1-2.457-2.457c-.653-1.461-1.2-2.966-1.638-4.505zm-2.048-14.334a10.37 10.37 0 0 0-.409 4.5l.819 4.1 27.439-13.515c-.052-1.374-.189-2.743-.41-4.1-.409-2.866.41-4.1.41-4.1zm15.972 32.764l27.439-13.515s0-.409-2.457-2.048c-1.532-1.06-2.794-2.464-3.686-4.1l-26.62 13.105c.303 1.129.715 2.226 1.229 3.276.819 1.643 4.095 3.279 4.095 3.279zm36.437-15.182l3.084 1.872-12.847 6.229-23.43 11.361-4.267 2.068s-2.015-.287-5.795-3.514c-3.847-3.457-7.264-7.365-10.177-11.639a31.7 31.7 0 0 1-6.246-20.563c.102-2.345.55-4.662 1.331-6.876l41.364-19.659s-.271 1.344-.5 3.51c-.008.057-.012.115-.02.172-.512 4.955-.8 13.994 2.568 21.3 3.334 7.224 10.439 12.753 14.662 15.559.093.059.183.123.273.18z" fill="#0f426d"/><path d="M97.332 132.391l-1.229 3.686s-1.233-.655-3.084-1.872z" fill="#b3c5f0"/><path d="M83.257 142.306l16.943 33.906c3.277 6.963.41 10.239.41 10.239s-2.457 1.229-11.467 6.143-11.877-2.867-11.877-2.867l-17.438-36.06z" fill="#8baeff"/><path d="M78.903 95.122l-1.572.872 1.433-.954z" fill="#f8d008"/><path d="M76.037 93.484l2.727 1.556-1.433.954s-.012.008-.016.012l-1.777.987.499-3.509z" fill="#b3c5f0"/></svg>
