<svg xmlns="http://www.w3.org/2000/svg" width="215.401" height="235.167" ><path d="M97 11.824c48.049 0 107 58.951 107 107s-58.951 97-107 97-97-48.951-97-97 48.951-107 97-107zm52.215.363c4.3 13.768 40.013 20.651 54.641 56.792s17.64-8.175-7.314-32.7-51.63-37.855-47.327-24.092zM136.814.307c-5.788 2.911-7.438 8.829.906 12.517s4.882-15.432-.906-12.517z" transform="matrix(-1 0 0 -1 215.086 235.167)" fill="#dee8ff"/><path d="M148.764 69.507l25.854-52.07 40.783 26.581z" fill="#ffba00"/><path d="M32.319 27.984L4.627 61.83l68.308 25.231z" fill="#fff"/><g fill="#8baeff"><path d="M75.948 8.286L53.326 13.89l25.64 60.977zM56.776 192.269l20.562 10.972 21.747-62.471z" opacity=".5"/><path d="M204.153 78.289l-1.939-17.453-49.367 15.988z" opacity=".58"/></g><path d="M173.552 157.986c-2.127 3.4-13.7 3.024-17.059 3.12-15.025.422-28.7-2.846-56.175-2.846-32.948 0-43.016 3.646-49.451.679s2.134-5.92 2.134-11.432c0-4.331-6.87-4.752-6.87-9.5s6.87-5.171 6.87-9.5-6.87-4.75-6.87-9.5 6.87-5.171 6.87-9.5-6.87-4.75-6.87-9.5 6.87-5.174 6.87-9.5c0-5.514-13.993-15.268 14.179-13.85s57.59-.66 88.091 1.84 9.73 6.497 9.73 12.01c0 4.329 6.867 4.748 6.867 9.5s-6.867 5.172-6.867 9.5 6.867 4.749 6.867 9.5-6.867 5.171-6.867 9.5 6.867 4.748 6.867 9.5-6.867 5.173-6.867 9.5c0 5.407 10.678 7.08 8.551 10.479zm-132.551-.479h0z" fill="#fff"/><path d="M28 147.507a10.01 10.01 0 0 1 6.869-9.5 10 10 0 0 1 0-19 10 10 0 0 1-6.869-9.5 10.01 10.01 0 0 1 6.869-9.5 10 10 0 0 1-6.869-9.5c0-5.523 4.477-10 10-10s10 4.477 10 10c0 4.43-6.871 4.749-6.871 9.5s6.871 5.071 6.871 9.5-6.871 4.749-6.871 9.5 6.871 5.07 6.871 9.5-6.871 4.749-6.871 9.5 6.871 5.071 6.871 9.5c0 5.523-4.477 10-10 10s-10-4.477-10-10z" fill="#ffba00"/><path d="M38 157.507c-5.521-.006-9.994-4.479-10-10-.005-4.319 2.767-8.152 6.87-9.5a9.98 9.98 0 0 1-6.87-9.5c-.006-4.319 2.766-8.153 6.87-9.5a9.98 9.98 0 0 1 0-19c-4.103-1.348-6.875-5.181-6.87-9.5.006-5.521 4.479-9.994 10-10a10.12 10.12 0 0 1 1.5.112c-4.876.763-8.478 4.952-8.5 9.888a9.99 9.99 0 0 0 6.87 9.5 9.98 9.98 0 0 0 0 19c-4.103 1.348-6.875 5.181-6.87 9.5a9.98 9.98 0 0 0 6.87 9.5 9.99 9.99 0 0 0-6.87 9.5 10.06 10.06 0 0 0 8.5 9.888c-.497.074-.998.112-1.5.112z" fill="#ffa000"/><path d="M136.794 136.033c-1.1-1.8 2.585-6.345 4.073-7.912.3-.317.9-1.111 1.693-2.157l-2.308-2.969c-1.488-1.566-5.169-6.11-4.073-7.912.487-.8 4.754 2.922 9.032 7.446 3.183-3.983 7.227-8.41 9.366-7.412 1.657.773-1.925 5.832-6.3 10.793 4.089 4.727 7.265 9.354 5.687 10.09-.211.096-.442.145-.674.142-2.1 0-5.363-3.462-8.126-6.854-3.653 3.793-7.154 6.855-8.14 6.855-.091.009-.18-.033-.23-.11zm-21 0c-1.1-1.8 2.583-6.345 4.073-7.912.3-.317.9-1.111 1.693-2.157-1.1-1.44-1.932-2.571-2.308-2.969-1.488-1.566-5.169-6.11-4.073-7.912.487-.8 4.754 2.922 9.032 7.446 3.183-3.983 7.225-8.41 9.366-7.412 1.655.773-1.925 5.832-6.3 10.793 4.089 4.727 7.265 9.354 5.687 10.09-.211.096-.442.145-.674.142-2.1 0-5.363-3.462-8.128-6.854-3.651 3.793-7.151 6.855-8.137 6.855-.092.01-.181-.033-.231-.11zm-29 0c-1.1-1.8 2.585-6.345 4.075-7.912.3-.317.9-1.111 1.693-2.157-1.1-1.44-1.932-2.571-2.308-2.969-1.488-1.566-5.169-6.11-4.073-7.912.487-.8 4.754 2.922 9.032 7.446 3.181-3.983 7.225-8.41 9.364-7.412 1.657.773-1.925 5.832-6.3 10.793 4.091 4.727 7.267 9.354 5.689 10.09a1.58 1.58 0 0 1-.676.142c-2.1 0-5.363-3.462-8.126-6.854-3.653 3.793-7.154 6.855-8.14 6.855-.092.01-.182-.033-.232-.11zm-21 0c-1.1-1.8 2.585-6.345 4.073-7.912.3-.317.9-1.111 1.693-2.157-1.1-1.44-1.93-2.571-2.306-2.969-1.49-1.566-5.171-6.11-4.073-7.912.487-.8 4.754 2.922 9.032 7.446 3.181-3.983 7.225-8.41 9.364-7.412 1.657.773-1.925 5.832-6.3 10.793 4.089 4.727 7.267 9.354 5.689 10.09-.212.096-.443.145-.676.142-2.1 0-5.363-3.462-8.126-6.854-3.653 3.793-7.154 6.855-8.14 6.855-.092.01-.181-.033-.231-.11zm39.2-10.475c.144-2.11 7.68-1.95 10.869 0 1.625.993-1.27 1.521-4.479 1.521-3.089 0-6.465-.488-6.394-1.521z" fill="#0f426d"/><path d="M164.576 191.207c-5.78-.02-8.53 2.73-8.53 8.53.01 5.33 3.45 8.91 8.55 8.88 4.826-.096 8.725-3.965 8.86-8.79.04-4.94-3.74-8.61-8.88-8.62zm-.2 13.72c-2.63-.9-5.11-2-4.89-5.25.22-3.19 2.25-5.14 5.43-5.01 3.12.12 4.69 2.56 4.64 5.33-.06 2.95-2.26 4.49-5.18 4.93z" fill="#ffba00"/><path d="M135.978 184.573c.12-10.77-.17-11.72-9.03-5.61-.14.09-.31.14-.45.22-8.91 5.25-8.94 5.3-.06 10.46 2.77 1.6 6.03 4.87 8.67 3.34 2.61-1.51.44-5.89.87-8.41zm-3.62 2.92c-2.144 1.482-3.642-.808-5.743-1.937-.379-.194-.644-.557-.714-.978s.063-.849.359-1.156c1.85-1.887 3.628-3.121 5.558-2.239 1.85.83 1.76 5.47.54 6.31z" fill="#fff"/><path d="M110.166 46.058c10.772-.063 11.717-.369 5.456-9.125-.092-.138-.145-.308-.228-.446-5.401-8.821-5.452-8.85-10.461.118-1.553 2.797-4.767 6.113-3.193 8.727 1.554 2.584 5.897.34 8.425.727zm-2.982-3.57c-1.518-2.119.746-3.656 1.839-5.776.188-.383.546-.654.966-.731s.851.049 1.162.34c1.918 1.818 3.183 3.575 2.333 5.52-.799 1.864-5.44 1.853-6.301.647zM71.74 104.507a37.92 37.92 0 0 1-.02-4.46q.18-4.28.18-4.52v-2.64a1.06 1.06 0 0 1 .18-.52c.458-.646 1.158-1.079 1.94-1.2.21-.05.424-.077.64-.08q.34-.02.86-.02 1.02-.02 2.4-.02 1.4 0 2.42.02.54 0 .86.02a2.77 2.77 0 0 1 .66.08 2.45 2.45 0 0 1 1.76 1.24 1.59 1.59 0 0 1 .12.56q.02.18.04.46.02.5.02 1.34 0 1.42-.02 3.84-.02 1.9-.1 5.78c.006.306-.118.6-.34.81a1.1 1.1 0 0 1-.82.32 1.12 1.12 0 0 1-.81-.35c-.216-.216-.329-.515-.31-.82q.08-3.86.1-5.76.02-2.4.02-3.8-.02-.82-.02-1.28l-.02-.08q-.06-.02-.14-.04h-.04a.7.7 0 0 1-.08-.01.73.73 0 0 0-.12-.01q-.3-.02-.82-.02-.98-.02-2.36-.02-1.34 0-2.34.02-.5.02-.82.02a.54.54 0 0 1-.12.02h-.08a2.26 2.26 0 0 0-.38.1v2.04q0 .54-.18 4.62a32.91 32.91 0 0 0 .02 4.16 1.1 1.1 0 0 1-.27.84 1.12 1.12 0 0 1-.78.4c-.302.03-.603-.068-.83-.27a1.11 1.11 0 0 1-.4-.77zm15.6-.2q0-1.08-.01-2.52-.01-1.44-.01-2.7 0-1.26-.06-2.7-.06-1.44-.16-2.72c-.224-.194-.366-.466-.4-.76a1.17 1.17 0 0 1 .42-1.1 1.18 1.18 0 0 1 1-.68 1.28 1.28 0 0 1 .82.2q.88-.14 1.5-.2.62-.06 1.53-.09a7.2 7.2 0 0 1 1.72.14 6.5 6.5 0 0 1 1.51.51 4.75 4.75 0 0 1 1.63 1.39 5.48 5.48 0 0 1 .96 1.96c.179.719.137 1.475-.12 2.17a4.1 4.1 0 0 1-1.49 1.94c-1.106.728-2.418 1.078-3.74 1q-.74 0-1.76-.1l-.86-.1v4.36a1.12 1.12 0 0 1-.35.87 1.24 1.24 0 0 1-.88.38 1.17 1.17 0 0 1-.88-.36c-.241-.233-.375-.555-.37-.89zm5.12-6.66a3.86 3.86 0 0 0 2.24-.5c.325-.241.55-.593.63-.99a1.8 1.8 0 0 0-.2-1.24 2.3 2.3 0 0 0-1.05-.99 3.49 3.49 0 0 0-1.35-.37c-.469-.046-.941-.05-1.41-.01q-.62.06-1.7.22.12 1.66.16 3.66.14.02.53.06.39.04.63.06c.505.061 1.012.094 1.52.1zm14.1 7.82a7.34 7.34 0 0 1-2.9-.13 5.74 5.74 0 0 1-2.28-1.14 7.11 7.11 0 0 1-1.56-1.84 7.14 7.14 0 0 1-.86-2.27 9.94 9.94 0 0 1-.18-1.83 7.2 7.2 0 0 1 .27-1.87 8.9 8.9 0 0 1 .74-1.88 7.12 7.12 0 0 1 1.23-1.65 7.54 7.54 0 0 1 1.74-1.31 1.17 1.17 0 0 1 .52-.46 1.33 1.33 0 0 1 .72-.12l.32.04q.12-.02.28-.06.16-.04.25-.06c.051-.011.101-.024.15-.04.47-.157.989-.006 1.3.38a3.28 3.28 0 0 1 .74.14c.434.117.837.329 1.18.62.478.421.932.868 1.36 1.34a10.26 10.26 0 0 1 1.54 2.02 7.69 7.69 0 0 1 .81 2.34 6.77 6.77 0 0 1-.05 2.51 8.05 8.05 0 0 1-.89 2.4 5.56 5.56 0 0 1-1.78 1.88 6.35 6.35 0 0 1-2.65.99zm-.36-2.48c.687-.085 1.334-.37 1.86-.82a3.97 3.97 0 0 0 1.16-1.61c.246-.661.348-1.367.3-2.07-.048-.684-.253-1.348-.6-1.94-.328-.561-.724-1.078-1.18-1.54a5.11 5.11 0 0 0-1.4-1.24 4.21 4.21 0 0 0-.8-.12l-1.08-.1a2.43 2.43 0 0 0-.5.2 4.8 4.8 0 0 0-2.26 2.54 5.32 5.32 0 0 0-.3 3.28 4.49 4.49 0 0 0 1.6 2.72 4.03 4.03 0 0 0 3.2.7zm14.78 2.52c-.252.027-.506-.033-.72-.17a1.26 1.26 0 0 1-.5-.57l-3.08-7.04q.04 3.08.14 6.52a1.21 1.21 0 0 1-.33.9c-.221.248-.538.39-.87.39-.333.012-.658-.111-.9-.34a1.13 1.13 0 0 1-.38-.87q-.22-6.66-.16-11.98a1.21 1.21 0 0 1 .19-.66c.121-.195.299-.349.51-.44a1.19 1.19 0 0 1 .94-.09 1.28 1.28 0 0 1 .74.59l.98 1.84q.2.42.48 1.02l.42.94.46 1.04.42.96q.12.28.44 1.06.32.78.4.96.08.18.43 1.03.35.85.39.97l1.56-3.48q2.14-4.78 2.62-5.96a1.82 1.82 0 0 1 .18-.32 1.2 1.2 0 0 1 1.02-.68c.327-.029.651.076.9.29.261.208.42.517.44.85q.08 1.1.16 2.12.06 1.14.09 1.9.03.76.04 2.22.01 1.46.02 1.9.01.44 0 2.07-.01 1.63-.01 1.81a1.2 1.2 0 1 1-2.48 0q0-5.32-.04-6.64l-.68 1.48q-1.76 3.84-2.58 5.6a1.17 1.17 0 0 1-.49.6 1.16 1.16 0 0 1-.75.18zm16.76-.04a7.34 7.34 0 0 1-2.9-.13 5.74 5.74 0 0 1-2.28-1.14 7.11 7.11 0 0 1-1.56-1.84 7.14 7.14 0 0 1-.86-2.27 9.94 9.94 0 0 1-.18-1.83 7.2 7.2 0 0 1 .27-1.87 8.9 8.9 0 0 1 .74-1.88 7.12 7.12 0 0 1 1.23-1.65 7.54 7.54 0 0 1 1.74-1.31 1.17 1.17 0 0 1 .52-.46 1.33 1.33 0 0 1 .72-.12l.32.04q.12-.02.28-.06.16-.04.25-.06c.051-.011.101-.024.15-.04.47-.157.989-.006 1.3.38a3.28 3.28 0 0 1 .74.14c.434.117.837.329 1.18.62.478.421.932.868 1.36 1.34a10.26 10.26 0 0 1 1.54 2.02 7.69 7.69 0 0 1 .81 2.34 6.77 6.77 0 0 1-.05 2.51 8.05 8.05 0 0 1-.89 2.4 5.56 5.56 0 0 1-1.78 1.88 6.35 6.35 0 0 1-2.65.99zm-.36-2.48c.687-.085 1.334-.37 1.86-.82a3.97 3.97 0 0 0 1.16-1.61c.246-.661.348-1.367.3-2.07-.048-.684-.253-1.348-.6-1.94-.328-.561-.724-1.078-1.18-1.54a5.11 5.11 0 0 0-1.4-1.24 4.21 4.21 0 0 0-.8-.12l-1.08-.1a2.43 2.43 0 0 0-.5.2 4.8 4.8 0 0 0-2.26 2.54 5.32 5.32 0 0 0-.3 3.28 4.49 4.49 0 0 0 1.6 2.72 4.03 4.03 0 0 0 3.2.7z" fill="#8baeff"/></svg>
