<svg xmlns="http://www.w3.org/2000/svg" width="240.093" height="245.117" ><path d="M97 31.641c48.049 0 107 58.951 107 107s-58.951 97-107 97-97-48.951-97-97 48.951-107 97-107zm52.215.363c4.3 13.768 40.013 20.651 54.641 56.792s17.64-8.175-7.314-32.7-51.63-37.855-47.327-24.092zm-12.401-11.88c-5.788 2.911-7.438 8.829.906 12.517s4.882-15.432-.906-12.517z" fill="#dee8ff"/><g transform="matrix(.899 .438 -.438 .899 -145.376 -1609.467)"><path d="M1048.814 1349.963l45.957 168.531-138.453 14.434 16.754-84.364z" fill="#b3c5f0"/><path d="M916.395 1374.181l132.245-30.44 35.619 163.89-130.064 26.955z" fill="#fff"/><path d="M930.153 1390.831c-3.3.92 21.391 73.369 21.391 73.369s106.057-22.911 104.258-27.909-100.942 20.14-100.942 20.14-21.406-66.521-24.707-65.6z" fill="#dee8ff"/><path d="M937.44 1393.3l9.616 32.226 101.1-24.689-9.356-35.6z" fill="#5fbe5f" opacity=".1"/><path d="M1002.826 1479.662c5.151 8.386 14.537 24.232 34.26 27.215s44.253-13.425 41.27-21.878c-2.184-6.187-61.875-11.665-61.875-11.665s-18.806-2.058-13.655 6.328z" fill="#bcc9e7"/><path d="M1042.872 1426.893c19.672 0 38.372 18.692 38.372 38.368s-18.7 35.632-38.372 35.632a35.63 35.63 0 0 1-35.628-35.632c0-19.676 15.951-38.368 35.628-38.368z" fill="#fff"/><path d="M1043.038 1496.294c-4.172.008-8.303-.826-12.146-2.452a31.11 31.11 0 0 1-9.919-6.687c-2.85-2.843-5.121-6.212-6.687-9.92-1.625-3.844-2.458-7.977-2.448-12.151.099-8.612 3.35-16.888 9.139-23.265a32.34 32.34 0 0 1 9.918-7.513c3.781-1.85 7.934-2.815 12.143-2.822 8.214 0 16.694 3.769 23.265 10.34s10.34 15.052 10.34 23.265a27.73 27.73 0 0 1-2.827 12.147 32.31 32.31 0 0 1-7.512 9.919 35.21 35.21 0 0 1-23.266 9.139zm.125-61.465c-14.908 0-27.985 14.083-27.985 30.137.018 15.448 12.537 27.967 27.985 27.985 16.054 0 30.137-13.077 30.137-27.985.004-15.492-14.642-30.137-30.133-30.137z" fill="#dee8ff"/><path d="M1033.858 1428.034l16.013 10.557 19.159.874-5.089 18.494 5.091 18.494-19.159.872-16.012 10.556-6.752-17.954-14.988-11.97 14.986-11.968z" fill="#ffba00"/><path d="M1034.739 1441.356c-2.421-.121-.912 5.517-4.489 9.322s-10.296 3.56-9.821 5.901 9.469 1.266 13.047-2.539 3.684-12.562 1.263-12.683z" fill="#fff"/><path d="M1027.111 1469.929l-14.988-11.973 2.388-1.907c6.4 1.55 17.6 5.094 19.854 11.3 3.2 8.8-3 14.792 8.4 9.595 9.377-4.278 21.865-2.327 26-1.5l.279 1.014-19.161.872-16.019 10.557z" fill="#ffa000"/><path d="M960.698 1446.849l6.734-20.248 12.827 7.511 6.734-24.82 23.089-6.858 9.62-23.84 18.92-7.185" fill="none" stroke="#5fbe5f" stroke-linecap="round" stroke-linejoin="round" stroke-width="8"/></g></svg>
