<svg xmlns="http://www.w3.org/2000/svg" xmlns:xlink="http://www.w3.org/1999/xlink" width="239.709" height="215.948" ><path d="M121.623 11.948c48.049 0 107 58.951 107 107s-58.951 97-107 97-97-48.951-97-97 48.951-107 97-107zm52.215.363c4.3 13.768 40.013 20.651 54.641 56.792s17.64-8.175-7.314-32.7-51.63-37.855-47.327-24.092zM161.437.431c-5.788 2.911-7.438 8.829.906 12.517s4.882-15.432-.906-12.517z" fill="#dee8ff"/><path d="M0 71.605L19.609 202.33l168.229-48.794-41.515-75.012z" fill="#b3c5f0"/><path d="M.654 70.379l162.245-40.44 25.619 123.89-160.064 36.955z" fill="#fff"/><g fill="#ecf2ff"><path d="M67.11 109.322l86.386-25.953-5.53 20.282-73.613 22.523zm10.223 29.136l85.427-28.972-4.815 20.465-72.783 25.095z"/><circle cx="36.123" cy="119.624" r="13.5"/><circle cx="49.623" cy="153.624" r="13.5"/></g><g fill="#5fbe5f"><use xlink:href="#B"/><use xlink:href="#B" x="13.5" y="34"/></g><path d="M84.933 48.965s21.567 26.036 41.29 29.019 44.253-13.425 41.27-21.878c-2.184-6.187-61.875-11.665-61.875-11.665z" fill="#bcc9e7"/><path d="M135.01 0c19.672 0 38.372 18.692 38.372 38.368S154.682 74 135.01 74a35.63 35.63 0 0 1-35.628-35.632C99.382 18.692 115.333 0 135.01 0z" fill="#fff"/><path d="M135.175 16.594c-11.907 0-19.2 9.693-19.2 21.6s7.291 21.6 19.2 21.6c11.929 0 21.6-9.671 21.6-21.6s-9.671-21.6-21.6-21.6m0-12c17.234 0 33.6 16.371 33.6 33.6s-16.371 31.2-33.6 31.2-31.2-13.969-31.2-31.2 13.971-33.6 31.2-33.6z" fill="#ffba00"/><path d="M132.603 51.212c-7.322-3.871-3.052-12.624-2.025-16.306s9.87-4.83 5 5.327c-2.386 4.977-.388 6.247.648 6.374 1.445.212 2-.871 2.772-3.215 1.514-4.595 5.351-2.5 5.351-2.5s-3.43 10.986-9.241 10.984a5.33 5.33 0 0 1-2.505-.664zm-.589-26.229c1.424-5.047 6.731-2.2 7.893-.69s-.016 6.288-2.133 6.769a3.81 3.81 0 0 1-.836.084c-2.364-.002-6.182-1.702-4.924-6.164z" fill="#0f426d"/><defs ><path id="B" d="M30.696 120.943c-2.016 4.928 7.784 9.307 12.992 6.4s1.569-12.667 7.842-18.044-10.081-3.361-10.753 6.5-8.065.216-10.081 5.144z"/></defs></svg>
