<svg xmlns="http://www.w3.org/2000/svg" width="180" height="80" ><defs><filter id="A" x="25" y="23.999" width="32" height="33.001" filterUnits="userSpaceOnUse"><feOffset dx="1" dy="1"/><feGaussianBlur result="A"/><feFlood flood-opacity=".161"/><feComposite operator="in" in2="A"/><feComposite in="SourceGraphic"/></filter><filter id="B" x="36" y="28.987" width="14.742" height="20.688" filterUnits="userSpaceOnUse"><feOffset dx="1" dy="1"/><feGaussianBlur result="A"/><feFlood flood-opacity=".161"/><feComposite operator="in" in2="A"/><feComposite in="SourceGraphic"/></filter></defs><g transform="translate(-1463 -31)"><g fill="#8baeff" stroke="rgba(139,174,255,0.47)"><rect width="160" height="60" rx="30" stroke="none" x="1473" y="41"/><rect x="1468" y="36" width="170" height="70" rx="35" fill="none" stroke-width="10"/></g><rect width="36" height="36" rx="18" fill="#3b61b8" x="1485" y="53"/><g transform="translate(1463 31)" filter="url(#A)"><path d="M-7008 28.5a2.5 2.5 0 1 1 5 0 2.5 2.5 0 1 1-5 0zm14-14a2.5 2.5 0 1 1 5 0 2.5 2.5 0 1 1-5 0zm-26 0a2.5 2.5 0 1 1 5 0 2.5 2.5 0 1 1-5 0zm12-13a2.5 2.5 0 1 1 5 0 2.5 2.5 0 1 1-5 0z" transform="translate(7045 25)" fill="#fff"/></g><g transform="translate(1463 31)" filter="url(#B)"><path d="M-7007.386 22.988l-4.894-.625a1 1 0 0 1-.642-1.633l.752-.9-2.209-1.854c-.51.226-1.063.343-1.621.342a4 4 0 1 1 0-8 4 4 0 0 1 1.27.206l2.717-3.237-.9-.751a1 1 0 0 1 .345-1.721l4.713-1.464a1 1 0 0 1 1.288 1.082l-.624 4.894a1 1 0 0 1-1.635.64l-.895-.751-2.735 3.259a3.98 3.98 0 0 1 .449 1.844c.001.514-.097 1.023-.289 1.5l2.048 1.718.751-.9a1 1 0 0 1 1.72.347l1.466 4.711a1 1 0 0 1-.952 1.3c-.041 0-.082-.002-.123-.007z" transform="translate(7056 25.68)" fill="#fff"/></g><circle cx="1503" cy="71" r="2" fill="#5477c6"/></g></svg>
